<svg xmlns="http://www.w3.org/2000/svg" xmlns:xlink="http://www.w3.org/1999/xlink" version="1.1" class="marks" width="844" height="687" viewBox="0 0 844 687"><rect width="844" height="687" fill="white"/><g fill="none" stroke-miterlimit="10" transform="translate(39,36)"><g class="mark-group role-frame root" role="graphics-object" aria-roledescription="group mark container"><g transform="translate(0,0)"><path class="background" aria-hidden="true" d="M0.5,0.5h800v600h-800Z" stroke="#ddd"/><g><g class="mark-group role-axis" role="graphics-symbol" aria-roledescription="axis" aria-label="X-axis titled 'Parser' for a discrete scale with 8 values: yamlrocks&#xA;v0.2.1, yaml_rs (parse_dt=False)&#xA;v0.1.4, yaml_rs&#xA;v0.1.4, ryaml&#xA;v0.5.1, PyYAML (CLoader)&#xA;v6.0.3, ending with ruamel.yaml&#xA;v0.19.1"><g transform="translate(0.5,600.5)"><path class="background" aria-hidden="true" d="M0,0h0v0h0Z" pointer-events="none"/><g><g class="mark-rule role-axis-tick" pointer-events="none"><line transform="translate(50,0)" x2="0" y2="5" stroke="#888" stroke-width="1" opacity="1"/><line transform="translate(150,0)" x2="0" y2="5" stroke="#888" stroke-width="1" opacity="1"/><line transform="translate(250,0)" x2="0" y2="5" stroke="#888" stroke-width="1" opacity="1"/><line transform="translate(350,0)" x2="0" y2="5" stroke="#888" stroke-width="1" opacity="1"/><line transform="translate(450,0)" x2="0" y2="5" stroke="#888" stroke-width="1" opacity="1"/><line transform="translate(550,0)" x2="0" y2="5" stroke="#888" stroke-width="1" opacity="1"/><line transform="translate(650,0)" x2="0" y2="5" stroke="#888" stroke-width="1" opacity="1"/><line transform="translate(750,0)" x2="0" y2="5" stroke="#888" stroke-width="1" opacity="1"/></g><g class="mark-text role-axis-label" pointer-events="none"><text text-anchor="middle" transform="translate(49.5,15)" font-family="sans-serif" font-size="10px" fill="#000" opacity="1"><tspan>yamlrocks</tspan><tspan x="0" dy="14">v0.2.1</tspan></text><text text-anchor="middle" transform="translate(149.5,15)" font-family="sans-serif" font-size="10px" fill="#000" opacity="1"><tspan>yaml_rs (parse_dt=False)</tspan><tspan x="0" dy="14">v0.1.4</tspan></text><text text-anchor="middle" transform="translate(249.5,15)" font-family="sans-serif" font-size="10px" fill="#000" opacity="1"><tspan>yaml_rs</tspan><tspan x="0" dy="14">v0.1.4</tspan></text><text text-anchor="middle" transform="translate(349.5,15)" font-family="sans-serif" font-size="10px" fill="#000" opacity="1"><tspan>ryaml</tspan><tspan x="0" dy="14">v0.5.1</tspan></text><text text-anchor="middle" transform="translate(449.5,15)" font-family="sans-serif" font-size="10px" fill="#000" opacity="1"><tspan>PyYAML (CLoader)</tspan><tspan x="0" dy="14">v6.0.3</tspan></text><text text-anchor="middle" transform="translate(549.5,15)" font-family="sans-serif" font-size="10px" fill="#000" opacity="1"><tspan>oyaml</tspan><tspan x="0" dy="14">v1.0</tspan></text><text text-anchor="middle" transform="translate(649.5,15)" font-family="sans-serif" font-size="10px" fill="#000" opacity="1"><tspan>PyYAML</tspan><tspan x="0" dy="14">v6.0.3</tspan></text><text text-anchor="middle" transform="translate(749.5,15)" font-family="sans-serif" font-size="10px" fill="#000" opacity="1"><tspan>ruamel.yaml</tspan><tspan x="0" dy="14">v0.19.1</tspan></text></g><g class="mark-rule role-axis-domain" pointer-events="none"><line transform="translate(0,0)" x2="800" y2="0" stroke="#888" stroke-width="1" opacity="1"/></g><g class="mark-text role-axis-title" pointer-events="none"><text text-anchor="middle" transform="translate(400,44)" font-family="sans-serif" font-size="11px" font-weight="bold" fill="#000" opacity="1">Parser</text></g></g><path class="foreground" aria-hidden="true" d="" pointer-events="none" display="none"/></g></g><g class="mark-group role-axis" role="graphics-symbol" aria-roledescription="axis" aria-label="Y-axis titled 'Execution Time (seconds, lower=better)' for a linear scale with values from 0 to 33"><g transform="translate(0.5,0.5)"><path class="background" aria-hidden="true" d="M0,0h0v0h0Z" pointer-events="none"/><g><g class="mark-rule role-axis-tick" pointer-events="none"><line transform="translate(0,600)" x2="-5" y2="0" stroke="#888" stroke-width="1" opacity="1"/><line transform="translate(0,563)" x2="-5" y2="0" stroke="#888" stroke-width="1" opacity="1"/><line transform="translate(0,526)" x2="-5" y2="0" stroke="#888" stroke-width="1" opacity="1"/><line transform="translate(0,489)" x2="-5" y2="0" stroke="#888" stroke-width="1" opacity="1"/><line transform="translate(0,453)" x2="-5" y2="0" stroke="#888" stroke-width="1" opacity="1"/><line transform="translate(0,416)" x2="-5" y2="0" stroke="#888" stroke-width="1" opacity="1"/><line transform="translate(0,379)" x2="-5" y2="0" stroke="#888" stroke-width="1" opacity="1"/><line transform="translate(0,342)" x2="-5" y2="0" stroke="#888" stroke-width="1" opacity="1"/><line transform="translate(0,305)" x2="-5" y2="0" stroke="#888" stroke-width="1" opacity="1"/><line transform="translate(0,268)" x2="-5" y2="0" stroke="#888" stroke-width="1" opacity="1"/><line transform="translate(0,231)" x2="-5" y2="0" stroke="#888" stroke-width="1" opacity="1"/><line transform="translate(0,195)" x2="-5" y2="0" stroke="#888" stroke-width="1" opacity="1"/><line transform="translate(0,158)" x2="-5" y2="0" stroke="#888" stroke-width="1" opacity="1"/><line transform="translate(0,121)" x2="-5" y2="0" stroke="#888" stroke-width="1" opacity="1"/><line transform="translate(0,84)" x2="-5" y2="0" stroke="#888" stroke-width="1" opacity="1"/><line transform="translate(0,47)" x2="-5" y2="0" stroke="#888" stroke-width="1" opacity="1"/><line transform="translate(0,10)" x2="-5" y2="0" stroke="#888" stroke-width="1" opacity="1"/></g><g class="mark-text role-axis-label" pointer-events="none"><text text-anchor="end" transform="translate(-7,603)" font-family="sans-serif" font-size="10px" fill="#000" opacity="1">0</text><text text-anchor="end" transform="translate(-7,566.1414212335718)" font-family="sans-serif" font-size="10px" fill="#000" opacity="1">2</text><text text-anchor="end" transform="translate(-7,529.2828424671436)" font-family="sans-serif" font-size="10px" fill="#000" opacity="1">4</text><text text-anchor="end" transform="translate(-7,492.42426370071536)" font-family="sans-serif" font-size="10px" fill="#000" opacity="1">6</text><text text-anchor="end" transform="translate(-7,455.5656849342871)" font-family="sans-serif" font-size="10px" fill="#000" opacity="1">8</text><text text-anchor="end" transform="translate(-7,418.70710616785885)" font-family="sans-serif" font-size="10px" fill="#000" opacity="1">10</text><text text-anchor="end" transform="translate(-7,381.8485274014307)" font-family="sans-serif" font-size="10px" fill="#000" opacity="1">12</text><text text-anchor="end" transform="translate(-7,344.98994863500246)" font-family="sans-serif" font-size="10px" fill="#000" opacity="1">14</text><text text-anchor="end" transform="translate(-7,308.1313698685742)" font-family="sans-serif" font-size="10px" fill="#000" opacity="1">16</text><text text-anchor="end" transform="translate(-7,271.272791102146)" font-family="sans-serif" font-size="10px" fill="#000" opacity="1">18</text><text text-anchor="end" transform="translate(-7,234.4142123357178)" font-family="sans-serif" font-size="10px" fill="#000" opacity="1">20</text><text text-anchor="end" transform="translate(-7,197.55563356928957)" font-family="sans-serif" font-size="10px" fill="#000" opacity="1">22</text><text text-anchor="end" transform="translate(-7,160.69705480286137)" font-family="sans-serif" font-size="10px" fill="#000" opacity="1">24</text><text text-anchor="end" transform="translate(-7,123.83847603643314)" font-family="sans-serif" font-size="10px" fill="#000" opacity="1">26</text><text text-anchor="end" transform="translate(-7,86.9798972700049)" font-family="sans-serif" font-size="10px" fill="#000" opacity="1">28</text><text text-anchor="end" transform="translate(-7,50.121318503576724)" font-family="sans-serif" font-size="10px" fill="#000" opacity="1">30</text><text text-anchor="end" transform="translate(-7,13.262739737148486)" font-family="sans-serif" font-size="10px" fill="#000" opacity="1">32</text></g><g class="mark-rule role-axis-domain" pointer-events="none"><line transform="translate(0,600)" x2="0" y2="-600" stroke="#888" stroke-width="1" opacity="1"/></g><g class="mark-text role-axis-title" pointer-events="none"><text text-anchor="middle" transform="translate(-22.123046875,300) rotate(-90) translate(0,-2)" font-family="sans-serif" font-size="11px" font-weight="bold" fill="#000" opacity="1">Execution Time (seconds, lower=better)</text></g></g><path class="foreground" aria-hidden="true" d="" pointer-events="none" display="none"/></g></g><g class="mark-group role-scope" role="graphics-object" aria-roledescription="group mark container"><g transform="translate(5,592.9955134236717)"><path class="background" aria-hidden="true" d="M3.502243288164152,0L86.49775671183585,0C88.43069740200691,0,90,1.569302597993087,90,3.502243288164152L90,7.004486576328304C90,7.004486576328304,90,7.004486576328304,90,7.004486576328304L0,7.004486576328304C0,7.004486576328304,0,7.004486576328304,0,7.004486576328304L0,3.502243288164152C0,1.569302597993087,1.569302597993087,0,3.502243288164152,0Z"/><g clip-path="url(#clip1)"><g class="mark-group role-scope" role="graphics-object" aria-roledescription="group mark container"><g transform="translate(0,-592.9955134236717)"><path class="background" aria-hidden="true" d="M0,0h90v0h-90Z"/><g><g class="mark-rect role-mark layer_0_marks" role="graphics-object" aria-roledescription="rect mark container"><path aria-label="Parser: yamlrocks&#xA;v0.2.1; Execution Time (seconds, lower=better): 0.380073611667; parser: yamlrocks; Execution Time (s): 0.3801; Slowdown: 1.00" role="graphics-symbol" aria-roledescription="bar" d="M0,592.9955134236717h90v7.004486576328304h-90Z" fill="#666666"/></g></g><path class="foreground" aria-hidden="true" d="" display="none"/></g></g></g><path class="foreground" aria-hidden="true" d="" display="none"/></g><g transform="translate(105,592.1499282424173)"><path class="background" aria-hidden="true" d="M3.925035878791334,0L86.07496412120867,0C88.24125039439161,0,90,1.7587496056083862,90,3.925035878791334L90,7.850071757582668C90,7.850071757582668,90,7.850071757582668,90,7.850071757582668L0,7.850071757582668C0,7.850071757582668,0,7.850071757582668,0,7.850071757582668L0,3.925035878791334C0,1.7587496056083862,1.7587496056083862,0,3.925035878791334,0Z"/><g clip-path="url(#clip2)"><g class="mark-group role-scope" role="graphics-object" aria-roledescription="group mark container"><g transform="translate(0,-592.1499282424173)"><path class="background" aria-hidden="true" d="M0,0h90v0h-90Z"/><g><g class="mark-rect role-mark layer_0_marks" role="graphics-object" aria-roledescription="rect mark container"><path aria-label="Parser: yaml_rs (parse_dt=False)&#xA;v0.1.4; Execution Time (seconds, lower=better): 0.425956291333; parser: yaml_rs (parse_dt=False); Execution Time (s): 0.4260; Slowdown: 1.12" role="graphics-symbol" aria-roledescription="bar" d="M0,592.1499282424173h90v7.850071757582668h-90Z" fill="#a6761d"/></g></g><path class="foreground" aria-hidden="true" d="" display="none"/></g></g></g><path class="foreground" aria-hidden="true" d="" display="none"/></g><g transform="translate(205,592.093364735715)"><path class="background" aria-hidden="true" d="M3.9533176321425003,0L86.0466823678575,0C88.22857776563399,0,90,1.7714222343660102,90,3.9533176321425003L90,7.906635264285001C90,7.906635264285001,90,7.906635264285001,90,7.906635264285001L0,7.906635264285001C0,7.906635264285001,0,7.906635264285001,0,7.906635264285001L0,3.9533176321425003C0,1.7714222343660102,1.7714222343660102,0,3.9533176321425003,0Z"/><g clip-path="url(#clip3)"><g class="mark-group role-scope" role="graphics-object" aria-roledescription="group mark container"><g transform="translate(0,-592.093364735715)"><path class="background" aria-hidden="true" d="M0,0h90v0h-90Z"/><g><g class="mark-rect role-mark layer_0_marks" role="graphics-object" aria-roledescription="rect mark container"><path aria-label="Parser: yaml_rs&#xA;v0.1.4; Execution Time (seconds, lower=better): 0.429025509333; parser: yaml_rs; Execution Time (s): 0.4290; Slowdown: 1.13" role="graphics-symbol" aria-roledescription="bar" d="M0,592.093364735715h90v7.906635264285001h-90Z" fill="#e6ab02"/></g></g><path class="foreground" aria-hidden="true" d="" display="none"/></g></g></g><path class="foreground" aria-hidden="true" d="" display="none"/></g><g transform="translate(305,587.1670089561)"><path class="background" aria-hidden="true" d="M6,0L84,0C87.311490146964,0,90,2.688509853036,90,6L90,12.832991043900051C90,12.832991043900051,90,12.832991043900051,90,12.832991043900051L0,12.832991043900051C0,12.832991043900051,0,12.832991043900051,0,12.832991043900051L0,6C0,2.688509853036,2.688509853036,0,6,0Z"/><g clip-path="url(#clip4)"><g class="mark-group role-scope" role="graphics-object" aria-roledescription="group mark container"><g transform="translate(0,-587.1670089561)"><path class="background" aria-hidden="true" d="M0,0h90v0h-90Z"/><g><g class="mark-rect role-mark layer_0_marks" role="graphics-object" aria-roledescription="rect mark container"><path aria-label="Parser: ryaml&#xA;v0.5.1; Execution Time (seconds, lower=better): 0.696336726667; parser: ryaml; Execution Time (s): 0.6963; Slowdown: 1.83" role="graphics-symbol" aria-roledescription="bar" d="M0,587.1670089561h90v12.832991043900051h-90Z" fill="#66a61e"/></g></g><path class="foreground" aria-hidden="true" d="" display="none"/></g></g></g><path class="foreground" aria-hidden="true" d="" display="none"/></g><g transform="translate(405,560.6001191472594)"><path class="background" aria-hidden="true" d="M6,0L84,0C87.311490146964,0,90,2.688509853036,90,6L90,39.39988085274058C90,39.39988085274058,90,39.39988085274058,90,39.39988085274058L0,39.39988085274058C0,39.39988085274058,0,39.39988085274058,0,39.39988085274058L0,6C0,2.688509853036,2.688509853036,0,6,0Z"/><g clip-path="url(#clip5)"><g class="mark-group role-scope" role="graphics-object" aria-roledescription="group mark container"><g transform="translate(0,-560.6001191472594)"><path class="background" aria-hidden="true" d="M0,0h90v0h-90Z"/><g><g class="mark-rect role-mark layer_0_marks" role="graphics-object" aria-roledescription="rect mark container"><path aria-label="Parser: PyYAML (CLoader)&#xA;v6.0.3; Execution Time (seconds, lower=better): 2.137894741; parser: PyYAML (CLoader); Execution Time (s): 2.1379; Slowdown: 5.62" role="graphics-symbol" aria-roledescription="bar" d="M0,560.6001191472594h90v39.39988085274058h-90Z" fill="#d95f02"/></g></g><path class="foreground" aria-hidden="true" d="" display="none"/></g></g></g><path class="foreground" aria-hidden="true" d="" display="none"/></g><g transform="translate(505,175.76936506657506)"><path class="background" aria-hidden="true" d="M6,0L84,0C87.311490146964,0,90,2.688509853036,90,6L90,424.23063493342494C90,424.23063493342494,90,424.23063493342494,90,424.23063493342494L0,424.23063493342494C0,424.23063493342494,0,424.23063493342494,0,424.23063493342494L0,6C0,2.688509853036,2.688509853036,0,6,0Z"/><g clip-path="url(#clip6)"><g class="mark-group role-scope" role="graphics-object" aria-roledescription="group mark container"><g transform="translate(0,-175.76936506657506)"><path class="background" aria-hidden="true" d="M0,0h90v0h-90Z"/><g><g class="mark-rect role-mark layer_0_marks" role="graphics-object" aria-roledescription="rect mark container"><path aria-label="Parser: oyaml&#xA;v1.0; Execution Time (seconds, lower=better): 23.0193702053; parser: oyaml; Execution Time (s): 23.0194; Slowdown: 60.57" role="graphics-symbol" aria-roledescription="bar" d="M0,175.76936506657506h90v424.23063493342494h-90Z" fill="#7570b3"/></g></g><path class="foreground" aria-hidden="true" d="" display="none"/></g></g></g><path class="foreground" aria-hidden="true" d="" display="none"/></g><g transform="translate(605,170.23629354626203)"><path class="background" aria-hidden="true" d="M6,0L84,0C87.311490146964,0,90,2.688509853036,90,6L90,429.763706453738C90,429.763706453738,90,429.763706453738,90,429.763706453738L0,429.763706453738C0,429.763706453738,0,429.763706453738,0,429.763706453738L0,6C0,2.688509853036,2.688509853036,0,6,0Z"/><g clip-path="url(#clip7)"><g class="mark-group role-scope" role="graphics-object" aria-roledescription="group mark container"><g transform="translate(0,-170.23629354626203)"><path class="background" aria-hidden="true" d="M0,0h90v0h-90Z"/><g><g class="mark-rect role-mark layer_0_marks" role="graphics-object" aria-roledescription="rect mark container"><path aria-label="Parser: PyYAML&#xA;v6.0.3; Execution Time (seconds, lower=better): 23.3196026997; parser: PyYAML; Execution Time (s): 23.3196; Slowdown: 61.36" role="graphics-symbol" aria-roledescription="bar" d="M0,170.23629354626203h90v429.763706453738h-90Z" fill="#1b9e77"/></g></g><path class="foreground" aria-hidden="true" d="" display="none"/></g></g></g><path class="foreground" aria-hidden="true" d="" display="none"/></g><g transform="translate(705,23.07692307692313)"><path class="background" aria-hidden="true" d="M6,0L84,0C87.311490146964,0,90,2.688509853036,90,6L90,576.9230769230769C90,576.9230769230769,90,576.9230769230769,90,576.9230769230769L0,576.9230769230769C0,576.9230769230769,0,576.9230769230769,0,576.9230769230769L0,6C0,2.688509853036,2.688509853036,0,6,0Z"/><g clip-path="url(#clip8)"><g class="mark-group role-scope" role="graphics-object" aria-roledescription="group mark container"><g transform="translate(0,-23.07692307692313)"><path class="background" aria-hidden="true" d="M0,0h90v0h-90Z"/><g><g class="mark-rect role-mark layer_0_marks" role="graphics-object" aria-roledescription="rect mark container"><path aria-label="Parser: ruamel.yaml&#xA;v0.19.1; Execution Time (seconds, lower=better): 31.3046838067; parser: ruamel.yaml; Execution Time (s): 31.3047; Slowdown: 82.36" role="graphics-symbol" aria-roledescription="bar" d="M0,23.07692307692313h90v576.9230769230769h-90Z" fill="#e7298a"/></g></g><path class="foreground" aria-hidden="true" d="" display="none"/></g></g></g><path class="foreground" aria-hidden="true" d="" display="none"/></g></g><g class="mark-text role-mark layer_1_marks" role="graphics-object" aria-roledescription="text mark container"><text aria-label="Parser: yamlrocks&#xA;v0.2.1; Execution Time (seconds, lower=better): 0.380073611667; parser: yamlrocks; label: 0.3801s (x1.00); Execution Time (s): 0.3801; Slowdown: 1.00" role="graphics-symbol" aria-roledescription="text mark" text-anchor="middle" transform="translate(50,588.9955134236717)" font-family="sans-serif" font-size="9px" font-weight="bold" fill="#666666">0.3801s (x1.00)</text><text aria-label="Parser: yaml_rs (parse_dt=False)&#xA;v0.1.4; Execution Time (seconds, lower=better): 0.425956291333; parser: yaml_rs (parse_dt=False); label: 0.4260s (x1.12); Execution Time (s): 0.4260; Slowdown: 1.12" role="graphics-symbol" aria-roledescription="text mark" text-anchor="middle" transform="translate(150,588.1499282424173)" font-family="sans-serif" font-size="9px" font-weight="bold" fill="#a6761d">0.4260s (x1.12)</text><text aria-label="Parser: yaml_rs&#xA;v0.1.4; Execution Time (seconds, lower=better): 0.429025509333; parser: yaml_rs; label: 0.4290s (x1.13); Execution Time (s): 0.4290; Slowdown: 1.13" role="graphics-symbol" aria-roledescription="text mark" text-anchor="middle" transform="translate(250,588.093364735715)" font-family="sans-serif" font-size="9px" font-weight="bold" fill="#e6ab02">0.4290s (x1.13)</text><text aria-label="Parser: ryaml&#xA;v0.5.1; Execution Time (seconds, lower=better): 0.696336726667; parser: ryaml; label: 0.6963s (x1.83); Execution Time (s): 0.6963; Slowdown: 1.83" role="graphics-symbol" aria-roledescription="text mark" text-anchor="middle" transform="translate(350,583.1670089561)" font-family="sans-serif" font-size="9px" font-weight="bold" fill="#66a61e">0.6963s (x1.83)</text><text aria-label="Parser: PyYAML (CLoader)&#xA;v6.0.3; Execution Time (seconds, lower=better): 2.137894741; parser: PyYAML (CLoader); label: 2.1379s (x5.62); Execution Time (s): 2.1379; Slowdown: 5.62" role="graphics-symbol" aria-roledescription="text mark" text-anchor="middle" transform="translate(450,556.6001191472594)" font-family="sans-serif" font-size="9px" font-weight="bold" fill="#d95f02">2.1379s (x5.62)</text><text aria-label="Parser: oyaml&#xA;v1.0; Execution Time (seconds, lower=better): 23.0193702053; parser: oyaml; label: 23.0194s (x60.57); Execution Time (s): 23.0194; Slowdown: 60.57" role="graphics-symbol" aria-roledescription="text mark" text-anchor="middle" transform="translate(550,171.76936506657506)" font-family="sans-serif" font-size="9px" font-weight="bold" fill="#7570b3">23.0194s (x60.57)</text><text aria-label="Parser: PyYAML&#xA;v6.0.3; Execution Time (seconds, lower=better): 23.3196026997; parser: PyYAML; label: 23.3196s (x61.36); Execution Time (s): 23.3196; Slowdown: 61.36" role="graphics-symbol" aria-roledescription="text mark" text-anchor="middle" transform="translate(650,166.23629354626203)" font-family="sans-serif" font-size="9px" font-weight="bold" fill="#1b9e77">23.3196s (x61.36)</text><text aria-label="Parser: ruamel.yaml&#xA;v0.19.1; Execution Time (seconds, lower=better): 31.3046838067; parser: ruamel.yaml; label: 31.3047s (x82.36); Execution Time (s): 31.3047; Slowdown: 82.36" role="graphics-symbol" aria-roledescription="text mark" text-anchor="middle" transform="translate(750,19.07692307692313)" font-family="sans-serif" font-size="9px" font-weight="bold" fill="#e7298a">31.3047s (x82.36)</text></g><g class="mark-group role-title"><g transform="translate(400,-31)"><path class="background" aria-hidden="true" d="M0,0h0v0h0Z" pointer-events="none"/><g><g class="mark-text role-title-text" role="graphics-symbol" aria-roledescription="title" aria-label="Title text 'YAML parsers benchmark (loads)'" pointer-events="none"><text text-anchor="middle" transform="translate(0,10)" font-family="sans-serif" font-size="13px" font-weight="bold" fill="#000" opacity="1">YAML parsers benchmark (loads)</text></g><g class="mark-text role-title-subtitle" role="graphics-symbol" aria-roledescription="subtitle" aria-label="Subtitle text 'Python: 3.14.6 (Linux 6.17.0-1018-azure) | CPU: AMD EPYC 9V74 80-Core Processor'" pointer-events="none"><text text-anchor="middle" transform="translate(0,25)" font-family="sans-serif" font-size="12px" fill="#000" opacity="1">Python: 3.14.6 (Linux 6.17.0-1018-azure) | CPU: AMD EPYC 9V74 80-Core Processor</text></g></g><path class="foreground" aria-hidden="true" d="" pointer-events="none" display="none"/></g></g></g><path class="foreground" aria-hidden="true" d="" display="none"/></g></g></g><defs><clipPath id="clip1"><path d="M3.502243288164152,0L86.49775671183585,0C88.43069740200691,0,90,1.569302597993087,90,3.502243288164152L90,7.004486576328304C90,7.004486576328304,90,7.004486576328304,90,7.004486576328304L0,7.004486576328304C0,7.004486576328304,0,7.004486576328304,0,7.004486576328304L0,3.502243288164152C0,1.569302597993087,1.569302597993087,0,3.502243288164152,0Z"/></clipPath><clipPath id="clip2"><path d="M3.925035878791334,0L86.07496412120867,0C88.24125039439161,0,90,1.7587496056083862,90,3.925035878791334L90,7.850071757582668C90,7.850071757582668,90,7.850071757582668,90,7.850071757582668L0,7.850071757582668C0,7.850071757582668,0,7.850071757582668,0,7.850071757582668L0,3.925035878791334C0,1.7587496056083862,1.7587496056083862,0,3.925035878791334,0Z"/></clipPath><clipPath id="clip3"><path d="M3.9533176321425003,0L86.0466823678575,0C88.22857776563399,0,90,1.7714222343660102,90,3.9533176321425003L90,7.906635264285001C90,7.906635264285001,90,7.906635264285001,90,7.906635264285001L0,7.906635264285001C0,7.906635264285001,0,7.906635264285001,0,7.906635264285001L0,3.9533176321425003C0,1.7714222343660102,1.7714222343660102,0,3.9533176321425003,0Z"/></clipPath><clipPath id="clip4"><path d="M6,0L84,0C87.311490146964,0,90,2.688509853036,90,6L90,12.832991043900051C90,12.832991043900051,90,12.832991043900051,90,12.832991043900051L0,12.832991043900051C0,12.832991043900051,0,12.832991043900051,0,12.832991043900051L0,6C0,2.688509853036,2.688509853036,0,6,0Z"/></clipPath><clipPath id="clip5"><path d="M6,0L84,0C87.311490146964,0,90,2.688509853036,90,6L90,39.39988085274058C90,39.39988085274058,90,39.39988085274058,90,39.39988085274058L0,39.39988085274058C0,39.39988085274058,0,39.39988085274058,0,39.39988085274058L0,6C0,2.688509853036,2.688509853036,0,6,0Z"/></clipPath><clipPath id="clip6"><path d="M6,0L84,0C87.311490146964,0,90,2.688509853036,90,6L90,424.23063493342494C90,424.23063493342494,90,424.23063493342494,90,424.23063493342494L0,424.23063493342494C0,424.23063493342494,0,424.23063493342494,0,424.23063493342494L0,6C0,2.688509853036,2.688509853036,0,6,0Z"/></clipPath><clipPath id="clip7"><path d="M6,0L84,0C87.311490146964,0,90,2.688509853036,90,6L90,429.763706453738C90,429.763706453738,90,429.763706453738,90,429.763706453738L0,429.763706453738C0,429.763706453738,0,429.763706453738,0,429.763706453738L0,6C0,2.688509853036,2.688509853036,0,6,0Z"/></clipPath><clipPath id="clip8"><path d="M6,0L84,0C87.311490146964,0,90,2.688509853036,90,6L90,576.9230769230769C90,576.9230769230769,90,576.9230769230769,90,576.9230769230769L0,576.9230769230769C0,576.9230769230769,0,576.9230769230769,0,576.9230769230769L0,6C0,2.688509853036,2.688509853036,0,6,0Z"/></clipPath></defs></svg>