<svg xmlns="http://www.w3.org/2000/svg" xmlns:xlink="http://www.w3.org/1999/xlink" version="1.1" class="marks" width="844" height="687" viewBox="0 0 844 687"><rect width="844" height="687" fill="white"/><g fill="none" stroke-miterlimit="10" transform="translate(39,36)"><g class="mark-group role-frame root" role="graphics-object" aria-roledescription="group mark container"><g transform="translate(0,0)"><path class="background" aria-hidden="true" d="M0.5,0.5h800v600h-800Z" stroke="#ddd"/><g><g class="mark-group role-axis" role="graphics-symbol" aria-roledescription="axis" aria-label="X-axis titled 'Parser' for a discrete scale with 8 values: yamlrocks&#xA;0.6.1, yaml_rs&#xA;0.1.6, yaml_rs (parse_dt=False)&#xA;0.1.6, ryaml&#xA;0.5.1, PyYAML (CLoader)&#xA;6.0.3, ending with ruamel.yaml&#xA;0.19.1"><g transform="translate(0.5,600.5)"><path class="background" aria-hidden="true" d="M0,0h0v0h0Z" pointer-events="none"/><g><g class="mark-rule role-axis-tick" pointer-events="none"><line transform="translate(50,0)" x2="0" y2="5" stroke="#888" stroke-width="1" opacity="1"/><line transform="translate(150,0)" x2="0" y2="5" stroke="#888" stroke-width="1" opacity="1"/><line transform="translate(250,0)" x2="0" y2="5" stroke="#888" stroke-width="1" opacity="1"/><line transform="translate(350,0)" x2="0" y2="5" stroke="#888" stroke-width="1" opacity="1"/><line transform="translate(450,0)" x2="0" y2="5" stroke="#888" stroke-width="1" opacity="1"/><line transform="translate(550,0)" x2="0" y2="5" stroke="#888" stroke-width="1" opacity="1"/><line transform="translate(650,0)" x2="0" y2="5" stroke="#888" stroke-width="1" opacity="1"/><line transform="translate(750,0)" x2="0" y2="5" stroke="#888" stroke-width="1" opacity="1"/></g><g class="mark-text role-axis-label" pointer-events="none"><text text-anchor="middle" transform="translate(49.5,15)" font-family="sans-serif" font-size="10px" fill="#000" opacity="1"><tspan>yamlrocks</tspan><tspan x="0" dy="14">0.6.1</tspan></text><text text-anchor="middle" transform="translate(149.5,15)" font-family="sans-serif" font-size="10px" fill="#000" opacity="1"><tspan>yaml_rs</tspan><tspan x="0" dy="14">0.1.6</tspan></text><text text-anchor="middle" transform="translate(249.5,15)" font-family="sans-serif" font-size="10px" fill="#000" opacity="1"><tspan>yaml_rs (parse_dt=False)</tspan><tspan x="0" dy="14">0.1.6</tspan></text><text text-anchor="middle" transform="translate(349.5,15)" font-family="sans-serif" font-size="10px" fill="#000" opacity="1"><tspan>ryaml</tspan><tspan x="0" dy="14">0.5.1</tspan></text><text text-anchor="middle" transform="translate(449.5,15)" font-family="sans-serif" font-size="10px" fill="#000" opacity="1"><tspan>PyYAML (CLoader)</tspan><tspan x="0" dy="14">6.0.3</tspan></text><text text-anchor="middle" transform="translate(549.5,15)" font-family="sans-serif" font-size="10px" fill="#000" opacity="1"><tspan>PyYAML</tspan><tspan x="0" dy="14">6.0.3</tspan></text><text text-anchor="middle" transform="translate(649.5,15)" font-family="sans-serif" font-size="10px" fill="#000" opacity="1"><tspan>oyaml</tspan><tspan x="0" dy="14">1.0</tspan></text><text text-anchor="middle" transform="translate(749.5,15)" font-family="sans-serif" font-size="10px" fill="#000" opacity="1"><tspan>ruamel.yaml</tspan><tspan x="0" dy="14">0.19.1</tspan></text></g><g class="mark-rule role-axis-domain" pointer-events="none"><line transform="translate(0,0)" x2="800" y2="0" stroke="#888" stroke-width="1" opacity="1"/></g><g class="mark-text role-axis-title" pointer-events="none"><text text-anchor="middle" transform="translate(400,44)" font-family="sans-serif" font-size="11px" font-weight="bold" fill="#000" opacity="1">Parser</text></g></g><path class="foreground" aria-hidden="true" d="" pointer-events="none" display="none"/></g></g><g class="mark-group role-axis" role="graphics-symbol" aria-roledescription="axis" aria-label="Y-axis titled 'Execution Time (seconds, lower=better)' for a linear scale with values from 0 to 23"><g transform="translate(0.5,0.5)"><path class="background" aria-hidden="true" d="M0,0h0v0h0Z" pointer-events="none"/><g><g class="mark-rule role-axis-tick" pointer-events="none"><line transform="translate(0,600)" x2="-5" y2="0" stroke="#888" stroke-width="1" opacity="1"/><line transform="translate(0,549)" x2="-5" y2="0" stroke="#888" stroke-width="1" opacity="1"/><line transform="translate(0,498)" x2="-5" y2="0" stroke="#888" stroke-width="1" opacity="1"/><line transform="translate(0,447)" x2="-5" y2="0" stroke="#888" stroke-width="1" opacity="1"/><line transform="translate(0,395)" x2="-5" y2="0" stroke="#888" stroke-width="1" opacity="1"/><line transform="translate(0,344)" x2="-5" y2="0" stroke="#888" stroke-width="1" opacity="1"/><line transform="translate(0,293)" x2="-5" y2="0" stroke="#888" stroke-width="1" opacity="1"/><line transform="translate(0,242)" x2="-5" y2="0" stroke="#888" stroke-width="1" opacity="1"/><line transform="translate(0,191)" x2="-5" y2="0" stroke="#888" stroke-width="1" opacity="1"/><line transform="translate(0,140)" x2="-5" y2="0" stroke="#888" stroke-width="1" opacity="1"/><line transform="translate(0,89)" x2="-5" y2="0" stroke="#888" stroke-width="1" opacity="1"/><line transform="translate(0,37)" x2="-5" y2="0" stroke="#888" stroke-width="1" opacity="1"/></g><g class="mark-text role-axis-label" pointer-events="none"><text text-anchor="end" transform="translate(-7,603)" font-family="sans-serif" font-size="10px" fill="#000" opacity="1">0</text><text text-anchor="end" transform="translate(-7,551.8609225237898)" font-family="sans-serif" font-size="10px" fill="#000" opacity="1">2</text><text text-anchor="end" transform="translate(-7,500.72184504757945)" font-family="sans-serif" font-size="10px" fill="#000" opacity="1">4</text><text text-anchor="end" transform="translate(-7,449.58276757136923)" font-family="sans-serif" font-size="10px" fill="#000" opacity="1">6</text><text text-anchor="end" transform="translate(-7,398.44369009515896)" font-family="sans-serif" font-size="10px" fill="#000" opacity="1">8</text><text text-anchor="end" transform="translate(-7,347.30461261894874)" font-family="sans-serif" font-size="10px" fill="#000" opacity="1">10</text><text text-anchor="end" transform="translate(-7,296.1655351427385)" font-family="sans-serif" font-size="10px" fill="#000" opacity="1">12</text><text text-anchor="end" transform="translate(-7,245.02645766652824)" font-family="sans-serif" font-size="10px" fill="#000" opacity="1">14</text><text text-anchor="end" transform="translate(-7,193.88738019031797)" font-family="sans-serif" font-size="10px" fill="#000" opacity="1">16</text><text text-anchor="end" transform="translate(-7,142.74830271410775)" font-family="sans-serif" font-size="10px" fill="#000" opacity="1">18</text><text text-anchor="end" transform="translate(-7,91.60922523789749)" font-family="sans-serif" font-size="10px" fill="#000" opacity="1">20</text><text text-anchor="end" transform="translate(-7,40.47014776168722)" font-family="sans-serif" font-size="10px" fill="#000" opacity="1">22</text></g><g class="mark-rule role-axis-domain" pointer-events="none"><line transform="translate(0,600)" x2="0" y2="-600" stroke="#888" stroke-width="1" opacity="1"/></g><g class="mark-text role-axis-title" pointer-events="none"><text text-anchor="middle" transform="translate(-22.123046875,300) rotate(-90) translate(0,-2)" font-family="sans-serif" font-size="11px" font-weight="bold" fill="#000" opacity="1">Execution Time (seconds, lower=better)</text></g></g><path class="foreground" aria-hidden="true" d="" pointer-events="none" display="none"/></g></g><g class="mark-group role-scope" role="graphics-object" aria-roledescription="group mark container"><g transform="translate(5,595.9570957103671)"><path class="background" aria-hidden="true" d="M2.0214521448164646,0L87.97854785518354,0C89.09421766520336,0,90,0.9057823347966367,90,2.0214521448164646L90,4.042904289632929C90,4.042904289632929,90,4.042904289632929,90,4.042904289632929L0,4.042904289632929C0,4.042904289632929,0,4.042904289632929,0,4.042904289632929L0,2.0214521448164646C0,0.9057823347966367,0.9057823347966367,0,2.0214521448164646,0Z"/><g clip-path="url(#clip1)"><g class="mark-group role-scope" role="graphics-object" aria-roledescription="group mark container"><g transform="translate(0,-595.9570957103671)"><path class="background" aria-hidden="true" d="M0,0h90v0h-90Z"/><g><g class="mark-rect role-mark layer_0_marks" role="graphics-object" aria-roledescription="rect mark container"><path aria-label="Parser: yamlrocks&#xA;0.6.1; Execution Time (seconds, lower=better): 0.158114087667; parser: yamlrocks; Execution Time (s): 0.1581; Slowdown: 1.00" role="graphics-symbol" aria-roledescription="bar" d="M0,595.9570957103671h90v4.042904289632929h-90Z" fill="#666666"/></g></g><path class="foreground" aria-hidden="true" d="" display="none"/></g></g></g><path class="foreground" aria-hidden="true" d="" display="none"/></g><g transform="translate(105,594.4678084526928)"><path class="background" aria-hidden="true" d="M2.7660957736536034,0L87.2339042263464,0C88.76055404301518,0,90,1.239445956984825,90,2.7660957736536034L90,5.532191547307207C90,5.532191547307207,90,5.532191547307207,90,5.532191547307207L0,5.532191547307207C0,5.532191547307207,0,5.532191547307207,0,5.532191547307207L0,2.7660957736536034C0,1.239445956984825,1.239445956984825,0,2.7660957736536034,0Z"/><g clip-path="url(#clip2)"><g class="mark-group role-scope" role="graphics-object" aria-roledescription="group mark container"><g transform="translate(0,-594.4678084526928)"><path class="background" aria-hidden="true" d="M0,0h90v0h-90Z"/><g><g class="mark-rect role-mark layer_0_marks" role="graphics-object" aria-roledescription="rect mark container"><path aria-label="Parser: yaml_rs&#xA;0.1.6; Execution Time (seconds, lower=better): 0.216358676; parser: yaml_rs; Execution Time (s): 0.2164; Slowdown: 1.37" role="graphics-symbol" aria-roledescription="bar" d="M0,594.4678084526928h90v5.532191547307207h-90Z" fill="#e6ab02"/></g></g><path class="foreground" aria-hidden="true" d="" display="none"/></g></g></g><path class="foreground" aria-hidden="true" d="" display="none"/></g><g transform="translate(205,594.3406651997946)"><path class="background" aria-hidden="true" d="M2.8296674001027213,0L87.17033259989728,0C88.73206855233485,0,90,1.2679314476651546,90,2.8296674001027213L90,5.659334800205443C90,5.659334800205443,90,5.659334800205443,90,5.659334800205443L0,5.659334800205443C0,5.659334800205443,0,5.659334800205443,0,5.659334800205443L0,2.8296674001027213C0,1.2679314476651546,1.2679314476651546,0,2.8296674001027213,0Z"/><g clip-path="url(#clip3)"><g class="mark-group role-scope" role="graphics-object" aria-roledescription="group mark container"><g transform="translate(0,-594.3406651997946)"><path class="background" aria-hidden="true" d="M0,0h90v0h-90Z"/><g><g class="mark-rect role-mark layer_0_marks" role="graphics-object" aria-roledescription="rect mark container"><path aria-label="Parser: yaml_rs (parse_dt=False)&#xA;0.1.6; Execution Time (seconds, lower=better): 0.221331126; parser: yaml_rs (parse_dt=False); Execution Time (s): 0.2213; Slowdown: 1.40" role="graphics-symbol" aria-roledescription="bar" d="M0,594.3406651997946h90v5.659334800205443h-90Z" fill="#a6761d"/></g></g><path class="foreground" aria-hidden="true" d="" display="none"/></g></g></g><path class="foreground" aria-hidden="true" d="" display="none"/></g><g transform="translate(305,588.1804338067305)"><path class="background" aria-hidden="true" d="M5.909783096634726,0L84.09021690336527,0C87.35191498589866,0,90,2.648085014101344,90,5.909783096634726L90,11.819566193269452C90,11.819566193269452,90,11.819566193269452,90,11.819566193269452L0,11.819566193269452C0,11.819566193269452,0,11.819566193269452,0,11.819566193269452L0,5.909783096634726C0,2.648085014101344,2.648085014101344,0,5.909783096634726,0Z"/><g clip-path="url(#clip4)"><g class="mark-group role-scope" role="graphics-object" aria-roledescription="group mark container"><g transform="translate(0,-588.1804338067305)"><path class="background" aria-hidden="true" d="M0,0h90v0h-90Z"/><g><g class="mark-rect role-mark layer_0_marks" role="graphics-object" aria-roledescription="rect mark container"><path aria-label="Parser: ryaml&#xA;0.5.1; Execution Time (seconds, lower=better): 0.462251834667; parser: ryaml; Execution Time (s): 0.4623; Slowdown: 2.92" role="graphics-symbol" aria-roledescription="bar" d="M0,588.1804338067305h90v11.819566193269452h-90Z" fill="#66a61e"/></g></g><path class="foreground" aria-hidden="true" d="" display="none"/></g></g></g><path class="foreground" aria-hidden="true" d="" display="none"/></g><g transform="translate(405,564.9411766861585)"><path class="background" aria-hidden="true" d="M6,0L84,0C87.311490146964,0,90,2.688509853036,90,6L90,35.05882331384146C90,35.05882331384146,90,35.05882331384146,90,35.05882331384146L0,35.05882331384146C0,35.05882331384146,0,35.05882331384146,0,35.05882331384146L0,6C0,2.688509853036,2.688509853036,0,6,0Z"/><g clip-path="url(#clip5)"><g class="mark-group role-scope" role="graphics-object" aria-roledescription="group mark container"><g transform="translate(0,-564.9411766861585)"><path class="background" aria-hidden="true" d="M0,0h90v0h-90Z"/><g><g class="mark-rect role-mark layer_0_marks" role="graphics-object" aria-roledescription="rect mark container"><path aria-label="Parser: PyYAML (CLoader)&#xA;6.0.3; Execution Time (seconds, lower=better): 1.371116768; parser: PyYAML (CLoader); Execution Time (s): 1.3711; Slowdown: 8.67" role="graphics-symbol" aria-roledescription="bar" d="M0,564.9411766861585h90v35.05882331384146h-90Z" fill="#d95f02"/></g></g><path class="foreground" aria-hidden="true" d="" display="none"/></g></g></g><path class="foreground" aria-hidden="true" d="" display="none"/></g><g transform="translate(505,205.85258956320266)"><path class="background" aria-hidden="true" d="M6,0L84,0C87.311490146964,0,90,2.688509853036,90,6L90,394.1474104367974C90,394.1474104367974,90,394.1474104367974,90,394.1474104367974L0,394.1474104367974C0,394.1474104367974,0,394.1474104367974,0,394.1474104367974L0,6C0,2.688509853036,2.688509853036,0,6,0Z"/><g clip-path="url(#clip6)"><g class="mark-group role-scope" role="graphics-object" aria-roledescription="group mark container"><g transform="translate(0,-205.85258956320266)"><path class="background" aria-hidden="true" d="M0,0h90v0h-90Z"/><g><g class="mark-rect role-mark layer_0_marks" role="graphics-object" aria-roledescription="rect mark container"><path aria-label="Parser: PyYAML&#xA;6.0.3; Execution Time (seconds, lower=better): 15.4147250943; parser: PyYAML; Execution Time (s): 15.4147; Slowdown: 97.49" role="graphics-symbol" aria-roledescription="bar" d="M0,205.85258956320266h90v394.1474104367974h-90Z" fill="#1b9e77"/></g></g><path class="foreground" aria-hidden="true" d="" display="none"/></g></g></g><path class="foreground" aria-hidden="true" d="" display="none"/></g><g transform="translate(605,204.69818181549368)"><path class="background" aria-hidden="true" d="M6,0L84,0C87.311490146964,0,90,2.688509853036,90,6L90,395.3018181845063C90,395.3018181845063,90,395.3018181845063,90,395.3018181845063L0,395.3018181845063C0,395.3018181845063,0,395.3018181845063,0,395.3018181845063L0,6C0,2.688509853036,2.688509853036,0,6,0Z"/><g clip-path="url(#clip7)"><g class="mark-group role-scope" role="graphics-object" aria-roledescription="group mark container"><g transform="translate(0,-204.69818181549368)"><path class="background" aria-hidden="true" d="M0,0h90v0h-90Z"/><g><g class="mark-rect role-mark layer_0_marks" role="graphics-object" aria-roledescription="rect mark container"><path aria-label="Parser: oyaml&#xA;1.0; Execution Time (seconds, lower=better): 15.459872868; parser: oyaml; Execution Time (s): 15.4599; Slowdown: 97.78" role="graphics-symbol" aria-roledescription="bar" d="M0,204.69818181549368h90v395.3018181845063h-90Z" fill="#7570b3"/></g></g><path class="foreground" aria-hidden="true" d="" display="none"/></g></g></g><path class="foreground" aria-hidden="true" d="" display="none"/></g><g transform="translate(705,28.571428571428605)"><path class="background" aria-hidden="true" d="M6,0L84,0C87.311490146964,0,90,2.688509853036,90,6L90,571.4285714285714C90,571.4285714285714,90,571.4285714285714,90,571.4285714285714L0,571.4285714285714C0,571.4285714285714,0,571.4285714285714,0,571.4285714285714L0,6C0,2.688509853036,2.688509853036,0,6,0Z"/><g clip-path="url(#clip8)"><g class="mark-group role-scope" role="graphics-object" aria-roledescription="group mark container"><g transform="translate(0,-28.571428571428605)"><path class="background" aria-hidden="true" d="M0,0h90v0h-90Z"/><g><g class="mark-rect role-mark layer_0_marks" role="graphics-object" aria-roledescription="rect mark container"><path aria-label="Parser: ruamel.yaml&#xA;0.19.1; Execution Time (seconds, lower=better): 22.3480203253; parser: ruamel.yaml; Execution Time (s): 22.3480; Slowdown: 141.34" role="graphics-symbol" aria-roledescription="bar" d="M0,28.571428571428605h90v571.4285714285714h-90Z" fill="#e7298a"/></g></g><path class="foreground" aria-hidden="true" d="" display="none"/></g></g></g><path class="foreground" aria-hidden="true" d="" display="none"/></g></g><g class="mark-text role-mark layer_1_marks" role="graphics-object" aria-roledescription="text mark container"><text aria-label="Parser: yamlrocks&#xA;0.6.1; Execution Time (seconds, lower=better): 0.158114087667; parser: yamlrocks; label: 0.1581s (x1.00); Execution Time (s): 0.1581; Slowdown: 1.00" role="graphics-symbol" aria-roledescription="text mark" text-anchor="middle" transform="translate(50,591.9570957103671)" font-family="sans-serif" font-size="9px" font-weight="bold" fill="#666666">0.1581s (x1.00)</text><text aria-label="Parser: yaml_rs&#xA;0.1.6; Execution Time (seconds, lower=better): 0.216358676; parser: yaml_rs; label: 0.2164s (x1.37); Execution Time (s): 0.2164; Slowdown: 1.37" role="graphics-symbol" aria-roledescription="text mark" text-anchor="middle" transform="translate(150,590.4678084526928)" font-family="sans-serif" font-size="9px" font-weight="bold" fill="#e6ab02">0.2164s (x1.37)</text><text aria-label="Parser: yaml_rs (parse_dt=False)&#xA;0.1.6; Execution Time (seconds, lower=better): 0.221331126; parser: yaml_rs (parse_dt=False); label: 0.2213s (x1.40); Execution Time (s): 0.2213; Slowdown: 1.40" role="graphics-symbol" aria-roledescription="text mark" text-anchor="middle" transform="translate(250,590.3406651997946)" font-family="sans-serif" font-size="9px" font-weight="bold" fill="#a6761d">0.2213s (x1.40)</text><text aria-label="Parser: ryaml&#xA;0.5.1; Execution Time (seconds, lower=better): 0.462251834667; parser: ryaml; label: 0.4623s (x2.92); Execution Time (s): 0.4623; Slowdown: 2.92" role="graphics-symbol" aria-roledescription="text mark" text-anchor="middle" transform="translate(350,584.1804338067305)" font-family="sans-serif" font-size="9px" font-weight="bold" fill="#66a61e">0.4623s (x2.92)</text><text aria-label="Parser: PyYAML (CLoader)&#xA;6.0.3; Execution Time (seconds, lower=better): 1.371116768; parser: PyYAML (CLoader); label: 1.3711s (x8.67); Execution Time (s): 1.3711; Slowdown: 8.67" role="graphics-symbol" aria-roledescription="text mark" text-anchor="middle" transform="translate(450,560.9411766861585)" font-family="sans-serif" font-size="9px" font-weight="bold" fill="#d95f02">1.3711s (x8.67)</text><text aria-label="Parser: PyYAML&#xA;6.0.3; Execution Time (seconds, lower=better): 15.4147250943; parser: PyYAML; label: 15.4147s (x97.49); Execution Time (s): 15.4147; Slowdown: 97.49" role="graphics-symbol" aria-roledescription="text mark" text-anchor="middle" transform="translate(550,201.85258956320266)" font-family="sans-serif" font-size="9px" font-weight="bold" fill="#1b9e77">15.4147s (x97.49)</text><text aria-label="Parser: oyaml&#xA;1.0; Execution Time (seconds, lower=better): 15.459872868; parser: oyaml; label: 15.4599s (x97.78); Execution Time (s): 15.4599; Slowdown: 97.78" role="graphics-symbol" aria-roledescription="text mark" text-anchor="middle" transform="translate(650,200.69818181549368)" font-family="sans-serif" font-size="9px" font-weight="bold" fill="#7570b3">15.4599s (x97.78)</text><text aria-label="Parser: ruamel.yaml&#xA;0.19.1; Execution Time (seconds, lower=better): 22.3480203253; parser: ruamel.yaml; label: 22.3480s (x141.34); Execution Time (s): 22.3480; Slowdown: 141.34" role="graphics-symbol" aria-roledescription="text mark" text-anchor="middle" transform="translate(750,24.571428571428605)" font-family="sans-serif" font-size="9px" font-weight="bold" fill="#e7298a">22.3480s (x141.34)</text></g><g class="mark-group role-title"><g transform="translate(400,-31)"><path class="background" aria-hidden="true" d="M0,0h0v0h0Z" pointer-events="none"/><g><g class="mark-text role-title-text" role="graphics-symbol" aria-roledescription="title" aria-label="Title text 'YAML parsers benchmark (loads)'" pointer-events="none"><text text-anchor="middle" transform="translate(0,10)" font-family="sans-serif" font-size="13px" font-weight="bold" fill="#000" opacity="1">YAML parsers benchmark (loads)</text></g><g class="mark-text role-title-subtitle" role="graphics-symbol" aria-roledescription="subtitle" aria-label="Subtitle text 'Python: 3.14.6 (Linux 6.17.0-1020-azure) | CPU: Intel(R) Xeon(R) 6973P-C'" pointer-events="none"><text text-anchor="middle" transform="translate(0,25)" font-family="sans-serif" font-size="12px" fill="#000" opacity="1">Python: 3.14.6 (Linux 6.17.0-1020-azure) | CPU: Intel(R) Xeon(R) 6973P-C</text></g></g><path class="foreground" aria-hidden="true" d="" pointer-events="none" display="none"/></g></g></g><path class="foreground" aria-hidden="true" d="" display="none"/></g></g></g><defs><clipPath id="clip1"><path d="M2.0214521448164646,0L87.97854785518354,0C89.09421766520336,0,90,0.9057823347966367,90,2.0214521448164646L90,4.042904289632929C90,4.042904289632929,90,4.042904289632929,90,4.042904289632929L0,4.042904289632929C0,4.042904289632929,0,4.042904289632929,0,4.042904289632929L0,2.0214521448164646C0,0.9057823347966367,0.9057823347966367,0,2.0214521448164646,0Z"/></clipPath><clipPath id="clip2"><path d="M2.7660957736536034,0L87.2339042263464,0C88.76055404301518,0,90,1.239445956984825,90,2.7660957736536034L90,5.532191547307207C90,5.532191547307207,90,5.532191547307207,90,5.532191547307207L0,5.532191547307207C0,5.532191547307207,0,5.532191547307207,0,5.532191547307207L0,2.7660957736536034C0,1.239445956984825,1.239445956984825,0,2.7660957736536034,0Z"/></clipPath><clipPath id="clip3"><path d="M2.8296674001027213,0L87.17033259989728,0C88.73206855233485,0,90,1.2679314476651546,90,2.8296674001027213L90,5.659334800205443C90,5.659334800205443,90,5.659334800205443,90,5.659334800205443L0,5.659334800205443C0,5.659334800205443,0,5.659334800205443,0,5.659334800205443L0,2.8296674001027213C0,1.2679314476651546,1.2679314476651546,0,2.8296674001027213,0Z"/></clipPath><clipPath id="clip4"><path d="M5.909783096634726,0L84.09021690336527,0C87.35191498589866,0,90,2.648085014101344,90,5.909783096634726L90,11.819566193269452C90,11.819566193269452,90,11.819566193269452,90,11.819566193269452L0,11.819566193269452C0,11.819566193269452,0,11.819566193269452,0,11.819566193269452L0,5.909783096634726C0,2.648085014101344,2.648085014101344,0,5.909783096634726,0Z"/></clipPath><clipPath id="clip5"><path d="M6,0L84,0C87.311490146964,0,90,2.688509853036,90,6L90,35.05882331384146C90,35.05882331384146,90,35.05882331384146,90,35.05882331384146L0,35.05882331384146C0,35.05882331384146,0,35.05882331384146,0,35.05882331384146L0,6C0,2.688509853036,2.688509853036,0,6,0Z"/></clipPath><clipPath id="clip6"><path d="M6,0L84,0C87.311490146964,0,90,2.688509853036,90,6L90,394.1474104367974C90,394.1474104367974,90,394.1474104367974,90,394.1474104367974L0,394.1474104367974C0,394.1474104367974,0,394.1474104367974,0,394.1474104367974L0,6C0,2.688509853036,2.688509853036,0,6,0Z"/></clipPath><clipPath id="clip7"><path d="M6,0L84,0C87.311490146964,0,90,2.688509853036,90,6L90,395.3018181845063C90,395.3018181845063,90,395.3018181845063,90,395.3018181845063L0,395.3018181845063C0,395.3018181845063,0,395.3018181845063,0,395.3018181845063L0,6C0,2.688509853036,2.688509853036,0,6,0Z"/></clipPath><clipPath id="clip8"><path d="M6,0L84,0C87.311490146964,0,90,2.688509853036,90,6L90,571.4285714285714C90,571.4285714285714,90,571.4285714285714,90,571.4285714285714L0,571.4285714285714C0,571.4285714285714,0,571.4285714285714,0,571.4285714285714L0,6C0,2.688509853036,2.688509853036,0,6,0Z"/></clipPath></defs></svg>