<svg xmlns="http://www.w3.org/2000/svg" xmlns:xlink="http://www.w3.org/1999/xlink" version="1.1" class="marks" width="844" height="687" viewBox="0 0 844 687"><rect width="844" height="687" fill="white"/><g fill="none" stroke-miterlimit="10" transform="translate(39,36)"><g class="mark-group role-frame root" role="graphics-object" aria-roledescription="group mark container"><g transform="translate(0,0)"><path class="background" aria-hidden="true" d="M0.5,0.5h800v600h-800Z" stroke="#ddd"/><g><g class="mark-group role-axis" role="graphics-symbol" aria-roledescription="axis" aria-label="X-axis titled 'Parser' for a discrete scale with 8 values: yamlrocks&#xA;v0.2.1, yaml_rs (parse_dt=False)&#xA;v0.1.4, yaml_rs&#xA;v0.1.4, ryaml&#xA;v0.5.1, PyYAML (CLoader)&#xA;v6.0.3, ending with ruamel.yaml&#xA;v0.19.1"><g transform="translate(0.5,600.5)"><path class="background" aria-hidden="true" d="M0,0h0v0h0Z" pointer-events="none"/><g><g class="mark-rule role-axis-tick" pointer-events="none"><line transform="translate(50,0)" x2="0" y2="5" stroke="#888" stroke-width="1" opacity="1"/><line transform="translate(150,0)" x2="0" y2="5" stroke="#888" stroke-width="1" opacity="1"/><line transform="translate(250,0)" x2="0" y2="5" stroke="#888" stroke-width="1" opacity="1"/><line transform="translate(350,0)" x2="0" y2="5" stroke="#888" stroke-width="1" opacity="1"/><line transform="translate(450,0)" x2="0" y2="5" stroke="#888" stroke-width="1" opacity="1"/><line transform="translate(550,0)" x2="0" y2="5" stroke="#888" stroke-width="1" opacity="1"/><line transform="translate(650,0)" x2="0" y2="5" stroke="#888" stroke-width="1" opacity="1"/><line transform="translate(750,0)" x2="0" y2="5" stroke="#888" stroke-width="1" opacity="1"/></g><g class="mark-text role-axis-label" pointer-events="none"><text text-anchor="middle" transform="translate(49.5,15)" font-family="sans-serif" font-size="10px" fill="#000" opacity="1"><tspan>yamlrocks</tspan><tspan x="0" dy="14">v0.2.1</tspan></text><text text-anchor="middle" transform="translate(149.5,15)" font-family="sans-serif" font-size="10px" fill="#000" opacity="1"><tspan>yaml_rs (parse_dt=False)</tspan><tspan x="0" dy="14">v0.1.4</tspan></text><text text-anchor="middle" transform="translate(249.5,15)" font-family="sans-serif" font-size="10px" fill="#000" opacity="1"><tspan>yaml_rs</tspan><tspan x="0" dy="14">v0.1.4</tspan></text><text text-anchor="middle" transform="translate(349.5,15)" font-family="sans-serif" font-size="10px" fill="#000" opacity="1"><tspan>ryaml</tspan><tspan x="0" dy="14">v0.5.1</tspan></text><text text-anchor="middle" transform="translate(449.5,15)" font-family="sans-serif" font-size="10px" fill="#000" opacity="1"><tspan>PyYAML (CLoader)</tspan><tspan x="0" dy="14">v6.0.3</tspan></text><text text-anchor="middle" transform="translate(549.5,15)" font-family="sans-serif" font-size="10px" fill="#000" opacity="1"><tspan>PyYAML</tspan><tspan x="0" dy="14">v6.0.3</tspan></text><text text-anchor="middle" transform="translate(649.5,15)" font-family="sans-serif" font-size="10px" fill="#000" opacity="1"><tspan>oyaml</tspan><tspan x="0" dy="14">v1.0</tspan></text><text text-anchor="middle" transform="translate(749.5,15)" font-family="sans-serif" font-size="10px" fill="#000" opacity="1"><tspan>ruamel.yaml</tspan><tspan x="0" dy="14">v0.19.1</tspan></text></g><g class="mark-rule role-axis-domain" pointer-events="none"><line transform="translate(0,0)" x2="800" y2="0" stroke="#888" stroke-width="1" opacity="1"/></g><g class="mark-text role-axis-title" pointer-events="none"><text text-anchor="middle" transform="translate(400,44)" font-family="sans-serif" font-size="11px" font-weight="bold" fill="#000" opacity="1">Parser</text></g></g><path class="foreground" aria-hidden="true" d="" pointer-events="none" display="none"/></g></g><g class="mark-group role-axis" role="graphics-symbol" aria-roledescription="axis" aria-label="Y-axis titled 'Execution Time (seconds, lower=better)' for a linear scale with values from 0 to 23"><g transform="translate(0.5,0.5)"><path class="background" aria-hidden="true" d="M0,0h0v0h0Z" pointer-events="none"/><g><g class="mark-rule role-axis-tick" pointer-events="none"><line transform="translate(0,600)" x2="-5" y2="0" stroke="#888" stroke-width="1" opacity="1"/><line transform="translate(0,548)" x2="-5" y2="0" stroke="#888" stroke-width="1" opacity="1"/><line transform="translate(0,495)" x2="-5" y2="0" stroke="#888" stroke-width="1" opacity="1"/><line transform="translate(0,443)" x2="-5" y2="0" stroke="#888" stroke-width="1" opacity="1"/><line transform="translate(0,390)" x2="-5" y2="0" stroke="#888" stroke-width="1" opacity="1"/><line transform="translate(0,338)" x2="-5" y2="0" stroke="#888" stroke-width="1" opacity="1"/><line transform="translate(0,286)" x2="-5" y2="0" stroke="#888" stroke-width="1" opacity="1"/><line transform="translate(0,233)" x2="-5" y2="0" stroke="#888" stroke-width="1" opacity="1"/><line transform="translate(0,181)" x2="-5" y2="0" stroke="#888" stroke-width="1" opacity="1"/><line transform="translate(0,128)" x2="-5" y2="0" stroke="#888" stroke-width="1" opacity="1"/><line transform="translate(0,76)" x2="-5" y2="0" stroke="#888" stroke-width="1" opacity="1"/><line transform="translate(0,23)" x2="-5" y2="0" stroke="#888" stroke-width="1" opacity="1"/></g><g class="mark-text role-axis-label" pointer-events="none"><text text-anchor="end" transform="translate(-7,603)" font-family="sans-serif" font-size="10px" fill="#000" opacity="1">0</text><text text-anchor="end" transform="translate(-7,550.5880002684023)" font-family="sans-serif" font-size="10px" fill="#000" opacity="1">2</text><text text-anchor="end" transform="translate(-7,498.1760005368047)" font-family="sans-serif" font-size="10px" fill="#000" opacity="1">4</text><text text-anchor="end" transform="translate(-7,445.764000805207)" font-family="sans-serif" font-size="10px" fill="#000" opacity="1">6</text><text text-anchor="end" transform="translate(-7,393.3520010736093)" font-family="sans-serif" font-size="10px" fill="#000" opacity="1">8</text><text text-anchor="end" transform="translate(-7,340.94000134201167)" font-family="sans-serif" font-size="10px" fill="#000" opacity="1">10</text><text text-anchor="end" transform="translate(-7,288.52800161041404)" font-family="sans-serif" font-size="10px" fill="#000" opacity="1">12</text><text text-anchor="end" transform="translate(-7,236.11600187881638)" font-family="sans-serif" font-size="10px" fill="#000" opacity="1">14</text><text text-anchor="end" transform="translate(-7,183.70400214721872)" font-family="sans-serif" font-size="10px" fill="#000" opacity="1">16</text><text text-anchor="end" transform="translate(-7,131.29200241562106)" font-family="sans-serif" font-size="10px" fill="#000" opacity="1">18</text><text text-anchor="end" transform="translate(-7,78.88000268402337)" font-family="sans-serif" font-size="10px" fill="#000" opacity="1">20</text><text text-anchor="end" transform="translate(-7,26.46800295242577)" font-family="sans-serif" font-size="10px" fill="#000" opacity="1">22</text></g><g class="mark-rule role-axis-domain" pointer-events="none"><line transform="translate(0,600)" x2="0" y2="-600" stroke="#888" stroke-width="1" opacity="1"/></g><g class="mark-text role-axis-title" pointer-events="none"><text text-anchor="middle" transform="translate(-22.123046875,300) rotate(-90) translate(0,-2)" font-family="sans-serif" font-size="11px" font-weight="bold" fill="#000" opacity="1">Execution Time (seconds, lower=better)</text></g></g><path class="foreground" aria-hidden="true" d="" pointer-events="none" display="none"/></g></g><g class="mark-group role-scope" role="graphics-object" aria-roledescription="group mark container"><g transform="translate(5,593.7563256138419)"><path class="background" aria-hidden="true" d="M3.1218371930790454,0L86.87816280692095,0C88.60115165780546,0,90,1.398848342194544,90,3.1218371930790454L90,6.243674386158091C90,6.243674386158091,90,6.243674386158091,90,6.243674386158091L0,6.243674386158091C0,6.243674386158091,0,6.243674386158091,0,6.243674386158091L0,3.1218371930790454C0,1.398848342194544,1.398848342194544,0,3.1218371930790454,0Z"/><g clip-path="url(#clip1)"><g class="mark-group role-scope" role="graphics-object" aria-roledescription="group mark container"><g transform="translate(0,-593.7563256138419)"><path class="background" aria-hidden="true" d="M0,0h90v0h-90Z"/><g><g class="mark-rect role-mark layer_0_marks" role="graphics-object" aria-roledescription="rect mark container"><path aria-label="Parser: yamlrocks&#xA;v0.2.1; Execution Time (seconds, lower=better): 0.238253622; parser: yamlrocks; Execution Time (s): 0.2383; Slowdown: 1.00" role="graphics-symbol" aria-roledescription="bar" d="M0,593.7563256138419h90v6.243674386158091h-90Z" fill="#666666"/></g></g><path class="foreground" aria-hidden="true" d="" display="none"/></g></g></g><path class="foreground" aria-hidden="true" d="" display="none"/></g><g transform="translate(105,593.1331759994871)"><path class="background" aria-hidden="true" d="M3.433412000256453,0L86.56658799974355,0C88.46153966796308,0,90,1.5384603320369195,90,3.433412000256453L90,6.866824000512906C90,6.866824000512906,90,6.866824000512906,90,6.866824000512906L0,6.866824000512906C0,6.866824000512906,0,6.866824000512906,0,6.866824000512906L0,3.433412000256453C0,1.5384603320369195,1.5384603320369195,0,3.433412000256453,0Z"/><g clip-path="url(#clip2)"><g class="mark-group role-scope" role="graphics-object" aria-roledescription="group mark container"><g transform="translate(0,-593.1331759994871)"><path class="background" aria-hidden="true" d="M0,0h90v0h-90Z"/><g><g class="mark-rect role-mark layer_0_marks" role="graphics-object" aria-roledescription="rect mark container"><path aria-label="Parser: yaml_rs (parse_dt=False)&#xA;v0.1.4; Execution Time (seconds, lower=better): 0.262032513; parser: yaml_rs (parse_dt=False); Execution Time (s): 0.2620; Slowdown: 1.10" role="graphics-symbol" aria-roledescription="bar" d="M0,593.1331759994871h90v6.866824000512906h-90Z" fill="#a6761d"/></g></g><path class="foreground" aria-hidden="true" d="" display="none"/></g></g></g><path class="foreground" aria-hidden="true" d="" display="none"/></g><g transform="translate(205,593.0861988009202)"><path class="background" aria-hidden="true" d="M3.4569005995398925,0L86.54309940046011,0C88.45101477952849,0,90,1.5489852204715095,90,3.4569005995398925L90,6.913801199079785C90,6.913801199079785,90,6.913801199079785,90,6.913801199079785L0,6.913801199079785C0,6.913801199079785,0,6.913801199079785,0,6.913801199079785L0,3.4569005995398925C0,1.5489852204715095,1.5489852204715095,0,3.4569005995398925,0Z"/><g clip-path="url(#clip3)"><g class="mark-group role-scope" role="graphics-object" aria-roledescription="group mark container"><g transform="translate(0,-593.0861988009202)"><path class="background" aria-hidden="true" d="M0,0h90v0h-90Z"/><g><g class="mark-rect role-mark layer_0_marks" role="graphics-object" aria-roledescription="rect mark container"><path aria-label="Parser: yaml_rs&#xA;v0.1.4; Execution Time (seconds, lower=better): 0.263825125333; parser: yaml_rs; Execution Time (s): 0.2638; Slowdown: 1.11" role="graphics-symbol" aria-roledescription="bar" d="M0,593.0861988009202h90v6.913801199079785h-90Z" fill="#e6ab02"/></g></g><path class="foreground" aria-hidden="true" d="" display="none"/></g></g></g><path class="foreground" aria-hidden="true" d="" display="none"/></g><g transform="translate(305,587.7715638595519)"><path class="background" aria-hidden="true" d="M6,0L84,0C87.311490146964,0,90,2.688509853036,90,6L90,12.228436140448139C90,12.228436140448139,90,12.228436140448139,90,12.228436140448139L0,12.228436140448139C0,12.228436140448139,0,12.228436140448139,0,12.228436140448139L0,6C0,2.688509853036,2.688509853036,0,6,0Z"/><g clip-path="url(#clip4)"><g class="mark-group role-scope" role="graphics-object" aria-roledescription="group mark container"><g transform="translate(0,-587.7715638595519)"><path class="background" aria-hidden="true" d="M0,0h90v0h-90Z"/><g><g class="mark-rect role-mark layer_0_marks" role="graphics-object" aria-roledescription="rect mark container"><path aria-label="Parser: ryaml&#xA;v0.5.1; Execution Time (seconds, lower=better): 0.466627345; parser: ryaml; Execution Time (s): 0.4666; Slowdown: 1.96" role="graphics-symbol" aria-roledescription="bar" d="M0,587.7715638595519h90v12.228436140448139h-90Z" fill="#66a61e"/></g></g><path class="foreground" aria-hidden="true" d="" display="none"/></g></g></g><path class="foreground" aria-hidden="true" d="" display="none"/></g><g transform="translate(405,563.7652509849352)"><path class="background" aria-hidden="true" d="M6,0L84,0C87.311490146964,0,90,2.688509853036,90,6L90,36.234749015064835C90,36.234749015064835,90,36.234749015064835,90,36.234749015064835L0,36.234749015064835C0,36.234749015064835,0,36.234749015064835,0,36.234749015064835L0,6C0,2.688509853036,2.688509853036,0,6,0Z"/><g clip-path="url(#clip5)"><g class="mark-group role-scope" role="graphics-object" aria-roledescription="group mark container"><g transform="translate(0,-563.7652509849352)"><path class="background" aria-hidden="true" d="M0,0h90v0h-90Z"/><g><g class="mark-rect role-mark layer_0_marks" role="graphics-object" aria-roledescription="rect mark container"><path aria-label="Parser: PyYAML (CLoader)&#xA;v6.0.3; Execution Time (seconds, lower=better): 1.38268904833; parser: PyYAML (CLoader); Execution Time (s): 1.3827; Slowdown: 5.80" role="graphics-symbol" aria-roledescription="bar" d="M0,563.7652509849352h90v36.234749015064835h-90Z" fill="#d95f02"/></g></g><path class="foreground" aria-hidden="true" d="" display="none"/></g></g></g><path class="foreground" aria-hidden="true" d="" display="none"/></g><g transform="translate(505,194.23252442262634)"><path class="background" aria-hidden="true" d="M6,0L84,0C87.311490146964,0,90,2.688509853036,90,6L90,405.76747557737366C90,405.76747557737366,90,405.76747557737366,90,405.76747557737366L0,405.76747557737366C0,405.76747557737366,0,405.76747557737366,0,405.76747557737366L0,6C0,2.688509853036,2.688509853036,0,6,0Z"/><g clip-path="url(#clip6)"><g class="mark-group role-scope" role="graphics-object" aria-roledescription="group mark container"><g transform="translate(0,-194.23252442262634)"><path class="background" aria-hidden="true" d="M0,0h90v0h-90Z"/><g><g class="mark-rect role-mark layer_0_marks" role="graphics-object" aria-roledescription="rect mark container"><path aria-label="Parser: PyYAML&#xA;v6.0.3; Execution Time (seconds, lower=better): 15.4837624077; parser: PyYAML; Execution Time (s): 15.4838; Slowdown: 64.99" role="graphics-symbol" aria-roledescription="bar" d="M0,194.23252442262634h90v405.76747557737366h-90Z" fill="#1b9e77"/></g></g><path class="foreground" aria-hidden="true" d="" display="none"/></g></g></g><path class="foreground" aria-hidden="true" d="" display="none"/></g><g transform="translate(605,188.3922362233017)"><path class="background" aria-hidden="true" d="M6,0L84,0C87.311490146964,0,90,2.688509853036,90,6L90,411.60776377669833C90,411.60776377669833,90,411.60776377669833,90,411.60776377669833L0,411.60776377669833C0,411.60776377669833,0,411.60776377669833,0,411.60776377669833L0,6C0,2.688509853036,2.688509853036,0,6,0Z"/><g clip-path="url(#clip7)"><g class="mark-group role-scope" role="graphics-object" aria-roledescription="group mark container"><g transform="translate(0,-188.3922362233017)"><path class="background" aria-hidden="true" d="M0,0h90v0h-90Z"/><g><g class="mark-rect role-mark layer_0_marks" role="graphics-object" aria-roledescription="rect mark container"><path aria-label="Parser: oyaml&#xA;v1.0; Execution Time (seconds, lower=better): 15.7066231353; parser: oyaml; Execution Time (s): 15.7066; Slowdown: 65.92" role="graphics-symbol" aria-roledescription="bar" d="M0,188.3922362233017h90v411.60776377669833h-90Z" fill="#7570b3"/></g></g><path class="foreground" aria-hidden="true" d="" display="none"/></g></g></g><path class="foreground" aria-hidden="true" d="" display="none"/></g><g transform="translate(705,23.076923076923062)"><path class="background" aria-hidden="true" d="M6,0L84,0C87.311490146964,0,90,2.688509853036,90,6L90,576.9230769230769C90,576.9230769230769,90,576.9230769230769,90,576.9230769230769L0,576.9230769230769C0,576.9230769230769,0,576.9230769230769,0,576.9230769230769L0,6C0,2.688509853036,2.688509853036,0,6,0Z"/><g clip-path="url(#clip8)"><g class="mark-group role-scope" role="graphics-object" aria-roledescription="group mark container"><g transform="translate(0,-23.076923076923062)"><path class="background" aria-hidden="true" d="M0,0h90v0h-90Z"/><g><g class="mark-rect role-mark layer_0_marks" role="graphics-object" aria-roledescription="rect mark container"><path aria-label="Parser: ruamel.yaml&#xA;v0.19.1; Execution Time (seconds, lower=better): 22.0149232953; parser: ruamel.yaml; Execution Time (s): 22.0149; Slowdown: 92.40" role="graphics-symbol" aria-roledescription="bar" d="M0,23.076923076923062h90v576.9230769230769h-90Z" fill="#e7298a"/></g></g><path class="foreground" aria-hidden="true" d="" display="none"/></g></g></g><path class="foreground" aria-hidden="true" d="" display="none"/></g></g><g class="mark-text role-mark layer_1_marks" role="graphics-object" aria-roledescription="text mark container"><text aria-label="Parser: yamlrocks&#xA;v0.2.1; Execution Time (seconds, lower=better): 0.238253622; parser: yamlrocks; label: 0.2383s (x1.00); Execution Time (s): 0.2383; Slowdown: 1.00" role="graphics-symbol" aria-roledescription="text mark" text-anchor="middle" transform="translate(50,589.7563256138419)" font-family="sans-serif" font-size="9px" font-weight="bold" fill="#666666">0.2383s (x1.00)</text><text aria-label="Parser: yaml_rs (parse_dt=False)&#xA;v0.1.4; Execution Time (seconds, lower=better): 0.262032513; parser: yaml_rs (parse_dt=False); label: 0.2620s (x1.10); Execution Time (s): 0.2620; Slowdown: 1.10" role="graphics-symbol" aria-roledescription="text mark" text-anchor="middle" transform="translate(150,589.1331759994871)" font-family="sans-serif" font-size="9px" font-weight="bold" fill="#a6761d">0.2620s (x1.10)</text><text aria-label="Parser: yaml_rs&#xA;v0.1.4; Execution Time (seconds, lower=better): 0.263825125333; parser: yaml_rs; label: 0.2638s (x1.11); Execution Time (s): 0.2638; Slowdown: 1.11" role="graphics-symbol" aria-roledescription="text mark" text-anchor="middle" transform="translate(250,589.0861988009202)" font-family="sans-serif" font-size="9px" font-weight="bold" fill="#e6ab02">0.2638s (x1.11)</text><text aria-label="Parser: ryaml&#xA;v0.5.1; Execution Time (seconds, lower=better): 0.466627345; parser: ryaml; label: 0.4666s (x1.96); Execution Time (s): 0.4666; Slowdown: 1.96" role="graphics-symbol" aria-roledescription="text mark" text-anchor="middle" transform="translate(350,583.7715638595519)" font-family="sans-serif" font-size="9px" font-weight="bold" fill="#66a61e">0.4666s (x1.96)</text><text aria-label="Parser: PyYAML (CLoader)&#xA;v6.0.3; Execution Time (seconds, lower=better): 1.38268904833; parser: PyYAML (CLoader); label: 1.3827s (x5.80); Execution Time (s): 1.3827; Slowdown: 5.80" role="graphics-symbol" aria-roledescription="text mark" text-anchor="middle" transform="translate(450,559.7652509849352)" font-family="sans-serif" font-size="9px" font-weight="bold" fill="#d95f02">1.3827s (x5.80)</text><text aria-label="Parser: PyYAML&#xA;v6.0.3; Execution Time (seconds, lower=better): 15.4837624077; parser: PyYAML; label: 15.4838s (x64.99); Execution Time (s): 15.4838; Slowdown: 64.99" role="graphics-symbol" aria-roledescription="text mark" text-anchor="middle" transform="translate(550,190.23252442262634)" font-family="sans-serif" font-size="9px" font-weight="bold" fill="#1b9e77">15.4838s (x64.99)</text><text aria-label="Parser: oyaml&#xA;v1.0; Execution Time (seconds, lower=better): 15.7066231353; parser: oyaml; label: 15.7066s (x65.92); Execution Time (s): 15.7066; Slowdown: 65.92" role="graphics-symbol" aria-roledescription="text mark" text-anchor="middle" transform="translate(650,184.3922362233017)" font-family="sans-serif" font-size="9px" font-weight="bold" fill="#7570b3">15.7066s (x65.92)</text><text aria-label="Parser: ruamel.yaml&#xA;v0.19.1; Execution Time (seconds, lower=better): 22.0149232953; parser: ruamel.yaml; label: 22.0149s (x92.40); Execution Time (s): 22.0149; Slowdown: 92.40" role="graphics-symbol" aria-roledescription="text mark" text-anchor="middle" transform="translate(750,19.076923076923062)" font-family="sans-serif" font-size="9px" font-weight="bold" fill="#e7298a">22.0149s (x92.40)</text></g><g class="mark-group role-title"><g transform="translate(400,-31)"><path class="background" aria-hidden="true" d="M0,0h0v0h0Z" pointer-events="none"/><g><g class="mark-text role-title-text" role="graphics-symbol" aria-roledescription="title" aria-label="Title text 'YAML parsers benchmark (loads)'" pointer-events="none"><text text-anchor="middle" transform="translate(0,10)" font-family="sans-serif" font-size="13px" font-weight="bold" fill="#000" opacity="1">YAML parsers benchmark (loads)</text></g><g class="mark-text role-title-subtitle" role="graphics-symbol" aria-roledescription="subtitle" aria-label="Subtitle text 'Python: 3.14.6 (Linux 6.17.0-1018-azure) | CPU: Intel(R) Xeon(R) 6973P-C'" pointer-events="none"><text text-anchor="middle" transform="translate(0,25)" font-family="sans-serif" font-size="12px" fill="#000" opacity="1">Python: 3.14.6 (Linux 6.17.0-1018-azure) | CPU: Intel(R) Xeon(R) 6973P-C</text></g></g><path class="foreground" aria-hidden="true" d="" pointer-events="none" display="none"/></g></g></g><path class="foreground" aria-hidden="true" d="" display="none"/></g></g></g><defs><clipPath id="clip1"><path d="M3.1218371930790454,0L86.87816280692095,0C88.60115165780546,0,90,1.398848342194544,90,3.1218371930790454L90,6.243674386158091C90,6.243674386158091,90,6.243674386158091,90,6.243674386158091L0,6.243674386158091C0,6.243674386158091,0,6.243674386158091,0,6.243674386158091L0,3.1218371930790454C0,1.398848342194544,1.398848342194544,0,3.1218371930790454,0Z"/></clipPath><clipPath id="clip2"><path d="M3.433412000256453,0L86.56658799974355,0C88.46153966796308,0,90,1.5384603320369195,90,3.433412000256453L90,6.866824000512906C90,6.866824000512906,90,6.866824000512906,90,6.866824000512906L0,6.866824000512906C0,6.866824000512906,0,6.866824000512906,0,6.866824000512906L0,3.433412000256453C0,1.5384603320369195,1.5384603320369195,0,3.433412000256453,0Z"/></clipPath><clipPath id="clip3"><path d="M3.4569005995398925,0L86.54309940046011,0C88.45101477952849,0,90,1.5489852204715095,90,3.4569005995398925L90,6.913801199079785C90,6.913801199079785,90,6.913801199079785,90,6.913801199079785L0,6.913801199079785C0,6.913801199079785,0,6.913801199079785,0,6.913801199079785L0,3.4569005995398925C0,1.5489852204715095,1.5489852204715095,0,3.4569005995398925,0Z"/></clipPath><clipPath id="clip4"><path d="M6,0L84,0C87.311490146964,0,90,2.688509853036,90,6L90,12.228436140448139C90,12.228436140448139,90,12.228436140448139,90,12.228436140448139L0,12.228436140448139C0,12.228436140448139,0,12.228436140448139,0,12.228436140448139L0,6C0,2.688509853036,2.688509853036,0,6,0Z"/></clipPath><clipPath id="clip5"><path d="M6,0L84,0C87.311490146964,0,90,2.688509853036,90,6L90,36.234749015064835C90,36.234749015064835,90,36.234749015064835,90,36.234749015064835L0,36.234749015064835C0,36.234749015064835,0,36.234749015064835,0,36.234749015064835L0,6C0,2.688509853036,2.688509853036,0,6,0Z"/></clipPath><clipPath id="clip6"><path d="M6,0L84,0C87.311490146964,0,90,2.688509853036,90,6L90,405.76747557737366C90,405.76747557737366,90,405.76747557737366,90,405.76747557737366L0,405.76747557737366C0,405.76747557737366,0,405.76747557737366,0,405.76747557737366L0,6C0,2.688509853036,2.688509853036,0,6,0Z"/></clipPath><clipPath id="clip7"><path d="M6,0L84,0C87.311490146964,0,90,2.688509853036,90,6L90,411.60776377669833C90,411.60776377669833,90,411.60776377669833,90,411.60776377669833L0,411.60776377669833C0,411.60776377669833,0,411.60776377669833,0,411.60776377669833L0,6C0,2.688509853036,2.688509853036,0,6,0Z"/></clipPath><clipPath id="clip8"><path d="M6,0L84,0C87.311490146964,0,90,2.688509853036,90,6L90,576.9230769230769C90,576.9230769230769,90,576.9230769230769,90,576.9230769230769L0,576.9230769230769C0,576.9230769230769,0,576.9230769230769,0,576.9230769230769L0,6C0,2.688509853036,2.688509853036,0,6,0Z"/></clipPath></defs></svg>