<svg xmlns="http://www.w3.org/2000/svg" xmlns:xlink="http://www.w3.org/1999/xlink" version="1.1" class="marks" width="844" height="687" viewBox="0 0 844 687"><rect width="844" height="687" fill="white"/><g fill="none" stroke-miterlimit="10" transform="translate(39,36)"><g class="mark-group role-frame root" role="graphics-object" aria-roledescription="group mark container"><g transform="translate(0,0)"><path class="background" aria-hidden="true" d="M0.5,0.5h800v600h-800Z" stroke="#ddd"/><g><g class="mark-group role-axis" role="graphics-symbol" aria-roledescription="axis" aria-label="X-axis titled 'Parser' for a discrete scale with 8 values: yamlrocks&#xA;0.6.1, yaml_rs (parse_dt=False)&#xA;0.1.6, yaml_rs&#xA;0.1.6, ryaml&#xA;0.5.1, PyYAML (CLoader)&#xA;6.0.3, ending with ruamel.yaml&#xA;0.19.1"><g transform="translate(0.5,600.5)"><path class="background" aria-hidden="true" d="M0,0h0v0h0Z" pointer-events="none"/><g><g class="mark-rule role-axis-tick" pointer-events="none"><line transform="translate(50,0)" x2="0" y2="5" stroke="#888" stroke-width="1" opacity="1"/><line transform="translate(150,0)" x2="0" y2="5" stroke="#888" stroke-width="1" opacity="1"/><line transform="translate(250,0)" x2="0" y2="5" stroke="#888" stroke-width="1" opacity="1"/><line transform="translate(350,0)" x2="0" y2="5" stroke="#888" stroke-width="1" opacity="1"/><line transform="translate(450,0)" x2="0" y2="5" stroke="#888" stroke-width="1" opacity="1"/><line transform="translate(550,0)" x2="0" y2="5" stroke="#888" stroke-width="1" opacity="1"/><line transform="translate(650,0)" x2="0" y2="5" stroke="#888" stroke-width="1" opacity="1"/><line transform="translate(750,0)" x2="0" y2="5" stroke="#888" stroke-width="1" opacity="1"/></g><g class="mark-text role-axis-label" pointer-events="none"><text text-anchor="middle" transform="translate(49.5,15)" font-family="sans-serif" font-size="10px" fill="#000" opacity="1"><tspan>yamlrocks</tspan><tspan x="0" dy="14">0.6.1</tspan></text><text text-anchor="middle" transform="translate(149.5,15)" font-family="sans-serif" font-size="10px" fill="#000" opacity="1"><tspan>yaml_rs (parse_dt=False)</tspan><tspan x="0" dy="14">0.1.6</tspan></text><text text-anchor="middle" transform="translate(249.5,15)" font-family="sans-serif" font-size="10px" fill="#000" opacity="1"><tspan>yaml_rs</tspan><tspan x="0" dy="14">0.1.6</tspan></text><text text-anchor="middle" transform="translate(349.5,15)" font-family="sans-serif" font-size="10px" fill="#000" opacity="1"><tspan>ryaml</tspan><tspan x="0" dy="14">0.5.1</tspan></text><text text-anchor="middle" transform="translate(449.5,15)" font-family="sans-serif" font-size="10px" fill="#000" opacity="1"><tspan>PyYAML (CLoader)</tspan><tspan x="0" dy="14">6.0.3</tspan></text><text text-anchor="middle" transform="translate(549.5,15)" font-family="sans-serif" font-size="10px" fill="#000" opacity="1"><tspan>PyYAML</tspan><tspan x="0" dy="14">6.0.3</tspan></text><text text-anchor="middle" transform="translate(649.5,15)" font-family="sans-serif" font-size="10px" fill="#000" opacity="1"><tspan>oyaml</tspan><tspan x="0" dy="14">1.0</tspan></text><text text-anchor="middle" transform="translate(749.5,15)" font-family="sans-serif" font-size="10px" fill="#000" opacity="1"><tspan>ruamel.yaml</tspan><tspan x="0" dy="14">0.19.1</tspan></text></g><g class="mark-rule role-axis-domain" pointer-events="none"><line transform="translate(0,0)" x2="800" y2="0" stroke="#888" stroke-width="1" opacity="1"/></g><g class="mark-text role-axis-title" pointer-events="none"><text text-anchor="middle" transform="translate(400,44)" font-family="sans-serif" font-size="11px" font-weight="bold" fill="#000" opacity="1">Parser</text></g></g><path class="foreground" aria-hidden="true" d="" pointer-events="none" display="none"/></g></g><g class="mark-group role-axis" role="graphics-symbol" aria-roledescription="axis" aria-label="Y-axis titled 'Execution Time (seconds, lower=better)' for a linear scale with values from 0 to 40"><g transform="translate(0.5,0.5)"><path class="background" aria-hidden="true" d="M0,0h0v0h0Z" pointer-events="none"/><g><g class="mark-rule role-axis-tick" pointer-events="none"><line transform="translate(0,600)" x2="-5" y2="0" stroke="#888" stroke-width="1" opacity="1"/><line transform="translate(0,570)" x2="-5" y2="0" stroke="#888" stroke-width="1" opacity="1"/><line transform="translate(0,540)" x2="-5" y2="0" stroke="#888" stroke-width="1" opacity="1"/><line transform="translate(0,510)" x2="-5" y2="0" stroke="#888" stroke-width="1" opacity="1"/><line transform="translate(0,479)" x2="-5" y2="0" stroke="#888" stroke-width="1" opacity="1"/><line transform="translate(0,449)" x2="-5" y2="0" stroke="#888" stroke-width="1" opacity="1"/><line transform="translate(0,419)" x2="-5" y2="0" stroke="#888" stroke-width="1" opacity="1"/><line transform="translate(0,389)" x2="-5" y2="0" stroke="#888" stroke-width="1" opacity="1"/><line transform="translate(0,359)" x2="-5" y2="0" stroke="#888" stroke-width="1" opacity="1"/><line transform="translate(0,329)" x2="-5" y2="0" stroke="#888" stroke-width="1" opacity="1"/><line transform="translate(0,299)" x2="-5" y2="0" stroke="#888" stroke-width="1" opacity="1"/><line transform="translate(0,269)" x2="-5" y2="0" stroke="#888" stroke-width="1" opacity="1"/><line transform="translate(0,238)" x2="-5" y2="0" stroke="#888" stroke-width="1" opacity="1"/><line transform="translate(0,208)" x2="-5" y2="0" stroke="#888" stroke-width="1" opacity="1"/><line transform="translate(0,178)" x2="-5" y2="0" stroke="#888" stroke-width="1" opacity="1"/><line transform="translate(0,148)" x2="-5" y2="0" stroke="#888" stroke-width="1" opacity="1"/><line transform="translate(0,118)" x2="-5" y2="0" stroke="#888" stroke-width="1" opacity="1"/><line transform="translate(0,88)" x2="-5" y2="0" stroke="#888" stroke-width="1" opacity="1"/><line transform="translate(0,58)" x2="-5" y2="0" stroke="#888" stroke-width="1" opacity="1"/><line transform="translate(0,28)" x2="-5" y2="0" stroke="#888" stroke-width="1" opacity="1"/></g><g class="mark-text role-axis-label" pointer-events="none"><text text-anchor="end" transform="translate(-7,603)" font-family="sans-serif" font-size="10px" fill="#000" opacity="1">0</text><text text-anchor="end" transform="translate(-7,572.872879137242)" font-family="sans-serif" font-size="10px" fill="#000" opacity="1">2</text><text text-anchor="end" transform="translate(-7,542.7457582744839)" font-family="sans-serif" font-size="10px" fill="#000" opacity="1">4</text><text text-anchor="end" transform="translate(-7,512.6186374117258)" font-family="sans-serif" font-size="10px" fill="#000" opacity="1">6</text><text text-anchor="end" transform="translate(-7,482.49151654896775)" font-family="sans-serif" font-size="10px" fill="#000" opacity="1">8</text><text text-anchor="end" transform="translate(-7,452.3643956862096)" font-family="sans-serif" font-size="10px" fill="#000" opacity="1">10</text><text text-anchor="end" transform="translate(-7,422.2372748234516)" font-family="sans-serif" font-size="10px" fill="#000" opacity="1">12</text><text text-anchor="end" transform="translate(-7,392.1101539606935)" font-family="sans-serif" font-size="10px" fill="#000" opacity="1">14</text><text text-anchor="end" transform="translate(-7,361.9830330979355)" font-family="sans-serif" font-size="10px" fill="#000" opacity="1">16</text><text text-anchor="end" transform="translate(-7,331.85591223517736)" font-family="sans-serif" font-size="10px" fill="#000" opacity="1">18</text><text text-anchor="end" transform="translate(-7,301.7287913724193)" font-family="sans-serif" font-size="10px" fill="#000" opacity="1">20</text><text text-anchor="end" transform="translate(-7,271.6016705096613)" font-family="sans-serif" font-size="10px" fill="#000" opacity="1">22</text><text text-anchor="end" transform="translate(-7,241.4745496469032)" font-family="sans-serif" font-size="10px" fill="#000" opacity="1">24</text><text text-anchor="end" transform="translate(-7,211.34742878414514)" font-family="sans-serif" font-size="10px" fill="#000" opacity="1">26</text><text text-anchor="end" transform="translate(-7,181.22030792138708)" font-family="sans-serif" font-size="10px" fill="#000" opacity="1">28</text><text text-anchor="end" transform="translate(-7,151.093187058629)" font-family="sans-serif" font-size="10px" fill="#000" opacity="1">30</text><text text-anchor="end" transform="translate(-7,120.96606619587095)" font-family="sans-serif" font-size="10px" fill="#000" opacity="1">32</text><text text-anchor="end" transform="translate(-7,90.83894533311289)" font-family="sans-serif" font-size="10px" fill="#000" opacity="1">34</text><text text-anchor="end" transform="translate(-7,60.711824470354834)" font-family="sans-serif" font-size="10px" fill="#000" opacity="1">36</text><text text-anchor="end" transform="translate(-7,30.584703607596705)" font-family="sans-serif" font-size="10px" fill="#000" opacity="1">38</text></g><g class="mark-rule role-axis-domain" pointer-events="none"><line transform="translate(0,600)" x2="0" y2="-600" stroke="#888" stroke-width="1" opacity="1"/></g><g class="mark-text role-axis-title" pointer-events="none"><text text-anchor="middle" transform="translate(-22.123046875,300) rotate(-90) translate(0,-2)" font-family="sans-serif" font-size="11px" font-weight="bold" fill="#000" opacity="1">Execution Time (seconds, lower=better)</text></g></g><path class="foreground" aria-hidden="true" d="" pointer-events="none" display="none"/></g></g><g class="mark-group role-scope" role="graphics-object" aria-roledescription="group mark container"><g transform="translate(5,596.6129505537411)"><path class="background" aria-hidden="true" d="M1.6935247231294284,0L88.30647527687057,0C89.24115701591775,0,90,0.7588429840822554,90,1.6935247231294284L90,3.3870494462588567C90,3.3870494462588567,90,3.3870494462588567,90,3.3870494462588567L0,3.3870494462588567C0,3.3870494462588567,0,3.3870494462588567,0,3.3870494462588567L0,1.6935247231294284C0,0.7588429840822554,0.7588429840822554,0,1.6935247231294284,0Z"/><g clip-path="url(#clip1)"><g class="mark-group role-scope" role="graphics-object" aria-roledescription="group mark container"><g transform="translate(0,-596.6129505537411)"><path class="background" aria-hidden="true" d="M0,0h90v0h-90Z"/><g><g class="mark-rect role-mark layer_0_marks" role="graphics-object" aria-roledescription="rect mark container"><path aria-label="Parser: yamlrocks&#xA;0.6.1; Execution Time (seconds, lower=better): 0.224850523333; parser: yamlrocks; Execution Time (s): 0.2249; Slowdown: 1.00" role="graphics-symbol" aria-roledescription="bar" d="M0,596.6129505537411h90v3.3870494462588567h-90Z" fill="#666666"/></g></g><path class="foreground" aria-hidden="true" d="" display="none"/></g></g></g><path class="foreground" aria-hidden="true" d="" display="none"/></g><g transform="translate(105,595.6141025017494)"><path class="background" aria-hidden="true" d="M2.1929487491253212,0L87.80705125087468,0C89.01737261346227,0,90,0.982627386537733,90,2.1929487491253212L90,4.3858974982506425C90,4.3858974982506425,90,4.3858974982506425,90,4.3858974982506425L0,4.3858974982506425C0,4.3858974982506425,0,4.3858974982506425,0,4.3858974982506425L0,2.1929487491253212C0,0.982627386537733,0.982627386537733,0,2.1929487491253212,0Z"/><g clip-path="url(#clip2)"><g class="mark-group role-scope" role="graphics-object" aria-roledescription="group mark container"><g transform="translate(0,-595.6141025017494)"><path class="background" aria-hidden="true" d="M0,0h90v0h-90Z"/><g><g class="mark-rect role-mark layer_0_marks" role="graphics-object" aria-roledescription="rect mark container"><path aria-label="Parser: yaml_rs (parse_dt=False)&#xA;0.1.6; Execution Time (seconds, lower=better): 0.291159418667; parser: yaml_rs (parse_dt=False); Execution Time (s): 0.2912; Slowdown: 1.29" role="graphics-symbol" aria-roledescription="bar" d="M0,595.6141025017494h90v4.3858974982506425h-90Z" fill="#a6761d"/></g></g><path class="foreground" aria-hidden="true" d="" display="none"/></g></g></g><path class="foreground" aria-hidden="true" d="" display="none"/></g><g transform="translate(205,595.5805325338534)"><path class="background" aria-hidden="true" d="M2.2097337330732785,0L87.79026626692672,0C89.00985151434108,0,90,0.990148485658922,90,2.2097337330732785L90,4.419467466146557C90,4.419467466146557,90,4.419467466146557,90,4.419467466146557L0,4.419467466146557C0,4.419467466146557,0,4.419467466146557,0,4.419467466146557L0,2.2097337330732785C0,0.990148485658922,0.990148485658922,0,2.2097337330732785,0Z"/><g clip-path="url(#clip3)"><g class="mark-group role-scope" role="graphics-object" aria-roledescription="group mark container"><g transform="translate(0,-595.5805325338534)"><path class="background" aria-hidden="true" d="M0,0h90v0h-90Z"/><g><g class="mark-rect role-mark layer_0_marks" role="graphics-object" aria-roledescription="rect mark container"><path aria-label="Parser: yaml_rs&#xA;0.1.6; Execution Time (seconds, lower=better): 0.293387973333; parser: yaml_rs; Execution Time (s): 0.2934; Slowdown: 1.30" role="graphics-symbol" aria-roledescription="bar" d="M0,595.5805325338534h90v4.419467466146557h-90Z" fill="#e6ab02"/></g></g><path class="foreground" aria-hidden="true" d="" display="none"/></g></g></g><path class="foreground" aria-hidden="true" d="" display="none"/></g><g transform="translate(305,589.5553312568057)"><path class="background" aria-hidden="true" d="M5.222334371597128,0L84.77766562840287,0C87.65995043101876,0,90,2.3400495689812413,90,5.222334371597128L90,10.444668743194256C90,10.444668743194256,90,10.444668743194256,90,10.444668743194256L0,10.444668743194256C0,10.444668743194256,0,10.444668743194256,0,10.444668743194256L0,5.222334371597128C0,2.3400495689812413,2.3400495689812413,0,5.222334371597128,0Z"/><g clip-path="url(#clip4)"><g class="mark-group role-scope" role="graphics-object" aria-roledescription="group mark container"><g transform="translate(0,-589.5553312568057)"><path class="background" aria-hidden="true" d="M0,0h90v0h-90Z"/><g><g class="mark-rect role-mark layer_0_marks" role="graphics-object" aria-roledescription="rect mark container"><path aria-label="Parser: ryaml&#xA;0.5.1; Execution Time (seconds, lower=better): 0.693373176333; parser: ryaml; Execution Time (s): 0.6934; Slowdown: 3.08" role="graphics-symbol" aria-roledescription="bar" d="M0,589.5553312568057h90v10.444668743194256h-90Z" fill="#66a61e"/></g></g><path class="foreground" aria-hidden="true" d="" display="none"/></g></g></g><path class="foreground" aria-hidden="true" d="" display="none"/></g><g transform="translate(405,565.8857066773594)"><path class="background" aria-hidden="true" d="M6,0L84,0C87.311490146964,0,90,2.688509853036,90,6L90,34.114293322640606C90,34.114293322640606,90,34.114293322640606,90,34.114293322640606L0,34.114293322640606C0,34.114293322640606,0,34.114293322640606,0,34.114293322640606L0,6C0,2.688509853036,2.688509853036,0,6,0Z"/><g clip-path="url(#clip5)"><g class="mark-group role-scope" role="graphics-object" aria-roledescription="group mark container"><g transform="translate(0,-565.8857066773594)"><path class="background" aria-hidden="true" d="M0,0h90v0h-90Z"/><g><g class="mark-rect role-mark layer_0_marks" role="graphics-object" aria-roledescription="rect mark container"><path aria-label="Parser: PyYAML (CLoader)&#xA;6.0.3; Execution Time (seconds, lower=better): 2.26468991033; parser: PyYAML (CLoader); Execution Time (s): 2.2647; Slowdown: 10.07" role="graphics-symbol" aria-roledescription="bar" d="M0,565.8857066773594h90v34.114293322640606h-90Z" fill="#d95f02"/></g></g><path class="foreground" aria-hidden="true" d="" display="none"/></g></g></g><path class="foreground" aria-hidden="true" d="" display="none"/></g><g transform="translate(505,188.03475145024532)"><path class="background" aria-hidden="true" d="M6,0L84,0C87.311490146964,0,90,2.688509853036,90,6L90,411.9652485497547C90,411.9652485497547,90,411.9652485497547,90,411.9652485497547L0,411.9652485497547C0,411.9652485497547,0,411.9652485497547,0,411.9652485497547L0,6C0,2.688509853036,2.688509853036,0,6,0Z"/><g clip-path="url(#clip6)"><g class="mark-group role-scope" role="graphics-object" aria-roledescription="group mark container"><g transform="translate(0,-188.03475145024532)"><path class="background" aria-hidden="true" d="M0,0h90v0h-90Z"/><g><g class="mark-rect role-mark layer_0_marks" role="graphics-object" aria-roledescription="rect mark container"><path aria-label="Parser: PyYAML&#xA;6.0.3; Execution Time (seconds, lower=better): 27.3484645563; parser: PyYAML; Execution Time (s): 27.3485; Slowdown: 121.63" role="graphics-symbol" aria-roledescription="bar" d="M0,188.03475145024532h90v411.9652485497547h-90Z" fill="#1b9e77"/></g></g><path class="foreground" aria-hidden="true" d="" display="none"/></g></g></g><path class="foreground" aria-hidden="true" d="" display="none"/></g><g transform="translate(605,185.29563806894902)"><path class="background" aria-hidden="true" d="M6,0L84,0C87.311490146964,0,90,2.688509853036,90,6L90,414.704361931051C90,414.704361931051,90,414.704361931051,90,414.704361931051L0,414.704361931051C0,414.704361931051,0,414.704361931051,0,414.704361931051L0,6C0,2.688509853036,2.688509853036,0,6,0Z"/><g clip-path="url(#clip7)"><g class="mark-group role-scope" role="graphics-object" aria-roledescription="group mark container"><g transform="translate(0,-185.29563806894902)"><path class="background" aria-hidden="true" d="M0,0h90v0h-90Z"/><g><g class="mark-rect role-mark layer_0_marks" role="graphics-object" aria-roledescription="rect mark container"><path aria-label="Parser: oyaml&#xA;1.0; Execution Time (seconds, lower=better): 27.5303016057; parser: oyaml; Execution Time (s): 27.5303; Slowdown: 122.44" role="graphics-symbol" aria-roledescription="bar" d="M0,185.29563806894902h90v414.704361931051h-90Z" fill="#7570b3"/></g></g><path class="foreground" aria-hidden="true" d="" display="none"/></g></g></g><path class="foreground" aria-hidden="true" d="" display="none"/></g><g transform="translate(705,28.571428571428537)"><path class="background" aria-hidden="true" d="M6,0L84,0C87.311490146964,0,90,2.688509853036,90,6L90,571.4285714285714C90,571.4285714285714,90,571.4285714285714,90,571.4285714285714L0,571.4285714285714C0,571.4285714285714,0,571.4285714285714,0,571.4285714285714L0,6C0,2.688509853036,2.688509853036,0,6,0Z"/><g clip-path="url(#clip8)"><g class="mark-group role-scope" role="graphics-object" aria-roledescription="group mark container"><g transform="translate(0,-28.571428571428537)"><path class="background" aria-hidden="true" d="M0,0h90v0h-90Z"/><g><g class="mark-rect role-mark layer_0_marks" role="graphics-object" aria-roledescription="rect mark container"><path aria-label="Parser: ruamel.yaml&#xA;0.19.1; Execution Time (seconds, lower=better): 37.9344959003; parser: ruamel.yaml; Execution Time (s): 37.9345; Slowdown: 168.71" role="graphics-symbol" aria-roledescription="bar" d="M0,28.571428571428537h90v571.4285714285714h-90Z" fill="#e7298a"/></g></g><path class="foreground" aria-hidden="true" d="" display="none"/></g></g></g><path class="foreground" aria-hidden="true" d="" display="none"/></g></g><g class="mark-text role-mark layer_1_marks" role="graphics-object" aria-roledescription="text mark container"><text aria-label="Parser: yamlrocks&#xA;0.6.1; Execution Time (seconds, lower=better): 0.224850523333; parser: yamlrocks; label: 0.2249s (x1.00); Execution Time (s): 0.2249; Slowdown: 1.00" role="graphics-symbol" aria-roledescription="text mark" text-anchor="middle" transform="translate(50,592.6129505537411)" font-family="sans-serif" font-size="9px" font-weight="bold" fill="#666666">0.2249s (x1.00)</text><text aria-label="Parser: yaml_rs (parse_dt=False)&#xA;0.1.6; Execution Time (seconds, lower=better): 0.291159418667; parser: yaml_rs (parse_dt=False); label: 0.2912s (x1.29); Execution Time (s): 0.2912; Slowdown: 1.29" role="graphics-symbol" aria-roledescription="text mark" text-anchor="middle" transform="translate(150,591.6141025017494)" font-family="sans-serif" font-size="9px" font-weight="bold" fill="#a6761d">0.2912s (x1.29)</text><text aria-label="Parser: yaml_rs&#xA;0.1.6; Execution Time (seconds, lower=better): 0.293387973333; parser: yaml_rs; label: 0.2934s (x1.30); Execution Time (s): 0.2934; Slowdown: 1.30" role="graphics-symbol" aria-roledescription="text mark" text-anchor="middle" transform="translate(250,591.5805325338534)" font-family="sans-serif" font-size="9px" font-weight="bold" fill="#e6ab02">0.2934s (x1.30)</text><text aria-label="Parser: ryaml&#xA;0.5.1; Execution Time (seconds, lower=better): 0.693373176333; parser: ryaml; label: 0.6934s (x3.08); Execution Time (s): 0.6934; Slowdown: 3.08" role="graphics-symbol" aria-roledescription="text mark" text-anchor="middle" transform="translate(350,585.5553312568057)" font-family="sans-serif" font-size="9px" font-weight="bold" fill="#66a61e">0.6934s (x3.08)</text><text aria-label="Parser: PyYAML (CLoader)&#xA;6.0.3; Execution Time (seconds, lower=better): 2.26468991033; parser: PyYAML (CLoader); label: 2.2647s (x10.07); Execution Time (s): 2.2647; Slowdown: 10.07" role="graphics-symbol" aria-roledescription="text mark" text-anchor="middle" transform="translate(450,561.8857066773594)" font-family="sans-serif" font-size="9px" font-weight="bold" fill="#d95f02">2.2647s (x10.07)</text><text aria-label="Parser: PyYAML&#xA;6.0.3; Execution Time (seconds, lower=better): 27.3484645563; parser: PyYAML; label: 27.3485s (x121.63); Execution Time (s): 27.3485; Slowdown: 121.63" role="graphics-symbol" aria-roledescription="text mark" text-anchor="middle" transform="translate(550,184.03475145024532)" font-family="sans-serif" font-size="9px" font-weight="bold" fill="#1b9e77">27.3485s (x121.63)</text><text aria-label="Parser: oyaml&#xA;1.0; Execution Time (seconds, lower=better): 27.5303016057; parser: oyaml; label: 27.5303s (x122.44); Execution Time (s): 27.5303; Slowdown: 122.44" role="graphics-symbol" aria-roledescription="text mark" text-anchor="middle" transform="translate(650,181.29563806894902)" font-family="sans-serif" font-size="9px" font-weight="bold" fill="#7570b3">27.5303s (x122.44)</text><text aria-label="Parser: ruamel.yaml&#xA;0.19.1; Execution Time (seconds, lower=better): 37.9344959003; parser: ruamel.yaml; label: 37.9345s (x168.71); Execution Time (s): 37.9345; Slowdown: 168.71" role="graphics-symbol" aria-roledescription="text mark" text-anchor="middle" transform="translate(750,24.571428571428537)" font-family="sans-serif" font-size="9px" font-weight="bold" fill="#e7298a">37.9345s (x168.71)</text></g><g class="mark-group role-title"><g transform="translate(400,-31)"><path class="background" aria-hidden="true" d="M0,0h0v0h0Z" pointer-events="none"/><g><g class="mark-text role-title-text" role="graphics-symbol" aria-roledescription="title" aria-label="Title text 'YAML parsers benchmark (loads)'" pointer-events="none"><text text-anchor="middle" transform="translate(0,10)" font-family="sans-serif" font-size="13px" font-weight="bold" fill="#000" opacity="1">YAML parsers benchmark (loads)</text></g><g class="mark-text role-title-subtitle" role="graphics-symbol" aria-roledescription="subtitle" aria-label="Subtitle text 'Python: 3.14.6 (Linux 6.17.0-1020-azure) | CPU: AMD EPYC 7763 64-Core Processor'" pointer-events="none"><text text-anchor="middle" transform="translate(0,25)" font-family="sans-serif" font-size="12px" fill="#000" opacity="1">Python: 3.14.6 (Linux 6.17.0-1020-azure) | CPU: AMD EPYC 7763 64-Core Processor</text></g></g><path class="foreground" aria-hidden="true" d="" pointer-events="none" display="none"/></g></g></g><path class="foreground" aria-hidden="true" d="" display="none"/></g></g></g><defs><clipPath id="clip1"><path d="M1.6935247231294284,0L88.30647527687057,0C89.24115701591775,0,90,0.7588429840822554,90,1.6935247231294284L90,3.3870494462588567C90,3.3870494462588567,90,3.3870494462588567,90,3.3870494462588567L0,3.3870494462588567C0,3.3870494462588567,0,3.3870494462588567,0,3.3870494462588567L0,1.6935247231294284C0,0.7588429840822554,0.7588429840822554,0,1.6935247231294284,0Z"/></clipPath><clipPath id="clip2"><path d="M2.1929487491253212,0L87.80705125087468,0C89.01737261346227,0,90,0.982627386537733,90,2.1929487491253212L90,4.3858974982506425C90,4.3858974982506425,90,4.3858974982506425,90,4.3858974982506425L0,4.3858974982506425C0,4.3858974982506425,0,4.3858974982506425,0,4.3858974982506425L0,2.1929487491253212C0,0.982627386537733,0.982627386537733,0,2.1929487491253212,0Z"/></clipPath><clipPath id="clip3"><path d="M2.2097337330732785,0L87.79026626692672,0C89.00985151434108,0,90,0.990148485658922,90,2.2097337330732785L90,4.419467466146557C90,4.419467466146557,90,4.419467466146557,90,4.419467466146557L0,4.419467466146557C0,4.419467466146557,0,4.419467466146557,0,4.419467466146557L0,2.2097337330732785C0,0.990148485658922,0.990148485658922,0,2.2097337330732785,0Z"/></clipPath><clipPath id="clip4"><path d="M5.222334371597128,0L84.77766562840287,0C87.65995043101876,0,90,2.3400495689812413,90,5.222334371597128L90,10.444668743194256C90,10.444668743194256,90,10.444668743194256,90,10.444668743194256L0,10.444668743194256C0,10.444668743194256,0,10.444668743194256,0,10.444668743194256L0,5.222334371597128C0,2.3400495689812413,2.3400495689812413,0,5.222334371597128,0Z"/></clipPath><clipPath id="clip5"><path d="M6,0L84,0C87.311490146964,0,90,2.688509853036,90,6L90,34.114293322640606C90,34.114293322640606,90,34.114293322640606,90,34.114293322640606L0,34.114293322640606C0,34.114293322640606,0,34.114293322640606,0,34.114293322640606L0,6C0,2.688509853036,2.688509853036,0,6,0Z"/></clipPath><clipPath id="clip6"><path d="M6,0L84,0C87.311490146964,0,90,2.688509853036,90,6L90,411.9652485497547C90,411.9652485497547,90,411.9652485497547,90,411.9652485497547L0,411.9652485497547C0,411.9652485497547,0,411.9652485497547,0,411.9652485497547L0,6C0,2.688509853036,2.688509853036,0,6,0Z"/></clipPath><clipPath id="clip7"><path d="M6,0L84,0C87.311490146964,0,90,2.688509853036,90,6L90,414.704361931051C90,414.704361931051,90,414.704361931051,90,414.704361931051L0,414.704361931051C0,414.704361931051,0,414.704361931051,0,414.704361931051L0,6C0,2.688509853036,2.688509853036,0,6,0Z"/></clipPath><clipPath id="clip8"><path d="M6,0L84,0C87.311490146964,0,90,2.688509853036,90,6L90,571.4285714285714C90,571.4285714285714,90,571.4285714285714,90,571.4285714285714L0,571.4285714285714C0,571.4285714285714,0,571.4285714285714,0,571.4285714285714L0,6C0,2.688509853036,2.688509853036,0,6,0Z"/></clipPath></defs></svg>