<svg xmlns="http://www.w3.org/2000/svg" xmlns:xlink="http://www.w3.org/1999/xlink" version="1.1" class="marks" width="844" height="687" viewBox="0 0 844 687"><rect width="844" height="687" fill="white"/><g fill="none" stroke-miterlimit="10" transform="translate(39,36)"><g class="mark-group role-frame root" role="graphics-object" aria-roledescription="group mark container"><g transform="translate(0,0)"><path class="background" aria-hidden="true" d="M0.5,0.5h800v600h-800Z" stroke="#ddd"/><g><g class="mark-group role-axis" role="graphics-symbol" aria-roledescription="axis" aria-label="X-axis titled 'Parser' for a discrete scale with 8 values: yamlrocks&#xA;0.6.1, yaml_rs (parse_dt=False)&#xA;0.1.6, yaml_rs&#xA;0.1.6, ryaml&#xA;0.5.1, PyYAML (CLoader)&#xA;6.0.3, ending with ruamel.yaml&#xA;0.19.1"><g transform="translate(0.5,600.5)"><path class="background" aria-hidden="true" d="M0,0h0v0h0Z" pointer-events="none"/><g><g class="mark-rule role-axis-tick" pointer-events="none"><line transform="translate(50,0)" x2="0" y2="5" stroke="#888" stroke-width="1" opacity="1"/><line transform="translate(150,0)" x2="0" y2="5" stroke="#888" stroke-width="1" opacity="1"/><line transform="translate(250,0)" x2="0" y2="5" stroke="#888" stroke-width="1" opacity="1"/><line transform="translate(350,0)" x2="0" y2="5" stroke="#888" stroke-width="1" opacity="1"/><line transform="translate(450,0)" x2="0" y2="5" stroke="#888" stroke-width="1" opacity="1"/><line transform="translate(550,0)" x2="0" y2="5" stroke="#888" stroke-width="1" opacity="1"/><line transform="translate(650,0)" x2="0" y2="5" stroke="#888" stroke-width="1" opacity="1"/><line transform="translate(750,0)" x2="0" y2="5" stroke="#888" stroke-width="1" opacity="1"/></g><g class="mark-text role-axis-label" pointer-events="none"><text text-anchor="middle" transform="translate(49.5,15)" font-family="sans-serif" font-size="10px" fill="#000" opacity="1"><tspan>yamlrocks</tspan><tspan x="0" dy="14">0.6.1</tspan></text><text text-anchor="middle" transform="translate(149.5,15)" font-family="sans-serif" font-size="10px" fill="#000" opacity="1"><tspan>yaml_rs (parse_dt=False)</tspan><tspan x="0" dy="14">0.1.6</tspan></text><text text-anchor="middle" transform="translate(249.5,15)" font-family="sans-serif" font-size="10px" fill="#000" opacity="1"><tspan>yaml_rs</tspan><tspan x="0" dy="14">0.1.6</tspan></text><text text-anchor="middle" transform="translate(349.5,15)" font-family="sans-serif" font-size="10px" fill="#000" opacity="1"><tspan>ryaml</tspan><tspan x="0" dy="14">0.5.1</tspan></text><text text-anchor="middle" transform="translate(449.5,15)" font-family="sans-serif" font-size="10px" fill="#000" opacity="1"><tspan>PyYAML (CLoader)</tspan><tspan x="0" dy="14">6.0.3</tspan></text><text text-anchor="middle" transform="translate(549.5,15)" font-family="sans-serif" font-size="10px" fill="#000" opacity="1"><tspan>PyYAML</tspan><tspan x="0" dy="14">6.0.3</tspan></text><text text-anchor="middle" transform="translate(649.5,15)" font-family="sans-serif" font-size="10px" fill="#000" opacity="1"><tspan>oyaml</tspan><tspan x="0" dy="14">1.0</tspan></text><text text-anchor="middle" transform="translate(749.5,15)" font-family="sans-serif" font-size="10px" fill="#000" opacity="1"><tspan>ruamel.yaml</tspan><tspan x="0" dy="14">0.19.1</tspan></text></g><g class="mark-rule role-axis-domain" pointer-events="none"><line transform="translate(0,0)" x2="800" y2="0" stroke="#888" stroke-width="1" opacity="1"/></g><g class="mark-text role-axis-title" pointer-events="none"><text text-anchor="middle" transform="translate(400,44)" font-family="sans-serif" font-size="11px" font-weight="bold" fill="#000" opacity="1">Parser</text></g></g><path class="foreground" aria-hidden="true" d="" pointer-events="none" display="none"/></g></g><g class="mark-group role-axis" role="graphics-symbol" aria-roledescription="axis" aria-label="Y-axis titled 'Execution Time (seconds, lower=better)' for a linear scale with values from 0 to 32"><g transform="translate(0.5,0.5)"><path class="background" aria-hidden="true" d="M0,0h0v0h0Z" pointer-events="none"/><g><g class="mark-rule role-axis-tick" pointer-events="none"><line transform="translate(0,600)" x2="-5" y2="0" stroke="#888" stroke-width="1" opacity="1"/><line transform="translate(0,563)" x2="-5" y2="0" stroke="#888" stroke-width="1" opacity="1"/><line transform="translate(0,526)" x2="-5" y2="0" stroke="#888" stroke-width="1" opacity="1"/><line transform="translate(0,489)" x2="-5" y2="0" stroke="#888" stroke-width="1" opacity="1"/><line transform="translate(0,452)" x2="-5" y2="0" stroke="#888" stroke-width="1" opacity="1"/><line transform="translate(0,415)" x2="-5" y2="0" stroke="#888" stroke-width="1" opacity="1"/><line transform="translate(0,378)" x2="-5" y2="0" stroke="#888" stroke-width="1" opacity="1"/><line transform="translate(0,341)" x2="-5" y2="0" stroke="#888" stroke-width="1" opacity="1"/><line transform="translate(0,304)" x2="-5" y2="0" stroke="#888" stroke-width="1" opacity="1"/><line transform="translate(0,267)" x2="-5" y2="0" stroke="#888" stroke-width="1" opacity="1"/><line transform="translate(0,230)" x2="-5" y2="0" stroke="#888" stroke-width="1" opacity="1"/><line transform="translate(0,193)" x2="-5" y2="0" stroke="#888" stroke-width="1" opacity="1"/><line transform="translate(0,156)" x2="-5" y2="0" stroke="#888" stroke-width="1" opacity="1"/><line transform="translate(0,120)" x2="-5" y2="0" stroke="#888" stroke-width="1" opacity="1"/><line transform="translate(0,83)" x2="-5" y2="0" stroke="#888" stroke-width="1" opacity="1"/><line transform="translate(0,46)" x2="-5" y2="0" stroke="#888" stroke-width="1" opacity="1"/><line transform="translate(0,9)" x2="-5" y2="0" stroke="#888" stroke-width="1" opacity="1"/></g><g class="mark-text role-axis-label" pointer-events="none"><text text-anchor="end" transform="translate(-7,603)" font-family="sans-serif" font-size="10px" fill="#000" opacity="1">0</text><text text-anchor="end" transform="translate(-7,566.039893835686)" font-family="sans-serif" font-size="10px" fill="#000" opacity="1">2</text><text text-anchor="end" transform="translate(-7,529.0797876713722)" font-family="sans-serif" font-size="10px" fill="#000" opacity="1">4</text><text text-anchor="end" transform="translate(-7,492.1196815070582)" font-family="sans-serif" font-size="10px" fill="#000" opacity="1">6</text><text text-anchor="end" transform="translate(-7,455.1595753427443)" font-family="sans-serif" font-size="10px" fill="#000" opacity="1">8</text><text text-anchor="end" transform="translate(-7,418.1994691784303)" font-family="sans-serif" font-size="10px" fill="#000" opacity="1">10</text><text text-anchor="end" transform="translate(-7,381.2393630141164)" font-family="sans-serif" font-size="10px" fill="#000" opacity="1">12</text><text text-anchor="end" transform="translate(-7,344.27925684980255)" font-family="sans-serif" font-size="10px" fill="#000" opacity="1">14</text><text text-anchor="end" transform="translate(-7,307.3191506854886)" font-family="sans-serif" font-size="10px" fill="#000" opacity="1">16</text><text text-anchor="end" transform="translate(-7,270.35904452117467)" font-family="sans-serif" font-size="10px" fill="#000" opacity="1">18</text><text text-anchor="end" transform="translate(-7,233.39893835686073)" font-family="sans-serif" font-size="10px" fill="#000" opacity="1">20</text><text text-anchor="end" transform="translate(-7,196.4388321925468)" font-family="sans-serif" font-size="10px" fill="#000" opacity="1">22</text><text text-anchor="end" transform="translate(-7,159.47872602823287)" font-family="sans-serif" font-size="10px" fill="#000" opacity="1">24</text><text text-anchor="end" transform="translate(-7,122.51861986391894)" font-family="sans-serif" font-size="10px" fill="#000" opacity="1">26</text><text text-anchor="end" transform="translate(-7,85.55851369960507)" font-family="sans-serif" font-size="10px" fill="#000" opacity="1">28</text><text text-anchor="end" transform="translate(-7,48.598407535291145)" font-family="sans-serif" font-size="10px" fill="#000" opacity="1">30</text><text text-anchor="end" transform="translate(-7,11.638301370977208)" font-family="sans-serif" font-size="10px" fill="#000" opacity="1">32</text></g><g class="mark-rule role-axis-domain" pointer-events="none"><line transform="translate(0,600)" x2="0" y2="-600" stroke="#888" stroke-width="1" opacity="1"/></g><g class="mark-text role-axis-title" pointer-events="none"><text text-anchor="middle" transform="translate(-22.123046875,300) rotate(-90) translate(0,-2)" font-family="sans-serif" font-size="11px" font-weight="bold" fill="#000" opacity="1">Execution Time (seconds, lower=better)</text></g></g><path class="foreground" aria-hidden="true" d="" pointer-events="none" display="none"/></g></g><g class="mark-group role-scope" role="graphics-object" aria-roledescription="group mark container"><g transform="translate(5,595.4096659903914)"><path class="background" aria-hidden="true" d="M2.2951670048042843,0L87.70483299519572,0C88.97157014887009,0,90,1.028429851129907,90,2.2951670048042843L90,4.5903340096085685C90,4.5903340096085685,90,4.5903340096085685,90,4.5903340096085685L0,4.5903340096085685C0,4.5903340096085685,0,4.5903340096085685,0,4.5903340096085685L0,2.2951670048042843C0,1.028429851129907,1.028429851129907,0,2.2951670048042843,0Z"/><g clip-path="url(#clip1)"><g class="mark-group role-scope" role="graphics-object" aria-roledescription="group mark container"><g transform="translate(0,-595.4096659903914)"><path class="background" aria-hidden="true" d="M0,0h90v0h-90Z"/><g><g class="mark-rect role-mark layer_0_marks" role="graphics-object" aria-roledescription="rect mark container"><path aria-label="Parser: yamlrocks&#xA;0.6.1; Execution Time (seconds, lower=better): 0.248393984; parser: yamlrocks; Execution Time (s): 0.2484; Slowdown: 1.00" role="graphics-symbol" aria-roledescription="bar" d="M0,595.4096659903914h90v4.5903340096085685h-90Z" fill="#666666"/></g></g><path class="foreground" aria-hidden="true" d="" display="none"/></g></g></g><path class="foreground" aria-hidden="true" d="" display="none"/></g><g transform="translate(105,594.3672574412143)"><path class="background" aria-hidden="true" d="M2.816371279392854,0L87.18362872060715,0C88.73802634425745,0,90,1.261973655742549,90,2.816371279392854L90,5.632742558785708C90,5.632742558785708,90,5.632742558785708,90,5.632742558785708L0,5.632742558785708C0,5.632742558785708,0,5.632742558785708,0,5.632742558785708L0,2.816371279392854C0,1.261973655742549,1.261973655742549,0,2.816371279392854,0Z"/><g clip-path="url(#clip2)"><g class="mark-group role-scope" role="graphics-object" aria-roledescription="group mark container"><g transform="translate(0,-594.3672574412143)"><path class="background" aria-hidden="true" d="M0,0h90v0h-90Z"/><g><g class="mark-rect role-mark layer_0_marks" role="graphics-object" aria-roledescription="rect mark container"><path aria-label="Parser: yaml_rs (parse_dt=False)&#xA;0.1.6; Execution Time (seconds, lower=better): 0.304801211; parser: yaml_rs (parse_dt=False); Execution Time (s): 0.3048; Slowdown: 1.23" role="graphics-symbol" aria-roledescription="bar" d="M0,594.3672574412143h90v5.632742558785708h-90Z" fill="#a6761d"/></g></g><path class="foreground" aria-hidden="true" d="" display="none"/></g></g></g><path class="foreground" aria-hidden="true" d="" display="none"/></g><g transform="translate(205,594.3006016946321)"><path class="background" aria-hidden="true" d="M2.849699152683968,0L87.15030084731603,0C88.72309262497014,0,90,1.2769073750298647,90,2.849699152683968L90,5.699398305367936C90,5.699398305367936,90,5.699398305367936,90,5.699398305367936L0,5.699398305367936C0,5.699398305367936,0,5.699398305367936,0,5.699398305367936L0,2.849699152683968C0,1.2769073750298647,1.2769073750298647,0,2.849699152683968,0Z"/><g clip-path="url(#clip3)"><g class="mark-group role-scope" role="graphics-object" aria-roledescription="group mark container"><g transform="translate(0,-594.3006016946321)"><path class="background" aria-hidden="true" d="M0,0h90v0h-90Z"/><g><g class="mark-rect role-mark layer_0_marks" role="graphics-object" aria-roledescription="rect mark container"><path aria-label="Parser: yaml_rs&#xA;0.1.6; Execution Time (seconds, lower=better): 0.308408113333; parser: yaml_rs; Execution Time (s): 0.3084; Slowdown: 1.24" role="graphics-symbol" aria-roledescription="bar" d="M0,594.3006016946321h90v5.699398305367936h-90Z" fill="#e6ab02"/></g></g><path class="foreground" aria-hidden="true" d="" display="none"/></g></g></g><path class="foreground" aria-hidden="true" d="" display="none"/></g><g transform="translate(305,587.316310745495)"><path class="background" aria-hidden="true" d="M6,0L84,0C87.311490146964,0,90,2.688509853036,90,6L90,12.683689254504998C90,12.683689254504998,90,12.683689254504998,90,12.683689254504998L0,12.683689254504998C0,12.683689254504998,0,12.683689254504998,0,12.683689254504998L0,6C0,2.688509853036,2.688509853036,0,6,0Z"/><g clip-path="url(#clip4)"><g class="mark-group role-scope" role="graphics-object" aria-roledescription="group mark container"><g transform="translate(0,-587.316310745495)"><path class="background" aria-hidden="true" d="M0,0h90v0h-90Z"/><g><g class="mark-rect role-mark layer_0_marks" role="graphics-object" aria-roledescription="rect mark container"><path aria-label="Parser: ryaml&#xA;0.5.1; Execution Time (seconds, lower=better): 0.686344849667; parser: ryaml; Execution Time (s): 0.6863; Slowdown: 2.76" role="graphics-symbol" aria-roledescription="bar" d="M0,587.316310745495h90v12.683689254504998h-90Z" fill="#66a61e"/></g></g><path class="foreground" aria-hidden="true" d="" display="none"/></g></g></g><path class="foreground" aria-hidden="true" d="" display="none"/></g><g transform="translate(405,561.1068536042558)"><path class="background" aria-hidden="true" d="M6,0L84,0C87.311490146964,0,90,2.688509853036,90,6L90,38.893146395744225C90,38.893146395744225,90,38.893146395744225,90,38.893146395744225L0,38.893146395744225C0,38.893146395744225,0,38.893146395744225,0,38.893146395744225L0,6C0,2.688509853036,2.688509853036,0,6,0Z"/><g clip-path="url(#clip5)"><g class="mark-group role-scope" role="graphics-object" aria-roledescription="group mark container"><g transform="translate(0,-561.1068536042558)"><path class="background" aria-hidden="true" d="M0,0h90v0h-90Z"/><g><g class="mark-rect role-mark layer_0_marks" role="graphics-object" aria-roledescription="rect mark container"><path aria-label="Parser: PyYAML (CLoader)&#xA;6.0.3; Execution Time (seconds, lower=better): 2.10460144367; parser: PyYAML (CLoader); Execution Time (s): 2.1046; Slowdown: 8.47" role="graphics-symbol" aria-roledescription="bar" d="M0,561.1068536042558h90v38.893146395744225h-90Z" fill="#d95f02"/></g></g><path class="foreground" aria-hidden="true" d="" display="none"/></g></g></g><path class="foreground" aria-hidden="true" d="" display="none"/></g><g transform="translate(505,174.37619473473268)"><path class="background" aria-hidden="true" d="M6,0L84,0C87.311490146964,0,90,2.688509853036,90,6L90,425.6238052652673C90,425.6238052652673,90,425.6238052652673,90,425.6238052652673L0,425.6238052652673C0,425.6238052652673,0,425.6238052652673,0,425.6238052652673L0,6C0,2.688509853036,2.688509853036,0,6,0Z"/><g clip-path="url(#clip6)"><g class="mark-group role-scope" role="graphics-object" aria-roledescription="group mark container"><g transform="translate(0,-174.37619473473268)"><path class="background" aria-hidden="true" d="M0,0h90v0h-90Z"/><g><g class="mark-rect role-mark layer_0_marks" role="graphics-object" aria-roledescription="rect mark container"><path aria-label="Parser: PyYAML&#xA;6.0.3; Execution Time (seconds, lower=better): 23.031525038; parser: PyYAML; Execution Time (s): 23.0315; Slowdown: 92.72" role="graphics-symbol" aria-roledescription="bar" d="M0,174.37619473473268h90v425.6238052652673h-90Z" fill="#1b9e77"/></g></g><path class="foreground" aria-hidden="true" d="" display="none"/></g></g></g><path class="foreground" aria-hidden="true" d="" display="none"/></g><g transform="translate(605,173.1218376682738)"><path class="background" aria-hidden="true" d="M6,0L84,0C87.311490146964,0,90,2.688509853036,90,6L90,426.87816233172623C90,426.87816233172623,90,426.87816233172623,90,426.87816233172623L0,426.87816233172623C0,426.87816233172623,0,426.87816233172623,0,426.87816233172623L0,6C0,2.688509853036,2.688509853036,0,6,0Z"/><g clip-path="url(#clip7)"><g class="mark-group role-scope" role="graphics-object" aria-roledescription="group mark container"><g transform="translate(0,-173.1218376682738)"><path class="background" aria-hidden="true" d="M0,0h90v0h-90Z"/><g><g class="mark-rect role-mark layer_0_marks" role="graphics-object" aria-roledescription="rect mark container"><path aria-label="Parser: oyaml&#xA;1.0; Execution Time (seconds, lower=better): 23.0994013077; parser: oyaml; Execution Time (s): 23.0994; Slowdown: 93.00" role="graphics-symbol" aria-roledescription="bar" d="M0,173.1218376682738h90v426.87816233172623h-90Z" fill="#7570b3"/></g></g><path class="foreground" aria-hidden="true" d="" display="none"/></g></g></g><path class="foreground" aria-hidden="true" d="" display="none"/></g><g transform="translate(705,28.571428571428537)"><path class="background" aria-hidden="true" d="M6,0L84,0C87.311490146964,0,90,2.688509853036,90,6L90,571.4285714285714C90,571.4285714285714,90,571.4285714285714,90,571.4285714285714L0,571.4285714285714C0,571.4285714285714,0,571.4285714285714,0,571.4285714285714L0,6C0,2.688509853036,2.688509853036,0,6,0Z"/><g clip-path="url(#clip8)"><g class="mark-group role-scope" role="graphics-object" aria-roledescription="group mark container"><g transform="translate(0,-28.571428571428537)"><path class="background" aria-hidden="true" d="M0,0h90v0h-90Z"/><g><g class="mark-rect role-mark layer_0_marks" role="graphics-object" aria-roledescription="rect mark container"><path aria-label="Parser: ruamel.yaml&#xA;0.19.1; Execution Time (seconds, lower=better): 30.921370674; parser: ruamel.yaml; Execution Time (s): 30.9214; Slowdown: 124.49" role="graphics-symbol" aria-roledescription="bar" d="M0,28.571428571428537h90v571.4285714285714h-90Z" fill="#e7298a"/></g></g><path class="foreground" aria-hidden="true" d="" display="none"/></g></g></g><path class="foreground" aria-hidden="true" d="" display="none"/></g></g><g class="mark-text role-mark layer_1_marks" role="graphics-object" aria-roledescription="text mark container"><text aria-label="Parser: yamlrocks&#xA;0.6.1; Execution Time (seconds, lower=better): 0.248393984; parser: yamlrocks; label: 0.2484s (x1.00); Execution Time (s): 0.2484; Slowdown: 1.00" role="graphics-symbol" aria-roledescription="text mark" text-anchor="middle" transform="translate(50,591.4096659903914)" font-family="sans-serif" font-size="9px" font-weight="bold" fill="#666666">0.2484s (x1.00)</text><text aria-label="Parser: yaml_rs (parse_dt=False)&#xA;0.1.6; Execution Time (seconds, lower=better): 0.304801211; parser: yaml_rs (parse_dt=False); label: 0.3048s (x1.23); Execution Time (s): 0.3048; Slowdown: 1.23" role="graphics-symbol" aria-roledescription="text mark" text-anchor="middle" transform="translate(150,590.3672574412143)" font-family="sans-serif" font-size="9px" font-weight="bold" fill="#a6761d">0.3048s (x1.23)</text><text aria-label="Parser: yaml_rs&#xA;0.1.6; Execution Time (seconds, lower=better): 0.308408113333; parser: yaml_rs; label: 0.3084s (x1.24); Execution Time (s): 0.3084; Slowdown: 1.24" role="graphics-symbol" aria-roledescription="text mark" text-anchor="middle" transform="translate(250,590.3006016946321)" font-family="sans-serif" font-size="9px" font-weight="bold" fill="#e6ab02">0.3084s (x1.24)</text><text aria-label="Parser: ryaml&#xA;0.5.1; Execution Time (seconds, lower=better): 0.686344849667; parser: ryaml; label: 0.6863s (x2.76); Execution Time (s): 0.6863; Slowdown: 2.76" role="graphics-symbol" aria-roledescription="text mark" text-anchor="middle" transform="translate(350,583.316310745495)" font-family="sans-serif" font-size="9px" font-weight="bold" fill="#66a61e">0.6863s (x2.76)</text><text aria-label="Parser: PyYAML (CLoader)&#xA;6.0.3; Execution Time (seconds, lower=better): 2.10460144367; parser: PyYAML (CLoader); label: 2.1046s (x8.47); Execution Time (s): 2.1046; Slowdown: 8.47" role="graphics-symbol" aria-roledescription="text mark" text-anchor="middle" transform="translate(450,557.1068536042558)" font-family="sans-serif" font-size="9px" font-weight="bold" fill="#d95f02">2.1046s (x8.47)</text><text aria-label="Parser: PyYAML&#xA;6.0.3; Execution Time (seconds, lower=better): 23.031525038; parser: PyYAML; label: 23.0315s (x92.72); Execution Time (s): 23.0315; Slowdown: 92.72" role="graphics-symbol" aria-roledescription="text mark" text-anchor="middle" transform="translate(550,170.37619473473268)" font-family="sans-serif" font-size="9px" font-weight="bold" fill="#1b9e77">23.0315s (x92.72)</text><text aria-label="Parser: oyaml&#xA;1.0; Execution Time (seconds, lower=better): 23.0994013077; parser: oyaml; label: 23.0994s (x93.00); Execution Time (s): 23.0994; Slowdown: 93.00" role="graphics-symbol" aria-roledescription="text mark" text-anchor="middle" transform="translate(650,169.1218376682738)" font-family="sans-serif" font-size="9px" font-weight="bold" fill="#7570b3">23.0994s (x93.00)</text><text aria-label="Parser: ruamel.yaml&#xA;0.19.1; Execution Time (seconds, lower=better): 30.921370674; parser: ruamel.yaml; label: 30.9214s (x124.49); Execution Time (s): 30.9214; Slowdown: 124.49" role="graphics-symbol" aria-roledescription="text mark" text-anchor="middle" transform="translate(750,24.571428571428537)" font-family="sans-serif" font-size="9px" font-weight="bold" fill="#e7298a">30.9214s (x124.49)</text></g><g class="mark-group role-title"><g transform="translate(400,-31)"><path class="background" aria-hidden="true" d="M0,0h0v0h0Z" pointer-events="none"/><g><g class="mark-text role-title-text" role="graphics-symbol" aria-roledescription="title" aria-label="Title text 'YAML parsers benchmark (loads)'" pointer-events="none"><text text-anchor="middle" transform="translate(0,10)" font-family="sans-serif" font-size="13px" font-weight="bold" fill="#000" opacity="1">YAML parsers benchmark (loads)</text></g><g class="mark-text role-title-subtitle" role="graphics-symbol" aria-roledescription="subtitle" aria-label="Subtitle text 'Python: 3.14.6 (Linux 6.17.0-1018-azure) | CPU: AMD EPYC 9V74 80-Core Processor'" pointer-events="none"><text text-anchor="middle" transform="translate(0,25)" font-family="sans-serif" font-size="12px" fill="#000" opacity="1">Python: 3.14.6 (Linux 6.17.0-1018-azure) | CPU: AMD EPYC 9V74 80-Core Processor</text></g></g><path class="foreground" aria-hidden="true" d="" pointer-events="none" display="none"/></g></g></g><path class="foreground" aria-hidden="true" d="" display="none"/></g></g></g><defs><clipPath id="clip1"><path d="M2.2951670048042843,0L87.70483299519572,0C88.97157014887009,0,90,1.028429851129907,90,2.2951670048042843L90,4.5903340096085685C90,4.5903340096085685,90,4.5903340096085685,90,4.5903340096085685L0,4.5903340096085685C0,4.5903340096085685,0,4.5903340096085685,0,4.5903340096085685L0,2.2951670048042843C0,1.028429851129907,1.028429851129907,0,2.2951670048042843,0Z"/></clipPath><clipPath id="clip2"><path d="M2.816371279392854,0L87.18362872060715,0C88.73802634425745,0,90,1.261973655742549,90,2.816371279392854L90,5.632742558785708C90,5.632742558785708,90,5.632742558785708,90,5.632742558785708L0,5.632742558785708C0,5.632742558785708,0,5.632742558785708,0,5.632742558785708L0,2.816371279392854C0,1.261973655742549,1.261973655742549,0,2.816371279392854,0Z"/></clipPath><clipPath id="clip3"><path d="M2.849699152683968,0L87.15030084731603,0C88.72309262497014,0,90,1.2769073750298647,90,2.849699152683968L90,5.699398305367936C90,5.699398305367936,90,5.699398305367936,90,5.699398305367936L0,5.699398305367936C0,5.699398305367936,0,5.699398305367936,0,5.699398305367936L0,2.849699152683968C0,1.2769073750298647,1.2769073750298647,0,2.849699152683968,0Z"/></clipPath><clipPath id="clip4"><path d="M6,0L84,0C87.311490146964,0,90,2.688509853036,90,6L90,12.683689254504998C90,12.683689254504998,90,12.683689254504998,90,12.683689254504998L0,12.683689254504998C0,12.683689254504998,0,12.683689254504998,0,12.683689254504998L0,6C0,2.688509853036,2.688509853036,0,6,0Z"/></clipPath><clipPath id="clip5"><path d="M6,0L84,0C87.311490146964,0,90,2.688509853036,90,6L90,38.893146395744225C90,38.893146395744225,90,38.893146395744225,90,38.893146395744225L0,38.893146395744225C0,38.893146395744225,0,38.893146395744225,0,38.893146395744225L0,6C0,2.688509853036,2.688509853036,0,6,0Z"/></clipPath><clipPath id="clip6"><path d="M6,0L84,0C87.311490146964,0,90,2.688509853036,90,6L90,425.6238052652673C90,425.6238052652673,90,425.6238052652673,90,425.6238052652673L0,425.6238052652673C0,425.6238052652673,0,425.6238052652673,0,425.6238052652673L0,6C0,2.688509853036,2.688509853036,0,6,0Z"/></clipPath><clipPath id="clip7"><path d="M6,0L84,0C87.311490146964,0,90,2.688509853036,90,6L90,426.87816233172623C90,426.87816233172623,90,426.87816233172623,90,426.87816233172623L0,426.87816233172623C0,426.87816233172623,0,426.87816233172623,0,426.87816233172623L0,6C0,2.688509853036,2.688509853036,0,6,0Z"/></clipPath><clipPath id="clip8"><path d="M6,0L84,0C87.311490146964,0,90,2.688509853036,90,6L90,571.4285714285714C90,571.4285714285714,90,571.4285714285714,90,571.4285714285714L0,571.4285714285714C0,571.4285714285714,0,571.4285714285714,0,571.4285714285714L0,6C0,2.688509853036,2.688509853036,0,6,0Z"/></clipPath></defs></svg>