<svg xmlns="http://www.w3.org/2000/svg" xmlns:xlink="http://www.w3.org/1999/xlink" version="1.1" class="marks" width="844" height="687" viewBox="0 0 844 687"><rect width="844" height="687" fill="white"/><g fill="none" stroke-miterlimit="10" transform="translate(39,36)"><g class="mark-group role-frame root" role="graphics-object" aria-roledescription="group mark container"><g transform="translate(0,0)"><path class="background" aria-hidden="true" d="M0.5,0.5h800v600h-800Z" stroke="#ddd"/><g><g class="mark-group role-axis" role="graphics-symbol" aria-roledescription="axis" aria-label="X-axis titled 'Parser' for a discrete scale with 7 values: yamlrocks&#xA;0.3.0, yaml_rs&#xA;0.1.4, PyYAML (CDumper)&#xA;6.0.3, ryaml&#xA;0.5.1, oyaml&#xA;1.0, PyYAML&#xA;6.0.3, ruamel.yaml&#xA;0.19.1"><g transform="translate(0.5,600.5)"><path class="background" aria-hidden="true" d="M0,0h0v0h0Z" pointer-events="none"/><g><g class="mark-rule role-axis-tick" pointer-events="none"><line transform="translate(57,0)" x2="0" y2="5" stroke="#888" stroke-width="1" opacity="1"/><line transform="translate(171,0)" x2="0" y2="5" stroke="#888" stroke-width="1" opacity="1"/><line transform="translate(285,0)" x2="0" y2="5" stroke="#888" stroke-width="1" opacity="1"/><line transform="translate(400,0)" x2="0" y2="5" stroke="#888" stroke-width="1" opacity="1"/><line transform="translate(514,0)" x2="0" y2="5" stroke="#888" stroke-width="1" opacity="1"/><line transform="translate(628,0)" x2="0" y2="5" stroke="#888" stroke-width="1" opacity="1"/><line transform="translate(742,0)" x2="0" y2="5" stroke="#888" stroke-width="1" opacity="1"/></g><g class="mark-text role-axis-label" pointer-events="none"><text text-anchor="middle" transform="translate(56.642857142857096,15)" font-family="sans-serif" font-size="10px" fill="#000" opacity="1"><tspan>yamlrocks</tspan><tspan x="0" dy="14">0.3.0</tspan></text><text text-anchor="middle" transform="translate(170.9285714285714,15)" font-family="sans-serif" font-size="10px" fill="#000" opacity="1"><tspan>yaml_rs</tspan><tspan x="0" dy="14">0.1.4</tspan></text><text text-anchor="middle" transform="translate(285.21428571428567,15)" font-family="sans-serif" font-size="10px" fill="#000" opacity="1"><tspan>PyYAML (CDumper)</tspan><tspan x="0" dy="14">6.0.3</tspan></text><text text-anchor="middle" transform="translate(399.5,15)" font-family="sans-serif" font-size="10px" fill="#000" opacity="1"><tspan>ryaml</tspan><tspan x="0" dy="14">0.5.1</tspan></text><text text-anchor="middle" transform="translate(513.7857142857142,15)" font-family="sans-serif" font-size="10px" fill="#000" opacity="1"><tspan>oyaml</tspan><tspan x="0" dy="14">1.0</tspan></text><text text-anchor="middle" transform="translate(628.0714285714286,15)" font-family="sans-serif" font-size="10px" fill="#000" opacity="1"><tspan>PyYAML</tspan><tspan x="0" dy="14">6.0.3</tspan></text><text text-anchor="middle" transform="translate(742.3571428571429,15)" font-family="sans-serif" font-size="10px" fill="#000" opacity="1"><tspan>ruamel.yaml</tspan><tspan x="0" dy="14">0.19.1</tspan></text></g><g class="mark-rule role-axis-domain" pointer-events="none"><line transform="translate(0,0)" x2="800" y2="0" stroke="#888" stroke-width="1" opacity="1"/></g><g class="mark-text role-axis-title" pointer-events="none"><text text-anchor="middle" transform="translate(400,44)" font-family="sans-serif" font-size="11px" font-weight="bold" fill="#000" opacity="1">Parser</text></g></g><path class="foreground" aria-hidden="true" d="" pointer-events="none" display="none"/></g></g><g class="mark-group role-axis" role="graphics-symbol" aria-roledescription="axis" aria-label="Y-axis titled 'Execution Time (seconds, lower=better)' for a linear scale with values from 0 to 11"><g transform="translate(0.5,0.5)"><path class="background" aria-hidden="true" d="M0,0h0v0h0Z" pointer-events="none"/><g><g class="mark-rule role-axis-tick" pointer-events="none"><line transform="translate(0,600)" x2="-5" y2="0" stroke="#888" stroke-width="1" opacity="1"/><line transform="translate(0,546)" x2="-5" y2="0" stroke="#888" stroke-width="1" opacity="1"/><line transform="translate(0,492)" x2="-5" y2="0" stroke="#888" stroke-width="1" opacity="1"/><line transform="translate(0,438)" x2="-5" y2="0" stroke="#888" stroke-width="1" opacity="1"/><line transform="translate(0,384)" x2="-5" y2="0" stroke="#888" stroke-width="1" opacity="1"/><line transform="translate(0,330)" x2="-5" y2="0" stroke="#888" stroke-width="1" opacity="1"/><line transform="translate(0,277)" x2="-5" y2="0" stroke="#888" stroke-width="1" opacity="1"/><line transform="translate(0,223)" x2="-5" y2="0" stroke="#888" stroke-width="1" opacity="1"/><line transform="translate(0,169)" x2="-5" y2="0" stroke="#888" stroke-width="1" opacity="1"/><line transform="translate(0,115)" x2="-5" y2="0" stroke="#888" stroke-width="1" opacity="1"/><line transform="translate(0,61)" x2="-5" y2="0" stroke="#888" stroke-width="1" opacity="1"/><line transform="translate(0,7)" x2="-5" y2="0" stroke="#888" stroke-width="1" opacity="1"/></g><g class="mark-text role-axis-label" pointer-events="none"><text text-anchor="end" transform="translate(-7,603)" font-family="sans-serif" font-size="10px" fill="#000" opacity="1">0</text><text text-anchor="end" transform="translate(-7,549.097980085577)" font-family="sans-serif" font-size="10px" fill="#000" opacity="1">1</text><text text-anchor="end" transform="translate(-7,495.19596017115396)" font-family="sans-serif" font-size="10px" fill="#000" opacity="1">2</text><text text-anchor="end" transform="translate(-7,441.293940256731)" font-family="sans-serif" font-size="10px" fill="#000" opacity="1">3</text><text text-anchor="end" transform="translate(-7,387.3919203423079)" font-family="sans-serif" font-size="10px" fill="#000" opacity="1">4</text><text text-anchor="end" transform="translate(-7,333.48990042788495)" font-family="sans-serif" font-size="10px" fill="#000" opacity="1">5</text><text text-anchor="end" transform="translate(-7,279.587880513462)" font-family="sans-serif" font-size="10px" fill="#000" opacity="1">6</text><text text-anchor="end" transform="translate(-7,225.68586059903893)" font-family="sans-serif" font-size="10px" fill="#000" opacity="1">7</text><text text-anchor="end" transform="translate(-7,171.78384068461594)" font-family="sans-serif" font-size="10px" fill="#000" opacity="1">8</text><text text-anchor="end" transform="translate(-7,117.88182077019289)" font-family="sans-serif" font-size="10px" fill="#000" opacity="1">9</text><text text-anchor="end" transform="translate(-7,63.97980085576991)" font-family="sans-serif" font-size="10px" fill="#000" opacity="1">10</text><text text-anchor="end" transform="translate(-7,10.077780941346923)" font-family="sans-serif" font-size="10px" fill="#000" opacity="1">11</text></g><g class="mark-rule role-axis-domain" pointer-events="none"><line transform="translate(0,600)" x2="0" y2="-600" stroke="#888" stroke-width="1" opacity="1"/></g><g class="mark-text role-axis-title" pointer-events="none"><text text-anchor="middle" transform="translate(-22.123046875,300) rotate(-90) translate(0,-2)" font-family="sans-serif" font-size="11px" font-weight="bold" fill="#000" opacity="1">Execution Time (seconds, lower=better)</text></g></g><path class="foreground" aria-hidden="true" d="" pointer-events="none" display="none"/></g></g><g class="mark-group role-scope" role="graphics-object" aria-roledescription="group mark container"><g transform="translate(5.714285714285666,598.2654226859001)"><path class="background" aria-hidden="true" d="M0.8672886570499259,0L101.98985420009294,0C102.46852384049201,0,102.85714285714286,0.3886190166508477,102.85714285714286,0.8672886570499259L102.85714285714286,1.7345773140998517C102.85714285714286,1.7345773140998517,102.85714285714286,1.7345773140998517,102.85714285714286,1.7345773140998517L0,1.7345773140998517C0,1.7345773140998517,0,1.7345773140998517,0,1.7345773140998517L0,0.8672886570499259C0,0.3886190166508477,0.3886190166508477,0,0.8672886570499259,0Z"/><g clip-path="url(#clip9)"><g class="mark-group role-scope" role="graphics-object" aria-roledescription="group mark container"><g transform="translate(0,-598.2654226859001)"><path class="background" aria-hidden="true" d="M0,0h102.85714285714286v0h-102.85714285714286Z"/><g><g class="mark-rect role-mark layer_0_marks" role="graphics-object" aria-roledescription="rect mark container"><path aria-label="Parser: yamlrocks&#xA;0.3.0; Execution Time (seconds, lower=better): 0.0321801913333; parser: yamlrocks; Execution Time (s): 0.0322; Slowdown: 1.00" role="graphics-symbol" aria-roledescription="bar" d="M0,598.2654226859001h102.85714285714286v1.7345773140998517h-102.85714285714286Z" fill="#a6761d"/></g></g><path class="foreground" aria-hidden="true" d="" display="none"/></g></g></g><path class="foreground" aria-hidden="true" d="" display="none"/></g><g transform="translate(119.99999999999996,596.4456440300477)"><path class="background" aria-hidden="true" d="M1.7771779849761629,0L101.0799648721667,0C102.06081610327502,0,102.85714285714286,0.7963267538678463,102.85714285714286,1.7771779849761629L102.85714285714286,3.5543559699523257C102.85714285714286,3.5543559699523257,102.85714285714286,3.5543559699523257,102.85714285714286,3.5543559699523257L0,3.5543559699523257C0,3.5543559699523257,0,3.5543559699523257,0,3.5543559699523257L0,1.7771779849761629C0,0.7963267538678463,0.7963267538678463,0,1.7771779849761629,0Z"/><g clip-path="url(#clip10)"><g class="mark-group role-scope" role="graphics-object" aria-roledescription="group mark container"><g transform="translate(0,-596.4456440300477)"><path class="background" aria-hidden="true" d="M0,0h102.85714285714286v0h-102.85714285714286Z"/><g><g class="mark-rect role-mark layer_0_marks" role="graphics-object" aria-roledescription="rect mark container"><path aria-label="Parser: yaml_rs&#xA;0.1.4; Execution Time (seconds, lower=better): 0.0659410533334; parser: yaml_rs; Execution Time (s): 0.0659; Slowdown: 2.05" role="graphics-symbol" aria-roledescription="bar" d="M0,596.4456440300477h102.85714285714286v3.5543559699523257h-102.85714285714286Z" fill="#e6ab02"/></g></g><path class="foreground" aria-hidden="true" d="" display="none"/></g></g></g><path class="foreground" aria-hidden="true" d="" display="none"/></g><g transform="translate(234.28571428571425,590.0206856450677)"><path class="background" aria-hidden="true" d="M4.9896571774661425,0L97.86748567967672,0C100.6213524429946,0,102.85714285714286,2.2357904141482536,102.85714285714286,4.9896571774661425L102.85714285714286,9.979314354932285C102.85714285714286,9.979314354932285,102.85714285714286,9.979314354932285,102.85714285714286,9.979314354932285L0,9.979314354932285C0,9.979314354932285,0,9.979314354932285,0,9.979314354932285L0,4.9896571774661425C0,2.2357904141482536,2.2357904141482536,0,4.9896571774661425,0Z"/><g clip-path="url(#clip11)"><g class="mark-group role-scope" role="graphics-object" aria-roledescription="group mark container"><g transform="translate(0,-590.0206856450677)"><path class="background" aria-hidden="true" d="M0,0h102.85714285714286v0h-102.85714285714286Z"/><g><g class="mark-rect role-mark layer_0_marks" role="graphics-object" aria-roledescription="rect mark container"><path aria-label="Parser: PyYAML (CDumper)&#xA;6.0.3; Execution Time (seconds, lower=better): 0.185138040667; parser: PyYAML (CDumper); Execution Time (s): 0.1851; Slowdown: 5.75" role="graphics-symbol" aria-roledescription="bar" d="M0,590.0206856450677h102.85714285714286v9.979314354932285h-102.85714285714286Z" fill="#d95f02"/></g></g><path class="foreground" aria-hidden="true" d="" display="none"/></g></g></g><path class="foreground" aria-hidden="true" d="" display="none"/></g><g transform="translate(348.57142857142856,589.4507188768713)"><path class="background" aria-hidden="true" d="M5.274640561564354,0L97.58250229557851,0C100.49365567031134,0,102.85714285714286,2.3634871868315175,102.85714285714286,5.274640561564354L102.85714285714286,10.549281123128708C102.85714285714286,10.549281123128708,102.85714285714286,10.549281123128708,102.85714285714286,10.549281123128708L0,10.549281123128708C0,10.549281123128708,0,10.549281123128708,0,10.549281123128708L0,5.274640561564354C0,2.3634871868315175,2.3634871868315175,0,5.274640561564354,0Z"/><g clip-path="url(#clip12)"><g class="mark-group role-scope" role="graphics-object" aria-roledescription="group mark container"><g transform="translate(0,-589.4507188768713)"><path class="background" aria-hidden="true" d="M0,0h102.85714285714286v0h-102.85714285714286Z"/><g><g class="mark-rect role-mark layer_0_marks" role="graphics-object" aria-roledescription="rect mark container"><path aria-label="Parser: ryaml&#xA;0.5.1; Execution Time (seconds, lower=better): 0.195712167; parser: ryaml; Execution Time (s): 0.1957; Slowdown: 6.08" role="graphics-symbol" aria-roledescription="bar" d="M0,589.4507188768713h102.85714285714286v10.549281123128708h-102.85714285714286Z" fill="#66a61e"/></g></g><path class="foreground" aria-hidden="true" d="" display="none"/></g></g></g><path class="foreground" aria-hidden="true" d="" display="none"/></g><g transform="translate(462.85714285714283,50.62752719546302)"><path class="background" aria-hidden="true" d="M6,0L96.85714285714286,0C100.16863300410687,0,102.85714285714286,2.688509853036,102.85714285714286,6L102.85714285714286,549.372472804537C102.85714285714286,549.372472804537,102.85714285714286,549.372472804537,102.85714285714286,549.372472804537L0,549.372472804537C0,549.372472804537,0,549.372472804537,0,549.372472804537L0,6C0,2.688509853036,2.688509853036,0,6,0Z"/><g clip-path="url(#clip13)"><g class="mark-group role-scope" role="graphics-object" aria-roledescription="group mark container"><g transform="translate(0,-50.62752719546302)"><path class="background" aria-hidden="true" d="M0,0h102.85714285714286v0h-102.85714285714286Z"/><g><g class="mark-rect role-mark layer_0_marks" role="graphics-object" aria-roledescription="rect mark container"><path aria-label="Parser: oyaml&#xA;1.0; Execution Time (seconds, lower=better): 10.192057249; parser: oyaml; Execution Time (s): 10.1921; Slowdown: 316.72" role="graphics-symbol" aria-roledescription="bar" d="M0,50.62752719546302h102.85714285714286v549.372472804537h-102.85714285714286Z" fill="#7570b3"/></g></g><path class="foreground" aria-hidden="true" d="" display="none"/></g></g></g><path class="foreground" aria-hidden="true" d="" display="none"/></g><g transform="translate(577.1428571428571,50.517793822667215)"><path class="background" aria-hidden="true" d="M6,0L96.85714285714286,0C100.16863300410687,0,102.85714285714286,2.688509853036,102.85714285714286,6L102.85714285714286,549.4822061773327C102.85714285714286,549.4822061773327,102.85714285714286,549.4822061773327,102.85714285714286,549.4822061773327L0,549.4822061773327C0,549.4822061773327,0,549.4822061773327,0,549.4822061773327L0,6C0,2.688509853036,2.688509853036,0,6,0Z"/><g clip-path="url(#clip14)"><g class="mark-group role-scope" role="graphics-object" aria-roledescription="group mark container"><g transform="translate(0,-50.517793822667215)"><path class="background" aria-hidden="true" d="M0,0h102.85714285714286v0h-102.85714285714286Z"/><g><g class="mark-rect role-mark layer_0_marks" role="graphics-object" aria-roledescription="rect mark container"><path aria-label="Parser: PyYAML&#xA;6.0.3; Execution Time (seconds, lower=better): 10.1940930423; parser: PyYAML; Execution Time (s): 10.1941; Slowdown: 316.78" role="graphics-symbol" aria-roledescription="bar" d="M0,50.517793822667215h102.85714285714286v549.4822061773327h-102.85714285714286Z" fill="#1b9e77"/></g></g><path class="foreground" aria-hidden="true" d="" display="none"/></g></g></g><path class="foreground" aria-hidden="true" d="" display="none"/></g><g transform="translate(691.4285714285714,28.571428571428605)"><path class="background" aria-hidden="true" d="M6,0L96.85714285714286,0C100.16863300410687,0,102.85714285714286,2.688509853036,102.85714285714286,6L102.85714285714286,571.4285714285714C102.85714285714286,571.4285714285714,102.85714285714286,571.4285714285714,102.85714285714286,571.4285714285714L0,571.4285714285714C0,571.4285714285714,0,571.4285714285714,0,571.4285714285714L0,6C0,2.688509853036,2.688509853036,0,6,0Z"/><g clip-path="url(#clip15)"><g class="mark-group role-scope" role="graphics-object" aria-roledescription="group mark container"><g transform="translate(0,-28.571428571428605)"><path class="background" aria-hidden="true" d="M0,0h102.85714285714286v0h-102.85714285714286Z"/><g><g class="mark-rect role-mark layer_0_marks" role="graphics-object" aria-roledescription="rect mark container"><path aria-label="Parser: ruamel.yaml&#xA;0.19.1; Execution Time (seconds, lower=better): 10.6012459707; parser: ruamel.yaml; Execution Time (s): 10.6012; Slowdown: 329.43" role="graphics-symbol" aria-roledescription="bar" d="M0,28.571428571428605h102.85714285714286v571.4285714285714h-102.85714285714286Z" fill="#e7298a"/></g></g><path class="foreground" aria-hidden="true" d="" display="none"/></g></g></g><path class="foreground" aria-hidden="true" d="" display="none"/></g></g><g class="mark-text role-mark layer_1_marks" role="graphics-object" aria-roledescription="text mark container"><text aria-label="Parser: yamlrocks&#xA;0.3.0; Execution Time (seconds, lower=better): 0.0321801913333; parser: yamlrocks; label: 0.0322s (x1.00); Execution Time (s): 0.0322; Slowdown: 1.00" role="graphics-symbol" aria-roledescription="text mark" text-anchor="middle" transform="translate(57.142857142857096,594.2654226859001)" font-family="sans-serif" font-size="9px" font-weight="bold" fill="#a6761d">0.0322s (x1.00)</text><text aria-label="Parser: yaml_rs&#xA;0.1.4; Execution Time (seconds, lower=better): 0.0659410533334; parser: yaml_rs; label: 0.0659s (x2.05); Execution Time (s): 0.0659; Slowdown: 2.05" role="graphics-symbol" aria-roledescription="text mark" text-anchor="middle" transform="translate(171.4285714285714,592.4456440300477)" font-family="sans-serif" font-size="9px" font-weight="bold" fill="#e6ab02">0.0659s (x2.05)</text><text aria-label="Parser: PyYAML (CDumper)&#xA;6.0.3; Execution Time (seconds, lower=better): 0.185138040667; parser: PyYAML (CDumper); label: 0.1851s (x5.75); Execution Time (s): 0.1851; Slowdown: 5.75" role="graphics-symbol" aria-roledescription="text mark" text-anchor="middle" transform="translate(285.71428571428567,586.0206856450677)" font-family="sans-serif" font-size="9px" font-weight="bold" fill="#d95f02">0.1851s (x5.75)</text><text aria-label="Parser: ryaml&#xA;0.5.1; Execution Time (seconds, lower=better): 0.195712167; parser: ryaml; label: 0.1957s (x6.08); Execution Time (s): 0.1957; Slowdown: 6.08" role="graphics-symbol" aria-roledescription="text mark" text-anchor="middle" transform="translate(400,585.4507188768713)" font-family="sans-serif" font-size="9px" font-weight="bold" fill="#66a61e">0.1957s (x6.08)</text><text aria-label="Parser: oyaml&#xA;1.0; Execution Time (seconds, lower=better): 10.192057249; parser: oyaml; label: 10.1921s (x316.72); Execution Time (s): 10.1921; Slowdown: 316.72" role="graphics-symbol" aria-roledescription="text mark" text-anchor="middle" transform="translate(514.2857142857142,46.62752719546302)" font-family="sans-serif" font-size="9px" font-weight="bold" fill="#7570b3">10.1921s (x316.72)</text><text aria-label="Parser: PyYAML&#xA;6.0.3; Execution Time (seconds, lower=better): 10.1940930423; parser: PyYAML; label: 10.1941s (x316.78); Execution Time (s): 10.1941; Slowdown: 316.78" role="graphics-symbol" aria-roledescription="text mark" text-anchor="middle" transform="translate(628.5714285714286,46.517793822667215)" font-family="sans-serif" font-size="9px" font-weight="bold" fill="#1b9e77">10.1941s (x316.78)</text><text aria-label="Parser: ruamel.yaml&#xA;0.19.1; Execution Time (seconds, lower=better): 10.6012459707; parser: ruamel.yaml; label: 10.6012s (x329.43); Execution Time (s): 10.6012; Slowdown: 329.43" role="graphics-symbol" aria-roledescription="text mark" text-anchor="middle" transform="translate(742.8571428571429,24.571428571428605)" font-family="sans-serif" font-size="9px" font-weight="bold" fill="#e7298a">10.6012s (x329.43)</text></g><g class="mark-group role-title"><g transform="translate(400,-31)"><path class="background" aria-hidden="true" d="M0,0h0v0h0Z" pointer-events="none"/><g><g class="mark-text role-title-text" role="graphics-symbol" aria-roledescription="title" aria-label="Title text 'YAML parsers benchmark (dumps)'" pointer-events="none"><text text-anchor="middle" transform="translate(0,10)" font-family="sans-serif" font-size="13px" font-weight="bold" fill="#000" opacity="1">YAML parsers benchmark (dumps)</text></g><g class="mark-text role-title-subtitle" role="graphics-symbol" aria-roledescription="subtitle" aria-label="Subtitle text 'Python: 3.14.6 (Linux 6.17.0-1018-azure) | CPU: Intel(R) Xeon(R) Platinum 8370C CPU @ 2.80GHz'" pointer-events="none"><text text-anchor="middle" transform="translate(0,25)" font-family="sans-serif" font-size="12px" fill="#000" opacity="1">Python: 3.14.6 (Linux 6.17.0-1018-azure) | CPU: Intel(R) Xeon(R) Platinum 8370C CPU @ 2.80GHz</text></g></g><path class="foreground" aria-hidden="true" d="" pointer-events="none" display="none"/></g></g></g><path class="foreground" aria-hidden="true" d="" display="none"/></g></g></g><defs><clipPath id="clip9"><path d="M0.8672886570499259,0L101.98985420009294,0C102.46852384049201,0,102.85714285714286,0.3886190166508477,102.85714285714286,0.8672886570499259L102.85714285714286,1.7345773140998517C102.85714285714286,1.7345773140998517,102.85714285714286,1.7345773140998517,102.85714285714286,1.7345773140998517L0,1.7345773140998517C0,1.7345773140998517,0,1.7345773140998517,0,1.7345773140998517L0,0.8672886570499259C0,0.3886190166508477,0.3886190166508477,0,0.8672886570499259,0Z"/></clipPath><clipPath id="clip10"><path d="M1.7771779849761629,0L101.0799648721667,0C102.06081610327502,0,102.85714285714286,0.7963267538678463,102.85714285714286,1.7771779849761629L102.85714285714286,3.5543559699523257C102.85714285714286,3.5543559699523257,102.85714285714286,3.5543559699523257,102.85714285714286,3.5543559699523257L0,3.5543559699523257C0,3.5543559699523257,0,3.5543559699523257,0,3.5543559699523257L0,1.7771779849761629C0,0.7963267538678463,0.7963267538678463,0,1.7771779849761629,0Z"/></clipPath><clipPath id="clip11"><path d="M4.9896571774661425,0L97.86748567967672,0C100.6213524429946,0,102.85714285714286,2.2357904141482536,102.85714285714286,4.9896571774661425L102.85714285714286,9.979314354932285C102.85714285714286,9.979314354932285,102.85714285714286,9.979314354932285,102.85714285714286,9.979314354932285L0,9.979314354932285C0,9.979314354932285,0,9.979314354932285,0,9.979314354932285L0,4.9896571774661425C0,2.2357904141482536,2.2357904141482536,0,4.9896571774661425,0Z"/></clipPath><clipPath id="clip12"><path d="M5.274640561564354,0L97.58250229557851,0C100.49365567031134,0,102.85714285714286,2.3634871868315175,102.85714285714286,5.274640561564354L102.85714285714286,10.549281123128708C102.85714285714286,10.549281123128708,102.85714285714286,10.549281123128708,102.85714285714286,10.549281123128708L0,10.549281123128708C0,10.549281123128708,0,10.549281123128708,0,10.549281123128708L0,5.274640561564354C0,2.3634871868315175,2.3634871868315175,0,5.274640561564354,0Z"/></clipPath><clipPath id="clip13"><path d="M6,0L96.85714285714286,0C100.16863300410687,0,102.85714285714286,2.688509853036,102.85714285714286,6L102.85714285714286,549.372472804537C102.85714285714286,549.372472804537,102.85714285714286,549.372472804537,102.85714285714286,549.372472804537L0,549.372472804537C0,549.372472804537,0,549.372472804537,0,549.372472804537L0,6C0,2.688509853036,2.688509853036,0,6,0Z"/></clipPath><clipPath id="clip14"><path d="M6,0L96.85714285714286,0C100.16863300410687,0,102.85714285714286,2.688509853036,102.85714285714286,6L102.85714285714286,549.4822061773327C102.85714285714286,549.4822061773327,102.85714285714286,549.4822061773327,102.85714285714286,549.4822061773327L0,549.4822061773327C0,549.4822061773327,0,549.4822061773327,0,549.4822061773327L0,6C0,2.688509853036,2.688509853036,0,6,0Z"/></clipPath><clipPath id="clip15"><path d="M6,0L96.85714285714286,0C100.16863300410687,0,102.85714285714286,2.688509853036,102.85714285714286,6L102.85714285714286,571.4285714285714C102.85714285714286,571.4285714285714,102.85714285714286,571.4285714285714,102.85714285714286,571.4285714285714L0,571.4285714285714C0,571.4285714285714,0,571.4285714285714,0,571.4285714285714L0,6C0,2.688509853036,2.688509853036,0,6,0Z"/></clipPath></defs></svg>