<svg xmlns="http://www.w3.org/2000/svg" xmlns:xlink="http://www.w3.org/1999/xlink" version="1.1" class="marks" width="844" height="690" viewBox="0 0 844 690"><rect width="844" height="690" fill="white"/><g fill="none" stroke-miterlimit="10" transform="translate(39,39)"><g class="mark-group role-frame root" role="graphics-object" aria-roledescription="group mark container"><g transform="translate(0,0)"><path class="background" aria-hidden="true" d="M0.5,0.5h800v600h-800Z" stroke="#ddd"/><g><g class="mark-group role-axis" role="graphics-symbol" aria-roledescription="axis" aria-label="X-axis titled 'Parser' for a discrete scale with 8 values: yaml_rs (parse_dt=False)&#xA;0.1.4, yaml_rs&#xA;0.1.4, yamlrocks&#xA;0.5.0, ryaml&#xA;0.5.1, PyYAML (CLoader)&#xA;6.0.3, ending with ruamel.yaml&#xA;0.19.1"><g transform="translate(0.5,600.5)"><path class="background" aria-hidden="true" d="M0,0h0v0h0Z" pointer-events="none"/><g><g class="mark-rule role-axis-tick" pointer-events="none"><line transform="translate(50,0)" x2="0" y2="5" stroke="#888" stroke-width="1" opacity="1"/><line transform="translate(150,0)" x2="0" y2="5" stroke="#888" stroke-width="1" opacity="1"/><line transform="translate(250,0)" x2="0" y2="5" stroke="#888" stroke-width="1" opacity="1"/><line transform="translate(350,0)" x2="0" y2="5" stroke="#888" stroke-width="1" opacity="1"/><line transform="translate(450,0)" x2="0" y2="5" stroke="#888" stroke-width="1" opacity="1"/><line transform="translate(550,0)" x2="0" y2="5" stroke="#888" stroke-width="1" opacity="1"/><line transform="translate(650,0)" x2="0" y2="5" stroke="#888" stroke-width="1" opacity="1"/><line transform="translate(750,0)" x2="0" y2="5" stroke="#888" stroke-width="1" opacity="1"/></g><g class="mark-text role-axis-label" pointer-events="none"><text text-anchor="middle" transform="translate(49.5,15)" font-family="sans-serif" font-size="10px" fill="#000" opacity="1"><tspan>yaml_rs (parse_dt=False)</tspan><tspan x="0" dy="14">0.1.4</tspan></text><text text-anchor="middle" transform="translate(149.5,15)" font-family="sans-serif" font-size="10px" fill="#000" opacity="1"><tspan>yaml_rs</tspan><tspan x="0" dy="14">0.1.4</tspan></text><text text-anchor="middle" transform="translate(249.5,15)" font-family="sans-serif" font-size="10px" fill="#000" opacity="1"><tspan>yamlrocks</tspan><tspan x="0" dy="14">0.5.0</tspan></text><text text-anchor="middle" transform="translate(349.5,15)" font-family="sans-serif" font-size="10px" fill="#000" opacity="1"><tspan>ryaml</tspan><tspan x="0" dy="14">0.5.1</tspan></text><text text-anchor="middle" transform="translate(449.5,15)" font-family="sans-serif" font-size="10px" fill="#000" opacity="1"><tspan>PyYAML (CLoader)</tspan><tspan x="0" dy="14">6.0.3</tspan></text><text text-anchor="middle" transform="translate(549.5,15)" font-family="sans-serif" font-size="10px" fill="#000" opacity="1"><tspan>oyaml</tspan><tspan x="0" dy="14">1.0</tspan></text><text text-anchor="middle" transform="translate(649.5,15)" font-family="sans-serif" font-size="10px" fill="#000" opacity="1"><tspan>PyYAML</tspan><tspan x="0" dy="14">6.0.3</tspan></text><text text-anchor="middle" transform="translate(749.5,15)" font-family="sans-serif" font-size="10px" fill="#000" opacity="1"><tspan>ruamel.yaml</tspan><tspan x="0" dy="14">0.19.1</tspan></text></g><g class="mark-rule role-axis-domain" pointer-events="none"><line transform="translate(0,0)" x2="800" y2="0" stroke="#888" stroke-width="1" opacity="1"/></g><g class="mark-text role-axis-title" pointer-events="none"><text text-anchor="middle" transform="translate(400,44)" font-family="sans-serif" font-size="11px" font-weight="bold" fill="#000" opacity="1">Parser</text></g></g><path class="foreground" aria-hidden="true" d="" pointer-events="none" display="none"/></g></g><g class="mark-group role-axis" role="graphics-symbol" aria-roledescription="axis" aria-label="Y-axis titled 'Execution Time (seconds, lower=better)' for a linear scale with values from 0 to 40"><g transform="translate(0.5,0.5)"><path class="background" aria-hidden="true" d="M0,0h0v0h0Z" pointer-events="none"/><g><g class="mark-rule role-axis-tick" pointer-events="none"><line transform="translate(0,600)" x2="-5" y2="0" stroke="#888" stroke-width="1" opacity="1"/><line transform="translate(0,570)" x2="-5" y2="0" stroke="#888" stroke-width="1" opacity="1"/><line transform="translate(0,540)" x2="-5" y2="0" stroke="#888" stroke-width="1" opacity="1"/><line transform="translate(0,510)" x2="-5" y2="0" stroke="#888" stroke-width="1" opacity="1"/><line transform="translate(0,480)" x2="-5" y2="0" stroke="#888" stroke-width="1" opacity="1"/><line transform="translate(0,451)" x2="-5" y2="0" stroke="#888" stroke-width="1" opacity="1"/><line transform="translate(0,421)" x2="-5" y2="0" stroke="#888" stroke-width="1" opacity="1"/><line transform="translate(0,391)" x2="-5" y2="0" stroke="#888" stroke-width="1" opacity="1"/><line transform="translate(0,361)" x2="-5" y2="0" stroke="#888" stroke-width="1" opacity="1"/><line transform="translate(0,331)" x2="-5" y2="0" stroke="#888" stroke-width="1" opacity="1"/><line transform="translate(0,301)" x2="-5" y2="0" stroke="#888" stroke-width="1" opacity="1"/><line transform="translate(0,271)" x2="-5" y2="0" stroke="#888" stroke-width="1" opacity="1"/><line transform="translate(0,241)" x2="-5" y2="0" stroke="#888" stroke-width="1" opacity="1"/><line transform="translate(0,212)" x2="-5" y2="0" stroke="#888" stroke-width="1" opacity="1"/><line transform="translate(0,182)" x2="-5" y2="0" stroke="#888" stroke-width="1" opacity="1"/><line transform="translate(0,152)" x2="-5" y2="0" stroke="#888" stroke-width="1" opacity="1"/><line transform="translate(0,122)" x2="-5" y2="0" stroke="#888" stroke-width="1" opacity="1"/><line transform="translate(0,92)" x2="-5" y2="0" stroke="#888" stroke-width="1" opacity="1"/><line transform="translate(0,62)" x2="-5" y2="0" stroke="#888" stroke-width="1" opacity="1"/><line transform="translate(0,32)" x2="-5" y2="0" stroke="#888" stroke-width="1" opacity="1"/><line transform="translate(0,2)" x2="-5" y2="0" stroke="#888" stroke-width="1" opacity="1"/></g><g class="mark-text role-axis-label" pointer-events="none"><text text-anchor="end" transform="translate(-7,603)" font-family="sans-serif" font-size="10px" fill="#000" opacity="1">0</text><text text-anchor="end" transform="translate(-7,573.1186963644022)" font-family="sans-serif" font-size="10px" fill="#000" opacity="1">2</text><text text-anchor="end" transform="translate(-7,543.2373927288045)" font-family="sans-serif" font-size="10px" fill="#000" opacity="1">4</text><text text-anchor="end" transform="translate(-7,513.3560890932067)" font-family="sans-serif" font-size="10px" fill="#000" opacity="1">6</text><text text-anchor="end" transform="translate(-7,483.47478545760896)" font-family="sans-serif" font-size="10px" fill="#000" opacity="1">8</text><text text-anchor="end" transform="translate(-7,453.59348182201126)" font-family="sans-serif" font-size="10px" fill="#000" opacity="1">10</text><text text-anchor="end" transform="translate(-7,423.71217818641344)" font-family="sans-serif" font-size="10px" fill="#000" opacity="1">12</text><text text-anchor="end" transform="translate(-7,393.8308745508157)" font-family="sans-serif" font-size="10px" fill="#000" opacity="1">14</text><text text-anchor="end" transform="translate(-7,363.9495709152179)" font-family="sans-serif" font-size="10px" fill="#000" opacity="1">16</text><text text-anchor="end" transform="translate(-7,334.06826727962016)" font-family="sans-serif" font-size="10px" fill="#000" opacity="1">18</text><text text-anchor="end" transform="translate(-7,304.1869636440224)" font-family="sans-serif" font-size="10px" fill="#000" opacity="1">20</text><text text-anchor="end" transform="translate(-7,274.30566000842464)" font-family="sans-serif" font-size="10px" fill="#000" opacity="1">22</text><text text-anchor="end" transform="translate(-7,244.42435637282688)" font-family="sans-serif" font-size="10px" fill="#000" opacity="1">24</text><text text-anchor="end" transform="translate(-7,214.54305273722915)" font-family="sans-serif" font-size="10px" fill="#000" opacity="1">26</text><text text-anchor="end" transform="translate(-7,184.6617491016314)" font-family="sans-serif" font-size="10px" fill="#000" opacity="1">28</text><text text-anchor="end" transform="translate(-7,154.7804454660336)" font-family="sans-serif" font-size="10px" fill="#000" opacity="1">30</text><text text-anchor="end" transform="translate(-7,124.89914183043588)" font-family="sans-serif" font-size="10px" fill="#000" opacity="1">32</text><text text-anchor="end" transform="translate(-7,95.0178381948381)" font-family="sans-serif" font-size="10px" fill="#000" opacity="1">34</text><text text-anchor="end" transform="translate(-7,65.13653455924033)" font-family="sans-serif" font-size="10px" fill="#000" opacity="1">36</text><text text-anchor="end" transform="translate(-7,35.25523092364255)" font-family="sans-serif" font-size="10px" fill="#000" opacity="1">38</text><text text-anchor="end" transform="translate(-7,5.373927288044841)" font-family="sans-serif" font-size="10px" fill="#000" opacity="1">40</text></g><g class="mark-rule role-axis-domain" pointer-events="none"><line transform="translate(0,600)" x2="0" y2="-600" stroke="#888" stroke-width="1" opacity="1"/></g><g class="mark-text role-axis-title" pointer-events="none"><text text-anchor="middle" transform="translate(-22.123046875,300) rotate(-90) translate(0,-2)" font-family="sans-serif" font-size="11px" font-weight="bold" fill="#000" opacity="1">Execution Time (seconds, lower=better)</text></g></g><path class="foreground" aria-hidden="true" d="" pointer-events="none" display="none"/></g></g><g class="mark-group role-scope" role="graphics-object" aria-roledescription="group mark container"><g transform="translate(5,595.4126030970068)"><path class="background" aria-hidden="true" d="M2.2936984514965957,0L87.7063015485034,0C88.972228185543,0,90,1.0277718144570023,90,2.2936984514965957L90,4.587396902993191C90,4.587396902993191,90,4.587396902993191,90,4.587396902993191L0,4.587396902993191C0,4.587396902993191,0,4.587396902993191,0,4.587396902993191L0,2.2936984514965957C0,1.0277718144570023,1.0277718144570023,0,2.2936984514965957,0Z"/><g clip-path="url(#clip1)"><g class="mark-group role-scope" role="graphics-object" aria-roledescription="group mark container"><g transform="translate(0,-595.4126030970068)"><path class="background" aria-hidden="true" d="M0,0h90v0h-90Z"/><g><g class="mark-rect role-mark layer_0_marks" role="graphics-object" aria-roledescription="rect mark container"><path aria-label="Parser: yaml_rs (parse_dt=False)&#xA;0.1.4; Execution Time (seconds, lower=better): 0.307041283; parser: yaml_rs (parse_dt=False); Execution Time (s): 0.3070; Slowdown: 1.00" role="graphics-symbol" aria-roledescription="bar" d="M0,595.4126030970068h90v4.587396902993191h-90Z" fill="#a6761d"/></g></g><path class="foreground" aria-hidden="true" d="" display="none"/></g></g></g><path class="foreground" aria-hidden="true" d="" display="none"/></g><g transform="translate(105,595.3944418781248)"><path class="background" aria-hidden="true" d="M2.3027790609376098,0L87.69722093906239,0C88.96815930088404,0,90,1.0318406991159585,90,2.3027790609376098L90,4.6055581218752195C90,4.6055581218752195,90,4.6055581218752195,90,4.6055581218752195L0,4.6055581218752195C0,4.6055581218752195,0,4.6055581218752195,0,4.6055581218752195L0,2.3027790609376098C0,1.0318406991159585,1.0318406991159585,0,2.3027790609376098,0Z"/><g clip-path="url(#clip2)"><g class="mark-group role-scope" role="graphics-object" aria-roledescription="group mark container"><g transform="translate(0,-595.3944418781248)"><path class="background" aria-hidden="true" d="M0,0h90v0h-90Z"/><g><g class="mark-rect role-mark layer_0_marks" role="graphics-object" aria-roledescription="rect mark container"><path aria-label="Parser: yaml_rs&#xA;0.1.4; Execution Time (seconds, lower=better): 0.308256840333; parser: yaml_rs; Execution Time (s): 0.3083; Slowdown: 1.00" role="graphics-symbol" aria-roledescription="bar" d="M0,595.3944418781248h90v4.6055581218752195h-90Z" fill="#e6ab02"/></g></g><path class="foreground" aria-hidden="true" d="" display="none"/></g></g></g><path class="foreground" aria-hidden="true" d="" display="none"/></g><g transform="translate(205,594.8835196350923)"><path class="background" aria-hidden="true" d="M2.558240182453858,0L87.44175981754614,0C88.8536910105067,0,90,1.1463089894933018,90,2.558240182453858L90,5.116480364907716C90,5.116480364907716,90,5.116480364907716,90,5.116480364907716L0,5.116480364907716C0,5.116480364907716,0,5.116480364907716,0,5.116480364907716L0,2.558240182453858C0,1.1463089894933018,1.1463089894933018,0,2.558240182453858,0Z"/><g clip-path="url(#clip3)"><g class="mark-group role-scope" role="graphics-object" aria-roledescription="group mark container"><g transform="translate(0,-594.8835196350923)"><path class="background" aria-hidden="true" d="M0,0h90v0h-90Z"/><g><g class="mark-rect role-mark layer_0_marks" role="graphics-object" aria-roledescription="rect mark container"><path aria-label="Parser: yamlrocks&#xA;0.5.0; Execution Time (seconds, lower=better): 0.342453624333; parser: yamlrocks; Execution Time (s): 0.3425; Slowdown: 1.12" role="graphics-symbol" aria-roledescription="bar" d="M0,594.8835196350923h90v5.116480364907716h-90Z" fill="#666666"/></g></g><path class="foreground" aria-hidden="true" d="" display="none"/></g></g></g><path class="foreground" aria-hidden="true" d="" display="none"/></g><g transform="translate(305,589.7610080527601)"><path class="background" aria-hidden="true" d="M5.119495973619962,0L84.88050402638004,0C87.70603077205743,0,90,2.2939692279425663,90,5.119495973619962L90,10.238991947239924C90,10.238991947239924,90,10.238991947239924,90,10.238991947239924L0,10.238991947239924C0,10.238991947239924,0,10.238991947239924,0,10.238991947239924L0,5.119495973619962C0,2.2939692279425663,2.2939692279425663,0,5.119495973619962,0Z"/><g clip-path="url(#clip4)"><g class="mark-group role-scope" role="graphics-object" aria-roledescription="group mark container"><g transform="translate(0,-589.7610080527601)"><path class="background" aria-hidden="true" d="M0,0h90v0h-90Z"/><g><g class="mark-rect role-mark layer_0_marks" role="graphics-object" aria-roledescription="rect mark container"><path aria-label="Parser: ryaml&#xA;0.5.1; Execution Time (seconds, lower=better): 0.685310927; parser: ryaml; Execution Time (s): 0.6853; Slowdown: 2.23" role="graphics-symbol" aria-roledescription="bar" d="M0,589.7610080527601h90v10.238991947239924h-90Z" fill="#66a61e"/></g></g><path class="foreground" aria-hidden="true" d="" display="none"/></g></g></g><path class="foreground" aria-hidden="true" d="" display="none"/></g><g transform="translate(405,565.1244623051504)"><path class="background" aria-hidden="true" d="M6,0L84,0C87.311490146964,0,90,2.688509853036,90,6L90,34.87553769484964C90,34.87553769484964,90,34.87553769484964,90,34.87553769484964L0,34.87553769484964C0,34.87553769484964,0,34.87553769484964,0,34.87553769484964L0,6C0,2.688509853036,2.688509853036,0,6,0Z"/><g clip-path="url(#clip5)"><g class="mark-group role-scope" role="graphics-object" aria-roledescription="group mark container"><g transform="translate(0,-565.1244623051504)"><path class="background" aria-hidden="true" d="M0,0h90v0h-90Z"/><g><g class="mark-rect role-mark layer_0_marks" role="graphics-object" aria-roledescription="rect mark container"><path aria-label="Parser: PyYAML (CLoader)&#xA;6.0.3; Execution Time (seconds, lower=better): 2.33427149767; parser: PyYAML (CLoader); Execution Time (s): 2.3343; Slowdown: 7.60" role="graphics-symbol" aria-roledescription="bar" d="M0,565.1244623051504h90v34.87553769484964h-90Z" fill="#d95f02"/></g></g><path class="foreground" aria-hidden="true" d="" display="none"/></g></g></g><path class="foreground" aria-hidden="true" d="" display="none"/></g><g transform="translate(505,192.08635800968722)"><path class="background" aria-hidden="true" d="M6,0L84,0C87.311490146964,0,90,2.688509853036,90,6L90,407.9136419903128C90,407.9136419903128,90,407.9136419903128,90,407.9136419903128L0,407.9136419903128C0,407.9136419903128,0,407.9136419903128,0,407.9136419903128L0,6C0,2.688509853036,2.688509853036,0,6,0Z"/><g clip-path="url(#clip6)"><g class="mark-group role-scope" role="graphics-object" aria-roledescription="group mark container"><g transform="translate(0,-192.08635800968722)"><path class="background" aria-hidden="true" d="M0,0h90v0h-90Z"/><g><g class="mark-rect role-mark layer_0_marks" role="graphics-object" aria-roledescription="rect mark container"><path aria-label="Parser: oyaml&#xA;1.0; Execution Time (seconds, lower=better): 27.3022654543; parser: oyaml; Execution Time (s): 27.3023; Slowdown: 88.92" role="graphics-symbol" aria-roledescription="bar" d="M0,192.08635800968722h90v407.9136419903128h-90Z" fill="#7570b3"/></g></g><path class="foreground" aria-hidden="true" d="" display="none"/></g></g></g><path class="foreground" aria-hidden="true" d="" display="none"/></g><g transform="translate(605,191.9849864839382)"><path class="background" aria-hidden="true" d="M6,0L84,0C87.311490146964,0,90,2.688509853036,90,6L90,408.0150135160618C90,408.0150135160618,90,408.0150135160618,90,408.0150135160618L0,408.0150135160618C0,408.0150135160618,0,408.0150135160618,0,408.0150135160618L0,6C0,2.688509853036,2.688509853036,0,6,0Z"/><g clip-path="url(#clip7)"><g class="mark-group role-scope" role="graphics-object" aria-roledescription="group mark container"><g transform="translate(0,-191.9849864839382)"><path class="background" aria-hidden="true" d="M0,0h90v0h-90Z"/><g><g class="mark-rect role-mark layer_0_marks" role="graphics-object" aria-roledescription="rect mark container"><path aria-label="Parser: PyYAML&#xA;6.0.3; Execution Time (seconds, lower=better): 27.309050401; parser: PyYAML; Execution Time (s): 27.3091; Slowdown: 88.94" role="graphics-symbol" aria-roledescription="bar" d="M0,191.9849864839382h90v408.0150135160618h-90Z" fill="#1b9e77"/></g></g><path class="foreground" aria-hidden="true" d="" display="none"/></g></g></g><path class="foreground" aria-hidden="true" d="" display="none"/></g><g transform="translate(705,28.571428571428605)"><path class="background" aria-hidden="true" d="M6,0L84,0C87.311490146964,0,90,2.688509853036,90,6L90,571.4285714285714C90,571.4285714285714,90,571.4285714285714,90,571.4285714285714L0,571.4285714285714C0,571.4285714285714,0,571.4285714285714,0,571.4285714285714L0,6C0,2.688509853036,2.688509853036,0,6,0Z"/><g clip-path="url(#clip8)"><g class="mark-group role-scope" role="graphics-object" aria-roledescription="group mark container"><g transform="translate(0,-28.571428571428605)"><path class="background" aria-hidden="true" d="M0,0h90v0h-90Z"/><g><g class="mark-rect role-mark layer_0_marks" role="graphics-object" aria-roledescription="rect mark container"><path aria-label="Parser: ruamel.yaml&#xA;0.19.1; Execution Time (seconds, lower=better): 38.2465623587; parser: ruamel.yaml; Execution Time (s): 38.2466; Slowdown: 124.56" role="graphics-symbol" aria-roledescription="bar" d="M0,28.571428571428605h90v571.4285714285714h-90Z" fill="#e7298a"/></g></g><path class="foreground" aria-hidden="true" d="" display="none"/></g></g></g><path class="foreground" aria-hidden="true" d="" display="none"/></g></g><g class="mark-text role-mark layer_1_marks" role="graphics-object" aria-roledescription="text mark container"><text aria-label="Parser: yaml_rs (parse_dt=False)&#xA;0.1.4; Execution Time (seconds, lower=better): 0.307041283; parser: yaml_rs (parse_dt=False); label: 0.3070s (x1.00); Execution Time (s): 0.3070; Slowdown: 1.00" role="graphics-symbol" aria-roledescription="text mark" text-anchor="middle" transform="translate(50,591.4126030970068)" font-family="sans-serif" font-size="9px" font-weight="bold" fill="#a6761d">0.3070s (x1.00)</text><text aria-label="Parser: yaml_rs&#xA;0.1.4; Execution Time (seconds, lower=better): 0.308256840333; parser: yaml_rs; label: 0.3083s (x1.00); Execution Time (s): 0.3083; Slowdown: 1.00" role="graphics-symbol" aria-roledescription="text mark" text-anchor="middle" transform="translate(150,591.3944418781248)" font-family="sans-serif" font-size="9px" font-weight="bold" fill="#e6ab02">0.3083s (x1.00)</text><text aria-label="Parser: yamlrocks&#xA;0.5.0; Execution Time (seconds, lower=better): 0.342453624333; parser: yamlrocks; label: 0.3425s (x1.12); Execution Time (s): 0.3425; Slowdown: 1.12" role="graphics-symbol" aria-roledescription="text mark" text-anchor="middle" transform="translate(250,590.8835196350923)" font-family="sans-serif" font-size="9px" font-weight="bold" fill="#666666">0.3425s (x1.12)</text><text aria-label="Parser: ryaml&#xA;0.5.1; Execution Time (seconds, lower=better): 0.685310927; parser: ryaml; label: 0.6853s (x2.23); Execution Time (s): 0.6853; Slowdown: 2.23" role="graphics-symbol" aria-roledescription="text mark" text-anchor="middle" transform="translate(350,585.7610080527601)" font-family="sans-serif" font-size="9px" font-weight="bold" fill="#66a61e">0.6853s (x2.23)</text><text aria-label="Parser: PyYAML (CLoader)&#xA;6.0.3; Execution Time (seconds, lower=better): 2.33427149767; parser: PyYAML (CLoader); label: 2.3343s (x7.60); Execution Time (s): 2.3343; Slowdown: 7.60" role="graphics-symbol" aria-roledescription="text mark" text-anchor="middle" transform="translate(450,561.1244623051504)" font-family="sans-serif" font-size="9px" font-weight="bold" fill="#d95f02">2.3343s (x7.60)</text><text aria-label="Parser: oyaml&#xA;1.0; Execution Time (seconds, lower=better): 27.3022654543; parser: oyaml; label: 27.3023s (x88.92); Execution Time (s): 27.3023; Slowdown: 88.92" role="graphics-symbol" aria-roledescription="text mark" text-anchor="middle" transform="translate(550,188.08635800968722)" font-family="sans-serif" font-size="9px" font-weight="bold" fill="#7570b3">27.3023s (x88.92)</text><text aria-label="Parser: PyYAML&#xA;6.0.3; Execution Time (seconds, lower=better): 27.309050401; parser: PyYAML; label: 27.3091s (x88.94); Execution Time (s): 27.3091; Slowdown: 88.94" role="graphics-symbol" aria-roledescription="text mark" text-anchor="middle" transform="translate(650,187.9849864839382)" font-family="sans-serif" font-size="9px" font-weight="bold" fill="#1b9e77">27.3091s (x88.94)</text><text aria-label="Parser: ruamel.yaml&#xA;0.19.1; Execution Time (seconds, lower=better): 38.2465623587; parser: ruamel.yaml; label: 38.2466s (x124.56); Execution Time (s): 38.2466; Slowdown: 124.56" role="graphics-symbol" aria-roledescription="text mark" text-anchor="middle" transform="translate(750,24.571428571428605)" font-family="sans-serif" font-size="9px" font-weight="bold" fill="#e7298a">38.2466s (x124.56)</text></g><g class="mark-group role-title"><g transform="translate(400,-33.62607271195516)"><path class="background" aria-hidden="true" d="M0,0h0v0h0Z" pointer-events="none"/><g><g class="mark-text role-title-text" role="graphics-symbol" aria-roledescription="title" aria-label="Title text 'YAML parsers benchmark (loads)'" pointer-events="none"><text text-anchor="middle" transform="translate(0,10)" font-family="sans-serif" font-size="13px" font-weight="bold" fill="#000" opacity="1">YAML parsers benchmark (loads)</text></g><g class="mark-text role-title-subtitle" role="graphics-symbol" aria-roledescription="subtitle" aria-label="Subtitle text 'Python: 3.14.6 (Linux 6.17.0-1018-azure) | CPU: AMD EPYC 7763 64-Core Processor'" pointer-events="none"><text text-anchor="middle" transform="translate(0,25)" font-family="sans-serif" font-size="12px" fill="#000" opacity="1">Python: 3.14.6 (Linux 6.17.0-1018-azure) | CPU: AMD EPYC 7763 64-Core Processor</text></g></g><path class="foreground" aria-hidden="true" d="" pointer-events="none" display="none"/></g></g></g><path class="foreground" aria-hidden="true" d="" display="none"/></g></g></g><defs><clipPath id="clip1"><path d="M2.2936984514965957,0L87.7063015485034,0C88.972228185543,0,90,1.0277718144570023,90,2.2936984514965957L90,4.587396902993191C90,4.587396902993191,90,4.587396902993191,90,4.587396902993191L0,4.587396902993191C0,4.587396902993191,0,4.587396902993191,0,4.587396902993191L0,2.2936984514965957C0,1.0277718144570023,1.0277718144570023,0,2.2936984514965957,0Z"/></clipPath><clipPath id="clip2"><path d="M2.3027790609376098,0L87.69722093906239,0C88.96815930088404,0,90,1.0318406991159585,90,2.3027790609376098L90,4.6055581218752195C90,4.6055581218752195,90,4.6055581218752195,90,4.6055581218752195L0,4.6055581218752195C0,4.6055581218752195,0,4.6055581218752195,0,4.6055581218752195L0,2.3027790609376098C0,1.0318406991159585,1.0318406991159585,0,2.3027790609376098,0Z"/></clipPath><clipPath id="clip3"><path d="M2.558240182453858,0L87.44175981754614,0C88.8536910105067,0,90,1.1463089894933018,90,2.558240182453858L90,5.116480364907716C90,5.116480364907716,90,5.116480364907716,90,5.116480364907716L0,5.116480364907716C0,5.116480364907716,0,5.116480364907716,0,5.116480364907716L0,2.558240182453858C0,1.1463089894933018,1.1463089894933018,0,2.558240182453858,0Z"/></clipPath><clipPath id="clip4"><path d="M5.119495973619962,0L84.88050402638004,0C87.70603077205743,0,90,2.2939692279425663,90,5.119495973619962L90,10.238991947239924C90,10.238991947239924,90,10.238991947239924,90,10.238991947239924L0,10.238991947239924C0,10.238991947239924,0,10.238991947239924,0,10.238991947239924L0,5.119495973619962C0,2.2939692279425663,2.2939692279425663,0,5.119495973619962,0Z"/></clipPath><clipPath id="clip5"><path d="M6,0L84,0C87.311490146964,0,90,2.688509853036,90,6L90,34.87553769484964C90,34.87553769484964,90,34.87553769484964,90,34.87553769484964L0,34.87553769484964C0,34.87553769484964,0,34.87553769484964,0,34.87553769484964L0,6C0,2.688509853036,2.688509853036,0,6,0Z"/></clipPath><clipPath id="clip6"><path d="M6,0L84,0C87.311490146964,0,90,2.688509853036,90,6L90,407.9136419903128C90,407.9136419903128,90,407.9136419903128,90,407.9136419903128L0,407.9136419903128C0,407.9136419903128,0,407.9136419903128,0,407.9136419903128L0,6C0,2.688509853036,2.688509853036,0,6,0Z"/></clipPath><clipPath id="clip7"><path d="M6,0L84,0C87.311490146964,0,90,2.688509853036,90,6L90,408.0150135160618C90,408.0150135160618,90,408.0150135160618,90,408.0150135160618L0,408.0150135160618C0,408.0150135160618,0,408.0150135160618,0,408.0150135160618L0,6C0,2.688509853036,2.688509853036,0,6,0Z"/></clipPath><clipPath id="clip8"><path d="M6,0L84,0C87.311490146964,0,90,2.688509853036,90,6L90,571.4285714285714C90,571.4285714285714,90,571.4285714285714,90,571.4285714285714L0,571.4285714285714C0,571.4285714285714,0,571.4285714285714,0,571.4285714285714L0,6C0,2.688509853036,2.688509853036,0,6,0Z"/></clipPath></defs></svg>