<svg xmlns="http://www.w3.org/2000/svg" xmlns:xlink="http://www.w3.org/1999/xlink" version="1.1" class="marks" width="846" height="689" viewBox="0 0 846 689"><rect width="846" height="689" fill="white"/><g fill="none" stroke-miterlimit="10" transform="translate(41,38)"><g class="mark-group role-frame root" role="graphics-object" aria-roledescription="group mark container"><g transform="translate(0,0)"><path class="background" aria-hidden="true" d="M0.5,0.5h800v600h-800Z" stroke="#ddd"/><g><g class="mark-group role-axis" role="graphics-symbol" aria-roledescription="axis" aria-label="X-axis titled 'Parser' for a discrete scale with 7 values: yamlrocks&#xA;0.6.1, yaml_rs&#xA;0.1.6, PyYAML (CDumper)&#xA;6.0.3, ryaml&#xA;0.5.1, PyYAML&#xA;6.0.3, oyaml&#xA;1.0, ruamel.yaml&#xA;0.19.1"><g transform="translate(0.5,600.5)"><path class="background" aria-hidden="true" d="M0,0h0v0h0Z" pointer-events="none"/><g><g class="mark-rule role-axis-tick" pointer-events="none"><line transform="translate(57,0)" x2="0" y2="5" stroke="#888" stroke-width="1" opacity="1"/><line transform="translate(171,0)" x2="0" y2="5" stroke="#888" stroke-width="1" opacity="1"/><line transform="translate(285,0)" x2="0" y2="5" stroke="#888" stroke-width="1" opacity="1"/><line transform="translate(400,0)" x2="0" y2="5" stroke="#888" stroke-width="1" opacity="1"/><line transform="translate(514,0)" x2="0" y2="5" stroke="#888" stroke-width="1" opacity="1"/><line transform="translate(628,0)" x2="0" y2="5" stroke="#888" stroke-width="1" opacity="1"/><line transform="translate(742,0)" x2="0" y2="5" stroke="#888" stroke-width="1" opacity="1"/></g><g class="mark-text role-axis-label" pointer-events="none"><text text-anchor="middle" transform="translate(56.642857142857096,15)" font-family="sans-serif" font-size="10px" fill="#000" opacity="1"><tspan>yamlrocks</tspan><tspan x="0" dy="14">0.6.1</tspan></text><text text-anchor="middle" transform="translate(170.9285714285714,15)" font-family="sans-serif" font-size="10px" fill="#000" opacity="1"><tspan>yaml_rs</tspan><tspan x="0" dy="14">0.1.6</tspan></text><text text-anchor="middle" transform="translate(285.21428571428567,15)" font-family="sans-serif" font-size="10px" fill="#000" opacity="1"><tspan>PyYAML (CDumper)</tspan><tspan x="0" dy="14">6.0.3</tspan></text><text text-anchor="middle" transform="translate(399.5,15)" font-family="sans-serif" font-size="10px" fill="#000" opacity="1"><tspan>ryaml</tspan><tspan x="0" dy="14">0.5.1</tspan></text><text text-anchor="middle" transform="translate(513.7857142857142,15)" font-family="sans-serif" font-size="10px" fill="#000" opacity="1"><tspan>PyYAML</tspan><tspan x="0" dy="14">6.0.3</tspan></text><text text-anchor="middle" transform="translate(628.0714285714286,15)" font-family="sans-serif" font-size="10px" fill="#000" opacity="1"><tspan>oyaml</tspan><tspan x="0" dy="14">1.0</tspan></text><text text-anchor="middle" transform="translate(742.3571428571429,15)" font-family="sans-serif" font-size="10px" fill="#000" opacity="1"><tspan>ruamel.yaml</tspan><tspan x="0" dy="14">0.19.1</tspan></text></g><g class="mark-rule role-axis-domain" pointer-events="none"><line transform="translate(0,0)" x2="800" y2="0" stroke="#888" stroke-width="1" opacity="1"/></g><g class="mark-text role-axis-title" pointer-events="none"><text text-anchor="middle" transform="translate(400,44)" font-family="sans-serif" font-size="11px" font-weight="bold" fill="#000" opacity="1">Parser</text></g></g><path class="foreground" aria-hidden="true" d="" pointer-events="none" display="none"/></g></g><g class="mark-group role-axis" role="graphics-symbol" aria-roledescription="axis" aria-label="Y-axis titled 'Execution Time (seconds, lower=better)' for a linear scale with values from 0 to 9"><g transform="translate(0.5,0.5)"><path class="background" aria-hidden="true" d="M0,0h0v0h0Z" pointer-events="none"/><g><g class="mark-rule role-axis-tick" pointer-events="none"><line transform="translate(0,600)" x2="-5" y2="0" stroke="#888" stroke-width="1" opacity="1"/><line transform="translate(0,567)" x2="-5" y2="0" stroke="#888" stroke-width="1" opacity="1"/><line transform="translate(0,534)" x2="-5" y2="0" stroke="#888" stroke-width="1" opacity="1"/><line transform="translate(0,501)" x2="-5" y2="0" stroke="#888" stroke-width="1" opacity="1"/><line transform="translate(0,468)" x2="-5" y2="0" stroke="#888" stroke-width="1" opacity="1"/><line transform="translate(0,434)" x2="-5" y2="0" stroke="#888" stroke-width="1" opacity="1"/><line transform="translate(0,401)" x2="-5" y2="0" stroke="#888" stroke-width="1" opacity="1"/><line transform="translate(0,368)" x2="-5" y2="0" stroke="#888" stroke-width="1" opacity="1"/><line transform="translate(0,335)" x2="-5" y2="0" stroke="#888" stroke-width="1" opacity="1"/><line transform="translate(0,302)" x2="-5" y2="0" stroke="#888" stroke-width="1" opacity="1"/><line transform="translate(0,269)" x2="-5" y2="0" stroke="#888" stroke-width="1" opacity="1"/><line transform="translate(0,236)" x2="-5" y2="0" stroke="#888" stroke-width="1" opacity="1"/><line transform="translate(0,203)" x2="-5" y2="0" stroke="#888" stroke-width="1" opacity="1"/><line transform="translate(0,170)" x2="-5" y2="0" stroke="#888" stroke-width="1" opacity="1"/><line transform="translate(0,136)" x2="-5" y2="0" stroke="#888" stroke-width="1" opacity="1"/><line transform="translate(0,103)" x2="-5" y2="0" stroke="#888" stroke-width="1" opacity="1"/><line transform="translate(0,70)" x2="-5" y2="0" stroke="#888" stroke-width="1" opacity="1"/><line transform="translate(0,37)" x2="-5" y2="0" stroke="#888" stroke-width="1" opacity="1"/><line transform="translate(0,4)" x2="-5" y2="0" stroke="#888" stroke-width="1" opacity="1"/></g><g class="mark-text role-axis-label" pointer-events="none"><text text-anchor="end" transform="translate(-7,603)" font-family="sans-serif" font-size="10px" fill="#000" opacity="1">0.0</text><text text-anchor="end" transform="translate(-7,569.8871980958556)" font-family="sans-serif" font-size="10px" fill="#000" opacity="1">0.5</text><text text-anchor="end" transform="translate(-7,536.7743961917112)" font-family="sans-serif" font-size="10px" fill="#000" opacity="1">1.0</text><text text-anchor="end" transform="translate(-7,503.6615942875668)" font-family="sans-serif" font-size="10px" fill="#000" opacity="1">1.5</text><text text-anchor="end" transform="translate(-7,470.5487923834223)" font-family="sans-serif" font-size="10px" fill="#000" opacity="1">2.0</text><text text-anchor="end" transform="translate(-7,437.43599047927796)" font-family="sans-serif" font-size="10px" fill="#000" opacity="1">2.5</text><text text-anchor="end" transform="translate(-7,404.32318857513354)" font-family="sans-serif" font-size="10px" fill="#000" opacity="1">3.0</text><text text-anchor="end" transform="translate(-7,371.2103866709891)" font-family="sans-serif" font-size="10px" fill="#000" opacity="1">3.5</text><text text-anchor="end" transform="translate(-7,338.0975847668447)" font-family="sans-serif" font-size="10px" fill="#000" opacity="1">4.0</text><text text-anchor="end" transform="translate(-7,304.98478286270034)" font-family="sans-serif" font-size="10px" fill="#000" opacity="1">4.5</text><text text-anchor="end" transform="translate(-7,271.87198095855587)" font-family="sans-serif" font-size="10px" fill="#000" opacity="1">5.0</text><text text-anchor="end" transform="translate(-7,238.7591790544115)" font-family="sans-serif" font-size="10px" fill="#000" opacity="1">5.5</text><text text-anchor="end" transform="translate(-7,205.64637715026706)" font-family="sans-serif" font-size="10px" fill="#000" opacity="1">6.0</text><text text-anchor="end" transform="translate(-7,172.53357524612267)" font-family="sans-serif" font-size="10px" fill="#000" opacity="1">6.5</text><text text-anchor="end" transform="translate(-7,139.42077334197828)" font-family="sans-serif" font-size="10px" fill="#000" opacity="1">7.0</text><text text-anchor="end" transform="translate(-7,106.30797143783383)" font-family="sans-serif" font-size="10px" fill="#000" opacity="1">7.5</text><text text-anchor="end" transform="translate(-7,73.19516953368945)" font-family="sans-serif" font-size="10px" fill="#000" opacity="1">8.0</text><text text-anchor="end" transform="translate(-7,40.08236762954507)" font-family="sans-serif" font-size="10px" fill="#000" opacity="1">8.5</text><text text-anchor="end" transform="translate(-7,6.9695657254006145)" font-family="sans-serif" font-size="10px" fill="#000" opacity="1">9.0</text></g><g class="mark-rule role-axis-domain" pointer-events="none"><line transform="translate(0,600)" x2="0" y2="-600" stroke="#888" stroke-width="1" opacity="1"/></g><g class="mark-text role-axis-title" pointer-events="none"><text text-anchor="middle" transform="translate(-24.9013671875,300) rotate(-90) translate(0,-2)" font-family="sans-serif" font-size="11px" font-weight="bold" fill="#000" opacity="1">Execution Time (seconds, lower=better)</text></g></g><path class="foreground" aria-hidden="true" d="" pointer-events="none" display="none"/></g></g><g class="mark-group role-scope" role="graphics-object" aria-roledescription="group mark container"><g transform="translate(5.714285714285666,597.459620981635)"><path class="background" aria-hidden="true" d="M1.2701895091825008,0L101.58695334796036,0C102.28799002203284,0,102.85714285714286,0.569152835110019,102.85714285714286,1.2701895091825008L102.85714285714286,2.5403790183650017C102.85714285714286,2.5403790183650017,102.85714285714286,2.5403790183650017,102.85714285714286,2.5403790183650017L0,2.5403790183650017C0,2.5403790183650017,0,2.5403790183650017,0,2.5403790183650017L0,1.2701895091825008C0,0.569152835110019,0.569152835110019,0,1.2701895091825008,0Z"/><g clip-path="url(#clip9)"><g class="mark-group role-scope" role="graphics-object" aria-roledescription="group mark container"><g transform="translate(0,-597.459620981635)"><path class="background" aria-hidden="true" d="M0,0h102.85714285714286v0h-102.85714285714286Z"/><g><g class="mark-rect role-mark layer_0_marks" role="graphics-object" aria-roledescription="rect mark container"><path aria-label="Parser: yamlrocks&#xA;0.6.1; Execution Time (seconds, lower=better): 0.0383594693333; parser: yamlrocks; Execution Time (s): 0.0384; Slowdown: 1.00" role="graphics-symbol" aria-roledescription="bar" d="M0,597.459620981635h102.85714285714286v2.5403790183650017h-102.85714285714286Z" fill="#a6761d"/></g></g><path class="foreground" aria-hidden="true" d="" display="none"/></g></g></g><path class="foreground" aria-hidden="true" d="" display="none"/></g><g transform="translate(119.99999999999996,596.1476326748783)"><path class="background" aria-hidden="true" d="M1.9261836625608453,0L100.93095919458202,0C101.99404889788423,0,102.85714285714286,0.8630939592586337,102.85714285714286,1.9261836625608453L102.85714285714286,3.8523673251216906C102.85714285714286,3.8523673251216906,102.85714285714286,3.8523673251216906,102.85714285714286,3.8523673251216906L0,3.8523673251216906C0,3.8523673251216906,0,3.8523673251216906,0,3.8523673251216906L0,1.9261836625608453C0,0.8630939592586337,0.8630939592586337,0,1.9261836625608453,0Z"/><g clip-path="url(#clip10)"><g class="mark-group role-scope" role="graphics-object" aria-roledescription="group mark container"><g transform="translate(0,-596.1476326748783)"><path class="background" aria-hidden="true" d="M0,0h102.85714285714286v0h-102.85714285714286Z"/><g><g class="mark-rect role-mark layer_0_marks" role="graphics-object" aria-roledescription="rect mark container"><path aria-label="Parser: yaml_rs&#xA;0.1.6; Execution Time (seconds, lower=better): 0.0581703616667; parser: yaml_rs; Execution Time (s): 0.0582; Slowdown: 1.52" role="graphics-symbol" aria-roledescription="bar" d="M0,596.1476326748783h102.85714285714286v3.8523673251216906h-102.85714285714286Z" fill="#e6ab02"/></g></g><path class="foreground" aria-hidden="true" d="" display="none"/></g></g></g><path class="foreground" aria-hidden="true" d="" display="none"/></g><g transform="translate(234.28571428571425,589.1432523280771)"><path class="background" aria-hidden="true" d="M5.428373835961452,0L97.42876902118141,0C100.42477009981866,0,102.85714285714286,2.4323727573241984,102.85714285714286,5.428373835961452L102.85714285714286,10.856747671922903C102.85714285714286,10.856747671922903,102.85714285714286,10.856747671922903,102.85714285714286,10.856747671922903L0,10.856747671922903C0,10.856747671922903,0,10.856747671922903,0,10.856747671922903L0,5.428373835961452C0,2.4323727573241984,2.4323727573241984,0,5.428373835961452,0Z"/><g clip-path="url(#clip11)"><g class="mark-group role-scope" role="graphics-object" aria-roledescription="group mark container"><g transform="translate(0,-589.1432523280771)"><path class="background" aria-hidden="true" d="M0,0h102.85714285714286v0h-102.85714285714286Z"/><g><g class="mark-rect role-mark layer_0_marks" role="graphics-object" aria-roledescription="rect mark container"><path aria-label="Parser: PyYAML (CDumper)&#xA;6.0.3; Execution Time (seconds, lower=better): 0.163935805; parser: PyYAML (CDumper); Execution Time (s): 0.1639; Slowdown: 4.27" role="graphics-symbol" aria-roledescription="bar" d="M0,589.1432523280771h102.85714285714286v10.856747671922903h-102.85714285714286Z" fill="#d95f02"/></g></g><path class="foreground" aria-hidden="true" d="" display="none"/></g></g></g><path class="foreground" aria-hidden="true" d="" display="none"/></g><g transform="translate(348.57142857142856,588.5164602553598)"><path class="background" aria-hidden="true" d="M5.741769872320106,0L97.11537298482276,0C100.28434204454322,0,102.85714285714286,2.5728008125996435,102.85714285714286,5.741769872320106L102.85714285714286,11.483539744640211C102.85714285714286,11.483539744640211,102.85714285714286,11.483539744640211,102.85714285714286,11.483539744640211L0,11.483539744640211C0,11.483539744640211,0,11.483539744640211,0,11.483539744640211L0,5.741769872320106C0,2.5728008125996435,2.5728008125996435,0,5.741769872320106,0Z"/><g clip-path="url(#clip12)"><g class="mark-group role-scope" role="graphics-object" aria-roledescription="group mark container"><g transform="translate(0,-588.5164602553598)"><path class="background" aria-hidden="true" d="M0,0h102.85714285714286v0h-102.85714285714286Z"/><g><g class="mark-rect role-mark layer_0_marks" role="graphics-object" aria-roledescription="rect mark container"><path aria-label="Parser: ryaml&#xA;0.5.1; Execution Time (seconds, lower=better): 0.173400302667; parser: ryaml; Execution Time (s): 0.1734; Slowdown: 4.52" role="graphics-symbol" aria-roledescription="bar" d="M0,588.5164602553598h102.85714285714286v11.483539744640211h-102.85714285714286Z" fill="#66a61e"/></g></g><path class="foreground" aria-hidden="true" d="" display="none"/></g></g></g><path class="foreground" aria-hidden="true" d="" display="none"/></g><g transform="translate(462.85714285714283,51.362180337575026)"><path class="background" aria-hidden="true" d="M6,0L96.85714285714286,0C100.16863300410687,0,102.85714285714286,2.688509853036,102.85714285714286,6L102.85714285714286,548.6378196624249C102.85714285714286,548.6378196624249,102.85714285714286,548.6378196624249,102.85714285714286,548.6378196624249L0,548.6378196624249C0,548.6378196624249,0,548.6378196624249,0,548.6378196624249L0,6C0,2.688509853036,2.688509853036,0,6,0Z"/><g clip-path="url(#clip13)"><g class="mark-group role-scope" role="graphics-object" aria-roledescription="group mark container"><g transform="translate(0,-51.362180337575026)"><path class="background" aria-hidden="true" d="M0,0h102.85714285714286v0h-102.85714285714286Z"/><g><g class="mark-rect role-mark layer_0_marks" role="graphics-object" aria-roledescription="rect mark container"><path aria-label="Parser: PyYAML&#xA;6.0.3; Execution Time (seconds, lower=better): 8.284376255; parser: PyYAML; Execution Time (s): 8.2844; Slowdown: 215.97" role="graphics-symbol" aria-roledescription="bar" d="M0,51.362180337575026h102.85714285714286v548.6378196624249h-102.85714285714286Z" fill="#1b9e77"/></g></g><path class="foreground" aria-hidden="true" d="" display="none"/></g></g></g><path class="foreground" aria-hidden="true" d="" display="none"/></g><g transform="translate(577.1428571428571,48.233054354765194)"><path class="background" aria-hidden="true" d="M6,0L96.85714285714286,0C100.16863300410687,0,102.85714285714286,2.688509853036,102.85714285714286,6L102.85714285714286,551.7669456452348C102.85714285714286,551.7669456452348,102.85714285714286,551.7669456452348,102.85714285714286,551.7669456452348L0,551.7669456452348C0,551.7669456452348,0,551.7669456452348,0,551.7669456452348L0,6C0,2.688509853036,2.688509853036,0,6,0Z"/><g clip-path="url(#clip14)"><g class="mark-group role-scope" role="graphics-object" aria-roledescription="group mark container"><g transform="translate(0,-48.233054354765194)"><path class="background" aria-hidden="true" d="M0,0h102.85714285714286v0h-102.85714285714286Z"/><g><g class="mark-rect role-mark layer_0_marks" role="graphics-object" aria-roledescription="rect mark container"><path aria-label="Parser: oyaml&#xA;1.0; Execution Time (seconds, lower=better): 8.33162574467; parser: oyaml; Execution Time (s): 8.3316; Slowdown: 217.20" role="graphics-symbol" aria-roledescription="bar" d="M0,48.233054354765194h102.85714285714286v551.7669456452348h-102.85714285714286Z" fill="#7570b3"/></g></g><path class="foreground" aria-hidden="true" d="" display="none"/></g></g></g><path class="foreground" aria-hidden="true" d="" display="none"/></g><g transform="translate(691.4285714285714,28.571428571428605)"><path class="background" aria-hidden="true" d="M6,0L96.85714285714286,0C100.16863300410687,0,102.85714285714286,2.688509853036,102.85714285714286,6L102.85714285714286,571.4285714285714C102.85714285714286,571.4285714285714,102.85714285714286,571.4285714285714,102.85714285714286,571.4285714285714L0,571.4285714285714C0,571.4285714285714,0,571.4285714285714,0,571.4285714285714L0,6C0,2.688509853036,2.688509853036,0,6,0Z"/><g clip-path="url(#clip15)"><g class="mark-group role-scope" role="graphics-object" aria-roledescription="group mark container"><g transform="translate(0,-28.571428571428605)"><path class="background" aria-hidden="true" d="M0,0h102.85714285714286v0h-102.85714285714286Z"/><g><g class="mark-rect role-mark layer_0_marks" role="graphics-object" aria-roledescription="rect mark container"><path aria-label="Parser: ruamel.yaml&#xA;0.19.1; Execution Time (seconds, lower=better): 8.62851432933; parser: ruamel.yaml; Execution Time (s): 8.6285; Slowdown: 224.94" role="graphics-symbol" aria-roledescription="bar" d="M0,28.571428571428605h102.85714285714286v571.4285714285714h-102.85714285714286Z" fill="#e7298a"/></g></g><path class="foreground" aria-hidden="true" d="" display="none"/></g></g></g><path class="foreground" aria-hidden="true" d="" display="none"/></g></g><g class="mark-text role-mark layer_1_marks" role="graphics-object" aria-roledescription="text mark container"><text aria-label="Parser: yamlrocks&#xA;0.6.1; Execution Time (seconds, lower=better): 0.0383594693333; parser: yamlrocks; label: 0.0384s (x1.00); Execution Time (s): 0.0384; Slowdown: 1.00" role="graphics-symbol" aria-roledescription="text mark" text-anchor="middle" transform="translate(57.142857142857096,593.459620981635)" font-family="sans-serif" font-size="9px" font-weight="bold" fill="#a6761d">0.0384s (x1.00)</text><text aria-label="Parser: yaml_rs&#xA;0.1.6; Execution Time (seconds, lower=better): 0.0581703616667; parser: yaml_rs; label: 0.0582s (x1.52); Execution Time (s): 0.0582; Slowdown: 1.52" role="graphics-symbol" aria-roledescription="text mark" text-anchor="middle" transform="translate(171.4285714285714,592.1476326748783)" font-family="sans-serif" font-size="9px" font-weight="bold" fill="#e6ab02">0.0582s (x1.52)</text><text aria-label="Parser: PyYAML (CDumper)&#xA;6.0.3; Execution Time (seconds, lower=better): 0.163935805; parser: PyYAML (CDumper); label: 0.1639s (x4.27); Execution Time (s): 0.1639; Slowdown: 4.27" role="graphics-symbol" aria-roledescription="text mark" text-anchor="middle" transform="translate(285.71428571428567,585.1432523280771)" font-family="sans-serif" font-size="9px" font-weight="bold" fill="#d95f02">0.1639s (x4.27)</text><text aria-label="Parser: ryaml&#xA;0.5.1; Execution Time (seconds, lower=better): 0.173400302667; parser: ryaml; label: 0.1734s (x4.52); Execution Time (s): 0.1734; Slowdown: 4.52" role="graphics-symbol" aria-roledescription="text mark" text-anchor="middle" transform="translate(400,584.5164602553598)" font-family="sans-serif" font-size="9px" font-weight="bold" fill="#66a61e">0.1734s (x4.52)</text><text aria-label="Parser: PyYAML&#xA;6.0.3; Execution Time (seconds, lower=better): 8.284376255; parser: PyYAML; label: 8.2844s (x215.97); Execution Time (s): 8.2844; Slowdown: 215.97" role="graphics-symbol" aria-roledescription="text mark" text-anchor="middle" transform="translate(514.2857142857142,47.362180337575026)" font-family="sans-serif" font-size="9px" font-weight="bold" fill="#1b9e77">8.2844s (x215.97)</text><text aria-label="Parser: oyaml&#xA;1.0; Execution Time (seconds, lower=better): 8.33162574467; parser: oyaml; label: 8.3316s (x217.20); Execution Time (s): 8.3316; Slowdown: 217.20" role="graphics-symbol" aria-roledescription="text mark" text-anchor="middle" transform="translate(628.5714285714286,44.233054354765194)" font-family="sans-serif" font-size="9px" font-weight="bold" fill="#7570b3">8.3316s (x217.20)</text><text aria-label="Parser: ruamel.yaml&#xA;0.19.1; Execution Time (seconds, lower=better): 8.62851432933; parser: ruamel.yaml; label: 8.6285s (x224.94); Execution Time (s): 8.6285; Slowdown: 224.94" role="graphics-symbol" aria-roledescription="text mark" text-anchor="middle" transform="translate(742.8571428571429,24.571428571428605)" font-family="sans-serif" font-size="9px" font-weight="bold" fill="#e7298a">8.6285s (x224.94)</text></g><g class="mark-group role-title"><g transform="translate(400,-32.030434274599386)"><path class="background" aria-hidden="true" d="M0,0h0v0h0Z" pointer-events="none"/><g><g class="mark-text role-title-text" role="graphics-symbol" aria-roledescription="title" aria-label="Title text 'YAML parsers benchmark (dumps)'" pointer-events="none"><text text-anchor="middle" transform="translate(0,10)" font-family="sans-serif" font-size="13px" font-weight="bold" fill="#000" opacity="1">YAML parsers benchmark (dumps)</text></g><g class="mark-text role-title-subtitle" role="graphics-symbol" aria-roledescription="subtitle" aria-label="Subtitle text 'Python: 3.14.6 (Linux 6.17.0-1020-azure) | CPU: INTEL(R) XEON(R) PLATINUM 8573C'" pointer-events="none"><text text-anchor="middle" transform="translate(0,25)" font-family="sans-serif" font-size="12px" fill="#000" opacity="1">Python: 3.14.6 (Linux 6.17.0-1020-azure) | CPU: INTEL(R) XEON(R) PLATINUM 8573C</text></g></g><path class="foreground" aria-hidden="true" d="" pointer-events="none" display="none"/></g></g></g><path class="foreground" aria-hidden="true" d="" display="none"/></g></g></g><defs><clipPath id="clip9"><path d="M1.2701895091825008,0L101.58695334796036,0C102.28799002203284,0,102.85714285714286,0.569152835110019,102.85714285714286,1.2701895091825008L102.85714285714286,2.5403790183650017C102.85714285714286,2.5403790183650017,102.85714285714286,2.5403790183650017,102.85714285714286,2.5403790183650017L0,2.5403790183650017C0,2.5403790183650017,0,2.5403790183650017,0,2.5403790183650017L0,1.2701895091825008C0,0.569152835110019,0.569152835110019,0,1.2701895091825008,0Z"/></clipPath><clipPath id="clip10"><path d="M1.9261836625608453,0L100.93095919458202,0C101.99404889788423,0,102.85714285714286,0.8630939592586337,102.85714285714286,1.9261836625608453L102.85714285714286,3.8523673251216906C102.85714285714286,3.8523673251216906,102.85714285714286,3.8523673251216906,102.85714285714286,3.8523673251216906L0,3.8523673251216906C0,3.8523673251216906,0,3.8523673251216906,0,3.8523673251216906L0,1.9261836625608453C0,0.8630939592586337,0.8630939592586337,0,1.9261836625608453,0Z"/></clipPath><clipPath id="clip11"><path d="M5.428373835961452,0L97.42876902118141,0C100.42477009981866,0,102.85714285714286,2.4323727573241984,102.85714285714286,5.428373835961452L102.85714285714286,10.856747671922903C102.85714285714286,10.856747671922903,102.85714285714286,10.856747671922903,102.85714285714286,10.856747671922903L0,10.856747671922903C0,10.856747671922903,0,10.856747671922903,0,10.856747671922903L0,5.428373835961452C0,2.4323727573241984,2.4323727573241984,0,5.428373835961452,0Z"/></clipPath><clipPath id="clip12"><path d="M5.741769872320106,0L97.11537298482276,0C100.28434204454322,0,102.85714285714286,2.5728008125996435,102.85714285714286,5.741769872320106L102.85714285714286,11.483539744640211C102.85714285714286,11.483539744640211,102.85714285714286,11.483539744640211,102.85714285714286,11.483539744640211L0,11.483539744640211C0,11.483539744640211,0,11.483539744640211,0,11.483539744640211L0,5.741769872320106C0,2.5728008125996435,2.5728008125996435,0,5.741769872320106,0Z"/></clipPath><clipPath id="clip13"><path d="M6,0L96.85714285714286,0C100.16863300410687,0,102.85714285714286,2.688509853036,102.85714285714286,6L102.85714285714286,548.6378196624249C102.85714285714286,548.6378196624249,102.85714285714286,548.6378196624249,102.85714285714286,548.6378196624249L0,548.6378196624249C0,548.6378196624249,0,548.6378196624249,0,548.6378196624249L0,6C0,2.688509853036,2.688509853036,0,6,0Z"/></clipPath><clipPath id="clip14"><path d="M6,0L96.85714285714286,0C100.16863300410687,0,102.85714285714286,2.688509853036,102.85714285714286,6L102.85714285714286,551.7669456452348C102.85714285714286,551.7669456452348,102.85714285714286,551.7669456452348,102.85714285714286,551.7669456452348L0,551.7669456452348C0,551.7669456452348,0,551.7669456452348,0,551.7669456452348L0,6C0,2.688509853036,2.688509853036,0,6,0Z"/></clipPath><clipPath id="clip15"><path d="M6,0L96.85714285714286,0C100.16863300410687,0,102.85714285714286,2.688509853036,102.85714285714286,6L102.85714285714286,571.4285714285714C102.85714285714286,571.4285714285714,102.85714285714286,571.4285714285714,102.85714285714286,571.4285714285714L0,571.4285714285714C0,571.4285714285714,0,571.4285714285714,0,571.4285714285714L0,6C0,2.688509853036,2.688509853036,0,6,0Z"/></clipPath></defs></svg>