<svg xmlns="http://www.w3.org/2000/svg" xmlns:xlink="http://www.w3.org/1999/xlink" version="1.1" class="marks" width="844" height="687" viewBox="0 0 844 687"><rect width="844" height="687" fill="white"/><g fill="none" stroke-miterlimit="10" transform="translate(39,36)"><g class="mark-group role-frame root" role="graphics-object" aria-roledescription="group mark container"><g transform="translate(0,0)"><path class="background" aria-hidden="true" d="M0.5,0.5h800v600h-800Z" stroke="#ddd"/><g><g class="mark-group role-axis" role="graphics-symbol" aria-roledescription="axis" aria-label="X-axis titled 'Parser' for a discrete scale with 7 values: yamlrocks&#xA;0.5.0, yaml_rs&#xA;0.1.4, PyYAML (CDumper)&#xA;6.0.3, ryaml&#xA;0.5.1, PyYAML&#xA;6.0.3, oyaml&#xA;1.0, ruamel.yaml&#xA;0.19.1"><g transform="translate(0.5,600.5)"><path class="background" aria-hidden="true" d="M0,0h0v0h0Z" pointer-events="none"/><g><g class="mark-rule role-axis-tick" pointer-events="none"><line transform="translate(57,0)" x2="0" y2="5" stroke="#888" stroke-width="1" opacity="1"/><line transform="translate(171,0)" x2="0" y2="5" stroke="#888" stroke-width="1" opacity="1"/><line transform="translate(285,0)" x2="0" y2="5" stroke="#888" stroke-width="1" opacity="1"/><line transform="translate(400,0)" x2="0" y2="5" stroke="#888" stroke-width="1" opacity="1"/><line transform="translate(514,0)" x2="0" y2="5" stroke="#888" stroke-width="1" opacity="1"/><line transform="translate(628,0)" x2="0" y2="5" stroke="#888" stroke-width="1" opacity="1"/><line transform="translate(742,0)" x2="0" y2="5" stroke="#888" stroke-width="1" opacity="1"/></g><g class="mark-text role-axis-label" pointer-events="none"><text text-anchor="middle" transform="translate(56.642857142857096,15)" font-family="sans-serif" font-size="10px" fill="#000" opacity="1"><tspan>yamlrocks</tspan><tspan x="0" dy="14">0.5.0</tspan></text><text text-anchor="middle" transform="translate(170.9285714285714,15)" font-family="sans-serif" font-size="10px" fill="#000" opacity="1"><tspan>yaml_rs</tspan><tspan x="0" dy="14">0.1.4</tspan></text><text text-anchor="middle" transform="translate(285.21428571428567,15)" font-family="sans-serif" font-size="10px" fill="#000" opacity="1"><tspan>PyYAML (CDumper)</tspan><tspan x="0" dy="14">6.0.3</tspan></text><text text-anchor="middle" transform="translate(399.5,15)" font-family="sans-serif" font-size="10px" fill="#000" opacity="1"><tspan>ryaml</tspan><tspan x="0" dy="14">0.5.1</tspan></text><text text-anchor="middle" transform="translate(513.7857142857142,15)" font-family="sans-serif" font-size="10px" fill="#000" opacity="1"><tspan>PyYAML</tspan><tspan x="0" dy="14">6.0.3</tspan></text><text text-anchor="middle" transform="translate(628.0714285714286,15)" font-family="sans-serif" font-size="10px" fill="#000" opacity="1"><tspan>oyaml</tspan><tspan x="0" dy="14">1.0</tspan></text><text text-anchor="middle" transform="translate(742.3571428571429,15)" font-family="sans-serif" font-size="10px" fill="#000" opacity="1"><tspan>ruamel.yaml</tspan><tspan x="0" dy="14">0.19.1</tspan></text></g><g class="mark-rule role-axis-domain" pointer-events="none"><line transform="translate(0,0)" x2="800" y2="0" stroke="#888" stroke-width="1" opacity="1"/></g><g class="mark-text role-axis-title" pointer-events="none"><text text-anchor="middle" transform="translate(400,44)" font-family="sans-serif" font-size="11px" font-weight="bold" fill="#000" opacity="1">Parser</text></g></g><path class="foreground" aria-hidden="true" d="" pointer-events="none" display="none"/></g></g><g class="mark-group role-axis" role="graphics-symbol" aria-roledescription="axis" aria-label="Y-axis titled 'Execution Time (seconds, lower=better)' for a linear scale with values from 0 to 13"><g transform="translate(0.5,0.5)"><path class="background" aria-hidden="true" d="M0,0h0v0h0Z" pointer-events="none"/><g><g class="mark-rule role-axis-tick" pointer-events="none"><line transform="translate(0,600)" x2="-5" y2="0" stroke="#888" stroke-width="1" opacity="1"/><line transform="translate(0,554)" x2="-5" y2="0" stroke="#888" stroke-width="1" opacity="1"/><line transform="translate(0,509)" x2="-5" y2="0" stroke="#888" stroke-width="1" opacity="1"/><line transform="translate(0,463)" x2="-5" y2="0" stroke="#888" stroke-width="1" opacity="1"/><line transform="translate(0,418)" x2="-5" y2="0" stroke="#888" stroke-width="1" opacity="1"/><line transform="translate(0,372)" x2="-5" y2="0" stroke="#888" stroke-width="1" opacity="1"/><line transform="translate(0,326)" x2="-5" y2="0" stroke="#888" stroke-width="1" opacity="1"/><line transform="translate(0,281)" x2="-5" y2="0" stroke="#888" stroke-width="1" opacity="1"/><line transform="translate(0,235)" x2="-5" y2="0" stroke="#888" stroke-width="1" opacity="1"/><line transform="translate(0,189)" x2="-5" y2="0" stroke="#888" stroke-width="1" opacity="1"/><line transform="translate(0,144)" x2="-5" y2="0" stroke="#888" stroke-width="1" opacity="1"/><line transform="translate(0,98)" x2="-5" y2="0" stroke="#888" stroke-width="1" opacity="1"/><line transform="translate(0,53)" x2="-5" y2="0" stroke="#888" stroke-width="1" opacity="1"/><line transform="translate(0,7)" x2="-5" y2="0" stroke="#888" stroke-width="1" opacity="1"/></g><g class="mark-text role-axis-label" pointer-events="none"><text text-anchor="end" transform="translate(-7,603)" font-family="sans-serif" font-size="10px" fill="#000" opacity="1">0</text><text text-anchor="end" transform="translate(-7,557.3806338002527)" font-family="sans-serif" font-size="10px" fill="#000" opacity="1">1</text><text text-anchor="end" transform="translate(-7,511.7612676005052)" font-family="sans-serif" font-size="10px" fill="#000" opacity="1">2</text><text text-anchor="end" transform="translate(-7,466.1419014007579)" font-family="sans-serif" font-size="10px" fill="#000" opacity="1">3</text><text text-anchor="end" transform="translate(-7,420.52253520101044)" font-family="sans-serif" font-size="10px" fill="#000" opacity="1">4</text><text text-anchor="end" transform="translate(-7,374.90316900126305)" font-family="sans-serif" font-size="10px" fill="#000" opacity="1">5</text><text text-anchor="end" transform="translate(-7,329.2838028015157)" font-family="sans-serif" font-size="10px" fill="#000" opacity="1">6</text><text text-anchor="end" transform="translate(-7,283.6644366017684)" font-family="sans-serif" font-size="10px" fill="#000" opacity="1">7</text><text text-anchor="end" transform="translate(-7,238.04507040202094)" font-family="sans-serif" font-size="10px" fill="#000" opacity="1">8</text><text text-anchor="end" transform="translate(-7,192.42570420227358)" font-family="sans-serif" font-size="10px" fill="#000" opacity="1">9</text><text text-anchor="end" transform="translate(-7,146.80633800252622)" font-family="sans-serif" font-size="10px" fill="#000" opacity="1">10</text><text text-anchor="end" transform="translate(-7,101.18697180277887)" font-family="sans-serif" font-size="10px" fill="#000" opacity="1">11</text><text text-anchor="end" transform="translate(-7,55.56760560303144)" font-family="sans-serif" font-size="10px" fill="#000" opacity="1">12</text><text text-anchor="end" transform="translate(-7,9.948239403284084)" font-family="sans-serif" font-size="10px" fill="#000" opacity="1">13</text></g><g class="mark-rule role-axis-domain" pointer-events="none"><line transform="translate(0,600)" x2="0" y2="-600" stroke="#888" stroke-width="1" opacity="1"/></g><g class="mark-text role-axis-title" pointer-events="none"><text text-anchor="middle" transform="translate(-22.123046875,300) rotate(-90) translate(0,-2)" font-family="sans-serif" font-size="11px" font-weight="bold" fill="#000" opacity="1">Execution Time (seconds, lower=better)</text></g></g><path class="foreground" aria-hidden="true" d="" pointer-events="none" display="none"/></g></g><g class="mark-group role-scope" role="graphics-object" aria-roledescription="group mark container"><g transform="translate(5.714285714285666,598.464289029276)"><path class="background" aria-hidden="true" d="M0.7678554853620199,0L102.08928737178084,0C102.51307835079227,0,102.85714285714286,0.34406450635058844,102.85714285714286,0.7678554853620199L102.85714285714286,1.5357109707240397C102.85714285714286,1.5357109707240397,102.85714285714286,1.5357109707240397,102.85714285714286,1.5357109707240397L0,1.5357109707240397C0,1.5357109707240397,0,1.5357109707240397,0,1.5357109707240397L0,0.7678554853620199C0,0.34406450635058844,0.34406450635058844,0,0.7678554853620199,0Z"/><g clip-path="url(#clip9)"><g class="mark-group role-scope" role="graphics-object" aria-roledescription="group mark container"><g transform="translate(0,-598.464289029276)"><path class="background" aria-hidden="true" d="M0,0h102.85714285714286v0h-102.85714285714286Z"/><g><g class="mark-rect role-mark layer_0_marks" role="graphics-object" aria-roledescription="rect mark container"><path aria-label="Parser: yamlrocks&#xA;0.5.0; Execution Time (seconds, lower=better): 0.0336635753333; parser: yamlrocks; Execution Time (s): 0.0337; Slowdown: 1.00" role="graphics-symbol" aria-roledescription="bar" d="M0,598.464289029276h102.85714285714286v1.5357109707240397h-102.85714285714286Z" fill="#a6761d"/></g></g><path class="foreground" aria-hidden="true" d="" display="none"/></g></g></g><path class="foreground" aria-hidden="true" d="" display="none"/></g><g transform="translate(119.99999999999996,596.8810226672758)"><path class="background" aria-hidden="true" d="M1.5594886663620855,0L101.29765419078078,0C102.15835941627412,0,102.85714285714286,0.6987834408687397,102.85714285714286,1.5594886663620855L102.85714285714286,3.118977332724171C102.85714285714286,3.118977332724171,102.85714285714286,3.118977332724171,102.85714285714286,3.118977332724171L0,3.118977332724171C0,3.118977332724171,0,3.118977332724171,0,3.118977332724171L0,1.5594886663620855C0,0.6987834408687397,0.6987834408687397,0,1.5594886663620855,0Z"/><g clip-path="url(#clip10)"><g class="mark-group role-scope" role="graphics-object" aria-roledescription="group mark container"><g transform="translate(0,-596.8810226672758)"><path class="background" aria-hidden="true" d="M0,0h102.85714285714286v0h-102.85714285714286Z"/><g><g class="mark-rect role-mark layer_0_marks" role="graphics-object" aria-roledescription="rect mark container"><path aria-label="Parser: yaml_rs&#xA;0.1.4; Execution Time (seconds, lower=better): 0.0683695893333; parser: yaml_rs; Execution Time (s): 0.0684; Slowdown: 2.03" role="graphics-symbol" aria-roledescription="bar" d="M0,596.8810226672758h102.85714285714286v3.118977332724171h-102.85714285714286Z" fill="#e6ab02"/></g></g><path class="foreground" aria-hidden="true" d="" display="none"/></g></g></g><path class="foreground" aria-hidden="true" d="" display="none"/></g><g transform="translate(234.28571428571425,591.2370230410828)"><path class="background" aria-hidden="true" d="M4.381488479458596,0L98.47565437768426,0C100.89386369914483,0,102.85714285714286,1.9632791579980264,102.85714285714286,4.381488479458596L102.85714285714286,8.762976958917193C102.85714285714286,8.762976958917193,102.85714285714286,8.762976958917193,102.85714285714286,8.762976958917193L0,8.762976958917193C0,8.762976958917193,0,8.762976958917193,0,8.762976958917193L0,4.381488479458596C0,1.9632791579980264,1.9632791579980264,0,4.381488479458596,0Z"/><g clip-path="url(#clip11)"><g class="mark-group role-scope" role="graphics-object" aria-roledescription="group mark container"><g transform="translate(0,-591.2370230410828)"><path class="background" aria-hidden="true" d="M0,0h102.85714285714286v0h-102.85714285714286Z"/><g><g class="mark-rect role-mark layer_0_marks" role="graphics-object" aria-roledescription="rect mark container"><path aria-label="Parser: PyYAML (CDumper)&#xA;6.0.3; Execution Time (seconds, lower=better): 0.192088967667; parser: PyYAML (CDumper); Execution Time (s): 0.1921; Slowdown: 5.71" role="graphics-symbol" aria-roledescription="bar" d="M0,591.2370230410828h102.85714285714286v8.762976958917193h-102.85714285714286Z" fill="#d95f02"/></g></g><path class="foreground" aria-hidden="true" d="" display="none"/></g></g></g><path class="foreground" aria-hidden="true" d="" display="none"/></g><g transform="translate(348.57142857142856,590.4002940977622)"><path class="background" aria-hidden="true" d="M4.799852951118908,0L98.05728990602395,0C100.70640086510835,0,102.85714285714286,2.1507419920345177,102.85714285714286,4.799852951118908L102.85714285714286,9.599705902237815C102.85714285714286,9.599705902237815,102.85714285714286,9.599705902237815,102.85714285714286,9.599705902237815L0,9.599705902237815C0,9.599705902237815,0,9.599705902237815,0,9.599705902237815L0,4.799852951118908C0,2.1507419920345177,2.1507419920345177,0,4.799852951118908,0Z"/><g clip-path="url(#clip12)"><g class="mark-group role-scope" role="graphics-object" aria-roledescription="group mark container"><g transform="translate(0,-590.4002940977622)"><path class="background" aria-hidden="true" d="M0,0h102.85714285714286v0h-102.85714285714286Z"/><g><g class="mark-rect role-mark layer_0_marks" role="graphics-object" aria-roledescription="rect mark container"><path aria-label="Parser: ryaml&#xA;0.5.1; Execution Time (seconds, lower=better): 0.210430497; parser: ryaml; Execution Time (s): 0.2104; Slowdown: 6.25" role="graphics-symbol" aria-roledescription="bar" d="M0,590.4002940977622h102.85714285714286v9.599705902237815h-102.85714285714286Z" fill="#66a61e"/></g></g><path class="foreground" aria-hidden="true" d="" display="none"/></g></g></g><path class="foreground" aria-hidden="true" d="" display="none"/></g><g transform="translate(462.85714285714283,41.205086644557085)"><path class="background" aria-hidden="true" d="M6,0L96.85714285714286,0C100.16863300410687,0,102.85714285714286,2.688509853036,102.85714285714286,6L102.85714285714286,558.7949133554429C102.85714285714286,558.7949133554429,102.85714285714286,558.7949133554429,102.85714285714286,558.7949133554429L0,558.7949133554429C0,558.7949133554429,0,558.7949133554429,0,558.7949133554429L0,6C0,2.688509853036,2.688509853036,0,6,0Z"/><g clip-path="url(#clip13)"><g class="mark-group role-scope" role="graphics-object" aria-roledescription="group mark container"><g transform="translate(0,-41.205086644557085)"><path class="background" aria-hidden="true" d="M0,0h102.85714285714286v0h-102.85714285714286Z"/><g><g class="mark-rect role-mark layer_0_marks" role="graphics-object" aria-roledescription="rect mark container"><path aria-label="Parser: PyYAML&#xA;6.0.3; Execution Time (seconds, lower=better): 12.249072267; parser: PyYAML; Execution Time (s): 12.2491; Slowdown: 363.87" role="graphics-symbol" aria-roledescription="bar" d="M0,41.205086644557085h102.85714285714286v558.7949133554429h-102.85714285714286Z" fill="#1b9e77"/></g></g><path class="foreground" aria-hidden="true" d="" display="none"/></g></g></g><path class="foreground" aria-hidden="true" d="" display="none"/></g><g transform="translate(577.1428571428571,38.55792158499798)"><path class="background" aria-hidden="true" d="M6,0L96.85714285714286,0C100.16863300410687,0,102.85714285714286,2.688509853036,102.85714285714286,6L102.85714285714286,561.442078415002C102.85714285714286,561.442078415002,102.85714285714286,561.442078415002,102.85714285714286,561.442078415002L0,561.442078415002C0,561.442078415002,0,561.442078415002,0,561.442078415002L0,6C0,2.688509853036,2.688509853036,0,6,0Z"/><g clip-path="url(#clip14)"><g class="mark-group role-scope" role="graphics-object" aria-roledescription="group mark container"><g transform="translate(0,-38.55792158499798)"><path class="background" aria-hidden="true" d="M0,0h102.85714285714286v0h-102.85714285714286Z"/><g><g class="mark-rect role-mark layer_0_marks" role="graphics-object" aria-roledescription="rect mark container"><path aria-label="Parser: oyaml&#xA;1.0; Execution Time (seconds, lower=better): 12.3070994883; parser: oyaml; Execution Time (s): 12.3071; Slowdown: 365.59" role="graphics-symbol" aria-roledescription="bar" d="M0,38.55792158499798h102.85714285714286v561.442078415002h-102.85714285714286Z" fill="#7570b3"/></g></g><path class="foreground" aria-hidden="true" d="" display="none"/></g></g></g><path class="foreground" aria-hidden="true" d="" display="none"/></g><g transform="translate(691.4285714285714,28.571428571428605)"><path class="background" aria-hidden="true" d="M6,0L96.85714285714286,0C100.16863300410687,0,102.85714285714286,2.688509853036,102.85714285714286,6L102.85714285714286,571.4285714285714C102.85714285714286,571.4285714285714,102.85714285714286,571.4285714285714,102.85714285714286,571.4285714285714L0,571.4285714285714C0,571.4285714285714,0,571.4285714285714,0,571.4285714285714L0,6C0,2.688509853036,2.688509853036,0,6,0Z"/><g clip-path="url(#clip15)"><g class="mark-group role-scope" role="graphics-object" aria-roledescription="group mark container"><g transform="translate(0,-28.571428571428605)"><path class="background" aria-hidden="true" d="M0,0h102.85714285714286v0h-102.85714285714286Z"/><g><g class="mark-rect role-mark layer_0_marks" role="graphics-object" aria-roledescription="rect mark container"><path aria-label="Parser: ruamel.yaml&#xA;0.19.1; Execution Time (seconds, lower=better): 12.526008558; parser: ruamel.yaml; Execution Time (s): 12.5260; Slowdown: 372.09" role="graphics-symbol" aria-roledescription="bar" d="M0,28.571428571428605h102.85714285714286v571.4285714285714h-102.85714285714286Z" fill="#e7298a"/></g></g><path class="foreground" aria-hidden="true" d="" display="none"/></g></g></g><path class="foreground" aria-hidden="true" d="" display="none"/></g></g><g class="mark-text role-mark layer_1_marks" role="graphics-object" aria-roledescription="text mark container"><text aria-label="Parser: yamlrocks&#xA;0.5.0; Execution Time (seconds, lower=better): 0.0336635753333; parser: yamlrocks; label: 0.0337s (x1.00); Execution Time (s): 0.0337; Slowdown: 1.00" role="graphics-symbol" aria-roledescription="text mark" text-anchor="middle" transform="translate(57.142857142857096,594.464289029276)" font-family="sans-serif" font-size="9px" font-weight="bold" fill="#a6761d">0.0337s (x1.00)</text><text aria-label="Parser: yaml_rs&#xA;0.1.4; Execution Time (seconds, lower=better): 0.0683695893333; parser: yaml_rs; label: 0.0684s (x2.03); Execution Time (s): 0.0684; Slowdown: 2.03" role="graphics-symbol" aria-roledescription="text mark" text-anchor="middle" transform="translate(171.4285714285714,592.8810226672758)" font-family="sans-serif" font-size="9px" font-weight="bold" fill="#e6ab02">0.0684s (x2.03)</text><text aria-label="Parser: PyYAML (CDumper)&#xA;6.0.3; Execution Time (seconds, lower=better): 0.192088967667; parser: PyYAML (CDumper); label: 0.1921s (x5.71); Execution Time (s): 0.1921; Slowdown: 5.71" role="graphics-symbol" aria-roledescription="text mark" text-anchor="middle" transform="translate(285.71428571428567,587.2370230410828)" font-family="sans-serif" font-size="9px" font-weight="bold" fill="#d95f02">0.1921s (x5.71)</text><text aria-label="Parser: ryaml&#xA;0.5.1; Execution Time (seconds, lower=better): 0.210430497; parser: ryaml; label: 0.2104s (x6.25); Execution Time (s): 0.2104; Slowdown: 6.25" role="graphics-symbol" aria-roledescription="text mark" text-anchor="middle" transform="translate(400,586.4002940977622)" font-family="sans-serif" font-size="9px" font-weight="bold" fill="#66a61e">0.2104s (x6.25)</text><text aria-label="Parser: PyYAML&#xA;6.0.3; Execution Time (seconds, lower=better): 12.249072267; parser: PyYAML; label: 12.2491s (x363.87); Execution Time (s): 12.2491; Slowdown: 363.87" role="graphics-symbol" aria-roledescription="text mark" text-anchor="middle" transform="translate(514.2857142857142,37.205086644557085)" font-family="sans-serif" font-size="9px" font-weight="bold" fill="#1b9e77">12.2491s (x363.87)</text><text aria-label="Parser: oyaml&#xA;1.0; Execution Time (seconds, lower=better): 12.3070994883; parser: oyaml; label: 12.3071s (x365.59); Execution Time (s): 12.3071; Slowdown: 365.59" role="graphics-symbol" aria-roledescription="text mark" text-anchor="middle" transform="translate(628.5714285714286,34.55792158499798)" font-family="sans-serif" font-size="9px" font-weight="bold" fill="#7570b3">12.3071s (x365.59)</text><text aria-label="Parser: ruamel.yaml&#xA;0.19.1; Execution Time (seconds, lower=better): 12.526008558; parser: ruamel.yaml; label: 12.5260s (x372.09); Execution Time (s): 12.5260; Slowdown: 372.09" role="graphics-symbol" aria-roledescription="text mark" text-anchor="middle" transform="translate(742.8571428571429,24.571428571428605)" font-family="sans-serif" font-size="9px" font-weight="bold" fill="#e7298a">12.5260s (x372.09)</text></g><g class="mark-group role-title"><g transform="translate(400,-31)"><path class="background" aria-hidden="true" d="M0,0h0v0h0Z" pointer-events="none"/><g><g class="mark-text role-title-text" role="graphics-symbol" aria-roledescription="title" aria-label="Title text 'YAML parsers benchmark (dumps)'" pointer-events="none"><text text-anchor="middle" transform="translate(0,10)" font-family="sans-serif" font-size="13px" font-weight="bold" fill="#000" opacity="1">YAML parsers benchmark (dumps)</text></g><g class="mark-text role-title-subtitle" role="graphics-symbol" aria-roledescription="subtitle" aria-label="Subtitle text 'Python: 3.14.6 (Linux 6.17.0-1018-azure) | CPU: AMD EPYC 9V74 80-Core Processor'" pointer-events="none"><text text-anchor="middle" transform="translate(0,25)" font-family="sans-serif" font-size="12px" fill="#000" opacity="1">Python: 3.14.6 (Linux 6.17.0-1018-azure) | CPU: AMD EPYC 9V74 80-Core Processor</text></g></g><path class="foreground" aria-hidden="true" d="" pointer-events="none" display="none"/></g></g></g><path class="foreground" aria-hidden="true" d="" display="none"/></g></g></g><defs><clipPath id="clip9"><path d="M0.7678554853620199,0L102.08928737178084,0C102.51307835079227,0,102.85714285714286,0.34406450635058844,102.85714285714286,0.7678554853620199L102.85714285714286,1.5357109707240397C102.85714285714286,1.5357109707240397,102.85714285714286,1.5357109707240397,102.85714285714286,1.5357109707240397L0,1.5357109707240397C0,1.5357109707240397,0,1.5357109707240397,0,1.5357109707240397L0,0.7678554853620199C0,0.34406450635058844,0.34406450635058844,0,0.7678554853620199,0Z"/></clipPath><clipPath id="clip10"><path d="M1.5594886663620855,0L101.29765419078078,0C102.15835941627412,0,102.85714285714286,0.6987834408687397,102.85714285714286,1.5594886663620855L102.85714285714286,3.118977332724171C102.85714285714286,3.118977332724171,102.85714285714286,3.118977332724171,102.85714285714286,3.118977332724171L0,3.118977332724171C0,3.118977332724171,0,3.118977332724171,0,3.118977332724171L0,1.5594886663620855C0,0.6987834408687397,0.6987834408687397,0,1.5594886663620855,0Z"/></clipPath><clipPath id="clip11"><path d="M4.381488479458596,0L98.47565437768426,0C100.89386369914483,0,102.85714285714286,1.9632791579980264,102.85714285714286,4.381488479458596L102.85714285714286,8.762976958917193C102.85714285714286,8.762976958917193,102.85714285714286,8.762976958917193,102.85714285714286,8.762976958917193L0,8.762976958917193C0,8.762976958917193,0,8.762976958917193,0,8.762976958917193L0,4.381488479458596C0,1.9632791579980264,1.9632791579980264,0,4.381488479458596,0Z"/></clipPath><clipPath id="clip12"><path d="M4.799852951118908,0L98.05728990602395,0C100.70640086510835,0,102.85714285714286,2.1507419920345177,102.85714285714286,4.799852951118908L102.85714285714286,9.599705902237815C102.85714285714286,9.599705902237815,102.85714285714286,9.599705902237815,102.85714285714286,9.599705902237815L0,9.599705902237815C0,9.599705902237815,0,9.599705902237815,0,9.599705902237815L0,4.799852951118908C0,2.1507419920345177,2.1507419920345177,0,4.799852951118908,0Z"/></clipPath><clipPath id="clip13"><path d="M6,0L96.85714285714286,0C100.16863300410687,0,102.85714285714286,2.688509853036,102.85714285714286,6L102.85714285714286,558.7949133554429C102.85714285714286,558.7949133554429,102.85714285714286,558.7949133554429,102.85714285714286,558.7949133554429L0,558.7949133554429C0,558.7949133554429,0,558.7949133554429,0,558.7949133554429L0,6C0,2.688509853036,2.688509853036,0,6,0Z"/></clipPath><clipPath id="clip14"><path d="M6,0L96.85714285714286,0C100.16863300410687,0,102.85714285714286,2.688509853036,102.85714285714286,6L102.85714285714286,561.442078415002C102.85714285714286,561.442078415002,102.85714285714286,561.442078415002,102.85714285714286,561.442078415002L0,561.442078415002C0,561.442078415002,0,561.442078415002,0,561.442078415002L0,6C0,2.688509853036,2.688509853036,0,6,0Z"/></clipPath><clipPath id="clip15"><path d="M6,0L96.85714285714286,0C100.16863300410687,0,102.85714285714286,2.688509853036,102.85714285714286,6L102.85714285714286,571.4285714285714C102.85714285714286,571.4285714285714,102.85714285714286,571.4285714285714,102.85714285714286,571.4285714285714L0,571.4285714285714C0,571.4285714285714,0,571.4285714285714,0,571.4285714285714L0,6C0,2.688509853036,2.688509853036,0,6,0Z"/></clipPath></defs></svg>