<svg xmlns="http://www.w3.org/2000/svg" xmlns:xlink="http://www.w3.org/1999/xlink" version="1.1" class="marks" width="844" height="687" viewBox="0 0 844 687"><rect width="844" height="687" fill="white"/><g fill="none" stroke-miterlimit="10" transform="translate(39,36)"><g class="mark-group role-frame root" role="graphics-object" aria-roledescription="group mark container"><g transform="translate(0,0)"><path class="background" aria-hidden="true" d="M0.5,0.5h800v600h-800Z" stroke="#ddd"/><g><g class="mark-group role-axis" role="graphics-symbol" aria-roledescription="axis" aria-label="X-axis titled 'Parser' for a discrete scale with 8 values: yamlrocks&#xA;v0.2.1, yaml_rs (parse_dt=False)&#xA;v0.1.4, yaml_rs&#xA;v0.1.4, ryaml&#xA;v0.5.1, PyYAML (CLoader)&#xA;v6.0.3, ending with ruamel.yaml&#xA;v0.19.1"><g transform="translate(0.5,600.5)"><path class="background" aria-hidden="true" d="M0,0h0v0h0Z" pointer-events="none"/><g><g class="mark-rule role-axis-tick" pointer-events="none"><line transform="translate(50,0)" x2="0" y2="5" stroke="#888" stroke-width="1" opacity="1"/><line transform="translate(150,0)" x2="0" y2="5" stroke="#888" stroke-width="1" opacity="1"/><line transform="translate(250,0)" x2="0" y2="5" stroke="#888" stroke-width="1" opacity="1"/><line transform="translate(350,0)" x2="0" y2="5" stroke="#888" stroke-width="1" opacity="1"/><line transform="translate(450,0)" x2="0" y2="5" stroke="#888" stroke-width="1" opacity="1"/><line transform="translate(550,0)" x2="0" y2="5" stroke="#888" stroke-width="1" opacity="1"/><line transform="translate(650,0)" x2="0" y2="5" stroke="#888" stroke-width="1" opacity="1"/><line transform="translate(750,0)" x2="0" y2="5" stroke="#888" stroke-width="1" opacity="1"/></g><g class="mark-text role-axis-label" pointer-events="none"><text text-anchor="middle" transform="translate(49.5,15)" font-family="sans-serif" font-size="10px" fill="#000" opacity="1"><tspan>yamlrocks</tspan><tspan x="0" dy="14">v0.2.1</tspan></text><text text-anchor="middle" transform="translate(149.5,15)" font-family="sans-serif" font-size="10px" fill="#000" opacity="1"><tspan>yaml_rs (parse_dt=False)</tspan><tspan x="0" dy="14">v0.1.4</tspan></text><text text-anchor="middle" transform="translate(249.5,15)" font-family="sans-serif" font-size="10px" fill="#000" opacity="1"><tspan>yaml_rs</tspan><tspan x="0" dy="14">v0.1.4</tspan></text><text text-anchor="middle" transform="translate(349.5,15)" font-family="sans-serif" font-size="10px" fill="#000" opacity="1"><tspan>ryaml</tspan><tspan x="0" dy="14">v0.5.1</tspan></text><text text-anchor="middle" transform="translate(449.5,15)" font-family="sans-serif" font-size="10px" fill="#000" opacity="1"><tspan>PyYAML (CLoader)</tspan><tspan x="0" dy="14">v6.0.3</tspan></text><text text-anchor="middle" transform="translate(549.5,15)" font-family="sans-serif" font-size="10px" fill="#000" opacity="1"><tspan>oyaml</tspan><tspan x="0" dy="14">v1.0</tspan></text><text text-anchor="middle" transform="translate(649.5,15)" font-family="sans-serif" font-size="10px" fill="#000" opacity="1"><tspan>PyYAML</tspan><tspan x="0" dy="14">v6.0.3</tspan></text><text text-anchor="middle" transform="translate(749.5,15)" font-family="sans-serif" font-size="10px" fill="#000" opacity="1"><tspan>ruamel.yaml</tspan><tspan x="0" dy="14">v0.19.1</tspan></text></g><g class="mark-rule role-axis-domain" pointer-events="none"><line transform="translate(0,0)" x2="800" y2="0" stroke="#888" stroke-width="1" opacity="1"/></g><g class="mark-text role-axis-title" pointer-events="none"><text text-anchor="middle" transform="translate(400,44)" font-family="sans-serif" font-size="11px" font-weight="bold" fill="#000" opacity="1">Parser</text></g></g><path class="foreground" aria-hidden="true" d="" pointer-events="none" display="none"/></g></g><g class="mark-group role-axis" role="graphics-symbol" aria-roledescription="axis" aria-label="Y-axis titled 'Execution Time (seconds, lower=better)' for a linear scale with values from 0 to 35"><g transform="translate(0.5,0.5)"><path class="background" aria-hidden="true" d="M0,0h0v0h0Z" pointer-events="none"/><g><g class="mark-rule role-axis-tick" pointer-events="none"><line transform="translate(0,600)" x2="-5" y2="0" stroke="#888" stroke-width="1" opacity="1"/><line transform="translate(0,565)" x2="-5" y2="0" stroke="#888" stroke-width="1" opacity="1"/><line transform="translate(0,531)" x2="-5" y2="0" stroke="#888" stroke-width="1" opacity="1"/><line transform="translate(0,496)" x2="-5" y2="0" stroke="#888" stroke-width="1" opacity="1"/><line transform="translate(0,462)" x2="-5" y2="0" stroke="#888" stroke-width="1" opacity="1"/><line transform="translate(0,427)" x2="-5" y2="0" stroke="#888" stroke-width="1" opacity="1"/><line transform="translate(0,393)" x2="-5" y2="0" stroke="#888" stroke-width="1" opacity="1"/><line transform="translate(0,358)" x2="-5" y2="0" stroke="#888" stroke-width="1" opacity="1"/><line transform="translate(0,324)" x2="-5" y2="0" stroke="#888" stroke-width="1" opacity="1"/><line transform="translate(0,289)" x2="-5" y2="0" stroke="#888" stroke-width="1" opacity="1"/><line transform="translate(0,254)" x2="-5" y2="0" stroke="#888" stroke-width="1" opacity="1"/><line transform="translate(0,220)" x2="-5" y2="0" stroke="#888" stroke-width="1" opacity="1"/><line transform="translate(0,185)" x2="-5" y2="0" stroke="#888" stroke-width="1" opacity="1"/><line transform="translate(0,151)" x2="-5" y2="0" stroke="#888" stroke-width="1" opacity="1"/><line transform="translate(0,116)" x2="-5" y2="0" stroke="#888" stroke-width="1" opacity="1"/><line transform="translate(0,82)" x2="-5" y2="0" stroke="#888" stroke-width="1" opacity="1"/><line transform="translate(0,47)" x2="-5" y2="0" stroke="#888" stroke-width="1" opacity="1"/><line transform="translate(0,13)" x2="-5" y2="0" stroke="#888" stroke-width="1" opacity="1"/></g><g class="mark-text role-axis-label" pointer-events="none"><text text-anchor="end" transform="translate(-7,603)" font-family="sans-serif" font-size="10px" fill="#000" opacity="1">0</text><text text-anchor="end" transform="translate(-7,568.4418961871036)" font-family="sans-serif" font-size="10px" fill="#000" opacity="1">2</text><text text-anchor="end" transform="translate(-7,533.8837923742071)" font-family="sans-serif" font-size="10px" fill="#000" opacity="1">4</text><text text-anchor="end" transform="translate(-7,499.32568856131064)" font-family="sans-serif" font-size="10px" fill="#000" opacity="1">6</text><text text-anchor="end" transform="translate(-7,464.76758474841427)" font-family="sans-serif" font-size="10px" fill="#000" opacity="1">8</text><text text-anchor="end" transform="translate(-7,430.2094809355178)" font-family="sans-serif" font-size="10px" fill="#000" opacity="1">10</text><text text-anchor="end" transform="translate(-7,395.65137712262134)" font-family="sans-serif" font-size="10px" fill="#000" opacity="1">12</text><text text-anchor="end" transform="translate(-7,361.09327330972485)" font-family="sans-serif" font-size="10px" fill="#000" opacity="1">14</text><text text-anchor="end" transform="translate(-7,326.5351694968285)" font-family="sans-serif" font-size="10px" fill="#000" opacity="1">16</text><text text-anchor="end" transform="translate(-7,291.977065683932)" font-family="sans-serif" font-size="10px" fill="#000" opacity="1">18</text><text text-anchor="end" transform="translate(-7,257.41896187103555)" font-family="sans-serif" font-size="10px" fill="#000" opacity="1">20</text><text text-anchor="end" transform="translate(-7,222.86085805813912)" font-family="sans-serif" font-size="10px" fill="#000" opacity="1">22</text><text text-anchor="end" transform="translate(-7,188.30275424524265)" font-family="sans-serif" font-size="10px" fill="#000" opacity="1">24</text><text text-anchor="end" transform="translate(-7,153.7446504323462)" font-family="sans-serif" font-size="10px" fill="#000" opacity="1">26</text><text text-anchor="end" transform="translate(-7,119.18654661944974)" font-family="sans-serif" font-size="10px" fill="#000" opacity="1">28</text><text text-anchor="end" transform="translate(-7,84.62844280655328)" font-family="sans-serif" font-size="10px" fill="#000" opacity="1">30</text><text text-anchor="end" transform="translate(-7,50.07033899365689)" font-family="sans-serif" font-size="10px" fill="#000" opacity="1">32</text><text text-anchor="end" transform="translate(-7,15.512235180760435)" font-family="sans-serif" font-size="10px" fill="#000" opacity="1">34</text></g><g class="mark-rule role-axis-domain" pointer-events="none"><line transform="translate(0,600)" x2="0" y2="-600" stroke="#888" stroke-width="1" opacity="1"/></g><g class="mark-text role-axis-title" pointer-events="none"><text text-anchor="middle" transform="translate(-22.123046875,300) rotate(-90) translate(0,-2)" font-family="sans-serif" font-size="11px" font-weight="bold" fill="#000" opacity="1">Execution Time (seconds, lower=better)</text></g></g><path class="foreground" aria-hidden="true" d="" pointer-events="none" display="none"/></g></g><g class="mark-group role-scope" role="graphics-object" aria-roledescription="group mark container"><g transform="translate(5,593.7414034107675)"><path class="background" aria-hidden="true" d="M3.1292982946162624,0L86.87070170538374,0C88.5978084503059,0,90,1.4021915496940955,90,3.1292982946162624L90,6.258596589232525C90,6.258596589232525,90,6.258596589232525,90,6.258596589232525L0,6.258596589232525C0,6.258596589232525,0,6.258596589232525,0,6.258596589232525L0,3.1292982946162624C0,1.4021915496940955,1.4021915496940955,0,3.1292982946162624,0Z"/><g clip-path="url(#clip1)"><g class="mark-group role-scope" role="graphics-object" aria-roledescription="group mark container"><g transform="translate(0,-593.7414034107675)"><path class="background" aria-hidden="true" d="M0,0h90v0h-90Z"/><g><g class="mark-rect role-mark layer_0_marks" role="graphics-object" aria-roledescription="rect mark container"><path aria-label="Parser: yamlrocks&#xA;v0.2.1; Execution Time (seconds, lower=better): 0.362207175667; parser: yamlrocks; Execution Time (s): 0.3622; Slowdown: 1.00" role="graphics-symbol" aria-roledescription="bar" d="M0,593.7414034107675h90v6.258596589232525h-90Z" fill="#666666"/></g></g><path class="foreground" aria-hidden="true" d="" display="none"/></g></g></g><path class="foreground" aria-hidden="true" d="" display="none"/></g><g transform="translate(105,593.3400230036042)"><path class="background" aria-hidden="true" d="M3.329988498197906,0L86.6700115018021,0C88.50788218534973,0,90,1.4921178146502705,90,3.329988498197906L90,6.659976996395812C90,6.659976996395812,90,6.659976996395812,90,6.659976996395812L0,6.659976996395812C0,6.659976996395812,0,6.659976996395812,0,6.659976996395812L0,3.329988498197906C0,1.4921178146502705,1.4921178146502705,0,3.329988498197906,0Z"/><g clip-path="url(#clip2)"><g class="mark-group role-scope" role="graphics-object" aria-roledescription="group mark container"><g transform="translate(0,-593.3400230036042)"><path class="background" aria-hidden="true" d="M0,0h90v0h-90Z"/><g><g class="mark-rect role-mark layer_0_marks" role="graphics-object" aria-roledescription="rect mark container"><path aria-label="Parser: yaml_rs (parse_dt=False)&#xA;v0.1.4; Execution Time (seconds, lower=better): 0.385436483; parser: yaml_rs (parse_dt=False); Execution Time (s): 0.3854; Slowdown: 1.06" role="graphics-symbol" aria-roledescription="bar" d="M0,593.3400230036042h90v6.659976996395812h-90Z" fill="#a6761d"/></g></g><path class="foreground" aria-hidden="true" d="" display="none"/></g></g></g><path class="foreground" aria-hidden="true" d="" display="none"/></g><g transform="translate(205,593.3255863096589)"><path class="background" aria-hidden="true" d="M3.337206845170556,0L86.66279315482944,0C88.5046477525233,0,90,1.495352247476704,90,3.337206845170556L90,6.674413690341112C90,6.674413690341112,90,6.674413690341112,90,6.674413690341112L0,6.674413690341112C0,6.674413690341112,0,6.674413690341112,0,6.674413690341112L0,3.337206845170556C0,1.495352247476704,1.495352247476704,0,3.337206845170556,0Z"/><g clip-path="url(#clip3)"><g class="mark-group role-scope" role="graphics-object" aria-roledescription="group mark container"><g transform="translate(0,-593.3255863096589)"><path class="background" aria-hidden="true" d="M0,0h90v0h-90Z"/><g><g class="mark-rect role-mark layer_0_marks" role="graphics-object" aria-roledescription="rect mark container"><path aria-label="Parser: yaml_rs&#xA;v0.1.4; Execution Time (seconds, lower=better): 0.386271985667; parser: yaml_rs; Execution Time (s): 0.3863; Slowdown: 1.07" role="graphics-symbol" aria-roledescription="bar" d="M0,593.3255863096589h90v6.674413690341112h-90Z" fill="#e6ab02"/></g></g><path class="foreground" aria-hidden="true" d="" display="none"/></g></g></g><path class="foreground" aria-hidden="true" d="" display="none"/></g><g transform="translate(305,588.4553215401045)"><path class="background" aria-hidden="true" d="M5.772339229947761,0L84.22766077005224,0C87.41350151753653,0,90,2.5864984824634654,90,5.772339229947761L90,11.544678459895522C90,11.544678459895522,90,11.544678459895522,90,11.544678459895522L0,11.544678459895522C0,11.544678459895522,0,11.544678459895522,0,11.544678459895522L0,5.772339229947761C0,2.5864984824634654,2.5864984824634654,0,5.772339229947761,0Z"/><g clip-path="url(#clip4)"><g class="mark-group role-scope" role="graphics-object" aria-roledescription="group mark container"><g transform="translate(0,-588.4553215401045)"><path class="background" aria-hidden="true" d="M0,0h90v0h-90Z"/><g><g class="mark-rect role-mark layer_0_marks" role="graphics-object" aria-roledescription="rect mark container"><path aria-label="Parser: ryaml&#xA;v0.5.1; Execution Time (seconds, lower=better): 0.668131476333; parser: ryaml; Execution Time (s): 0.6681; Slowdown: 1.84" role="graphics-symbol" aria-roledescription="bar" d="M0,588.4553215401045h90v11.544678459895522h-90Z" fill="#66a61e"/></g></g><path class="foreground" aria-hidden="true" d="" display="none"/></g></g></g><path class="foreground" aria-hidden="true" d="" display="none"/></g><g transform="translate(405,563.0815614313352)"><path class="background" aria-hidden="true" d="M6,0L84,0C87.311490146964,0,90,2.688509853036,90,6L90,36.91843856866478C90,36.91843856866478,90,36.91843856866478,90,36.91843856866478L0,36.91843856866478C0,36.91843856866478,0,36.91843856866478,0,36.91843856866478L0,6C0,2.688509853036,2.688509853036,0,6,0Z"/><g clip-path="url(#clip5)"><g class="mark-group role-scope" role="graphics-object" aria-roledescription="group mark container"><g transform="translate(0,-563.0815614313352)"><path class="background" aria-hidden="true" d="M0,0h90v0h-90Z"/><g><g class="mark-rect role-mark layer_0_marks" role="graphics-object" aria-roledescription="rect mark container"><path aria-label="Parser: PyYAML (CLoader)&#xA;v6.0.3; Execution Time (seconds, lower=better): 2.13660094133; parser: PyYAML (CLoader); Execution Time (s): 2.1366; Slowdown: 5.90" role="graphics-symbol" aria-roledescription="bar" d="M0,563.0815614313352h90v36.91843856866478h-90Z" fill="#d95f02"/></g></g><path class="foreground" aria-hidden="true" d="" display="none"/></g></g></g><path class="foreground" aria-hidden="true" d="" display="none"/></g><g transform="translate(505,179.5663793776274)"><path class="background" aria-hidden="true" d="M6,0L84,0C87.311490146964,0,90,2.688509853036,90,6L90,420.4336206223726C90,420.4336206223726,90,420.4336206223726,90,420.4336206223726L0,420.4336206223726C0,420.4336206223726,0,420.4336206223726,0,420.4336206223726L0,6C0,2.688509853036,2.688509853036,0,6,0Z"/><g clip-path="url(#clip6)"><g class="mark-group role-scope" role="graphics-object" aria-roledescription="group mark container"><g transform="translate(0,-179.5663793776274)"><path class="background" aria-hidden="true" d="M0,0h90v0h-90Z"/><g><g class="mark-rect role-mark layer_0_marks" role="graphics-object" aria-roledescription="rect mark container"><path aria-label="Parser: oyaml&#xA;v1.0; Execution Time (seconds, lower=better): 24.331984353; parser: oyaml; Execution Time (s): 24.3320; Slowdown: 67.18" role="graphics-symbol" aria-roledescription="bar" d="M0,179.5663793776274h90v420.4336206223726h-90Z" fill="#7570b3"/></g></g><path class="foreground" aria-hidden="true" d="" display="none"/></g></g></g><path class="foreground" aria-hidden="true" d="" display="none"/></g><g transform="translate(605,173.0619576392666)"><path class="background" aria-hidden="true" d="M6,0L84,0C87.311490146964,0,90,2.688509853036,90,6L90,426.9380423607334C90,426.9380423607334,90,426.9380423607334,90,426.9380423607334L0,426.9380423607334C0,426.9380423607334,0,426.9380423607334,0,426.9380423607334L0,6C0,2.688509853036,2.688509853036,0,6,0Z"/><g clip-path="url(#clip7)"><g class="mark-group role-scope" role="graphics-object" aria-roledescription="group mark container"><g transform="translate(0,-173.0619576392666)"><path class="background" aria-hidden="true" d="M0,0h90v0h-90Z"/><g><g class="mark-rect role-mark layer_0_marks" role="graphics-object" aria-roledescription="rect mark container"><path aria-label="Parser: PyYAML&#xA;v6.0.3; Execution Time (seconds, lower=better): 24.7084183017; parser: PyYAML; Execution Time (s): 24.7084; Slowdown: 68.22" role="graphics-symbol" aria-roledescription="bar" d="M0,173.0619576392666h90v426.9380423607334h-90Z" fill="#1b9e77"/></g></g><path class="foreground" aria-hidden="true" d="" display="none"/></g></g></g><path class="foreground" aria-hidden="true" d="" display="none"/></g><g transform="translate(705,23.076923076923062)"><path class="background" aria-hidden="true" d="M6,0L84,0C87.311490146964,0,90,2.688509853036,90,6L90,576.9230769230769C90,576.9230769230769,90,576.9230769230769,90,576.9230769230769L0,576.9230769230769C0,576.9230769230769,0,576.9230769230769,0,576.9230769230769L0,6C0,2.688509853036,2.688509853036,0,6,0Z"/><g clip-path="url(#clip8)"><g class="mark-group role-scope" role="graphics-object" aria-roledescription="group mark container"><g transform="translate(0,-23.076923076923062)"><path class="background" aria-hidden="true" d="M0,0h90v0h-90Z"/><g><g class="mark-rect role-mark layer_0_marks" role="graphics-object" aria-roledescription="rect mark container"><path aria-label="Parser: ruamel.yaml&#xA;v0.19.1; Execution Time (seconds, lower=better): 33.3885840523; parser: ruamel.yaml; Execution Time (s): 33.3886; Slowdown: 92.18" role="graphics-symbol" aria-roledescription="bar" d="M0,23.076923076923062h90v576.9230769230769h-90Z" fill="#e7298a"/></g></g><path class="foreground" aria-hidden="true" d="" display="none"/></g></g></g><path class="foreground" aria-hidden="true" d="" display="none"/></g></g><g class="mark-text role-mark layer_1_marks" role="graphics-object" aria-roledescription="text mark container"><text aria-label="Parser: yamlrocks&#xA;v0.2.1; Execution Time (seconds, lower=better): 0.362207175667; parser: yamlrocks; label: 0.3622s (x1.00); Execution Time (s): 0.3622; Slowdown: 1.00" role="graphics-symbol" aria-roledescription="text mark" text-anchor="middle" transform="translate(50,589.7414034107675)" font-family="sans-serif" font-size="9px" font-weight="bold" fill="#666666">0.3622s (x1.00)</text><text aria-label="Parser: yaml_rs (parse_dt=False)&#xA;v0.1.4; Execution Time (seconds, lower=better): 0.385436483; parser: yaml_rs (parse_dt=False); label: 0.3854s (x1.06); Execution Time (s): 0.3854; Slowdown: 1.06" role="graphics-symbol" aria-roledescription="text mark" text-anchor="middle" transform="translate(150,589.3400230036042)" font-family="sans-serif" font-size="9px" font-weight="bold" fill="#a6761d">0.3854s (x1.06)</text><text aria-label="Parser: yaml_rs&#xA;v0.1.4; Execution Time (seconds, lower=better): 0.386271985667; parser: yaml_rs; label: 0.3863s (x1.07); Execution Time (s): 0.3863; Slowdown: 1.07" role="graphics-symbol" aria-roledescription="text mark" text-anchor="middle" transform="translate(250,589.3255863096589)" font-family="sans-serif" font-size="9px" font-weight="bold" fill="#e6ab02">0.3863s (x1.07)</text><text aria-label="Parser: ryaml&#xA;v0.5.1; Execution Time (seconds, lower=better): 0.668131476333; parser: ryaml; label: 0.6681s (x1.84); Execution Time (s): 0.6681; Slowdown: 1.84" role="graphics-symbol" aria-roledescription="text mark" text-anchor="middle" transform="translate(350,584.4553215401045)" font-family="sans-serif" font-size="9px" font-weight="bold" fill="#66a61e">0.6681s (x1.84)</text><text aria-label="Parser: PyYAML (CLoader)&#xA;v6.0.3; Execution Time (seconds, lower=better): 2.13660094133; parser: PyYAML (CLoader); label: 2.1366s (x5.90); Execution Time (s): 2.1366; Slowdown: 5.90" role="graphics-symbol" aria-roledescription="text mark" text-anchor="middle" transform="translate(450,559.0815614313352)" font-family="sans-serif" font-size="9px" font-weight="bold" fill="#d95f02">2.1366s (x5.90)</text><text aria-label="Parser: oyaml&#xA;v1.0; Execution Time (seconds, lower=better): 24.331984353; parser: oyaml; label: 24.3320s (x67.18); Execution Time (s): 24.3320; Slowdown: 67.18" role="graphics-symbol" aria-roledescription="text mark" text-anchor="middle" transform="translate(550,175.5663793776274)" font-family="sans-serif" font-size="9px" font-weight="bold" fill="#7570b3">24.3320s (x67.18)</text><text aria-label="Parser: PyYAML&#xA;v6.0.3; Execution Time (seconds, lower=better): 24.7084183017; parser: PyYAML; label: 24.7084s (x68.22); Execution Time (s): 24.7084; Slowdown: 68.22" role="graphics-symbol" aria-roledescription="text mark" text-anchor="middle" transform="translate(650,169.0619576392666)" font-family="sans-serif" font-size="9px" font-weight="bold" fill="#1b9e77">24.7084s (x68.22)</text><text aria-label="Parser: ruamel.yaml&#xA;v0.19.1; Execution Time (seconds, lower=better): 33.3885840523; parser: ruamel.yaml; label: 33.3886s (x92.18); Execution Time (s): 33.3886; Slowdown: 92.18" role="graphics-symbol" aria-roledescription="text mark" text-anchor="middle" transform="translate(750,19.076923076923062)" font-family="sans-serif" font-size="9px" font-weight="bold" fill="#e7298a">33.3886s (x92.18)</text></g><g class="mark-group role-title"><g transform="translate(400,-31)"><path class="background" aria-hidden="true" d="M0,0h0v0h0Z" pointer-events="none"/><g><g class="mark-text role-title-text" role="graphics-symbol" aria-roledescription="title" aria-label="Title text 'YAML parsers benchmark (loads)'" pointer-events="none"><text text-anchor="middle" transform="translate(0,10)" font-family="sans-serif" font-size="13px" font-weight="bold" fill="#000" opacity="1">YAML parsers benchmark (loads)</text></g><g class="mark-text role-title-subtitle" role="graphics-symbol" aria-roledescription="subtitle" aria-label="Subtitle text 'Python: 3.14.6 (Linux 6.17.0-1018-azure) | CPU: Intel(R) Xeon(R) Platinum 8370C CPU @ 2.80GHz'" pointer-events="none"><text text-anchor="middle" transform="translate(0,25)" font-family="sans-serif" font-size="12px" fill="#000" opacity="1">Python: 3.14.6 (Linux 6.17.0-1018-azure) | CPU: Intel(R) Xeon(R) Platinum 8370C CPU @ 2.80GHz</text></g></g><path class="foreground" aria-hidden="true" d="" pointer-events="none" display="none"/></g></g></g><path class="foreground" aria-hidden="true" d="" display="none"/></g></g></g><defs><clipPath id="clip1"><path d="M3.1292982946162624,0L86.87070170538374,0C88.5978084503059,0,90,1.4021915496940955,90,3.1292982946162624L90,6.258596589232525C90,6.258596589232525,90,6.258596589232525,90,6.258596589232525L0,6.258596589232525C0,6.258596589232525,0,6.258596589232525,0,6.258596589232525L0,3.1292982946162624C0,1.4021915496940955,1.4021915496940955,0,3.1292982946162624,0Z"/></clipPath><clipPath id="clip2"><path d="M3.329988498197906,0L86.6700115018021,0C88.50788218534973,0,90,1.4921178146502705,90,3.329988498197906L90,6.659976996395812C90,6.659976996395812,90,6.659976996395812,90,6.659976996395812L0,6.659976996395812C0,6.659976996395812,0,6.659976996395812,0,6.659976996395812L0,3.329988498197906C0,1.4921178146502705,1.4921178146502705,0,3.329988498197906,0Z"/></clipPath><clipPath id="clip3"><path d="M3.337206845170556,0L86.66279315482944,0C88.5046477525233,0,90,1.495352247476704,90,3.337206845170556L90,6.674413690341112C90,6.674413690341112,90,6.674413690341112,90,6.674413690341112L0,6.674413690341112C0,6.674413690341112,0,6.674413690341112,0,6.674413690341112L0,3.337206845170556C0,1.495352247476704,1.495352247476704,0,3.337206845170556,0Z"/></clipPath><clipPath id="clip4"><path d="M5.772339229947761,0L84.22766077005224,0C87.41350151753653,0,90,2.5864984824634654,90,5.772339229947761L90,11.544678459895522C90,11.544678459895522,90,11.544678459895522,90,11.544678459895522L0,11.544678459895522C0,11.544678459895522,0,11.544678459895522,0,11.544678459895522L0,5.772339229947761C0,2.5864984824634654,2.5864984824634654,0,5.772339229947761,0Z"/></clipPath><clipPath id="clip5"><path d="M6,0L84,0C87.311490146964,0,90,2.688509853036,90,6L90,36.91843856866478C90,36.91843856866478,90,36.91843856866478,90,36.91843856866478L0,36.91843856866478C0,36.91843856866478,0,36.91843856866478,0,36.91843856866478L0,6C0,2.688509853036,2.688509853036,0,6,0Z"/></clipPath><clipPath id="clip6"><path d="M6,0L84,0C87.311490146964,0,90,2.688509853036,90,6L90,420.4336206223726C90,420.4336206223726,90,420.4336206223726,90,420.4336206223726L0,420.4336206223726C0,420.4336206223726,0,420.4336206223726,0,420.4336206223726L0,6C0,2.688509853036,2.688509853036,0,6,0Z"/></clipPath><clipPath id="clip7"><path d="M6,0L84,0C87.311490146964,0,90,2.688509853036,90,6L90,426.9380423607334C90,426.9380423607334,90,426.9380423607334,90,426.9380423607334L0,426.9380423607334C0,426.9380423607334,0,426.9380423607334,0,426.9380423607334L0,6C0,2.688509853036,2.688509853036,0,6,0Z"/></clipPath><clipPath id="clip8"><path d="M6,0L84,0C87.311490146964,0,90,2.688509853036,90,6L90,576.9230769230769C90,576.9230769230769,90,576.9230769230769,90,576.9230769230769L0,576.9230769230769C0,576.9230769230769,0,576.9230769230769,0,576.9230769230769L0,6C0,2.688509853036,2.688509853036,0,6,0Z"/></clipPath></defs></svg>