<svg xmlns="http://www.w3.org/2000/svg" xmlns:xlink="http://www.w3.org/1999/xlink" version="1.1" class="marks" width="844" height="687" viewBox="0 0 844 687"><rect width="844" height="687" fill="white"/><g fill="none" stroke-miterlimit="10" transform="translate(39,36)"><g class="mark-group role-frame root" role="graphics-object" aria-roledescription="group mark container"><g transform="translate(0,0)"><path class="background" aria-hidden="true" d="M0.5,0.5h800v600h-800Z" stroke="#ddd"/><g><g class="mark-group role-axis" role="graphics-symbol" aria-roledescription="axis" aria-label="X-axis titled 'Parser' for a discrete scale with 7 values: yamlrocks&#xA;0.6.1, yaml_rs&#xA;0.1.6, PyYAML (CDumper)&#xA;6.0.3, ryaml&#xA;0.5.1, PyYAML&#xA;6.0.3, oyaml&#xA;1.0, ruamel.yaml&#xA;0.19.1"><g transform="translate(0.5,600.5)"><path class="background" aria-hidden="true" d="M0,0h0v0h0Z" pointer-events="none"/><g><g class="mark-rule role-axis-tick" pointer-events="none"><line transform="translate(57,0)" x2="0" y2="5" stroke="#888" stroke-width="1" opacity="1"/><line transform="translate(171,0)" x2="0" y2="5" stroke="#888" stroke-width="1" opacity="1"/><line transform="translate(285,0)" x2="0" y2="5" stroke="#888" stroke-width="1" opacity="1"/><line transform="translate(400,0)" x2="0" y2="5" stroke="#888" stroke-width="1" opacity="1"/><line transform="translate(514,0)" x2="0" y2="5" stroke="#888" stroke-width="1" opacity="1"/><line transform="translate(628,0)" x2="0" y2="5" stroke="#888" stroke-width="1" opacity="1"/><line transform="translate(742,0)" x2="0" y2="5" stroke="#888" stroke-width="1" opacity="1"/></g><g class="mark-text role-axis-label" pointer-events="none"><text text-anchor="middle" transform="translate(56.642857142857096,15)" font-family="sans-serif" font-size="10px" fill="#000" opacity="1"><tspan>yamlrocks</tspan><tspan x="0" dy="14">0.6.1</tspan></text><text text-anchor="middle" transform="translate(170.9285714285714,15)" font-family="sans-serif" font-size="10px" fill="#000" opacity="1"><tspan>yaml_rs</tspan><tspan x="0" dy="14">0.1.6</tspan></text><text text-anchor="middle" transform="translate(285.21428571428567,15)" font-family="sans-serif" font-size="10px" fill="#000" opacity="1"><tspan>PyYAML (CDumper)</tspan><tspan x="0" dy="14">6.0.3</tspan></text><text text-anchor="middle" transform="translate(399.5,15)" font-family="sans-serif" font-size="10px" fill="#000" opacity="1"><tspan>ryaml</tspan><tspan x="0" dy="14">0.5.1</tspan></text><text text-anchor="middle" transform="translate(513.7857142857142,15)" font-family="sans-serif" font-size="10px" fill="#000" opacity="1"><tspan>PyYAML</tspan><tspan x="0" dy="14">6.0.3</tspan></text><text text-anchor="middle" transform="translate(628.0714285714286,15)" font-family="sans-serif" font-size="10px" fill="#000" opacity="1"><tspan>oyaml</tspan><tspan x="0" dy="14">1.0</tspan></text><text text-anchor="middle" transform="translate(742.3571428571429,15)" font-family="sans-serif" font-size="10px" fill="#000" opacity="1"><tspan>ruamel.yaml</tspan><tspan x="0" dy="14">0.19.1</tspan></text></g><g class="mark-rule role-axis-domain" pointer-events="none"><line transform="translate(0,0)" x2="800" y2="0" stroke="#888" stroke-width="1" opacity="1"/></g><g class="mark-text role-axis-title" pointer-events="none"><text text-anchor="middle" transform="translate(400,44)" font-family="sans-serif" font-size="11px" font-weight="bold" fill="#000" opacity="1">Parser</text></g></g><path class="foreground" aria-hidden="true" d="" pointer-events="none" display="none"/></g></g><g class="mark-group role-axis" role="graphics-symbol" aria-roledescription="axis" aria-label="Y-axis titled 'Execution Time (seconds, lower=better)' for a linear scale with values from 0 to 13"><g transform="translate(0.5,0.5)"><path class="background" aria-hidden="true" d="M0,0h0v0h0Z" pointer-events="none"/><g><g class="mark-rule role-axis-tick" pointer-events="none"><line transform="translate(0,600)" x2="-5" y2="0" stroke="#888" stroke-width="1" opacity="1"/><line transform="translate(0,555)" x2="-5" y2="0" stroke="#888" stroke-width="1" opacity="1"/><line transform="translate(0,511)" x2="-5" y2="0" stroke="#888" stroke-width="1" opacity="1"/><line transform="translate(0,466)" x2="-5" y2="0" stroke="#888" stroke-width="1" opacity="1"/><line transform="translate(0,422)" x2="-5" y2="0" stroke="#888" stroke-width="1" opacity="1"/><line transform="translate(0,377)" x2="-5" y2="0" stroke="#888" stroke-width="1" opacity="1"/><line transform="translate(0,333)" x2="-5" y2="0" stroke="#888" stroke-width="1" opacity="1"/><line transform="translate(0,288)" x2="-5" y2="0" stroke="#888" stroke-width="1" opacity="1"/><line transform="translate(0,244)" x2="-5" y2="0" stroke="#888" stroke-width="1" opacity="1"/><line transform="translate(0,199)" x2="-5" y2="0" stroke="#888" stroke-width="1" opacity="1"/><line transform="translate(0,154)" x2="-5" y2="0" stroke="#888" stroke-width="1" opacity="1"/><line transform="translate(0,110)" x2="-5" y2="0" stroke="#888" stroke-width="1" opacity="1"/><line transform="translate(0,65)" x2="-5" y2="0" stroke="#888" stroke-width="1" opacity="1"/><line transform="translate(0,21)" x2="-5" y2="0" stroke="#888" stroke-width="1" opacity="1"/></g><g class="mark-text role-axis-label" pointer-events="none"><text text-anchor="end" transform="translate(-7,603)" font-family="sans-serif" font-size="10px" fill="#000" opacity="1">0</text><text text-anchor="end" transform="translate(-7,558.4448285229626)" font-family="sans-serif" font-size="10px" fill="#000" opacity="1">1</text><text text-anchor="end" transform="translate(-7,513.8896570459251)" font-family="sans-serif" font-size="10px" fill="#000" opacity="1">2</text><text text-anchor="end" transform="translate(-7,469.33448556888766)" font-family="sans-serif" font-size="10px" fill="#000" opacity="1">3</text><text text-anchor="end" transform="translate(-7,424.7793140918503)" font-family="sans-serif" font-size="10px" fill="#000" opacity="1">4</text><text text-anchor="end" transform="translate(-7,380.2241426148128)" font-family="sans-serif" font-size="10px" fill="#000" opacity="1">5</text><text text-anchor="end" transform="translate(-7,335.6689711377754)" font-family="sans-serif" font-size="10px" fill="#000" opacity="1">6</text><text text-anchor="end" transform="translate(-7,291.113799660738)" font-family="sans-serif" font-size="10px" fill="#000" opacity="1">7</text><text text-anchor="end" transform="translate(-7,246.55862818370053)" font-family="sans-serif" font-size="10px" fill="#000" opacity="1">8</text><text text-anchor="end" transform="translate(-7,202.00345670666303)" font-family="sans-serif" font-size="10px" fill="#000" opacity="1">9</text><text text-anchor="end" transform="translate(-7,157.4482852296256)" font-family="sans-serif" font-size="10px" fill="#000" opacity="1">10</text><text text-anchor="end" transform="translate(-7,112.89311375258819)" font-family="sans-serif" font-size="10px" fill="#000" opacity="1">11</text><text text-anchor="end" transform="translate(-7,68.33794227555076)" font-family="sans-serif" font-size="10px" fill="#000" opacity="1">12</text><text text-anchor="end" transform="translate(-7,23.78277079851334)" font-family="sans-serif" font-size="10px" fill="#000" opacity="1">13</text></g><g class="mark-rule role-axis-domain" pointer-events="none"><line transform="translate(0,600)" x2="0" y2="-600" stroke="#888" stroke-width="1" opacity="1"/></g><g class="mark-text role-axis-title" pointer-events="none"><text text-anchor="middle" transform="translate(-22.123046875,300) rotate(-90) translate(0,-2)" font-family="sans-serif" font-size="11px" font-weight="bold" fill="#000" opacity="1">Execution Time (seconds, lower=better)</text></g></g><path class="foreground" aria-hidden="true" d="" pointer-events="none" display="none"/></g></g><g class="mark-group role-scope" role="graphics-object" aria-roledescription="group mark container"><g transform="translate(5.714285714285666,598.1160696447672)"><path class="background" aria-hidden="true" d="M0.941965177616396,0L101.91517767952647,0C102.43506241360312,0,102.85714285714286,0.4220804435397477,102.85714285714286,0.941965177616396L102.85714285714286,1.883930355232792C102.85714285714286,1.883930355232792,102.85714285714286,1.883930355232792,102.85714285714286,1.883930355232792L0,1.883930355232792C0,1.883930355232792,0,1.883930355232792,0,1.883930355232792L0,0.941965177616396C0,0.4220804435397477,0.4220804435397477,0,0.941965177616396,0Z"/><g clip-path="url(#clip9)"><g class="mark-group role-scope" role="graphics-object" aria-roledescription="group mark container"><g transform="translate(0,-598.1160696447672)"><path class="background" aria-hidden="true" d="M0,0h102.85714285714286v0h-102.85714285714286Z"/><g><g class="mark-rect role-mark layer_0_marks" role="graphics-object" aria-roledescription="rect mark container"><path aria-label="Parser: yamlrocks&#xA;0.6.1; Execution Time (seconds, lower=better): 0.0422830906667; parser: yamlrocks; Execution Time (s): 0.0423; Slowdown: 1.00" role="graphics-symbol" aria-roledescription="bar" d="M0,598.1160696447672h102.85714285714286v1.883930355232792h-102.85714285714286Z" fill="#a6761d"/></g></g><path class="foreground" aria-hidden="true" d="" display="none"/></g></g></g><path class="foreground" aria-hidden="true" d="" display="none"/></g><g transform="translate(119.99999999999996,597.1691320654598)"><path class="background" aria-hidden="true" d="M1.4154339672700758,0L101.44170888987279,0C102.22290816258828,0,102.85714285714286,0.6342346945545724,102.85714285714286,1.4154339672700758L102.85714285714286,2.8308679345401515C102.85714285714286,2.8308679345401515,102.85714285714286,2.8308679345401515,102.85714285714286,2.8308679345401515L0,2.8308679345401515C0,2.8308679345401515,0,2.8308679345401515,0,2.8308679345401515L0,1.4154339672700758C0,0.6342346945545724,0.6342346945545724,0,1.4154339672700758,0Z"/><g clip-path="url(#clip10)"><g class="mark-group role-scope" role="graphics-object" aria-roledescription="group mark container"><g transform="translate(0,-597.1691320654598)"><path class="background" aria-hidden="true" d="M0,0h102.85714285714286v0h-102.85714285714286Z"/><g><g class="mark-rect role-mark layer_0_marks" role="graphics-object" aria-roledescription="rect mark container"><path aria-label="Parser: yaml_rs&#xA;0.1.6; Execution Time (seconds, lower=better): 0.063536237; parser: yaml_rs; Execution Time (s): 0.0635; Slowdown: 1.50" role="graphics-symbol" aria-roledescription="bar" d="M0,597.1691320654598h102.85714285714286v2.8308679345401515h-102.85714285714286Z" fill="#e6ab02"/></g></g><path class="foreground" aria-hidden="true" d="" display="none"/></g></g></g><path class="foreground" aria-hidden="true" d="" display="none"/></g><g transform="translate(234.28571428571425,591.5923179670681)"><path class="background" aria-hidden="true" d="M4.203841016465958,0L98.6533018406769,0C100.97346485824859,0,102.85714285714286,1.8836779988942671,102.85714285714286,4.203841016465958L102.85714285714286,8.407682032931916C102.85714285714286,8.407682032931916,102.85714285714286,8.407682032931916,102.85714285714286,8.407682032931916L0,8.407682032931916C0,8.407682032931916,0,8.407682032931916,0,8.407682032931916L0,4.203841016465958C0,1.8836779988942671,1.8836779988942671,0,4.203841016465958,0Z"/><g clip-path="url(#clip11)"><g class="mark-group role-scope" role="graphics-object" aria-roledescription="group mark container"><g transform="translate(0,-591.5923179670681)"><path class="background" aria-hidden="true" d="M0,0h102.85714285714286v0h-102.85714285714286Z"/><g><g class="mark-rect role-mark layer_0_marks" role="graphics-object" aria-roledescription="rect mark container"><path aria-label="Parser: PyYAML (CDumper)&#xA;6.0.3; Execution Time (seconds, lower=better): 0.188702719667; parser: PyYAML (CDumper); Execution Time (s): 0.1887; Slowdown: 4.46" role="graphics-symbol" aria-roledescription="bar" d="M0,591.5923179670681h102.85714285714286v8.407682032931916h-102.85714285714286Z" fill="#d95f02"/></g></g><path class="foreground" aria-hidden="true" d="" display="none"/></g></g></g><path class="foreground" aria-hidden="true" d="" display="none"/></g><g transform="translate(348.57142857142856,591.4021450148222)"><path class="background" aria-hidden="true" d="M4.298927492588916,0L98.55821536455394,0C100.93085803692409,0,102.85714285714286,1.9262848202187746,102.85714285714286,4.298927492588916L102.85714285714286,8.597854985177833C102.85714285714286,8.597854985177833,102.85714285714286,8.597854985177833,102.85714285714286,8.597854985177833L0,8.597854985177833C0,8.597854985177833,0,8.597854985177833,0,8.597854985177833L0,4.298927492588916C0,1.9262848202187746,1.9262848202187746,0,4.298927492588916,0Z"/><g clip-path="url(#clip12)"><g class="mark-group role-scope" role="graphics-object" aria-roledescription="group mark container"><g transform="translate(0,-591.4021450148222)"><path class="background" aria-hidden="true" d="M0,0h102.85714285714286v0h-102.85714285714286Z"/><g><g class="mark-rect role-mark layer_0_marks" role="graphics-object" aria-roledescription="rect mark container"><path aria-label="Parser: ryaml&#xA;0.5.1; Execution Time (seconds, lower=better): 0.192970977333; parser: ryaml; Execution Time (s): 0.1930; Slowdown: 4.56" role="graphics-symbol" aria-roledescription="bar" d="M0,591.4021450148222h102.85714285714286v8.597854985177833h-102.85714285714286Z" fill="#66a61e"/></g></g><path class="foreground" aria-hidden="true" d="" display="none"/></g></g></g><path class="foreground" aria-hidden="true" d="" display="none"/></g><g transform="translate(462.85714285714283,50.98299659679575)"><path class="background" aria-hidden="true" d="M6,0L96.85714285714286,0C100.16863300410687,0,102.85714285714286,2.688509853036,102.85714285714286,6L102.85714285714286,549.0170034032043C102.85714285714286,549.0170034032043,102.85714285714286,549.0170034032043,102.85714285714286,549.0170034032043L0,549.0170034032043C0,549.0170034032043,0,549.0170034032043,0,549.0170034032043L0,6C0,2.688509853036,2.688509853036,0,6,0Z"/><g clip-path="url(#clip13)"><g class="mark-group role-scope" role="graphics-object" aria-roledescription="group mark container"><g transform="translate(0,-50.98299659679575)"><path class="background" aria-hidden="true" d="M0,0h102.85714285714286v0h-102.85714285714286Z"/><g><g class="mark-rect role-mark layer_0_marks" role="graphics-object" aria-roledescription="rect mark container"><path aria-label="Parser: PyYAML&#xA;6.0.3; Execution Time (seconds, lower=better): 12.322183603; parser: PyYAML; Execution Time (s): 12.3222; Slowdown: 291.42" role="graphics-symbol" aria-roledescription="bar" d="M0,50.98299659679575h102.85714285714286v549.0170034032043h-102.85714285714286Z" fill="#1b9e77"/></g></g><path class="foreground" aria-hidden="true" d="" display="none"/></g></g></g><path class="foreground" aria-hidden="true" d="" display="none"/></g><g transform="translate(577.1428571428571,46.14733301810172)"><path class="background" aria-hidden="true" d="M6,0L96.85714285714286,0C100.16863300410687,0,102.85714285714286,2.688509853036,102.85714285714286,6L102.85714285714286,553.8526669818983C102.85714285714286,553.8526669818983,102.85714285714286,553.8526669818983,102.85714285714286,553.8526669818983L0,553.8526669818983C0,553.8526669818983,0,553.8526669818983,0,553.8526669818983L0,6C0,2.688509853036,2.688509853036,0,6,0Z"/><g clip-path="url(#clip14)"><g class="mark-group role-scope" role="graphics-object" aria-roledescription="group mark container"><g transform="translate(0,-46.14733301810172)"><path class="background" aria-hidden="true" d="M0,0h102.85714285714286v0h-102.85714285714286Z"/><g><g class="mark-rect role-mark layer_0_marks" role="graphics-object" aria-roledescription="rect mark container"><path aria-label="Parser: oyaml&#xA;1.0; Execution Time (seconds, lower=better): 12.4307156413; parser: oyaml; Execution Time (s): 12.4307; Slowdown: 293.99" role="graphics-symbol" aria-roledescription="bar" d="M0,46.14733301810172h102.85714285714286v553.8526669818983h-102.85714285714286Z" fill="#7570b3"/></g></g><path class="foreground" aria-hidden="true" d="" display="none"/></g></g></g><path class="foreground" aria-hidden="true" d="" display="none"/></g><g transform="translate(691.4285714285714,28.571428571428605)"><path class="background" aria-hidden="true" d="M6,0L96.85714285714286,0C100.16863300410687,0,102.85714285714286,2.688509853036,102.85714285714286,6L102.85714285714286,571.4285714285714C102.85714285714286,571.4285714285714,102.85714285714286,571.4285714285714,102.85714285714286,571.4285714285714L0,571.4285714285714C0,571.4285714285714,0,571.4285714285714,0,571.4285714285714L0,6C0,2.688509853036,2.688509853036,0,6,0Z"/><g clip-path="url(#clip15)"><g class="mark-group role-scope" role="graphics-object" aria-roledescription="group mark container"><g transform="translate(0,-28.571428571428605)"><path class="background" aria-hidden="true" d="M0,0h102.85714285714286v0h-102.85714285714286Z"/><g><g class="mark-rect role-mark layer_0_marks" role="graphics-object" aria-roledescription="rect mark container"><path aria-label="Parser: ruamel.yaml&#xA;0.19.1; Execution Time (seconds, lower=better): 12.8251907127; parser: ruamel.yaml; Execution Time (s): 12.8252; Slowdown: 303.32" role="graphics-symbol" aria-roledescription="bar" d="M0,28.571428571428605h102.85714285714286v571.4285714285714h-102.85714285714286Z" fill="#e7298a"/></g></g><path class="foreground" aria-hidden="true" d="" display="none"/></g></g></g><path class="foreground" aria-hidden="true" d="" display="none"/></g></g><g class="mark-text role-mark layer_1_marks" role="graphics-object" aria-roledescription="text mark container"><text aria-label="Parser: yamlrocks&#xA;0.6.1; Execution Time (seconds, lower=better): 0.0422830906667; parser: yamlrocks; label: 0.0423s (x1.00); Execution Time (s): 0.0423; Slowdown: 1.00" role="graphics-symbol" aria-roledescription="text mark" text-anchor="middle" transform="translate(57.142857142857096,594.1160696447672)" font-family="sans-serif" font-size="9px" font-weight="bold" fill="#a6761d">0.0423s (x1.00)</text><text aria-label="Parser: yaml_rs&#xA;0.1.6; Execution Time (seconds, lower=better): 0.063536237; parser: yaml_rs; label: 0.0635s (x1.50); Execution Time (s): 0.0635; Slowdown: 1.50" role="graphics-symbol" aria-roledescription="text mark" text-anchor="middle" transform="translate(171.4285714285714,593.1691320654598)" font-family="sans-serif" font-size="9px" font-weight="bold" fill="#e6ab02">0.0635s (x1.50)</text><text aria-label="Parser: PyYAML (CDumper)&#xA;6.0.3; Execution Time (seconds, lower=better): 0.188702719667; parser: PyYAML (CDumper); label: 0.1887s (x4.46); Execution Time (s): 0.1887; Slowdown: 4.46" role="graphics-symbol" aria-roledescription="text mark" text-anchor="middle" transform="translate(285.71428571428567,587.5923179670681)" font-family="sans-serif" font-size="9px" font-weight="bold" fill="#d95f02">0.1887s (x4.46)</text><text aria-label="Parser: ryaml&#xA;0.5.1; Execution Time (seconds, lower=better): 0.192970977333; parser: ryaml; label: 0.1930s (x4.56); Execution Time (s): 0.1930; Slowdown: 4.56" role="graphics-symbol" aria-roledescription="text mark" text-anchor="middle" transform="translate(400,587.4021450148222)" font-family="sans-serif" font-size="9px" font-weight="bold" fill="#66a61e">0.1930s (x4.56)</text><text aria-label="Parser: PyYAML&#xA;6.0.3; Execution Time (seconds, lower=better): 12.322183603; parser: PyYAML; label: 12.3222s (x291.42); Execution Time (s): 12.3222; Slowdown: 291.42" role="graphics-symbol" aria-roledescription="text mark" text-anchor="middle" transform="translate(514.2857142857142,46.98299659679575)" font-family="sans-serif" font-size="9px" font-weight="bold" fill="#1b9e77">12.3222s (x291.42)</text><text aria-label="Parser: oyaml&#xA;1.0; Execution Time (seconds, lower=better): 12.4307156413; parser: oyaml; label: 12.4307s (x293.99); Execution Time (s): 12.4307; Slowdown: 293.99" role="graphics-symbol" aria-roledescription="text mark" text-anchor="middle" transform="translate(628.5714285714286,42.14733301810172)" font-family="sans-serif" font-size="9px" font-weight="bold" fill="#7570b3">12.4307s (x293.99)</text><text aria-label="Parser: ruamel.yaml&#xA;0.19.1; Execution Time (seconds, lower=better): 12.8251907127; parser: ruamel.yaml; label: 12.8252s (x303.32); Execution Time (s): 12.8252; Slowdown: 303.32" role="graphics-symbol" aria-roledescription="text mark" text-anchor="middle" transform="translate(742.8571428571429,24.571428571428605)" font-family="sans-serif" font-size="9px" font-weight="bold" fill="#e7298a">12.8252s (x303.32)</text></g><g class="mark-group role-title"><g transform="translate(400,-31)"><path class="background" aria-hidden="true" d="M0,0h0v0h0Z" pointer-events="none"/><g><g class="mark-text role-title-text" role="graphics-symbol" aria-roledescription="title" aria-label="Title text 'YAML parsers benchmark (dumps)'" pointer-events="none"><text text-anchor="middle" transform="translate(0,10)" font-family="sans-serif" font-size="13px" font-weight="bold" fill="#000" opacity="1">YAML parsers benchmark (dumps)</text></g><g class="mark-text role-title-subtitle" role="graphics-symbol" aria-roledescription="subtitle" aria-label="Subtitle text 'Python: 3.14.6 (Linux 6.17.0-1020-azure) | CPU: AMD EPYC 7763 64-Core Processor'" pointer-events="none"><text text-anchor="middle" transform="translate(0,25)" font-family="sans-serif" font-size="12px" fill="#000" opacity="1">Python: 3.14.6 (Linux 6.17.0-1020-azure) | CPU: AMD EPYC 7763 64-Core Processor</text></g></g><path class="foreground" aria-hidden="true" d="" pointer-events="none" display="none"/></g></g></g><path class="foreground" aria-hidden="true" d="" display="none"/></g></g></g><defs><clipPath id="clip9"><path d="M0.941965177616396,0L101.91517767952647,0C102.43506241360312,0,102.85714285714286,0.4220804435397477,102.85714285714286,0.941965177616396L102.85714285714286,1.883930355232792C102.85714285714286,1.883930355232792,102.85714285714286,1.883930355232792,102.85714285714286,1.883930355232792L0,1.883930355232792C0,1.883930355232792,0,1.883930355232792,0,1.883930355232792L0,0.941965177616396C0,0.4220804435397477,0.4220804435397477,0,0.941965177616396,0Z"/></clipPath><clipPath id="clip10"><path d="M1.4154339672700758,0L101.44170888987279,0C102.22290816258828,0,102.85714285714286,0.6342346945545724,102.85714285714286,1.4154339672700758L102.85714285714286,2.8308679345401515C102.85714285714286,2.8308679345401515,102.85714285714286,2.8308679345401515,102.85714285714286,2.8308679345401515L0,2.8308679345401515C0,2.8308679345401515,0,2.8308679345401515,0,2.8308679345401515L0,1.4154339672700758C0,0.6342346945545724,0.6342346945545724,0,1.4154339672700758,0Z"/></clipPath><clipPath id="clip11"><path d="M4.203841016465958,0L98.6533018406769,0C100.97346485824859,0,102.85714285714286,1.8836779988942671,102.85714285714286,4.203841016465958L102.85714285714286,8.407682032931916C102.85714285714286,8.407682032931916,102.85714285714286,8.407682032931916,102.85714285714286,8.407682032931916L0,8.407682032931916C0,8.407682032931916,0,8.407682032931916,0,8.407682032931916L0,4.203841016465958C0,1.8836779988942671,1.8836779988942671,0,4.203841016465958,0Z"/></clipPath><clipPath id="clip12"><path d="M4.298927492588916,0L98.55821536455394,0C100.93085803692409,0,102.85714285714286,1.9262848202187746,102.85714285714286,4.298927492588916L102.85714285714286,8.597854985177833C102.85714285714286,8.597854985177833,102.85714285714286,8.597854985177833,102.85714285714286,8.597854985177833L0,8.597854985177833C0,8.597854985177833,0,8.597854985177833,0,8.597854985177833L0,4.298927492588916C0,1.9262848202187746,1.9262848202187746,0,4.298927492588916,0Z"/></clipPath><clipPath id="clip13"><path d="M6,0L96.85714285714286,0C100.16863300410687,0,102.85714285714286,2.688509853036,102.85714285714286,6L102.85714285714286,549.0170034032043C102.85714285714286,549.0170034032043,102.85714285714286,549.0170034032043,102.85714285714286,549.0170034032043L0,549.0170034032043C0,549.0170034032043,0,549.0170034032043,0,549.0170034032043L0,6C0,2.688509853036,2.688509853036,0,6,0Z"/></clipPath><clipPath id="clip14"><path d="M6,0L96.85714285714286,0C100.16863300410687,0,102.85714285714286,2.688509853036,102.85714285714286,6L102.85714285714286,553.8526669818983C102.85714285714286,553.8526669818983,102.85714285714286,553.8526669818983,102.85714285714286,553.8526669818983L0,553.8526669818983C0,553.8526669818983,0,553.8526669818983,0,553.8526669818983L0,6C0,2.688509853036,2.688509853036,0,6,0Z"/></clipPath><clipPath id="clip15"><path d="M6,0L96.85714285714286,0C100.16863300410687,0,102.85714285714286,2.688509853036,102.85714285714286,6L102.85714285714286,571.4285714285714C102.85714285714286,571.4285714285714,102.85714285714286,571.4285714285714,102.85714285714286,571.4285714285714L0,571.4285714285714C0,571.4285714285714,0,571.4285714285714,0,571.4285714285714L0,6C0,2.688509853036,2.688509853036,0,6,0Z"/></clipPath></defs></svg>