<svg xmlns="http://www.w3.org/2000/svg" xmlns:xlink="http://www.w3.org/1999/xlink" version="1.1" class="marks" width="844" height="687" viewBox="0 0 844 687"><rect width="844" height="687" fill="white"/><g fill="none" stroke-miterlimit="10" transform="translate(39,36)"><g class="mark-group role-frame root" role="graphics-object" aria-roledescription="group mark container"><g transform="translate(0,0)"><path class="background" aria-hidden="true" d="M0.5,0.5h800v600h-800Z" stroke="#ddd"/><g><g class="mark-group role-axis" role="graphics-symbol" aria-roledescription="axis" aria-label="X-axis titled 'Parser' for a discrete scale with 8 values: yamlrocks&#xA;0.6.1, yaml_rs (parse_dt=False)&#xA;0.1.6, yaml_rs&#xA;0.1.6, ryaml&#xA;0.5.1, PyYAML (CLoader)&#xA;6.0.3, ending with ruamel.yaml&#xA;0.19.1"><g transform="translate(0.5,600.5)"><path class="background" aria-hidden="true" d="M0,0h0v0h0Z" pointer-events="none"/><g><g class="mark-rule role-axis-tick" pointer-events="none"><line transform="translate(50,0)" x2="0" y2="5" stroke="#888" stroke-width="1" opacity="1"/><line transform="translate(150,0)" x2="0" y2="5" stroke="#888" stroke-width="1" opacity="1"/><line transform="translate(250,0)" x2="0" y2="5" stroke="#888" stroke-width="1" opacity="1"/><line transform="translate(350,0)" x2="0" y2="5" stroke="#888" stroke-width="1" opacity="1"/><line transform="translate(450,0)" x2="0" y2="5" stroke="#888" stroke-width="1" opacity="1"/><line transform="translate(550,0)" x2="0" y2="5" stroke="#888" stroke-width="1" opacity="1"/><line transform="translate(650,0)" x2="0" y2="5" stroke="#888" stroke-width="1" opacity="1"/><line transform="translate(750,0)" x2="0" y2="5" stroke="#888" stroke-width="1" opacity="1"/></g><g class="mark-text role-axis-label" pointer-events="none"><text text-anchor="middle" transform="translate(49.5,15)" font-family="sans-serif" font-size="10px" fill="#000" opacity="1"><tspan>yamlrocks</tspan><tspan x="0" dy="14">0.6.1</tspan></text><text text-anchor="middle" transform="translate(149.5,15)" font-family="sans-serif" font-size="10px" fill="#000" opacity="1"><tspan>yaml_rs (parse_dt=False)</tspan><tspan x="0" dy="14">0.1.6</tspan></text><text text-anchor="middle" transform="translate(249.5,15)" font-family="sans-serif" font-size="10px" fill="#000" opacity="1"><tspan>yaml_rs</tspan><tspan x="0" dy="14">0.1.6</tspan></text><text text-anchor="middle" transform="translate(349.5,15)" font-family="sans-serif" font-size="10px" fill="#000" opacity="1"><tspan>ryaml</tspan><tspan x="0" dy="14">0.5.1</tspan></text><text text-anchor="middle" transform="translate(449.5,15)" font-family="sans-serif" font-size="10px" fill="#000" opacity="1"><tspan>PyYAML (CLoader)</tspan><tspan x="0" dy="14">6.0.3</tspan></text><text text-anchor="middle" transform="translate(549.5,15)" font-family="sans-serif" font-size="10px" fill="#000" opacity="1"><tspan>PyYAML</tspan><tspan x="0" dy="14">6.0.3</tspan></text><text text-anchor="middle" transform="translate(649.5,15)" font-family="sans-serif" font-size="10px" fill="#000" opacity="1"><tspan>oyaml</tspan><tspan x="0" dy="14">1.0</tspan></text><text text-anchor="middle" transform="translate(749.5,15)" font-family="sans-serif" font-size="10px" fill="#000" opacity="1"><tspan>ruamel.yaml</tspan><tspan x="0" dy="14">0.19.1</tspan></text></g><g class="mark-rule role-axis-domain" pointer-events="none"><line transform="translate(0,0)" x2="800" y2="0" stroke="#888" stroke-width="1" opacity="1"/></g><g class="mark-text role-axis-title" pointer-events="none"><text text-anchor="middle" transform="translate(400,44)" font-family="sans-serif" font-size="11px" font-weight="bold" fill="#000" opacity="1">Parser</text></g></g><path class="foreground" aria-hidden="true" d="" pointer-events="none" display="none"/></g></g><g class="mark-group role-axis" role="graphics-symbol" aria-roledescription="axis" aria-label="Y-axis titled 'Execution Time (seconds, lower=better)' for a linear scale with values from 0 to 41"><g transform="translate(0.5,0.5)"><path class="background" aria-hidden="true" d="M0,0h0v0h0Z" pointer-events="none"/><g><g class="mark-rule role-axis-tick" pointer-events="none"><line transform="translate(0,600)" x2="-5" y2="0" stroke="#888" stroke-width="1" opacity="1"/><line transform="translate(0,570)" x2="-5" y2="0" stroke="#888" stroke-width="1" opacity="1"/><line transform="translate(0,541)" x2="-5" y2="0" stroke="#888" stroke-width="1" opacity="1"/><line transform="translate(0,511)" x2="-5" y2="0" stroke="#888" stroke-width="1" opacity="1"/><line transform="translate(0,482)" x2="-5" y2="0" stroke="#888" stroke-width="1" opacity="1"/><line transform="translate(0,452)" x2="-5" y2="0" stroke="#888" stroke-width="1" opacity="1"/><line transform="translate(0,423)" x2="-5" y2="0" stroke="#888" stroke-width="1" opacity="1"/><line transform="translate(0,393)" x2="-5" y2="0" stroke="#888" stroke-width="1" opacity="1"/><line transform="translate(0,363)" x2="-5" y2="0" stroke="#888" stroke-width="1" opacity="1"/><line transform="translate(0,334)" x2="-5" y2="0" stroke="#888" stroke-width="1" opacity="1"/><line transform="translate(0,304)" x2="-5" y2="0" stroke="#888" stroke-width="1" opacity="1"/><line transform="translate(0,275)" x2="-5" y2="0" stroke="#888" stroke-width="1" opacity="1"/><line transform="translate(0,245)" x2="-5" y2="0" stroke="#888" stroke-width="1" opacity="1"/><line transform="translate(0,216)" x2="-5" y2="0" stroke="#888" stroke-width="1" opacity="1"/><line transform="translate(0,186)" x2="-5" y2="0" stroke="#888" stroke-width="1" opacity="1"/><line transform="translate(0,156)" x2="-5" y2="0" stroke="#888" stroke-width="1" opacity="1"/><line transform="translate(0,127)" x2="-5" y2="0" stroke="#888" stroke-width="1" opacity="1"/><line transform="translate(0,97)" x2="-5" y2="0" stroke="#888" stroke-width="1" opacity="1"/><line transform="translate(0,68)" x2="-5" y2="0" stroke="#888" stroke-width="1" opacity="1"/><line transform="translate(0,38)" x2="-5" y2="0" stroke="#888" stroke-width="1" opacity="1"/><line transform="translate(0,9)" x2="-5" y2="0" stroke="#888" stroke-width="1" opacity="1"/></g><g class="mark-text role-axis-label" pointer-events="none"><text text-anchor="end" transform="translate(-7,603)" font-family="sans-serif" font-size="10px" fill="#000" opacity="1">0</text><text text-anchor="end" transform="translate(-7,573.4257955833717)" font-family="sans-serif" font-size="10px" fill="#000" opacity="1">2</text><text text-anchor="end" transform="translate(-7,543.8515911667434)" font-family="sans-serif" font-size="10px" fill="#000" opacity="1">4</text><text text-anchor="end" transform="translate(-7,514.2773867501153)" font-family="sans-serif" font-size="10px" fill="#000" opacity="1">6</text><text text-anchor="end" transform="translate(-7,484.70318233348695)" font-family="sans-serif" font-size="10px" fill="#000" opacity="1">8</text><text text-anchor="end" transform="translate(-7,455.1289779168586)" font-family="sans-serif" font-size="10px" fill="#000" opacity="1">10</text><text text-anchor="end" transform="translate(-7,425.55477350023045)" font-family="sans-serif" font-size="10px" fill="#000" opacity="1">12</text><text text-anchor="end" transform="translate(-7,395.9805690836021)" font-family="sans-serif" font-size="10px" fill="#000" opacity="1">14</text><text text-anchor="end" transform="translate(-7,366.40636466697384)" font-family="sans-serif" font-size="10px" fill="#000" opacity="1">16</text><text text-anchor="end" transform="translate(-7,336.8321602503456)" font-family="sans-serif" font-size="10px" fill="#000" opacity="1">18</text><text text-anchor="end" transform="translate(-7,307.25795583371735)" font-family="sans-serif" font-size="10px" fill="#000" opacity="1">20</text><text text-anchor="end" transform="translate(-7,277.68375141708907)" font-family="sans-serif" font-size="10px" fill="#000" opacity="1">22</text><text text-anchor="end" transform="translate(-7,248.10954700046085)" font-family="sans-serif" font-size="10px" fill="#000" opacity="1">24</text><text text-anchor="end" transform="translate(-7,218.53534258383257)" font-family="sans-serif" font-size="10px" fill="#000" opacity="1">26</text><text text-anchor="end" transform="translate(-7,188.96113816720433)" font-family="sans-serif" font-size="10px" fill="#000" opacity="1">28</text><text text-anchor="end" transform="translate(-7,159.38693375057608)" font-family="sans-serif" font-size="10px" fill="#000" opacity="1">30</text><text text-anchor="end" transform="translate(-7,129.81272933394774)" font-family="sans-serif" font-size="10px" fill="#000" opacity="1">32</text><text text-anchor="end" transform="translate(-7,100.23852491731948)" font-family="sans-serif" font-size="10px" fill="#000" opacity="1">34</text><text text-anchor="end" transform="translate(-7,70.66432050069122)" font-family="sans-serif" font-size="10px" fill="#000" opacity="1">36</text><text text-anchor="end" transform="translate(-7,41.09011608406296)" font-family="sans-serif" font-size="10px" fill="#000" opacity="1">38</text><text text-anchor="end" transform="translate(-7,11.515911667434706)" font-family="sans-serif" font-size="10px" fill="#000" opacity="1">40</text></g><g class="mark-rule role-axis-domain" pointer-events="none"><line transform="translate(0,600)" x2="0" y2="-600" stroke="#888" stroke-width="1" opacity="1"/></g><g class="mark-text role-axis-title" pointer-events="none"><text text-anchor="middle" transform="translate(-22.123046875,300) rotate(-90) translate(0,-2)" font-family="sans-serif" font-size="11px" font-weight="bold" fill="#000" opacity="1">Execution Time (seconds, lower=better)</text></g></g><path class="foreground" aria-hidden="true" d="" pointer-events="none" display="none"/></g></g><g class="mark-group role-scope" role="graphics-object" aria-roledescription="group mark container"><g transform="translate(5,596.7309270555239)"><path class="background" aria-hidden="true" d="M1.6345364722380396,0L88.36546352776196,0C89.26758876487355,0,90,0.7324112351264457,90,1.6345364722380396L90,3.269072944476079C90,3.269072944476079,90,3.269072944476079,90,3.269072944476079L0,3.269072944476079C0,3.269072944476079,0,3.269072944476079,0,3.269072944476079L0,1.6345364722380396C0,0.7324112351264457,0.7324112351264457,0,1.6345364722380396,0Z"/><g clip-path="url(#clip1)"><g class="mark-group role-scope" role="graphics-object" aria-roledescription="group mark container"><g transform="translate(0,-596.7309270555239)"><path class="background" aria-hidden="true" d="M0,0h90v0h-90Z"/><g><g class="mark-rect role-mark layer_0_marks" role="graphics-object" aria-roledescription="rect mark container"><path aria-label="Parser: yamlrocks&#xA;0.6.1; Execution Time (seconds, lower=better): 0.221075968667; parser: yamlrocks; Execution Time (s): 0.2211; Slowdown: 1.00" role="graphics-symbol" aria-roledescription="bar" d="M0,596.7309270555239h90v3.269072944476079h-90Z" fill="#666666"/></g></g><path class="foreground" aria-hidden="true" d="" display="none"/></g></g></g><path class="foreground" aria-hidden="true" d="" display="none"/></g><g transform="translate(105,595.6102175229769)"><path class="background" aria-hidden="true" d="M2.194891238511559,0L87.80510876148844,0C89.01650221315322,0,90,0.983497786846786,90,2.194891238511559L90,4.389782477023118C90,4.389782477023118,90,4.389782477023118,90,4.389782477023118L0,4.389782477023118C0,4.389782477023118,0,4.389782477023118,0,4.389782477023118L0,2.194891238511559C0,0.983497786846786,0.983497786846786,0,2.194891238511559,0Z"/><g clip-path="url(#clip2)"><g class="mark-group role-scope" role="graphics-object" aria-roledescription="group mark container"><g transform="translate(0,-595.6102175229769)"><path class="background" aria-hidden="true" d="M0,0h90v0h-90Z"/><g><g class="mark-rect role-mark layer_0_marks" role="graphics-object" aria-roledescription="rect mark container"><path aria-label="Parser: yaml_rs (parse_dt=False)&#xA;0.1.6; Execution Time (seconds, lower=better): 0.296865634333; parser: yaml_rs (parse_dt=False); Execution Time (s): 0.2969; Slowdown: 1.34" role="graphics-symbol" aria-roledescription="bar" d="M0,595.6102175229769h90v4.389782477023118h-90Z" fill="#a6761d"/></g></g><path class="foreground" aria-hidden="true" d="" display="none"/></g></g></g><path class="foreground" aria-hidden="true" d="" display="none"/></g><g transform="translate(205,595.5217790734702)"><path class="background" aria-hidden="true" d="M2.2391104632649217,0L87.76088953673508,0C88.99668824291271,0,90,1.0033117570872907,90,2.2391104632649217L90,4.478220926529843C90,4.478220926529843,90,4.478220926529843,90,4.478220926529843L0,4.478220926529843C0,4.478220926529843,0,4.478220926529843,0,4.478220926529843L0,2.2391104632649217C0,1.0033117570872907,1.0033117570872907,0,2.2391104632649217,0Z"/><g clip-path="url(#clip3)"><g class="mark-group role-scope" role="graphics-object" aria-roledescription="group mark container"><g transform="translate(0,-595.5217790734702)"><path class="background" aria-hidden="true" d="M0,0h90v0h-90Z"/><g><g class="mark-rect role-mark layer_0_marks" role="graphics-object" aria-roledescription="rect mark container"><path aria-label="Parser: yaml_rs&#xA;0.1.6; Execution Time (seconds, lower=better): 0.302846417333; parser: yaml_rs; Execution Time (s): 0.3028; Slowdown: 1.37" role="graphics-symbol" aria-roledescription="bar" d="M0,595.5217790734702h90v4.478220926529843h-90Z" fill="#e6ab02"/></g></g><path class="foreground" aria-hidden="true" d="" display="none"/></g></g></g><path class="foreground" aria-hidden="true" d="" display="none"/></g><g transform="translate(305,590.2201040346773)"><path class="background" aria-hidden="true" d="M4.88994798266134,0L85.11005201733866,0C87.80888777796358,0,90,2.1911122220364208,90,4.88994798266134L90,9.77989596532268C90,9.77989596532268,90,9.77989596532268,90,9.77989596532268L0,9.77989596532268C0,9.77989596532268,0,9.77989596532268,0,9.77989596532268L0,4.88994798266134C0,2.1911122220364208,2.1911122220364208,0,4.88994798266134,0Z"/><g clip-path="url(#clip4)"><g class="mark-group role-scope" role="graphics-object" aria-roledescription="group mark container"><g transform="translate(0,-590.2201040346773)"><path class="background" aria-hidden="true" d="M0,0h90v0h-90Z"/><g><g class="mark-rect role-mark layer_0_marks" role="graphics-object" aria-roledescription="rect mark container"><path aria-label="Parser: ryaml&#xA;0.5.1; Execution Time (seconds, lower=better): 0.661380156; parser: ryaml; Execution Time (s): 0.6614; Slowdown: 2.99" role="graphics-symbol" aria-roledescription="bar" d="M0,590.2201040346773h90v9.77989596532268h-90Z" fill="#66a61e"/></g></g><path class="foreground" aria-hidden="true" d="" display="none"/></g></g></g><path class="foreground" aria-hidden="true" d="" display="none"/></g><g transform="translate(405,565.876126637063)"><path class="background" aria-hidden="true" d="M6,0L84,0C87.311490146964,0,90,2.688509853036,90,6L90,34.12387336293705C90,34.12387336293705,90,34.12387336293705,90,34.12387336293705L0,34.12387336293705C0,34.12387336293705,0,34.12387336293705,0,34.12387336293705L0,6C0,2.688509853036,2.688509853036,0,6,0Z"/><g clip-path="url(#clip5)"><g class="mark-group role-scope" role="graphics-object" aria-roledescription="group mark container"><g transform="translate(0,-565.876126637063)"><path class="background" aria-hidden="true" d="M0,0h90v0h-90Z"/><g><g class="mark-rect role-mark layer_0_marks" role="graphics-object" aria-roledescription="rect mark container"><path aria-label="Parser: PyYAML (CLoader)&#xA;6.0.3; Execution Time (seconds, lower=better): 2.307678197; parser: PyYAML (CLoader); Execution Time (s): 2.3077; Slowdown: 10.44" role="graphics-symbol" aria-roledescription="bar" d="M0,565.876126637063h90v34.12387336293705h-90Z" fill="#d95f02"/></g></g><path class="foreground" aria-hidden="true" d="" display="none"/></g></g></g><path class="foreground" aria-hidden="true" d="" display="none"/></g><g transform="translate(505,189.89460119849548)"><path class="background" aria-hidden="true" d="M6,0L84,0C87.311490146964,0,90,2.688509853036,90,6L90,410.1053988015045C90,410.1053988015045,90,410.1053988015045,90,410.1053988015045L0,410.1053988015045C0,410.1053988015045,0,410.1053988015045,0,410.1053988015045L0,6C0,2.688509853036,2.688509853036,0,6,0Z"/><g clip-path="url(#clip6)"><g class="mark-group role-scope" role="graphics-object" aria-roledescription="group mark container"><g transform="translate(0,-189.89460119849548)"><path class="background" aria-hidden="true" d="M0,0h90v0h-90Z"/><g><g class="mark-rect role-mark layer_0_marks" role="graphics-object" aria-roledescription="rect mark container"><path aria-label="Parser: PyYAML&#xA;6.0.3; Execution Time (seconds, lower=better): 27.7339936537; parser: PyYAML; Execution Time (s): 27.7340; Slowdown: 125.45" role="graphics-symbol" aria-roledescription="bar" d="M0,189.89460119849548h90v410.1053988015045h-90Z" fill="#1b9e77"/></g></g><path class="foreground" aria-hidden="true" d="" display="none"/></g></g></g><path class="foreground" aria-hidden="true" d="" display="none"/></g><g transform="translate(605,187.763514795264)"><path class="background" aria-hidden="true" d="M6,0L84,0C87.311490146964,0,90,2.688509853036,90,6L90,412.236485204736C90,412.236485204736,90,412.236485204736,90,412.236485204736L0,412.236485204736C0,412.236485204736,0,412.236485204736,0,412.236485204736L0,6C0,2.688509853036,2.688509853036,0,6,0Z"/><g clip-path="url(#clip7)"><g class="mark-group role-scope" role="graphics-object" aria-roledescription="group mark container"><g transform="translate(0,-187.763514795264)"><path class="background" aria-hidden="true" d="M0,0h90v0h-90Z"/><g><g class="mark-rect role-mark layer_0_marks" role="graphics-object" aria-roledescription="rect mark container"><path aria-label="Parser: oyaml&#xA;1.0; Execution Time (seconds, lower=better): 27.878111573; parser: oyaml; Execution Time (s): 27.8781; Slowdown: 126.10" role="graphics-symbol" aria-roledescription="bar" d="M0,187.763514795264h90v412.236485204736h-90Z" fill="#7570b3"/></g></g><path class="foreground" aria-hidden="true" d="" display="none"/></g></g></g><path class="foreground" aria-hidden="true" d="" display="none"/></g><g transform="translate(705,28.571428571428605)"><path class="background" aria-hidden="true" d="M6,0L84,0C87.311490146964,0,90,2.688509853036,90,6L90,571.4285714285714C90,571.4285714285714,90,571.4285714285714,90,571.4285714285714L0,571.4285714285714C0,571.4285714285714,0,571.4285714285714,0,571.4285714285714L0,6C0,2.688509853036,2.688509853036,0,6,0Z"/><g clip-path="url(#clip8)"><g class="mark-group role-scope" role="graphics-object" aria-roledescription="group mark container"><g transform="translate(0,-28.571428571428605)"><path class="background" aria-hidden="true" d="M0,0h90v0h-90Z"/><g><g class="mark-rect role-mark layer_0_marks" role="graphics-object" aria-roledescription="rect mark container"><path aria-label="Parser: ruamel.yaml&#xA;0.19.1; Execution Time (seconds, lower=better): 38.643715542; parser: ruamel.yaml; Execution Time (s): 38.6437; Slowdown: 174.80" role="graphics-symbol" aria-roledescription="bar" d="M0,28.571428571428605h90v571.4285714285714h-90Z" fill="#e7298a"/></g></g><path class="foreground" aria-hidden="true" d="" display="none"/></g></g></g><path class="foreground" aria-hidden="true" d="" display="none"/></g></g><g class="mark-text role-mark layer_1_marks" role="graphics-object" aria-roledescription="text mark container"><text aria-label="Parser: yamlrocks&#xA;0.6.1; Execution Time (seconds, lower=better): 0.221075968667; parser: yamlrocks; label: 0.2211s (x1.00); Execution Time (s): 0.2211; Slowdown: 1.00" role="graphics-symbol" aria-roledescription="text mark" text-anchor="middle" transform="translate(50,592.7309270555239)" font-family="sans-serif" font-size="9px" font-weight="bold" fill="#666666">0.2211s (x1.00)</text><text aria-label="Parser: yaml_rs (parse_dt=False)&#xA;0.1.6; Execution Time (seconds, lower=better): 0.296865634333; parser: yaml_rs (parse_dt=False); label: 0.2969s (x1.34); Execution Time (s): 0.2969; Slowdown: 1.34" role="graphics-symbol" aria-roledescription="text mark" text-anchor="middle" transform="translate(150,591.6102175229769)" font-family="sans-serif" font-size="9px" font-weight="bold" fill="#a6761d">0.2969s (x1.34)</text><text aria-label="Parser: yaml_rs&#xA;0.1.6; Execution Time (seconds, lower=better): 0.302846417333; parser: yaml_rs; label: 0.3028s (x1.37); Execution Time (s): 0.3028; Slowdown: 1.37" role="graphics-symbol" aria-roledescription="text mark" text-anchor="middle" transform="translate(250,591.5217790734702)" font-family="sans-serif" font-size="9px" font-weight="bold" fill="#e6ab02">0.3028s (x1.37)</text><text aria-label="Parser: ryaml&#xA;0.5.1; Execution Time (seconds, lower=better): 0.661380156; parser: ryaml; label: 0.6614s (x2.99); Execution Time (s): 0.6614; Slowdown: 2.99" role="graphics-symbol" aria-roledescription="text mark" text-anchor="middle" transform="translate(350,586.2201040346773)" font-family="sans-serif" font-size="9px" font-weight="bold" fill="#66a61e">0.6614s (x2.99)</text><text aria-label="Parser: PyYAML (CLoader)&#xA;6.0.3; Execution Time (seconds, lower=better): 2.307678197; parser: PyYAML (CLoader); label: 2.3077s (x10.44); Execution Time (s): 2.3077; Slowdown: 10.44" role="graphics-symbol" aria-roledescription="text mark" text-anchor="middle" transform="translate(450,561.876126637063)" font-family="sans-serif" font-size="9px" font-weight="bold" fill="#d95f02">2.3077s (x10.44)</text><text aria-label="Parser: PyYAML&#xA;6.0.3; Execution Time (seconds, lower=better): 27.7339936537; parser: PyYAML; label: 27.7340s (x125.45); Execution Time (s): 27.7340; Slowdown: 125.45" role="graphics-symbol" aria-roledescription="text mark" text-anchor="middle" transform="translate(550,185.89460119849548)" font-family="sans-serif" font-size="9px" font-weight="bold" fill="#1b9e77">27.7340s (x125.45)</text><text aria-label="Parser: oyaml&#xA;1.0; Execution Time (seconds, lower=better): 27.878111573; parser: oyaml; label: 27.8781s (x126.10); Execution Time (s): 27.8781; Slowdown: 126.10" role="graphics-symbol" aria-roledescription="text mark" text-anchor="middle" transform="translate(650,183.763514795264)" font-family="sans-serif" font-size="9px" font-weight="bold" fill="#7570b3">27.8781s (x126.10)</text><text aria-label="Parser: ruamel.yaml&#xA;0.19.1; Execution Time (seconds, lower=better): 38.643715542; parser: ruamel.yaml; label: 38.6437s (x174.80); Execution Time (s): 38.6437; Slowdown: 174.80" role="graphics-symbol" aria-roledescription="text mark" text-anchor="middle" transform="translate(750,24.571428571428605)" font-family="sans-serif" font-size="9px" font-weight="bold" fill="#e7298a">38.6437s (x174.80)</text></g><g class="mark-group role-title"><g transform="translate(400,-31)"><path class="background" aria-hidden="true" d="M0,0h0v0h0Z" pointer-events="none"/><g><g class="mark-text role-title-text" role="graphics-symbol" aria-roledescription="title" aria-label="Title text 'YAML parsers benchmark (loads)'" pointer-events="none"><text text-anchor="middle" transform="translate(0,10)" font-family="sans-serif" font-size="13px" font-weight="bold" fill="#000" opacity="1">YAML parsers benchmark (loads)</text></g><g class="mark-text role-title-subtitle" role="graphics-symbol" aria-roledescription="subtitle" aria-label="Subtitle text 'Python: 3.14.6 (Linux 6.17.0-1018-azure) | CPU: AMD EPYC 7763 64-Core Processor'" pointer-events="none"><text text-anchor="middle" transform="translate(0,25)" font-family="sans-serif" font-size="12px" fill="#000" opacity="1">Python: 3.14.6 (Linux 6.17.0-1018-azure) | CPU: AMD EPYC 7763 64-Core Processor</text></g></g><path class="foreground" aria-hidden="true" d="" pointer-events="none" display="none"/></g></g></g><path class="foreground" aria-hidden="true" d="" display="none"/></g></g></g><defs><clipPath id="clip1"><path d="M1.6345364722380396,0L88.36546352776196,0C89.26758876487355,0,90,0.7324112351264457,90,1.6345364722380396L90,3.269072944476079C90,3.269072944476079,90,3.269072944476079,90,3.269072944476079L0,3.269072944476079C0,3.269072944476079,0,3.269072944476079,0,3.269072944476079L0,1.6345364722380396C0,0.7324112351264457,0.7324112351264457,0,1.6345364722380396,0Z"/></clipPath><clipPath id="clip2"><path d="M2.194891238511559,0L87.80510876148844,0C89.01650221315322,0,90,0.983497786846786,90,2.194891238511559L90,4.389782477023118C90,4.389782477023118,90,4.389782477023118,90,4.389782477023118L0,4.389782477023118C0,4.389782477023118,0,4.389782477023118,0,4.389782477023118L0,2.194891238511559C0,0.983497786846786,0.983497786846786,0,2.194891238511559,0Z"/></clipPath><clipPath id="clip3"><path d="M2.2391104632649217,0L87.76088953673508,0C88.99668824291271,0,90,1.0033117570872907,90,2.2391104632649217L90,4.478220926529843C90,4.478220926529843,90,4.478220926529843,90,4.478220926529843L0,4.478220926529843C0,4.478220926529843,0,4.478220926529843,0,4.478220926529843L0,2.2391104632649217C0,1.0033117570872907,1.0033117570872907,0,2.2391104632649217,0Z"/></clipPath><clipPath id="clip4"><path d="M4.88994798266134,0L85.11005201733866,0C87.80888777796358,0,90,2.1911122220364208,90,4.88994798266134L90,9.77989596532268C90,9.77989596532268,90,9.77989596532268,90,9.77989596532268L0,9.77989596532268C0,9.77989596532268,0,9.77989596532268,0,9.77989596532268L0,4.88994798266134C0,2.1911122220364208,2.1911122220364208,0,4.88994798266134,0Z"/></clipPath><clipPath id="clip5"><path d="M6,0L84,0C87.311490146964,0,90,2.688509853036,90,6L90,34.12387336293705C90,34.12387336293705,90,34.12387336293705,90,34.12387336293705L0,34.12387336293705C0,34.12387336293705,0,34.12387336293705,0,34.12387336293705L0,6C0,2.688509853036,2.688509853036,0,6,0Z"/></clipPath><clipPath id="clip6"><path d="M6,0L84,0C87.311490146964,0,90,2.688509853036,90,6L90,410.1053988015045C90,410.1053988015045,90,410.1053988015045,90,410.1053988015045L0,410.1053988015045C0,410.1053988015045,0,410.1053988015045,0,410.1053988015045L0,6C0,2.688509853036,2.688509853036,0,6,0Z"/></clipPath><clipPath id="clip7"><path d="M6,0L84,0C87.311490146964,0,90,2.688509853036,90,6L90,412.236485204736C90,412.236485204736,90,412.236485204736,90,412.236485204736L0,412.236485204736C0,412.236485204736,0,412.236485204736,0,412.236485204736L0,6C0,2.688509853036,2.688509853036,0,6,0Z"/></clipPath><clipPath id="clip8"><path d="M6,0L84,0C87.311490146964,0,90,2.688509853036,90,6L90,571.4285714285714C90,571.4285714285714,90,571.4285714285714,90,571.4285714285714L0,571.4285714285714C0,571.4285714285714,0,571.4285714285714,0,571.4285714285714L0,6C0,2.688509853036,2.688509853036,0,6,0Z"/></clipPath></defs></svg>