<svg xmlns="http://www.w3.org/2000/svg" xmlns:xlink="http://www.w3.org/1999/xlink" version="1.1" class="marks" width="844" height="687" viewBox="0 0 844 687"><rect width="844" height="687" fill="white"/><g fill="none" stroke-miterlimit="10" transform="translate(39,36)"><g class="mark-group role-frame root" role="graphics-object" aria-roledescription="group mark container"><g transform="translate(0,0)"><path class="background" aria-hidden="true" d="M0.5,0.5h800v600h-800Z" stroke="#ddd"/><g><g class="mark-group role-axis" role="graphics-symbol" aria-roledescription="axis" aria-label="X-axis titled 'Parser' for a discrete scale with 8 values: yamlrocks&#xA;0.6.1, yaml_rs&#xA;0.1.6, yaml_rs (parse_dt=False)&#xA;0.1.6, ryaml&#xA;0.5.1, PyYAML (CLoader)&#xA;6.0.3, ending with ruamel.yaml&#xA;0.19.1"><g transform="translate(0.5,600.5)"><path class="background" aria-hidden="true" d="M0,0h0v0h0Z" pointer-events="none"/><g><g class="mark-rule role-axis-tick" pointer-events="none"><line transform="translate(50,0)" x2="0" y2="5" stroke="#888" stroke-width="1" opacity="1"/><line transform="translate(150,0)" x2="0" y2="5" stroke="#888" stroke-width="1" opacity="1"/><line transform="translate(250,0)" x2="0" y2="5" stroke="#888" stroke-width="1" opacity="1"/><line transform="translate(350,0)" x2="0" y2="5" stroke="#888" stroke-width="1" opacity="1"/><line transform="translate(450,0)" x2="0" y2="5" stroke="#888" stroke-width="1" opacity="1"/><line transform="translate(550,0)" x2="0" y2="5" stroke="#888" stroke-width="1" opacity="1"/><line transform="translate(650,0)" x2="0" y2="5" stroke="#888" stroke-width="1" opacity="1"/><line transform="translate(750,0)" x2="0" y2="5" stroke="#888" stroke-width="1" opacity="1"/></g><g class="mark-text role-axis-label" pointer-events="none"><text text-anchor="middle" transform="translate(49.5,15)" font-family="sans-serif" font-size="10px" fill="#000" opacity="1"><tspan>yamlrocks</tspan><tspan x="0" dy="14">0.6.1</tspan></text><text text-anchor="middle" transform="translate(149.5,15)" font-family="sans-serif" font-size="10px" fill="#000" opacity="1"><tspan>yaml_rs</tspan><tspan x="0" dy="14">0.1.6</tspan></text><text text-anchor="middle" transform="translate(249.5,15)" font-family="sans-serif" font-size="10px" fill="#000" opacity="1"><tspan>yaml_rs (parse_dt=False)</tspan><tspan x="0" dy="14">0.1.6</tspan></text><text text-anchor="middle" transform="translate(349.5,15)" font-family="sans-serif" font-size="10px" fill="#000" opacity="1"><tspan>ryaml</tspan><tspan x="0" dy="14">0.5.1</tspan></text><text text-anchor="middle" transform="translate(449.5,15)" font-family="sans-serif" font-size="10px" fill="#000" opacity="1"><tspan>PyYAML (CLoader)</tspan><tspan x="0" dy="14">6.0.3</tspan></text><text text-anchor="middle" transform="translate(549.5,15)" font-family="sans-serif" font-size="10px" fill="#000" opacity="1"><tspan>PyYAML</tspan><tspan x="0" dy="14">6.0.3</tspan></text><text text-anchor="middle" transform="translate(649.5,15)" font-family="sans-serif" font-size="10px" fill="#000" opacity="1"><tspan>oyaml</tspan><tspan x="0" dy="14">1.0</tspan></text><text text-anchor="middle" transform="translate(749.5,15)" font-family="sans-serif" font-size="10px" fill="#000" opacity="1"><tspan>ruamel.yaml</tspan><tspan x="0" dy="14">0.19.1</tspan></text></g><g class="mark-rule role-axis-domain" pointer-events="none"><line transform="translate(0,0)" x2="800" y2="0" stroke="#888" stroke-width="1" opacity="1"/></g><g class="mark-text role-axis-title" pointer-events="none"><text text-anchor="middle" transform="translate(400,44)" font-family="sans-serif" font-size="11px" font-weight="bold" fill="#000" opacity="1">Parser</text></g></g><path class="foreground" aria-hidden="true" d="" pointer-events="none" display="none"/></g></g><g class="mark-group role-axis" role="graphics-symbol" aria-roledescription="axis" aria-label="Y-axis titled 'Execution Time (seconds, lower=better)' for a linear scale with values from 0 to 32"><g transform="translate(0.5,0.5)"><path class="background" aria-hidden="true" d="M0,0h0v0h0Z" pointer-events="none"/><g><g class="mark-rule role-axis-tick" pointer-events="none"><line transform="translate(0,600)" x2="-5" y2="0" stroke="#888" stroke-width="1" opacity="1"/><line transform="translate(0,563)" x2="-5" y2="0" stroke="#888" stroke-width="1" opacity="1"/><line transform="translate(0,526)" x2="-5" y2="0" stroke="#888" stroke-width="1" opacity="1"/><line transform="translate(0,489)" x2="-5" y2="0" stroke="#888" stroke-width="1" opacity="1"/><line transform="translate(0,452)" x2="-5" y2="0" stroke="#888" stroke-width="1" opacity="1"/><line transform="translate(0,415)" x2="-5" y2="0" stroke="#888" stroke-width="1" opacity="1"/><line transform="translate(0,378)" x2="-5" y2="0" stroke="#888" stroke-width="1" opacity="1"/><line transform="translate(0,341)" x2="-5" y2="0" stroke="#888" stroke-width="1" opacity="1"/><line transform="translate(0,304)" x2="-5" y2="0" stroke="#888" stroke-width="1" opacity="1"/><line transform="translate(0,267)" x2="-5" y2="0" stroke="#888" stroke-width="1" opacity="1"/><line transform="translate(0,230)" x2="-5" y2="0" stroke="#888" stroke-width="1" opacity="1"/><line transform="translate(0,193)" x2="-5" y2="0" stroke="#888" stroke-width="1" opacity="1"/><line transform="translate(0,156)" x2="-5" y2="0" stroke="#888" stroke-width="1" opacity="1"/><line transform="translate(0,119)" x2="-5" y2="0" stroke="#888" stroke-width="1" opacity="1"/><line transform="translate(0,82)" x2="-5" y2="0" stroke="#888" stroke-width="1" opacity="1"/><line transform="translate(0,45)" x2="-5" y2="0" stroke="#888" stroke-width="1" opacity="1"/><line transform="translate(0,8)" x2="-5" y2="0" stroke="#888" stroke-width="1" opacity="1"/></g><g class="mark-text role-axis-label" pointer-events="none"><text text-anchor="end" transform="translate(-7,603)" font-family="sans-serif" font-size="10px" fill="#000" opacity="1">0</text><text text-anchor="end" transform="translate(-7,565.988638810353)" font-family="sans-serif" font-size="10px" fill="#000" opacity="1">2</text><text text-anchor="end" transform="translate(-7,528.977277620706)" font-family="sans-serif" font-size="10px" fill="#000" opacity="1">4</text><text text-anchor="end" transform="translate(-7,491.96591643105904)" font-family="sans-serif" font-size="10px" fill="#000" opacity="1">6</text><text text-anchor="end" transform="translate(-7,454.95455524141204)" font-family="sans-serif" font-size="10px" fill="#000" opacity="1">8</text><text text-anchor="end" transform="translate(-7,417.9431940517651)" font-family="sans-serif" font-size="10px" fill="#000" opacity="1">10</text><text text-anchor="end" transform="translate(-7,380.9318328621181)" font-family="sans-serif" font-size="10px" fill="#000" opacity="1">12</text><text text-anchor="end" transform="translate(-7,343.9204716724711)" font-family="sans-serif" font-size="10px" fill="#000" opacity="1">14</text><text text-anchor="end" transform="translate(-7,306.90911048282413)" font-family="sans-serif" font-size="10px" fill="#000" opacity="1">16</text><text text-anchor="end" transform="translate(-7,269.8977492931772)" font-family="sans-serif" font-size="10px" fill="#000" opacity="1">18</text><text text-anchor="end" transform="translate(-7,232.8863881035302)" font-family="sans-serif" font-size="10px" fill="#000" opacity="1">20</text><text text-anchor="end" transform="translate(-7,195.87502691388323)" font-family="sans-serif" font-size="10px" fill="#000" opacity="1">22</text><text text-anchor="end" transform="translate(-7,158.86366572423626)" font-family="sans-serif" font-size="10px" fill="#000" opacity="1">24</text><text text-anchor="end" transform="translate(-7,121.85230453458927)" font-family="sans-serif" font-size="10px" fill="#000" opacity="1">26</text><text text-anchor="end" transform="translate(-7,84.84094334494227)" font-family="sans-serif" font-size="10px" fill="#000" opacity="1">28</text><text text-anchor="end" transform="translate(-7,47.82958215529529)" font-family="sans-serif" font-size="10px" fill="#000" opacity="1">30</text><text text-anchor="end" transform="translate(-7,10.818220965648305)" font-family="sans-serif" font-size="10px" fill="#000" opacity="1">32</text></g><g class="mark-rule role-axis-domain" pointer-events="none"><line transform="translate(0,600)" x2="0" y2="-600" stroke="#888" stroke-width="1" opacity="1"/></g><g class="mark-text role-axis-title" pointer-events="none"><text text-anchor="middle" transform="translate(-22.123046875,300) rotate(-90) translate(0,-2)" font-family="sans-serif" font-size="11px" font-weight="bold" fill="#000" opacity="1">Execution Time (seconds, lower=better)</text></g></g><path class="foreground" aria-hidden="true" d="" pointer-events="none" display="none"/></g></g><g class="mark-group role-scope" role="graphics-object" aria-roledescription="group mark container"><g transform="translate(5,595.3083588994162)"><path class="background" aria-hidden="true" d="M2.345820550291876,0L87.65417944970812,0C88.948873056181,0,90,1.0511269438190067,90,2.345820550291876L90,4.691641100583752C90,4.691641100583752,90,4.691641100583752,90,4.691641100583752L0,4.691641100583752C0,4.691641100583752,0,4.691641100583752,0,4.691641100583752L0,2.345820550291876C0,1.0511269438190067,1.0511269438190067,0,2.345820550291876,0Z"/><g clip-path="url(#clip1)"><g class="mark-group role-scope" role="graphics-object" aria-roledescription="group mark container"><g transform="translate(0,-595.3083588994162)"><path class="background" aria-hidden="true" d="M0,0h90v0h-90Z"/><g><g class="mark-rect role-mark layer_0_marks" role="graphics-object" aria-roledescription="rect mark container"><path aria-label="Parser: yamlrocks&#xA;0.6.1; Execution Time (seconds, lower=better): 0.253524374667; parser: yamlrocks; Execution Time (s): 0.2535; Slowdown: 1.00" role="graphics-symbol" aria-roledescription="bar" d="M0,595.3083588994162h90v4.691641100583752h-90Z" fill="#666666"/></g></g><path class="foreground" aria-hidden="true" d="" display="none"/></g></g></g><path class="foreground" aria-hidden="true" d="" display="none"/></g><g transform="translate(105,594.3215027383568)"><path class="background" aria-hidden="true" d="M2.8392486308216007,0L87.1607513691784,0C88.72777534680286,0,90,1.272224653197141,90,2.8392486308216007L90,5.6784972616432015C90,5.6784972616432015,90,5.6784972616432015,90,5.6784972616432015L0,5.6784972616432015C0,5.6784972616432015,0,5.6784972616432015,0,5.6784972616432015L0,2.8392486308216007C0,1.272224653197141,1.272224653197141,0,2.8392486308216007,0Z"/><g clip-path="url(#clip2)"><g class="mark-group role-scope" role="graphics-object" aria-roledescription="group mark container"><g transform="translate(0,-594.3215027383568)"><path class="background" aria-hidden="true" d="M0,0h90v0h-90Z"/><g><g class="mark-rect role-mark layer_0_marks" role="graphics-object" aria-roledescription="rect mark container"><path aria-label="Parser: yaml_rs&#xA;0.1.6; Execution Time (seconds, lower=better): 0.306851576333; parser: yaml_rs; Execution Time (s): 0.3069; Slowdown: 1.21" role="graphics-symbol" aria-roledescription="bar" d="M0,594.3215027383568h90v5.6784972616432015h-90Z" fill="#e6ab02"/></g></g><path class="foreground" aria-hidden="true" d="" display="none"/></g></g></g><path class="foreground" aria-hidden="true" d="" display="none"/></g><g transform="translate(205,594.2484068853274)"><path class="background" aria-hidden="true" d="M2.8757965573362867,0L87.12420344266371,0C88.71139877004573,0,90,1.2886012299542693,90,2.8757965573362867L90,5.751593114672573C90,5.751593114672573,90,5.751593114672573,90,5.751593114672573L0,5.751593114672573C0,5.751593114672573,0,5.751593114672573,0,5.751593114672573L0,2.8757965573362867C0,1.2886012299542693,1.2886012299542693,0,2.8757965573362867,0Z"/><g clip-path="url(#clip3)"><g class="mark-group role-scope" role="graphics-object" aria-roledescription="group mark container"><g transform="translate(0,-594.2484068853274)"><path class="background" aria-hidden="true" d="M0,0h90v0h-90Z"/><g><g class="mark-rect role-mark layer_0_marks" role="graphics-object" aria-roledescription="rect mark container"><path aria-label="Parser: yaml_rs (parse_dt=False)&#xA;0.1.6; Execution Time (seconds, lower=better): 0.310801490667; parser: yaml_rs (parse_dt=False); Execution Time (s): 0.3108; Slowdown: 1.23" role="graphics-symbol" aria-roledescription="bar" d="M0,594.2484068853274h90v5.751593114672573h-90Z" fill="#a6761d"/></g></g><path class="foreground" aria-hidden="true" d="" display="none"/></g></g></g><path class="foreground" aria-hidden="true" d="" display="none"/></g><g transform="translate(305,586.9816632507589)"><path class="background" aria-hidden="true" d="M6,0L84,0C87.311490146964,0,90,2.688509853036,90,6L90,13.018336749241143C90,13.018336749241143,90,13.018336749241143,90,13.018336749241143L0,13.018336749241143C0,13.018336749241143,0,13.018336749241143,0,13.018336749241143L0,6C0,2.688509853036,2.688509853036,0,6,0Z"/><g clip-path="url(#clip4)"><g class="mark-group role-scope" role="graphics-object" aria-roledescription="group mark container"><g transform="translate(0,-586.9816632507589)"><path class="background" aria-hidden="true" d="M0,0h90v0h-90Z"/><g><g class="mark-rect role-mark layer_0_marks" role="graphics-object" aria-roledescription="rect mark container"><path aria-label="Parser: ryaml&#xA;0.5.1; Execution Time (seconds, lower=better): 0.703477869; parser: ryaml; Execution Time (s): 0.7035; Slowdown: 2.77" role="graphics-symbol" aria-roledescription="bar" d="M0,586.9816632507589h90v13.018336749241143h-90Z" fill="#66a61e"/></g></g><path class="foreground" aria-hidden="true" d="" display="none"/></g></g></g><path class="foreground" aria-hidden="true" d="" display="none"/></g><g transform="translate(405,560.370682961737)"><path class="background" aria-hidden="true" d="M6,0L84,0C87.311490146964,0,90,2.688509853036,90,6L90,39.629317038263025C90,39.629317038263025,90,39.629317038263025,90,39.629317038263025L0,39.629317038263025C0,39.629317038263025,0,39.629317038263025,0,39.629317038263025L0,6C0,2.688509853036,2.688509853036,0,6,0Z"/><g clip-path="url(#clip5)"><g class="mark-group role-scope" role="graphics-object" aria-roledescription="group mark container"><g transform="translate(0,-560.370682961737)"><path class="background" aria-hidden="true" d="M0,0h90v0h-90Z"/><g><g class="mark-rect role-mark layer_0_marks" role="graphics-object" aria-roledescription="rect mark container"><path aria-label="Parser: PyYAML (CLoader)&#xA;6.0.3; Execution Time (seconds, lower=better): 2.141467688; parser: PyYAML (CLoader); Execution Time (s): 2.1415; Slowdown: 8.45" role="graphics-symbol" aria-roledescription="bar" d="M0,560.370682961737h90v39.629317038263025h-90Z" fill="#d95f02"/></g></g><path class="foreground" aria-hidden="true" d="" display="none"/></g></g></g><path class="foreground" aria-hidden="true" d="" display="none"/></g><g transform="translate(505,173.78544812062708)"><path class="background" aria-hidden="true" d="M6,0L84,0C87.311490146964,0,90,2.688509853036,90,6L90,426.21455187937295C90,426.21455187937295,90,426.21455187937295,90,426.21455187937295L0,426.21455187937295C0,426.21455187937295,0,426.21455187937295,0,426.21455187937295L0,6C0,2.688509853036,2.688509853036,0,6,0Z"/><g clip-path="url(#clip6)"><g class="mark-group role-scope" role="graphics-object" aria-roledescription="group mark container"><g transform="translate(0,-173.78544812062708)"><path class="background" aria-hidden="true" d="M0,0h90v0h-90Z"/><g><g class="mark-rect role-mark layer_0_marks" role="graphics-object" aria-roledescription="rect mark container"><path aria-label="Parser: PyYAML&#xA;6.0.3; Execution Time (seconds, lower=better): 23.0315523763; parser: PyYAML; Execution Time (s): 23.0316; Slowdown: 90.85" role="graphics-symbol" aria-roledescription="bar" d="M0,173.78544812062708h90v426.21455187937295h-90Z" fill="#1b9e77"/></g></g><path class="foreground" aria-hidden="true" d="" display="none"/></g></g></g><path class="foreground" aria-hidden="true" d="" display="none"/></g><g transform="translate(605,171.82455971083397)"><path class="background" aria-hidden="true" d="M6,0L84,0C87.311490146964,0,90,2.688509853036,90,6L90,428.17544028916603C90,428.17544028916603,90,428.17544028916603,90,428.17544028916603L0,428.17544028916603C0,428.17544028916603,0,428.17544028916603,0,428.17544028916603L0,6C0,2.688509853036,2.688509853036,0,6,0Z"/><g clip-path="url(#clip7)"><g class="mark-group role-scope" role="graphics-object" aria-roledescription="group mark container"><g transform="translate(0,-171.82455971083397)"><path class="background" aria-hidden="true" d="M0,0h90v0h-90Z"/><g><g class="mark-rect role-mark layer_0_marks" role="graphics-object" aria-roledescription="rect mark container"><path aria-label="Parser: oyaml&#xA;1.0; Execution Time (seconds, lower=better): 23.137513808; parser: oyaml; Execution Time (s): 23.1375; Slowdown: 91.26" role="graphics-symbol" aria-roledescription="bar" d="M0,171.82455971083397h90v428.17544028916603h-90Z" fill="#7570b3"/></g></g><path class="foreground" aria-hidden="true" d="" display="none"/></g></g></g><path class="foreground" aria-hidden="true" d="" display="none"/></g><g transform="translate(705,28.571428571428537)"><path class="background" aria-hidden="true" d="M6,0L84,0C87.311490146964,0,90,2.688509853036,90,6L90,571.4285714285714C90,571.4285714285714,90,571.4285714285714,90,571.4285714285714L0,571.4285714285714C0,571.4285714285714,0,571.4285714285714,0,571.4285714285714L0,6C0,2.688509853036,2.688509853036,0,6,0Z"/><g clip-path="url(#clip8)"><g class="mark-group role-scope" role="graphics-object" aria-roledescription="group mark container"><g transform="translate(0,-28.571428571428537)"><path class="background" aria-hidden="true" d="M0,0h90v0h-90Z"/><g><g class="mark-rect role-mark layer_0_marks" role="graphics-object" aria-roledescription="rect mark container"><path aria-label="Parser: ruamel.yaml&#xA;0.19.1; Execution Time (seconds, lower=better): 30.878549346; parser: ruamel.yaml; Execution Time (s): 30.8785; Slowdown: 121.80" role="graphics-symbol" aria-roledescription="bar" d="M0,28.571428571428537h90v571.4285714285714h-90Z" fill="#e7298a"/></g></g><path class="foreground" aria-hidden="true" d="" display="none"/></g></g></g><path class="foreground" aria-hidden="true" d="" display="none"/></g></g><g class="mark-text role-mark layer_1_marks" role="graphics-object" aria-roledescription="text mark container"><text aria-label="Parser: yamlrocks&#xA;0.6.1; Execution Time (seconds, lower=better): 0.253524374667; parser: yamlrocks; label: 0.2535s (x1.00); Execution Time (s): 0.2535; Slowdown: 1.00" role="graphics-symbol" aria-roledescription="text mark" text-anchor="middle" transform="translate(50,591.3083588994162)" font-family="sans-serif" font-size="9px" font-weight="bold" fill="#666666">0.2535s (x1.00)</text><text aria-label="Parser: yaml_rs&#xA;0.1.6; Execution Time (seconds, lower=better): 0.306851576333; parser: yaml_rs; label: 0.3069s (x1.21); Execution Time (s): 0.3069; Slowdown: 1.21" role="graphics-symbol" aria-roledescription="text mark" text-anchor="middle" transform="translate(150,590.3215027383568)" font-family="sans-serif" font-size="9px" font-weight="bold" fill="#e6ab02">0.3069s (x1.21)</text><text aria-label="Parser: yaml_rs (parse_dt=False)&#xA;0.1.6; Execution Time (seconds, lower=better): 0.310801490667; parser: yaml_rs (parse_dt=False); label: 0.3108s (x1.23); Execution Time (s): 0.3108; Slowdown: 1.23" role="graphics-symbol" aria-roledescription="text mark" text-anchor="middle" transform="translate(250,590.2484068853274)" font-family="sans-serif" font-size="9px" font-weight="bold" fill="#a6761d">0.3108s (x1.23)</text><text aria-label="Parser: ryaml&#xA;0.5.1; Execution Time (seconds, lower=better): 0.703477869; parser: ryaml; label: 0.7035s (x2.77); Execution Time (s): 0.7035; Slowdown: 2.77" role="graphics-symbol" aria-roledescription="text mark" text-anchor="middle" transform="translate(350,582.9816632507589)" font-family="sans-serif" font-size="9px" font-weight="bold" fill="#66a61e">0.7035s (x2.77)</text><text aria-label="Parser: PyYAML (CLoader)&#xA;6.0.3; Execution Time (seconds, lower=better): 2.141467688; parser: PyYAML (CLoader); label: 2.1415s (x8.45); Execution Time (s): 2.1415; Slowdown: 8.45" role="graphics-symbol" aria-roledescription="text mark" text-anchor="middle" transform="translate(450,556.370682961737)" font-family="sans-serif" font-size="9px" font-weight="bold" fill="#d95f02">2.1415s (x8.45)</text><text aria-label="Parser: PyYAML&#xA;6.0.3; Execution Time (seconds, lower=better): 23.0315523763; parser: PyYAML; label: 23.0316s (x90.85); Execution Time (s): 23.0316; Slowdown: 90.85" role="graphics-symbol" aria-roledescription="text mark" text-anchor="middle" transform="translate(550,169.78544812062708)" font-family="sans-serif" font-size="9px" font-weight="bold" fill="#1b9e77">23.0316s (x90.85)</text><text aria-label="Parser: oyaml&#xA;1.0; Execution Time (seconds, lower=better): 23.137513808; parser: oyaml; label: 23.1375s (x91.26); Execution Time (s): 23.1375; Slowdown: 91.26" role="graphics-symbol" aria-roledescription="text mark" text-anchor="middle" transform="translate(650,167.82455971083397)" font-family="sans-serif" font-size="9px" font-weight="bold" fill="#7570b3">23.1375s (x91.26)</text><text aria-label="Parser: ruamel.yaml&#xA;0.19.1; Execution Time (seconds, lower=better): 30.878549346; parser: ruamel.yaml; label: 30.8785s (x121.80); Execution Time (s): 30.8785; Slowdown: 121.80" role="graphics-symbol" aria-roledescription="text mark" text-anchor="middle" transform="translate(750,24.571428571428537)" font-family="sans-serif" font-size="9px" font-weight="bold" fill="#e7298a">30.8785s (x121.80)</text></g><g class="mark-group role-title"><g transform="translate(400,-31)"><path class="background" aria-hidden="true" d="M0,0h0v0h0Z" pointer-events="none"/><g><g class="mark-text role-title-text" role="graphics-symbol" aria-roledescription="title" aria-label="Title text 'YAML parsers benchmark (loads)'" pointer-events="none"><text text-anchor="middle" transform="translate(0,10)" font-family="sans-serif" font-size="13px" font-weight="bold" fill="#000" opacity="1">YAML parsers benchmark (loads)</text></g><g class="mark-text role-title-subtitle" role="graphics-symbol" aria-roledescription="subtitle" aria-label="Subtitle text 'Python: 3.14.6 (Linux 6.17.0-1020-azure) | CPU: AMD EPYC 9V74 80-Core Processor'" pointer-events="none"><text text-anchor="middle" transform="translate(0,25)" font-family="sans-serif" font-size="12px" fill="#000" opacity="1">Python: 3.14.6 (Linux 6.17.0-1020-azure) | CPU: AMD EPYC 9V74 80-Core Processor</text></g></g><path class="foreground" aria-hidden="true" d="" pointer-events="none" display="none"/></g></g></g><path class="foreground" aria-hidden="true" d="" display="none"/></g></g></g><defs><clipPath id="clip1"><path d="M2.345820550291876,0L87.65417944970812,0C88.948873056181,0,90,1.0511269438190067,90,2.345820550291876L90,4.691641100583752C90,4.691641100583752,90,4.691641100583752,90,4.691641100583752L0,4.691641100583752C0,4.691641100583752,0,4.691641100583752,0,4.691641100583752L0,2.345820550291876C0,1.0511269438190067,1.0511269438190067,0,2.345820550291876,0Z"/></clipPath><clipPath id="clip2"><path d="M2.8392486308216007,0L87.1607513691784,0C88.72777534680286,0,90,1.272224653197141,90,2.8392486308216007L90,5.6784972616432015C90,5.6784972616432015,90,5.6784972616432015,90,5.6784972616432015L0,5.6784972616432015C0,5.6784972616432015,0,5.6784972616432015,0,5.6784972616432015L0,2.8392486308216007C0,1.272224653197141,1.272224653197141,0,2.8392486308216007,0Z"/></clipPath><clipPath id="clip3"><path d="M2.8757965573362867,0L87.12420344266371,0C88.71139877004573,0,90,1.2886012299542693,90,2.8757965573362867L90,5.751593114672573C90,5.751593114672573,90,5.751593114672573,90,5.751593114672573L0,5.751593114672573C0,5.751593114672573,0,5.751593114672573,0,5.751593114672573L0,2.8757965573362867C0,1.2886012299542693,1.2886012299542693,0,2.8757965573362867,0Z"/></clipPath><clipPath id="clip4"><path d="M6,0L84,0C87.311490146964,0,90,2.688509853036,90,6L90,13.018336749241143C90,13.018336749241143,90,13.018336749241143,90,13.018336749241143L0,13.018336749241143C0,13.018336749241143,0,13.018336749241143,0,13.018336749241143L0,6C0,2.688509853036,2.688509853036,0,6,0Z"/></clipPath><clipPath id="clip5"><path d="M6,0L84,0C87.311490146964,0,90,2.688509853036,90,6L90,39.629317038263025C90,39.629317038263025,90,39.629317038263025,90,39.629317038263025L0,39.629317038263025C0,39.629317038263025,0,39.629317038263025,0,39.629317038263025L0,6C0,2.688509853036,2.688509853036,0,6,0Z"/></clipPath><clipPath id="clip6"><path d="M6,0L84,0C87.311490146964,0,90,2.688509853036,90,6L90,426.21455187937295C90,426.21455187937295,90,426.21455187937295,90,426.21455187937295L0,426.21455187937295C0,426.21455187937295,0,426.21455187937295,0,426.21455187937295L0,6C0,2.688509853036,2.688509853036,0,6,0Z"/></clipPath><clipPath id="clip7"><path d="M6,0L84,0C87.311490146964,0,90,2.688509853036,90,6L90,428.17544028916603C90,428.17544028916603,90,428.17544028916603,90,428.17544028916603L0,428.17544028916603C0,428.17544028916603,0,428.17544028916603,0,428.17544028916603L0,6C0,2.688509853036,2.688509853036,0,6,0Z"/></clipPath><clipPath id="clip8"><path d="M6,0L84,0C87.311490146964,0,90,2.688509853036,90,6L90,571.4285714285714C90,571.4285714285714,90,571.4285714285714,90,571.4285714285714L0,571.4285714285714C0,571.4285714285714,0,571.4285714285714,0,571.4285714285714L0,6C0,2.688509853036,2.688509853036,0,6,0Z"/></clipPath></defs></svg>