<svg xmlns="http://www.w3.org/2000/svg" xmlns:xlink="http://www.w3.org/1999/xlink" version="1.1" class="marks" width="844" height="687" viewBox="0 0 844 687"><rect width="844" height="687" fill="white"/><g fill="none" stroke-miterlimit="10" transform="translate(39,36)"><g class="mark-group role-frame root" role="graphics-object" aria-roledescription="group mark container"><g transform="translate(0,0)"><path class="background" aria-hidden="true" d="M0.5,0.5h800v600h-800Z" stroke="#ddd"/><g><g class="mark-group role-axis" role="graphics-symbol" aria-roledescription="axis" aria-label="X-axis titled 'Parser' for a discrete scale with 7 values: yamlrocks&#xA;0.6.1, yaml_rs&#xA;0.1.6, PyYAML (CDumper)&#xA;6.0.3, ryaml&#xA;0.5.1, PyYAML&#xA;6.0.3, oyaml&#xA;1.0, ruamel.yaml&#xA;0.19.1"><g transform="translate(0.5,600.5)"><path class="background" aria-hidden="true" d="M0,0h0v0h0Z" pointer-events="none"/><g><g class="mark-rule role-axis-tick" pointer-events="none"><line transform="translate(57,0)" x2="0" y2="5" stroke="#888" stroke-width="1" opacity="1"/><line transform="translate(171,0)" x2="0" y2="5" stroke="#888" stroke-width="1" opacity="1"/><line transform="translate(285,0)" x2="0" y2="5" stroke="#888" stroke-width="1" opacity="1"/><line transform="translate(400,0)" x2="0" y2="5" stroke="#888" stroke-width="1" opacity="1"/><line transform="translate(514,0)" x2="0" y2="5" stroke="#888" stroke-width="1" opacity="1"/><line transform="translate(628,0)" x2="0" y2="5" stroke="#888" stroke-width="1" opacity="1"/><line transform="translate(742,0)" x2="0" y2="5" stroke="#888" stroke-width="1" opacity="1"/></g><g class="mark-text role-axis-label" pointer-events="none"><text text-anchor="middle" transform="translate(56.642857142857096,15)" font-family="sans-serif" font-size="10px" fill="#000" opacity="1"><tspan>yamlrocks</tspan><tspan x="0" dy="14">0.6.1</tspan></text><text text-anchor="middle" transform="translate(170.9285714285714,15)" font-family="sans-serif" font-size="10px" fill="#000" opacity="1"><tspan>yaml_rs</tspan><tspan x="0" dy="14">0.1.6</tspan></text><text text-anchor="middle" transform="translate(285.21428571428567,15)" font-family="sans-serif" font-size="10px" fill="#000" opacity="1"><tspan>PyYAML (CDumper)</tspan><tspan x="0" dy="14">6.0.3</tspan></text><text text-anchor="middle" transform="translate(399.5,15)" font-family="sans-serif" font-size="10px" fill="#000" opacity="1"><tspan>ryaml</tspan><tspan x="0" dy="14">0.5.1</tspan></text><text text-anchor="middle" transform="translate(513.7857142857142,15)" font-family="sans-serif" font-size="10px" fill="#000" opacity="1"><tspan>PyYAML</tspan><tspan x="0" dy="14">6.0.3</tspan></text><text text-anchor="middle" transform="translate(628.0714285714286,15)" font-family="sans-serif" font-size="10px" fill="#000" opacity="1"><tspan>oyaml</tspan><tspan x="0" dy="14">1.0</tspan></text><text text-anchor="middle" transform="translate(742.3571428571429,15)" font-family="sans-serif" font-size="10px" fill="#000" opacity="1"><tspan>ruamel.yaml</tspan><tspan x="0" dy="14">0.19.1</tspan></text></g><g class="mark-rule role-axis-domain" pointer-events="none"><line transform="translate(0,0)" x2="800" y2="0" stroke="#888" stroke-width="1" opacity="1"/></g><g class="mark-text role-axis-title" pointer-events="none"><text text-anchor="middle" transform="translate(400,44)" font-family="sans-serif" font-size="11px" font-weight="bold" fill="#000" opacity="1">Parser</text></g></g><path class="foreground" aria-hidden="true" d="" pointer-events="none" display="none"/></g></g><g class="mark-group role-axis" role="graphics-symbol" aria-roledescription="axis" aria-label="Y-axis titled 'Execution Time (seconds, lower=better)' for a linear scale with values from 0 to 14"><g transform="translate(0.5,0.5)"><path class="background" aria-hidden="true" d="M0,0h0v0h0Z" pointer-events="none"/><g><g class="mark-rule role-axis-tick" pointer-events="none"><line transform="translate(0,600)" x2="-5" y2="0" stroke="#888" stroke-width="1" opacity="1"/><line transform="translate(0,556)" x2="-5" y2="0" stroke="#888" stroke-width="1" opacity="1"/><line transform="translate(0,511)" x2="-5" y2="0" stroke="#888" stroke-width="1" opacity="1"/><line transform="translate(0,467)" x2="-5" y2="0" stroke="#888" stroke-width="1" opacity="1"/><line transform="translate(0,423)" x2="-5" y2="0" stroke="#888" stroke-width="1" opacity="1"/><line transform="translate(0,378)" x2="-5" y2="0" stroke="#888" stroke-width="1" opacity="1"/><line transform="translate(0,334)" x2="-5" y2="0" stroke="#888" stroke-width="1" opacity="1"/><line transform="translate(0,290)" x2="-5" y2="0" stroke="#888" stroke-width="1" opacity="1"/><line transform="translate(0,246)" x2="-5" y2="0" stroke="#888" stroke-width="1" opacity="1"/><line transform="translate(0,201)" x2="-5" y2="0" stroke="#888" stroke-width="1" opacity="1"/><line transform="translate(0,157)" x2="-5" y2="0" stroke="#888" stroke-width="1" opacity="1"/><line transform="translate(0,113)" x2="-5" y2="0" stroke="#888" stroke-width="1" opacity="1"/><line transform="translate(0,68)" x2="-5" y2="0" stroke="#888" stroke-width="1" opacity="1"/><line transform="translate(0,24)" x2="-5" y2="0" stroke="#888" stroke-width="1" opacity="1"/></g><g class="mark-text role-axis-label" pointer-events="none"><text text-anchor="end" transform="translate(-7,603)" font-family="sans-serif" font-size="10px" fill="#000" opacity="1">0</text><text text-anchor="end" transform="translate(-7,558.6978052413502)" font-family="sans-serif" font-size="10px" fill="#000" opacity="1">1</text><text text-anchor="end" transform="translate(-7,514.3956104827004)" font-family="sans-serif" font-size="10px" fill="#000" opacity="1">2</text><text text-anchor="end" transform="translate(-7,470.0934157240506)" font-family="sans-serif" font-size="10px" fill="#000" opacity="1">3</text><text text-anchor="end" transform="translate(-7,425.7912209654008)" font-family="sans-serif" font-size="10px" fill="#000" opacity="1">4</text><text text-anchor="end" transform="translate(-7,381.48902620675096)" font-family="sans-serif" font-size="10px" fill="#000" opacity="1">5</text><text text-anchor="end" transform="translate(-7,337.1868314481012)" font-family="sans-serif" font-size="10px" fill="#000" opacity="1">6</text><text text-anchor="end" transform="translate(-7,292.8846366894514)" font-family="sans-serif" font-size="10px" fill="#000" opacity="1">7</text><text text-anchor="end" transform="translate(-7,248.58244193080156)" font-family="sans-serif" font-size="10px" fill="#000" opacity="1">8</text><text text-anchor="end" transform="translate(-7,204.28024717215175)" font-family="sans-serif" font-size="10px" fill="#000" opacity="1">9</text><text text-anchor="end" transform="translate(-7,159.97805241350196)" font-family="sans-serif" font-size="10px" fill="#000" opacity="1">10</text><text text-anchor="end" transform="translate(-7,115.67585765485222)" font-family="sans-serif" font-size="10px" fill="#000" opacity="1">11</text><text text-anchor="end" transform="translate(-7,71.37366289620242)" font-family="sans-serif" font-size="10px" fill="#000" opacity="1">12</text><text text-anchor="end" transform="translate(-7,27.07146813755261)" font-family="sans-serif" font-size="10px" fill="#000" opacity="1">13</text></g><g class="mark-rule role-axis-domain" pointer-events="none"><line transform="translate(0,600)" x2="0" y2="-600" stroke="#888" stroke-width="1" opacity="1"/></g><g class="mark-text role-axis-title" pointer-events="none"><text text-anchor="middle" transform="translate(-22.123046875,300) rotate(-90) translate(0,-2)" font-family="sans-serif" font-size="11px" font-weight="bold" fill="#000" opacity="1">Execution Time (seconds, lower=better)</text></g></g><path class="foreground" aria-hidden="true" d="" pointer-events="none" display="none"/></g></g><g class="mark-group role-scope" role="graphics-object" aria-roledescription="group mark container"><g transform="translate(5.714285714285666,598.1654128440966)"><path class="background" aria-hidden="true" d="M0.917293577951682,0L101.93984927919118,0C102.44611738673457,0,102.85714285714286,0.4110254704082905,102.85714285714286,0.917293577951682L102.85714285714286,1.834587155903364C102.85714285714286,1.834587155903364,102.85714285714286,1.834587155903364,102.85714285714286,1.834587155903364L0,1.834587155903364C0,1.834587155903364,0,1.834587155903364,0,1.834587155903364L0,0.917293577951682C0,0.4110254704082905,0.4110254704082905,0,0.917293577951682,0Z"/><g clip-path="url(#clip9)"><g class="mark-group role-scope" role="graphics-object" aria-roledescription="group mark container"><g transform="translate(0,-598.1654128440966)"><path class="background" aria-hidden="true" d="M0,0h102.85714285714286v0h-102.85714285714286Z"/><g><g class="mark-rect role-mark layer_0_marks" role="graphics-object" aria-roledescription="rect mark container"><path aria-label="Parser: yamlrocks&#xA;0.6.1; Execution Time (seconds, lower=better): 0.041410751; parser: yamlrocks; Execution Time (s): 0.0414; Slowdown: 1.00" role="graphics-symbol" aria-roledescription="bar" d="M0,598.1654128440966h102.85714285714286v1.834587155903364h-102.85714285714286Z" fill="#a6761d"/></g></g><path class="foreground" aria-hidden="true" d="" display="none"/></g></g></g><path class="foreground" aria-hidden="true" d="" display="none"/></g><g transform="translate(119.99999999999996,597.191251765409)"><path class="background" aria-hidden="true" d="M1.4043741172955038,0L101.45276873984736,0C102.22786391519324,0,102.85714285714286,0.6292789419496162,102.85714285714286,1.4043741172955038L102.85714285714286,2.8087482345910075C102.85714285714286,2.8087482345910075,102.85714285714286,2.8087482345910075,102.85714285714286,2.8087482345910075L0,2.8087482345910075C0,2.8087482345910075,0,2.8087482345910075,0,2.8087482345910075L0,1.4043741172955038C0,0.6292789419496162,0.6292789419496162,0,1.4043741172955038,0Z"/><g clip-path="url(#clip10)"><g class="mark-group role-scope" role="graphics-object" aria-roledescription="group mark container"><g transform="translate(0,-597.191251765409)"><path class="background" aria-hidden="true" d="M0,0h102.85714285714286v0h-102.85714285714286Z"/><g><g class="mark-rect role-mark layer_0_marks" role="graphics-object" aria-roledescription="rect mark container"><path aria-label="Parser: yaml_rs&#xA;0.1.6; Execution Time (seconds, lower=better): 0.0633997536667; parser: yaml_rs; Execution Time (s): 0.0634; Slowdown: 1.53" role="graphics-symbol" aria-roledescription="bar" d="M0,597.191251765409h102.85714285714286v2.8087482345910075h-102.85714285714286Z" fill="#e6ab02"/></g></g><path class="foreground" aria-hidden="true" d="" display="none"/></g></g></g><path class="foreground" aria-hidden="true" d="" display="none"/></g><g transform="translate(234.28571428571425,591.6922711985787)"><path class="background" aria-hidden="true" d="M4.153864400710631,0L98.70327845643223,0C100.99585862889519,0,102.85714285714286,1.8612842282476687,102.85714285714286,4.153864400710631L102.85714285714286,8.307728801421263C102.85714285714286,8.307728801421263,102.85714285714286,8.307728801421263,102.85714285714286,8.307728801421263L0,8.307728801421263C0,8.307728801421263,0,8.307728801421263,0,8.307728801421263L0,4.153864400710631C0,1.8612842282476687,1.8612842282476687,0,4.153864400710631,0Z"/><g clip-path="url(#clip11)"><g class="mark-group role-scope" role="graphics-object" aria-roledescription="group mark container"><g transform="translate(0,-591.6922711985787)"><path class="background" aria-hidden="true" d="M0,0h102.85714285714286v0h-102.85714285714286Z"/><g><g class="mark-rect role-mark layer_0_marks" role="graphics-object" aria-roledescription="rect mark container"><path aria-label="Parser: PyYAML (CDumper)&#xA;6.0.3; Execution Time (seconds, lower=better): 0.187524091; parser: PyYAML (CDumper); Execution Time (s): 0.1875; Slowdown: 4.53" role="graphics-symbol" aria-roledescription="bar" d="M0,591.6922711985787h102.85714285714286v8.307728801421263h-102.85714285714286Z" fill="#d95f02"/></g></g><path class="foreground" aria-hidden="true" d="" display="none"/></g></g></g><path class="foreground" aria-hidden="true" d="" display="none"/></g><g transform="translate(348.57142857142856,591.2856164058118)"><path class="background" aria-hidden="true" d="M4.357191797094117,0L98.49995106004874,0C100.90475067746699,0,102.85714285714286,1.9523921796758616,102.85714285714286,4.357191797094117L102.85714285714286,8.714383594188234C102.85714285714286,8.714383594188234,102.85714285714286,8.714383594188234,102.85714285714286,8.714383594188234L0,8.714383594188234C0,8.714383594188234,0,8.714383594188234,0,8.714383594188234L0,4.357191797094117C0,1.9523921796758616,1.9523921796758616,0,4.357191797094117,0Z"/><g clip-path="url(#clip12)"><g class="mark-group role-scope" role="graphics-object" aria-roledescription="group mark container"><g transform="translate(0,-591.2856164058118)"><path class="background" aria-hidden="true" d="M0,0h102.85714285714286v0h-102.85714285714286Z"/><g><g class="mark-rect role-mark layer_0_marks" role="graphics-object" aria-roledescription="rect mark container"><path aria-label="Parser: ryaml&#xA;0.5.1; Execution Time (seconds, lower=better): 0.196703202667; parser: ryaml; Execution Time (s): 0.1967; Slowdown: 4.75" role="graphics-symbol" aria-roledescription="bar" d="M0,591.2856164058118h102.85714285714286v8.714383594188234h-102.85714285714286Z" fill="#66a61e"/></g></g><path class="foreground" aria-hidden="true" d="" display="none"/></g></g></g><path class="foreground" aria-hidden="true" d="" display="none"/></g><g transform="translate(462.85714285714283,51.999602710174095)"><path class="background" aria-hidden="true" d="M6,0L96.85714285714286,0C100.16863300410687,0,102.85714285714286,2.688509853036,102.85714285714286,6L102.85714285714286,548.0003972898259C102.85714285714286,548.0003972898259,102.85714285714286,548.0003972898259,102.85714285714286,548.0003972898259L0,548.0003972898259C0,548.0003972898259,0,548.0003972898259,0,548.0003972898259L0,6C0,2.688509853036,2.688509853036,0,6,0Z"/><g clip-path="url(#clip13)"><g class="mark-group role-scope" role="graphics-object" aria-roledescription="group mark container"><g transform="translate(0,-51.999602710174095)"><path class="background" aria-hidden="true" d="M0,0h102.85714285714286v0h-102.85714285714286Z"/><g><g class="mark-rect role-mark layer_0_marks" role="graphics-object" aria-roledescription="rect mark container"><path aria-label="Parser: PyYAML&#xA;6.0.3; Execution Time (seconds, lower=better): 12.3695993003; parser: PyYAML; Execution Time (s): 12.3696; Slowdown: 298.71" role="graphics-symbol" aria-roledescription="bar" d="M0,51.999602710174095h102.85714285714286v548.0003972898259h-102.85714285714286Z" fill="#1b9e77"/></g></g><path class="foreground" aria-hidden="true" d="" display="none"/></g></g></g><path class="foreground" aria-hidden="true" d="" display="none"/></g><g transform="translate(577.1428571428571,50.73534106942241)"><path class="background" aria-hidden="true" d="M6,0L96.85714285714286,0C100.16863300410687,0,102.85714285714286,2.688509853036,102.85714285714286,6L102.85714285714286,549.2646589305776C102.85714285714286,549.2646589305776,102.85714285714286,549.2646589305776,102.85714285714286,549.2646589305776L0,549.2646589305776C0,549.2646589305776,0,549.2646589305776,0,549.2646589305776L0,6C0,2.688509853036,2.688509853036,0,6,0Z"/><g clip-path="url(#clip14)"><g class="mark-group role-scope" role="graphics-object" aria-roledescription="group mark container"><g transform="translate(0,-50.73534106942241)"><path class="background" aria-hidden="true" d="M0,0h102.85714285714286v0h-102.85714285714286Z"/><g><g class="mark-rect role-mark layer_0_marks" role="graphics-object" aria-roledescription="rect mark container"><path aria-label="Parser: oyaml&#xA;1.0; Execution Time (seconds, lower=better): 12.398136524; parser: oyaml; Execution Time (s): 12.3981; Slowdown: 299.39" role="graphics-symbol" aria-roledescription="bar" d="M0,50.73534106942241h102.85714285714286v549.2646589305776h-102.85714285714286Z" fill="#7570b3"/></g></g><path class="foreground" aria-hidden="true" d="" display="none"/></g></g></g><path class="foreground" aria-hidden="true" d="" display="none"/></g><g transform="translate(691.4285714285714,28.571428571428605)"><path class="background" aria-hidden="true" d="M6,0L96.85714285714286,0C100.16863300410687,0,102.85714285714286,2.688509853036,102.85714285714286,6L102.85714285714286,571.4285714285714C102.85714285714286,571.4285714285714,102.85714285714286,571.4285714285714,102.85714285714286,571.4285714285714L0,571.4285714285714C0,571.4285714285714,0,571.4285714285714,0,571.4285714285714L0,6C0,2.688509853036,2.688509853036,0,6,0Z"/><g clip-path="url(#clip15)"><g class="mark-group role-scope" role="graphics-object" aria-roledescription="group mark container"><g transform="translate(0,-28.571428571428605)"><path class="background" aria-hidden="true" d="M0,0h102.85714285714286v0h-102.85714285714286Z"/><g><g class="mark-rect role-mark layer_0_marks" role="graphics-object" aria-roledescription="rect mark container"><path aria-label="Parser: ruamel.yaml&#xA;0.19.1; Execution Time (seconds, lower=better): 12.89842579; parser: ruamel.yaml; Execution Time (s): 12.8984; Slowdown: 311.48" role="graphics-symbol" aria-roledescription="bar" d="M0,28.571428571428605h102.85714285714286v571.4285714285714h-102.85714285714286Z" fill="#e7298a"/></g></g><path class="foreground" aria-hidden="true" d="" display="none"/></g></g></g><path class="foreground" aria-hidden="true" d="" display="none"/></g></g><g class="mark-text role-mark layer_1_marks" role="graphics-object" aria-roledescription="text mark container"><text aria-label="Parser: yamlrocks&#xA;0.6.1; Execution Time (seconds, lower=better): 0.041410751; parser: yamlrocks; label: 0.0414s (x1.00); Execution Time (s): 0.0414; Slowdown: 1.00" role="graphics-symbol" aria-roledescription="text mark" text-anchor="middle" transform="translate(57.142857142857096,594.1654128440966)" font-family="sans-serif" font-size="9px" font-weight="bold" fill="#a6761d">0.0414s (x1.00)</text><text aria-label="Parser: yaml_rs&#xA;0.1.6; Execution Time (seconds, lower=better): 0.0633997536667; parser: yaml_rs; label: 0.0634s (x1.53); Execution Time (s): 0.0634; Slowdown: 1.53" role="graphics-symbol" aria-roledescription="text mark" text-anchor="middle" transform="translate(171.4285714285714,593.191251765409)" font-family="sans-serif" font-size="9px" font-weight="bold" fill="#e6ab02">0.0634s (x1.53)</text><text aria-label="Parser: PyYAML (CDumper)&#xA;6.0.3; Execution Time (seconds, lower=better): 0.187524091; parser: PyYAML (CDumper); label: 0.1875s (x4.53); Execution Time (s): 0.1875; Slowdown: 4.53" role="graphics-symbol" aria-roledescription="text mark" text-anchor="middle" transform="translate(285.71428571428567,587.6922711985787)" font-family="sans-serif" font-size="9px" font-weight="bold" fill="#d95f02">0.1875s (x4.53)</text><text aria-label="Parser: ryaml&#xA;0.5.1; Execution Time (seconds, lower=better): 0.196703202667; parser: ryaml; label: 0.1967s (x4.75); Execution Time (s): 0.1967; Slowdown: 4.75" role="graphics-symbol" aria-roledescription="text mark" text-anchor="middle" transform="translate(400,587.2856164058118)" font-family="sans-serif" font-size="9px" font-weight="bold" fill="#66a61e">0.1967s (x4.75)</text><text aria-label="Parser: PyYAML&#xA;6.0.3; Execution Time (seconds, lower=better): 12.3695993003; parser: PyYAML; label: 12.3696s (x298.71); Execution Time (s): 12.3696; Slowdown: 298.71" role="graphics-symbol" aria-roledescription="text mark" text-anchor="middle" transform="translate(514.2857142857142,47.999602710174095)" font-family="sans-serif" font-size="9px" font-weight="bold" fill="#1b9e77">12.3696s (x298.71)</text><text aria-label="Parser: oyaml&#xA;1.0; Execution Time (seconds, lower=better): 12.398136524; parser: oyaml; label: 12.3981s (x299.39); Execution Time (s): 12.3981; Slowdown: 299.39" role="graphics-symbol" aria-roledescription="text mark" text-anchor="middle" transform="translate(628.5714285714286,46.73534106942241)" font-family="sans-serif" font-size="9px" font-weight="bold" fill="#7570b3">12.3981s (x299.39)</text><text aria-label="Parser: ruamel.yaml&#xA;0.19.1; Execution Time (seconds, lower=better): 12.89842579; parser: ruamel.yaml; label: 12.8984s (x311.48); Execution Time (s): 12.8984; Slowdown: 311.48" role="graphics-symbol" aria-roledescription="text mark" text-anchor="middle" transform="translate(742.8571428571429,24.571428571428605)" font-family="sans-serif" font-size="9px" font-weight="bold" fill="#e7298a">12.8984s (x311.48)</text></g><g class="mark-group role-title"><g transform="translate(400,-31)"><path class="background" aria-hidden="true" d="M0,0h0v0h0Z" pointer-events="none"/><g><g class="mark-text role-title-text" role="graphics-symbol" aria-roledescription="title" aria-label="Title text 'YAML parsers benchmark (dumps)'" pointer-events="none"><text text-anchor="middle" transform="translate(0,10)" font-family="sans-serif" font-size="13px" font-weight="bold" fill="#000" opacity="1">YAML parsers benchmark (dumps)</text></g><g class="mark-text role-title-subtitle" role="graphics-symbol" aria-roledescription="subtitle" aria-label="Subtitle text 'Python: 3.14.6 (Linux 6.17.0-1020-azure) | CPU: AMD EPYC 7763 64-Core Processor'" pointer-events="none"><text text-anchor="middle" transform="translate(0,25)" font-family="sans-serif" font-size="12px" fill="#000" opacity="1">Python: 3.14.6 (Linux 6.17.0-1020-azure) | CPU: AMD EPYC 7763 64-Core Processor</text></g></g><path class="foreground" aria-hidden="true" d="" pointer-events="none" display="none"/></g></g></g><path class="foreground" aria-hidden="true" d="" display="none"/></g></g></g><defs><clipPath id="clip9"><path d="M0.917293577951682,0L101.93984927919118,0C102.44611738673457,0,102.85714285714286,0.4110254704082905,102.85714285714286,0.917293577951682L102.85714285714286,1.834587155903364C102.85714285714286,1.834587155903364,102.85714285714286,1.834587155903364,102.85714285714286,1.834587155903364L0,1.834587155903364C0,1.834587155903364,0,1.834587155903364,0,1.834587155903364L0,0.917293577951682C0,0.4110254704082905,0.4110254704082905,0,0.917293577951682,0Z"/></clipPath><clipPath id="clip10"><path d="M1.4043741172955038,0L101.45276873984736,0C102.22786391519324,0,102.85714285714286,0.6292789419496162,102.85714285714286,1.4043741172955038L102.85714285714286,2.8087482345910075C102.85714285714286,2.8087482345910075,102.85714285714286,2.8087482345910075,102.85714285714286,2.8087482345910075L0,2.8087482345910075C0,2.8087482345910075,0,2.8087482345910075,0,2.8087482345910075L0,1.4043741172955038C0,0.6292789419496162,0.6292789419496162,0,1.4043741172955038,0Z"/></clipPath><clipPath id="clip11"><path d="M4.153864400710631,0L98.70327845643223,0C100.99585862889519,0,102.85714285714286,1.8612842282476687,102.85714285714286,4.153864400710631L102.85714285714286,8.307728801421263C102.85714285714286,8.307728801421263,102.85714285714286,8.307728801421263,102.85714285714286,8.307728801421263L0,8.307728801421263C0,8.307728801421263,0,8.307728801421263,0,8.307728801421263L0,4.153864400710631C0,1.8612842282476687,1.8612842282476687,0,4.153864400710631,0Z"/></clipPath><clipPath id="clip12"><path d="M4.357191797094117,0L98.49995106004874,0C100.90475067746699,0,102.85714285714286,1.9523921796758616,102.85714285714286,4.357191797094117L102.85714285714286,8.714383594188234C102.85714285714286,8.714383594188234,102.85714285714286,8.714383594188234,102.85714285714286,8.714383594188234L0,8.714383594188234C0,8.714383594188234,0,8.714383594188234,0,8.714383594188234L0,4.357191797094117C0,1.9523921796758616,1.9523921796758616,0,4.357191797094117,0Z"/></clipPath><clipPath id="clip13"><path d="M6,0L96.85714285714286,0C100.16863300410687,0,102.85714285714286,2.688509853036,102.85714285714286,6L102.85714285714286,548.0003972898259C102.85714285714286,548.0003972898259,102.85714285714286,548.0003972898259,102.85714285714286,548.0003972898259L0,548.0003972898259C0,548.0003972898259,0,548.0003972898259,0,548.0003972898259L0,6C0,2.688509853036,2.688509853036,0,6,0Z"/></clipPath><clipPath id="clip14"><path d="M6,0L96.85714285714286,0C100.16863300410687,0,102.85714285714286,2.688509853036,102.85714285714286,6L102.85714285714286,549.2646589305776C102.85714285714286,549.2646589305776,102.85714285714286,549.2646589305776,102.85714285714286,549.2646589305776L0,549.2646589305776C0,549.2646589305776,0,549.2646589305776,0,549.2646589305776L0,6C0,2.688509853036,2.688509853036,0,6,0Z"/></clipPath><clipPath id="clip15"><path d="M6,0L96.85714285714286,0C100.16863300410687,0,102.85714285714286,2.688509853036,102.85714285714286,6L102.85714285714286,571.4285714285714C102.85714285714286,571.4285714285714,102.85714285714286,571.4285714285714,102.85714285714286,571.4285714285714L0,571.4285714285714C0,571.4285714285714,0,571.4285714285714,0,571.4285714285714L0,6C0,2.688509853036,2.688509853036,0,6,0Z"/></clipPath></defs></svg>