<svg xmlns="http://www.w3.org/2000/svg" xmlns:xlink="http://www.w3.org/1999/xlink" version="1.1" class="marks" width="844" height="687" viewBox="0 0 844 687"><rect width="844" height="687" fill="white"/><g fill="none" stroke-miterlimit="10" transform="translate(39,36)"><g class="mark-group role-frame root" role="graphics-object" aria-roledescription="group mark container"><g transform="translate(0,0)"><path class="background" aria-hidden="true" d="M0.5,0.5h800v600h-800Z" stroke="#ddd"/><g><g class="mark-group role-axis" role="graphics-symbol" aria-roledescription="axis" aria-label="X-axis titled 'Parser' for a discrete scale with 8 values: yamlrocks&#xA;0.6.1, yaml_rs (parse_dt=False)&#xA;0.1.6, yaml_rs&#xA;0.1.6, ryaml&#xA;0.5.1, PyYAML (CLoader)&#xA;6.0.3, ending with ruamel.yaml&#xA;0.19.1"><g transform="translate(0.5,600.5)"><path class="background" aria-hidden="true" d="M0,0h0v0h0Z" pointer-events="none"/><g><g class="mark-rule role-axis-tick" pointer-events="none"><line transform="translate(50,0)" x2="0" y2="5" stroke="#888" stroke-width="1" opacity="1"/><line transform="translate(150,0)" x2="0" y2="5" stroke="#888" stroke-width="1" opacity="1"/><line transform="translate(250,0)" x2="0" y2="5" stroke="#888" stroke-width="1" opacity="1"/><line transform="translate(350,0)" x2="0" y2="5" stroke="#888" stroke-width="1" opacity="1"/><line transform="translate(450,0)" x2="0" y2="5" stroke="#888" stroke-width="1" opacity="1"/><line transform="translate(550,0)" x2="0" y2="5" stroke="#888" stroke-width="1" opacity="1"/><line transform="translate(650,0)" x2="0" y2="5" stroke="#888" stroke-width="1" opacity="1"/><line transform="translate(750,0)" x2="0" y2="5" stroke="#888" stroke-width="1" opacity="1"/></g><g class="mark-text role-axis-label" pointer-events="none"><text text-anchor="middle" transform="translate(49.5,15)" font-family="sans-serif" font-size="10px" fill="#000" opacity="1"><tspan>yamlrocks</tspan><tspan x="0" dy="14">0.6.1</tspan></text><text text-anchor="middle" transform="translate(149.5,15)" font-family="sans-serif" font-size="10px" fill="#000" opacity="1"><tspan>yaml_rs (parse_dt=False)</tspan><tspan x="0" dy="14">0.1.6</tspan></text><text text-anchor="middle" transform="translate(249.5,15)" font-family="sans-serif" font-size="10px" fill="#000" opacity="1"><tspan>yaml_rs</tspan><tspan x="0" dy="14">0.1.6</tspan></text><text text-anchor="middle" transform="translate(349.5,15)" font-family="sans-serif" font-size="10px" fill="#000" opacity="1"><tspan>ryaml</tspan><tspan x="0" dy="14">0.5.1</tspan></text><text text-anchor="middle" transform="translate(449.5,15)" font-family="sans-serif" font-size="10px" fill="#000" opacity="1"><tspan>PyYAML (CLoader)</tspan><tspan x="0" dy="14">6.0.3</tspan></text><text text-anchor="middle" transform="translate(549.5,15)" font-family="sans-serif" font-size="10px" fill="#000" opacity="1"><tspan>oyaml</tspan><tspan x="0" dy="14">1.0</tspan></text><text text-anchor="middle" transform="translate(649.5,15)" font-family="sans-serif" font-size="10px" fill="#000" opacity="1"><tspan>PyYAML</tspan><tspan x="0" dy="14">6.0.3</tspan></text><text text-anchor="middle" transform="translate(749.5,15)" font-family="sans-serif" font-size="10px" fill="#000" opacity="1"><tspan>ruamel.yaml</tspan><tspan x="0" dy="14">0.19.1</tspan></text></g><g class="mark-rule role-axis-domain" pointer-events="none"><line transform="translate(0,0)" x2="800" y2="0" stroke="#888" stroke-width="1" opacity="1"/></g><g class="mark-text role-axis-title" pointer-events="none"><text text-anchor="middle" transform="translate(400,44)" font-family="sans-serif" font-size="11px" font-weight="bold" fill="#000" opacity="1">Parser</text></g></g><path class="foreground" aria-hidden="true" d="" pointer-events="none" display="none"/></g></g><g class="mark-group role-axis" role="graphics-symbol" aria-roledescription="axis" aria-label="Y-axis titled 'Execution Time (seconds, lower=better)' for a linear scale with values from 0 to 41"><g transform="translate(0.5,0.5)"><path class="background" aria-hidden="true" d="M0,0h0v0h0Z" pointer-events="none"/><g><g class="mark-rule role-axis-tick" pointer-events="none"><line transform="translate(0,600)" x2="-5" y2="0" stroke="#888" stroke-width="1" opacity="1"/><line transform="translate(0,570)" x2="-5" y2="0" stroke="#888" stroke-width="1" opacity="1"/><line transform="translate(0,541)" x2="-5" y2="0" stroke="#888" stroke-width="1" opacity="1"/><line transform="translate(0,511)" x2="-5" y2="0" stroke="#888" stroke-width="1" opacity="1"/><line transform="translate(0,481)" x2="-5" y2="0" stroke="#888" stroke-width="1" opacity="1"/><line transform="translate(0,452)" x2="-5" y2="0" stroke="#888" stroke-width="1" opacity="1"/><line transform="translate(0,422)" x2="-5" y2="0" stroke="#888" stroke-width="1" opacity="1"/><line transform="translate(0,393)" x2="-5" y2="0" stroke="#888" stroke-width="1" opacity="1"/><line transform="translate(0,363)" x2="-5" y2="0" stroke="#888" stroke-width="1" opacity="1"/><line transform="translate(0,333)" x2="-5" y2="0" stroke="#888" stroke-width="1" opacity="1"/><line transform="translate(0,304)" x2="-5" y2="0" stroke="#888" stroke-width="1" opacity="1"/><line transform="translate(0,274)" x2="-5" y2="0" stroke="#888" stroke-width="1" opacity="1"/><line transform="translate(0,244)" x2="-5" y2="0" stroke="#888" stroke-width="1" opacity="1"/><line transform="translate(0,215)" x2="-5" y2="0" stroke="#888" stroke-width="1" opacity="1"/><line transform="translate(0,185)" x2="-5" y2="0" stroke="#888" stroke-width="1" opacity="1"/><line transform="translate(0,156)" x2="-5" y2="0" stroke="#888" stroke-width="1" opacity="1"/><line transform="translate(0,126)" x2="-5" y2="0" stroke="#888" stroke-width="1" opacity="1"/><line transform="translate(0,96)" x2="-5" y2="0" stroke="#888" stroke-width="1" opacity="1"/><line transform="translate(0,67)" x2="-5" y2="0" stroke="#888" stroke-width="1" opacity="1"/><line transform="translate(0,37)" x2="-5" y2="0" stroke="#888" stroke-width="1" opacity="1"/><line transform="translate(0,7)" x2="-5" y2="0" stroke="#888" stroke-width="1" opacity="1"/></g><g class="mark-text role-axis-label" pointer-events="none"><text text-anchor="end" transform="translate(-7,603)" font-family="sans-serif" font-size="10px" fill="#000" opacity="1">0</text><text text-anchor="end" transform="translate(-7,573.3749455194993)" font-family="sans-serif" font-size="10px" fill="#000" opacity="1">2</text><text text-anchor="end" transform="translate(-7,543.7498910389987)" font-family="sans-serif" font-size="10px" fill="#000" opacity="1">4</text><text text-anchor="end" transform="translate(-7,514.124836558498)" font-family="sans-serif" font-size="10px" fill="#000" opacity="1">6</text><text text-anchor="end" transform="translate(-7,484.4997820779974)" font-family="sans-serif" font-size="10px" fill="#000" opacity="1">8</text><text text-anchor="end" transform="translate(-7,454.87472759749676)" font-family="sans-serif" font-size="10px" fill="#000" opacity="1">10</text><text text-anchor="end" transform="translate(-7,425.24967311699606)" font-family="sans-serif" font-size="10px" fill="#000" opacity="1">12</text><text text-anchor="end" transform="translate(-7,395.6246186364954)" font-family="sans-serif" font-size="10px" fill="#000" opacity="1">14</text><text text-anchor="end" transform="translate(-7,365.99956415599485)" font-family="sans-serif" font-size="10px" fill="#000" opacity="1">16</text><text text-anchor="end" transform="translate(-7,336.37450967549415)" font-family="sans-serif" font-size="10px" fill="#000" opacity="1">18</text><text text-anchor="end" transform="translate(-7,306.74945519499346)" font-family="sans-serif" font-size="10px" fill="#000" opacity="1">20</text><text text-anchor="end" transform="translate(-7,277.1244007144929)" font-family="sans-serif" font-size="10px" fill="#000" opacity="1">22</text><text text-anchor="end" transform="translate(-7,247.49934623399218)" font-family="sans-serif" font-size="10px" fill="#000" opacity="1">24</text><text text-anchor="end" transform="translate(-7,217.87429175349158)" font-family="sans-serif" font-size="10px" fill="#000" opacity="1">26</text><text text-anchor="end" transform="translate(-7,188.2492372729909)" font-family="sans-serif" font-size="10px" fill="#000" opacity="1">28</text><text text-anchor="end" transform="translate(-7,158.62418279249027)" font-family="sans-serif" font-size="10px" fill="#000" opacity="1">30</text><text text-anchor="end" transform="translate(-7,128.9991283119896)" font-family="sans-serif" font-size="10px" fill="#000" opacity="1">32</text><text text-anchor="end" transform="translate(-7,99.374073831489)" font-family="sans-serif" font-size="10px" fill="#000" opacity="1">34</text><text text-anchor="end" transform="translate(-7,69.74901935098832)" font-family="sans-serif" font-size="10px" fill="#000" opacity="1">36</text><text text-anchor="end" transform="translate(-7,40.12396487048763)" font-family="sans-serif" font-size="10px" fill="#000" opacity="1">38</text><text text-anchor="end" transform="translate(-7,10.498910389987024)" font-family="sans-serif" font-size="10px" fill="#000" opacity="1">40</text></g><g class="mark-rule role-axis-domain" pointer-events="none"><line transform="translate(0,600)" x2="0" y2="-600" stroke="#888" stroke-width="1" opacity="1"/></g><g class="mark-text role-axis-title" pointer-events="none"><text text-anchor="middle" transform="translate(-22.123046875,300) rotate(-90) translate(0,-2)" font-family="sans-serif" font-size="11px" font-weight="bold" fill="#000" opacity="1">Execution Time (seconds, lower=better)</text></g></g><path class="foreground" aria-hidden="true" d="" pointer-events="none" display="none"/></g></g><g class="mark-group role-scope" role="graphics-object" aria-roledescription="group mark container"><g transform="translate(5,596.5750429781261)"><path class="background" aria-hidden="true" d="M1.7124785109369327,0L88.28752148906307,0C89.23266410837228,0,90,0.7673358916277269,90,1.7124785109369327L90,3.4249570218738654C90,3.4249570218738654,90,3.4249570218738654,90,3.4249570218738654L0,3.4249570218738654C0,3.4249570218738654,0,3.4249570218738654,0,3.4249570218738654L0,1.7124785109369327C0,0.7673358916277269,0.7673358916277269,0,1.7124785109369327,0Z"/><g clip-path="url(#clip1)"><g class="mark-group role-scope" role="graphics-object" aria-roledescription="group mark container"><g transform="translate(0,-596.5750429781261)"><path class="background" aria-hidden="true" d="M0,0h90v0h-90Z"/><g><g class="mark-rect role-mark layer_0_marks" role="graphics-object" aria-roledescription="rect mark container"><path aria-label="Parser: yamlrocks&#xA;0.6.1; Execution Time (seconds, lower=better): 0.231220302; parser: yamlrocks; Execution Time (s): 0.2312; Slowdown: 1.00" role="graphics-symbol" aria-roledescription="bar" d="M0,596.5750429781261h90v3.4249570218738654h-90Z" fill="#666666"/></g></g><path class="foreground" aria-hidden="true" d="" display="none"/></g></g></g><path class="foreground" aria-hidden="true" d="" display="none"/></g><g transform="translate(105,595.5882721356412)"><path class="background" aria-hidden="true" d="M2.2058639321793976,0L87.7941360678206,0C89.01158551397982,0,90,0.9884144860201742,90,2.2058639321793976L90,4.411727864358795C90,4.411727864358795,90,4.411727864358795,90,4.411727864358795L0,4.411727864358795C0,4.411727864358795,0,4.411727864358795,0,4.411727864358795L0,2.2058639321793976C0,0.9884144860201742,0.9884144860201742,0,2.2058639321793976,0Z"/><g clip-path="url(#clip2)"><g class="mark-group role-scope" role="graphics-object" aria-roledescription="group mark container"><g transform="translate(0,-595.5882721356412)"><path class="background" aria-hidden="true" d="M0,0h90v0h-90Z"/><g><g class="mark-rect role-mark layer_0_marks" role="graphics-object" aria-roledescription="rect mark container"><path aria-label="Parser: yaml_rs (parse_dt=False)&#xA;0.1.6; Execution Time (seconds, lower=better): 0.297837620333; parser: yaml_rs (parse_dt=False); Execution Time (s): 0.2978; Slowdown: 1.29" role="graphics-symbol" aria-roledescription="bar" d="M0,595.5882721356412h90v4.411727864358795h-90Z" fill="#a6761d"/></g></g><path class="foreground" aria-hidden="true" d="" display="none"/></g></g></g><path class="foreground" aria-hidden="true" d="" display="none"/></g><g transform="translate(205,595.5861756495357)"><path class="background" aria-hidden="true" d="M2.206912175232162,0L87.79308782476784,0C89.01111581201721,0,90,0.9888841879827965,90,2.206912175232162L90,4.413824350464324C90,4.413824350464324,90,4.413824350464324,90,4.413824350464324L0,4.413824350464324C0,4.413824350464324,0,4.413824350464324,0,4.413824350464324L0,2.206912175232162C0,0.9888841879827965,0.9888841879827965,0,2.206912175232162,0Z"/><g clip-path="url(#clip3)"><g class="mark-group role-scope" role="graphics-object" aria-roledescription="group mark container"><g transform="translate(0,-595.5861756495357)"><path class="background" aria-hidden="true" d="M0,0h90v0h-90Z"/><g><g class="mark-rect role-mark layer_0_marks" role="graphics-object" aria-roledescription="rect mark container"><path aria-label="Parser: yaml_rs&#xA;0.1.6; Execution Time (seconds, lower=better): 0.297979155; parser: yaml_rs; Execution Time (s): 0.2980; Slowdown: 1.29" role="graphics-symbol" aria-roledescription="bar" d="M0,595.5861756495357h90v4.413824350464324h-90Z" fill="#e6ab02"/></g></g><path class="foreground" aria-hidden="true" d="" display="none"/></g></g></g><path class="foreground" aria-hidden="true" d="" display="none"/></g><g transform="translate(305,589.9625725807874)"><path class="background" aria-hidden="true" d="M5.018713709606288,0L84.98128629039371,0C87.75118979035943,0,90,2.24881020964056,90,5.018713709606288L90,10.037427419212577C90,10.037427419212577,90,10.037427419212577,90,10.037427419212577L0,10.037427419212577C0,10.037427419212577,0,10.037427419212577,0,10.037427419212577L0,5.018713709606288C0,2.24881020964056,2.24881020964056,0,5.018713709606288,0Z"/><g clip-path="url(#clip4)"><g class="mark-group role-scope" role="graphics-object" aria-roledescription="group mark container"><g transform="translate(0,-589.9625725807874)"><path class="background" aria-hidden="true" d="M0,0h90v0h-90Z"/><g><g class="mark-rect role-mark layer_0_marks" role="graphics-object" aria-roledescription="rect mark container"><path aria-label="Parser: ryaml&#xA;0.5.1; Execution Time (seconds, lower=better): 0.677630984667; parser: ryaml; Execution Time (s): 0.6776; Slowdown: 2.93" role="graphics-symbol" aria-roledescription="bar" d="M0,589.9625725807874h90v10.037427419212577h-90Z" fill="#66a61e"/></g></g><path class="foreground" aria-hidden="true" d="" display="none"/></g></g></g><path class="foreground" aria-hidden="true" d="" display="none"/></g><g transform="translate(405,564.8750535775059)"><path class="background" aria-hidden="true" d="M6,0L84,0C87.311490146964,0,90,2.688509853036,90,6L90,35.12494642249408C90,35.12494642249408,90,35.12494642249408,90,35.12494642249408L0,35.12494642249408C0,35.12494642249408,0,35.12494642249408,0,35.12494642249408L0,6C0,2.688509853036,2.688509853036,0,6,0Z"/><g clip-path="url(#clip5)"><g class="mark-group role-scope" role="graphics-object" aria-roledescription="group mark container"><g transform="translate(0,-564.8750535775059)"><path class="background" aria-hidden="true" d="M0,0h90v0h-90Z"/><g><g class="mark-rect role-mark layer_0_marks" role="graphics-object" aria-roledescription="rect mark container"><path aria-label="Parser: PyYAML (CLoader)&#xA;6.0.3; Execution Time (seconds, lower=better): 2.371300039; parser: PyYAML (CLoader); Execution Time (s): 2.3713; Slowdown: 10.26" role="graphics-symbol" aria-roledescription="bar" d="M0,564.8750535775059h90v35.12494642249408h-90Z" fill="#d95f02"/></g></g><path class="foreground" aria-hidden="true" d="" display="none"/></g></g></g><path class="foreground" aria-hidden="true" d="" display="none"/></g><g transform="translate(505,194.72660046480738)"><path class="background" aria-hidden="true" d="M6,0L84,0C87.311490146964,0,90,2.688509853036,90,6L90,405.27339953519265C90,405.27339953519265,90,405.27339953519265,90,405.27339953519265L0,405.27339953519265C0,405.27339953519265,0,405.27339953519265,0,405.27339953519265L0,6C0,2.688509853036,2.688509853036,0,6,0Z"/><g clip-path="url(#clip6)"><g class="mark-group role-scope" role="graphics-object" aria-roledescription="group mark container"><g transform="translate(0,-194.72660046480738)"><path class="background" aria-hidden="true" d="M0,0h90v0h-90Z"/><g><g class="mark-rect role-mark layer_0_marks" role="graphics-object" aria-roledescription="rect mark container"><path aria-label="Parser: oyaml&#xA;1.0; Execution Time (seconds, lower=better): 27.360179189; parser: oyaml; Execution Time (s): 27.3602; Slowdown: 118.33" role="graphics-symbol" aria-roledescription="bar" d="M0,194.72660046480738h90v405.27339953519265h-90Z" fill="#7570b3"/></g></g><path class="foreground" aria-hidden="true" d="" display="none"/></g></g></g><path class="foreground" aria-hidden="true" d="" display="none"/></g><g transform="translate(605,194.14537429074448)"><path class="background" aria-hidden="true" d="M6,0L84,0C87.311490146964,0,90,2.688509853036,90,6L90,405.8546257092555C90,405.8546257092555,90,405.8546257092555,90,405.8546257092555L0,405.8546257092555C0,405.8546257092555,0,405.8546257092555,0,405.8546257092555L0,6C0,2.688509853036,2.688509853036,0,6,0Z"/><g clip-path="url(#clip7)"><g class="mark-group role-scope" role="graphics-object" aria-roledescription="group mark container"><g transform="translate(0,-194.14537429074448)"><path class="background" aria-hidden="true" d="M0,0h90v0h-90Z"/><g><g class="mark-rect role-mark layer_0_marks" role="graphics-object" aria-roledescription="rect mark container"><path aria-label="Parser: PyYAML&#xA;6.0.3; Execution Time (seconds, lower=better): 27.3994180147; parser: PyYAML; Execution Time (s): 27.3994; Slowdown: 118.50" role="graphics-symbol" aria-roledescription="bar" d="M0,194.14537429074448h90v405.8546257092555h-90Z" fill="#1b9e77"/></g></g><path class="foreground" aria-hidden="true" d="" display="none"/></g></g></g><path class="foreground" aria-hidden="true" d="" display="none"/></g><g transform="translate(705,28.571428571428605)"><path class="background" aria-hidden="true" d="M6,0L84,0C87.311490146964,0,90,2.688509853036,90,6L90,571.4285714285714C90,571.4285714285714,90,571.4285714285714,90,571.4285714285714L0,571.4285714285714C0,571.4285714285714,0,571.4285714285714,0,571.4285714285714L0,6C0,2.688509853036,2.688509853036,0,6,0Z"/><g clip-path="url(#clip8)"><g class="mark-group role-scope" role="graphics-object" aria-roledescription="group mark container"><g transform="translate(0,-28.571428571428605)"><path class="background" aria-hidden="true" d="M0,0h90v0h-90Z"/><g><g class="mark-rect role-mark layer_0_marks" role="graphics-object" aria-roledescription="rect mark container"><path aria-label="Parser: ruamel.yaml&#xA;0.19.1; Execution Time (seconds, lower=better): 38.577385355; parser: ruamel.yaml; Execution Time (s): 38.5774; Slowdown: 166.84" role="graphics-symbol" aria-roledescription="bar" d="M0,28.571428571428605h90v571.4285714285714h-90Z" fill="#e7298a"/></g></g><path class="foreground" aria-hidden="true" d="" display="none"/></g></g></g><path class="foreground" aria-hidden="true" d="" display="none"/></g></g><g class="mark-text role-mark layer_1_marks" role="graphics-object" aria-roledescription="text mark container"><text aria-label="Parser: yamlrocks&#xA;0.6.1; Execution Time (seconds, lower=better): 0.231220302; parser: yamlrocks; label: 0.2312s (x1.00); Execution Time (s): 0.2312; Slowdown: 1.00" role="graphics-symbol" aria-roledescription="text mark" text-anchor="middle" transform="translate(50,592.5750429781261)" font-family="sans-serif" font-size="9px" font-weight="bold" fill="#666666">0.2312s (x1.00)</text><text aria-label="Parser: yaml_rs (parse_dt=False)&#xA;0.1.6; Execution Time (seconds, lower=better): 0.297837620333; parser: yaml_rs (parse_dt=False); label: 0.2978s (x1.29); Execution Time (s): 0.2978; Slowdown: 1.29" role="graphics-symbol" aria-roledescription="text mark" text-anchor="middle" transform="translate(150,591.5882721356412)" font-family="sans-serif" font-size="9px" font-weight="bold" fill="#a6761d">0.2978s (x1.29)</text><text aria-label="Parser: yaml_rs&#xA;0.1.6; Execution Time (seconds, lower=better): 0.297979155; parser: yaml_rs; label: 0.2980s (x1.29); Execution Time (s): 0.2980; Slowdown: 1.29" role="graphics-symbol" aria-roledescription="text mark" text-anchor="middle" transform="translate(250,591.5861756495357)" font-family="sans-serif" font-size="9px" font-weight="bold" fill="#e6ab02">0.2980s (x1.29)</text><text aria-label="Parser: ryaml&#xA;0.5.1; Execution Time (seconds, lower=better): 0.677630984667; parser: ryaml; label: 0.6776s (x2.93); Execution Time (s): 0.6776; Slowdown: 2.93" role="graphics-symbol" aria-roledescription="text mark" text-anchor="middle" transform="translate(350,585.9625725807874)" font-family="sans-serif" font-size="9px" font-weight="bold" fill="#66a61e">0.6776s (x2.93)</text><text aria-label="Parser: PyYAML (CLoader)&#xA;6.0.3; Execution Time (seconds, lower=better): 2.371300039; parser: PyYAML (CLoader); label: 2.3713s (x10.26); Execution Time (s): 2.3713; Slowdown: 10.26" role="graphics-symbol" aria-roledescription="text mark" text-anchor="middle" transform="translate(450,560.8750535775059)" font-family="sans-serif" font-size="9px" font-weight="bold" fill="#d95f02">2.3713s (x10.26)</text><text aria-label="Parser: oyaml&#xA;1.0; Execution Time (seconds, lower=better): 27.360179189; parser: oyaml; label: 27.3602s (x118.33); Execution Time (s): 27.3602; Slowdown: 118.33" role="graphics-symbol" aria-roledescription="text mark" text-anchor="middle" transform="translate(550,190.72660046480738)" font-family="sans-serif" font-size="9px" font-weight="bold" fill="#7570b3">27.3602s (x118.33)</text><text aria-label="Parser: PyYAML&#xA;6.0.3; Execution Time (seconds, lower=better): 27.3994180147; parser: PyYAML; label: 27.3994s (x118.50); Execution Time (s): 27.3994; Slowdown: 118.50" role="graphics-symbol" aria-roledescription="text mark" text-anchor="middle" transform="translate(650,190.14537429074448)" font-family="sans-serif" font-size="9px" font-weight="bold" fill="#1b9e77">27.3994s (x118.50)</text><text aria-label="Parser: ruamel.yaml&#xA;0.19.1; Execution Time (seconds, lower=better): 38.577385355; parser: ruamel.yaml; label: 38.5774s (x166.84); Execution Time (s): 38.5774; Slowdown: 166.84" role="graphics-symbol" aria-roledescription="text mark" text-anchor="middle" transform="translate(750,24.571428571428605)" font-family="sans-serif" font-size="9px" font-weight="bold" fill="#e7298a">38.5774s (x166.84)</text></g><g class="mark-group role-title"><g transform="translate(400,-31)"><path class="background" aria-hidden="true" d="M0,0h0v0h0Z" pointer-events="none"/><g><g class="mark-text role-title-text" role="graphics-symbol" aria-roledescription="title" aria-label="Title text 'YAML parsers benchmark (loads)'" pointer-events="none"><text text-anchor="middle" transform="translate(0,10)" font-family="sans-serif" font-size="13px" font-weight="bold" fill="#000" opacity="1">YAML parsers benchmark (loads)</text></g><g class="mark-text role-title-subtitle" role="graphics-symbol" aria-roledescription="subtitle" aria-label="Subtitle text 'Python: 3.14.6 (Linux 6.17.0-1018-azure) | CPU: AMD EPYC 7763 64-Core Processor'" pointer-events="none"><text text-anchor="middle" transform="translate(0,25)" font-family="sans-serif" font-size="12px" fill="#000" opacity="1">Python: 3.14.6 (Linux 6.17.0-1018-azure) | CPU: AMD EPYC 7763 64-Core Processor</text></g></g><path class="foreground" aria-hidden="true" d="" pointer-events="none" display="none"/></g></g></g><path class="foreground" aria-hidden="true" d="" display="none"/></g></g></g><defs><clipPath id="clip1"><path d="M1.7124785109369327,0L88.28752148906307,0C89.23266410837228,0,90,0.7673358916277269,90,1.7124785109369327L90,3.4249570218738654C90,3.4249570218738654,90,3.4249570218738654,90,3.4249570218738654L0,3.4249570218738654C0,3.4249570218738654,0,3.4249570218738654,0,3.4249570218738654L0,1.7124785109369327C0,0.7673358916277269,0.7673358916277269,0,1.7124785109369327,0Z"/></clipPath><clipPath id="clip2"><path d="M2.2058639321793976,0L87.7941360678206,0C89.01158551397982,0,90,0.9884144860201742,90,2.2058639321793976L90,4.411727864358795C90,4.411727864358795,90,4.411727864358795,90,4.411727864358795L0,4.411727864358795C0,4.411727864358795,0,4.411727864358795,0,4.411727864358795L0,2.2058639321793976C0,0.9884144860201742,0.9884144860201742,0,2.2058639321793976,0Z"/></clipPath><clipPath id="clip3"><path d="M2.206912175232162,0L87.79308782476784,0C89.01111581201721,0,90,0.9888841879827965,90,2.206912175232162L90,4.413824350464324C90,4.413824350464324,90,4.413824350464324,90,4.413824350464324L0,4.413824350464324C0,4.413824350464324,0,4.413824350464324,0,4.413824350464324L0,2.206912175232162C0,0.9888841879827965,0.9888841879827965,0,2.206912175232162,0Z"/></clipPath><clipPath id="clip4"><path d="M5.018713709606288,0L84.98128629039371,0C87.75118979035943,0,90,2.24881020964056,90,5.018713709606288L90,10.037427419212577C90,10.037427419212577,90,10.037427419212577,90,10.037427419212577L0,10.037427419212577C0,10.037427419212577,0,10.037427419212577,0,10.037427419212577L0,5.018713709606288C0,2.24881020964056,2.24881020964056,0,5.018713709606288,0Z"/></clipPath><clipPath id="clip5"><path d="M6,0L84,0C87.311490146964,0,90,2.688509853036,90,6L90,35.12494642249408C90,35.12494642249408,90,35.12494642249408,90,35.12494642249408L0,35.12494642249408C0,35.12494642249408,0,35.12494642249408,0,35.12494642249408L0,6C0,2.688509853036,2.688509853036,0,6,0Z"/></clipPath><clipPath id="clip6"><path d="M6,0L84,0C87.311490146964,0,90,2.688509853036,90,6L90,405.27339953519265C90,405.27339953519265,90,405.27339953519265,90,405.27339953519265L0,405.27339953519265C0,405.27339953519265,0,405.27339953519265,0,405.27339953519265L0,6C0,2.688509853036,2.688509853036,0,6,0Z"/></clipPath><clipPath id="clip7"><path d="M6,0L84,0C87.311490146964,0,90,2.688509853036,90,6L90,405.8546257092555C90,405.8546257092555,90,405.8546257092555,90,405.8546257092555L0,405.8546257092555C0,405.8546257092555,0,405.8546257092555,0,405.8546257092555L0,6C0,2.688509853036,2.688509853036,0,6,0Z"/></clipPath><clipPath id="clip8"><path d="M6,0L84,0C87.311490146964,0,90,2.688509853036,90,6L90,571.4285714285714C90,571.4285714285714,90,571.4285714285714,90,571.4285714285714L0,571.4285714285714C0,571.4285714285714,0,571.4285714285714,0,571.4285714285714L0,6C0,2.688509853036,2.688509853036,0,6,0Z"/></clipPath></defs></svg>