<svg xmlns="http://www.w3.org/2000/svg" xmlns:xlink="http://www.w3.org/1999/xlink" version="1.1" class="marks" width="844" height="687" viewBox="0 0 844 687"><rect width="844" height="687" fill="white"/><g fill="none" stroke-miterlimit="10" transform="translate(39,36)"><g class="mark-group role-frame root" role="graphics-object" aria-roledescription="group mark container"><g transform="translate(0,0)"><path class="background" aria-hidden="true" d="M0.5,0.5h800v600h-800Z" stroke="#ddd"/><g><g class="mark-group role-axis" role="graphics-symbol" aria-roledescription="axis" aria-label="X-axis titled 'Parser' for a discrete scale with 8 values: yaml_rs&#xA;0.1.4, yaml_rs (parse_dt=False)&#xA;0.1.4, yamlrocks&#xA;0.5.0, ryaml&#xA;0.5.1, PyYAML (CLoader)&#xA;6.0.3, ending with ruamel.yaml&#xA;0.19.1"><g transform="translate(0.5,600.5)"><path class="background" aria-hidden="true" d="M0,0h0v0h0Z" pointer-events="none"/><g><g class="mark-rule role-axis-tick" pointer-events="none"><line transform="translate(50,0)" x2="0" y2="5" stroke="#888" stroke-width="1" opacity="1"/><line transform="translate(150,0)" x2="0" y2="5" stroke="#888" stroke-width="1" opacity="1"/><line transform="translate(250,0)" x2="0" y2="5" stroke="#888" stroke-width="1" opacity="1"/><line transform="translate(350,0)" x2="0" y2="5" stroke="#888" stroke-width="1" opacity="1"/><line transform="translate(450,0)" x2="0" y2="5" stroke="#888" stroke-width="1" opacity="1"/><line transform="translate(550,0)" x2="0" y2="5" stroke="#888" stroke-width="1" opacity="1"/><line transform="translate(650,0)" x2="0" y2="5" stroke="#888" stroke-width="1" opacity="1"/><line transform="translate(750,0)" x2="0" y2="5" stroke="#888" stroke-width="1" opacity="1"/></g><g class="mark-text role-axis-label" pointer-events="none"><text text-anchor="middle" transform="translate(49.5,15)" font-family="sans-serif" font-size="10px" fill="#000" opacity="1"><tspan>yaml_rs</tspan><tspan x="0" dy="14">0.1.4</tspan></text><text text-anchor="middle" transform="translate(149.5,15)" font-family="sans-serif" font-size="10px" fill="#000" opacity="1"><tspan>yaml_rs (parse_dt=False)</tspan><tspan x="0" dy="14">0.1.4</tspan></text><text text-anchor="middle" transform="translate(249.5,15)" font-family="sans-serif" font-size="10px" fill="#000" opacity="1"><tspan>yamlrocks</tspan><tspan x="0" dy="14">0.5.0</tspan></text><text text-anchor="middle" transform="translate(349.5,15)" font-family="sans-serif" font-size="10px" fill="#000" opacity="1"><tspan>ryaml</tspan><tspan x="0" dy="14">0.5.1</tspan></text><text text-anchor="middle" transform="translate(449.5,15)" font-family="sans-serif" font-size="10px" fill="#000" opacity="1"><tspan>PyYAML (CLoader)</tspan><tspan x="0" dy="14">6.0.3</tspan></text><text text-anchor="middle" transform="translate(549.5,15)" font-family="sans-serif" font-size="10px" fill="#000" opacity="1"><tspan>oyaml</tspan><tspan x="0" dy="14">1.0</tspan></text><text text-anchor="middle" transform="translate(649.5,15)" font-family="sans-serif" font-size="10px" fill="#000" opacity="1"><tspan>PyYAML</tspan><tspan x="0" dy="14">6.0.3</tspan></text><text text-anchor="middle" transform="translate(749.5,15)" font-family="sans-serif" font-size="10px" fill="#000" opacity="1"><tspan>ruamel.yaml</tspan><tspan x="0" dy="14">0.19.1</tspan></text></g><g class="mark-rule role-axis-domain" pointer-events="none"><line transform="translate(0,0)" x2="800" y2="0" stroke="#888" stroke-width="1" opacity="1"/></g><g class="mark-text role-axis-title" pointer-events="none"><text text-anchor="middle" transform="translate(400,44)" font-family="sans-serif" font-size="11px" font-weight="bold" fill="#000" opacity="1">Parser</text></g></g><path class="foreground" aria-hidden="true" d="" pointer-events="none" display="none"/></g></g><g class="mark-group role-axis" role="graphics-symbol" aria-roledescription="axis" aria-label="Y-axis titled 'Execution Time (seconds, lower=better)' for a linear scale with values from 0 to 33"><g transform="translate(0.5,0.5)"><path class="background" aria-hidden="true" d="M0,0h0v0h0Z" pointer-events="none"/><g><g class="mark-rule role-axis-tick" pointer-events="none"><line transform="translate(0,600)" x2="-5" y2="0" stroke="#888" stroke-width="1" opacity="1"/><line transform="translate(0,563)" x2="-5" y2="0" stroke="#888" stroke-width="1" opacity="1"/><line transform="translate(0,527)" x2="-5" y2="0" stroke="#888" stroke-width="1" opacity="1"/><line transform="translate(0,490)" x2="-5" y2="0" stroke="#888" stroke-width="1" opacity="1"/><line transform="translate(0,453)" x2="-5" y2="0" stroke="#888" stroke-width="1" opacity="1"/><line transform="translate(0,417)" x2="-5" y2="0" stroke="#888" stroke-width="1" opacity="1"/><line transform="translate(0,380)" x2="-5" y2="0" stroke="#888" stroke-width="1" opacity="1"/><line transform="translate(0,343)" x2="-5" y2="0" stroke="#888" stroke-width="1" opacity="1"/><line transform="translate(0,307)" x2="-5" y2="0" stroke="#888" stroke-width="1" opacity="1"/><line transform="translate(0,270)" x2="-5" y2="0" stroke="#888" stroke-width="1" opacity="1"/><line transform="translate(0,233)" x2="-5" y2="0" stroke="#888" stroke-width="1" opacity="1"/><line transform="translate(0,197)" x2="-5" y2="0" stroke="#888" stroke-width="1" opacity="1"/><line transform="translate(0,160)" x2="-5" y2="0" stroke="#888" stroke-width="1" opacity="1"/><line transform="translate(0,123)" x2="-5" y2="0" stroke="#888" stroke-width="1" opacity="1"/><line transform="translate(0,87)" x2="-5" y2="0" stroke="#888" stroke-width="1" opacity="1"/><line transform="translate(0,50)" x2="-5" y2="0" stroke="#888" stroke-width="1" opacity="1"/><line transform="translate(0,13)" x2="-5" y2="0" stroke="#888" stroke-width="1" opacity="1"/></g><g class="mark-text role-axis-label" pointer-events="none"><text text-anchor="end" transform="translate(-7,603)" font-family="sans-serif" font-size="10px" fill="#000" opacity="1">0</text><text text-anchor="end" transform="translate(-7,566.3383258633528)" font-family="sans-serif" font-size="10px" fill="#000" opacity="1">2</text><text text-anchor="end" transform="translate(-7,529.6766517267055)" font-family="sans-serif" font-size="10px" fill="#000" opacity="1">4</text><text text-anchor="end" transform="translate(-7,493.0149775900583)" font-family="sans-serif" font-size="10px" fill="#000" opacity="1">6</text><text text-anchor="end" transform="translate(-7,456.35330345341106)" font-family="sans-serif" font-size="10px" fill="#000" opacity="1">8</text><text text-anchor="end" transform="translate(-7,419.69162931676385)" font-family="sans-serif" font-size="10px" fill="#000" opacity="1">10</text><text text-anchor="end" transform="translate(-7,383.02995518011664)" font-family="sans-serif" font-size="10px" fill="#000" opacity="1">12</text><text text-anchor="end" transform="translate(-7,346.3682810434694)" font-family="sans-serif" font-size="10px" fill="#000" opacity="1">14</text><text text-anchor="end" transform="translate(-7,309.7066069068222)" font-family="sans-serif" font-size="10px" fill="#000" opacity="1">16</text><text text-anchor="end" transform="translate(-7,273.04493277017497)" font-family="sans-serif" font-size="10px" fill="#000" opacity="1">18</text><text text-anchor="end" transform="translate(-7,236.3832586335277)" font-family="sans-serif" font-size="10px" fill="#000" opacity="1">20</text><text text-anchor="end" transform="translate(-7,199.7215844968805)" font-family="sans-serif" font-size="10px" fill="#000" opacity="1">22</text><text text-anchor="end" transform="translate(-7,163.0599103602333)" font-family="sans-serif" font-size="10px" fill="#000" opacity="1">24</text><text text-anchor="end" transform="translate(-7,126.39823622358601)" font-family="sans-serif" font-size="10px" fill="#000" opacity="1">26</text><text text-anchor="end" transform="translate(-7,89.7365620869388)" font-family="sans-serif" font-size="10px" fill="#000" opacity="1">28</text><text text-anchor="end" transform="translate(-7,53.074887950291604)" font-family="sans-serif" font-size="10px" fill="#000" opacity="1">30</text><text text-anchor="end" transform="translate(-7,16.413213813644333)" font-family="sans-serif" font-size="10px" fill="#000" opacity="1">32</text></g><g class="mark-rule role-axis-domain" pointer-events="none"><line transform="translate(0,600)" x2="0" y2="-600" stroke="#888" stroke-width="1" opacity="1"/></g><g class="mark-text role-axis-title" pointer-events="none"><text text-anchor="middle" transform="translate(-22.123046875,300) rotate(-90) translate(0,-2)" font-family="sans-serif" font-size="11px" font-weight="bold" fill="#000" opacity="1">Execution Time (seconds, lower=better)</text></g></g><path class="foreground" aria-hidden="true" d="" pointer-events="none" display="none"/></g></g><g class="mark-group role-scope" role="graphics-object" aria-roledescription="group mark container"><g transform="translate(5,594.0505823335973)"><path class="background" aria-hidden="true" d="M2.974708833201362,0L87.02529116679864,0C88.66707766533749,0,90,1.332922334662514,90,2.974708833201362L90,5.949417666402724C90,5.949417666402724,90,5.949417666402724,90,5.949417666402724L0,5.949417666402724C0,5.949417666402724,0,5.949417666402724,0,5.949417666402724L0,2.974708833201362C0,1.332922334662514,1.332922334662514,0,2.974708833201362,0Z"/><g clip-path="url(#clip1)"><g class="mark-group role-scope" role="graphics-object" aria-roledescription="group mark container"><g transform="translate(0,-594.0505823335973)"><path class="background" aria-hidden="true" d="M0,0h90v0h-90Z"/><g><g class="mark-rect role-mark layer_0_marks" role="graphics-object" aria-roledescription="rect mark container"><path aria-label="Parser: yaml_rs&#xA;0.1.4; Execution Time (seconds, lower=better): 0.324557882667; parser: yaml_rs; Execution Time (s): 0.3246; Slowdown: 1.00" role="graphics-symbol" aria-roledescription="bar" d="M0,594.0505823335973h90v5.949417666402724h-90Z" fill="#e6ab02"/></g></g><path class="foreground" aria-hidden="true" d="" display="none"/></g></g></g><path class="foreground" aria-hidden="true" d="" display="none"/></g><g transform="translate(105,593.9384551878984)"><path class="background" aria-hidden="true" d="M3.030772406050801,0L86.9692275939492,0C88.64195642067047,0,90,1.3580435793295338,90,3.030772406050801L90,6.061544812101602C90,6.061544812101602,90,6.061544812101602,90,6.061544812101602L0,6.061544812101602C0,6.061544812101602,0,6.061544812101602,0,6.061544812101602L0,3.030772406050801C0,1.3580435793295338,1.3580435793295338,0,3.030772406050801,0Z"/><g clip-path="url(#clip2)"><g class="mark-group role-scope" role="graphics-object" aria-roledescription="group mark container"><g transform="translate(0,-593.9384551878984)"><path class="background" aria-hidden="true" d="M0,0h90v0h-90Z"/><g><g class="mark-rect role-mark layer_0_marks" role="graphics-object" aria-roledescription="rect mark container"><path aria-label="Parser: yaml_rs (parse_dt=False)&#xA;0.1.4; Execution Time (seconds, lower=better): 0.330674741667; parser: yaml_rs (parse_dt=False); Execution Time (s): 0.3307; Slowdown: 1.02" role="graphics-symbol" aria-roledescription="bar" d="M0,593.9384551878984h90v6.061544812101602h-90Z" fill="#a6761d"/></g></g><path class="foreground" aria-hidden="true" d="" display="none"/></g></g></g><path class="foreground" aria-hidden="true" d="" display="none"/></g><g transform="translate(205,593.1776004210335)"><path class="background" aria-hidden="true" d="M3.4111997894832484,0L86.58880021051675,0C88.47149262588333,0,90,1.5285073741166737,90,3.4111997894832484L90,6.822399578966497C90,6.822399578966497,90,6.822399578966497,90,6.822399578966497L0,6.822399578966497C0,6.822399578966497,0,6.822399578966497,0,6.822399578966497L0,3.4111997894832484C0,1.5285073741166737,1.5285073741166737,0,3.4111997894832484,0Z"/><g clip-path="url(#clip3)"><g class="mark-group role-scope" role="graphics-object" aria-roledescription="group mark container"><g transform="translate(0,-593.1776004210335)"><path class="background" aria-hidden="true" d="M0,0h90v0h-90Z"/><g><g class="mark-rect role-mark layer_0_marks" role="graphics-object" aria-roledescription="rect mark container"><path aria-label="Parser: yamlrocks&#xA;0.5.0; Execution Time (seconds, lower=better): 0.372181562333; parser: yamlrocks; Execution Time (s): 0.3722; Slowdown: 1.15" role="graphics-symbol" aria-roledescription="bar" d="M0,593.1776004210335h90v6.822399578966497h-90Z" fill="#666666"/></g></g><path class="foreground" aria-hidden="true" d="" display="none"/></g></g></g><path class="foreground" aria-hidden="true" d="" display="none"/></g><g transform="translate(305,586.8730098693022)"><path class="background" aria-hidden="true" d="M6,0L84,0C87.311490146964,0,90,2.688509853036,90,6L90,13.126990130697777C90,13.126990130697777,90,13.126990130697777,90,13.126990130697777L0,13.126990130697777C0,13.126990130697777,0,13.126990130697777,0,13.126990130697777L0,6C0,2.688509853036,2.688509853036,0,6,0Z"/><g clip-path="url(#clip4)"><g class="mark-group role-scope" role="graphics-object" aria-roledescription="group mark container"><g transform="translate(0,-586.8730098693022)"><path class="background" aria-hidden="true" d="M0,0h90v0h-90Z"/><g><g class="mark-rect role-mark layer_0_marks" role="graphics-object" aria-roledescription="rect mark container"><path aria-label="Parser: ryaml&#xA;0.5.1; Execution Time (seconds, lower=better): 0.716115149667; parser: ryaml; Execution Time (s): 0.7161; Slowdown: 2.21" role="graphics-symbol" aria-roledescription="bar" d="M0,586.8730098693022h90v13.126990130697777h-90Z" fill="#66a61e"/></g></g><path class="foreground" aria-hidden="true" d="" display="none"/></g></g></g><path class="foreground" aria-hidden="true" d="" display="none"/></g><g transform="translate(405,561.0632651137142)"><path class="background" aria-hidden="true" d="M6,0L84,0C87.311490146964,0,90,2.688509853036,90,6L90,38.93673488628576C90,38.93673488628576,90,38.93673488628576,90,38.93673488628576L0,38.93673488628576C0,38.93673488628576,0,38.93673488628576,0,38.93673488628576L0,6C0,2.688509853036,2.688509853036,0,6,0Z"/><g clip-path="url(#clip5)"><g class="mark-group role-scope" role="graphics-object" aria-roledescription="group mark container"><g transform="translate(0,-561.0632651137142)"><path class="background" aria-hidden="true" d="M0,0h90v0h-90Z"/><g><g class="mark-rect role-mark layer_0_marks" role="graphics-object" aria-roledescription="rect mark container"><path aria-label="Parser: PyYAML (CLoader)&#xA;6.0.3; Execution Time (seconds, lower=better): 2.12411112167; parser: PyYAML (CLoader); Execution Time (s): 2.1241; Slowdown: 6.54" role="graphics-symbol" aria-roledescription="bar" d="M0,561.0632651137142h90v38.93673488628576h-90Z" fill="#d95f02"/></g></g><path class="foreground" aria-hidden="true" d="" display="none"/></g></g></g><path class="foreground" aria-hidden="true" d="" display="none"/></g><g transform="translate(505,178.17987309620835)"><path class="background" aria-hidden="true" d="M6,0L84,0C87.311490146964,0,90,2.688509853036,90,6L90,421.8201269037917C90,421.8201269037917,90,421.8201269037917,90,421.8201269037917L0,421.8201269037917C0,421.8201269037917,0,421.8201269037917,0,421.8201269037917L0,6C0,2.688509853036,2.688509853036,0,6,0Z"/><g clip-path="url(#clip6)"><g class="mark-group role-scope" role="graphics-object" aria-roledescription="group mark container"><g transform="translate(0,-178.17987309620835)"><path class="background" aria-hidden="true" d="M0,0h90v0h-90Z"/><g><g class="mark-rect role-mark layer_0_marks" role="graphics-object" aria-roledescription="rect mark container"><path aria-label="Parser: oyaml&#xA;1.0; Execution Time (seconds, lower=better): 23.0115038027; parser: oyaml; Execution Time (s): 23.0115; Slowdown: 70.90" role="graphics-symbol" aria-roledescription="bar" d="M0,178.17987309620835h90v421.8201269037917h-90Z" fill="#7570b3"/></g></g><path class="foreground" aria-hidden="true" d="" display="none"/></g></g></g><path class="foreground" aria-hidden="true" d="" display="none"/></g><g transform="translate(605,177.63108456937994)"><path class="background" aria-hidden="true" d="M6,0L84,0C87.311490146964,0,90,2.688509853036,90,6L90,422.36891543062006C90,422.36891543062006,90,422.36891543062006,90,422.36891543062006L0,422.36891543062006C0,422.36891543062006,0,422.36891543062006,0,422.36891543062006L0,6C0,2.688509853036,2.688509853036,0,6,0Z"/><g clip-path="url(#clip7)"><g class="mark-group role-scope" role="graphics-object" aria-roledescription="group mark container"><g transform="translate(0,-177.63108456937994)"><path class="background" aria-hidden="true" d="M0,0h90v0h-90Z"/><g><g class="mark-rect role-mark layer_0_marks" role="graphics-object" aria-roledescription="rect mark container"><path aria-label="Parser: PyYAML&#xA;6.0.3; Execution Time (seconds, lower=better): 23.0414417987; parser: PyYAML; Execution Time (s): 23.0414; Slowdown: 70.99" role="graphics-symbol" aria-roledescription="bar" d="M0,177.63108456937994h90v422.36891543062006h-90Z" fill="#1b9e77"/></g></g><path class="foreground" aria-hidden="true" d="" display="none"/></g></g></g><path class="foreground" aria-hidden="true" d="" display="none"/></g><g transform="translate(705,28.571428571428605)"><path class="background" aria-hidden="true" d="M6,0L84,0C87.311490146964,0,90,2.688509853036,90,6L90,571.4285714285714C90,571.4285714285714,90,571.4285714285714,90,571.4285714285714L0,571.4285714285714C0,571.4285714285714,0,571.4285714285714,0,571.4285714285714L0,6C0,2.688509853036,2.688509853036,0,6,0Z"/><g clip-path="url(#clip8)"><g class="mark-group role-scope" role="graphics-object" aria-roledescription="group mark container"><g transform="translate(0,-28.571428571428605)"><path class="background" aria-hidden="true" d="M0,0h90v0h-90Z"/><g><g class="mark-rect role-mark layer_0_marks" role="graphics-object" aria-roledescription="rect mark container"><path aria-label="Parser: ruamel.yaml&#xA;0.19.1; Execution Time (seconds, lower=better): 31.173075692; parser: ruamel.yaml; Execution Time (s): 31.1731; Slowdown: 96.05" role="graphics-symbol" aria-roledescription="bar" d="M0,28.571428571428605h90v571.4285714285714h-90Z" fill="#e7298a"/></g></g><path class="foreground" aria-hidden="true" d="" display="none"/></g></g></g><path class="foreground" aria-hidden="true" d="" display="none"/></g></g><g class="mark-text role-mark layer_1_marks" role="graphics-object" aria-roledescription="text mark container"><text aria-label="Parser: yaml_rs&#xA;0.1.4; Execution Time (seconds, lower=better): 0.324557882667; parser: yaml_rs; label: 0.3246s (x1.00); Execution Time (s): 0.3246; Slowdown: 1.00" role="graphics-symbol" aria-roledescription="text mark" text-anchor="middle" transform="translate(50,590.0505823335973)" font-family="sans-serif" font-size="9px" font-weight="bold" fill="#e6ab02">0.3246s (x1.00)</text><text aria-label="Parser: yaml_rs (parse_dt=False)&#xA;0.1.4; Execution Time (seconds, lower=better): 0.330674741667; parser: yaml_rs (parse_dt=False); label: 0.3307s (x1.02); Execution Time (s): 0.3307; Slowdown: 1.02" role="graphics-symbol" aria-roledescription="text mark" text-anchor="middle" transform="translate(150,589.9384551878984)" font-family="sans-serif" font-size="9px" font-weight="bold" fill="#a6761d">0.3307s (x1.02)</text><text aria-label="Parser: yamlrocks&#xA;0.5.0; Execution Time (seconds, lower=better): 0.372181562333; parser: yamlrocks; label: 0.3722s (x1.15); Execution Time (s): 0.3722; Slowdown: 1.15" role="graphics-symbol" aria-roledescription="text mark" text-anchor="middle" transform="translate(250,589.1776004210335)" font-family="sans-serif" font-size="9px" font-weight="bold" fill="#666666">0.3722s (x1.15)</text><text aria-label="Parser: ryaml&#xA;0.5.1; Execution Time (seconds, lower=better): 0.716115149667; parser: ryaml; label: 0.7161s (x2.21); Execution Time (s): 0.7161; Slowdown: 2.21" role="graphics-symbol" aria-roledescription="text mark" text-anchor="middle" transform="translate(350,582.8730098693022)" font-family="sans-serif" font-size="9px" font-weight="bold" fill="#66a61e">0.7161s (x2.21)</text><text aria-label="Parser: PyYAML (CLoader)&#xA;6.0.3; Execution Time (seconds, lower=better): 2.12411112167; parser: PyYAML (CLoader); label: 2.1241s (x6.54); Execution Time (s): 2.1241; Slowdown: 6.54" role="graphics-symbol" aria-roledescription="text mark" text-anchor="middle" transform="translate(450,557.0632651137142)" font-family="sans-serif" font-size="9px" font-weight="bold" fill="#d95f02">2.1241s (x6.54)</text><text aria-label="Parser: oyaml&#xA;1.0; Execution Time (seconds, lower=better): 23.0115038027; parser: oyaml; label: 23.0115s (x70.90); Execution Time (s): 23.0115; Slowdown: 70.90" role="graphics-symbol" aria-roledescription="text mark" text-anchor="middle" transform="translate(550,174.17987309620835)" font-family="sans-serif" font-size="9px" font-weight="bold" fill="#7570b3">23.0115s (x70.90)</text><text aria-label="Parser: PyYAML&#xA;6.0.3; Execution Time (seconds, lower=better): 23.0414417987; parser: PyYAML; label: 23.0414s (x70.99); Execution Time (s): 23.0414; Slowdown: 70.99" role="graphics-symbol" aria-roledescription="text mark" text-anchor="middle" transform="translate(650,173.63108456937994)" font-family="sans-serif" font-size="9px" font-weight="bold" fill="#1b9e77">23.0414s (x70.99)</text><text aria-label="Parser: ruamel.yaml&#xA;0.19.1; Execution Time (seconds, lower=better): 31.173075692; parser: ruamel.yaml; label: 31.1731s (x96.05); Execution Time (s): 31.1731; Slowdown: 96.05" role="graphics-symbol" aria-roledescription="text mark" text-anchor="middle" transform="translate(750,24.571428571428605)" font-family="sans-serif" font-size="9px" font-weight="bold" fill="#e7298a">31.1731s (x96.05)</text></g><g class="mark-group role-title"><g transform="translate(400,-31)"><path class="background" aria-hidden="true" d="M0,0h0v0h0Z" pointer-events="none"/><g><g class="mark-text role-title-text" role="graphics-symbol" aria-roledescription="title" aria-label="Title text 'YAML parsers benchmark (loads)'" pointer-events="none"><text text-anchor="middle" transform="translate(0,10)" font-family="sans-serif" font-size="13px" font-weight="bold" fill="#000" opacity="1">YAML parsers benchmark (loads)</text></g><g class="mark-text role-title-subtitle" role="graphics-symbol" aria-roledescription="subtitle" aria-label="Subtitle text 'Python: 3.14.6 (Linux 6.17.0-1018-azure) | CPU: AMD EPYC 9V74 80-Core Processor'" pointer-events="none"><text text-anchor="middle" transform="translate(0,25)" font-family="sans-serif" font-size="12px" fill="#000" opacity="1">Python: 3.14.6 (Linux 6.17.0-1018-azure) | CPU: AMD EPYC 9V74 80-Core Processor</text></g></g><path class="foreground" aria-hidden="true" d="" pointer-events="none" display="none"/></g></g></g><path class="foreground" aria-hidden="true" d="" display="none"/></g></g></g><defs><clipPath id="clip1"><path d="M2.974708833201362,0L87.02529116679864,0C88.66707766533749,0,90,1.332922334662514,90,2.974708833201362L90,5.949417666402724C90,5.949417666402724,90,5.949417666402724,90,5.949417666402724L0,5.949417666402724C0,5.949417666402724,0,5.949417666402724,0,5.949417666402724L0,2.974708833201362C0,1.332922334662514,1.332922334662514,0,2.974708833201362,0Z"/></clipPath><clipPath id="clip2"><path d="M3.030772406050801,0L86.9692275939492,0C88.64195642067047,0,90,1.3580435793295338,90,3.030772406050801L90,6.061544812101602C90,6.061544812101602,90,6.061544812101602,90,6.061544812101602L0,6.061544812101602C0,6.061544812101602,0,6.061544812101602,0,6.061544812101602L0,3.030772406050801C0,1.3580435793295338,1.3580435793295338,0,3.030772406050801,0Z"/></clipPath><clipPath id="clip3"><path d="M3.4111997894832484,0L86.58880021051675,0C88.47149262588333,0,90,1.5285073741166737,90,3.4111997894832484L90,6.822399578966497C90,6.822399578966497,90,6.822399578966497,90,6.822399578966497L0,6.822399578966497C0,6.822399578966497,0,6.822399578966497,0,6.822399578966497L0,3.4111997894832484C0,1.5285073741166737,1.5285073741166737,0,3.4111997894832484,0Z"/></clipPath><clipPath id="clip4"><path d="M6,0L84,0C87.311490146964,0,90,2.688509853036,90,6L90,13.126990130697777C90,13.126990130697777,90,13.126990130697777,90,13.126990130697777L0,13.126990130697777C0,13.126990130697777,0,13.126990130697777,0,13.126990130697777L0,6C0,2.688509853036,2.688509853036,0,6,0Z"/></clipPath><clipPath id="clip5"><path d="M6,0L84,0C87.311490146964,0,90,2.688509853036,90,6L90,38.93673488628576C90,38.93673488628576,90,38.93673488628576,90,38.93673488628576L0,38.93673488628576C0,38.93673488628576,0,38.93673488628576,0,38.93673488628576L0,6C0,2.688509853036,2.688509853036,0,6,0Z"/></clipPath><clipPath id="clip6"><path d="M6,0L84,0C87.311490146964,0,90,2.688509853036,90,6L90,421.8201269037917C90,421.8201269037917,90,421.8201269037917,90,421.8201269037917L0,421.8201269037917C0,421.8201269037917,0,421.8201269037917,0,421.8201269037917L0,6C0,2.688509853036,2.688509853036,0,6,0Z"/></clipPath><clipPath id="clip7"><path d="M6,0L84,0C87.311490146964,0,90,2.688509853036,90,6L90,422.36891543062006C90,422.36891543062006,90,422.36891543062006,90,422.36891543062006L0,422.36891543062006C0,422.36891543062006,0,422.36891543062006,0,422.36891543062006L0,6C0,2.688509853036,2.688509853036,0,6,0Z"/></clipPath><clipPath id="clip8"><path d="M6,0L84,0C87.311490146964,0,90,2.688509853036,90,6L90,571.4285714285714C90,571.4285714285714,90,571.4285714285714,90,571.4285714285714L0,571.4285714285714C0,571.4285714285714,0,571.4285714285714,0,571.4285714285714L0,6C0,2.688509853036,2.688509853036,0,6,0Z"/></clipPath></defs></svg>