<svg xmlns="http://www.w3.org/2000/svg" xmlns:xlink="http://www.w3.org/1999/xlink" version="1.1" class="marks" width="844" height="687" viewBox="0 0 844 687"><rect width="844" height="687" fill="white"/><g fill="none" stroke-miterlimit="10" transform="translate(39,36)"><g class="mark-group role-frame root" role="graphics-object" aria-roledescription="group mark container"><g transform="translate(0,0)"><path class="background" aria-hidden="true" d="M0.5,0.5h800v600h-800Z" stroke="#ddd"/><g><g class="mark-group role-axis" role="graphics-symbol" aria-roledescription="axis" aria-label="X-axis titled 'Parser' for a discrete scale with 8 values: yamlrocks&#xA;v0.2.1, yaml_rs (parse_dt=False)&#xA;v0.1.4, yaml_rs&#xA;v0.1.4, ryaml&#xA;v0.5.1, PyYAML (CLoader)&#xA;v6.0.3, ending with ruamel.yaml&#xA;v0.19.1"><g transform="translate(0.5,600.5)"><path class="background" aria-hidden="true" d="M0,0h0v0h0Z" pointer-events="none"/><g><g class="mark-rule role-axis-tick" pointer-events="none"><line transform="translate(50,0)" x2="0" y2="5" stroke="#888" stroke-width="1" opacity="1"/><line transform="translate(150,0)" x2="0" y2="5" stroke="#888" stroke-width="1" opacity="1"/><line transform="translate(250,0)" x2="0" y2="5" stroke="#888" stroke-width="1" opacity="1"/><line transform="translate(350,0)" x2="0" y2="5" stroke="#888" stroke-width="1" opacity="1"/><line transform="translate(450,0)" x2="0" y2="5" stroke="#888" stroke-width="1" opacity="1"/><line transform="translate(550,0)" x2="0" y2="5" stroke="#888" stroke-width="1" opacity="1"/><line transform="translate(650,0)" x2="0" y2="5" stroke="#888" stroke-width="1" opacity="1"/><line transform="translate(750,0)" x2="0" y2="5" stroke="#888" stroke-width="1" opacity="1"/></g><g class="mark-text role-axis-label" pointer-events="none"><text text-anchor="middle" transform="translate(49.5,15)" font-family="sans-serif" font-size="10px" fill="#000" opacity="1"><tspan>yamlrocks</tspan><tspan x="0" dy="14">v0.2.1</tspan></text><text text-anchor="middle" transform="translate(149.5,15)" font-family="sans-serif" font-size="10px" fill="#000" opacity="1"><tspan>yaml_rs (parse_dt=False)</tspan><tspan x="0" dy="14">v0.1.4</tspan></text><text text-anchor="middle" transform="translate(249.5,15)" font-family="sans-serif" font-size="10px" fill="#000" opacity="1"><tspan>yaml_rs</tspan><tspan x="0" dy="14">v0.1.4</tspan></text><text text-anchor="middle" transform="translate(349.5,15)" font-family="sans-serif" font-size="10px" fill="#000" opacity="1"><tspan>ryaml</tspan><tspan x="0" dy="14">v0.5.1</tspan></text><text text-anchor="middle" transform="translate(449.5,15)" font-family="sans-serif" font-size="10px" fill="#000" opacity="1"><tspan>PyYAML (CLoader)</tspan><tspan x="0" dy="14">v6.0.3</tspan></text><text text-anchor="middle" transform="translate(549.5,15)" font-family="sans-serif" font-size="10px" fill="#000" opacity="1"><tspan>oyaml</tspan><tspan x="0" dy="14">v1.0</tspan></text><text text-anchor="middle" transform="translate(649.5,15)" font-family="sans-serif" font-size="10px" fill="#000" opacity="1"><tspan>PyYAML</tspan><tspan x="0" dy="14">v6.0.3</tspan></text><text text-anchor="middle" transform="translate(749.5,15)" font-family="sans-serif" font-size="10px" fill="#000" opacity="1"><tspan>ruamel.yaml</tspan><tspan x="0" dy="14">v0.19.1</tspan></text></g><g class="mark-rule role-axis-domain" pointer-events="none"><line transform="translate(0,0)" x2="800" y2="0" stroke="#888" stroke-width="1" opacity="1"/></g><g class="mark-text role-axis-title" pointer-events="none"><text text-anchor="middle" transform="translate(400,44)" font-family="sans-serif" font-size="11px" font-weight="bold" fill="#000" opacity="1">Parser</text></g></g><path class="foreground" aria-hidden="true" d="" pointer-events="none" display="none"/></g></g><g class="mark-group role-axis" role="graphics-symbol" aria-roledescription="axis" aria-label="Y-axis titled 'Execution Time (seconds, lower=better)' for a linear scale with values from 0 to 39"><g transform="translate(0.5,0.5)"><path class="background" aria-hidden="true" d="M0,0h0v0h0Z" pointer-events="none"/><g><g class="mark-rule role-axis-tick" pointer-events="none"><line transform="translate(0,600)" x2="-5" y2="0" stroke="#888" stroke-width="1" opacity="1"/><line transform="translate(0,570)" x2="-5" y2="0" stroke="#888" stroke-width="1" opacity="1"/><line transform="translate(0,539)" x2="-5" y2="0" stroke="#888" stroke-width="1" opacity="1"/><line transform="translate(0,509)" x2="-5" y2="0" stroke="#888" stroke-width="1" opacity="1"/><line transform="translate(0,478)" x2="-5" y2="0" stroke="#888" stroke-width="1" opacity="1"/><line transform="translate(0,448)" x2="-5" y2="0" stroke="#888" stroke-width="1" opacity="1"/><line transform="translate(0,418)" x2="-5" y2="0" stroke="#888" stroke-width="1" opacity="1"/><line transform="translate(0,387)" x2="-5" y2="0" stroke="#888" stroke-width="1" opacity="1"/><line transform="translate(0,357)" x2="-5" y2="0" stroke="#888" stroke-width="1" opacity="1"/><line transform="translate(0,326)" x2="-5" y2="0" stroke="#888" stroke-width="1" opacity="1"/><line transform="translate(0,296)" x2="-5" y2="0" stroke="#888" stroke-width="1" opacity="1"/><line transform="translate(0,266)" x2="-5" y2="0" stroke="#888" stroke-width="1" opacity="1"/><line transform="translate(0,235)" x2="-5" y2="0" stroke="#888" stroke-width="1" opacity="1"/><line transform="translate(0,205)" x2="-5" y2="0" stroke="#888" stroke-width="1" opacity="1"/><line transform="translate(0,174)" x2="-5" y2="0" stroke="#888" stroke-width="1" opacity="1"/><line transform="translate(0,144)" x2="-5" y2="0" stroke="#888" stroke-width="1" opacity="1"/><line transform="translate(0,114)" x2="-5" y2="0" stroke="#888" stroke-width="1" opacity="1"/><line transform="translate(0,83)" x2="-5" y2="0" stroke="#888" stroke-width="1" opacity="1"/><line transform="translate(0,53)" x2="-5" y2="0" stroke="#888" stroke-width="1" opacity="1"/><line transform="translate(0,22)" x2="-5" y2="0" stroke="#888" stroke-width="1" opacity="1"/></g><g class="mark-text role-axis-label" pointer-events="none"><text text-anchor="end" transform="translate(-7,603)" font-family="sans-serif" font-size="10px" fill="#000" opacity="1">0</text><text text-anchor="end" transform="translate(-7,572.6021263540634)" font-family="sans-serif" font-size="10px" fill="#000" opacity="1">2</text><text text-anchor="end" transform="translate(-7,542.2042527081269)" font-family="sans-serif" font-size="10px" fill="#000" opacity="1">4</text><text text-anchor="end" transform="translate(-7,511.8063790621904)" font-family="sans-serif" font-size="10px" fill="#000" opacity="1">6</text><text text-anchor="end" transform="translate(-7,481.40850541625383)" font-family="sans-serif" font-size="10px" fill="#000" opacity="1">8</text><text text-anchor="end" transform="translate(-7,451.0106317703173)" font-family="sans-serif" font-size="10px" fill="#000" opacity="1">10</text><text text-anchor="end" transform="translate(-7,420.6127581243807)" font-family="sans-serif" font-size="10px" fill="#000" opacity="1">12</text><text text-anchor="end" transform="translate(-7,390.21488447844416)" font-family="sans-serif" font-size="10px" fill="#000" opacity="1">14</text><text text-anchor="end" transform="translate(-7,359.81701083250766)" font-family="sans-serif" font-size="10px" fill="#000" opacity="1">16</text><text text-anchor="end" transform="translate(-7,329.41913718657105)" font-family="sans-serif" font-size="10px" fill="#000" opacity="1">18</text><text text-anchor="end" transform="translate(-7,299.02126354063455)" font-family="sans-serif" font-size="10px" fill="#000" opacity="1">20</text><text text-anchor="end" transform="translate(-7,268.623389894698)" font-family="sans-serif" font-size="10px" fill="#000" opacity="1">22</text><text text-anchor="end" transform="translate(-7,238.22551624876144)" font-family="sans-serif" font-size="10px" fill="#000" opacity="1">24</text><text text-anchor="end" transform="translate(-7,207.82764260282488)" font-family="sans-serif" font-size="10px" fill="#000" opacity="1">26</text><text text-anchor="end" transform="translate(-7,177.4297689568884)" font-family="sans-serif" font-size="10px" fill="#000" opacity="1">28</text><text text-anchor="end" transform="translate(-7,147.03189531095185)" font-family="sans-serif" font-size="10px" fill="#000" opacity="1">30</text><text text-anchor="end" transform="translate(-7,116.63402166501528)" font-family="sans-serif" font-size="10px" fill="#000" opacity="1">32</text><text text-anchor="end" transform="translate(-7,86.23614801907873)" font-family="sans-serif" font-size="10px" fill="#000" opacity="1">34</text><text text-anchor="end" transform="translate(-7,55.83827437314217)" font-family="sans-serif" font-size="10px" fill="#000" opacity="1">36</text><text text-anchor="end" transform="translate(-7,25.440400727205613)" font-family="sans-serif" font-size="10px" fill="#000" opacity="1">38</text></g><g class="mark-rule role-axis-domain" pointer-events="none"><line transform="translate(0,600)" x2="0" y2="-600" stroke="#888" stroke-width="1" opacity="1"/></g><g class="mark-text role-axis-title" pointer-events="none"><text text-anchor="middle" transform="translate(-22.123046875,300) rotate(-90) translate(0,-2)" font-family="sans-serif" font-size="11px" font-weight="bold" fill="#000" opacity="1">Execution Time (seconds, lower=better)</text></g></g><path class="foreground" aria-hidden="true" d="" pointer-events="none" display="none"/></g></g><g class="mark-group role-scope" role="graphics-object" aria-roledescription="group mark container"><g transform="translate(5,594.7794000502159)"><path class="background" aria-hidden="true" d="M2.6102999748920297,0L87.38970002510797,0C88.83036379968719,0,90,1.1696362003128076,90,2.6102999748920297L90,5.220599949784059C90,5.220599949784059,90,5.220599949784059,90,5.220599949784059L0,5.220599949784059C0,5.220599949784059,0,5.220599949784059,0,5.220599949784059L0,2.6102999748920297C0,1.1696362003128076,1.1696362003128076,0,2.6102999748920297,0Z"/><g clip-path="url(#clip1)"><g class="mark-group role-scope" role="graphics-object" aria-roledescription="group mark container"><g transform="translate(0,-594.7794000502159)"><path class="background" aria-hidden="true" d="M0,0h90v0h-90Z"/><g><g class="mark-rect role-mark layer_0_marks" role="graphics-object" aria-roledescription="rect mark container"><path aria-label="Parser: yamlrocks&#xA;v0.2.1; Execution Time (seconds, lower=better): 0.343484548333; parser: yamlrocks; Execution Time (s): 0.3435; Slowdown: 1.00" role="graphics-symbol" aria-roledescription="bar" d="M0,594.7794000502159h90v5.220599949784059h-90Z" fill="#666666"/></g></g><path class="foreground" aria-hidden="true" d="" display="none"/></g></g></g><path class="foreground" aria-hidden="true" d="" display="none"/></g><g transform="translate(105,593.9134036609129)"><path class="background" aria-hidden="true" d="M3.0432981695435615,0L86.95670183045644,0C88.63634381424262,0,90,1.3636561857573815,90,3.0432981695435615L90,6.086596339087123C90,6.086596339087123,90,6.086596339087123,90,6.086596339087123L0,6.086596339087123C0,6.086596339087123,0,6.086596339087123,0,6.086596339087123L0,3.0432981695435615C0,1.3636561857573815,1.3636561857573815,0,3.0432981695435615,0Z"/><g clip-path="url(#clip2)"><g class="mark-group role-scope" role="graphics-object" aria-roledescription="group mark container"><g transform="translate(0,-593.9134036609129)"><path class="background" aria-hidden="true" d="M0,0h90v0h-90Z"/><g><g class="mark-rect role-mark layer_0_marks" role="graphics-object" aria-roledescription="rect mark container"><path aria-label="Parser: yaml_rs (parse_dt=False)&#xA;v0.1.4; Execution Time (seconds, lower=better): 0.400461980333; parser: yaml_rs (parse_dt=False); Execution Time (s): 0.4005; Slowdown: 1.17" role="graphics-symbol" aria-roledescription="bar" d="M0,593.9134036609129h90v6.086596339087123h-90Z" fill="#a6761d"/></g></g><path class="foreground" aria-hidden="true" d="" display="none"/></g></g></g><path class="foreground" aria-hidden="true" d="" display="none"/></g><g transform="translate(205,593.9109625140729)"><path class="background" aria-hidden="true" d="M3.0445187429635325,0L86.95548125703647,0C88.63579689363162,0,90,1.3642031063683724,90,3.0445187429635325L90,6.089037485927065C90,6.089037485927065,90,6.089037485927065,90,6.089037485927065L0,6.089037485927065C0,6.089037485927065,0,6.089037485927065,0,6.089037485927065L0,3.0445187429635325C0,1.3642031063683724,1.3642031063683724,0,3.0445187429635325,0Z"/><g clip-path="url(#clip3)"><g class="mark-group role-scope" role="graphics-object" aria-roledescription="group mark container"><g transform="translate(0,-593.9109625140729)"><path class="background" aria-hidden="true" d="M0,0h90v0h-90Z"/><g><g class="mark-rect role-mark layer_0_marks" role="graphics-object" aria-roledescription="rect mark container"><path aria-label="Parser: yaml_rs&#xA;v0.1.4; Execution Time (seconds, lower=better): 0.400622593333; parser: yaml_rs; Execution Time (s): 0.4006; Slowdown: 1.17" role="graphics-symbol" aria-roledescription="bar" d="M0,593.9109625140729h90v6.089037485927065h-90Z" fill="#e6ab02"/></g></g><path class="foreground" aria-hidden="true" d="" display="none"/></g></g></g><path class="foreground" aria-hidden="true" d="" display="none"/></g><g transform="translate(305,589.875685576455)"><path class="background" aria-hidden="true" d="M5.062157211772501,0L84.9378427882275,0C87.7317234097554,0,90,2.2682765902446023,90,5.062157211772501L90,10.124314423545002C90,10.124314423545002,90,10.124314423545002,90,10.124314423545002L0,10.124314423545002C0,10.124314423545002,0,10.124314423545002,0,10.124314423545002L0,5.062157211772501C0,2.2682765902446023,2.2682765902446023,0,5.062157211772501,0Z"/><g clip-path="url(#clip4)"><g class="mark-group role-scope" role="graphics-object" aria-roledescription="group mark container"><g transform="translate(0,-589.875685576455)"><path class="background" aria-hidden="true" d="M0,0h90v0h-90Z"/><g><g class="mark-rect role-mark layer_0_marks" role="graphics-object" aria-roledescription="rect mark container"><path aria-label="Parser: ryaml&#xA;v0.5.1; Execution Time (seconds, lower=better): 0.666119909667; parser: ryaml; Execution Time (s): 0.6661; Slowdown: 1.94" role="graphics-symbol" aria-roledescription="bar" d="M0,589.875685576455h90v10.124314423545002h-90Z" fill="#66a61e"/></g></g><path class="foreground" aria-hidden="true" d="" display="none"/></g></g></g><path class="foreground" aria-hidden="true" d="" display="none"/></g><g transform="translate(405,565.1539255722449)"><path class="background" aria-hidden="true" d="M6,0L84,0C87.311490146964,0,90,2.688509853036,90,6L90,34.84607442775507C90,34.84607442775507,90,34.84607442775507,90,34.84607442775507L0,34.84607442775507C0,34.84607442775507,0,34.84607442775507,0,34.84607442775507L0,6C0,2.688509853036,2.688509853036,0,6,0Z"/><g clip-path="url(#clip5)"><g class="mark-group role-scope" role="graphics-object" aria-roledescription="group mark container"><g transform="translate(0,-565.1539255722449)"><path class="background" aria-hidden="true" d="M0,0h90v0h-90Z"/><g><g class="mark-rect role-mark layer_0_marks" role="graphics-object" aria-roledescription="rect mark container"><path aria-label="Parser: PyYAML (CLoader)&#xA;v6.0.3; Execution Time (seconds, lower=better): 2.292665259; parser: PyYAML (CLoader); Execution Time (s): 2.2927; Slowdown: 6.67" role="graphics-symbol" aria-roledescription="bar" d="M0,565.1539255722449h90v34.84607442775507h-90Z" fill="#d95f02"/></g></g><path class="foreground" aria-hidden="true" d="" display="none"/></g></g></g><path class="foreground" aria-hidden="true" d="" display="none"/></g><g transform="translate(505,190.4849298404748)"><path class="background" aria-hidden="true" d="M6,0L84,0C87.311490146964,0,90,2.688509853036,90,6L90,409.5150701595252C90,409.5150701595252,90,409.5150701595252,90,409.5150701595252L0,409.5150701595252C0,409.5150701595252,0,409.5150701595252,0,409.5150701595252L0,6C0,2.688509853036,2.688509853036,0,6,0Z"/><g clip-path="url(#clip6)"><g class="mark-group role-scope" role="graphics-object" aria-roledescription="group mark container"><g transform="translate(0,-190.4849298404748)"><path class="background" aria-hidden="true" d="M0,0h90v0h-90Z"/><g><g class="mark-rect role-mark layer_0_marks" role="graphics-object" aria-roledescription="rect mark container"><path aria-label="Parser: oyaml&#xA;v1.0; Execution Time (seconds, lower=better): 26.9436655293; parser: oyaml; Execution Time (s): 26.9437; Slowdown: 78.44" role="graphics-symbol" aria-roledescription="bar" d="M0,190.4849298404748h90v409.5150701595252h-90Z" fill="#7570b3"/></g></g><path class="foreground" aria-hidden="true" d="" display="none"/></g></g></g><path class="foreground" aria-hidden="true" d="" display="none"/></g><g transform="translate(605,184.8391973636963)"><path class="background" aria-hidden="true" d="M6,0L84,0C87.311490146964,0,90,2.688509853036,90,6L90,415.16080263630374C90,415.16080263630374,90,415.16080263630374,90,415.16080263630374L0,415.16080263630374C0,415.16080263630374,0,415.16080263630374,0,415.16080263630374L0,6C0,2.688509853036,2.688509853036,0,6,0Z"/><g clip-path="url(#clip7)"><g class="mark-group role-scope" role="graphics-object" aria-roledescription="group mark container"><g transform="translate(0,-184.8391973636963)"><path class="background" aria-hidden="true" d="M0,0h90v0h-90Z"/><g><g class="mark-rect role-mark layer_0_marks" role="graphics-object" aria-roledescription="rect mark container"><path aria-label="Parser: PyYAML&#xA;v6.0.3; Execution Time (seconds, lower=better): 27.3151212793; parser: PyYAML; Execution Time (s): 27.3151; Slowdown: 79.52" role="graphics-symbol" aria-roledescription="bar" d="M0,184.8391973636963h90v415.16080263630374h-90Z" fill="#1b9e77"/></g></g><path class="foreground" aria-hidden="true" d="" display="none"/></g></g></g><path class="foreground" aria-hidden="true" d="" display="none"/></g><g transform="translate(705,23.076923076923062)"><path class="background" aria-hidden="true" d="M6,0L84,0C87.311490146964,0,90,2.688509853036,90,6L90,576.9230769230769C90,576.9230769230769,90,576.9230769230769,90,576.9230769230769L0,576.9230769230769C0,576.9230769230769,0,576.9230769230769,0,576.9230769230769L0,6C0,2.688509853036,2.688509853036,0,6,0Z"/><g clip-path="url(#clip8)"><g class="mark-group role-scope" role="graphics-object" aria-roledescription="group mark container"><g transform="translate(0,-23.076923076923062)"><path class="background" aria-hidden="true" d="M0,0h90v0h-90Z"/><g><g class="mark-rect role-mark layer_0_marks" role="graphics-object" aria-roledescription="rect mark container"><path aria-label="Parser: ruamel.yaml&#xA;v0.19.1; Execution Time (seconds, lower=better): 37.9581206003; parser: ruamel.yaml; Execution Time (s): 37.9581; Slowdown: 110.51" role="graphics-symbol" aria-roledescription="bar" d="M0,23.076923076923062h90v576.9230769230769h-90Z" fill="#e7298a"/></g></g><path class="foreground" aria-hidden="true" d="" display="none"/></g></g></g><path class="foreground" aria-hidden="true" d="" display="none"/></g></g><g class="mark-text role-mark layer_1_marks" role="graphics-object" aria-roledescription="text mark container"><text aria-label="Parser: yamlrocks&#xA;v0.2.1; Execution Time (seconds, lower=better): 0.343484548333; parser: yamlrocks; label: 0.3435s (x1.00); Execution Time (s): 0.3435; Slowdown: 1.00" role="graphics-symbol" aria-roledescription="text mark" text-anchor="middle" transform="translate(50,590.7794000502159)" font-family="sans-serif" font-size="9px" font-weight="bold" fill="#666666">0.3435s (x1.00)</text><text aria-label="Parser: yaml_rs (parse_dt=False)&#xA;v0.1.4; Execution Time (seconds, lower=better): 0.400461980333; parser: yaml_rs (parse_dt=False); label: 0.4005s (x1.17); Execution Time (s): 0.4005; Slowdown: 1.17" role="graphics-symbol" aria-roledescription="text mark" text-anchor="middle" transform="translate(150,589.9134036609129)" font-family="sans-serif" font-size="9px" font-weight="bold" fill="#a6761d">0.4005s (x1.17)</text><text aria-label="Parser: yaml_rs&#xA;v0.1.4; Execution Time (seconds, lower=better): 0.400622593333; parser: yaml_rs; label: 0.4006s (x1.17); Execution Time (s): 0.4006; Slowdown: 1.17" role="graphics-symbol" aria-roledescription="text mark" text-anchor="middle" transform="translate(250,589.9109625140729)" font-family="sans-serif" font-size="9px" font-weight="bold" fill="#e6ab02">0.4006s (x1.17)</text><text aria-label="Parser: ryaml&#xA;v0.5.1; Execution Time (seconds, lower=better): 0.666119909667; parser: ryaml; label: 0.6661s (x1.94); Execution Time (s): 0.6661; Slowdown: 1.94" role="graphics-symbol" aria-roledescription="text mark" text-anchor="middle" transform="translate(350,585.875685576455)" font-family="sans-serif" font-size="9px" font-weight="bold" fill="#66a61e">0.6661s (x1.94)</text><text aria-label="Parser: PyYAML (CLoader)&#xA;v6.0.3; Execution Time (seconds, lower=better): 2.292665259; parser: PyYAML (CLoader); label: 2.2927s (x6.67); Execution Time (s): 2.2927; Slowdown: 6.67" role="graphics-symbol" aria-roledescription="text mark" text-anchor="middle" transform="translate(450,561.1539255722449)" font-family="sans-serif" font-size="9px" font-weight="bold" fill="#d95f02">2.2927s (x6.67)</text><text aria-label="Parser: oyaml&#xA;v1.0; Execution Time (seconds, lower=better): 26.9436655293; parser: oyaml; label: 26.9437s (x78.44); Execution Time (s): 26.9437; Slowdown: 78.44" role="graphics-symbol" aria-roledescription="text mark" text-anchor="middle" transform="translate(550,186.4849298404748)" font-family="sans-serif" font-size="9px" font-weight="bold" fill="#7570b3">26.9437s (x78.44)</text><text aria-label="Parser: PyYAML&#xA;v6.0.3; Execution Time (seconds, lower=better): 27.3151212793; parser: PyYAML; label: 27.3151s (x79.52); Execution Time (s): 27.3151; Slowdown: 79.52" role="graphics-symbol" aria-roledescription="text mark" text-anchor="middle" transform="translate(650,180.8391973636963)" font-family="sans-serif" font-size="9px" font-weight="bold" fill="#1b9e77">27.3151s (x79.52)</text><text aria-label="Parser: ruamel.yaml&#xA;v0.19.1; Execution Time (seconds, lower=better): 37.9581206003; parser: ruamel.yaml; label: 37.9581s (x110.51); Execution Time (s): 37.9581; Slowdown: 110.51" role="graphics-symbol" aria-roledescription="text mark" text-anchor="middle" transform="translate(750,19.076923076923062)" font-family="sans-serif" font-size="9px" font-weight="bold" fill="#e7298a">37.9581s (x110.51)</text></g><g class="mark-group role-title"><g transform="translate(400,-31)"><path class="background" aria-hidden="true" d="M0,0h0v0h0Z" pointer-events="none"/><g><g class="mark-text role-title-text" role="graphics-symbol" aria-roledescription="title" aria-label="Title text 'YAML parsers benchmark (loads)'" pointer-events="none"><text text-anchor="middle" transform="translate(0,10)" font-family="sans-serif" font-size="13px" font-weight="bold" fill="#000" opacity="1">YAML parsers benchmark (loads)</text></g><g class="mark-text role-title-subtitle" role="graphics-symbol" aria-roledescription="subtitle" aria-label="Subtitle text 'Python: 3.14.6 (Linux 6.17.0-1018-azure) | CPU: AMD EPYC 7763 64-Core Processor'" pointer-events="none"><text text-anchor="middle" transform="translate(0,25)" font-family="sans-serif" font-size="12px" fill="#000" opacity="1">Python: 3.14.6 (Linux 6.17.0-1018-azure) | CPU: AMD EPYC 7763 64-Core Processor</text></g></g><path class="foreground" aria-hidden="true" d="" pointer-events="none" display="none"/></g></g></g><path class="foreground" aria-hidden="true" d="" display="none"/></g></g></g><defs><clipPath id="clip1"><path d="M2.6102999748920297,0L87.38970002510797,0C88.83036379968719,0,90,1.1696362003128076,90,2.6102999748920297L90,5.220599949784059C90,5.220599949784059,90,5.220599949784059,90,5.220599949784059L0,5.220599949784059C0,5.220599949784059,0,5.220599949784059,0,5.220599949784059L0,2.6102999748920297C0,1.1696362003128076,1.1696362003128076,0,2.6102999748920297,0Z"/></clipPath><clipPath id="clip2"><path d="M3.0432981695435615,0L86.95670183045644,0C88.63634381424262,0,90,1.3636561857573815,90,3.0432981695435615L90,6.086596339087123C90,6.086596339087123,90,6.086596339087123,90,6.086596339087123L0,6.086596339087123C0,6.086596339087123,0,6.086596339087123,0,6.086596339087123L0,3.0432981695435615C0,1.3636561857573815,1.3636561857573815,0,3.0432981695435615,0Z"/></clipPath><clipPath id="clip3"><path d="M3.0445187429635325,0L86.95548125703647,0C88.63579689363162,0,90,1.3642031063683724,90,3.0445187429635325L90,6.089037485927065C90,6.089037485927065,90,6.089037485927065,90,6.089037485927065L0,6.089037485927065C0,6.089037485927065,0,6.089037485927065,0,6.089037485927065L0,3.0445187429635325C0,1.3642031063683724,1.3642031063683724,0,3.0445187429635325,0Z"/></clipPath><clipPath id="clip4"><path d="M5.062157211772501,0L84.9378427882275,0C87.7317234097554,0,90,2.2682765902446023,90,5.062157211772501L90,10.124314423545002C90,10.124314423545002,90,10.124314423545002,90,10.124314423545002L0,10.124314423545002C0,10.124314423545002,0,10.124314423545002,0,10.124314423545002L0,5.062157211772501C0,2.2682765902446023,2.2682765902446023,0,5.062157211772501,0Z"/></clipPath><clipPath id="clip5"><path d="M6,0L84,0C87.311490146964,0,90,2.688509853036,90,6L90,34.84607442775507C90,34.84607442775507,90,34.84607442775507,90,34.84607442775507L0,34.84607442775507C0,34.84607442775507,0,34.84607442775507,0,34.84607442775507L0,6C0,2.688509853036,2.688509853036,0,6,0Z"/></clipPath><clipPath id="clip6"><path d="M6,0L84,0C87.311490146964,0,90,2.688509853036,90,6L90,409.5150701595252C90,409.5150701595252,90,409.5150701595252,90,409.5150701595252L0,409.5150701595252C0,409.5150701595252,0,409.5150701595252,0,409.5150701595252L0,6C0,2.688509853036,2.688509853036,0,6,0Z"/></clipPath><clipPath id="clip7"><path d="M6,0L84,0C87.311490146964,0,90,2.688509853036,90,6L90,415.16080263630374C90,415.16080263630374,90,415.16080263630374,90,415.16080263630374L0,415.16080263630374C0,415.16080263630374,0,415.16080263630374,0,415.16080263630374L0,6C0,2.688509853036,2.688509853036,0,6,0Z"/></clipPath><clipPath id="clip8"><path d="M6,0L84,0C87.311490146964,0,90,2.688509853036,90,6L90,576.9230769230769C90,576.9230769230769,90,576.9230769230769,90,576.9230769230769L0,576.9230769230769C0,576.9230769230769,0,576.9230769230769,0,576.9230769230769L0,6C0,2.688509853036,2.688509853036,0,6,0Z"/></clipPath></defs></svg>