<svg xmlns="http://www.w3.org/2000/svg" xmlns:xlink="http://www.w3.org/1999/xlink" version="1.1" class="marks" width="844" height="687" viewBox="0 0 844 687"><rect width="844" height="687" fill="white"/><g fill="none" stroke-miterlimit="10" transform="translate(39,36)"><g class="mark-group role-frame root" role="graphics-object" aria-roledescription="group mark container"><g transform="translate(0,0)"><path class="background" aria-hidden="true" d="M0.5,0.5h800v600h-800Z" stroke="#ddd"/><g><g class="mark-group role-axis" role="graphics-symbol" aria-roledescription="axis" aria-label="X-axis titled 'Parser' for a discrete scale with 7 values: yamlrocks&#xA;0.5.0, yaml_rs&#xA;0.1.4, PyYAML (CDumper)&#xA;6.0.3, ryaml&#xA;0.5.1, PyYAML&#xA;6.0.3, oyaml&#xA;1.0, ruamel.yaml&#xA;0.19.1"><g transform="translate(0.5,600.5)"><path class="background" aria-hidden="true" d="M0,0h0v0h0Z" pointer-events="none"/><g><g class="mark-rule role-axis-tick" pointer-events="none"><line transform="translate(57,0)" x2="0" y2="5" stroke="#888" stroke-width="1" opacity="1"/><line transform="translate(171,0)" x2="0" y2="5" stroke="#888" stroke-width="1" opacity="1"/><line transform="translate(285,0)" x2="0" y2="5" stroke="#888" stroke-width="1" opacity="1"/><line transform="translate(400,0)" x2="0" y2="5" stroke="#888" stroke-width="1" opacity="1"/><line transform="translate(514,0)" x2="0" y2="5" stroke="#888" stroke-width="1" opacity="1"/><line transform="translate(628,0)" x2="0" y2="5" stroke="#888" stroke-width="1" opacity="1"/><line transform="translate(742,0)" x2="0" y2="5" stroke="#888" stroke-width="1" opacity="1"/></g><g class="mark-text role-axis-label" pointer-events="none"><text text-anchor="middle" transform="translate(56.642857142857096,15)" font-family="sans-serif" font-size="10px" fill="#000" opacity="1"><tspan>yamlrocks</tspan><tspan x="0" dy="14">0.5.0</tspan></text><text text-anchor="middle" transform="translate(170.9285714285714,15)" font-family="sans-serif" font-size="10px" fill="#000" opacity="1"><tspan>yaml_rs</tspan><tspan x="0" dy="14">0.1.4</tspan></text><text text-anchor="middle" transform="translate(285.21428571428567,15)" font-family="sans-serif" font-size="10px" fill="#000" opacity="1"><tspan>PyYAML (CDumper)</tspan><tspan x="0" dy="14">6.0.3</tspan></text><text text-anchor="middle" transform="translate(399.5,15)" font-family="sans-serif" font-size="10px" fill="#000" opacity="1"><tspan>ryaml</tspan><tspan x="0" dy="14">0.5.1</tspan></text><text text-anchor="middle" transform="translate(513.7857142857142,15)" font-family="sans-serif" font-size="10px" fill="#000" opacity="1"><tspan>PyYAML</tspan><tspan x="0" dy="14">6.0.3</tspan></text><text text-anchor="middle" transform="translate(628.0714285714286,15)" font-family="sans-serif" font-size="10px" fill="#000" opacity="1"><tspan>oyaml</tspan><tspan x="0" dy="14">1.0</tspan></text><text text-anchor="middle" transform="translate(742.3571428571429,15)" font-family="sans-serif" font-size="10px" fill="#000" opacity="1"><tspan>ruamel.yaml</tspan><tspan x="0" dy="14">0.19.1</tspan></text></g><g class="mark-rule role-axis-domain" pointer-events="none"><line transform="translate(0,0)" x2="800" y2="0" stroke="#888" stroke-width="1" opacity="1"/></g><g class="mark-text role-axis-title" pointer-events="none"><text text-anchor="middle" transform="translate(400,44)" font-family="sans-serif" font-size="11px" font-weight="bold" fill="#000" opacity="1">Parser</text></g></g><path class="foreground" aria-hidden="true" d="" pointer-events="none" display="none"/></g></g><g class="mark-group role-axis" role="graphics-symbol" aria-roledescription="axis" aria-label="Y-axis titled 'Execution Time (seconds, lower=better)' for a linear scale with values from 0 to 14"><g transform="translate(0.5,0.5)"><path class="background" aria-hidden="true" d="M0,0h0v0h0Z" pointer-events="none"/><g><g class="mark-rule role-axis-tick" pointer-events="none"><line transform="translate(0,600)" x2="-5" y2="0" stroke="#888" stroke-width="1" opacity="1"/><line transform="translate(0,556)" x2="-5" y2="0" stroke="#888" stroke-width="1" opacity="1"/><line transform="translate(0,511)" x2="-5" y2="0" stroke="#888" stroke-width="1" opacity="1"/><line transform="translate(0,467)" x2="-5" y2="0" stroke="#888" stroke-width="1" opacity="1"/><line transform="translate(0,422)" x2="-5" y2="0" stroke="#888" stroke-width="1" opacity="1"/><line transform="translate(0,378)" x2="-5" y2="0" stroke="#888" stroke-width="1" opacity="1"/><line transform="translate(0,334)" x2="-5" y2="0" stroke="#888" stroke-width="1" opacity="1"/><line transform="translate(0,289)" x2="-5" y2="0" stroke="#888" stroke-width="1" opacity="1"/><line transform="translate(0,245)" x2="-5" y2="0" stroke="#888" stroke-width="1" opacity="1"/><line transform="translate(0,201)" x2="-5" y2="0" stroke="#888" stroke-width="1" opacity="1"/><line transform="translate(0,156)" x2="-5" y2="0" stroke="#888" stroke-width="1" opacity="1"/><line transform="translate(0,112)" x2="-5" y2="0" stroke="#888" stroke-width="1" opacity="1"/><line transform="translate(0,67)" x2="-5" y2="0" stroke="#888" stroke-width="1" opacity="1"/><line transform="translate(0,23)" x2="-5" y2="0" stroke="#888" stroke-width="1" opacity="1"/></g><g class="mark-text role-axis-label" pointer-events="none"><text text-anchor="end" transform="translate(-7,603)" font-family="sans-serif" font-size="10px" fill="#000" opacity="1">0</text><text text-anchor="end" transform="translate(-7,558.6164995882435)" font-family="sans-serif" font-size="10px" fill="#000" opacity="1">1</text><text text-anchor="end" transform="translate(-7,514.232999176487)" font-family="sans-serif" font-size="10px" fill="#000" opacity="1">2</text><text text-anchor="end" transform="translate(-7,469.84949876473047)" font-family="sans-serif" font-size="10px" fill="#000" opacity="1">3</text><text text-anchor="end" transform="translate(-7,425.46599835297394)" font-family="sans-serif" font-size="10px" fill="#000" opacity="1">4</text><text text-anchor="end" transform="translate(-7,381.08249794121747)" font-family="sans-serif" font-size="10px" fill="#000" opacity="1">5</text><text text-anchor="end" transform="translate(-7,336.6989975294609)" font-family="sans-serif" font-size="10px" fill="#000" opacity="1">6</text><text text-anchor="end" transform="translate(-7,292.3154971177044)" font-family="sans-serif" font-size="10px" fill="#000" opacity="1">7</text><text text-anchor="end" transform="translate(-7,247.9319967059479)" font-family="sans-serif" font-size="10px" fill="#000" opacity="1">8</text><text text-anchor="end" transform="translate(-7,203.54849629419144)" font-family="sans-serif" font-size="10px" fill="#000" opacity="1">9</text><text text-anchor="end" transform="translate(-7,159.16499588243494)" font-family="sans-serif" font-size="10px" fill="#000" opacity="1">10</text><text text-anchor="end" transform="translate(-7,114.78149547067837)" font-family="sans-serif" font-size="10px" fill="#000" opacity="1">11</text><text text-anchor="end" transform="translate(-7,70.39799505892188)" font-family="sans-serif" font-size="10px" fill="#000" opacity="1">12</text><text text-anchor="end" transform="translate(-7,26.014494647165385)" font-family="sans-serif" font-size="10px" fill="#000" opacity="1">13</text></g><g class="mark-rule role-axis-domain" pointer-events="none"><line transform="translate(0,600)" x2="0" y2="-600" stroke="#888" stroke-width="1" opacity="1"/></g><g class="mark-text role-axis-title" pointer-events="none"><text text-anchor="middle" transform="translate(-22.123046875,300) rotate(-90) translate(0,-2)" font-family="sans-serif" font-size="11px" font-weight="bold" fill="#000" opacity="1">Execution Time (seconds, lower=better)</text></g></g><path class="foreground" aria-hidden="true" d="" pointer-events="none" display="none"/></g></g><g class="mark-group role-scope" role="graphics-object" aria-roledescription="group mark container"><g transform="translate(5.714285714285666,598.5937743290892)"><path class="background" aria-hidden="true" d="M0.7031128354553857,0L102.15403002168748,0C102.54208855948988,0,102.85714285714286,0.3150542976529807,102.85714285714286,0.7031128354553857L102.85714285714286,1.4062256709107714C102.85714285714286,1.4062256709107714,102.85714285714286,1.4062256709107714,102.85714285714286,1.4062256709107714L0,1.4062256709107714C0,1.4062256709107714,0,1.4062256709107714,0,1.4062256709107714L0,0.7031128354553857C0,0.3150542976529807,0.3150542976529807,0,0.7031128354553857,0Z"/><g clip-path="url(#clip9)"><g class="mark-group role-scope" role="graphics-object" aria-roledescription="group mark container"><g transform="translate(0,-598.5937743290892)"><path class="background" aria-hidden="true" d="M0,0h102.85714285714286v0h-102.85714285714286Z"/><g><g class="mark-rect role-mark layer_0_marks" role="graphics-object" aria-roledescription="rect mark container"><path aria-label="Parser: yamlrocks&#xA;0.5.0; Execution Time (seconds, lower=better): 0.0316835233333; parser: yamlrocks; Execution Time (s): 0.0317; Slowdown: 1.00" role="graphics-symbol" aria-roledescription="bar" d="M0,598.5937743290892h102.85714285714286v1.4062256709107714h-102.85714285714286Z" fill="#a6761d"/></g></g><path class="foreground" aria-hidden="true" d="" display="none"/></g></g></g><path class="foreground" aria-hidden="true" d="" display="none"/></g><g transform="translate(119.99999999999996,597.1795491388033)"><path class="background" aria-hidden="true" d="M1.4102254305983593,0L101.4469174265445,0C102.22524202961526,0,102.85714285714286,0.6319008275276041,102.85714285714286,1.4102254305983593L102.85714285714286,2.8204508611967185C102.85714285714286,2.8204508611967185,102.85714285714286,2.8204508611967185,102.85714285714286,2.8204508611967185L0,2.8204508611967185C0,2.8204508611967185,0,2.8204508611967185,0,2.8204508611967185L0,1.4102254305983593C0,0.6319008275276041,0.6319008275276041,0,1.4102254305983593,0Z"/><g clip-path="url(#clip10)"><g class="mark-group role-scope" role="graphics-object" aria-roledescription="group mark container"><g transform="translate(0,-597.1795491388033)"><path class="background" aria-hidden="true" d="M0,0h102.85714285714286v0h-102.85714285714286Z"/><g><g class="mark-rect role-mark layer_0_marks" role="graphics-object" aria-roledescription="rect mark container"><path aria-label="Parser: yaml_rs&#xA;0.1.4; Execution Time (seconds, lower=better): 0.063547283; parser: yaml_rs; Execution Time (s): 0.0635; Slowdown: 2.01" role="graphics-symbol" aria-roledescription="bar" d="M0,597.1795491388033h102.85714285714286v2.8204508611967185h-102.85714285714286Z" fill="#e6ab02"/></g></g><path class="foreground" aria-hidden="true" d="" display="none"/></g></g></g><path class="foreground" aria-hidden="true" d="" display="none"/></g><g transform="translate(234.28571428571425,591.6079463345036)"><path class="background" aria-hidden="true" d="M4.196026832748203,0L98.66111602439466,0C100.97696627656836,0,102.85714285714286,1.8801765805744972,102.85714285714286,4.196026832748203L102.85714285714286,8.392053665496405C102.85714285714286,8.392053665496405,102.85714285714286,8.392053665496405,102.85714285714286,8.392053665496405L0,8.392053665496405C0,8.392053665496405,0,8.392053665496405,0,8.392053665496405L0,4.196026832748203C0,1.8801765805744972,1.8801765805744972,0,4.196026832748203,0Z"/><g clip-path="url(#clip11)"><g class="mark-group role-scope" role="graphics-object" aria-roledescription="group mark container"><g transform="translate(0,-591.6079463345036)"><path class="background" aria-hidden="true" d="M0,0h102.85714285714286v0h-102.85714285714286Z"/><g><g class="mark-rect role-mark layer_0_marks" role="graphics-object" aria-roledescription="rect mark container"><path aria-label="Parser: PyYAML (CDumper)&#xA;6.0.3; Execution Time (seconds, lower=better): 0.189080482333; parser: PyYAML (CDumper); Execution Time (s): 0.1891; Slowdown: 5.97" role="graphics-symbol" aria-roledescription="bar" d="M0,591.6079463345036h102.85714285714286v8.392053665496405h-102.85714285714286Z" fill="#d95f02"/></g></g><path class="foreground" aria-hidden="true" d="" display="none"/></g></g></g><path class="foreground" aria-hidden="true" d="" display="none"/></g><g transform="translate(348.57142857142856,591.4766670564399)"><path class="background" aria-hidden="true" d="M4.2616664717800745,0L98.59547638536279,0C100.94755414052055,0,102.85714285714286,1.9095887166223162,102.85714285714286,4.2616664717800745L102.85714285714286,8.523332943560149C102.85714285714286,8.523332943560149,102.85714285714286,8.523332943560149,102.85714285714286,8.523332943560149L0,8.523332943560149C0,8.523332943560149,0,8.523332943560149,0,8.523332943560149L0,4.2616664717800745C0,1.9095887166223162,1.9095887166223162,0,4.2616664717800745,0Z"/><g clip-path="url(#clip12)"><g class="mark-group role-scope" role="graphics-object" aria-roledescription="group mark container"><g transform="translate(0,-591.4766670564399)"><path class="background" aria-hidden="true" d="M0,0h102.85714285714286v0h-102.85714285714286Z"/><g><g class="mark-rect role-mark layer_0_marks" role="graphics-object" aria-roledescription="rect mark container"><path aria-label="Parser: ryaml&#xA;0.5.1; Execution Time (seconds, lower=better): 0.192038322; parser: ryaml; Execution Time (s): 0.1920; Slowdown: 6.06" role="graphics-symbol" aria-roledescription="bar" d="M0,591.4766670564399h102.85714285714286v8.523332943560149h-102.85714285714286Z" fill="#66a61e"/></g></g><path class="foreground" aria-hidden="true" d="" display="none"/></g></g></g><path class="foreground" aria-hidden="true" d="" display="none"/></g><g transform="translate(462.85714285714283,52.26936567798126)"><path class="background" aria-hidden="true" d="M6,0L96.85714285714286,0C100.16863300410687,0,102.85714285714286,2.688509853036,102.85714285714286,6L102.85714285714286,547.7306343220188C102.85714285714286,547.7306343220188,102.85714285714286,547.7306343220188,102.85714285714286,547.7306343220188L0,547.7306343220188C0,547.7306343220188,0,547.7306343220188,0,547.7306343220188L0,6C0,2.688509853036,2.688509853036,0,6,0Z"/><g clip-path="url(#clip13)"><g class="mark-group role-scope" role="graphics-object" aria-roledescription="group mark container"><g transform="translate(0,-52.26936567798126)"><path class="background" aria-hidden="true" d="M0,0h102.85714285714286v0h-102.85714285714286Z"/><g><g class="mark-rect role-mark layer_0_marks" role="graphics-object" aria-roledescription="rect mark container"><path aria-label="Parser: PyYAML&#xA;6.0.3; Execution Time (seconds, lower=better): 12.3408615643; parser: PyYAML; Execution Time (s): 12.3409; Slowdown: 389.50" role="graphics-symbol" aria-roledescription="bar" d="M0,52.26936567798126h102.85714285714286v547.7306343220188h-102.85714285714286Z" fill="#1b9e77"/></g></g><path class="foreground" aria-hidden="true" d="" display="none"/></g></g></g><path class="foreground" aria-hidden="true" d="" display="none"/></g><g transform="translate(577.1428571428571,45.44226547865973)"><path class="background" aria-hidden="true" d="M6,0L96.85714285714286,0C100.16863300410687,0,102.85714285714286,2.688509853036,102.85714285714286,6L102.85714285714286,554.5577345213403C102.85714285714286,554.5577345213403,102.85714285714286,554.5577345213403,102.85714285714286,554.5577345213403L0,554.5577345213403C0,554.5577345213403,0,554.5577345213403,0,554.5577345213403L0,6C0,2.688509853036,2.688509853036,0,6,0Z"/><g clip-path="url(#clip14)"><g class="mark-group role-scope" role="graphics-object" aria-roledescription="group mark container"><g transform="translate(0,-45.44226547865973)"><path class="background" aria-hidden="true" d="M0,0h102.85714285714286v0h-102.85714285714286Z"/><g><g class="mark-rect role-mark layer_0_marks" role="graphics-object" aria-roledescription="rect mark container"><path aria-label="Parser: oyaml&#xA;1.0; Execution Time (seconds, lower=better): 12.494682244; parser: oyaml; Execution Time (s): 12.4947; Slowdown: 394.36" role="graphics-symbol" aria-roledescription="bar" d="M0,45.44226547865973h102.85714285714286v554.5577345213403h-102.85714285714286Z" fill="#7570b3"/></g></g><path class="foreground" aria-hidden="true" d="" display="none"/></g></g></g><path class="foreground" aria-hidden="true" d="" display="none"/></g><g transform="translate(691.4285714285714,28.571428571428605)"><path class="background" aria-hidden="true" d="M6,0L96.85714285714286,0C100.16863300410687,0,102.85714285714286,2.688509853036,102.85714285714286,6L102.85714285714286,571.4285714285714C102.85714285714286,571.4285714285714,102.85714285714286,571.4285714285714,102.85714285714286,571.4285714285714L0,571.4285714285714C0,571.4285714285714,0,571.4285714285714,0,571.4285714285714L0,6C0,2.688509853036,2.688509853036,0,6,0Z"/><g clip-path="url(#clip15)"><g class="mark-group role-scope" role="graphics-object" aria-roledescription="group mark container"><g transform="translate(0,-28.571428571428605)"><path class="background" aria-hidden="true" d="M0,0h102.85714285714286v0h-102.85714285714286Z"/><g><g class="mark-rect role-mark layer_0_marks" role="graphics-object" aria-roledescription="rect mark container"><path aria-label="Parser: ruamel.yaml&#xA;0.19.1; Execution Time (seconds, lower=better): 12.8747973037; parser: ruamel.yaml; Execution Time (s): 12.8748; Slowdown: 406.36" role="graphics-symbol" aria-roledescription="bar" d="M0,28.571428571428605h102.85714285714286v571.4285714285714h-102.85714285714286Z" fill="#e7298a"/></g></g><path class="foreground" aria-hidden="true" d="" display="none"/></g></g></g><path class="foreground" aria-hidden="true" d="" display="none"/></g></g><g class="mark-text role-mark layer_1_marks" role="graphics-object" aria-roledescription="text mark container"><text aria-label="Parser: yamlrocks&#xA;0.5.0; Execution Time (seconds, lower=better): 0.0316835233333; parser: yamlrocks; label: 0.0317s (x1.00); Execution Time (s): 0.0317; Slowdown: 1.00" role="graphics-symbol" aria-roledescription="text mark" text-anchor="middle" transform="translate(57.142857142857096,594.5937743290892)" font-family="sans-serif" font-size="9px" font-weight="bold" fill="#a6761d">0.0317s (x1.00)</text><text aria-label="Parser: yaml_rs&#xA;0.1.4; Execution Time (seconds, lower=better): 0.063547283; parser: yaml_rs; label: 0.0635s (x2.01); Execution Time (s): 0.0635; Slowdown: 2.01" role="graphics-symbol" aria-roledescription="text mark" text-anchor="middle" transform="translate(171.4285714285714,593.1795491388033)" font-family="sans-serif" font-size="9px" font-weight="bold" fill="#e6ab02">0.0635s (x2.01)</text><text aria-label="Parser: PyYAML (CDumper)&#xA;6.0.3; Execution Time (seconds, lower=better): 0.189080482333; parser: PyYAML (CDumper); label: 0.1891s (x5.97); Execution Time (s): 0.1891; Slowdown: 5.97" role="graphics-symbol" aria-roledescription="text mark" text-anchor="middle" transform="translate(285.71428571428567,587.6079463345036)" font-family="sans-serif" font-size="9px" font-weight="bold" fill="#d95f02">0.1891s (x5.97)</text><text aria-label="Parser: ryaml&#xA;0.5.1; Execution Time (seconds, lower=better): 0.192038322; parser: ryaml; label: 0.1920s (x6.06); Execution Time (s): 0.1920; Slowdown: 6.06" role="graphics-symbol" aria-roledescription="text mark" text-anchor="middle" transform="translate(400,587.4766670564399)" font-family="sans-serif" font-size="9px" font-weight="bold" fill="#66a61e">0.1920s (x6.06)</text><text aria-label="Parser: PyYAML&#xA;6.0.3; Execution Time (seconds, lower=better): 12.3408615643; parser: PyYAML; label: 12.3409s (x389.50); Execution Time (s): 12.3409; Slowdown: 389.50" role="graphics-symbol" aria-roledescription="text mark" text-anchor="middle" transform="translate(514.2857142857142,48.26936567798126)" font-family="sans-serif" font-size="9px" font-weight="bold" fill="#1b9e77">12.3409s (x389.50)</text><text aria-label="Parser: oyaml&#xA;1.0; Execution Time (seconds, lower=better): 12.494682244; parser: oyaml; label: 12.4947s (x394.36); Execution Time (s): 12.4947; Slowdown: 394.36" role="graphics-symbol" aria-roledescription="text mark" text-anchor="middle" transform="translate(628.5714285714286,41.44226547865973)" font-family="sans-serif" font-size="9px" font-weight="bold" fill="#7570b3">12.4947s (x394.36)</text><text aria-label="Parser: ruamel.yaml&#xA;0.19.1; Execution Time (seconds, lower=better): 12.8747973037; parser: ruamel.yaml; label: 12.8748s (x406.36); Execution Time (s): 12.8748; Slowdown: 406.36" role="graphics-symbol" aria-roledescription="text mark" text-anchor="middle" transform="translate(742.8571428571429,24.571428571428605)" font-family="sans-serif" font-size="9px" font-weight="bold" fill="#e7298a">12.8748s (x406.36)</text></g><g class="mark-group role-title"><g transform="translate(400,-31)"><path class="background" aria-hidden="true" d="M0,0h0v0h0Z" pointer-events="none"/><g><g class="mark-text role-title-text" role="graphics-symbol" aria-roledescription="title" aria-label="Title text 'YAML parsers benchmark (dumps)'" pointer-events="none"><text text-anchor="middle" transform="translate(0,10)" font-family="sans-serif" font-size="13px" font-weight="bold" fill="#000" opacity="1">YAML parsers benchmark (dumps)</text></g><g class="mark-text role-title-subtitle" role="graphics-symbol" aria-roledescription="subtitle" aria-label="Subtitle text 'Python: 3.14.6 (Linux 6.17.0-1018-azure) | CPU: AMD EPYC 7763 64-Core Processor'" pointer-events="none"><text text-anchor="middle" transform="translate(0,25)" font-family="sans-serif" font-size="12px" fill="#000" opacity="1">Python: 3.14.6 (Linux 6.17.0-1018-azure) | CPU: AMD EPYC 7763 64-Core Processor</text></g></g><path class="foreground" aria-hidden="true" d="" pointer-events="none" display="none"/></g></g></g><path class="foreground" aria-hidden="true" d="" display="none"/></g></g></g><defs><clipPath id="clip9"><path d="M0.7031128354553857,0L102.15403002168748,0C102.54208855948988,0,102.85714285714286,0.3150542976529807,102.85714285714286,0.7031128354553857L102.85714285714286,1.4062256709107714C102.85714285714286,1.4062256709107714,102.85714285714286,1.4062256709107714,102.85714285714286,1.4062256709107714L0,1.4062256709107714C0,1.4062256709107714,0,1.4062256709107714,0,1.4062256709107714L0,0.7031128354553857C0,0.3150542976529807,0.3150542976529807,0,0.7031128354553857,0Z"/></clipPath><clipPath id="clip10"><path d="M1.4102254305983593,0L101.4469174265445,0C102.22524202961526,0,102.85714285714286,0.6319008275276041,102.85714285714286,1.4102254305983593L102.85714285714286,2.8204508611967185C102.85714285714286,2.8204508611967185,102.85714285714286,2.8204508611967185,102.85714285714286,2.8204508611967185L0,2.8204508611967185C0,2.8204508611967185,0,2.8204508611967185,0,2.8204508611967185L0,1.4102254305983593C0,0.6319008275276041,0.6319008275276041,0,1.4102254305983593,0Z"/></clipPath><clipPath id="clip11"><path d="M4.196026832748203,0L98.66111602439466,0C100.97696627656836,0,102.85714285714286,1.8801765805744972,102.85714285714286,4.196026832748203L102.85714285714286,8.392053665496405C102.85714285714286,8.392053665496405,102.85714285714286,8.392053665496405,102.85714285714286,8.392053665496405L0,8.392053665496405C0,8.392053665496405,0,8.392053665496405,0,8.392053665496405L0,4.196026832748203C0,1.8801765805744972,1.8801765805744972,0,4.196026832748203,0Z"/></clipPath><clipPath id="clip12"><path d="M4.2616664717800745,0L98.59547638536279,0C100.94755414052055,0,102.85714285714286,1.9095887166223162,102.85714285714286,4.2616664717800745L102.85714285714286,8.523332943560149C102.85714285714286,8.523332943560149,102.85714285714286,8.523332943560149,102.85714285714286,8.523332943560149L0,8.523332943560149C0,8.523332943560149,0,8.523332943560149,0,8.523332943560149L0,4.2616664717800745C0,1.9095887166223162,1.9095887166223162,0,4.2616664717800745,0Z"/></clipPath><clipPath id="clip13"><path d="M6,0L96.85714285714286,0C100.16863300410687,0,102.85714285714286,2.688509853036,102.85714285714286,6L102.85714285714286,547.7306343220188C102.85714285714286,547.7306343220188,102.85714285714286,547.7306343220188,102.85714285714286,547.7306343220188L0,547.7306343220188C0,547.7306343220188,0,547.7306343220188,0,547.7306343220188L0,6C0,2.688509853036,2.688509853036,0,6,0Z"/></clipPath><clipPath id="clip14"><path d="M6,0L96.85714285714286,0C100.16863300410687,0,102.85714285714286,2.688509853036,102.85714285714286,6L102.85714285714286,554.5577345213403C102.85714285714286,554.5577345213403,102.85714285714286,554.5577345213403,102.85714285714286,554.5577345213403L0,554.5577345213403C0,554.5577345213403,0,554.5577345213403,0,554.5577345213403L0,6C0,2.688509853036,2.688509853036,0,6,0Z"/></clipPath><clipPath id="clip15"><path d="M6,0L96.85714285714286,0C100.16863300410687,0,102.85714285714286,2.688509853036,102.85714285714286,6L102.85714285714286,571.4285714285714C102.85714285714286,571.4285714285714,102.85714285714286,571.4285714285714,102.85714285714286,571.4285714285714L0,571.4285714285714C0,571.4285714285714,0,571.4285714285714,0,571.4285714285714L0,6C0,2.688509853036,2.688509853036,0,6,0Z"/></clipPath></defs></svg>