<svg xmlns="http://www.w3.org/2000/svg" xmlns:xlink="http://www.w3.org/1999/xlink" version="1.1" class="marks" width="844" height="691" viewBox="0 0 844 691"><rect width="844" height="691" fill="white"/><g fill="none" stroke-miterlimit="10" transform="translate(39,40)"><g class="mark-group role-frame root" role="graphics-object" aria-roledescription="group mark container"><g transform="translate(0,0)"><path class="background" aria-hidden="true" d="M0.5,0.5h800v600h-800Z" stroke="#ddd"/><g><g class="mark-group role-axis" role="graphics-symbol" aria-roledescription="axis" aria-label="X-axis titled 'Parser' for a discrete scale with 7 values: yamlrocks&#xA;0.6.1, yaml_rs&#xA;0.1.6, ryaml&#xA;0.5.1, PyYAML (CDumper)&#xA;6.0.3, PyYAML&#xA;6.0.3, oyaml&#xA;1.0, ruamel.yaml&#xA;0.19.1"><g transform="translate(0.5,600.5)"><path class="background" aria-hidden="true" d="M0,0h0v0h0Z" pointer-events="none"/><g><g class="mark-rule role-axis-tick" pointer-events="none"><line transform="translate(57,0)" x2="0" y2="5" stroke="#888" stroke-width="1" opacity="1"/><line transform="translate(171,0)" x2="0" y2="5" stroke="#888" stroke-width="1" opacity="1"/><line transform="translate(285,0)" x2="0" y2="5" stroke="#888" stroke-width="1" opacity="1"/><line transform="translate(400,0)" x2="0" y2="5" stroke="#888" stroke-width="1" opacity="1"/><line transform="translate(514,0)" x2="0" y2="5" stroke="#888" stroke-width="1" opacity="1"/><line transform="translate(628,0)" x2="0" y2="5" stroke="#888" stroke-width="1" opacity="1"/><line transform="translate(742,0)" x2="0" y2="5" stroke="#888" stroke-width="1" opacity="1"/></g><g class="mark-text role-axis-label" pointer-events="none"><text text-anchor="middle" transform="translate(56.642857142857096,15)" font-family="sans-serif" font-size="10px" fill="#000" opacity="1"><tspan>yamlrocks</tspan><tspan x="0" dy="14">0.6.1</tspan></text><text text-anchor="middle" transform="translate(170.9285714285714,15)" font-family="sans-serif" font-size="10px" fill="#000" opacity="1"><tspan>yaml_rs</tspan><tspan x="0" dy="14">0.1.6</tspan></text><text text-anchor="middle" transform="translate(285.21428571428567,15)" font-family="sans-serif" font-size="10px" fill="#000" opacity="1"><tspan>ryaml</tspan><tspan x="0" dy="14">0.5.1</tspan></text><text text-anchor="middle" transform="translate(399.5,15)" font-family="sans-serif" font-size="10px" fill="#000" opacity="1"><tspan>PyYAML (CDumper)</tspan><tspan x="0" dy="14">6.0.3</tspan></text><text text-anchor="middle" transform="translate(513.7857142857142,15)" font-family="sans-serif" font-size="10px" fill="#000" opacity="1"><tspan>PyYAML</tspan><tspan x="0" dy="14">6.0.3</tspan></text><text text-anchor="middle" transform="translate(628.0714285714286,15)" font-family="sans-serif" font-size="10px" fill="#000" opacity="1"><tspan>oyaml</tspan><tspan x="0" dy="14">1.0</tspan></text><text text-anchor="middle" transform="translate(742.3571428571429,15)" font-family="sans-serif" font-size="10px" fill="#000" opacity="1"><tspan>ruamel.yaml</tspan><tspan x="0" dy="14">0.19.1</tspan></text></g><g class="mark-rule role-axis-domain" pointer-events="none"><line transform="translate(0,0)" x2="800" y2="0" stroke="#888" stroke-width="1" opacity="1"/></g><g class="mark-text role-axis-title" pointer-events="none"><text text-anchor="middle" transform="translate(400,44)" font-family="sans-serif" font-size="11px" font-weight="bold" fill="#000" opacity="1">Parser</text></g></g><path class="foreground" aria-hidden="true" d="" pointer-events="none" display="none"/></g></g><g class="mark-group role-axis" role="graphics-symbol" aria-roledescription="axis" aria-label="Y-axis titled 'Execution Time (seconds, lower=better)' for a linear scale with values from 0 to 13"><g transform="translate(0.5,0.5)"><path class="background" aria-hidden="true" d="M0,0h0v0h0Z" pointer-events="none"/><g><g class="mark-rule role-axis-tick" pointer-events="none"><line transform="translate(0,600)" x2="-5" y2="0" stroke="#888" stroke-width="1" opacity="1"/><line transform="translate(0,554)" x2="-5" y2="0" stroke="#888" stroke-width="1" opacity="1"/><line transform="translate(0,508)" x2="-5" y2="0" stroke="#888" stroke-width="1" opacity="1"/><line transform="translate(0,462)" x2="-5" y2="0" stroke="#888" stroke-width="1" opacity="1"/><line transform="translate(0,416)" x2="-5" y2="0" stroke="#888" stroke-width="1" opacity="1"/><line transform="translate(0,370)" x2="-5" y2="0" stroke="#888" stroke-width="1" opacity="1"/><line transform="translate(0,324)" x2="-5" y2="0" stroke="#888" stroke-width="1" opacity="1"/><line transform="translate(0,278)" x2="-5" y2="0" stroke="#888" stroke-width="1" opacity="1"/><line transform="translate(0,232)" x2="-5" y2="0" stroke="#888" stroke-width="1" opacity="1"/><line transform="translate(0,185)" x2="-5" y2="0" stroke="#888" stroke-width="1" opacity="1"/><line transform="translate(0,139)" x2="-5" y2="0" stroke="#888" stroke-width="1" opacity="1"/><line transform="translate(0,93)" x2="-5" y2="0" stroke="#888" stroke-width="1" opacity="1"/><line transform="translate(0,47)" x2="-5" y2="0" stroke="#888" stroke-width="1" opacity="1"/><line transform="translate(0,1)" x2="-5" y2="0" stroke="#888" stroke-width="1" opacity="1"/></g><g class="mark-text role-axis-label" pointer-events="none"><text text-anchor="end" transform="translate(-7,603)" font-family="sans-serif" font-size="10px" fill="#000" opacity="1">0</text><text text-anchor="end" transform="translate(-7,556.9423303916005)" font-family="sans-serif" font-size="10px" fill="#000" opacity="1">1</text><text text-anchor="end" transform="translate(-7,510.8846607832011)" font-family="sans-serif" font-size="10px" fill="#000" opacity="1">2</text><text text-anchor="end" transform="translate(-7,464.8269911748017)" font-family="sans-serif" font-size="10px" fill="#000" opacity="1">3</text><text text-anchor="end" transform="translate(-7,418.76932156640225)" font-family="sans-serif" font-size="10px" fill="#000" opacity="1">4</text><text text-anchor="end" transform="translate(-7,372.71165195800285)" font-family="sans-serif" font-size="10px" fill="#000" opacity="1">5</text><text text-anchor="end" transform="translate(-7,326.6539823496034)" font-family="sans-serif" font-size="10px" fill="#000" opacity="1">6</text><text text-anchor="end" transform="translate(-7,280.596312741204)" font-family="sans-serif" font-size="10px" fill="#000" opacity="1">7</text><text text-anchor="end" transform="translate(-7,234.53864313280454)" font-family="sans-serif" font-size="10px" fill="#000" opacity="1">8</text><text text-anchor="end" transform="translate(-7,188.4809735244051)" font-family="sans-serif" font-size="10px" fill="#000" opacity="1">9</text><text text-anchor="end" transform="translate(-7,142.4233039160057)" font-family="sans-serif" font-size="10px" fill="#000" opacity="1">10</text><text text-anchor="end" transform="translate(-7,96.36563430760624)" font-family="sans-serif" font-size="10px" fill="#000" opacity="1">11</text><text text-anchor="end" transform="translate(-7,50.30796469920682)" font-family="sans-serif" font-size="10px" fill="#000" opacity="1">12</text><text text-anchor="end" transform="translate(-7,4.250295090807385)" font-family="sans-serif" font-size="10px" fill="#000" opacity="1">13</text></g><g class="mark-rule role-axis-domain" pointer-events="none"><line transform="translate(0,600)" x2="0" y2="-600" stroke="#888" stroke-width="1" opacity="1"/></g><g class="mark-text role-axis-title" pointer-events="none"><text text-anchor="middle" transform="translate(-22.123046875,300) rotate(-90) translate(0,-2)" font-family="sans-serif" font-size="11px" font-weight="bold" fill="#000" opacity="1">Execution Time (seconds, lower=better)</text></g></g><path class="foreground" aria-hidden="true" d="" pointer-events="none" display="none"/></g></g><g class="mark-group role-scope" role="graphics-object" aria-roledescription="group mark container"><g transform="translate(5.714285714285666,598.1980088756025)"><path class="background" aria-hidden="true" d="M0.9009955621987729,0L101.95614729494409,0C102.45342028272401,0,102.85714285714286,0.40372257441885184,102.85714285714286,0.9009955621987729L102.85714285714286,1.8019911243975457C102.85714285714286,1.8019911243975457,102.85714285714286,1.8019911243975457,102.85714285714286,1.8019911243975457L0,1.8019911243975457C0,1.8019911243975457,0,1.8019911243975457,0,1.8019911243975457L0,0.9009955621987729C0,0.40372257441885184,0.40372257441885184,0,0.9009955621987729,0Z"/><g clip-path="url(#clip9)"><g class="mark-group role-scope" role="graphics-object" aria-roledescription="group mark container"><g transform="translate(0,-598.1980088756025)"><path class="background" aria-hidden="true" d="M0,0h102.85714285714286v0h-102.85714285714286Z"/><g><g class="mark-rect role-mark layer_0_marks" role="graphics-object" aria-roledescription="rect mark container"><path aria-label="Parser: yamlrocks&#xA;0.6.1; Execution Time (seconds, lower=better): 0.03912467; parser: yamlrocks; Execution Time (s): 0.0391; Slowdown: 1.00" role="graphics-symbol" aria-roledescription="bar" d="M0,598.1980088756025h102.85714285714286v1.8019911243975457h-102.85714285714286Z" fill="#a6761d"/></g></g><path class="foreground" aria-hidden="true" d="" display="none"/></g></g></g><path class="foreground" aria-hidden="true" d="" display="none"/></g><g transform="translate(119.99999999999996,597.15633031511)"><path class="background" aria-hidden="true" d="M1.42183484244498,0L101.43530801469788,0C102.22004002659233,0,102.85714285714286,0.6371028305505363,102.85714285714286,1.42183484244498L102.85714285714286,2.84366968488996C102.85714285714286,2.84366968488996,102.85714285714286,2.84366968488996,102.85714285714286,2.84366968488996L0,2.84366968488996C0,2.84366968488996,0,2.84366968488996,0,2.84366968488996L0,1.42183484244498C0,0.6371028305505363,0.6371028305505363,0,1.42183484244498,0Z"/><g clip-path="url(#clip10)"><g class="mark-group role-scope" role="graphics-object" aria-roledescription="group mark container"><g transform="translate(0,-597.15633031511)"><path class="background" aria-hidden="true" d="M0,0h102.85714285714286v0h-102.85714285714286Z"/><g><g class="mark-rect role-mark layer_0_marks" role="graphics-object" aria-roledescription="rect mark container"><path aria-label="Parser: yaml_rs&#xA;0.1.6; Execution Time (seconds, lower=better): 0.0617415016667; parser: yaml_rs; Execution Time (s): 0.0617; Slowdown: 1.58" role="graphics-symbol" aria-roledescription="bar" d="M0,597.15633031511h102.85714285714286v2.84366968488996h-102.85714285714286Z" fill="#e6ab02"/></g></g><path class="foreground" aria-hidden="true" d="" display="none"/></g></g></g><path class="foreground" aria-hidden="true" d="" display="none"/></g><g transform="translate(234.28571428571425,591.6184224597931)"><path class="background" aria-hidden="true" d="M4.190788770103438,0L98.66635408703942,0C100.97931337374024,0,102.85714285714286,1.877829483402619,102.85714285714286,4.190788770103438L102.85714285714286,8.381577540206877C102.85714285714286,8.381577540206877,102.85714285714286,8.381577540206877,102.85714285714286,8.381577540206877L0,8.381577540206877C0,8.381577540206877,0,8.381577540206877,0,8.381577540206877L0,4.190788770103438C0,1.877829483402619,1.877829483402619,0,4.190788770103438,0Z"/><g clip-path="url(#clip11)"><g class="mark-group role-scope" role="graphics-object" aria-roledescription="group mark container"><g transform="translate(0,-591.6184224597931)"><path class="background" aria-hidden="true" d="M0,0h102.85714285714286v0h-102.85714285714286Z"/><g><g class="mark-rect role-mark layer_0_marks" role="graphics-object" aria-roledescription="rect mark container"><path aria-label="Parser: ryaml&#xA;0.5.1; Execution Time (seconds, lower=better): 0.181980061333; parser: ryaml; Execution Time (s): 0.1820; Slowdown: 4.65" role="graphics-symbol" aria-roledescription="bar" d="M0,591.6184224597931h102.85714285714286v8.381577540206877h-102.85714285714286Z" fill="#66a61e"/></g></g><path class="foreground" aria-hidden="true" d="" display="none"/></g></g></g><path class="foreground" aria-hidden="true" d="" display="none"/></g><g transform="translate(348.57142857142856,591.535134318597)"><path class="background" aria-hidden="true" d="M4.232432840701506,0L98.62471001644136,0C100.96065329138634,0,102.85714285714286,1.8964895657565244,102.85714285714286,4.232432840701506L102.85714285714286,8.464865681403012C102.85714285714286,8.464865681403012,102.85714285714286,8.464865681403012,102.85714285714286,8.464865681403012L0,8.464865681403012C0,8.464865681403012,0,8.464865681403012,0,8.464865681403012L0,4.232432840701506C0,1.8964895657565244,1.8964895657565244,0,4.232432840701506,0Z"/><g clip-path="url(#clip12)"><g class="mark-group role-scope" role="graphics-object" aria-roledescription="group mark container"><g transform="translate(0,-591.535134318597)"><path class="background" aria-hidden="true" d="M0,0h102.85714285714286v0h-102.85714285714286Z"/><g><g class="mark-rect role-mark layer_0_marks" role="graphics-object" aria-roledescription="rect mark container"><path aria-label="Parser: PyYAML (CDumper)&#xA;6.0.3; Execution Time (seconds, lower=better): 0.183788406; parser: PyYAML (CDumper); Execution Time (s): 0.1838; Slowdown: 4.70" role="graphics-symbol" aria-roledescription="bar" d="M0,591.535134318597h102.85714285714286v8.464865681403012h-102.85714285714286Z" fill="#d95f02"/></g></g><path class="foreground" aria-hidden="true" d="" display="none"/></g></g></g><path class="foreground" aria-hidden="true" d="" display="none"/></g><g transform="translate(462.85714285714283,55.932366333681436)"><path class="background" aria-hidden="true" d="M6,0L96.85714285714286,0C100.16863300410687,0,102.85714285714286,2.688509853036,102.85714285714286,6L102.85714285714286,544.0676336663186C102.85714285714286,544.0676336663186,102.85714285714286,544.0676336663186,102.85714285714286,544.0676336663186L0,544.0676336663186C0,544.0676336663186,0,544.0676336663186,0,544.0676336663186L0,6C0,2.688509853036,2.688509853036,0,6,0Z"/><g clip-path="url(#clip13)"><g class="mark-group role-scope" role="graphics-object" aria-roledescription="group mark container"><g transform="translate(0,-55.932366333681436)"><path class="background" aria-hidden="true" d="M0,0h102.85714285714286v0h-102.85714285714286Z"/><g><g class="mark-rect role-mark layer_0_marks" role="graphics-object" aria-roledescription="rect mark container"><path aria-label="Parser: PyYAML&#xA;6.0.3; Execution Time (seconds, lower=better): 11.8127477637; parser: PyYAML; Execution Time (s): 11.8127; Slowdown: 301.93" role="graphics-symbol" aria-roledescription="bar" d="M0,55.932366333681436h102.85714285714286v544.0676336663186h-102.85714285714286Z" fill="#1b9e77"/></g></g><path class="foreground" aria-hidden="true" d="" display="none"/></g></g></g><path class="foreground" aria-hidden="true" d="" display="none"/></g><g transform="translate(577.1428571428571,37.53480320121323)"><path class="background" aria-hidden="true" d="M6,0L96.85714285714286,0C100.16863300410687,0,102.85714285714286,2.688509853036,102.85714285714286,6L102.85714285714286,562.4651967987868C102.85714285714286,562.4651967987868,102.85714285714286,562.4651967987868,102.85714285714286,562.4651967987868L0,562.4651967987868C0,562.4651967987868,0,562.4651967987868,0,562.4651967987868L0,6C0,2.688509853036,2.688509853036,0,6,0Z"/><g clip-path="url(#clip14)"><g class="mark-group role-scope" role="graphics-object" aria-roledescription="group mark container"><g transform="translate(0,-37.53480320121323)"><path class="background" aria-hidden="true" d="M0,0h102.85714285714286v0h-102.85714285714286Z"/><g><g class="mark-rect role-mark layer_0_marks" role="graphics-object" aria-roledescription="rect mark container"><path aria-label="Parser: oyaml&#xA;1.0; Execution Time (seconds, lower=better): 12.2121940077; parser: oyaml; Execution Time (s): 12.2122; Slowdown: 312.14" role="graphics-symbol" aria-roledescription="bar" d="M0,37.53480320121323h102.85714285714286v562.4651967987868h-102.85714285714286Z" fill="#7570b3"/></g></g><path class="foreground" aria-hidden="true" d="" display="none"/></g></g></g><path class="foreground" aria-hidden="true" d="" display="none"/></g><g transform="translate(691.4285714285714,28.571428571428605)"><path class="background" aria-hidden="true" d="M6,0L96.85714285714286,0C100.16863300410687,0,102.85714285714286,2.688509853036,102.85714285714286,6L102.85714285714286,571.4285714285714C102.85714285714286,571.4285714285714,102.85714285714286,571.4285714285714,102.85714285714286,571.4285714285714L0,571.4285714285714C0,571.4285714285714,0,571.4285714285714,0,571.4285714285714L0,6C0,2.688509853036,2.688509853036,0,6,0Z"/><g clip-path="url(#clip15)"><g class="mark-group role-scope" role="graphics-object" aria-roledescription="group mark container"><g transform="translate(0,-28.571428571428605)"><path class="background" aria-hidden="true" d="M0,0h102.85714285714286v0h-102.85714285714286Z"/><g><g class="mark-rect role-mark layer_0_marks" role="graphics-object" aria-roledescription="rect mark container"><path aria-label="Parser: ruamel.yaml&#xA;0.19.1; Execution Time (seconds, lower=better): 12.4068059953; parser: ruamel.yaml; Execution Time (s): 12.4068; Slowdown: 317.11" role="graphics-symbol" aria-roledescription="bar" d="M0,28.571428571428605h102.85714285714286v571.4285714285714h-102.85714285714286Z" fill="#e7298a"/></g></g><path class="foreground" aria-hidden="true" d="" display="none"/></g></g></g><path class="foreground" aria-hidden="true" d="" display="none"/></g></g><g class="mark-text role-mark layer_1_marks" role="graphics-object" aria-roledescription="text mark container"><text aria-label="Parser: yamlrocks&#xA;0.6.1; Execution Time (seconds, lower=better): 0.03912467; parser: yamlrocks; label: 0.0391s (x1.00); Execution Time (s): 0.0391; Slowdown: 1.00" role="graphics-symbol" aria-roledescription="text mark" text-anchor="middle" transform="translate(57.142857142857096,594.1980088756025)" font-family="sans-serif" font-size="9px" font-weight="bold" fill="#a6761d">0.0391s (x1.00)</text><text aria-label="Parser: yaml_rs&#xA;0.1.6; Execution Time (seconds, lower=better): 0.0617415016667; parser: yaml_rs; label: 0.0617s (x1.58); Execution Time (s): 0.0617; Slowdown: 1.58" role="graphics-symbol" aria-roledescription="text mark" text-anchor="middle" transform="translate(171.4285714285714,593.15633031511)" font-family="sans-serif" font-size="9px" font-weight="bold" fill="#e6ab02">0.0617s (x1.58)</text><text aria-label="Parser: ryaml&#xA;0.5.1; Execution Time (seconds, lower=better): 0.181980061333; parser: ryaml; label: 0.1820s (x4.65); Execution Time (s): 0.1820; Slowdown: 4.65" role="graphics-symbol" aria-roledescription="text mark" text-anchor="middle" transform="translate(285.71428571428567,587.6184224597931)" font-family="sans-serif" font-size="9px" font-weight="bold" fill="#66a61e">0.1820s (x4.65)</text><text aria-label="Parser: PyYAML (CDumper)&#xA;6.0.3; Execution Time (seconds, lower=better): 0.183788406; parser: PyYAML (CDumper); label: 0.1838s (x4.70); Execution Time (s): 0.1838; Slowdown: 4.70" role="graphics-symbol" aria-roledescription="text mark" text-anchor="middle" transform="translate(400,587.535134318597)" font-family="sans-serif" font-size="9px" font-weight="bold" fill="#d95f02">0.1838s (x4.70)</text><text aria-label="Parser: PyYAML&#xA;6.0.3; Execution Time (seconds, lower=better): 11.8127477637; parser: PyYAML; label: 11.8127s (x301.93); Execution Time (s): 11.8127; Slowdown: 301.93" role="graphics-symbol" aria-roledescription="text mark" text-anchor="middle" transform="translate(514.2857142857142,51.932366333681436)" font-family="sans-serif" font-size="9px" font-weight="bold" fill="#1b9e77">11.8127s (x301.93)</text><text aria-label="Parser: oyaml&#xA;1.0; Execution Time (seconds, lower=better): 12.2121940077; parser: oyaml; label: 12.2122s (x312.14); Execution Time (s): 12.2122; Slowdown: 312.14" role="graphics-symbol" aria-roledescription="text mark" text-anchor="middle" transform="translate(628.5714285714286,33.53480320121323)" font-family="sans-serif" font-size="9px" font-weight="bold" fill="#7570b3">12.2122s (x312.14)</text><text aria-label="Parser: ruamel.yaml&#xA;0.19.1; Execution Time (seconds, lower=better): 12.4068059953; parser: ruamel.yaml; label: 12.4068s (x317.11); Execution Time (s): 12.4068; Slowdown: 317.11" role="graphics-symbol" aria-roledescription="text mark" text-anchor="middle" transform="translate(742.8571428571429,24.571428571428605)" font-family="sans-serif" font-size="9px" font-weight="bold" fill="#e7298a">12.4068s (x317.11)</text></g><g class="mark-group role-title"><g transform="translate(400,-34.749704909192616)"><path class="background" aria-hidden="true" d="M0,0h0v0h0Z" pointer-events="none"/><g><g class="mark-text role-title-text" role="graphics-symbol" aria-roledescription="title" aria-label="Title text 'YAML parsers benchmark (dumps)'" pointer-events="none"><text text-anchor="middle" transform="translate(0,10)" font-family="sans-serif" font-size="13px" font-weight="bold" fill="#000" opacity="1">YAML parsers benchmark (dumps)</text></g><g class="mark-text role-title-subtitle" role="graphics-symbol" aria-roledescription="subtitle" aria-label="Subtitle text 'Python: 3.14.6 (Linux 6.17.0-1018-azure) | CPU: AMD EPYC 7763 64-Core Processor'" pointer-events="none"><text text-anchor="middle" transform="translate(0,25)" font-family="sans-serif" font-size="12px" fill="#000" opacity="1">Python: 3.14.6 (Linux 6.17.0-1018-azure) | CPU: AMD EPYC 7763 64-Core Processor</text></g></g><path class="foreground" aria-hidden="true" d="" pointer-events="none" display="none"/></g></g></g><path class="foreground" aria-hidden="true" d="" display="none"/></g></g></g><defs><clipPath id="clip9"><path d="M0.9009955621987729,0L101.95614729494409,0C102.45342028272401,0,102.85714285714286,0.40372257441885184,102.85714285714286,0.9009955621987729L102.85714285714286,1.8019911243975457C102.85714285714286,1.8019911243975457,102.85714285714286,1.8019911243975457,102.85714285714286,1.8019911243975457L0,1.8019911243975457C0,1.8019911243975457,0,1.8019911243975457,0,1.8019911243975457L0,0.9009955621987729C0,0.40372257441885184,0.40372257441885184,0,0.9009955621987729,0Z"/></clipPath><clipPath id="clip10"><path d="M1.42183484244498,0L101.43530801469788,0C102.22004002659233,0,102.85714285714286,0.6371028305505363,102.85714285714286,1.42183484244498L102.85714285714286,2.84366968488996C102.85714285714286,2.84366968488996,102.85714285714286,2.84366968488996,102.85714285714286,2.84366968488996L0,2.84366968488996C0,2.84366968488996,0,2.84366968488996,0,2.84366968488996L0,1.42183484244498C0,0.6371028305505363,0.6371028305505363,0,1.42183484244498,0Z"/></clipPath><clipPath id="clip11"><path d="M4.190788770103438,0L98.66635408703942,0C100.97931337374024,0,102.85714285714286,1.877829483402619,102.85714285714286,4.190788770103438L102.85714285714286,8.381577540206877C102.85714285714286,8.381577540206877,102.85714285714286,8.381577540206877,102.85714285714286,8.381577540206877L0,8.381577540206877C0,8.381577540206877,0,8.381577540206877,0,8.381577540206877L0,4.190788770103438C0,1.877829483402619,1.877829483402619,0,4.190788770103438,0Z"/></clipPath><clipPath id="clip12"><path d="M4.232432840701506,0L98.62471001644136,0C100.96065329138634,0,102.85714285714286,1.8964895657565244,102.85714285714286,4.232432840701506L102.85714285714286,8.464865681403012C102.85714285714286,8.464865681403012,102.85714285714286,8.464865681403012,102.85714285714286,8.464865681403012L0,8.464865681403012C0,8.464865681403012,0,8.464865681403012,0,8.464865681403012L0,4.232432840701506C0,1.8964895657565244,1.8964895657565244,0,4.232432840701506,0Z"/></clipPath><clipPath id="clip13"><path d="M6,0L96.85714285714286,0C100.16863300410687,0,102.85714285714286,2.688509853036,102.85714285714286,6L102.85714285714286,544.0676336663186C102.85714285714286,544.0676336663186,102.85714285714286,544.0676336663186,102.85714285714286,544.0676336663186L0,544.0676336663186C0,544.0676336663186,0,544.0676336663186,0,544.0676336663186L0,6C0,2.688509853036,2.688509853036,0,6,0Z"/></clipPath><clipPath id="clip14"><path d="M6,0L96.85714285714286,0C100.16863300410687,0,102.85714285714286,2.688509853036,102.85714285714286,6L102.85714285714286,562.4651967987868C102.85714285714286,562.4651967987868,102.85714285714286,562.4651967987868,102.85714285714286,562.4651967987868L0,562.4651967987868C0,562.4651967987868,0,562.4651967987868,0,562.4651967987868L0,6C0,2.688509853036,2.688509853036,0,6,0Z"/></clipPath><clipPath id="clip15"><path d="M6,0L96.85714285714286,0C100.16863300410687,0,102.85714285714286,2.688509853036,102.85714285714286,6L102.85714285714286,571.4285714285714C102.85714285714286,571.4285714285714,102.85714285714286,571.4285714285714,102.85714285714286,571.4285714285714L0,571.4285714285714C0,571.4285714285714,0,571.4285714285714,0,571.4285714285714L0,6C0,2.688509853036,2.688509853036,0,6,0Z"/></clipPath></defs></svg>