<svg xmlns="http://www.w3.org/2000/svg" xmlns:xlink="http://www.w3.org/1999/xlink" version="1.1" class="marks" width="846" height="691" viewBox="0 0 846 691"><rect width="846" height="691" fill="white"/><g fill="none" stroke-miterlimit="10" transform="translate(41,40)"><g class="mark-group role-frame root" role="graphics-object" aria-roledescription="group mark container"><g transform="translate(0,0)"><path class="background" aria-hidden="true" d="M0.5,0.5h800v600h-800Z" stroke="#ddd"/><g><g class="mark-group role-axis" role="graphics-symbol" aria-roledescription="axis" aria-label="X-axis titled 'Implementation' for a discrete scale with 9 values: uuid7_rs&#xA;0.0.10, uuid_utils&#xA;0.16.2, fastuuid7&#xA;0.2.0, fastuuid&#xA;0.14.0, UUIDv7gen&#xA;1.0.3, ending with uuid_v7&#xA;1.0.0"><g transform="translate(0.5,600.5)"><path class="background" aria-hidden="true" d="M0,0h0v0h0Z" pointer-events="none"/><g><g class="mark-rule role-axis-tick" pointer-events="none"><line transform="translate(44,0)" x2="0" y2="5" stroke="#888" stroke-width="1" opacity="1"/><line transform="translate(133,0)" x2="0" y2="5" stroke="#888" stroke-width="1" opacity="1"/><line transform="translate(222,0)" x2="0" y2="5" stroke="#888" stroke-width="1" opacity="1"/><line transform="translate(311,0)" x2="0" y2="5" stroke="#888" stroke-width="1" opacity="1"/><line transform="translate(400,0)" x2="0" y2="5" stroke="#888" stroke-width="1" opacity="1"/><line transform="translate(488,0)" x2="0" y2="5" stroke="#888" stroke-width="1" opacity="1"/><line transform="translate(577,0)" x2="0" y2="5" stroke="#888" stroke-width="1" opacity="1"/><line transform="translate(666,0)" x2="0" y2="5" stroke="#888" stroke-width="1" opacity="1"/><line transform="translate(755,0)" x2="0" y2="5" stroke="#888" stroke-width="1" opacity="1"/></g><g class="mark-text role-axis-label" pointer-events="none"><text text-anchor="middle" transform="translate(43.94444444444446,15)" font-family="sans-serif" font-size="10px" fill="#000" opacity="1"><tspan>uuid7_rs</tspan><tspan x="0" dy="14">0.0.10</tspan></text><text text-anchor="middle" transform="translate(132.83333333333334,15)" font-family="sans-serif" font-size="10px" fill="#000" opacity="1"><tspan>uuid_utils</tspan><tspan x="0" dy="14">0.16.2</tspan></text><text text-anchor="middle" transform="translate(221.72222222222223,15)" font-family="sans-serif" font-size="10px" fill="#000" opacity="1"><tspan>fastuuid7</tspan><tspan x="0" dy="14">0.2.0</tspan></text><text text-anchor="middle" transform="translate(310.6111111111111,15)" font-family="sans-serif" font-size="10px" fill="#000" opacity="1"><tspan>fastuuid</tspan><tspan x="0" dy="14">0.14.0</tspan></text><text text-anchor="middle" transform="translate(399.5,15)" font-family="sans-serif" font-size="10px" fill="#000" opacity="1"><tspan>UUIDv7gen</tspan><tspan x="0" dy="14">1.0.3</tspan></text><text text-anchor="middle" transform="translate(488.3888888888889,15)" font-family="sans-serif" font-size="10px" fill="#000" opacity="1"><tspan>lastuuid</tspan><tspan x="0" dy="14">0.5.0</tspan></text><text text-anchor="middle" transform="translate(577.2777777777777,15)" font-family="sans-serif" font-size="10px" fill="#000" opacity="1"><tspan>uuid</tspan><tspan x="0" dy="14">stdlib</tspan></text><text text-anchor="middle" transform="translate(666.1666666666666,15)" font-family="sans-serif" font-size="10px" fill="#000" opacity="1"><tspan>uuid6</tspan><tspan x="0" dy="14">2025.0.1</tspan></text><text text-anchor="middle" transform="translate(755.0555555555555,15)" font-family="sans-serif" font-size="10px" fill="#000" opacity="1"><tspan>uuid_v7</tspan><tspan x="0" dy="14">1.0.0</tspan></text></g><g class="mark-rule role-axis-domain" pointer-events="none"><line transform="translate(0,0)" x2="800" y2="0" stroke="#888" stroke-width="1" opacity="1"/></g><g class="mark-text role-axis-title" pointer-events="none"><text text-anchor="middle" transform="translate(400,44)" font-family="sans-serif" font-size="11px" font-weight="bold" fill="#000" opacity="1">Implementation</text></g></g><path class="foreground" aria-hidden="true" d="" pointer-events="none" display="none"/></g></g><g class="mark-group role-axis" role="graphics-symbol" aria-roledescription="axis" aria-label="Y-axis titled 'Execution Time (seconds, lower=better)' for a linear scale with values from 0.0 to 1.6"><g transform="translate(0.5,0.5)"><path class="background" aria-hidden="true" d="M0,0h0v0h0Z" pointer-events="none"/><g><g class="mark-rule role-axis-tick" pointer-events="none"><line transform="translate(0,600)" x2="-5" y2="0" stroke="#888" stroke-width="1" opacity="1"/><line transform="translate(0,563)" x2="-5" y2="0" stroke="#888" stroke-width="1" opacity="1"/><line transform="translate(0,525)" x2="-5" y2="0" stroke="#888" stroke-width="1" opacity="1"/><line transform="translate(0,488)" x2="-5" y2="0" stroke="#888" stroke-width="1" opacity="1"/><line transform="translate(0,450)" x2="-5" y2="0" stroke="#888" stroke-width="1" opacity="1"/><line transform="translate(0,413)" x2="-5" y2="0" stroke="#888" stroke-width="1" opacity="1"/><line transform="translate(0,375)" x2="-5" y2="0" stroke="#888" stroke-width="1" opacity="1"/><line transform="translate(0,338)" x2="-5" y2="0" stroke="#888" stroke-width="1" opacity="1"/><line transform="translate(0,301)" x2="-5" y2="0" stroke="#888" stroke-width="1" opacity="1"/><line transform="translate(0,263)" x2="-5" y2="0" stroke="#888" stroke-width="1" opacity="1"/><line transform="translate(0,226)" x2="-5" y2="0" stroke="#888" stroke-width="1" opacity="1"/><line transform="translate(0,188)" x2="-5" y2="0" stroke="#888" stroke-width="1" opacity="1"/><line transform="translate(0,151)" x2="-5" y2="0" stroke="#888" stroke-width="1" opacity="1"/><line transform="translate(0,114)" x2="-5" y2="0" stroke="#888" stroke-width="1" opacity="1"/><line transform="translate(0,76)" x2="-5" y2="0" stroke="#888" stroke-width="1" opacity="1"/><line transform="translate(0,39)" x2="-5" y2="0" stroke="#888" stroke-width="1" opacity="1"/><line transform="translate(0,1)" x2="-5" y2="0" stroke="#888" stroke-width="1" opacity="1"/></g><g class="mark-text role-axis-label" pointer-events="none"><text text-anchor="end" transform="translate(-7,603)" font-family="sans-serif" font-size="10px" fill="#000" opacity="1">0.0</text><text text-anchor="end" transform="translate(-7,565.5792713082774)" font-family="sans-serif" font-size="10px" fill="#000" opacity="1">0.1</text><text text-anchor="end" transform="translate(-7,528.1585426165549)" font-family="sans-serif" font-size="10px" fill="#000" opacity="1">0.2</text><text text-anchor="end" transform="translate(-7,490.73781392483227)" font-family="sans-serif" font-size="10px" fill="#000" opacity="1">0.3</text><text text-anchor="end" transform="translate(-7,453.3170852331097)" font-family="sans-serif" font-size="10px" fill="#000" opacity="1">0.4</text><text text-anchor="end" transform="translate(-7,415.89635654138715)" font-family="sans-serif" font-size="10px" fill="#000" opacity="1">0.5</text><text text-anchor="end" transform="translate(-7,378.4756278496646)" font-family="sans-serif" font-size="10px" fill="#000" opacity="1">0.6</text><text text-anchor="end" transform="translate(-7,341.054899157942)" font-family="sans-serif" font-size="10px" fill="#000" opacity="1">0.7</text><text text-anchor="end" transform="translate(-7,303.63417046621936)" font-family="sans-serif" font-size="10px" fill="#000" opacity="1">0.8</text><text text-anchor="end" transform="translate(-7,266.2134417744968)" font-family="sans-serif" font-size="10px" fill="#000" opacity="1">0.9</text><text text-anchor="end" transform="translate(-7,228.7927130827742)" font-family="sans-serif" font-size="10px" fill="#000" opacity="1">1.0</text><text text-anchor="end" transform="translate(-7,191.37198439105165)" font-family="sans-serif" font-size="10px" fill="#000" opacity="1">1.1</text><text text-anchor="end" transform="translate(-7,153.95125569932907)" font-family="sans-serif" font-size="10px" fill="#000" opacity="1">1.2</text><text text-anchor="end" transform="translate(-7,116.53052700760651)" font-family="sans-serif" font-size="10px" fill="#000" opacity="1">1.3</text><text text-anchor="end" transform="translate(-7,79.10979831588394)" font-family="sans-serif" font-size="10px" fill="#000" opacity="1">1.4</text><text text-anchor="end" transform="translate(-7,41.68906962416136)" font-family="sans-serif" font-size="10px" fill="#000" opacity="1">1.5</text><text text-anchor="end" transform="translate(-7,4.268340932438727)" font-family="sans-serif" font-size="10px" fill="#000" opacity="1">1.6</text></g><g class="mark-rule role-axis-domain" pointer-events="none"><line transform="translate(0,600)" x2="0" y2="-600" stroke="#888" stroke-width="1" opacity="1"/></g><g class="mark-text role-axis-title" pointer-events="none"><text text-anchor="middle" transform="translate(-24.9013671875,300) rotate(-90) translate(0,-2)" font-family="sans-serif" font-size="11px" font-weight="bold" fill="#000" opacity="1">Execution Time (seconds, lower=better)</text></g></g><path class="foreground" aria-hidden="true" d="" pointer-events="none" display="none"/></g></g><g class="mark-group role-scope" role="graphics-object" aria-roledescription="group mark container"><g transform="translate(4.444444444444457,590.7234634757357)"><path class="background" aria-hidden="true" d="M4.638268262132158,0L75.36173173786784,0C77.92166167937225,0,80,2.0783383206277453,80,4.638268262132158L80,9.276536524264316C80,9.276536524264316,80,9.276536524264316,80,9.276536524264316L0,9.276536524264316C0,9.276536524264316,0,9.276536524264316,0,9.276536524264316L0,4.638268262132158C0,2.0783383206277453,2.0783383206277453,0,4.638268262132158,0Z"/><g clip-path="url(#clip1)"><g class="mark-group role-scope" role="graphics-object" aria-roledescription="group mark container"><g transform="translate(0,-590.7234634757357)"><path class="background" aria-hidden="true" d="M0,0h80v0h-80Z"/><g><g class="mark-rect role-mark layer_0_marks" role="graphics-object" aria-roledescription="rect mark container"><path aria-label="Implementation: uuid7_rs&#xA;0.0.10; Execution Time (seconds, lower=better): 0.024789834; implementation: uuid7_rs; Execution Time (s): 0.0248; Slowdown: 1.00" role="graphics-symbol" aria-roledescription="bar" d="M0,590.7234634757357h80v9.276536524264316h-80Z" fill="#a6761d"/></g></g><path class="foreground" aria-hidden="true" d="" display="none"/></g></g></g><path class="foreground" aria-hidden="true" d="" display="none"/></g><g transform="translate(93.33333333333334,576.1800065382234)"><path class="background" aria-hidden="true" d="M6,0L74,0C77.311490146964,0,80,2.688509853036,80,6L80,23.819993461776562C80,23.819993461776562,80,23.819993461776562,80,23.819993461776562L0,23.819993461776562C0,23.819993461776562,0,23.819993461776562,0,23.819993461776562L0,6C0,2.688509853036,2.688509853036,0,6,0Z"/><g clip-path="url(#clip2)"><g class="mark-group role-scope" role="graphics-object" aria-roledescription="group mark container"><g transform="translate(0,-576.1800065382234)"><path class="background" aria-hidden="true" d="M0,0h80v0h-80Z"/><g><g class="mark-rect role-mark layer_0_marks" role="graphics-object" aria-roledescription="rect mark container"><path aria-label="Implementation: uuid_utils&#xA;0.16.2; Execution Time (seconds, lower=better): 0.063654542; implementation: uuid_utils; Execution Time (s): 0.0637; Slowdown: 2.57" role="graphics-symbol" aria-roledescription="bar" d="M0,576.1800065382234h80v23.819993461776562h-80Z" fill="#666666"/></g></g><path class="foreground" aria-hidden="true" d="" display="none"/></g></g></g><path class="foreground" aria-hidden="true" d="" display="none"/></g><g transform="translate(182.22222222222223,570.71031217717)"><path class="background" aria-hidden="true" d="M6,0L74,0C77.311490146964,0,80,2.688509853036,80,6L80,29.289687822830047C80,29.289687822830047,80,29.289687822830047,80,29.289687822830047L0,29.289687822830047C0,29.289687822830047,0,29.289687822830047,0,29.289687822830047L0,6C0,2.688509853036,2.688509853036,0,6,0Z"/><g clip-path="url(#clip3)"><g class="mark-group role-scope" role="graphics-object" aria-roledescription="group mark container"><g transform="translate(0,-570.71031217717)"><path class="background" aria-hidden="true" d="M0,0h80v0h-80Z"/><g><g class="mark-rect role-mark layer_0_marks" role="graphics-object" aria-roledescription="rect mark container"><path aria-label="Implementation: fastuuid7&#xA;0.2.0; Execution Time (seconds, lower=better): 0.078271292; implementation: fastuuid7; Execution Time (s): 0.0783; Slowdown: 3.16" role="graphics-symbol" aria-roledescription="bar" d="M0,570.71031217717h80v29.289687822830047h-80Z" fill="#7570b3"/></g></g><path class="foreground" aria-hidden="true" d="" display="none"/></g></g></g><path class="foreground" aria-hidden="true" d="" display="none"/></g><g transform="translate(271.1111111111111,413.69719119459495)"><path class="background" aria-hidden="true" d="M6,0L74,0C77.311490146964,0,80,2.688509853036,80,6L80,186.30280880540505C80,186.30280880540505,80,186.30280880540505,80,186.30280880540505L0,186.30280880540505C0,186.30280880540505,0,186.30280880540505,0,186.30280880540505L0,6C0,2.688509853036,2.688509853036,0,6,0Z"/><g clip-path="url(#clip4)"><g class="mark-group role-scope" role="graphics-object" aria-roledescription="group mark container"><g transform="translate(0,-413.69719119459495)"><path class="background" aria-hidden="true" d="M0,0h80v0h-80Z"/><g><g class="mark-rect role-mark layer_0_marks" role="graphics-object" aria-roledescription="rect mark container"><path aria-label="Implementation: fastuuid&#xA;0.14.0; Execution Time (seconds, lower=better): 0.497859917; implementation: fastuuid; Execution Time (s): 0.4979; Slowdown: 20.08" role="graphics-symbol" aria-roledescription="bar" d="M0,413.69719119459495h80v186.30280880540505h-80Z" fill="#d95f02"/></g></g><path class="foreground" aria-hidden="true" d="" display="none"/></g></g></g><path class="foreground" aria-hidden="true" d="" display="none"/></g><g transform="translate(360,409.79550320084473)"><path class="background" aria-hidden="true" d="M6,0L74,0C77.311490146964,0,80,2.688509853036,80,6L80,190.20449679915527C80,190.20449679915527,80,190.20449679915527,80,190.20449679915527L0,190.20449679915527C0,190.20449679915527,0,190.20449679915527,0,190.20449679915527L0,6C0,2.688509853036,2.688509853036,0,6,0Z"/><g clip-path="url(#clip5)"><g class="mark-group role-scope" role="graphics-object" aria-roledescription="group mark container"><g transform="translate(0,-409.79550320084473)"><path class="background" aria-hidden="true" d="M0,0h80v0h-80Z"/><g><g class="mark-rect role-mark layer_0_marks" role="graphics-object" aria-roledescription="rect mark container"><path aria-label="Implementation: UUIDv7gen&#xA;1.0.3; Execution Time (seconds, lower=better): 0.508286459; implementation: UUIDv7gen; Execution Time (s): 0.5083; Slowdown: 20.50" role="graphics-symbol" aria-roledescription="bar" d="M0,409.79550320084473h80v190.20449679915527h-80Z" fill="#1b9e77"/></g></g><path class="foreground" aria-hidden="true" d="" display="none"/></g></g></g><path class="foreground" aria-hidden="true" d="" display="none"/></g><g transform="translate(448.8888888888889,402.03676752322673)"><path class="background" aria-hidden="true" d="M6,0L74,0C77.311490146964,0,80,2.688509853036,80,6L80,197.96323247677327C80,197.96323247677327,80,197.96323247677327,80,197.96323247677327L0,197.96323247677327C0,197.96323247677327,0,197.96323247677327,0,197.96323247677327L0,6C0,2.688509853036,2.688509853036,0,6,0Z"/><g clip-path="url(#clip6)"><g class="mark-group role-scope" role="graphics-object" aria-roledescription="group mark container"><g transform="translate(0,-402.03676752322673)"><path class="background" aria-hidden="true" d="M0,0h80v0h-80Z"/><g><g class="mark-rect role-mark layer_0_marks" role="graphics-object" aria-roledescription="rect mark container"><path aria-label="Implementation: lastuuid&#xA;0.5.0; Execution Time (seconds, lower=better): 0.52902025; implementation: lastuuid; Execution Time (s): 0.5290; Slowdown: 21.34" role="graphics-symbol" aria-roledescription="bar" d="M0,402.03676752322673h80v197.96323247677327h-80Z" fill="#e7298a"/></g></g><path class="foreground" aria-hidden="true" d="" display="none"/></g></g></g><path class="foreground" aria-hidden="true" d="" display="none"/></g><g transform="translate(537.7777777777777,236.03194425434037)"><path class="background" aria-hidden="true" d="M6,0L74,0C77.311490146964,0,80,2.688509853036,80,6L80,363.9680557456596C80,363.9680557456596,80,363.9680557456596,80,363.9680557456596L0,363.9680557456596C0,363.9680557456596,0,363.9680557456596,0,363.9680557456596L0,6C0,2.688509853036,2.688509853036,0,6,0Z"/><g clip-path="url(#clip7)"><g class="mark-group role-scope" role="graphics-object" aria-roledescription="group mark container"><g transform="translate(0,-236.03194425434037)"><path class="background" aria-hidden="true" d="M0,0h80v0h-80Z"/><g><g class="mark-rect role-mark layer_0_marks" role="graphics-object" aria-roledescription="rect mark container"><path aria-label="Implementation: uuid&#xA;stdlib; Execution Time (seconds, lower=better): 0.972637542; implementation: uuid; Execution Time (s): 0.9726; Slowdown: 39.24" role="graphics-symbol" aria-roledescription="bar" d="M0,236.03194425434037h80v363.9680557456596h-80Z" fill="#66a61e"/></g></g><path class="foreground" aria-hidden="true" d="" display="none"/></g></g></g><path class="foreground" aria-hidden="true" d="" display="none"/></g><g transform="translate(626.6666666666666,170.71493572273744)"><path class="background" aria-hidden="true" d="M6,0L74,0C77.311490146964,0,80,2.688509853036,80,6L80,429.28506427726256C80,429.28506427726256,80,429.28506427726256,80,429.28506427726256L0,429.28506427726256C0,429.28506427726256,0,429.28506427726256,0,429.28506427726256L0,6C0,2.688509853036,2.688509853036,0,6,0Z"/><g clip-path="url(#clip8)"><g class="mark-group role-scope" role="graphics-object" aria-roledescription="group mark container"><g transform="translate(0,-170.71493572273744)"><path class="background" aria-hidden="true" d="M0,0h80v0h-80Z"/><g><g class="mark-rect role-mark layer_0_marks" role="graphics-object" aria-roledescription="rect mark container"><path aria-label="Implementation: uuid6&#xA;2025.0.1; Execution Time (seconds, lower=better): 1.147185208; implementation: uuid6; Execution Time (s): 1.1472; Slowdown: 46.28" role="graphics-symbol" aria-roledescription="bar" d="M0,170.71493572273744h80v429.28506427726256h-80Z" fill="#e6ab02"/></g></g><path class="foreground" aria-hidden="true" d="" display="none"/></g></g></g><path class="foreground" aria-hidden="true" d="" display="none"/></g><g transform="translate(715.5555555555555,23.076923076923062)"><path class="background" aria-hidden="true" d="M6,0L74,0C77.311490146964,0,80,2.688509853036,80,6L80,576.9230769230769C80,576.9230769230769,80,576.9230769230769,80,576.9230769230769L0,576.9230769230769C0,576.9230769230769,0,576.9230769230769,0,576.9230769230769L0,6C0,2.688509853036,2.688509853036,0,6,0Z"/><g clip-path="url(#clip9)"><g class="mark-group role-scope" role="graphics-object" aria-roledescription="group mark container"><g transform="translate(0,-23.076923076923062)"><path class="background" aria-hidden="true" d="M0,0h80v0h-80Z"/><g><g class="mark-rect role-mark layer_0_marks" role="graphics-object" aria-roledescription="rect mark container"><path aria-label="Implementation: uuid_v7&#xA;1.0.0; Execution Time (seconds, lower=better): 1.541720584; implementation: uuid_v7; Execution Time (s): 1.5417; Slowdown: 62.19" role="graphics-symbol" aria-roledescription="bar" d="M0,23.076923076923062h80v576.9230769230769h-80Z" fill="#1b9e77"/></g></g><path class="foreground" aria-hidden="true" d="" display="none"/></g></g></g><path class="foreground" aria-hidden="true" d="" display="none"/></g></g><g class="mark-text role-mark layer_1_marks" role="graphics-object" aria-roledescription="text mark container"><text aria-label="Implementation: uuid7_rs&#xA;0.0.10; Execution Time (seconds, lower=better): 0.024789834; implementation: uuid7_rs; label: 0.0248s (x1.00); Execution Time (s): 0.0248; Slowdown: 1.00" role="graphics-symbol" aria-roledescription="text mark" text-anchor="middle" transform="translate(44.44444444444446,586.7234634757357)" font-family="sans-serif" font-size="9px" font-weight="bold" fill="#a6761d">0.0248s (x1.00)</text><text aria-label="Implementation: uuid_utils&#xA;0.16.2; Execution Time (seconds, lower=better): 0.063654542; implementation: uuid_utils; label: 0.0637s (x2.57); Execution Time (s): 0.0637; Slowdown: 2.57" role="graphics-symbol" aria-roledescription="text mark" text-anchor="middle" transform="translate(133.33333333333334,572.1800065382234)" font-family="sans-serif" font-size="9px" font-weight="bold" fill="#666666">0.0637s (x2.57)</text><text aria-label="Implementation: fastuuid7&#xA;0.2.0; Execution Time (seconds, lower=better): 0.078271292; implementation: fastuuid7; label: 0.0783s (x3.16); Execution Time (s): 0.0783; Slowdown: 3.16" role="graphics-symbol" aria-roledescription="text mark" text-anchor="middle" transform="translate(222.22222222222223,566.71031217717)" font-family="sans-serif" font-size="9px" font-weight="bold" fill="#7570b3">0.0783s (x3.16)</text><text aria-label="Implementation: fastuuid&#xA;0.14.0; Execution Time (seconds, lower=better): 0.497859917; implementation: fastuuid; label: 0.4979s (x20.08); Execution Time (s): 0.4979; Slowdown: 20.08" role="graphics-symbol" aria-roledescription="text mark" text-anchor="middle" transform="translate(311.1111111111111,409.69719119459495)" font-family="sans-serif" font-size="9px" font-weight="bold" fill="#d95f02">0.4979s (x20.08)</text><text aria-label="Implementation: UUIDv7gen&#xA;1.0.3; Execution Time (seconds, lower=better): 0.508286459; implementation: UUIDv7gen; label: 0.5083s (x20.50); Execution Time (s): 0.5083; Slowdown: 20.50" role="graphics-symbol" aria-roledescription="text mark" text-anchor="middle" transform="translate(400,405.79550320084473)" font-family="sans-serif" font-size="9px" font-weight="bold" fill="#1b9e77">0.5083s (x20.50)</text><text aria-label="Implementation: lastuuid&#xA;0.5.0; Execution Time (seconds, lower=better): 0.52902025; implementation: lastuuid; label: 0.5290s (x21.34); Execution Time (s): 0.5290; Slowdown: 21.34" role="graphics-symbol" aria-roledescription="text mark" text-anchor="middle" transform="translate(488.8888888888889,398.03676752322673)" font-family="sans-serif" font-size="9px" font-weight="bold" fill="#e7298a">0.5290s (x21.34)</text><text aria-label="Implementation: uuid&#xA;stdlib; Execution Time (seconds, lower=better): 0.972637542; implementation: uuid; label: 0.9726s (x39.24); Execution Time (s): 0.9726; Slowdown: 39.24" role="graphics-symbol" aria-roledescription="text mark" text-anchor="middle" transform="translate(577.7777777777777,232.03194425434037)" font-family="sans-serif" font-size="9px" font-weight="bold" fill="#66a61e">0.9726s (x39.24)</text><text aria-label="Implementation: uuid6&#xA;2025.0.1; Execution Time (seconds, lower=better): 1.147185208; implementation: uuid6; label: 1.1472s (x46.28); Execution Time (s): 1.1472; Slowdown: 46.28" role="graphics-symbol" aria-roledescription="text mark" text-anchor="middle" transform="translate(666.6666666666666,166.71493572273744)" font-family="sans-serif" font-size="9px" font-weight="bold" fill="#e6ab02">1.1472s (x46.28)</text><text aria-label="Implementation: uuid_v7&#xA;1.0.0; Execution Time (seconds, lower=better): 1.541720584; implementation: uuid_v7; label: 1.5417s (x62.19); Execution Time (s): 1.5417; Slowdown: 62.19" role="graphics-symbol" aria-roledescription="text mark" text-anchor="middle" transform="translate(755.5555555555555,19.076923076923062)" font-family="sans-serif" font-size="9px" font-weight="bold" fill="#1b9e77">1.5417s (x62.19)</text></g><g class="mark-group role-title"><g transform="translate(400,-34.731659067561274)"><path class="background" aria-hidden="true" d="M0,0h0v0h0Z" pointer-events="none"/><g><g class="mark-text role-title-text" role="graphics-symbol" aria-roledescription="title" aria-label="Title text 'UUID v7 benchmark (uuid7() default APIs)'" pointer-events="none"><text text-anchor="middle" transform="translate(0,10)" font-family="sans-serif" font-size="13px" font-weight="bold" fill="#000" opacity="1">UUID v7 benchmark (uuid7() default APIs)</text></g><g class="mark-text role-title-subtitle" role="graphics-symbol" aria-roledescription="subtitle" aria-label="Subtitle text 'Python: 3.14.5 (Darwin 24.6.0) | CPU: Apple M1 (Virtual)'" pointer-events="none"><text text-anchor="middle" transform="translate(0,25)" font-family="sans-serif" font-size="12px" fill="#000" opacity="1">Python: 3.14.5 (Darwin 24.6.0) | CPU: Apple M1 (Virtual)</text></g></g><path class="foreground" aria-hidden="true" d="" pointer-events="none" display="none"/></g></g></g><path class="foreground" aria-hidden="true" d="" display="none"/></g></g></g><defs><clipPath id="clip1"><path d="M4.638268262132158,0L75.36173173786784,0C77.92166167937225,0,80,2.0783383206277453,80,4.638268262132158L80,9.276536524264316C80,9.276536524264316,80,9.276536524264316,80,9.276536524264316L0,9.276536524264316C0,9.276536524264316,0,9.276536524264316,0,9.276536524264316L0,4.638268262132158C0,2.0783383206277453,2.0783383206277453,0,4.638268262132158,0Z"/></clipPath><clipPath id="clip2"><path d="M6,0L74,0C77.311490146964,0,80,2.688509853036,80,6L80,23.819993461776562C80,23.819993461776562,80,23.819993461776562,80,23.819993461776562L0,23.819993461776562C0,23.819993461776562,0,23.819993461776562,0,23.819993461776562L0,6C0,2.688509853036,2.688509853036,0,6,0Z"/></clipPath><clipPath id="clip3"><path d="M6,0L74,0C77.311490146964,0,80,2.688509853036,80,6L80,29.289687822830047C80,29.289687822830047,80,29.289687822830047,80,29.289687822830047L0,29.289687822830047C0,29.289687822830047,0,29.289687822830047,0,29.289687822830047L0,6C0,2.688509853036,2.688509853036,0,6,0Z"/></clipPath><clipPath id="clip4"><path d="M6,0L74,0C77.311490146964,0,80,2.688509853036,80,6L80,186.30280880540505C80,186.30280880540505,80,186.30280880540505,80,186.30280880540505L0,186.30280880540505C0,186.30280880540505,0,186.30280880540505,0,186.30280880540505L0,6C0,2.688509853036,2.688509853036,0,6,0Z"/></clipPath><clipPath id="clip5"><path d="M6,0L74,0C77.311490146964,0,80,2.688509853036,80,6L80,190.20449679915527C80,190.20449679915527,80,190.20449679915527,80,190.20449679915527L0,190.20449679915527C0,190.20449679915527,0,190.20449679915527,0,190.20449679915527L0,6C0,2.688509853036,2.688509853036,0,6,0Z"/></clipPath><clipPath id="clip6"><path d="M6,0L74,0C77.311490146964,0,80,2.688509853036,80,6L80,197.96323247677327C80,197.96323247677327,80,197.96323247677327,80,197.96323247677327L0,197.96323247677327C0,197.96323247677327,0,197.96323247677327,0,197.96323247677327L0,6C0,2.688509853036,2.688509853036,0,6,0Z"/></clipPath><clipPath id="clip7"><path d="M6,0L74,0C77.311490146964,0,80,2.688509853036,80,6L80,363.9680557456596C80,363.9680557456596,80,363.9680557456596,80,363.9680557456596L0,363.9680557456596C0,363.9680557456596,0,363.9680557456596,0,363.9680557456596L0,6C0,2.688509853036,2.688509853036,0,6,0Z"/></clipPath><clipPath id="clip8"><path d="M6,0L74,0C77.311490146964,0,80,2.688509853036,80,6L80,429.28506427726256C80,429.28506427726256,80,429.28506427726256,80,429.28506427726256L0,429.28506427726256C0,429.28506427726256,0,429.28506427726256,0,429.28506427726256L0,6C0,2.688509853036,2.688509853036,0,6,0Z"/></clipPath><clipPath id="clip9"><path d="M6,0L74,0C77.311490146964,0,80,2.688509853036,80,6L80,576.9230769230769C80,576.9230769230769,80,576.9230769230769,80,576.9230769230769L0,576.9230769230769C0,576.9230769230769,0,576.9230769230769,0,576.9230769230769L0,6C0,2.688509853036,2.688509853036,0,6,0Z"/></clipPath></defs></svg>