<svg xmlns="http://www.w3.org/2000/svg" xmlns:xlink="http://www.w3.org/1999/xlink" version="1.1" class="marks" width="846" height="687" viewBox="0 0 846 687"><rect width="846" height="687" fill="white"/><g fill="none" stroke-miterlimit="10" transform="translate(41,36)"><g class="mark-group role-frame root" role="graphics-object" aria-roledescription="group mark container"><g transform="translate(0,0)"><path class="background" aria-hidden="true" d="M0.5,0.5h800v600h-800Z" stroke="#ddd"/><g><g class="mark-group role-axis" role="graphics-symbol" aria-roledescription="axis" aria-label="X-axis titled 'Implementation' for a discrete scale with 7 values: fastuuid7&#xA;0.2.0, uuid7_rs.compat&#xA;0.0.10, uuid_utils.compat&#xA;0.16.2, lastuuid&#xA;0.5.0, uuid&#xA;stdlib, uuid6&#xA;2025.0.1, uuid_v7&#xA;1.0.0"><g transform="translate(0.5,600.5)"><path class="background" aria-hidden="true" d="M0,0h0v0h0Z" pointer-events="none"/><g><g class="mark-rule role-axis-tick" pointer-events="none"><line transform="translate(57,0)" x2="0" y2="5" stroke="#888" stroke-width="1" opacity="1"/><line transform="translate(171,0)" x2="0" y2="5" stroke="#888" stroke-width="1" opacity="1"/><line transform="translate(285,0)" x2="0" y2="5" stroke="#888" stroke-width="1" opacity="1"/><line transform="translate(400,0)" x2="0" y2="5" stroke="#888" stroke-width="1" opacity="1"/><line transform="translate(514,0)" x2="0" y2="5" stroke="#888" stroke-width="1" opacity="1"/><line transform="translate(628,0)" x2="0" y2="5" stroke="#888" stroke-width="1" opacity="1"/><line transform="translate(742,0)" x2="0" y2="5" stroke="#888" stroke-width="1" opacity="1"/></g><g class="mark-text role-axis-label" pointer-events="none"><text text-anchor="middle" transform="translate(56.642857142857096,15)" font-family="sans-serif" font-size="10px" fill="#000" opacity="1"><tspan>fastuuid7</tspan><tspan x="0" dy="14">0.2.0</tspan></text><text text-anchor="middle" transform="translate(170.9285714285714,15)" font-family="sans-serif" font-size="10px" fill="#000" opacity="1"><tspan>uuid7_rs.compat</tspan><tspan x="0" dy="14">0.0.10</tspan></text><text text-anchor="middle" transform="translate(285.21428571428567,15)" font-family="sans-serif" font-size="10px" fill="#000" opacity="1"><tspan>uuid_utils.compat</tspan><tspan x="0" dy="14">0.16.2</tspan></text><text text-anchor="middle" transform="translate(399.5,15)" font-family="sans-serif" font-size="10px" fill="#000" opacity="1"><tspan>lastuuid</tspan><tspan x="0" dy="14">0.5.0</tspan></text><text text-anchor="middle" transform="translate(513.7857142857142,15)" font-family="sans-serif" font-size="10px" fill="#000" opacity="1"><tspan>uuid</tspan><tspan x="0" dy="14">stdlib</tspan></text><text text-anchor="middle" transform="translate(628.0714285714286,15)" font-family="sans-serif" font-size="10px" fill="#000" opacity="1"><tspan>uuid6</tspan><tspan x="0" dy="14">2025.0.1</tspan></text><text text-anchor="middle" transform="translate(742.3571428571429,15)" font-family="sans-serif" font-size="10px" fill="#000" opacity="1"><tspan>uuid_v7</tspan><tspan x="0" dy="14">1.0.0</tspan></text></g><g class="mark-rule role-axis-domain" pointer-events="none"><line transform="translate(0,0)" x2="800" y2="0" stroke="#888" stroke-width="1" opacity="1"/></g><g class="mark-text role-axis-title" pointer-events="none"><text text-anchor="middle" transform="translate(400,44)" font-family="sans-serif" font-size="11px" font-weight="bold" fill="#000" opacity="1">Implementation</text></g></g><path class="foreground" aria-hidden="true" d="" pointer-events="none" display="none"/></g></g><g class="mark-group role-axis" role="graphics-symbol" aria-roledescription="axis" aria-label="Y-axis titled 'Execution Time (seconds, lower=better)' for a linear scale with values from 0.0 to 1.9"><g transform="translate(0.5,0.5)"><path class="background" aria-hidden="true" d="M0,0h0v0h0Z" pointer-events="none"/><g><g class="mark-rule role-axis-tick" pointer-events="none"><line transform="translate(0,600)" x2="-5" y2="0" stroke="#888" stroke-width="1" opacity="1"/><line transform="translate(0,568)" x2="-5" y2="0" stroke="#888" stroke-width="1" opacity="1"/><line transform="translate(0,537)" x2="-5" y2="0" stroke="#888" stroke-width="1" opacity="1"/><line transform="translate(0,505)" x2="-5" y2="0" stroke="#888" stroke-width="1" opacity="1"/><line transform="translate(0,474)" x2="-5" y2="0" stroke="#888" stroke-width="1" opacity="1"/><line transform="translate(0,442)" x2="-5" y2="0" stroke="#888" stroke-width="1" opacity="1"/><line transform="translate(0,410)" x2="-5" y2="0" stroke="#888" stroke-width="1" opacity="1"/><line transform="translate(0,379)" x2="-5" y2="0" stroke="#888" stroke-width="1" opacity="1"/><line transform="translate(0,347)" x2="-5" y2="0" stroke="#888" stroke-width="1" opacity="1"/><line transform="translate(0,316)" x2="-5" y2="0" stroke="#888" stroke-width="1" opacity="1"/><line transform="translate(0,284)" x2="-5" y2="0" stroke="#888" stroke-width="1" opacity="1"/><line transform="translate(0,252)" x2="-5" y2="0" stroke="#888" stroke-width="1" opacity="1"/><line transform="translate(0,221)" x2="-5" y2="0" stroke="#888" stroke-width="1" opacity="1"/><line transform="translate(0,189)" x2="-5" y2="0" stroke="#888" stroke-width="1" opacity="1"/><line transform="translate(0,158)" x2="-5" y2="0" stroke="#888" stroke-width="1" opacity="1"/><line transform="translate(0,126)" x2="-5" y2="0" stroke="#888" stroke-width="1" opacity="1"/><line transform="translate(0,94)" x2="-5" y2="0" stroke="#888" stroke-width="1" opacity="1"/><line transform="translate(0,63)" x2="-5" y2="0" stroke="#888" stroke-width="1" opacity="1"/><line transform="translate(0,31)" x2="-5" y2="0" stroke="#888" stroke-width="1" opacity="1"/></g><g class="mark-text role-axis-label" pointer-events="none"><text text-anchor="end" transform="translate(-7,603)" font-family="sans-serif" font-size="10px" fill="#000" opacity="1">0.0</text><text text-anchor="end" transform="translate(-7,571.4025711291299)" font-family="sans-serif" font-size="10px" fill="#000" opacity="1">0.1</text><text text-anchor="end" transform="translate(-7,539.8051422582599)" font-family="sans-serif" font-size="10px" fill="#000" opacity="1">0.2</text><text text-anchor="end" transform="translate(-7,508.2077133873899)" font-family="sans-serif" font-size="10px" fill="#000" opacity="1">0.3</text><text text-anchor="end" transform="translate(-7,476.61028451651987)" font-family="sans-serif" font-size="10px" fill="#000" opacity="1">0.4</text><text text-anchor="end" transform="translate(-7,445.01285564564984)" font-family="sans-serif" font-size="10px" fill="#000" opacity="1">0.5</text><text text-anchor="end" transform="translate(-7,413.41542677477986)" font-family="sans-serif" font-size="10px" fill="#000" opacity="1">0.6</text><text text-anchor="end" transform="translate(-7,381.81799790390977)" font-family="sans-serif" font-size="10px" fill="#000" opacity="1">0.7</text><text text-anchor="end" transform="translate(-7,350.22056903303974)" font-family="sans-serif" font-size="10px" fill="#000" opacity="1">0.8</text><text text-anchor="end" transform="translate(-7,318.6231401621697)" font-family="sans-serif" font-size="10px" fill="#000" opacity="1">0.9</text><text text-anchor="end" transform="translate(-7,287.0257112912997)" font-family="sans-serif" font-size="10px" fill="#000" opacity="1">1.0</text><text text-anchor="end" transform="translate(-7,255.4282824204296)" font-family="sans-serif" font-size="10px" fill="#000" opacity="1">1.1</text><text text-anchor="end" transform="translate(-7,223.83085354955963)" font-family="sans-serif" font-size="10px" fill="#000" opacity="1">1.2</text><text text-anchor="end" transform="translate(-7,192.23342467868957)" font-family="sans-serif" font-size="10px" fill="#000" opacity="1">1.3</text><text text-anchor="end" transform="translate(-7,160.6359958078196)" font-family="sans-serif" font-size="10px" fill="#000" opacity="1">1.4</text><text text-anchor="end" transform="translate(-7,129.03856693694948)" font-family="sans-serif" font-size="10px" fill="#000" opacity="1">1.5</text><text text-anchor="end" transform="translate(-7,97.44113806607943)" font-family="sans-serif" font-size="10px" fill="#000" opacity="1">1.6</text><text text-anchor="end" transform="translate(-7,65.84370919520944)" font-family="sans-serif" font-size="10px" fill="#000" opacity="1">1.7</text><text text-anchor="end" transform="translate(-7,34.2462803243394)" font-family="sans-serif" font-size="10px" fill="#000" opacity="1">1.8</text></g><g class="mark-rule role-axis-domain" pointer-events="none"><line transform="translate(0,600)" x2="0" y2="-600" stroke="#888" stroke-width="1" opacity="1"/></g><g class="mark-text role-axis-title" pointer-events="none"><text text-anchor="middle" transform="translate(-24.9013671875,300) rotate(-90) translate(0,-2)" font-family="sans-serif" font-size="11px" font-weight="bold" fill="#000" opacity="1">Execution Time (seconds, lower=better)</text></g></g><path class="foreground" aria-hidden="true" d="" pointer-events="none" display="none"/></g></g><g class="mark-group role-scope" role="graphics-object" aria-roledescription="group mark container"><g transform="translate(5.714285714285666,529.762802103813)"><path class="background" aria-hidden="true" d="M6,0L96.85714285714286,0C100.16863300410687,0,102.85714285714286,2.688509853036,102.85714285714286,6L102.85714285714286,70.23719789618701C102.85714285714286,70.23719789618701,102.85714285714286,70.23719789618701,102.85714285714286,70.23719789618701L0,70.23719789618701C0,70.23719789618701,0,70.23719789618701,0,70.23719789618701L0,6C0,2.688509853036,2.688509853036,0,6,0Z"/><g clip-path="url(#clip10)"><g class="mark-group role-scope" role="graphics-object" aria-roledescription="group mark container"><g transform="translate(0,-529.762802103813)"><path class="background" aria-hidden="true" d="M0,0h102.85714285714286v0h-102.85714285714286Z"/><g><g class="mark-rect role-mark layer_0_marks" role="graphics-object" aria-roledescription="rect mark container"><path aria-label="Implementation: fastuuid7&#xA;0.2.0; Execution Time (seconds, lower=better): 0.2222877; implementation: fastuuid7; Execution Time (s): 0.2223; Slowdown: 1.00" role="graphics-symbol" aria-roledescription="bar" d="M0,529.762802103813h102.85714285714286v70.23719789618701h-102.85714285714286Z" fill="#1b9e77"/></g></g><path class="foreground" aria-hidden="true" d="" display="none"/></g></g></g><path class="foreground" aria-hidden="true" d="" display="none"/></g><g transform="translate(119.99999999999996,520.4481012546853)"><path class="background" aria-hidden="true" d="M6,0L96.85714285714286,0C100.16863300410687,0,102.85714285714286,2.688509853036,102.85714285714286,6L102.85714285714286,79.5518987453147C102.85714285714286,79.5518987453147,102.85714285714286,79.5518987453147,102.85714285714286,79.5518987453147L0,79.5518987453147C0,79.5518987453147,0,79.5518987453147,0,79.5518987453147L0,6C0,2.688509853036,2.688509853036,0,6,0Z"/><g clip-path="url(#clip11)"><g class="mark-group role-scope" role="graphics-object" aria-roledescription="group mark container"><g transform="translate(0,-520.4481012546853)"><path class="background" aria-hidden="true" d="M0,0h102.85714285714286v0h-102.85714285714286Z"/><g><g class="mark-rect role-mark layer_0_marks" role="graphics-object" aria-roledescription="rect mark container"><path aria-label="Implementation: uuid7_rs.compat&#xA;0.0.10; Execution Time (seconds, lower=better): 0.251767; implementation: uuid7_rs.compat; Execution Time (s): 0.2518; Slowdown: 1.13" role="graphics-symbol" aria-roledescription="bar" d="M0,520.4481012546853h102.85714285714286v79.5518987453147h-102.85714285714286Z" fill="#66a61e"/></g></g><path class="foreground" aria-hidden="true" d="" display="none"/></g></g></g><path class="foreground" aria-hidden="true" d="" display="none"/></g><g transform="translate(234.28571428571425,503.38858621243105)"><path class="background" aria-hidden="true" d="M6,0L96.85714285714286,0C100.16863300410687,0,102.85714285714286,2.688509853036,102.85714285714286,6L102.85714285714286,96.61141378756895C102.85714285714286,96.61141378756895,102.85714285714286,96.61141378756895,102.85714285714286,96.61141378756895L0,96.61141378756895C0,96.61141378756895,0,96.61141378756895,0,96.61141378756895L0,6C0,2.688509853036,2.688509853036,0,6,0Z"/><g clip-path="url(#clip12)"><g class="mark-group role-scope" role="graphics-object" aria-roledescription="group mark container"><g transform="translate(0,-503.38858621243105)"><path class="background" aria-hidden="true" d="M0,0h102.85714285714286v0h-102.85714285714286Z"/><g><g class="mark-rect role-mark layer_0_marks" role="graphics-object" aria-roledescription="rect mark container"><path aria-label="Implementation: uuid_utils.compat&#xA;0.16.2; Execution Time (seconds, lower=better): 0.3057572; implementation: uuid_utils.compat; Execution Time (s): 0.3058; Slowdown: 1.38" role="graphics-symbol" aria-roledescription="bar" d="M0,503.38858621243105h102.85714285714286v96.61141378756895h-102.85714285714286Z" fill="#e6ab02"/></g></g><path class="foreground" aria-hidden="true" d="" display="none"/></g></g></g><path class="foreground" aria-hidden="true" d="" display="none"/></g><g transform="translate(348.57142857142856,322.56142998334536)"><path class="background" aria-hidden="true" d="M6,0L96.85714285714286,0C100.16863300410687,0,102.85714285714286,2.688509853036,102.85714285714286,6L102.85714285714286,277.43857001665464C102.85714285714286,277.43857001665464,102.85714285714286,277.43857001665464,102.85714285714286,277.43857001665464L0,277.43857001665464C0,277.43857001665464,0,277.43857001665464,0,277.43857001665464L0,6C0,2.688509853036,2.688509853036,0,6,0Z"/><g clip-path="url(#clip13)"><g class="mark-group role-scope" role="graphics-object" aria-roledescription="group mark container"><g transform="translate(0,-322.56142998334536)"><path class="background" aria-hidden="true" d="M0,0h102.85714285714286v0h-102.85714285714286Z"/><g><g class="mark-rect role-mark layer_0_marks" role="graphics-object" aria-roledescription="rect mark container"><path aria-label="Implementation: lastuuid&#xA;0.5.0; Execution Time (seconds, lower=better): 0.8780416; implementation: lastuuid; Execution Time (s): 0.8780; Slowdown: 3.95" role="graphics-symbol" aria-roledescription="bar" d="M0,322.56142998334536h102.85714285714286v277.43857001665464h-102.85714285714286Z" fill="#d95f02"/></g></g><path class="foreground" aria-hidden="true" d="" display="none"/></g></g></g><path class="foreground" aria-hidden="true" d="" display="none"/></g><g transform="translate(462.85714285714283,304.37142213096183)"><path class="background" aria-hidden="true" d="M6,0L96.85714285714286,0C100.16863300410687,0,102.85714285714286,2.688509853036,102.85714285714286,6L102.85714285714286,295.62857786903817C102.85714285714286,295.62857786903817,102.85714285714286,295.62857786903817,102.85714285714286,295.62857786903817L0,295.62857786903817C0,295.62857786903817,0,295.62857786903817,0,295.62857786903817L0,6C0,2.688509853036,2.688509853036,0,6,0Z"/><g clip-path="url(#clip14)"><g class="mark-group role-scope" role="graphics-object" aria-roledescription="group mark container"><g transform="translate(0,-304.37142213096183)"><path class="background" aria-hidden="true" d="M0,0h102.85714285714286v0h-102.85714285714286Z"/><g><g class="mark-rect role-mark layer_0_marks" role="graphics-object" aria-roledescription="rect mark container"><path aria-label="Implementation: uuid&#xA;stdlib; Execution Time (seconds, lower=better): 0.9356096; implementation: uuid; Execution Time (s): 0.9356; Slowdown: 4.21" role="graphics-symbol" aria-roledescription="bar" d="M0,304.37142213096183h102.85714285714286v295.62857786903817h-102.85714285714286Z" fill="#7570b3"/></g></g><path class="foreground" aria-hidden="true" d="" display="none"/></g></g></g><path class="foreground" aria-hidden="true" d="" display="none"/></g><g transform="translate(577.1428571428571,177.6743900542872)"><path class="background" aria-hidden="true" d="M6,0L96.85714285714286,0C100.16863300410687,0,102.85714285714286,2.688509853036,102.85714285714286,6L102.85714285714286,422.3256099457128C102.85714285714286,422.3256099457128,102.85714285714286,422.3256099457128,102.85714285714286,422.3256099457128L0,422.3256099457128C0,422.3256099457128,0,422.3256099457128,0,422.3256099457128L0,6C0,2.688509853036,2.688509853036,0,6,0Z"/><g clip-path="url(#clip15)"><g class="mark-group role-scope" role="graphics-object" aria-roledescription="group mark container"><g transform="translate(0,-177.6743900542872)"><path class="background" aria-hidden="true" d="M0,0h102.85714285714286v0h-102.85714285714286Z"/><g><g class="mark-rect role-mark layer_0_marks" role="graphics-object" aria-roledescription="rect mark container"><path aria-label="Implementation: uuid6&#xA;2025.0.1; Execution Time (seconds, lower=better): 1.3365822; implementation: uuid6; Execution Time (s): 1.3366; Slowdown: 6.01" role="graphics-symbol" aria-roledescription="bar" d="M0,177.6743900542872h102.85714285714286v422.3256099457128h-102.85714285714286Z" fill="#e7298a"/></g></g><path class="foreground" aria-hidden="true" d="" display="none"/></g></g></g><path class="foreground" aria-hidden="true" d="" display="none"/></g><g transform="translate(691.4285714285714,23.076923076923062)"><path class="background" aria-hidden="true" d="M6,0L96.85714285714286,0C100.16863300410687,0,102.85714285714286,2.688509853036,102.85714285714286,6L102.85714285714286,576.9230769230769C102.85714285714286,576.9230769230769,102.85714285714286,576.9230769230769,102.85714285714286,576.9230769230769L0,576.9230769230769C0,576.9230769230769,0,576.9230769230769,0,576.9230769230769L0,6C0,2.688509853036,2.688509853036,0,6,0Z"/><g clip-path="url(#clip16)"><g class="mark-group role-scope" role="graphics-object" aria-roledescription="group mark container"><g transform="translate(0,-23.076923076923062)"><path class="background" aria-hidden="true" d="M0,0h102.85714285714286v0h-102.85714285714286Z"/><g><g class="mark-rect role-mark layer_0_marks" role="graphics-object" aria-roledescription="rect mark container"><path aria-label="Implementation: uuid_v7&#xA;1.0.0; Execution Time (seconds, lower=better): 1.8258545; implementation: uuid_v7; Execution Time (s): 1.8259; Slowdown: 8.21" role="graphics-symbol" aria-roledescription="bar" d="M0,23.076923076923062h102.85714285714286v576.9230769230769h-102.85714285714286Z" fill="#a6761d"/></g></g><path class="foreground" aria-hidden="true" d="" display="none"/></g></g></g><path class="foreground" aria-hidden="true" d="" display="none"/></g></g><g class="mark-text role-mark layer_1_marks" role="graphics-object" aria-roledescription="text mark container"><text aria-label="Implementation: fastuuid7&#xA;0.2.0; Execution Time (seconds, lower=better): 0.2222877; implementation: fastuuid7; label: 0.2223s (x1.00); Execution Time (s): 0.2223; Slowdown: 1.00" role="graphics-symbol" aria-roledescription="text mark" text-anchor="middle" transform="translate(57.142857142857096,525.762802103813)" font-family="sans-serif" font-size="9px" font-weight="bold" fill="#1b9e77">0.2223s (x1.00)</text><text aria-label="Implementation: uuid7_rs.compat&#xA;0.0.10; Execution Time (seconds, lower=better): 0.251767; implementation: uuid7_rs.compat; label: 0.2518s (x1.13); Execution Time (s): 0.2518; Slowdown: 1.13" role="graphics-symbol" aria-roledescription="text mark" text-anchor="middle" transform="translate(171.4285714285714,516.4481012546853)" font-family="sans-serif" font-size="9px" font-weight="bold" fill="#66a61e">0.2518s (x1.13)</text><text aria-label="Implementation: uuid_utils.compat&#xA;0.16.2; Execution Time (seconds, lower=better): 0.3057572; implementation: uuid_utils.compat; label: 0.3058s (x1.38); Execution Time (s): 0.3058; Slowdown: 1.38" role="graphics-symbol" aria-roledescription="text mark" text-anchor="middle" transform="translate(285.71428571428567,499.38858621243105)" font-family="sans-serif" font-size="9px" font-weight="bold" fill="#e6ab02">0.3058s (x1.38)</text><text aria-label="Implementation: lastuuid&#xA;0.5.0; Execution Time (seconds, lower=better): 0.8780416; implementation: lastuuid; label: 0.8780s (x3.95); Execution Time (s): 0.8780; Slowdown: 3.95" role="graphics-symbol" aria-roledescription="text mark" text-anchor="middle" transform="translate(400,318.56142998334536)" font-family="sans-serif" font-size="9px" font-weight="bold" fill="#d95f02">0.8780s (x3.95)</text><text aria-label="Implementation: uuid&#xA;stdlib; Execution Time (seconds, lower=better): 0.9356096; implementation: uuid; label: 0.9356s (x4.21); Execution Time (s): 0.9356; Slowdown: 4.21" role="graphics-symbol" aria-roledescription="text mark" text-anchor="middle" transform="translate(514.2857142857142,300.37142213096183)" font-family="sans-serif" font-size="9px" font-weight="bold" fill="#7570b3">0.9356s (x4.21)</text><text aria-label="Implementation: uuid6&#xA;2025.0.1; Execution Time (seconds, lower=better): 1.3365822; implementation: uuid6; label: 1.3366s (x6.01); Execution Time (s): 1.3366; Slowdown: 6.01" role="graphics-symbol" aria-roledescription="text mark" text-anchor="middle" transform="translate(628.5714285714286,173.6743900542872)" font-family="sans-serif" font-size="9px" font-weight="bold" fill="#e7298a">1.3366s (x6.01)</text><text aria-label="Implementation: uuid_v7&#xA;1.0.0; Execution Time (seconds, lower=better): 1.8258545; implementation: uuid_v7; label: 1.8259s (x8.21); Execution Time (s): 1.8259; Slowdown: 8.21" role="graphics-symbol" aria-roledescription="text mark" text-anchor="middle" transform="translate(742.8571428571429,19.076923076923062)" font-family="sans-serif" font-size="9px" font-weight="bold" fill="#a6761d">1.8259s (x8.21)</text></g><g class="mark-group role-title"><g transform="translate(400,-31)"><path class="background" aria-hidden="true" d="M0,0h0v0h0Z" pointer-events="none"/><g><g class="mark-text role-title-text" role="graphics-symbol" aria-roledescription="title" aria-label="Title text 'UUID v7 benchmark (uuid7() stdlib-compatible APIs)'" pointer-events="none"><text text-anchor="middle" transform="translate(0,10)" font-family="sans-serif" font-size="13px" font-weight="bold" fill="#000" opacity="1">UUID v7 benchmark (uuid7() stdlib-compatible APIs)</text></g><g class="mark-text role-title-subtitle" role="graphics-symbol" aria-roledescription="subtitle" aria-label="Subtitle text 'Python: 3.14.6 (Windows 2025Server) | CPU: AMD EPYC 7763 64-Core Processor'" pointer-events="none"><text text-anchor="middle" transform="translate(0,25)" font-family="sans-serif" font-size="12px" fill="#000" opacity="1">Python: 3.14.6 (Windows 2025Server) | CPU: AMD EPYC 7763 64-Core Processor</text></g></g><path class="foreground" aria-hidden="true" d="" pointer-events="none" display="none"/></g></g></g><path class="foreground" aria-hidden="true" d="" display="none"/></g></g></g><defs><clipPath id="clip10"><path d="M6,0L96.85714285714286,0C100.16863300410687,0,102.85714285714286,2.688509853036,102.85714285714286,6L102.85714285714286,70.23719789618701C102.85714285714286,70.23719789618701,102.85714285714286,70.23719789618701,102.85714285714286,70.23719789618701L0,70.23719789618701C0,70.23719789618701,0,70.23719789618701,0,70.23719789618701L0,6C0,2.688509853036,2.688509853036,0,6,0Z"/></clipPath><clipPath id="clip11"><path d="M6,0L96.85714285714286,0C100.16863300410687,0,102.85714285714286,2.688509853036,102.85714285714286,6L102.85714285714286,79.5518987453147C102.85714285714286,79.5518987453147,102.85714285714286,79.5518987453147,102.85714285714286,79.5518987453147L0,79.5518987453147C0,79.5518987453147,0,79.5518987453147,0,79.5518987453147L0,6C0,2.688509853036,2.688509853036,0,6,0Z"/></clipPath><clipPath id="clip12"><path d="M6,0L96.85714285714286,0C100.16863300410687,0,102.85714285714286,2.688509853036,102.85714285714286,6L102.85714285714286,96.61141378756895C102.85714285714286,96.61141378756895,102.85714285714286,96.61141378756895,102.85714285714286,96.61141378756895L0,96.61141378756895C0,96.61141378756895,0,96.61141378756895,0,96.61141378756895L0,6C0,2.688509853036,2.688509853036,0,6,0Z"/></clipPath><clipPath id="clip13"><path d="M6,0L96.85714285714286,0C100.16863300410687,0,102.85714285714286,2.688509853036,102.85714285714286,6L102.85714285714286,277.43857001665464C102.85714285714286,277.43857001665464,102.85714285714286,277.43857001665464,102.85714285714286,277.43857001665464L0,277.43857001665464C0,277.43857001665464,0,277.43857001665464,0,277.43857001665464L0,6C0,2.688509853036,2.688509853036,0,6,0Z"/></clipPath><clipPath id="clip14"><path d="M6,0L96.85714285714286,0C100.16863300410687,0,102.85714285714286,2.688509853036,102.85714285714286,6L102.85714285714286,295.62857786903817C102.85714285714286,295.62857786903817,102.85714285714286,295.62857786903817,102.85714285714286,295.62857786903817L0,295.62857786903817C0,295.62857786903817,0,295.62857786903817,0,295.62857786903817L0,6C0,2.688509853036,2.688509853036,0,6,0Z"/></clipPath><clipPath id="clip15"><path d="M6,0L96.85714285714286,0C100.16863300410687,0,102.85714285714286,2.688509853036,102.85714285714286,6L102.85714285714286,422.3256099457128C102.85714285714286,422.3256099457128,102.85714285714286,422.3256099457128,102.85714285714286,422.3256099457128L0,422.3256099457128C0,422.3256099457128,0,422.3256099457128,0,422.3256099457128L0,6C0,2.688509853036,2.688509853036,0,6,0Z"/></clipPath><clipPath id="clip16"><path d="M6,0L96.85714285714286,0C100.16863300410687,0,102.85714285714286,2.688509853036,102.85714285714286,6L102.85714285714286,576.9230769230769C102.85714285714286,576.9230769230769,102.85714285714286,576.9230769230769,102.85714285714286,576.9230769230769L0,576.9230769230769C0,576.9230769230769,0,576.9230769230769,0,576.9230769230769L0,6C0,2.688509853036,2.688509853036,0,6,0Z"/></clipPath></defs></svg>