<svg xmlns="http://www.w3.org/2000/svg" xmlns:xlink="http://www.w3.org/1999/xlink" version="1.1" class="marks" width="846" height="687" viewBox="0 0 846 687"><rect width="846" height="687" fill="white"/><g fill="none" stroke-miterlimit="10" transform="translate(41,36)"><g class="mark-group role-frame root" role="graphics-object" aria-roledescription="group mark container"><g transform="translate(0,0)"><path class="background" aria-hidden="true" d="M0.5,0.5h800v600h-800Z" stroke="#ddd"/><g><g class="mark-group role-axis" role="graphics-symbol" aria-roledescription="axis" aria-label="X-axis titled 'Parser' for a discrete scale with 7 values: rtoml&#xA;0.13.0, toml_rs&#xA;0.3.16, pytomlpp&#xA;1.1.0, toml&#xA;0.10.2, tomli-w&#xA;1.2.0, qtoml&#xA;0.3.1, tomlkit&#xA;0.15.0"><g transform="translate(0.5,600.5)"><path class="background" aria-hidden="true" d="M0,0h0v0h0Z" pointer-events="none"/><g><g class="mark-rule role-axis-tick" pointer-events="none"><line transform="translate(57,0)" x2="0" y2="5" stroke="#888" stroke-width="1" opacity="1"/><line transform="translate(171,0)" x2="0" y2="5" stroke="#888" stroke-width="1" opacity="1"/><line transform="translate(285,0)" x2="0" y2="5" stroke="#888" stroke-width="1" opacity="1"/><line transform="translate(400,0)" x2="0" y2="5" stroke="#888" stroke-width="1" opacity="1"/><line transform="translate(514,0)" x2="0" y2="5" stroke="#888" stroke-width="1" opacity="1"/><line transform="translate(628,0)" x2="0" y2="5" stroke="#888" stroke-width="1" opacity="1"/><line transform="translate(742,0)" x2="0" y2="5" stroke="#888" stroke-width="1" opacity="1"/></g><g class="mark-text role-axis-label" pointer-events="none"><text text-anchor="middle" transform="translate(56.642857142857096,15)" font-family="sans-serif" font-size="10px" fill="#000" opacity="1"><tspan>rtoml</tspan><tspan x="0" dy="14">0.13.0</tspan></text><text text-anchor="middle" transform="translate(170.9285714285714,15)" font-family="sans-serif" font-size="10px" fill="#000" opacity="1"><tspan>toml_rs</tspan><tspan x="0" dy="14">0.3.16</tspan></text><text text-anchor="middle" transform="translate(285.21428571428567,15)" font-family="sans-serif" font-size="10px" fill="#000" opacity="1"><tspan>pytomlpp</tspan><tspan x="0" dy="14">1.1.0</tspan></text><text text-anchor="middle" transform="translate(399.5,15)" font-family="sans-serif" font-size="10px" fill="#000" opacity="1"><tspan>toml</tspan><tspan x="0" dy="14">0.10.2</tspan></text><text text-anchor="middle" transform="translate(513.7857142857142,15)" font-family="sans-serif" font-size="10px" fill="#000" opacity="1"><tspan>tomli-w</tspan><tspan x="0" dy="14">1.2.0</tspan></text><text text-anchor="middle" transform="translate(628.0714285714286,15)" font-family="sans-serif" font-size="10px" fill="#000" opacity="1"><tspan>qtoml</tspan><tspan x="0" dy="14">0.3.1</tspan></text><text text-anchor="middle" transform="translate(742.3571428571429,15)" font-family="sans-serif" font-size="10px" fill="#000" opacity="1"><tspan>tomlkit</tspan><tspan x="0" dy="14">0.15.0</tspan></text></g><g class="mark-rule role-axis-domain" pointer-events="none"><line transform="translate(0,0)" x2="800" y2="0" stroke="#888" stroke-width="1" opacity="1"/></g><g class="mark-text role-axis-title" pointer-events="none"><text text-anchor="middle" transform="translate(400,44)" font-family="sans-serif" font-size="11px" font-weight="bold" fill="#000" opacity="1">Parser</text></g></g><path class="foreground" aria-hidden="true" d="" pointer-events="none" display="none"/></g></g><g class="mark-group role-axis" role="graphics-symbol" aria-roledescription="axis" aria-label="Y-axis titled 'Execution Time (seconds, lower=better)' for a linear scale with values from 0.0 to 2.5"><g transform="translate(0.5,0.5)"><path class="background" aria-hidden="true" d="M0,0h0v0h0Z" pointer-events="none"/><g><g class="mark-rule role-axis-tick" pointer-events="none"><line transform="translate(0,600)" x2="-5" y2="0" stroke="#888" stroke-width="1" opacity="1"/><line transform="translate(0,552)" x2="-5" y2="0" stroke="#888" stroke-width="1" opacity="1"/><line transform="translate(0,505)" x2="-5" y2="0" stroke="#888" stroke-width="1" opacity="1"/><line transform="translate(0,457)" x2="-5" y2="0" stroke="#888" stroke-width="1" opacity="1"/><line transform="translate(0,410)" x2="-5" y2="0" stroke="#888" stroke-width="1" opacity="1"/><line transform="translate(0,362)" x2="-5" y2="0" stroke="#888" stroke-width="1" opacity="1"/><line transform="translate(0,315)" x2="-5" y2="0" stroke="#888" stroke-width="1" opacity="1"/><line transform="translate(0,267)" x2="-5" y2="0" stroke="#888" stroke-width="1" opacity="1"/><line transform="translate(0,220)" x2="-5" y2="0" stroke="#888" stroke-width="1" opacity="1"/><line transform="translate(0,172)" x2="-5" y2="0" stroke="#888" stroke-width="1" opacity="1"/><line transform="translate(0,124)" x2="-5" y2="0" stroke="#888" stroke-width="1" opacity="1"/><line transform="translate(0,77)" x2="-5" y2="0" stroke="#888" stroke-width="1" opacity="1"/><line transform="translate(0,29)" x2="-5" y2="0" stroke="#888" stroke-width="1" opacity="1"/></g><g class="mark-text role-axis-label" pointer-events="none"><text text-anchor="end" transform="translate(-7,603)" font-family="sans-serif" font-size="10px" fill="#000" opacity="1">0.0</text><text text-anchor="end" transform="translate(-7,555.4400550848651)" font-family="sans-serif" font-size="10px" fill="#000" opacity="1">0.2</text><text text-anchor="end" transform="translate(-7,507.88011016973024)" font-family="sans-serif" font-size="10px" fill="#000" opacity="1">0.4</text><text text-anchor="end" transform="translate(-7,460.32016525459534)" font-family="sans-serif" font-size="10px" fill="#000" opacity="1">0.6</text><text text-anchor="end" transform="translate(-7,412.76022033946043)" font-family="sans-serif" font-size="10px" fill="#000" opacity="1">0.8</text><text text-anchor="end" transform="translate(-7,365.2002754243256)" font-family="sans-serif" font-size="10px" fill="#000" opacity="1">1.0</text><text text-anchor="end" transform="translate(-7,317.6403305091907)" font-family="sans-serif" font-size="10px" fill="#000" opacity="1">1.2</text><text text-anchor="end" transform="translate(-7,270.08038559405577)" font-family="sans-serif" font-size="10px" fill="#000" opacity="1">1.4</text><text text-anchor="end" transform="translate(-7,222.52044067892083)" font-family="sans-serif" font-size="10px" fill="#000" opacity="1">1.6</text><text text-anchor="end" transform="translate(-7,174.96049576378593)" font-family="sans-serif" font-size="10px" fill="#000" opacity="1">1.8</text><text text-anchor="end" transform="translate(-7,127.40055084865105)" font-family="sans-serif" font-size="10px" fill="#000" opacity="1">2.0</text><text text-anchor="end" transform="translate(-7,79.84060593351609)" font-family="sans-serif" font-size="10px" fill="#000" opacity="1">2.2</text><text text-anchor="end" transform="translate(-7,32.28066101838127)" font-family="sans-serif" font-size="10px" fill="#000" opacity="1">2.4</text></g><g class="mark-rule role-axis-domain" pointer-events="none"><line transform="translate(0,600)" x2="0" y2="-600" stroke="#888" stroke-width="1" opacity="1"/></g><g class="mark-text role-axis-title" pointer-events="none"><text text-anchor="middle" transform="translate(-24.9013671875,300) rotate(-90) translate(0,-2)" font-family="sans-serif" font-size="11px" font-weight="bold" fill="#000" opacity="1">Execution Time (seconds, lower=better)</text></g></g><path class="foreground" aria-hidden="true" d="" pointer-events="none" display="none"/></g></g><g class="mark-group role-scope" role="graphics-object" aria-roledescription="group mark container"><g transform="translate(5.714285714285666,592.1403138920429)"><path class="background" aria-hidden="true" d="M3.9298430539785727,0L98.92729980316429,0C101.09623922855845,0,102.85714285714286,1.760903628584413,102.85714285714286,3.9298430539785727L102.85714285714286,7.859686107957145C102.85714285714286,7.859686107957145,102.85714285714286,7.859686107957145,102.85714285714286,7.859686107957145L0,7.859686107957145C0,7.859686107957145,0,7.859686107957145,0,7.859686107957145L0,3.9298430539785727C0,1.760903628584413,1.760903628584413,0,3.9298430539785727,0Z"/><g clip-path="url(#clip8)"><g class="mark-group role-scope" role="graphics-object" aria-roledescription="group mark container"><g transform="translate(0,-592.1403138920429)"><path class="background" aria-hidden="true" d="M0,0h102.85714285714286v0h-102.85714285714286Z"/><g><g class="mark-rect role-mark layer_0_marks" role="graphics-object" aria-roledescription="rect mark container"><path aria-label="Parser: rtoml&#xA;0.13.0; Execution Time (seconds, lower=better): 0.033051704; parser: rtoml; Execution Time (s): 0.0331; Slowdown: 1.00" role="graphics-symbol" aria-roledescription="bar" d="M0,592.1403138920429h102.85714285714286v7.859686107957145h-102.85714285714286Z" fill="#7570b3"/></g></g><path class="foreground" aria-hidden="true" d="" display="none"/></g></g></g><path class="foreground" aria-hidden="true" d="" display="none"/></g><g transform="translate(119.99999999999996,590.6873052589469)"><path class="background" aria-hidden="true" d="M4.656347370526532,0L98.20079548661633,0C100.77070355967305,0,102.85714285714286,2.0864392974698087,102.85714285714286,4.656347370526532L102.85714285714286,9.312694741053065C102.85714285714286,9.312694741053065,102.85714285714286,9.312694741053065,102.85714285714286,9.312694741053065L0,9.312694741053065C0,9.312694741053065,0,9.312694741053065,0,9.312694741053065L0,4.656347370526532C0,2.0864392974698087,2.0864392974698087,0,4.656347370526532,0Z"/><g clip-path="url(#clip9)"><g class="mark-group role-scope" role="graphics-object" aria-roledescription="group mark container"><g transform="translate(0,-590.6873052589469)"><path class="background" aria-hidden="true" d="M0,0h102.85714285714286v0h-102.85714285714286Z"/><g><g class="mark-rect role-mark layer_0_marks" role="graphics-object" aria-roledescription="rect mark container"><path aria-label="Parser: toml_rs&#xA;0.3.16; Execution Time (seconds, lower=better): 0.039161924; parser: toml_rs; Execution Time (s): 0.0392; Slowdown: 1.18" role="graphics-symbol" aria-roledescription="bar" d="M0,590.6873052589469h102.85714285714286v9.312694741053065h-102.85714285714286Z" fill="#66a61e"/></g></g><path class="foreground" aria-hidden="true" d="" display="none"/></g></g></g><path class="foreground" aria-hidden="true" d="" display="none"/></g><g transform="translate(234.28571428571425,587.972086363968)"><path class="background" aria-hidden="true" d="M6,0L96.85714285714286,0C100.16863300410687,0,102.85714285714286,2.688509853036,102.85714285714286,6L102.85714285714286,12.027913636032054C102.85714285714286,12.027913636032054,102.85714285714286,12.027913636032054,102.85714285714286,12.027913636032054L0,12.027913636032054C0,12.027913636032054,0,12.027913636032054,0,12.027913636032054L0,6C0,2.688509853036,2.688509853036,0,6,0Z"/><g clip-path="url(#clip10)"><g class="mark-group role-scope" role="graphics-object" aria-roledescription="group mark container"><g transform="translate(0,-587.972086363968)"><path class="background" aria-hidden="true" d="M0,0h102.85714285714286v0h-102.85714285714286Z"/><g><g class="mark-rect role-mark layer_0_marks" role="graphics-object" aria-roledescription="rect mark container"><path aria-label="Parser: pytomlpp&#xA;1.1.0; Execution Time (seconds, lower=better): 0.050580015; parser: pytomlpp; Execution Time (s): 0.0506; Slowdown: 1.53" role="graphics-symbol" aria-roledescription="bar" d="M0,587.972086363968h102.85714285714286v12.027913636032054h-102.85714285714286Z" fill="#1b9e77"/></g></g><path class="foreground" aria-hidden="true" d="" display="none"/></g></g></g><path class="foreground" aria-hidden="true" d="" display="none"/></g><g transform="translate(348.57142857142856,571.9064561092945)"><path class="background" aria-hidden="true" d="M6,0L96.85714285714286,0C100.16863300410687,0,102.85714285714286,2.688509853036,102.85714285714286,6L102.85714285714286,28.09354389070552C102.85714285714286,28.09354389070552,102.85714285714286,28.09354389070552,102.85714285714286,28.09354389070552L0,28.09354389070552C0,28.09354389070552,0,28.09354389070552,0,28.09354389070552L0,6C0,2.688509853036,2.688509853036,0,6,0Z"/><g clip-path="url(#clip11)"><g class="mark-group role-scope" role="graphics-object" aria-roledescription="group mark container"><g transform="translate(0,-571.9064561092945)"><path class="background" aria-hidden="true" d="M0,0h102.85714285714286v0h-102.85714285714286Z"/><g><g class="mark-rect role-mark layer_0_marks" role="graphics-object" aria-roledescription="rect mark container"><path aria-label="Parser: toml&#xA;0.10.2; Execution Time (seconds, lower=better): 0.118139514; parser: toml; Execution Time (s): 0.1181; Slowdown: 3.57" role="graphics-symbol" aria-roledescription="bar" d="M0,571.9064561092945h102.85714285714286v28.09354389070552h-102.85714285714286Z" fill="#e7298a"/></g></g><path class="foreground" aria-hidden="true" d="" display="none"/></g></g></g><path class="foreground" aria-hidden="true" d="" display="none"/></g><g transform="translate(462.85714285714283,570.0280280493258)"><path class="background" aria-hidden="true" d="M6,0L96.85714285714286,0C100.16863300410687,0,102.85714285714286,2.688509853036,102.85714285714286,6L102.85714285714286,29.971971950674174C102.85714285714286,29.971971950674174,102.85714285714286,29.971971950674174,102.85714285714286,29.971971950674174L0,29.971971950674174C0,29.971971950674174,0,29.971971950674174,0,29.971971950674174L0,6C0,2.688509853036,2.688509853036,0,6,0Z"/><g clip-path="url(#clip12)"><g class="mark-group role-scope" role="graphics-object" aria-roledescription="group mark container"><g transform="translate(0,-570.0280280493258)"><path class="background" aria-hidden="true" d="M0,0h102.85714285714286v0h-102.85714285714286Z"/><g><g class="mark-rect role-mark layer_0_marks" role="graphics-object" aria-roledescription="rect mark container"><path aria-label="Parser: tomli-w&#xA;1.2.0; Execution Time (seconds, lower=better): 0.126038716; parser: tomli-w; Execution Time (s): 0.1260; Slowdown: 3.81" role="graphics-symbol" aria-roledescription="bar" d="M0,570.0280280493258h102.85714285714286v29.971971950674174h-102.85714285714286Z" fill="#e6ab02"/></g></g><path class="foreground" aria-hidden="true" d="" display="none"/></g></g></g><path class="foreground" aria-hidden="true" d="" display="none"/></g><g transform="translate(577.1428571428571,525.4891257917644)"><path class="background" aria-hidden="true" d="M6,0L96.85714285714286,0C100.16863300410687,0,102.85714285714286,2.688509853036,102.85714285714286,6L102.85714285714286,74.51087420823558C102.85714285714286,74.51087420823558,102.85714285714286,74.51087420823558,102.85714285714286,74.51087420823558L0,74.51087420823558C0,74.51087420823558,0,74.51087420823558,0,74.51087420823558L0,6C0,2.688509853036,2.688509853036,0,6,0Z"/><g clip-path="url(#clip13)"><g class="mark-group role-scope" role="graphics-object" aria-roledescription="group mark container"><g transform="translate(0,-525.4891257917644)"><path class="background" aria-hidden="true" d="M0,0h102.85714285714286v0h-102.85714285714286Z"/><g><g class="mark-rect role-mark layer_0_marks" role="graphics-object" aria-roledescription="rect mark container"><path aria-label="Parser: qtoml&#xA;0.3.1; Execution Time (seconds, lower=better): 0.313334569; parser: qtoml; Execution Time (s): 0.3133; Slowdown: 9.48" role="graphics-symbol" aria-roledescription="bar" d="M0,525.4891257917644h102.85714285714286v74.51087420823558h-102.85714285714286Z" fill="#d95f02"/></g></g><path class="foreground" aria-hidden="true" d="" display="none"/></g></g></g><path class="foreground" aria-hidden="true" d="" display="none"/></g><g transform="translate(691.4285714285714,28.571428571428605)"><path class="background" aria-hidden="true" d="M6,0L96.85714285714286,0C100.16863300410687,0,102.85714285714286,2.688509853036,102.85714285714286,6L102.85714285714286,571.4285714285714C102.85714285714286,571.4285714285714,102.85714285714286,571.4285714285714,102.85714285714286,571.4285714285714L0,571.4285714285714C0,571.4285714285714,0,571.4285714285714,0,571.4285714285714L0,6C0,2.688509853036,2.688509853036,0,6,0Z"/><g clip-path="url(#clip14)"><g class="mark-group role-scope" role="graphics-object" aria-roledescription="group mark container"><g transform="translate(0,-28.571428571428605)"><path class="background" aria-hidden="true" d="M0,0h102.85714285714286v0h-102.85714285714286Z"/><g><g class="mark-rect role-mark layer_0_marks" role="graphics-object" aria-roledescription="rect mark container"><path aria-label="Parser: tomlkit&#xA;0.15.0; Execution Time (seconds, lower=better): 2.402982478; parser: tomlkit; Execution Time (s): 2.4030; Slowdown: 72.70" role="graphics-symbol" aria-roledescription="bar" d="M0,28.571428571428605h102.85714285714286v571.4285714285714h-102.85714285714286Z" fill="#a6761d"/></g></g><path class="foreground" aria-hidden="true" d="" display="none"/></g></g></g><path class="foreground" aria-hidden="true" d="" display="none"/></g></g><g class="mark-text role-mark layer_1_marks" role="graphics-object" aria-roledescription="text mark container"><text aria-label="Parser: rtoml&#xA;0.13.0; Execution Time (seconds, lower=better): 0.033051704; parser: rtoml; label: 0.0331s (x1.00); Execution Time (s): 0.0331; Slowdown: 1.00" role="graphics-symbol" aria-roledescription="text mark" text-anchor="middle" transform="translate(57.142857142857096,588.1403138920429)" font-family="sans-serif" font-size="9px" font-weight="bold" fill="#7570b3">0.0331s (x1.00)</text><text aria-label="Parser: toml_rs&#xA;0.3.16; Execution Time (seconds, lower=better): 0.039161924; parser: toml_rs; label: 0.0392s (x1.18); Execution Time (s): 0.0392; Slowdown: 1.18" role="graphics-symbol" aria-roledescription="text mark" text-anchor="middle" transform="translate(171.4285714285714,586.6873052589469)" font-family="sans-serif" font-size="9px" font-weight="bold" fill="#66a61e">0.0392s (x1.18)</text><text aria-label="Parser: pytomlpp&#xA;1.1.0; Execution Time (seconds, lower=better): 0.050580015; parser: pytomlpp; label: 0.0506s (x1.53); Execution Time (s): 0.0506; Slowdown: 1.53" role="graphics-symbol" aria-roledescription="text mark" text-anchor="middle" transform="translate(285.71428571428567,583.972086363968)" font-family="sans-serif" font-size="9px" font-weight="bold" fill="#1b9e77">0.0506s (x1.53)</text><text aria-label="Parser: toml&#xA;0.10.2; Execution Time (seconds, lower=better): 0.118139514; parser: toml; label: 0.1181s (x3.57); Execution Time (s): 0.1181; Slowdown: 3.57" role="graphics-symbol" aria-roledescription="text mark" text-anchor="middle" transform="translate(400,567.9064561092945)" font-family="sans-serif" font-size="9px" font-weight="bold" fill="#e7298a">0.1181s (x3.57)</text><text aria-label="Parser: tomli-w&#xA;1.2.0; Execution Time (seconds, lower=better): 0.126038716; parser: tomli-w; label: 0.1260s (x3.81); Execution Time (s): 0.1260; Slowdown: 3.81" role="graphics-symbol" aria-roledescription="text mark" text-anchor="middle" transform="translate(514.2857142857142,566.0280280493258)" font-family="sans-serif" font-size="9px" font-weight="bold" fill="#e6ab02">0.1260s (x3.81)</text><text aria-label="Parser: qtoml&#xA;0.3.1; Execution Time (seconds, lower=better): 0.313334569; parser: qtoml; label: 0.3133s (x9.48); Execution Time (s): 0.3133; Slowdown: 9.48" role="graphics-symbol" aria-roledescription="text mark" text-anchor="middle" transform="translate(628.5714285714286,521.4891257917644)" font-family="sans-serif" font-size="9px" font-weight="bold" fill="#d95f02">0.3133s (x9.48)</text><text aria-label="Parser: tomlkit&#xA;0.15.0; Execution Time (seconds, lower=better): 2.402982478; parser: tomlkit; label: 2.4030s (x72.70); Execution Time (s): 2.4030; Slowdown: 72.70" role="graphics-symbol" aria-roledescription="text mark" text-anchor="middle" transform="translate(742.8571428571429,24.571428571428605)" font-family="sans-serif" font-size="9px" font-weight="bold" fill="#a6761d">2.4030s (x72.70)</text></g><g class="mark-group role-title"><g transform="translate(400,-31)"><path class="background" aria-hidden="true" d="M0,0h0v0h0Z" pointer-events="none"/><g><g class="mark-text role-title-text" role="graphics-symbol" aria-roledescription="title" aria-label="Title text 'TOML parsers benchmark (dumps)'" pointer-events="none"><text text-anchor="middle" transform="translate(0,10)" font-family="sans-serif" font-size="13px" font-weight="bold" fill="#000" opacity="1">TOML parsers benchmark (dumps)</text></g><g class="mark-text role-title-subtitle" role="graphics-symbol" aria-roledescription="subtitle" aria-label="Subtitle text 'Python: 3.14.6 (Linux 6.17.0-1018-azure) | CPU: AMD EPYC 7763 64-Core Processor'" pointer-events="none"><text text-anchor="middle" transform="translate(0,25)" font-family="sans-serif" font-size="12px" fill="#000" opacity="1">Python: 3.14.6 (Linux 6.17.0-1018-azure) | CPU: AMD EPYC 7763 64-Core Processor</text></g></g><path class="foreground" aria-hidden="true" d="" pointer-events="none" display="none"/></g></g></g><path class="foreground" aria-hidden="true" d="" display="none"/></g></g></g><defs><clipPath id="clip8"><path d="M3.9298430539785727,0L98.92729980316429,0C101.09623922855845,0,102.85714285714286,1.760903628584413,102.85714285714286,3.9298430539785727L102.85714285714286,7.859686107957145C102.85714285714286,7.859686107957145,102.85714285714286,7.859686107957145,102.85714285714286,7.859686107957145L0,7.859686107957145C0,7.859686107957145,0,7.859686107957145,0,7.859686107957145L0,3.9298430539785727C0,1.760903628584413,1.760903628584413,0,3.9298430539785727,0Z"/></clipPath><clipPath id="clip9"><path d="M4.656347370526532,0L98.20079548661633,0C100.77070355967305,0,102.85714285714286,2.0864392974698087,102.85714285714286,4.656347370526532L102.85714285714286,9.312694741053065C102.85714285714286,9.312694741053065,102.85714285714286,9.312694741053065,102.85714285714286,9.312694741053065L0,9.312694741053065C0,9.312694741053065,0,9.312694741053065,0,9.312694741053065L0,4.656347370526532C0,2.0864392974698087,2.0864392974698087,0,4.656347370526532,0Z"/></clipPath><clipPath id="clip10"><path d="M6,0L96.85714285714286,0C100.16863300410687,0,102.85714285714286,2.688509853036,102.85714285714286,6L102.85714285714286,12.027913636032054C102.85714285714286,12.027913636032054,102.85714285714286,12.027913636032054,102.85714285714286,12.027913636032054L0,12.027913636032054C0,12.027913636032054,0,12.027913636032054,0,12.027913636032054L0,6C0,2.688509853036,2.688509853036,0,6,0Z"/></clipPath><clipPath id="clip11"><path d="M6,0L96.85714285714286,0C100.16863300410687,0,102.85714285714286,2.688509853036,102.85714285714286,6L102.85714285714286,28.09354389070552C102.85714285714286,28.09354389070552,102.85714285714286,28.09354389070552,102.85714285714286,28.09354389070552L0,28.09354389070552C0,28.09354389070552,0,28.09354389070552,0,28.09354389070552L0,6C0,2.688509853036,2.688509853036,0,6,0Z"/></clipPath><clipPath id="clip12"><path d="M6,0L96.85714285714286,0C100.16863300410687,0,102.85714285714286,2.688509853036,102.85714285714286,6L102.85714285714286,29.971971950674174C102.85714285714286,29.971971950674174,102.85714285714286,29.971971950674174,102.85714285714286,29.971971950674174L0,29.971971950674174C0,29.971971950674174,0,29.971971950674174,0,29.971971950674174L0,6C0,2.688509853036,2.688509853036,0,6,0Z"/></clipPath><clipPath id="clip13"><path d="M6,0L96.85714285714286,0C100.16863300410687,0,102.85714285714286,2.688509853036,102.85714285714286,6L102.85714285714286,74.51087420823558C102.85714285714286,74.51087420823558,102.85714285714286,74.51087420823558,102.85714285714286,74.51087420823558L0,74.51087420823558C0,74.51087420823558,0,74.51087420823558,0,74.51087420823558L0,6C0,2.688509853036,2.688509853036,0,6,0Z"/></clipPath><clipPath id="clip14"><path d="M6,0L96.85714285714286,0C100.16863300410687,0,102.85714285714286,2.688509853036,102.85714285714286,6L102.85714285714286,571.4285714285714C102.85714285714286,571.4285714285714,102.85714285714286,571.4285714285714,102.85714285714286,571.4285714285714L0,571.4285714285714C0,571.4285714285714,0,571.4285714285714,0,571.4285714285714L0,6C0,2.688509853036,2.688509853036,0,6,0Z"/></clipPath></defs></svg>