<svg xmlns="http://www.w3.org/2000/svg" xmlns:xlink="http://www.w3.org/1999/xlink" version="1.1" class="marks" width="846" height="687" viewBox="0 0 846 687"><rect width="846" height="687" fill="white"/><g fill="none" stroke-miterlimit="10" transform="translate(41,36)"><g class="mark-group role-frame root" role="graphics-object" aria-roledescription="group mark container"><g transform="translate(0,0)"><path class="background" aria-hidden="true" d="M0.5,0.5h800v600h-800Z" stroke="#ddd"/><g><g class="mark-group role-axis" role="graphics-symbol" aria-roledescription="axis" aria-label="X-axis titled 'Parser' for a discrete scale with 7 values: toml_rs&#xA;0.3.16, rtoml&#xA;0.13.0, pytomlpp&#xA;1.1.0, tomllib&#xA;built-in, toml&#xA;0.10.2, qtoml&#xA;0.3.1, tomlkit&#xA;0.15.0"><g transform="translate(0.5,600.5)"><path class="background" aria-hidden="true" d="M0,0h0v0h0Z" pointer-events="none"/><g><g class="mark-rule role-axis-tick" pointer-events="none"><line transform="translate(57,0)" x2="0" y2="5" stroke="#888" stroke-width="1" opacity="1"/><line transform="translate(171,0)" x2="0" y2="5" stroke="#888" stroke-width="1" opacity="1"/><line transform="translate(285,0)" x2="0" y2="5" stroke="#888" stroke-width="1" opacity="1"/><line transform="translate(400,0)" x2="0" y2="5" stroke="#888" stroke-width="1" opacity="1"/><line transform="translate(514,0)" x2="0" y2="5" stroke="#888" stroke-width="1" opacity="1"/><line transform="translate(628,0)" x2="0" y2="5" stroke="#888" stroke-width="1" opacity="1"/><line transform="translate(742,0)" x2="0" y2="5" stroke="#888" stroke-width="1" opacity="1"/></g><g class="mark-text role-axis-label" pointer-events="none"><text text-anchor="middle" transform="translate(56.642857142857096,15)" font-family="sans-serif" font-size="10px" fill="#000" opacity="1"><tspan>toml_rs</tspan><tspan x="0" dy="14">0.3.16</tspan></text><text text-anchor="middle" transform="translate(170.9285714285714,15)" font-family="sans-serif" font-size="10px" fill="#000" opacity="1"><tspan>rtoml</tspan><tspan x="0" dy="14">0.13.0</tspan></text><text text-anchor="middle" transform="translate(285.21428571428567,15)" font-family="sans-serif" font-size="10px" fill="#000" opacity="1"><tspan>pytomlpp</tspan><tspan x="0" dy="14">1.1.0</tspan></text><text text-anchor="middle" transform="translate(399.5,15)" font-family="sans-serif" font-size="10px" fill="#000" opacity="1"><tspan>tomllib</tspan><tspan x="0" dy="14">built-in</tspan></text><text text-anchor="middle" transform="translate(513.7857142857142,15)" font-family="sans-serif" font-size="10px" fill="#000" opacity="1"><tspan>toml</tspan><tspan x="0" dy="14">0.10.2</tspan></text><text text-anchor="middle" transform="translate(628.0714285714286,15)" font-family="sans-serif" font-size="10px" fill="#000" opacity="1"><tspan>qtoml</tspan><tspan x="0" dy="14">0.3.1</tspan></text><text text-anchor="middle" transform="translate(742.3571428571429,15)" font-family="sans-serif" font-size="10px" fill="#000" opacity="1"><tspan>tomlkit</tspan><tspan x="0" dy="14">0.15.0</tspan></text></g><g class="mark-rule role-axis-domain" pointer-events="none"><line transform="translate(0,0)" x2="800" y2="0" stroke="#888" stroke-width="1" opacity="1"/></g><g class="mark-text role-axis-title" pointer-events="none"><text text-anchor="middle" transform="translate(400,44)" font-family="sans-serif" font-size="11px" font-weight="bold" fill="#000" opacity="1">Parser</text></g></g><path class="foreground" aria-hidden="true" d="" pointer-events="none" display="none"/></g></g><g class="mark-group role-axis" role="graphics-symbol" aria-roledescription="axis" aria-label="Y-axis titled 'Execution Time (seconds, lower=better)' for a linear scale with values from 0 to 6"><g transform="translate(0.5,0.5)"><path class="background" aria-hidden="true" d="M0,0h0v0h0Z" pointer-events="none"/><g><g class="mark-rule role-axis-tick" pointer-events="none"><line transform="translate(0,600)" x2="-5" y2="0" stroke="#888" stroke-width="1" opacity="1"/><line transform="translate(0,549)" x2="-5" y2="0" stroke="#888" stroke-width="1" opacity="1"/><line transform="translate(0,498)" x2="-5" y2="0" stroke="#888" stroke-width="1" opacity="1"/><line transform="translate(0,446)" x2="-5" y2="0" stroke="#888" stroke-width="1" opacity="1"/><line transform="translate(0,395)" x2="-5" y2="0" stroke="#888" stroke-width="1" opacity="1"/><line transform="translate(0,344)" x2="-5" y2="0" stroke="#888" stroke-width="1" opacity="1"/><line transform="translate(0,293)" x2="-5" y2="0" stroke="#888" stroke-width="1" opacity="1"/><line transform="translate(0,242)" x2="-5" y2="0" stroke="#888" stroke-width="1" opacity="1"/><line transform="translate(0,191)" x2="-5" y2="0" stroke="#888" stroke-width="1" opacity="1"/><line transform="translate(0,139)" x2="-5" y2="0" stroke="#888" stroke-width="1" opacity="1"/><line transform="translate(0,88)" x2="-5" y2="0" stroke="#888" stroke-width="1" opacity="1"/><line transform="translate(0,37)" x2="-5" y2="0" stroke="#888" stroke-width="1" opacity="1"/></g><g class="mark-text role-axis-label" pointer-events="none"><text text-anchor="end" transform="translate(-7,603)" font-family="sans-serif" font-size="10px" fill="#000" opacity="1">0.0</text><text text-anchor="end" transform="translate(-7,551.8305988761425)" font-family="sans-serif" font-size="10px" fill="#000" opacity="1">0.5</text><text text-anchor="end" transform="translate(-7,500.66119775228503)" font-family="sans-serif" font-size="10px" fill="#000" opacity="1">1.0</text><text text-anchor="end" transform="translate(-7,449.49179662842755)" font-family="sans-serif" font-size="10px" fill="#000" opacity="1">1.5</text><text text-anchor="end" transform="translate(-7,398.32239550457007)" font-family="sans-serif" font-size="10px" fill="#000" opacity="1">2.0</text><text text-anchor="end" transform="translate(-7,347.1529943807126)" font-family="sans-serif" font-size="10px" fill="#000" opacity="1">2.5</text><text text-anchor="end" transform="translate(-7,295.9835932568551)" font-family="sans-serif" font-size="10px" fill="#000" opacity="1">3.0</text><text text-anchor="end" transform="translate(-7,244.81419213299762)" font-family="sans-serif" font-size="10px" fill="#000" opacity="1">3.5</text><text text-anchor="end" transform="translate(-7,193.64479100914014)" font-family="sans-serif" font-size="10px" fill="#000" opacity="1">4.0</text><text text-anchor="end" transform="translate(-7,142.47538988528265)" font-family="sans-serif" font-size="10px" fill="#000" opacity="1">4.5</text><text text-anchor="end" transform="translate(-7,91.30598876142517)" font-family="sans-serif" font-size="10px" fill="#000" opacity="1">5.0</text><text text-anchor="end" transform="translate(-7,40.136587637567686)" font-family="sans-serif" font-size="10px" fill="#000" opacity="1">5.5</text></g><g class="mark-rule role-axis-domain" pointer-events="none"><line transform="translate(0,600)" x2="0" y2="-600" stroke="#888" stroke-width="1" opacity="1"/></g><g class="mark-text role-axis-title" pointer-events="none"><text text-anchor="middle" transform="translate(-24.9013671875,300) rotate(-90) translate(0,-2)" font-family="sans-serif" font-size="11px" font-weight="bold" fill="#000" opacity="1">Execution Time (seconds, lower=better)</text></g></g><path class="foreground" aria-hidden="true" d="" pointer-events="none" display="none"/></g></g><g class="mark-group role-scope" role="graphics-object" aria-roledescription="group mark container"><g transform="translate(5.714285714285666,597.532820351301)"><path class="background" aria-hidden="true" d="M1.233589824349508,0L101.62355303279335,0C102.30438979091475,0,102.85714285714286,0.5527530662281002,102.85714285714286,1.233589824349508L102.85714285714286,2.467179648699016C102.85714285714286,2.467179648699016,102.85714285714286,2.467179648699016,102.85714285714286,2.467179648699016L0,2.467179648699016C0,2.467179648699016,0,2.467179648699016,0,2.467179648699016L0,1.233589824349508C0,0.5527530662281002,0.5527530662281002,0,1.233589824349508,0Z"/><g clip-path="url(#clip1)"><g class="mark-group role-scope" role="graphics-object" aria-roledescription="group mark container"><g transform="translate(0,-597.532820351301)"><path class="background" aria-hidden="true" d="M0,0h102.85714285714286v0h-102.85714285714286Z"/><g><g class="mark-rect role-mark layer_0_marks" role="graphics-object" aria-roledescription="rect mark container"><path aria-label="Parser: toml_rs&#xA;0.3.16; Execution Time (seconds, lower=better): 0.024107959; parser: toml_rs; Execution Time (s): 0.0241; Slowdown: 1.00" role="graphics-symbol" aria-roledescription="bar" d="M0,597.532820351301h102.85714285714286v2.467179648699016h-102.85714285714286Z" fill="#66a61e"/></g></g><path class="foreground" aria-hidden="true" d="" display="none"/></g></g></g><path class="foreground" aria-hidden="true" d="" display="none"/></g><g transform="translate(119.99999999999996,593.7731066448196)"><path class="background" aria-hidden="true" d="M3.1134466775902183,0L99.74369617955264,0C101.4620541788756,0,102.85714285714286,1.39508867826725,102.85714285714286,3.1134466775902183L102.85714285714286,6.226893355180437C102.85714285714286,6.226893355180437,102.85714285714286,6.226893355180437,102.85714285714286,6.226893355180437L0,6.226893355180437C0,6.226893355180437,0,6.226893355180437,0,6.226893355180437L0,3.1134466775902183C0,1.39508867826725,1.39508867826725,0,3.1134466775902183,0Z"/><g clip-path="url(#clip2)"><g class="mark-group role-scope" role="graphics-object" aria-roledescription="group mark container"><g transform="translate(0,-593.7731066448196)"><path class="background" aria-hidden="true" d="M0,0h102.85714285714286v0h-102.85714285714286Z"/><g><g class="mark-rect role-mark layer_0_marks" role="graphics-object" aria-roledescription="rect mark container"><path aria-label="Parser: rtoml&#xA;0.13.0; Execution Time (seconds, lower=better): 0.060845869; parser: rtoml; Execution Time (s): 0.0608; Slowdown: 2.52" role="graphics-symbol" aria-roledescription="bar" d="M0,593.7731066448196h102.85714285714286v6.226893355180437h-102.85714285714286Z" fill="#7570b3"/></g></g><path class="foreground" aria-hidden="true" d="" display="none"/></g></g></g><path class="foreground" aria-hidden="true" d="" display="none"/></g><g transform="translate(234.28571428571425,591.4236519255935)"><path class="background" aria-hidden="true" d="M4.288174037203248,0L98.56896881993961,0C100.93567649871719,0,102.85714285714286,1.9214663584256826,102.85714285714286,4.288174037203248L102.85714285714286,8.576348074406496C102.85714285714286,8.576348074406496,102.85714285714286,8.576348074406496,102.85714285714286,8.576348074406496L0,8.576348074406496C0,8.576348074406496,0,8.576348074406496,0,8.576348074406496L0,4.288174037203248C0,1.9214663584256826,1.9214663584256826,0,4.288174037203248,0Z"/><g clip-path="url(#clip3)"><g class="mark-group role-scope" role="graphics-object" aria-roledescription="group mark container"><g transform="translate(0,-591.4236519255935)"><path class="background" aria-hidden="true" d="M0,0h102.85714285714286v0h-102.85714285714286Z"/><g><g class="mark-rect role-mark layer_0_marks" role="graphics-object" aria-roledescription="rect mark container"><path aria-label="Parser: pytomlpp&#xA;1.1.0; Execution Time (seconds, lower=better): 0.083803483; parser: pytomlpp; Execution Time (s): 0.0838; Slowdown: 3.48" role="graphics-symbol" aria-roledescription="bar" d="M0,591.4236519255935h102.85714285714286v8.576348074406496h-102.85714285714286Z" fill="#1b9e77"/></g></g><path class="foreground" aria-hidden="true" d="" display="none"/></g></g></g><path class="foreground" aria-hidden="true" d="" display="none"/></g><g transform="translate(348.57142857142856,579.3342003570492)"><path class="background" aria-hidden="true" d="M6,0L96.85714285714286,0C100.16863300410687,0,102.85714285714286,2.688509853036,102.85714285714286,6L102.85714285714286,20.665799642950788C102.85714285714286,20.665799642950788,102.85714285714286,20.665799642950788,102.85714285714286,20.665799642950788L0,20.665799642950788C0,20.665799642950788,0,20.665799642950788,0,20.665799642950788L0,6C0,2.688509853036,2.688509853036,0,6,0Z"/><g clip-path="url(#clip4)"><g class="mark-group role-scope" role="graphics-object" aria-roledescription="group mark container"><g transform="translate(0,-579.3342003570492)"><path class="background" aria-hidden="true" d="M0,0h102.85714285714286v0h-102.85714285714286Z"/><g><g class="mark-rect role-mark layer_0_marks" role="graphics-object" aria-roledescription="rect mark container"><path aria-label="Parser: tomllib&#xA;built-in; Execution Time (seconds, lower=better): 0.201935133; parser: tomllib; Execution Time (s): 0.2019; Slowdown: 8.38" role="graphics-symbol" aria-roledescription="bar" d="M0,579.3342003570492h102.85714285714286v20.665799642950788h-102.85714285714286Z" fill="#a6761d"/></g></g><path class="foreground" aria-hidden="true" d="" display="none"/></g></g></g><path class="foreground" aria-hidden="true" d="" display="none"/></g><g transform="translate(462.85714285714283,523.2555750619985)"><path class="background" aria-hidden="true" d="M6,0L96.85714285714286,0C100.16863300410687,0,102.85714285714286,2.688509853036,102.85714285714286,6L102.85714285714286,76.74442493800154C102.85714285714286,76.74442493800154,102.85714285714286,76.74442493800154,102.85714285714286,76.74442493800154L0,76.74442493800154C0,76.74442493800154,0,76.74442493800154,0,76.74442493800154L0,6C0,2.688509853036,2.688509853036,0,6,0Z"/><g clip-path="url(#clip5)"><g class="mark-group role-scope" role="graphics-object" aria-roledescription="group mark container"><g transform="translate(0,-523.2555750619985)"><path class="background" aria-hidden="true" d="M0,0h102.85714285714286v0h-102.85714285714286Z"/><g><g class="mark-rect role-mark layer_0_marks" role="graphics-object" aria-roledescription="rect mark container"><path aria-label="Parser: toml&#xA;0.10.2; Execution Time (seconds, lower=better): 0.749905444; parser: toml; Execution Time (s): 0.7499; Slowdown: 31.11" role="graphics-symbol" aria-roledescription="bar" d="M0,523.2555750619985h102.85714285714286v76.74442493800154h-102.85714285714286Z" fill="#e7298a"/></g></g><path class="foreground" aria-hidden="true" d="" display="none"/></g></g></g><path class="foreground" aria-hidden="true" d="" display="none"/></g><g transform="translate(577.1428571428571,510.29870758335045)"><path class="background" aria-hidden="true" d="M6,0L96.85714285714286,0C100.16863300410687,0,102.85714285714286,2.688509853036,102.85714285714286,6L102.85714285714286,89.70129241664955C102.85714285714286,89.70129241664955,102.85714285714286,89.70129241664955,102.85714285714286,89.70129241664955L0,89.70129241664955C0,89.70129241664955,0,89.70129241664955,0,89.70129241664955L0,6C0,2.688509853036,2.688509853036,0,6,0Z"/><g clip-path="url(#clip6)"><g class="mark-group role-scope" role="graphics-object" aria-roledescription="group mark container"><g transform="translate(0,-510.29870758335045)"><path class="background" aria-hidden="true" d="M0,0h102.85714285714286v0h-102.85714285714286Z"/><g><g class="mark-rect role-mark layer_0_marks" role="graphics-object" aria-roledescription="rect mark container"><path aria-label="Parser: qtoml&#xA;0.3.1; Execution Time (seconds, lower=better): 0.876513018; parser: qtoml; Execution Time (s): 0.8765; Slowdown: 36.36" role="graphics-symbol" aria-roledescription="bar" d="M0,510.29870758335045h102.85714285714286v89.70129241664955h-102.85714285714286Z" fill="#d95f02"/></g></g><path class="foreground" aria-hidden="true" d="" display="none"/></g></g></g><path class="foreground" aria-hidden="true" d="" display="none"/></g><g transform="translate(691.4285714285714,28.571428571428605)"><path class="background" aria-hidden="true" d="M6,0L96.85714285714286,0C100.16863300410687,0,102.85714285714286,2.688509853036,102.85714285714286,6L102.85714285714286,571.4285714285714C102.85714285714286,571.4285714285714,102.85714285714286,571.4285714285714,102.85714285714286,571.4285714285714L0,571.4285714285714C0,571.4285714285714,0,571.4285714285714,0,571.4285714285714L0,6C0,2.688509853036,2.688509853036,0,6,0Z"/><g clip-path="url(#clip7)"><g class="mark-group role-scope" role="graphics-object" aria-roledescription="group mark container"><g transform="translate(0,-28.571428571428605)"><path class="background" aria-hidden="true" d="M0,0h102.85714285714286v0h-102.85714285714286Z"/><g><g class="mark-rect role-mark layer_0_marks" role="graphics-object" aria-roledescription="rect mark container"><path aria-label="Parser: tomlkit&#xA;0.15.0; Execution Time (seconds, lower=better): 5.58369415; parser: tomlkit; Execution Time (s): 5.5837; Slowdown: 231.61" role="graphics-symbol" aria-roledescription="bar" d="M0,28.571428571428605h102.85714285714286v571.4285714285714h-102.85714285714286Z" fill="#e6ab02"/></g></g><path class="foreground" aria-hidden="true" d="" display="none"/></g></g></g><path class="foreground" aria-hidden="true" d="" display="none"/></g></g><g class="mark-text role-mark layer_1_marks" role="graphics-object" aria-roledescription="text mark container"><text aria-label="Parser: toml_rs&#xA;0.3.16; Execution Time (seconds, lower=better): 0.024107959; parser: toml_rs; label: 0.0241s (x1.00); Execution Time (s): 0.0241; Slowdown: 1.00" role="graphics-symbol" aria-roledescription="text mark" text-anchor="middle" transform="translate(57.142857142857096,593.532820351301)" font-family="sans-serif" font-size="9px" font-weight="bold" fill="#66a61e">0.0241s (x1.00)</text><text aria-label="Parser: rtoml&#xA;0.13.0; Execution Time (seconds, lower=better): 0.060845869; parser: rtoml; label: 0.0608s (x2.52); Execution Time (s): 0.0608; Slowdown: 2.52" role="graphics-symbol" aria-roledescription="text mark" text-anchor="middle" transform="translate(171.4285714285714,589.7731066448196)" font-family="sans-serif" font-size="9px" font-weight="bold" fill="#7570b3">0.0608s (x2.52)</text><text aria-label="Parser: pytomlpp&#xA;1.1.0; Execution Time (seconds, lower=better): 0.083803483; parser: pytomlpp; label: 0.0838s (x3.48); Execution Time (s): 0.0838; Slowdown: 3.48" role="graphics-symbol" aria-roledescription="text mark" text-anchor="middle" transform="translate(285.71428571428567,587.4236519255935)" font-family="sans-serif" font-size="9px" font-weight="bold" fill="#1b9e77">0.0838s (x3.48)</text><text aria-label="Parser: tomllib&#xA;built-in; Execution Time (seconds, lower=better): 0.201935133; parser: tomllib; label: 0.2019s (x8.38); Execution Time (s): 0.2019; Slowdown: 8.38" role="graphics-symbol" aria-roledescription="text mark" text-anchor="middle" transform="translate(400,575.3342003570492)" font-family="sans-serif" font-size="9px" font-weight="bold" fill="#a6761d">0.2019s (x8.38)</text><text aria-label="Parser: toml&#xA;0.10.2; Execution Time (seconds, lower=better): 0.749905444; parser: toml; label: 0.7499s (x31.11); Execution Time (s): 0.7499; Slowdown: 31.11" role="graphics-symbol" aria-roledescription="text mark" text-anchor="middle" transform="translate(514.2857142857142,519.2555750619985)" font-family="sans-serif" font-size="9px" font-weight="bold" fill="#e7298a">0.7499s (x31.11)</text><text aria-label="Parser: qtoml&#xA;0.3.1; Execution Time (seconds, lower=better): 0.876513018; parser: qtoml; label: 0.8765s (x36.36); Execution Time (s): 0.8765; Slowdown: 36.36" role="graphics-symbol" aria-roledescription="text mark" text-anchor="middle" transform="translate(628.5714285714286,506.29870758335045)" font-family="sans-serif" font-size="9px" font-weight="bold" fill="#d95f02">0.8765s (x36.36)</text><text aria-label="Parser: tomlkit&#xA;0.15.0; Execution Time (seconds, lower=better): 5.58369415; parser: tomlkit; label: 5.5837s (x231.61); Execution Time (s): 5.5837; Slowdown: 231.61" role="graphics-symbol" aria-roledescription="text mark" text-anchor="middle" transform="translate(742.8571428571429,24.571428571428605)" font-family="sans-serif" font-size="9px" font-weight="bold" fill="#e6ab02">5.5837s (x231.61)</text></g><g class="mark-group role-title"><g transform="translate(400,-31)"><path class="background" aria-hidden="true" d="M0,0h0v0h0Z" pointer-events="none"/><g><g class="mark-text role-title-text" role="graphics-symbol" aria-roledescription="title" aria-label="Title text 'TOML parsers benchmark (loads)'" pointer-events="none"><text text-anchor="middle" transform="translate(0,10)" font-family="sans-serif" font-size="13px" font-weight="bold" fill="#000" opacity="1">TOML parsers benchmark (loads)</text></g><g class="mark-text role-title-subtitle" role="graphics-symbol" aria-roledescription="subtitle" aria-label="Subtitle text 'Python: 3.14.6 (Linux 6.17.0-1018-azure) | CPU: AMD EPYC 7763 64-Core Processor'" pointer-events="none"><text text-anchor="middle" transform="translate(0,25)" font-family="sans-serif" font-size="12px" fill="#000" opacity="1">Python: 3.14.6 (Linux 6.17.0-1018-azure) | CPU: AMD EPYC 7763 64-Core Processor</text></g></g><path class="foreground" aria-hidden="true" d="" pointer-events="none" display="none"/></g></g></g><path class="foreground" aria-hidden="true" d="" display="none"/></g></g></g><defs><clipPath id="clip1"><path d="M1.233589824349508,0L101.62355303279335,0C102.30438979091475,0,102.85714285714286,0.5527530662281002,102.85714285714286,1.233589824349508L102.85714285714286,2.467179648699016C102.85714285714286,2.467179648699016,102.85714285714286,2.467179648699016,102.85714285714286,2.467179648699016L0,2.467179648699016C0,2.467179648699016,0,2.467179648699016,0,2.467179648699016L0,1.233589824349508C0,0.5527530662281002,0.5527530662281002,0,1.233589824349508,0Z"/></clipPath><clipPath id="clip2"><path d="M3.1134466775902183,0L99.74369617955264,0C101.4620541788756,0,102.85714285714286,1.39508867826725,102.85714285714286,3.1134466775902183L102.85714285714286,6.226893355180437C102.85714285714286,6.226893355180437,102.85714285714286,6.226893355180437,102.85714285714286,6.226893355180437L0,6.226893355180437C0,6.226893355180437,0,6.226893355180437,0,6.226893355180437L0,3.1134466775902183C0,1.39508867826725,1.39508867826725,0,3.1134466775902183,0Z"/></clipPath><clipPath id="clip3"><path d="M4.288174037203248,0L98.56896881993961,0C100.93567649871719,0,102.85714285714286,1.9214663584256826,102.85714285714286,4.288174037203248L102.85714285714286,8.576348074406496C102.85714285714286,8.576348074406496,102.85714285714286,8.576348074406496,102.85714285714286,8.576348074406496L0,8.576348074406496C0,8.576348074406496,0,8.576348074406496,0,8.576348074406496L0,4.288174037203248C0,1.9214663584256826,1.9214663584256826,0,4.288174037203248,0Z"/></clipPath><clipPath id="clip4"><path d="M6,0L96.85714285714286,0C100.16863300410687,0,102.85714285714286,2.688509853036,102.85714285714286,6L102.85714285714286,20.665799642950788C102.85714285714286,20.665799642950788,102.85714285714286,20.665799642950788,102.85714285714286,20.665799642950788L0,20.665799642950788C0,20.665799642950788,0,20.665799642950788,0,20.665799642950788L0,6C0,2.688509853036,2.688509853036,0,6,0Z"/></clipPath><clipPath id="clip5"><path d="M6,0L96.85714285714286,0C100.16863300410687,0,102.85714285714286,2.688509853036,102.85714285714286,6L102.85714285714286,76.74442493800154C102.85714285714286,76.74442493800154,102.85714285714286,76.74442493800154,102.85714285714286,76.74442493800154L0,76.74442493800154C0,76.74442493800154,0,76.74442493800154,0,76.74442493800154L0,6C0,2.688509853036,2.688509853036,0,6,0Z"/></clipPath><clipPath id="clip6"><path d="M6,0L96.85714285714286,0C100.16863300410687,0,102.85714285714286,2.688509853036,102.85714285714286,6L102.85714285714286,89.70129241664955C102.85714285714286,89.70129241664955,102.85714285714286,89.70129241664955,102.85714285714286,89.70129241664955L0,89.70129241664955C0,89.70129241664955,0,89.70129241664955,0,89.70129241664955L0,6C0,2.688509853036,2.688509853036,0,6,0Z"/></clipPath><clipPath id="clip7"><path d="M6,0L96.85714285714286,0C100.16863300410687,0,102.85714285714286,2.688509853036,102.85714285714286,6L102.85714285714286,571.4285714285714C102.85714285714286,571.4285714285714,102.85714285714286,571.4285714285714,102.85714285714286,571.4285714285714L0,571.4285714285714C0,571.4285714285714,0,571.4285714285714,0,571.4285714285714L0,6C0,2.688509853036,2.688509853036,0,6,0Z"/></clipPath></defs></svg>