<svg xmlns="http://www.w3.org/2000/svg" xmlns:xlink="http://www.w3.org/1999/xlink" version="1.1" class="marks" width="846" height="687" viewBox="0 0 846 687"><rect width="846" height="687" fill="white"/><g fill="none" stroke-miterlimit="10" transform="translate(41,36)"><g class="mark-group role-frame root" role="graphics-object" aria-roledescription="group mark container"><g transform="translate(0,0)"><path class="background" aria-hidden="true" d="M0.5,0.5h800v600h-800Z" stroke="#ddd"/><g><g class="mark-group role-axis" role="graphics-symbol" aria-roledescription="axis" aria-label="X-axis titled 'Parser' for a discrete scale with 7 values: rtoml&#xA;0.13.0, toml_rs&#xA;0.3.16, pytomlpp&#xA;1.1.0, toml&#xA;0.10.2, tomli-w&#xA;1.2.0, qtoml&#xA;0.3.1, tomlkit&#xA;0.15.0"><g transform="translate(0.5,600.5)"><path class="background" aria-hidden="true" d="M0,0h0v0h0Z" pointer-events="none"/><g><g class="mark-rule role-axis-tick" pointer-events="none"><line transform="translate(57,0)" x2="0" y2="5" stroke="#888" stroke-width="1" opacity="1"/><line transform="translate(171,0)" x2="0" y2="5" stroke="#888" stroke-width="1" opacity="1"/><line transform="translate(285,0)" x2="0" y2="5" stroke="#888" stroke-width="1" opacity="1"/><line transform="translate(400,0)" x2="0" y2="5" stroke="#888" stroke-width="1" opacity="1"/><line transform="translate(514,0)" x2="0" y2="5" stroke="#888" stroke-width="1" opacity="1"/><line transform="translate(628,0)" x2="0" y2="5" stroke="#888" stroke-width="1" opacity="1"/><line transform="translate(742,0)" x2="0" y2="5" stroke="#888" stroke-width="1" opacity="1"/></g><g class="mark-text role-axis-label" pointer-events="none"><text text-anchor="middle" transform="translate(56.642857142857096,15)" font-family="sans-serif" font-size="10px" fill="#000" opacity="1"><tspan>rtoml</tspan><tspan x="0" dy="14">0.13.0</tspan></text><text text-anchor="middle" transform="translate(170.9285714285714,15)" font-family="sans-serif" font-size="10px" fill="#000" opacity="1"><tspan>toml_rs</tspan><tspan x="0" dy="14">0.3.16</tspan></text><text text-anchor="middle" transform="translate(285.21428571428567,15)" font-family="sans-serif" font-size="10px" fill="#000" opacity="1"><tspan>pytomlpp</tspan><tspan x="0" dy="14">1.1.0</tspan></text><text text-anchor="middle" transform="translate(399.5,15)" font-family="sans-serif" font-size="10px" fill="#000" opacity="1"><tspan>toml</tspan><tspan x="0" dy="14">0.10.2</tspan></text><text text-anchor="middle" transform="translate(513.7857142857142,15)" font-family="sans-serif" font-size="10px" fill="#000" opacity="1"><tspan>tomli-w</tspan><tspan x="0" dy="14">1.2.0</tspan></text><text text-anchor="middle" transform="translate(628.0714285714286,15)" font-family="sans-serif" font-size="10px" fill="#000" opacity="1"><tspan>qtoml</tspan><tspan x="0" dy="14">0.3.1</tspan></text><text text-anchor="middle" transform="translate(742.3571428571429,15)" font-family="sans-serif" font-size="10px" fill="#000" opacity="1"><tspan>tomlkit</tspan><tspan x="0" dy="14">0.15.0</tspan></text></g><g class="mark-rule role-axis-domain" pointer-events="none"><line transform="translate(0,0)" x2="800" y2="0" stroke="#888" stroke-width="1" opacity="1"/></g><g class="mark-text role-axis-title" pointer-events="none"><text text-anchor="middle" transform="translate(400,44)" font-family="sans-serif" font-size="11px" font-weight="bold" fill="#000" opacity="1">Parser</text></g></g><path class="foreground" aria-hidden="true" d="" pointer-events="none" display="none"/></g></g><g class="mark-group role-axis" role="graphics-symbol" aria-roledescription="axis" aria-label="Y-axis titled 'Execution Time (seconds, lower=better)' for a linear scale with values from 0.0 to 2.7"><g transform="translate(0.5,0.5)"><path class="background" aria-hidden="true" d="M0,0h0v0h0Z" pointer-events="none"/><g><g class="mark-rule role-axis-tick" pointer-events="none"><line transform="translate(0,600)" x2="-5" y2="0" stroke="#888" stroke-width="1" opacity="1"/><line transform="translate(0,555)" x2="-5" y2="0" stroke="#888" stroke-width="1" opacity="1"/><line transform="translate(0,510)" x2="-5" y2="0" stroke="#888" stroke-width="1" opacity="1"/><line transform="translate(0,464)" x2="-5" y2="0" stroke="#888" stroke-width="1" opacity="1"/><line transform="translate(0,419)" x2="-5" y2="0" stroke="#888" stroke-width="1" opacity="1"/><line transform="translate(0,374)" x2="-5" y2="0" stroke="#888" stroke-width="1" opacity="1"/><line transform="translate(0,329)" x2="-5" y2="0" stroke="#888" stroke-width="1" opacity="1"/><line transform="translate(0,284)" x2="-5" y2="0" stroke="#888" stroke-width="1" opacity="1"/><line transform="translate(0,238)" x2="-5" y2="0" stroke="#888" stroke-width="1" opacity="1"/><line transform="translate(0,193)" x2="-5" y2="0" stroke="#888" stroke-width="1" opacity="1"/><line transform="translate(0,148)" x2="-5" y2="0" stroke="#888" stroke-width="1" opacity="1"/><line transform="translate(0,103)" x2="-5" y2="0" stroke="#888" stroke-width="1" opacity="1"/><line transform="translate(0,58)" x2="-5" y2="0" stroke="#888" stroke-width="1" opacity="1"/><line transform="translate(0,12)" x2="-5" y2="0" stroke="#888" stroke-width="1" opacity="1"/></g><g class="mark-text role-axis-label" pointer-events="none"><text text-anchor="end" transform="translate(-7,603)" font-family="sans-serif" font-size="10px" fill="#000" opacity="1">0.0</text><text text-anchor="end" transform="translate(-7,557.8012199677751)" font-family="sans-serif" font-size="10px" fill="#000" opacity="1">0.2</text><text text-anchor="end" transform="translate(-7,512.6024399355501)" font-family="sans-serif" font-size="10px" fill="#000" opacity="1">0.4</text><text text-anchor="end" transform="translate(-7,467.4036599033251)" font-family="sans-serif" font-size="10px" fill="#000" opacity="1">0.6</text><text text-anchor="end" transform="translate(-7,422.20487987110016)" font-family="sans-serif" font-size="10px" fill="#000" opacity="1">0.8</text><text text-anchor="end" transform="translate(-7,377.0060998388752)" font-family="sans-serif" font-size="10px" fill="#000" opacity="1">1.0</text><text text-anchor="end" transform="translate(-7,331.8073198066502)" font-family="sans-serif" font-size="10px" fill="#000" opacity="1">1.2</text><text text-anchor="end" transform="translate(-7,286.6085397744252)" font-family="sans-serif" font-size="10px" fill="#000" opacity="1">1.4</text><text text-anchor="end" transform="translate(-7,241.40975974220027)" font-family="sans-serif" font-size="10px" fill="#000" opacity="1">1.6</text><text text-anchor="end" transform="translate(-7,196.21097970997525)" font-family="sans-serif" font-size="10px" fill="#000" opacity="1">1.8</text><text text-anchor="end" transform="translate(-7,151.0121996777503)" font-family="sans-serif" font-size="10px" fill="#000" opacity="1">2.0</text><text text-anchor="end" transform="translate(-7,105.81341964552529)" font-family="sans-serif" font-size="10px" fill="#000" opacity="1">2.2</text><text text-anchor="end" transform="translate(-7,60.6146396133004)" font-family="sans-serif" font-size="10px" fill="#000" opacity="1">2.4</text><text text-anchor="end" transform="translate(-7,15.415859581075384)" font-family="sans-serif" font-size="10px" fill="#000" opacity="1">2.6</text></g><g class="mark-rule role-axis-domain" pointer-events="none"><line transform="translate(0,600)" x2="0" y2="-600" stroke="#888" stroke-width="1" opacity="1"/></g><g class="mark-text role-axis-title" pointer-events="none"><text text-anchor="middle" transform="translate(-24.9013671875,300) rotate(-90) translate(0,-2)" font-family="sans-serif" font-size="11px" font-weight="bold" fill="#000" opacity="1">Execution Time (seconds, lower=better)</text></g></g><path class="foreground" aria-hidden="true" d="" pointer-events="none" display="none"/></g></g><g class="mark-group role-scope" role="graphics-object" aria-roledescription="group mark container"><g transform="translate(5.714285714285666,592.3422775988557)"><path class="background" aria-hidden="true" d="M3.8288612005721347,0L99.02828165657073,0C101.14148767986862,0,102.85714285714286,1.7156551772742388,102.85714285714286,3.8288612005721347L102.85714285714286,7.6577224011442695C102.85714285714286,7.6577224011442695,102.85714285714286,7.6577224011442695,102.85714285714286,7.6577224011442695L0,7.6577224011442695C0,7.6577224011442695,0,7.6577224011442695,0,7.6577224011442695L0,3.8288612005721347C0,1.7156551772742388,1.7156551772742388,0,3.8288612005721347,0Z"/><g clip-path="url(#clip8)"><g class="mark-group role-scope" role="graphics-object" aria-roledescription="group mark container"><g transform="translate(0,-592.3422775988557)"><path class="background" aria-hidden="true" d="M0,0h102.85714285714286v0h-102.85714285714286Z"/><g><g class="mark-rect role-mark layer_0_marks" role="graphics-object" aria-roledescription="rect mark container"><path aria-label="Parser: rtoml&#xA;0.13.0; Execution Time (seconds, lower=better): 0.033884642; parser: rtoml; Execution Time (s): 0.0339; Slowdown: 1.00" role="graphics-symbol" aria-roledescription="bar" d="M0,592.3422775988557h102.85714285714286v7.6577224011442695h-102.85714285714286Z" fill="#7570b3"/></g></g><path class="foreground" aria-hidden="true" d="" display="none"/></g></g></g><path class="foreground" aria-hidden="true" d="" display="none"/></g><g transform="translate(119.99999999999996,591.1344308260458)"><path class="background" aria-hidden="true" d="M4.432784586977107,0L98.42435827016575,0C100.87087868406385,0,102.85714285714286,1.9862641730790114,102.85714285714286,4.432784586977107L102.85714285714286,8.865569173954214C102.85714285714286,8.865569173954214,102.85714285714286,8.865569173954214,102.85714285714286,8.865569173954214L0,8.865569173954214C0,8.865569173954214,0,8.865569173954214,0,8.865569173954214L0,4.432784586977107C0,1.9862641730790114,1.9862641730790114,0,4.432784586977107,0Z"/><g clip-path="url(#clip9)"><g class="mark-group role-scope" role="graphics-object" aria-roledescription="group mark container"><g transform="translate(0,-591.1344308260458)"><path class="background" aria-hidden="true" d="M0,0h102.85714285714286v0h-102.85714285714286Z"/><g><g class="mark-rect role-mark layer_0_marks" role="graphics-object" aria-roledescription="rect mark container"><path aria-label="Parser: toml_rs&#xA;0.3.16; Execution Time (seconds, lower=better): 0.039229241; parser: toml_rs; Execution Time (s): 0.0392; Slowdown: 1.16" role="graphics-symbol" aria-roledescription="bar" d="M0,591.1344308260458h102.85714285714286v8.865569173954214h-102.85714285714286Z" fill="#66a61e"/></g></g><path class="foreground" aria-hidden="true" d="" display="none"/></g></g></g><path class="foreground" aria-hidden="true" d="" display="none"/></g><g transform="translate(234.28571428571425,588.6066275824079)"><path class="background" aria-hidden="true" d="M5.696686208796052,0L97.16045664834681,0C100.30454335680912,0,102.85714285714286,2.552599500333747,102.85714285714286,5.696686208796052L102.85714285714286,11.393372417592104C102.85714285714286,11.393372417592104,102.85714285714286,11.393372417592104,102.85714285714286,11.393372417592104L0,11.393372417592104C0,11.393372417592104,0,11.393372417592104,0,11.393372417592104L0,5.696686208796052C0,2.552599500333747,2.552599500333747,0,5.696686208796052,0Z"/><g clip-path="url(#clip10)"><g class="mark-group role-scope" role="graphics-object" aria-roledescription="group mark container"><g transform="translate(0,-588.6066275824079)"><path class="background" aria-hidden="true" d="M0,0h102.85714285714286v0h-102.85714285714286Z"/><g><g class="mark-rect role-mark layer_0_marks" role="graphics-object" aria-roledescription="rect mark container"><path aria-label="Parser: pytomlpp&#xA;1.1.0; Execution Time (seconds, lower=better): 0.050414513; parser: pytomlpp; Execution Time (s): 0.0504; Slowdown: 1.49" role="graphics-symbol" aria-roledescription="bar" d="M0,588.6066275824079h102.85714285714286v11.393372417592104h-102.85714285714286Z" fill="#1b9e77"/></g></g><path class="foreground" aria-hidden="true" d="" display="none"/></g></g></g><path class="foreground" aria-hidden="true" d="" display="none"/></g><g transform="translate(348.57142857142856,572.9408696354789)"><path class="background" aria-hidden="true" d="M6,0L96.85714285714286,0C100.16863300410687,0,102.85714285714286,2.688509853036,102.85714285714286,6L102.85714285714286,27.05913036452114C102.85714285714286,27.05913036452114,102.85714285714286,27.05913036452114,102.85714285714286,27.05913036452114L0,27.05913036452114C0,27.05913036452114,0,27.05913036452114,0,27.05913036452114L0,6C0,2.688509853036,2.688509853036,0,6,0Z"/><g clip-path="url(#clip11)"><g class="mark-group role-scope" role="graphics-object" aria-roledescription="group mark container"><g transform="translate(0,-572.9408696354789)"><path class="background" aria-hidden="true" d="M0,0h102.85714285714286v0h-102.85714285714286Z"/><g><g class="mark-rect role-mark layer_0_marks" role="graphics-object" aria-roledescription="rect mark container"><path aria-label="Parser: toml&#xA;0.10.2; Execution Time (seconds, lower=better): 0.119733897; parser: toml; Execution Time (s): 0.1197; Slowdown: 3.53" role="graphics-symbol" aria-roledescription="bar" d="M0,572.9408696354789h102.85714285714286v27.05913036452114h-102.85714285714286Z" fill="#e7298a"/></g></g><path class="foreground" aria-hidden="true" d="" display="none"/></g></g></g><path class="foreground" aria-hidden="true" d="" display="none"/></g><g transform="translate(462.85714285714283,570.9112272318894)"><path class="background" aria-hidden="true" d="M6,0L96.85714285714286,0C100.16863300410687,0,102.85714285714286,2.688509853036,102.85714285714286,6L102.85714285714286,29.08877276811063C102.85714285714286,29.08877276811063,102.85714285714286,29.08877276811063,102.85714285714286,29.08877276811063L0,29.08877276811063C0,29.08877276811063,0,29.08877276811063,0,29.08877276811063L0,6C0,2.688509853036,2.688509853036,0,6,0Z"/><g clip-path="url(#clip12)"><g class="mark-group role-scope" role="graphics-object" aria-roledescription="group mark container"><g transform="translate(0,-570.9112272318894)"><path class="background" aria-hidden="true" d="M0,0h102.85714285714286v0h-102.85714285714286Z"/><g><g class="mark-rect role-mark layer_0_marks" role="graphics-object" aria-roledescription="rect mark container"><path aria-label="Parser: tomli-w&#xA;1.2.0; Execution Time (seconds, lower=better): 0.128714858; parser: tomli-w; Execution Time (s): 0.1287; Slowdown: 3.80" role="graphics-symbol" aria-roledescription="bar" d="M0,570.9112272318894h102.85714285714286v29.08877276811063h-102.85714285714286Z" fill="#e6ab02"/></g></g><path class="foreground" aria-hidden="true" d="" display="none"/></g></g></g><path class="foreground" aria-hidden="true" d="" display="none"/></g><g transform="translate(577.1428571428571,527.4815816886663)"><path class="background" aria-hidden="true" d="M6,0L96.85714285714286,0C100.16863300410687,0,102.85714285714286,2.688509853036,102.85714285714286,6L102.85714285714286,72.51841831133368C102.85714285714286,72.51841831133368,102.85714285714286,72.51841831133368,102.85714285714286,72.51841831133368L0,72.51841831133368C0,72.51841831133368,0,72.51841831133368,0,72.51841831133368L0,6C0,2.688509853036,2.688509853036,0,6,0Z"/><g clip-path="url(#clip13)"><g class="mark-group role-scope" role="graphics-object" aria-roledescription="group mark container"><g transform="translate(0,-527.4815816886663)"><path class="background" aria-hidden="true" d="M0,0h102.85714285714286v0h-102.85714285714286Z"/><g><g class="mark-rect role-mark layer_0_marks" role="graphics-object" aria-roledescription="rect mark container"><path aria-label="Parser: qtoml&#xA;0.3.1; Execution Time (seconds, lower=better): 0.320886618; parser: qtoml; Execution Time (s): 0.3209; Slowdown: 9.47" role="graphics-symbol" aria-roledescription="bar" d="M0,527.4815816886663h102.85714285714286v72.51841831133368h-102.85714285714286Z" fill="#d95f02"/></g></g><path class="foreground" aria-hidden="true" d="" display="none"/></g></g></g><path class="foreground" aria-hidden="true" d="" display="none"/></g><g transform="translate(691.4285714285714,28.571428571428537)"><path class="background" aria-hidden="true" d="M6,0L96.85714285714286,0C100.16863300410687,0,102.85714285714286,2.688509853036,102.85714285714286,6L102.85714285714286,571.4285714285714C102.85714285714286,571.4285714285714,102.85714285714286,571.4285714285714,102.85714285714286,571.4285714285714L0,571.4285714285714C0,571.4285714285714,0,571.4285714285714,0,571.4285714285714L0,6C0,2.688509853036,2.688509853036,0,6,0Z"/><g clip-path="url(#clip14)"><g class="mark-group role-scope" role="graphics-object" aria-roledescription="group mark container"><g transform="translate(0,-28.571428571428537)"><path class="background" aria-hidden="true" d="M0,0h102.85714285714286v0h-102.85714285714286Z"/><g><g class="mark-rect role-mark layer_0_marks" role="graphics-object" aria-roledescription="rect mark container"><path aria-label="Parser: tomlkit&#xA;0.15.0; Execution Time (seconds, lower=better): 2.528513252; parser: tomlkit; Execution Time (s): 2.5285; Slowdown: 74.62" role="graphics-symbol" aria-roledescription="bar" d="M0,28.571428571428537h102.85714285714286v571.4285714285714h-102.85714285714286Z" fill="#a6761d"/></g></g><path class="foreground" aria-hidden="true" d="" display="none"/></g></g></g><path class="foreground" aria-hidden="true" d="" display="none"/></g></g><g class="mark-text role-mark layer_1_marks" role="graphics-object" aria-roledescription="text mark container"><text aria-label="Parser: rtoml&#xA;0.13.0; Execution Time (seconds, lower=better): 0.033884642; parser: rtoml; label: 0.0339s (x1.00); Execution Time (s): 0.0339; Slowdown: 1.00" role="graphics-symbol" aria-roledescription="text mark" text-anchor="middle" transform="translate(57.142857142857096,588.3422775988557)" font-family="sans-serif" font-size="9px" font-weight="bold" fill="#7570b3">0.0339s (x1.00)</text><text aria-label="Parser: toml_rs&#xA;0.3.16; Execution Time (seconds, lower=better): 0.039229241; parser: toml_rs; label: 0.0392s (x1.16); Execution Time (s): 0.0392; Slowdown: 1.16" role="graphics-symbol" aria-roledescription="text mark" text-anchor="middle" transform="translate(171.4285714285714,587.1344308260458)" font-family="sans-serif" font-size="9px" font-weight="bold" fill="#66a61e">0.0392s (x1.16)</text><text aria-label="Parser: pytomlpp&#xA;1.1.0; Execution Time (seconds, lower=better): 0.050414513; parser: pytomlpp; label: 0.0504s (x1.49); Execution Time (s): 0.0504; Slowdown: 1.49" role="graphics-symbol" aria-roledescription="text mark" text-anchor="middle" transform="translate(285.71428571428567,584.6066275824079)" font-family="sans-serif" font-size="9px" font-weight="bold" fill="#1b9e77">0.0504s (x1.49)</text><text aria-label="Parser: toml&#xA;0.10.2; Execution Time (seconds, lower=better): 0.119733897; parser: toml; label: 0.1197s (x3.53); Execution Time (s): 0.1197; Slowdown: 3.53" role="graphics-symbol" aria-roledescription="text mark" text-anchor="middle" transform="translate(400,568.9408696354789)" font-family="sans-serif" font-size="9px" font-weight="bold" fill="#e7298a">0.1197s (x3.53)</text><text aria-label="Parser: tomli-w&#xA;1.2.0; Execution Time (seconds, lower=better): 0.128714858; parser: tomli-w; label: 0.1287s (x3.80); Execution Time (s): 0.1287; Slowdown: 3.80" role="graphics-symbol" aria-roledescription="text mark" text-anchor="middle" transform="translate(514.2857142857142,566.9112272318894)" font-family="sans-serif" font-size="9px" font-weight="bold" fill="#e6ab02">0.1287s (x3.80)</text><text aria-label="Parser: qtoml&#xA;0.3.1; Execution Time (seconds, lower=better): 0.320886618; parser: qtoml; label: 0.3209s (x9.47); Execution Time (s): 0.3209; Slowdown: 9.47" role="graphics-symbol" aria-roledescription="text mark" text-anchor="middle" transform="translate(628.5714285714286,523.4815816886663)" font-family="sans-serif" font-size="9px" font-weight="bold" fill="#d95f02">0.3209s (x9.47)</text><text aria-label="Parser: tomlkit&#xA;0.15.0; Execution Time (seconds, lower=better): 2.528513252; parser: tomlkit; label: 2.5285s (x74.62); Execution Time (s): 2.5285; Slowdown: 74.62" role="graphics-symbol" aria-roledescription="text mark" text-anchor="middle" transform="translate(742.8571428571429,24.571428571428537)" font-family="sans-serif" font-size="9px" font-weight="bold" fill="#a6761d">2.5285s (x74.62)</text></g><g class="mark-group role-title"><g transform="translate(400,-31)"><path class="background" aria-hidden="true" d="M0,0h0v0h0Z" pointer-events="none"/><g><g class="mark-text role-title-text" role="graphics-symbol" aria-roledescription="title" aria-label="Title text 'TOML parsers benchmark (dumps)'" pointer-events="none"><text text-anchor="middle" transform="translate(0,10)" font-family="sans-serif" font-size="13px" font-weight="bold" fill="#000" opacity="1">TOML parsers benchmark (dumps)</text></g><g class="mark-text role-title-subtitle" role="graphics-symbol" aria-roledescription="subtitle" aria-label="Subtitle text 'Python: 3.14.6 (Linux 6.17.0-1018-azure) | CPU: AMD EPYC 7763 64-Core Processor'" pointer-events="none"><text text-anchor="middle" transform="translate(0,25)" font-family="sans-serif" font-size="12px" fill="#000" opacity="1">Python: 3.14.6 (Linux 6.17.0-1018-azure) | CPU: AMD EPYC 7763 64-Core Processor</text></g></g><path class="foreground" aria-hidden="true" d="" pointer-events="none" display="none"/></g></g></g><path class="foreground" aria-hidden="true" d="" display="none"/></g></g></g><defs><clipPath id="clip8"><path d="M3.8288612005721347,0L99.02828165657073,0C101.14148767986862,0,102.85714285714286,1.7156551772742388,102.85714285714286,3.8288612005721347L102.85714285714286,7.6577224011442695C102.85714285714286,7.6577224011442695,102.85714285714286,7.6577224011442695,102.85714285714286,7.6577224011442695L0,7.6577224011442695C0,7.6577224011442695,0,7.6577224011442695,0,7.6577224011442695L0,3.8288612005721347C0,1.7156551772742388,1.7156551772742388,0,3.8288612005721347,0Z"/></clipPath><clipPath id="clip9"><path d="M4.432784586977107,0L98.42435827016575,0C100.87087868406385,0,102.85714285714286,1.9862641730790114,102.85714285714286,4.432784586977107L102.85714285714286,8.865569173954214C102.85714285714286,8.865569173954214,102.85714285714286,8.865569173954214,102.85714285714286,8.865569173954214L0,8.865569173954214C0,8.865569173954214,0,8.865569173954214,0,8.865569173954214L0,4.432784586977107C0,1.9862641730790114,1.9862641730790114,0,4.432784586977107,0Z"/></clipPath><clipPath id="clip10"><path d="M5.696686208796052,0L97.16045664834681,0C100.30454335680912,0,102.85714285714286,2.552599500333747,102.85714285714286,5.696686208796052L102.85714285714286,11.393372417592104C102.85714285714286,11.393372417592104,102.85714285714286,11.393372417592104,102.85714285714286,11.393372417592104L0,11.393372417592104C0,11.393372417592104,0,11.393372417592104,0,11.393372417592104L0,5.696686208796052C0,2.552599500333747,2.552599500333747,0,5.696686208796052,0Z"/></clipPath><clipPath id="clip11"><path d="M6,0L96.85714285714286,0C100.16863300410687,0,102.85714285714286,2.688509853036,102.85714285714286,6L102.85714285714286,27.05913036452114C102.85714285714286,27.05913036452114,102.85714285714286,27.05913036452114,102.85714285714286,27.05913036452114L0,27.05913036452114C0,27.05913036452114,0,27.05913036452114,0,27.05913036452114L0,6C0,2.688509853036,2.688509853036,0,6,0Z"/></clipPath><clipPath id="clip12"><path d="M6,0L96.85714285714286,0C100.16863300410687,0,102.85714285714286,2.688509853036,102.85714285714286,6L102.85714285714286,29.08877276811063C102.85714285714286,29.08877276811063,102.85714285714286,29.08877276811063,102.85714285714286,29.08877276811063L0,29.08877276811063C0,29.08877276811063,0,29.08877276811063,0,29.08877276811063L0,6C0,2.688509853036,2.688509853036,0,6,0Z"/></clipPath><clipPath id="clip13"><path d="M6,0L96.85714285714286,0C100.16863300410687,0,102.85714285714286,2.688509853036,102.85714285714286,6L102.85714285714286,72.51841831133368C102.85714285714286,72.51841831133368,102.85714285714286,72.51841831133368,102.85714285714286,72.51841831133368L0,72.51841831133368C0,72.51841831133368,0,72.51841831133368,0,72.51841831133368L0,6C0,2.688509853036,2.688509853036,0,6,0Z"/></clipPath><clipPath id="clip14"><path d="M6,0L96.85714285714286,0C100.16863300410687,0,102.85714285714286,2.688509853036,102.85714285714286,6L102.85714285714286,571.4285714285714C102.85714285714286,571.4285714285714,102.85714285714286,571.4285714285714,102.85714285714286,571.4285714285714L0,571.4285714285714C0,571.4285714285714,0,571.4285714285714,0,571.4285714285714L0,6C0,2.688509853036,2.688509853036,0,6,0Z"/></clipPath></defs></svg>