<svg xmlns="http://www.w3.org/2000/svg" xmlns:xlink="http://www.w3.org/1999/xlink" version="1.1" class="marks" width="846" height="687" viewBox="0 0 846 687"><rect width="846" height="687" fill="white"/><g fill="none" stroke-miterlimit="10" transform="translate(41,36)"><g class="mark-group role-frame root" role="graphics-object" aria-roledescription="group mark container"><g transform="translate(0,0)"><path class="background" aria-hidden="true" d="M0.5,0.5h800v600h-800Z" stroke="#ddd"/><g><g class="mark-group role-axis" role="graphics-symbol" aria-roledescription="axis" aria-label="X-axis titled 'Parser' for a discrete scale with 7 values: toml_rs&#xA;0.3.14, rtoml&#xA;0.13.0, pytomlpp&#xA;1.1.0, tomllib&#xA;built-in, toml&#xA;0.10.2, qtoml&#xA;0.3.1, tomlkit&#xA;0.15.0"><g transform="translate(0.5,600.5)"><path class="background" aria-hidden="true" d="M0,0h0v0h0Z" pointer-events="none"/><g><g class="mark-rule role-axis-tick" pointer-events="none"><line transform="translate(57,0)" x2="0" y2="5" stroke="#888" stroke-width="1" opacity="1"/><line transform="translate(171,0)" x2="0" y2="5" stroke="#888" stroke-width="1" opacity="1"/><line transform="translate(285,0)" x2="0" y2="5" stroke="#888" stroke-width="1" opacity="1"/><line transform="translate(400,0)" x2="0" y2="5" stroke="#888" stroke-width="1" opacity="1"/><line transform="translate(514,0)" x2="0" y2="5" stroke="#888" stroke-width="1" opacity="1"/><line transform="translate(628,0)" x2="0" y2="5" stroke="#888" stroke-width="1" opacity="1"/><line transform="translate(742,0)" x2="0" y2="5" stroke="#888" stroke-width="1" opacity="1"/></g><g class="mark-text role-axis-label" pointer-events="none"><text text-anchor="middle" transform="translate(56.642857142857096,15)" font-family="sans-serif" font-size="10px" fill="#000" opacity="1"><tspan>toml_rs</tspan><tspan x="0" dy="14">0.3.14</tspan></text><text text-anchor="middle" transform="translate(170.9285714285714,15)" font-family="sans-serif" font-size="10px" fill="#000" opacity="1"><tspan>rtoml</tspan><tspan x="0" dy="14">0.13.0</tspan></text><text text-anchor="middle" transform="translate(285.21428571428567,15)" font-family="sans-serif" font-size="10px" fill="#000" opacity="1"><tspan>pytomlpp</tspan><tspan x="0" dy="14">1.1.0</tspan></text><text text-anchor="middle" transform="translate(399.5,15)" font-family="sans-serif" font-size="10px" fill="#000" opacity="1"><tspan>tomllib</tspan><tspan x="0" dy="14">built-in</tspan></text><text text-anchor="middle" transform="translate(513.7857142857142,15)" font-family="sans-serif" font-size="10px" fill="#000" opacity="1"><tspan>toml</tspan><tspan x="0" dy="14">0.10.2</tspan></text><text text-anchor="middle" transform="translate(628.0714285714286,15)" font-family="sans-serif" font-size="10px" fill="#000" opacity="1"><tspan>qtoml</tspan><tspan x="0" dy="14">0.3.1</tspan></text><text text-anchor="middle" transform="translate(742.3571428571429,15)" font-family="sans-serif" font-size="10px" fill="#000" opacity="1"><tspan>tomlkit</tspan><tspan x="0" dy="14">0.15.0</tspan></text></g><g class="mark-rule role-axis-domain" pointer-events="none"><line transform="translate(0,0)" x2="800" y2="0" stroke="#888" stroke-width="1" opacity="1"/></g><g class="mark-text role-axis-title" pointer-events="none"><text text-anchor="middle" transform="translate(400,44)" font-family="sans-serif" font-size="11px" font-weight="bold" fill="#000" opacity="1">Parser</text></g></g><path class="foreground" aria-hidden="true" d="" pointer-events="none" display="none"/></g></g><g class="mark-group role-axis" role="graphics-symbol" aria-roledescription="axis" aria-label="Y-axis titled 'Execution Time (seconds, lower=better)' for a linear scale with values from 0 to 5"><g transform="translate(0.5,0.5)"><path class="background" aria-hidden="true" d="M0,0h0v0h0Z" pointer-events="none"/><g><g class="mark-rule role-axis-tick" pointer-events="none"><line transform="translate(0,600)" x2="-5" y2="0" stroke="#888" stroke-width="1" opacity="1"/><line transform="translate(0,541)" x2="-5" y2="0" stroke="#888" stroke-width="1" opacity="1"/><line transform="translate(0,483)" x2="-5" y2="0" stroke="#888" stroke-width="1" opacity="1"/><line transform="translate(0,424)" x2="-5" y2="0" stroke="#888" stroke-width="1" opacity="1"/><line transform="translate(0,365)" x2="-5" y2="0" stroke="#888" stroke-width="1" opacity="1"/><line transform="translate(0,306)" x2="-5" y2="0" stroke="#888" stroke-width="1" opacity="1"/><line transform="translate(0,248)" x2="-5" y2="0" stroke="#888" stroke-width="1" opacity="1"/><line transform="translate(0,189)" x2="-5" y2="0" stroke="#888" stroke-width="1" opacity="1"/><line transform="translate(0,130)" x2="-5" y2="0" stroke="#888" stroke-width="1" opacity="1"/><line transform="translate(0,71)" x2="-5" y2="0" stroke="#888" stroke-width="1" opacity="1"/><line transform="translate(0,13)" x2="-5" y2="0" stroke="#888" stroke-width="1" opacity="1"/></g><g class="mark-text role-axis-label" pointer-events="none"><text text-anchor="end" transform="translate(-7,603)" font-family="sans-serif" font-size="10px" fill="#000" opacity="1">0.0</text><text text-anchor="end" transform="translate(-7,544.2689605470044)" font-family="sans-serif" font-size="10px" fill="#000" opacity="1">0.5</text><text text-anchor="end" transform="translate(-7,485.53792109400894)" font-family="sans-serif" font-size="10px" fill="#000" opacity="1">1.0</text><text text-anchor="end" transform="translate(-7,426.8068816410134)" font-family="sans-serif" font-size="10px" fill="#000" opacity="1">1.5</text><text text-anchor="end" transform="translate(-7,368.0758421880179)" font-family="sans-serif" font-size="10px" fill="#000" opacity="1">2.0</text><text text-anchor="end" transform="translate(-7,309.3448027350223)" font-family="sans-serif" font-size="10px" fill="#000" opacity="1">2.5</text><text text-anchor="end" transform="translate(-7,250.61376328202672)" font-family="sans-serif" font-size="10px" fill="#000" opacity="1">3.0</text><text text-anchor="end" transform="translate(-7,191.88272382903116)" font-family="sans-serif" font-size="10px" fill="#000" opacity="1">3.5</text><text text-anchor="end" transform="translate(-7,133.15168437603563)" font-family="sans-serif" font-size="10px" fill="#000" opacity="1">4.0</text><text text-anchor="end" transform="translate(-7,74.4206449230401)" font-family="sans-serif" font-size="10px" fill="#000" opacity="1">4.5</text><text text-anchor="end" transform="translate(-7,15.689605470044562)" font-family="sans-serif" font-size="10px" fill="#000" opacity="1">5.0</text></g><g class="mark-rule role-axis-domain" pointer-events="none"><line transform="translate(0,600)" x2="0" y2="-600" stroke="#888" stroke-width="1" opacity="1"/></g><g class="mark-text role-axis-title" pointer-events="none"><text text-anchor="middle" transform="translate(-24.9013671875,300) rotate(-90) translate(0,-2)" font-family="sans-serif" font-size="11px" font-weight="bold" fill="#000" opacity="1">Execution Time (seconds, lower=better)</text></g></g><path class="foreground" aria-hidden="true" d="" pointer-events="none" display="none"/></g></g><g class="mark-group role-scope" role="graphics-object" aria-roledescription="group mark container"><g transform="translate(5.714285714285666,597.643181882867)"><path class="background" aria-hidden="true" d="M1.1784090585665012,0L101.67873379857636,0C102.32911546299904,0,102.85714285714286,0.5280273941438193,102.85714285714286,1.1784090585665012L102.85714285714286,2.3568181171330025C102.85714285714286,2.3568181171330025,102.85714285714286,2.3568181171330025,102.85714285714286,2.3568181171330025L0,2.3568181171330025C0,2.3568181171330025,0,2.3568181171330025,0,2.3568181171330025L0,1.1784090585665012C0,0.5280273941438193,0.5280273941438193,0,1.1784090585665012,0Z"/><g clip-path="url(#clip1)"><g class="mark-group role-scope" role="graphics-object" aria-roledescription="group mark container"><g transform="translate(0,-597.643181882867)"><path class="background" aria-hidden="true" d="M0,0h102.85714285714286v0h-102.85714285714286Z"/><g><g class="mark-rect role-mark layer_0_marks" role="graphics-object" aria-roledescription="rect mark container"><path aria-label="Parser: toml_rs&#xA;0.3.14; Execution Time (seconds, lower=better): 0.020064502; parser: toml_rs; Execution Time (s): 0.0201; Slowdown: 1.00" role="graphics-symbol" aria-roledescription="bar" d="M0,597.643181882867h102.85714285714286v2.3568181171330025h-102.85714285714286Z" fill="#66a61e"/></g></g><path class="foreground" aria-hidden="true" d="" display="none"/></g></g></g><path class="foreground" aria-hidden="true" d="" display="none"/></g><g transform="translate(119.99999999999996,593.0731818025482)"><path class="background" aria-hidden="true" d="M3.46340909872589,0L99.39373375841697,0C101.30524127597302,0,102.85714285714286,1.551901581169848,102.85714285714286,3.46340909872589L102.85714285714286,6.92681819745178C102.85714285714286,6.92681819745178,102.85714285714286,6.92681819745178,102.85714285714286,6.92681819745178L0,6.92681819745178C0,6.92681819745178,0,6.92681819745178,0,6.92681819745178L0,3.46340909872589C0,1.551901581169848,1.551901581169848,0,3.46340909872589,0Z"/><g clip-path="url(#clip2)"><g class="mark-group role-scope" role="graphics-object" aria-roledescription="group mark container"><g transform="translate(0,-593.0731818025482)"><path class="background" aria-hidden="true" d="M0,0h102.85714285714286v0h-102.85714285714286Z"/><g><g class="mark-rect role-mark layer_0_marks" role="graphics-object" aria-roledescription="rect mark container"><path aria-label="Parser: rtoml&#xA;0.13.0; Execution Time (seconds, lower=better): 0.058970676; parser: rtoml; Execution Time (s): 0.0590; Slowdown: 2.94" role="graphics-symbol" aria-roledescription="bar" d="M0,593.0731818025482h102.85714285714286v6.92681819745178h-102.85714285714286Z" fill="#7570b3"/></g></g><path class="foreground" aria-hidden="true" d="" display="none"/></g></g></g><path class="foreground" aria-hidden="true" d="" display="none"/></g><g transform="translate(234.28571428571425,591.2341702408498)"><path class="background" aria-hidden="true" d="M4.3829148795750825,0L98.47422797756778,0C100.89322455068358,0,102.85714285714286,1.9639183064592838,102.85714285714286,4.3829148795750825L102.85714285714286,8.765829759150165C102.85714285714286,8.765829759150165,102.85714285714286,8.765829759150165,102.85714285714286,8.765829759150165L0,8.765829759150165C0,8.765829759150165,0,8.765829759150165,0,8.765829759150165L0,4.3829148795750825C0,1.9639183064592838,1.9639183064592838,0,4.3829148795750825,0Z"/><g clip-path="url(#clip3)"><g class="mark-group role-scope" role="graphics-object" aria-roledescription="group mark container"><g transform="translate(0,-591.2341702408498)"><path class="background" aria-hidden="true" d="M0,0h102.85714285714286v0h-102.85714285714286Z"/><g><g class="mark-rect role-mark layer_0_marks" role="graphics-object" aria-roledescription="rect mark container"><path aria-label="Parser: pytomlpp&#xA;1.1.0; Execution Time (seconds, lower=better): 0.074626891; parser: pytomlpp; Execution Time (s): 0.0746; Slowdown: 3.72" role="graphics-symbol" aria-roledescription="bar" d="M0,591.2341702408498h102.85714285714286v8.765829759150165h-102.85714285714286Z" fill="#1b9e77"/></g></g><path class="foreground" aria-hidden="true" d="" display="none"/></g></g></g><path class="foreground" aria-hidden="true" d="" display="none"/></g><g transform="translate(348.57142857142856,578.316724116677)"><path class="background" aria-hidden="true" d="M6,0L96.85714285714286,0C100.16863300410687,0,102.85714285714286,2.688509853036,102.85714285714286,6L102.85714285714286,21.68327588332295C102.85714285714286,21.68327588332295,102.85714285714286,21.68327588332295,102.85714285714286,21.68327588332295L0,21.68327588332295C0,21.68327588332295,0,21.68327588332295,0,21.68327588332295L0,6C0,2.688509853036,2.688509853036,0,6,0Z"/><g clip-path="url(#clip4)"><g class="mark-group role-scope" role="graphics-object" aria-roledescription="group mark container"><g transform="translate(0,-578.316724116677)"><path class="background" aria-hidden="true" d="M0,0h102.85714285714286v0h-102.85714285714286Z"/><g><g class="mark-rect role-mark layer_0_marks" role="graphics-object" aria-roledescription="rect mark container"><path aria-label="Parser: tomllib&#xA;built-in; Execution Time (seconds, lower=better): 0.184598094; parser: tomllib; Execution Time (s): 0.1846; Slowdown: 9.20" role="graphics-symbol" aria-roledescription="bar" d="M0,578.316724116677h102.85714285714286v21.68327588332295h-102.85714285714286Z" fill="#a6761d"/></g></g><path class="foreground" aria-hidden="true" d="" display="none"/></g></g></g><path class="foreground" aria-hidden="true" d="" display="none"/></g><g transform="translate(462.85714285714283,518.7684449513208)"><path class="background" aria-hidden="true" d="M6,0L96.85714285714286,0C100.16863300410687,0,102.85714285714286,2.688509853036,102.85714285714286,6L102.85714285714286,81.23155504867918C102.85714285714286,81.23155504867918,102.85714285714286,81.23155504867918,102.85714285714286,81.23155504867918L0,81.23155504867918C0,81.23155504867918,0,81.23155504867918,0,81.23155504867918L0,6C0,2.688509853036,2.688509853036,0,6,0Z"/><g clip-path="url(#clip5)"><g class="mark-group role-scope" role="graphics-object" aria-roledescription="group mark container"><g transform="translate(0,-518.7684449513208)"><path class="background" aria-hidden="true" d="M0,0h102.85714285714286v0h-102.85714285714286Z"/><g><g class="mark-rect role-mark layer_0_marks" role="graphics-object" aria-roledescription="rect mark container"><path aria-label="Parser: toml&#xA;0.10.2; Execution Time (seconds, lower=better): 0.691555571; parser: toml; Execution Time (s): 0.6916; Slowdown: 34.47" role="graphics-symbol" aria-roledescription="bar" d="M0,518.7684449513208h102.85714285714286v81.23155504867918h-102.85714285714286Z" fill="#e7298a"/></g></g><path class="foreground" aria-hidden="true" d="" display="none"/></g></g></g><path class="foreground" aria-hidden="true" d="" display="none"/></g><g transform="translate(577.1428571428571,508.7795953281178)"><path class="background" aria-hidden="true" d="M6,0L96.85714285714286,0C100.16863300410687,0,102.85714285714286,2.688509853036,102.85714285714286,6L102.85714285714286,91.22040467188219C102.85714285714286,91.22040467188219,102.85714285714286,91.22040467188219,102.85714285714286,91.22040467188219L0,91.22040467188219C0,91.22040467188219,0,91.22040467188219,0,91.22040467188219L0,6C0,2.688509853036,2.688509853036,0,6,0Z"/><g clip-path="url(#clip6)"><g class="mark-group role-scope" role="graphics-object" aria-roledescription="group mark container"><g transform="translate(0,-508.7795953281178)"><path class="background" aria-hidden="true" d="M0,0h102.85714285714286v0h-102.85714285714286Z"/><g><g class="mark-rect role-mark layer_0_marks" role="graphics-object" aria-roledescription="rect mark container"><path aria-label="Parser: qtoml&#xA;0.3.1; Execution Time (seconds, lower=better): 0.776594502; parser: qtoml; Execution Time (s): 0.7766; Slowdown: 38.70" role="graphics-symbol" aria-roledescription="bar" d="M0,508.7795953281178h102.85714285714286v91.22040467188219h-102.85714285714286Z" fill="#d95f02"/></g></g><path class="foreground" aria-hidden="true" d="" display="none"/></g></g></g><path class="foreground" aria-hidden="true" d="" display="none"/></g><g transform="translate(691.4285714285714,28.571428571428605)"><path class="background" aria-hidden="true" d="M6,0L96.85714285714286,0C100.16863300410687,0,102.85714285714286,2.688509853036,102.85714285714286,6L102.85714285714286,571.4285714285714C102.85714285714286,571.4285714285714,102.85714285714286,571.4285714285714,102.85714285714286,571.4285714285714L0,571.4285714285714C0,571.4285714285714,0,571.4285714285714,0,571.4285714285714L0,6C0,2.688509853036,2.688509853036,0,6,0Z"/><g clip-path="url(#clip7)"><g class="mark-group role-scope" role="graphics-object" aria-roledescription="group mark container"><g transform="translate(0,-28.571428571428605)"><path class="background" aria-hidden="true" d="M0,0h102.85714285714286v0h-102.85714285714286Z"/><g><g class="mark-rect role-mark layer_0_marks" role="graphics-object" aria-roledescription="rect mark container"><path aria-label="Parser: tomlkit&#xA;0.15.0; Execution Time (seconds, lower=better): 4.864791912; parser: tomlkit; Execution Time (s): 4.8648; Slowdown: 242.46" role="graphics-symbol" aria-roledescription="bar" d="M0,28.571428571428605h102.85714285714286v571.4285714285714h-102.85714285714286Z" fill="#e6ab02"/></g></g><path class="foreground" aria-hidden="true" d="" display="none"/></g></g></g><path class="foreground" aria-hidden="true" d="" display="none"/></g></g><g class="mark-text role-mark layer_1_marks" role="graphics-object" aria-roledescription="text mark container"><text aria-label="Parser: toml_rs&#xA;0.3.14; Execution Time (seconds, lower=better): 0.020064502; parser: toml_rs; label: 0.0201s (x1.00); Execution Time (s): 0.0201; Slowdown: 1.00" role="graphics-symbol" aria-roledescription="text mark" text-anchor="middle" transform="translate(57.142857142857096,593.643181882867)" font-family="sans-serif" font-size="9px" font-weight="bold" fill="#66a61e">0.0201s (x1.00)</text><text aria-label="Parser: rtoml&#xA;0.13.0; Execution Time (seconds, lower=better): 0.058970676; parser: rtoml; label: 0.0590s (x2.94); Execution Time (s): 0.0590; Slowdown: 2.94" role="graphics-symbol" aria-roledescription="text mark" text-anchor="middle" transform="translate(171.4285714285714,589.0731818025482)" font-family="sans-serif" font-size="9px" font-weight="bold" fill="#7570b3">0.0590s (x2.94)</text><text aria-label="Parser: pytomlpp&#xA;1.1.0; Execution Time (seconds, lower=better): 0.074626891; parser: pytomlpp; label: 0.0746s (x3.72); Execution Time (s): 0.0746; Slowdown: 3.72" role="graphics-symbol" aria-roledescription="text mark" text-anchor="middle" transform="translate(285.71428571428567,587.2341702408498)" font-family="sans-serif" font-size="9px" font-weight="bold" fill="#1b9e77">0.0746s (x3.72)</text><text aria-label="Parser: tomllib&#xA;built-in; Execution Time (seconds, lower=better): 0.184598094; parser: tomllib; label: 0.1846s (x9.20); Execution Time (s): 0.1846; Slowdown: 9.20" role="graphics-symbol" aria-roledescription="text mark" text-anchor="middle" transform="translate(400,574.316724116677)" font-family="sans-serif" font-size="9px" font-weight="bold" fill="#a6761d">0.1846s (x9.20)</text><text aria-label="Parser: toml&#xA;0.10.2; Execution Time (seconds, lower=better): 0.691555571; parser: toml; label: 0.6916s (x34.47); Execution Time (s): 0.6916; Slowdown: 34.47" role="graphics-symbol" aria-roledescription="text mark" text-anchor="middle" transform="translate(514.2857142857142,514.7684449513208)" font-family="sans-serif" font-size="9px" font-weight="bold" fill="#e7298a">0.6916s (x34.47)</text><text aria-label="Parser: qtoml&#xA;0.3.1; Execution Time (seconds, lower=better): 0.776594502; parser: qtoml; label: 0.7766s (x38.70); Execution Time (s): 0.7766; Slowdown: 38.70" role="graphics-symbol" aria-roledescription="text mark" text-anchor="middle" transform="translate(628.5714285714286,504.7795953281178)" font-family="sans-serif" font-size="9px" font-weight="bold" fill="#d95f02">0.7766s (x38.70)</text><text aria-label="Parser: tomlkit&#xA;0.15.0; Execution Time (seconds, lower=better): 4.864791912; parser: tomlkit; label: 4.8648s (x242.46); Execution Time (s): 4.8648; Slowdown: 242.46" role="graphics-symbol" aria-roledescription="text mark" text-anchor="middle" transform="translate(742.8571428571429,24.571428571428605)" font-family="sans-serif" font-size="9px" font-weight="bold" fill="#e6ab02">4.8648s (x242.46)</text></g><g class="mark-group role-title"><g transform="translate(400,-31)"><path class="background" aria-hidden="true" d="M0,0h0v0h0Z" pointer-events="none"/><g><g class="mark-text role-title-text" role="graphics-symbol" aria-roledescription="title" aria-label="Title text 'TOML parsers benchmark (loads)'" pointer-events="none"><text text-anchor="middle" transform="translate(0,10)" font-family="sans-serif" font-size="13px" font-weight="bold" fill="#000" opacity="1">TOML parsers benchmark (loads)</text></g><g class="mark-text role-title-subtitle" role="graphics-symbol" aria-roledescription="subtitle" aria-label="Subtitle text 'Python: 3.14.6 (Linux 6.17.0-1018-azure) | CPU: AMD EPYC 9V74 80-Core Processor'" pointer-events="none"><text text-anchor="middle" transform="translate(0,25)" font-family="sans-serif" font-size="12px" fill="#000" opacity="1">Python: 3.14.6 (Linux 6.17.0-1018-azure) | CPU: AMD EPYC 9V74 80-Core Processor</text></g></g><path class="foreground" aria-hidden="true" d="" pointer-events="none" display="none"/></g></g></g><path class="foreground" aria-hidden="true" d="" display="none"/></g></g></g><defs><clipPath id="clip1"><path d="M1.1784090585665012,0L101.67873379857636,0C102.32911546299904,0,102.85714285714286,0.5280273941438193,102.85714285714286,1.1784090585665012L102.85714285714286,2.3568181171330025C102.85714285714286,2.3568181171330025,102.85714285714286,2.3568181171330025,102.85714285714286,2.3568181171330025L0,2.3568181171330025C0,2.3568181171330025,0,2.3568181171330025,0,2.3568181171330025L0,1.1784090585665012C0,0.5280273941438193,0.5280273941438193,0,1.1784090585665012,0Z"/></clipPath><clipPath id="clip2"><path d="M3.46340909872589,0L99.39373375841697,0C101.30524127597302,0,102.85714285714286,1.551901581169848,102.85714285714286,3.46340909872589L102.85714285714286,6.92681819745178C102.85714285714286,6.92681819745178,102.85714285714286,6.92681819745178,102.85714285714286,6.92681819745178L0,6.92681819745178C0,6.92681819745178,0,6.92681819745178,0,6.92681819745178L0,3.46340909872589C0,1.551901581169848,1.551901581169848,0,3.46340909872589,0Z"/></clipPath><clipPath id="clip3"><path d="M4.3829148795750825,0L98.47422797756778,0C100.89322455068358,0,102.85714285714286,1.9639183064592838,102.85714285714286,4.3829148795750825L102.85714285714286,8.765829759150165C102.85714285714286,8.765829759150165,102.85714285714286,8.765829759150165,102.85714285714286,8.765829759150165L0,8.765829759150165C0,8.765829759150165,0,8.765829759150165,0,8.765829759150165L0,4.3829148795750825C0,1.9639183064592838,1.9639183064592838,0,4.3829148795750825,0Z"/></clipPath><clipPath id="clip4"><path d="M6,0L96.85714285714286,0C100.16863300410687,0,102.85714285714286,2.688509853036,102.85714285714286,6L102.85714285714286,21.68327588332295C102.85714285714286,21.68327588332295,102.85714285714286,21.68327588332295,102.85714285714286,21.68327588332295L0,21.68327588332295C0,21.68327588332295,0,21.68327588332295,0,21.68327588332295L0,6C0,2.688509853036,2.688509853036,0,6,0Z"/></clipPath><clipPath id="clip5"><path d="M6,0L96.85714285714286,0C100.16863300410687,0,102.85714285714286,2.688509853036,102.85714285714286,6L102.85714285714286,81.23155504867918C102.85714285714286,81.23155504867918,102.85714285714286,81.23155504867918,102.85714285714286,81.23155504867918L0,81.23155504867918C0,81.23155504867918,0,81.23155504867918,0,81.23155504867918L0,6C0,2.688509853036,2.688509853036,0,6,0Z"/></clipPath><clipPath id="clip6"><path d="M6,0L96.85714285714286,0C100.16863300410687,0,102.85714285714286,2.688509853036,102.85714285714286,6L102.85714285714286,91.22040467188219C102.85714285714286,91.22040467188219,102.85714285714286,91.22040467188219,102.85714285714286,91.22040467188219L0,91.22040467188219C0,91.22040467188219,0,91.22040467188219,0,91.22040467188219L0,6C0,2.688509853036,2.688509853036,0,6,0Z"/></clipPath><clipPath id="clip7"><path d="M6,0L96.85714285714286,0C100.16863300410687,0,102.85714285714286,2.688509853036,102.85714285714286,6L102.85714285714286,571.4285714285714C102.85714285714286,571.4285714285714,102.85714285714286,571.4285714285714,102.85714285714286,571.4285714285714L0,571.4285714285714C0,571.4285714285714,0,571.4285714285714,0,571.4285714285714L0,6C0,2.688509853036,2.688509853036,0,6,0Z"/></clipPath></defs></svg>