<svg xmlns="http://www.w3.org/2000/svg" xmlns:xlink="http://www.w3.org/1999/xlink" version="1.1" class="marks" width="846" height="687" viewBox="0 0 846 687"><rect width="846" height="687" fill="white"/><g fill="none" stroke-miterlimit="10" transform="translate(41,36)"><g class="mark-group role-frame root" role="graphics-object" aria-roledescription="group mark container"><g transform="translate(0,0)"><path class="background" aria-hidden="true" d="M0.5,0.5h800v600h-800Z" stroke="#ddd"/><g><g class="mark-group role-axis" role="graphics-symbol" aria-roledescription="axis" aria-label="X-axis titled 'Parser' for a discrete scale with 7 values: toml_rs&#xA;0.3.16, rtoml&#xA;0.13.0, pytomlpp&#xA;1.1.0, tomllib&#xA;built-in, toml&#xA;0.10.2, qtoml&#xA;0.3.1, tomlkit&#xA;0.15.1"><g transform="translate(0.5,600.5)"><path class="background" aria-hidden="true" d="M0,0h0v0h0Z" pointer-events="none"/><g><g class="mark-rule role-axis-tick" pointer-events="none"><line transform="translate(57,0)" x2="0" y2="5" stroke="#888" stroke-width="1" opacity="1"/><line transform="translate(171,0)" x2="0" y2="5" stroke="#888" stroke-width="1" opacity="1"/><line transform="translate(285,0)" x2="0" y2="5" stroke="#888" stroke-width="1" opacity="1"/><line transform="translate(400,0)" x2="0" y2="5" stroke="#888" stroke-width="1" opacity="1"/><line transform="translate(514,0)" x2="0" y2="5" stroke="#888" stroke-width="1" opacity="1"/><line transform="translate(628,0)" x2="0" y2="5" stroke="#888" stroke-width="1" opacity="1"/><line transform="translate(742,0)" x2="0" y2="5" stroke="#888" stroke-width="1" opacity="1"/></g><g class="mark-text role-axis-label" pointer-events="none"><text text-anchor="middle" transform="translate(56.642857142857096,15)" font-family="sans-serif" font-size="10px" fill="#000" opacity="1"><tspan>toml_rs</tspan><tspan x="0" dy="14">0.3.16</tspan></text><text text-anchor="middle" transform="translate(170.9285714285714,15)" font-family="sans-serif" font-size="10px" fill="#000" opacity="1"><tspan>rtoml</tspan><tspan x="0" dy="14">0.13.0</tspan></text><text text-anchor="middle" transform="translate(285.21428571428567,15)" font-family="sans-serif" font-size="10px" fill="#000" opacity="1"><tspan>pytomlpp</tspan><tspan x="0" dy="14">1.1.0</tspan></text><text text-anchor="middle" transform="translate(399.5,15)" font-family="sans-serif" font-size="10px" fill="#000" opacity="1"><tspan>tomllib</tspan><tspan x="0" dy="14">built-in</tspan></text><text text-anchor="middle" transform="translate(513.7857142857142,15)" font-family="sans-serif" font-size="10px" fill="#000" opacity="1"><tspan>toml</tspan><tspan x="0" dy="14">0.10.2</tspan></text><text text-anchor="middle" transform="translate(628.0714285714286,15)" font-family="sans-serif" font-size="10px" fill="#000" opacity="1"><tspan>qtoml</tspan><tspan x="0" dy="14">0.3.1</tspan></text><text text-anchor="middle" transform="translate(742.3571428571429,15)" font-family="sans-serif" font-size="10px" fill="#000" opacity="1"><tspan>tomlkit</tspan><tspan x="0" dy="14">0.15.1</tspan></text></g><g class="mark-rule role-axis-domain" pointer-events="none"><line transform="translate(0,0)" x2="800" y2="0" stroke="#888" stroke-width="1" opacity="1"/></g><g class="mark-text role-axis-title" pointer-events="none"><text text-anchor="middle" transform="translate(400,44)" font-family="sans-serif" font-size="11px" font-weight="bold" fill="#000" opacity="1">Parser</text></g></g><path class="foreground" aria-hidden="true" d="" pointer-events="none" display="none"/></g></g><g class="mark-group role-axis" role="graphics-symbol" aria-roledescription="axis" aria-label="Y-axis titled 'Execution Time (seconds, lower=better)' for a linear scale with values from 0.0 to 2.2"><g transform="translate(0.5,0.5)"><path class="background" aria-hidden="true" d="M0,0h0v0h0Z" pointer-events="none"/><g><g class="mark-rule role-axis-tick" pointer-events="none"><line transform="translate(0,600)" x2="-5" y2="0" stroke="#888" stroke-width="1" opacity="1"/><line transform="translate(0,545)" x2="-5" y2="0" stroke="#888" stroke-width="1" opacity="1"/><line transform="translate(0,491)" x2="-5" y2="0" stroke="#888" stroke-width="1" opacity="1"/><line transform="translate(0,436)" x2="-5" y2="0" stroke="#888" stroke-width="1" opacity="1"/><line transform="translate(0,382)" x2="-5" y2="0" stroke="#888" stroke-width="1" opacity="1"/><line transform="translate(0,327)" x2="-5" y2="0" stroke="#888" stroke-width="1" opacity="1"/><line transform="translate(0,272)" x2="-5" y2="0" stroke="#888" stroke-width="1" opacity="1"/><line transform="translate(0,218)" x2="-5" y2="0" stroke="#888" stroke-width="1" opacity="1"/><line transform="translate(0,163)" x2="-5" y2="0" stroke="#888" stroke-width="1" opacity="1"/><line transform="translate(0,108)" x2="-5" y2="0" stroke="#888" stroke-width="1" opacity="1"/><line transform="translate(0,54)" x2="-5" y2="0" stroke="#888" stroke-width="1" opacity="1"/></g><g class="mark-text role-axis-label" pointer-events="none"><text text-anchor="end" transform="translate(-7,603)" font-family="sans-serif" font-size="10px" fill="#000" opacity="1">0.0</text><text text-anchor="end" transform="translate(-7,548.3850980712238)" font-family="sans-serif" font-size="10px" fill="#000" opacity="1">0.2</text><text text-anchor="end" transform="translate(-7,493.7701961424476)" font-family="sans-serif" font-size="10px" fill="#000" opacity="1">0.4</text><text text-anchor="end" transform="translate(-7,439.1552942136714)" font-family="sans-serif" font-size="10px" fill="#000" opacity="1">0.6</text><text text-anchor="end" transform="translate(-7,384.54039228489523)" font-family="sans-serif" font-size="10px" fill="#000" opacity="1">0.8</text><text text-anchor="end" transform="translate(-7,329.92549035611904)" font-family="sans-serif" font-size="10px" fill="#000" opacity="1">1.0</text><text text-anchor="end" transform="translate(-7,275.3105884273429)" font-family="sans-serif" font-size="10px" fill="#000" opacity="1">1.2</text><text text-anchor="end" transform="translate(-7,220.69568649856677)" font-family="sans-serif" font-size="10px" fill="#000" opacity="1">1.4</text><text text-anchor="end" transform="translate(-7,166.0807845697905)" font-family="sans-serif" font-size="10px" fill="#000" opacity="1">1.6</text><text text-anchor="end" transform="translate(-7,111.46588264101436)" font-family="sans-serif" font-size="10px" fill="#000" opacity="1">1.8</text><text text-anchor="end" transform="translate(-7,56.85098071223815)" font-family="sans-serif" font-size="10px" fill="#000" opacity="1">2.0</text></g><g class="mark-rule role-axis-domain" pointer-events="none"><line transform="translate(0,600)" x2="0" y2="-600" stroke="#888" stroke-width="1" opacity="1"/></g><g class="mark-text role-axis-title" pointer-events="none"><text text-anchor="middle" transform="translate(-24.9013671875,300) rotate(-90) translate(0,-2)" font-family="sans-serif" font-size="11px" font-weight="bold" fill="#000" opacity="1">Execution Time (seconds, lower=better)</text></g></g><path class="foreground" aria-hidden="true" d="" pointer-events="none" display="none"/></g></g><g class="mark-group role-scope" role="graphics-object" aria-roledescription="group mark container"><g transform="translate(5.714285714285666,594.5212957361864)"><path class="background" aria-hidden="true" d="M2.7393521319067986,0L100.11779072523606,0C101.62968032421509,0,102.85714285714286,1.2274625329277669,102.85714285714286,2.7393521319067986L102.85714285714286,5.478704263813597C102.85714285714286,5.478704263813597,102.85714285714286,5.478704263813597,102.85714285714286,5.478704263813597L0,5.478704263813597C0,5.478704263813597,0,5.478704263813597,0,5.478704263813597L0,2.7393521319067986C0,1.2274625329277669,1.2274625329277669,0,2.7393521319067986,0Z"/><g clip-path="url(#clip1)"><g class="mark-group role-scope" role="graphics-object" aria-roledescription="group mark container"><g transform="translate(0,-594.5212957361864)"><path class="background" aria-hidden="true" d="M0,0h102.85714285714286v0h-102.85714285714286Z"/><g><g class="mark-rect role-mark layer_0_marks" role="graphics-object" aria-roledescription="rect mark container"><path aria-label="Parser: toml_rs&#xA;0.3.16; Execution Time (seconds, lower=better): 0.020063038; parser: toml_rs; Execution Time (s): 0.0201; Slowdown: 1.00" role="graphics-symbol" aria-roledescription="bar" d="M0,594.5212957361864h102.85714285714286v5.478704263813597h-102.85714285714286Z" fill="#66a61e"/></g></g><path class="foreground" aria-hidden="true" d="" display="none"/></g></g></g><path class="foreground" aria-hidden="true" d="" display="none"/></g><g transform="translate(119.99999999999996,583.9158324634401)"><path class="background" aria-hidden="true" d="M6,0L96.85714285714286,0C100.16863300410687,0,102.85714285714286,2.688509853036,102.85714285714286,6L102.85714285714286,16.084167536559903C102.85714285714286,16.084167536559903,102.85714285714286,16.084167536559903,102.85714285714286,16.084167536559903L0,16.084167536559903C0,16.084167536559903,0,16.084167536559903,0,16.084167536559903L0,6C0,2.688509853036,2.688509853036,0,6,0Z"/><g clip-path="url(#clip2)"><g class="mark-group role-scope" role="graphics-object" aria-roledescription="group mark container"><g transform="translate(0,-583.9158324634401)"><path class="background" aria-hidden="true" d="M0,0h102.85714285714286v0h-102.85714285714286Z"/><g><g class="mark-rect role-mark layer_0_marks" role="graphics-object" aria-roledescription="rect mark container"><path aria-label="Parser: rtoml&#xA;0.13.0; Execution Time (seconds, lower=better): 0.058900289; parser: rtoml; Execution Time (s): 0.0589; Slowdown: 2.94" role="graphics-symbol" aria-roledescription="bar" d="M0,583.9158324634401h102.85714285714286v16.084167536559903h-102.85714285714286Z" fill="#7570b3"/></g></g><path class="foreground" aria-hidden="true" d="" display="none"/></g></g></g><path class="foreground" aria-hidden="true" d="" display="none"/></g><g transform="translate(234.28571428571425,580.5999872727352)"><path class="background" aria-hidden="true" d="M6,0L96.85714285714286,0C100.16863300410687,0,102.85714285714286,2.688509853036,102.85714285714286,6L102.85714285714286,19.400012727264766C102.85714285714286,19.400012727264766,102.85714285714286,19.400012727264766,102.85714285714286,19.400012727264766L0,19.400012727264766C0,19.400012727264766,0,19.400012727264766,0,19.400012727264766L0,6C0,2.688509853036,2.688509853036,0,6,0Z"/><g clip-path="url(#clip3)"><g class="mark-group role-scope" role="graphics-object" aria-roledescription="group mark container"><g transform="translate(0,-580.5999872727352)"><path class="background" aria-hidden="true" d="M0,0h102.85714285714286v0h-102.85714285714286Z"/><g><g class="mark-rect role-mark layer_0_marks" role="graphics-object" aria-roledescription="rect mark container"><path aria-label="Parser: pytomlpp&#xA;1.1.0; Execution Time (seconds, lower=better): 0.071042928; parser: pytomlpp; Execution Time (s): 0.0710; Slowdown: 3.54" role="graphics-symbol" aria-roledescription="bar" d="M0,580.5999872727352h102.85714285714286v19.400012727264766h-102.85714285714286Z" fill="#1b9e77"/></g></g><path class="foreground" aria-hidden="true" d="" display="none"/></g></g></g><path class="foreground" aria-hidden="true" d="" display="none"/></g><g transform="translate(348.57142857142856,554.6143157879965)"><path class="background" aria-hidden="true" d="M6,0L96.85714285714286,0C100.16863300410687,0,102.85714285714286,2.688509853036,102.85714285714286,6L102.85714285714286,45.385684212003525C102.85714285714286,45.385684212003525,102.85714285714286,45.385684212003525,102.85714285714286,45.385684212003525L0,45.385684212003525C0,45.385684212003525,0,45.385684212003525,0,45.385684212003525L0,6C0,2.688509853036,2.688509853036,0,6,0Z"/><g clip-path="url(#clip4)"><g class="mark-group role-scope" role="graphics-object" aria-roledescription="group mark container"><g transform="translate(0,-554.6143157879965)"><path class="background" aria-hidden="true" d="M0,0h102.85714285714286v0h-102.85714285714286Z"/><g><g class="mark-rect role-mark layer_0_marks" role="graphics-object" aria-roledescription="rect mark container"><path aria-label="Parser: tomllib&#xA;built-in; Execution Time (seconds, lower=better): 0.166202566; parser: tomllib; Execution Time (s): 0.1662; Slowdown: 8.28" role="graphics-symbol" aria-roledescription="bar" d="M0,554.6143157879965h102.85714285714286v45.385684212003525h-102.85714285714286Z" fill="#a6761d"/></g></g><path class="foreground" aria-hidden="true" d="" display="none"/></g></g></g><path class="foreground" aria-hidden="true" d="" display="none"/></g><g transform="translate(462.85714285714283,448.5049938823886)"><path class="background" aria-hidden="true" d="M6,0L96.85714285714286,0C100.16863300410687,0,102.85714285714286,2.688509853036,102.85714285714286,6L102.85714285714286,151.4950061176114C102.85714285714286,151.4950061176114,102.85714285714286,151.4950061176114,102.85714285714286,151.4950061176114L0,151.4950061176114C0,151.4950061176114,0,151.4950061176114,0,151.4950061176114L0,6C0,2.688509853036,2.688509853036,0,6,0Z"/><g clip-path="url(#clip5)"><g class="mark-group role-scope" role="graphics-object" aria-roledescription="group mark container"><g transform="translate(0,-448.5049938823886)"><path class="background" aria-hidden="true" d="M0,0h102.85714285714286v0h-102.85714285714286Z"/><g><g class="mark-rect role-mark layer_0_marks" role="graphics-object" aria-roledescription="rect mark container"><path aria-label="Parser: toml&#xA;0.10.2; Execution Time (seconds, lower=better): 0.554775348; parser: toml; Execution Time (s): 0.5548; Slowdown: 27.65" role="graphics-symbol" aria-roledescription="bar" d="M0,448.5049938823886h102.85714285714286v151.4950061176114h-102.85714285714286Z" fill="#e7298a"/></g></g><path class="foreground" aria-hidden="true" d="" display="none"/></g></g></g><path class="foreground" aria-hidden="true" d="" display="none"/></g><g transform="translate(577.1428571428571,407.0989170716788)"><path class="background" aria-hidden="true" d="M6,0L96.85714285714286,0C100.16863300410687,0,102.85714285714286,2.688509853036,102.85714285714286,6L102.85714285714286,192.90108292832122C102.85714285714286,192.90108292832122,102.85714285714286,192.90108292832122,102.85714285714286,192.90108292832122L0,192.90108292832122C0,192.90108292832122,0,192.90108292832122,0,192.90108292832122L0,6C0,2.688509853036,2.688509853036,0,6,0Z"/><g clip-path="url(#clip6)"><g class="mark-group role-scope" role="graphics-object" aria-roledescription="group mark container"><g transform="translate(0,-407.0989170716788)"><path class="background" aria-hidden="true" d="M0,0h102.85714285714286v0h-102.85714285714286Z"/><g><g class="mark-rect role-mark layer_0_marks" role="graphics-object" aria-roledescription="rect mark container"><path aria-label="Parser: qtoml&#xA;0.3.1; Execution Time (seconds, lower=better): 0.706404575; parser: qtoml; Execution Time (s): 0.7064; Slowdown: 35.21" role="graphics-symbol" aria-roledescription="bar" d="M0,407.0989170716788h102.85714285714286v192.90108292832122h-102.85714285714286Z" fill="#d95f02"/></g></g><path class="foreground" aria-hidden="true" d="" display="none"/></g></g></g><path class="foreground" aria-hidden="true" d="" display="none"/></g><g transform="translate(691.4285714285714,28.571428571428605)"><path class="background" aria-hidden="true" d="M6,0L96.85714285714286,0C100.16863300410687,0,102.85714285714286,2.688509853036,102.85714285714286,6L102.85714285714286,571.4285714285714C102.85714285714286,571.4285714285714,102.85714285714286,571.4285714285714,102.85714285714286,571.4285714285714L0,571.4285714285714C0,571.4285714285714,0,571.4285714285714,0,571.4285714285714L0,6C0,2.688509853036,2.688509853036,0,6,0Z"/><g clip-path="url(#clip7)"><g class="mark-group role-scope" role="graphics-object" aria-roledescription="group mark container"><g transform="translate(0,-28.571428571428605)"><path class="background" aria-hidden="true" d="M0,0h102.85714285714286v0h-102.85714285714286Z"/><g><g class="mark-rect role-mark layer_0_marks" role="graphics-object" aria-roledescription="rect mark container"><path aria-label="Parser: tomlkit&#xA;0.15.1; Execution Time (seconds, lower=better): 2.092573826; parser: tomlkit; Execution Time (s): 2.0926; Slowdown: 104.30" role="graphics-symbol" aria-roledescription="bar" d="M0,28.571428571428605h102.85714285714286v571.4285714285714h-102.85714285714286Z" fill="#e6ab02"/></g></g><path class="foreground" aria-hidden="true" d="" display="none"/></g></g></g><path class="foreground" aria-hidden="true" d="" display="none"/></g></g><g class="mark-text role-mark layer_1_marks" role="graphics-object" aria-roledescription="text mark container"><text aria-label="Parser: toml_rs&#xA;0.3.16; Execution Time (seconds, lower=better): 0.020063038; parser: toml_rs; label: 0.0201s (x1.00); Execution Time (s): 0.0201; Slowdown: 1.00" role="graphics-symbol" aria-roledescription="text mark" text-anchor="middle" transform="translate(57.142857142857096,590.5212957361864)" font-family="sans-serif" font-size="9px" font-weight="bold" fill="#66a61e">0.0201s (x1.00)</text><text aria-label="Parser: rtoml&#xA;0.13.0; Execution Time (seconds, lower=better): 0.058900289; parser: rtoml; label: 0.0589s (x2.94); Execution Time (s): 0.0589; Slowdown: 2.94" role="graphics-symbol" aria-roledescription="text mark" text-anchor="middle" transform="translate(171.4285714285714,579.9158324634401)" font-family="sans-serif" font-size="9px" font-weight="bold" fill="#7570b3">0.0589s (x2.94)</text><text aria-label="Parser: pytomlpp&#xA;1.1.0; Execution Time (seconds, lower=better): 0.071042928; parser: pytomlpp; label: 0.0710s (x3.54); Execution Time (s): 0.0710; Slowdown: 3.54" role="graphics-symbol" aria-roledescription="text mark" text-anchor="middle" transform="translate(285.71428571428567,576.5999872727352)" font-family="sans-serif" font-size="9px" font-weight="bold" fill="#1b9e77">0.0710s (x3.54)</text><text aria-label="Parser: tomllib&#xA;built-in; Execution Time (seconds, lower=better): 0.166202566; parser: tomllib; label: 0.1662s (x8.28); Execution Time (s): 0.1662; Slowdown: 8.28" role="graphics-symbol" aria-roledescription="text mark" text-anchor="middle" transform="translate(400,550.6143157879965)" font-family="sans-serif" font-size="9px" font-weight="bold" fill="#a6761d">0.1662s (x8.28)</text><text aria-label="Parser: toml&#xA;0.10.2; Execution Time (seconds, lower=better): 0.554775348; parser: toml; label: 0.5548s (x27.65); Execution Time (s): 0.5548; Slowdown: 27.65" role="graphics-symbol" aria-roledescription="text mark" text-anchor="middle" transform="translate(514.2857142857142,444.5049938823886)" font-family="sans-serif" font-size="9px" font-weight="bold" fill="#e7298a">0.5548s (x27.65)</text><text aria-label="Parser: qtoml&#xA;0.3.1; Execution Time (seconds, lower=better): 0.706404575; parser: qtoml; label: 0.7064s (x35.21); Execution Time (s): 0.7064; Slowdown: 35.21" role="graphics-symbol" aria-roledescription="text mark" text-anchor="middle" transform="translate(628.5714285714286,403.0989170716788)" font-family="sans-serif" font-size="9px" font-weight="bold" fill="#d95f02">0.7064s (x35.21)</text><text aria-label="Parser: tomlkit&#xA;0.15.1; Execution Time (seconds, lower=better): 2.092573826; parser: tomlkit; label: 2.0926s (x104.30); Execution Time (s): 2.0926; Slowdown: 104.30" role="graphics-symbol" aria-roledescription="text mark" text-anchor="middle" transform="translate(742.8571428571429,24.571428571428605)" font-family="sans-serif" font-size="9px" font-weight="bold" fill="#e6ab02">2.0926s (x104.30)</text></g><g class="mark-group role-title"><g transform="translate(400,-31)"><path class="background" aria-hidden="true" d="M0,0h0v0h0Z" pointer-events="none"/><g><g class="mark-text role-title-text" role="graphics-symbol" aria-roledescription="title" aria-label="Title text 'TOML parsers benchmark (loads)'" pointer-events="none"><text text-anchor="middle" transform="translate(0,10)" font-family="sans-serif" font-size="13px" font-weight="bold" fill="#000" opacity="1">TOML parsers benchmark (loads)</text></g><g class="mark-text role-title-subtitle" role="graphics-symbol" aria-roledescription="subtitle" aria-label="Subtitle text 'Python: 3.14.6 (Linux 6.17.0-1020-azure) | CPU: INTEL(R) XEON(R) PLATINUM 8573C'" pointer-events="none"><text text-anchor="middle" transform="translate(0,25)" font-family="sans-serif" font-size="12px" fill="#000" opacity="1">Python: 3.14.6 (Linux 6.17.0-1020-azure) | CPU: INTEL(R) XEON(R) PLATINUM 8573C</text></g></g><path class="foreground" aria-hidden="true" d="" pointer-events="none" display="none"/></g></g></g><path class="foreground" aria-hidden="true" d="" display="none"/></g></g></g><defs><clipPath id="clip1"><path d="M2.7393521319067986,0L100.11779072523606,0C101.62968032421509,0,102.85714285714286,1.2274625329277669,102.85714285714286,2.7393521319067986L102.85714285714286,5.478704263813597C102.85714285714286,5.478704263813597,102.85714285714286,5.478704263813597,102.85714285714286,5.478704263813597L0,5.478704263813597C0,5.478704263813597,0,5.478704263813597,0,5.478704263813597L0,2.7393521319067986C0,1.2274625329277669,1.2274625329277669,0,2.7393521319067986,0Z"/></clipPath><clipPath id="clip2"><path d="M6,0L96.85714285714286,0C100.16863300410687,0,102.85714285714286,2.688509853036,102.85714285714286,6L102.85714285714286,16.084167536559903C102.85714285714286,16.084167536559903,102.85714285714286,16.084167536559903,102.85714285714286,16.084167536559903L0,16.084167536559903C0,16.084167536559903,0,16.084167536559903,0,16.084167536559903L0,6C0,2.688509853036,2.688509853036,0,6,0Z"/></clipPath><clipPath id="clip3"><path d="M6,0L96.85714285714286,0C100.16863300410687,0,102.85714285714286,2.688509853036,102.85714285714286,6L102.85714285714286,19.400012727264766C102.85714285714286,19.400012727264766,102.85714285714286,19.400012727264766,102.85714285714286,19.400012727264766L0,19.400012727264766C0,19.400012727264766,0,19.400012727264766,0,19.400012727264766L0,6C0,2.688509853036,2.688509853036,0,6,0Z"/></clipPath><clipPath id="clip4"><path d="M6,0L96.85714285714286,0C100.16863300410687,0,102.85714285714286,2.688509853036,102.85714285714286,6L102.85714285714286,45.385684212003525C102.85714285714286,45.385684212003525,102.85714285714286,45.385684212003525,102.85714285714286,45.385684212003525L0,45.385684212003525C0,45.385684212003525,0,45.385684212003525,0,45.385684212003525L0,6C0,2.688509853036,2.688509853036,0,6,0Z"/></clipPath><clipPath id="clip5"><path d="M6,0L96.85714285714286,0C100.16863300410687,0,102.85714285714286,2.688509853036,102.85714285714286,6L102.85714285714286,151.4950061176114C102.85714285714286,151.4950061176114,102.85714285714286,151.4950061176114,102.85714285714286,151.4950061176114L0,151.4950061176114C0,151.4950061176114,0,151.4950061176114,0,151.4950061176114L0,6C0,2.688509853036,2.688509853036,0,6,0Z"/></clipPath><clipPath id="clip6"><path d="M6,0L96.85714285714286,0C100.16863300410687,0,102.85714285714286,2.688509853036,102.85714285714286,6L102.85714285714286,192.90108292832122C102.85714285714286,192.90108292832122,102.85714285714286,192.90108292832122,102.85714285714286,192.90108292832122L0,192.90108292832122C0,192.90108292832122,0,192.90108292832122,0,192.90108292832122L0,6C0,2.688509853036,2.688509853036,0,6,0Z"/></clipPath><clipPath id="clip7"><path d="M6,0L96.85714285714286,0C100.16863300410687,0,102.85714285714286,2.688509853036,102.85714285714286,6L102.85714285714286,571.4285714285714C102.85714285714286,571.4285714285714,102.85714285714286,571.4285714285714,102.85714285714286,571.4285714285714L0,571.4285714285714C0,571.4285714285714,0,571.4285714285714,0,571.4285714285714L0,6C0,2.688509853036,2.688509853036,0,6,0Z"/></clipPath></defs></svg>