<svg xmlns="http://www.w3.org/2000/svg" xmlns:xlink="http://www.w3.org/1999/xlink" version="1.1" class="marks" width="846" height="687" viewBox="0 0 846 687"><rect width="846" height="687" fill="white"/><g fill="none" stroke-miterlimit="10" transform="translate(41,36)"><g class="mark-group role-frame root" role="graphics-object" aria-roledescription="group mark container"><g transform="translate(0,0)"><path class="background" aria-hidden="true" d="M0.5,0.5h800v600h-800Z" stroke="#ddd"/><g><g class="mark-group role-axis" role="graphics-symbol" aria-roledescription="axis" aria-label="X-axis titled 'Parser' for a discrete scale with 7 values: rtoml&#xA;0.13.0, toml_rs&#xA;0.3.14, pytomlpp&#xA;1.1.0, toml&#xA;0.10.2, tomli-w&#xA;1.2.0, qtoml&#xA;0.3.1, tomlkit&#xA;0.15.0"><g transform="translate(0.5,600.5)"><path class="background" aria-hidden="true" d="M0,0h0v0h0Z" pointer-events="none"/><g><g class="mark-rule role-axis-tick" pointer-events="none"><line transform="translate(57,0)" x2="0" y2="5" stroke="#888" stroke-width="1" opacity="1"/><line transform="translate(171,0)" x2="0" y2="5" stroke="#888" stroke-width="1" opacity="1"/><line transform="translate(285,0)" x2="0" y2="5" stroke="#888" stroke-width="1" opacity="1"/><line transform="translate(400,0)" x2="0" y2="5" stroke="#888" stroke-width="1" opacity="1"/><line transform="translate(514,0)" x2="0" y2="5" stroke="#888" stroke-width="1" opacity="1"/><line transform="translate(628,0)" x2="0" y2="5" stroke="#888" stroke-width="1" opacity="1"/><line transform="translate(742,0)" x2="0" y2="5" stroke="#888" stroke-width="1" opacity="1"/></g><g class="mark-text role-axis-label" pointer-events="none"><text text-anchor="middle" transform="translate(56.642857142857096,15)" font-family="sans-serif" font-size="10px" fill="#000" opacity="1"><tspan>rtoml</tspan><tspan x="0" dy="14">0.13.0</tspan></text><text text-anchor="middle" transform="translate(170.9285714285714,15)" font-family="sans-serif" font-size="10px" fill="#000" opacity="1"><tspan>toml_rs</tspan><tspan x="0" dy="14">0.3.14</tspan></text><text text-anchor="middle" transform="translate(285.21428571428567,15)" font-family="sans-serif" font-size="10px" fill="#000" opacity="1"><tspan>pytomlpp</tspan><tspan x="0" dy="14">1.1.0</tspan></text><text text-anchor="middle" transform="translate(399.5,15)" font-family="sans-serif" font-size="10px" fill="#000" opacity="1"><tspan>toml</tspan><tspan x="0" dy="14">0.10.2</tspan></text><text text-anchor="middle" transform="translate(513.7857142857142,15)" font-family="sans-serif" font-size="10px" fill="#000" opacity="1"><tspan>tomli-w</tspan><tspan x="0" dy="14">1.2.0</tspan></text><text text-anchor="middle" transform="translate(628.0714285714286,15)" font-family="sans-serif" font-size="10px" fill="#000" opacity="1"><tspan>qtoml</tspan><tspan x="0" dy="14">0.3.1</tspan></text><text text-anchor="middle" transform="translate(742.3571428571429,15)" font-family="sans-serif" font-size="10px" fill="#000" opacity="1"><tspan>tomlkit</tspan><tspan x="0" dy="14">0.15.0</tspan></text></g><g class="mark-rule role-axis-domain" pointer-events="none"><line transform="translate(0,0)" x2="800" y2="0" stroke="#888" stroke-width="1" opacity="1"/></g><g class="mark-text role-axis-title" pointer-events="none"><text text-anchor="middle" transform="translate(400,44)" font-family="sans-serif" font-size="11px" font-weight="bold" fill="#000" opacity="1">Parser</text></g></g><path class="foreground" aria-hidden="true" d="" pointer-events="none" display="none"/></g></g><g class="mark-group role-axis" role="graphics-symbol" aria-roledescription="axis" aria-label="Y-axis titled 'Execution Time (seconds, lower=better)' for a linear scale with values from 0.0 to 2.6"><g transform="translate(0.5,0.5)"><path class="background" aria-hidden="true" d="M0,0h0v0h0Z" pointer-events="none"/><g><g class="mark-rule role-axis-tick" pointer-events="none"><line transform="translate(0,600)" x2="-5" y2="0" stroke="#888" stroke-width="1" opacity="1"/><line transform="translate(0,553)" x2="-5" y2="0" stroke="#888" stroke-width="1" opacity="1"/><line transform="translate(0,506)" x2="-5" y2="0" stroke="#888" stroke-width="1" opacity="1"/><line transform="translate(0,459)" x2="-5" y2="0" stroke="#888" stroke-width="1" opacity="1"/><line transform="translate(0,413)" x2="-5" y2="0" stroke="#888" stroke-width="1" opacity="1"/><line transform="translate(0,366)" x2="-5" y2="0" stroke="#888" stroke-width="1" opacity="1"/><line transform="translate(0,319)" x2="-5" y2="0" stroke="#888" stroke-width="1" opacity="1"/><line transform="translate(0,272)" x2="-5" y2="0" stroke="#888" stroke-width="1" opacity="1"/><line transform="translate(0,225)" x2="-5" y2="0" stroke="#888" stroke-width="1" opacity="1"/><line transform="translate(0,178)" x2="-5" y2="0" stroke="#888" stroke-width="1" opacity="1"/><line transform="translate(0,132)" x2="-5" y2="0" stroke="#888" stroke-width="1" opacity="1"/><line transform="translate(0,85)" x2="-5" y2="0" stroke="#888" stroke-width="1" opacity="1"/><line transform="translate(0,38)" x2="-5" y2="0" stroke="#888" stroke-width="1" opacity="1"/></g><g class="mark-text role-axis-label" pointer-events="none"><text text-anchor="end" transform="translate(-7,603)" font-family="sans-serif" font-size="10px" fill="#000" opacity="1">0.0</text><text text-anchor="end" transform="translate(-7,556.153403816839)" font-family="sans-serif" font-size="10px" fill="#000" opacity="1">0.2</text><text text-anchor="end" transform="translate(-7,509.3068076336781)" font-family="sans-serif" font-size="10px" fill="#000" opacity="1">0.4</text><text text-anchor="end" transform="translate(-7,462.4602114505172)" font-family="sans-serif" font-size="10px" fill="#000" opacity="1">0.6</text><text text-anchor="end" transform="translate(-7,415.6136152673562)" font-family="sans-serif" font-size="10px" fill="#000" opacity="1">0.8</text><text text-anchor="end" transform="translate(-7,368.7670190841953)" font-family="sans-serif" font-size="10px" fill="#000" opacity="1">1.0</text><text text-anchor="end" transform="translate(-7,321.9204229010344)" font-family="sans-serif" font-size="10px" fill="#000" opacity="1">1.2</text><text text-anchor="end" transform="translate(-7,275.07382671787343)" font-family="sans-serif" font-size="10px" fill="#000" opacity="1">1.4</text><text text-anchor="end" transform="translate(-7,228.22723053471248)" font-family="sans-serif" font-size="10px" fill="#000" opacity="1">1.6</text><text text-anchor="end" transform="translate(-7,181.3806343515515)" font-family="sans-serif" font-size="10px" fill="#000" opacity="1">1.8</text><text text-anchor="end" transform="translate(-7,134.53403816839057)" font-family="sans-serif" font-size="10px" fill="#000" opacity="1">2.0</text><text text-anchor="end" transform="translate(-7,87.6874419852296)" font-family="sans-serif" font-size="10px" fill="#000" opacity="1">2.2</text><text text-anchor="end" transform="translate(-7,40.84084580206874)" font-family="sans-serif" font-size="10px" fill="#000" opacity="1">2.4</text></g><g class="mark-rule role-axis-domain" pointer-events="none"><line transform="translate(0,600)" x2="0" y2="-600" stroke="#888" stroke-width="1" opacity="1"/></g><g class="mark-text role-axis-title" pointer-events="none"><text text-anchor="middle" transform="translate(-24.9013671875,300) rotate(-90) translate(0,-2)" font-family="sans-serif" font-size="11px" font-weight="bold" fill="#000" opacity="1">Execution Time (seconds, lower=better)</text></g></g><path class="foreground" aria-hidden="true" d="" pointer-events="none" display="none"/></g></g><g class="mark-group role-scope" role="graphics-object" aria-roledescription="group mark container"><g transform="translate(5.714285714285666,592.1211621395503)"><path class="background" aria-hidden="true" d="M3.9394189302248606,0L98.917723926918,0C101.09194842228518,0,102.85714285714286,1.7651944348576794,102.85714285714286,3.9394189302248606L102.85714285714286,7.878837860449721C102.85714285714286,7.878837860449721,102.85714285714286,7.878837860449721,102.85714285714286,7.878837860449721L0,7.878837860449721C0,7.878837860449721,0,7.878837860449721,0,7.878837860449721L0,3.9394189302248606C0,1.7651944348576794,1.7651944348576794,0,3.9394189302248606,0Z"/><g clip-path="url(#clip8)"><g class="mark-group role-scope" role="graphics-object" aria-roledescription="group mark container"><g transform="translate(0,-592.1211621395503)"><path class="background" aria-hidden="true" d="M0,0h102.85714285714286v0h-102.85714285714286Z"/><g><g class="mark-rect role-mark layer_0_marks" role="graphics-object" aria-roledescription="rect mark container"><path aria-label="Parser: rtoml&#xA;0.13.0; Execution Time (seconds, lower=better): 0.033636757; parser: rtoml; Execution Time (s): 0.0336; Slowdown: 1.00" role="graphics-symbol" aria-roledescription="bar" d="M0,592.1211621395503h102.85714285714286v7.878837860449721h-102.85714285714286Z" fill="#7570b3"/></g></g><path class="foreground" aria-hidden="true" d="" display="none"/></g></g></g><path class="foreground" aria-hidden="true" d="" display="none"/></g><g transform="translate(119.99999999999996,590.7972611693368)"><path class="background" aria-hidden="true" d="M4.60136941533159,0L98.25577344181127,0C100.79533835537995,0,102.85714285714286,2.061804501762913,102.85714285714286,4.60136941533159L102.85714285714286,9.20273883066318C102.85714285714286,9.20273883066318,102.85714285714286,9.20273883066318,102.85714285714286,9.20273883066318L0,9.20273883066318C0,9.20273883066318,0,9.20273883066318,0,9.20273883066318L0,4.60136941533159C0,2.061804501762913,2.061804501762913,0,4.60136941533159,0Z"/><g clip-path="url(#clip9)"><g class="mark-group role-scope" role="graphics-object" aria-roledescription="group mark container"><g transform="translate(0,-590.7972611693368)"><path class="background" aria-hidden="true" d="M0,0h102.85714285714286v0h-102.85714285714286Z"/><g><g class="mark-rect role-mark layer_0_marks" role="graphics-object" aria-roledescription="rect mark container"><path aria-label="Parser: toml_rs&#xA;0.3.14; Execution Time (seconds, lower=better): 0.039288826; parser: toml_rs; Execution Time (s): 0.0393; Slowdown: 1.17" role="graphics-symbol" aria-roledescription="bar" d="M0,590.7972611693368h102.85714285714286v9.20273883066318h-102.85714285714286Z" fill="#66a61e"/></g></g><path class="foreground" aria-hidden="true" d="" display="none"/></g></g></g><path class="foreground" aria-hidden="true" d="" display="none"/></g><g transform="translate(234.28571428571425,586.9892262117859)"><path class="background" aria-hidden="true" d="M6,0L96.85714285714286,0C100.16863300410687,0,102.85714285714286,2.688509853036,102.85714285714286,6L102.85714285714286,13.010773788214124C102.85714285714286,13.010773788214124,102.85714285714286,13.010773788214124,102.85714285714286,13.010773788214124L0,13.010773788214124C0,13.010773788214124,0,13.010773788214124,0,13.010773788214124L0,6C0,2.688509853036,2.688509853036,0,6,0Z"/><g clip-path="url(#clip10)"><g class="mark-group role-scope" role="graphics-object" aria-roledescription="group mark container"><g transform="translate(0,-586.9892262117859)"><path class="background" aria-hidden="true" d="M0,0h102.85714285714286v0h-102.85714285714286Z"/><g><g class="mark-rect role-mark layer_0_marks" role="graphics-object" aria-roledescription="rect mark container"><path aria-label="Parser: pytomlpp&#xA;1.1.0; Execution Time (seconds, lower=better): 0.055546293; parser: pytomlpp; Execution Time (s): 0.0555; Slowdown: 1.65" role="graphics-symbol" aria-roledescription="bar" d="M0,586.9892262117859h102.85714285714286v13.010773788214124h-102.85714285714286Z" fill="#1b9e77"/></g></g><path class="foreground" aria-hidden="true" d="" display="none"/></g></g></g><path class="foreground" aria-hidden="true" d="" display="none"/></g><g transform="translate(348.57142857142856,571.8301438825669)"><path class="background" aria-hidden="true" d="M6,0L96.85714285714286,0C100.16863300410687,0,102.85714285714286,2.688509853036,102.85714285714286,6L102.85714285714286,28.16985611743314C102.85714285714286,28.16985611743314,102.85714285714286,28.16985611743314,102.85714285714286,28.16985611743314L0,28.16985611743314C0,28.16985611743314,0,28.16985611743314,0,28.16985611743314L0,6C0,2.688509853036,2.688509853036,0,6,0Z"/><g clip-path="url(#clip11)"><g class="mark-group role-scope" role="graphics-object" aria-roledescription="group mark container"><g transform="translate(0,-571.8301438825669)"><path class="background" aria-hidden="true" d="M0,0h102.85714285714286v0h-102.85714285714286Z"/><g><g class="mark-rect role-mark layer_0_marks" role="graphics-object" aria-roledescription="rect mark container"><path aria-label="Parser: toml&#xA;0.10.2; Execution Time (seconds, lower=better): 0.12026426; parser: toml; Execution Time (s): 0.1203; Slowdown: 3.58" role="graphics-symbol" aria-roledescription="bar" d="M0,571.8301438825669h102.85714285714286v28.16985611743314h-102.85714285714286Z" fill="#e7298a"/></g></g><path class="foreground" aria-hidden="true" d="" display="none"/></g></g></g><path class="foreground" aria-hidden="true" d="" display="none"/></g><g transform="translate(462.85714285714283,570.1078252603967)"><path class="background" aria-hidden="true" d="M6,0L96.85714285714286,0C100.16863300410687,0,102.85714285714286,2.688509853036,102.85714285714286,6L102.85714285714286,29.89217473960332C102.85714285714286,29.89217473960332,102.85714285714286,29.89217473960332,102.85714285714286,29.89217473960332L0,29.89217473960332C0,29.89217473960332,0,29.89217473960332,0,29.89217473960332L0,6C0,2.688509853036,2.688509853036,0,6,0Z"/><g clip-path="url(#clip12)"><g class="mark-group role-scope" role="graphics-object" aria-roledescription="group mark container"><g transform="translate(0,-570.1078252603967)"><path class="background" aria-hidden="true" d="M0,0h102.85714285714286v0h-102.85714285714286Z"/><g><g class="mark-rect role-mark layer_0_marks" role="graphics-object" aria-roledescription="rect mark container"><path aria-label="Parser: tomli-w&#xA;1.2.0; Execution Time (seconds, lower=better): 0.127617275; parser: tomli-w; Execution Time (s): 0.1276; Slowdown: 3.79" role="graphics-symbol" aria-roledescription="bar" d="M0,570.1078252603967h102.85714285714286v29.89217473960332h-102.85714285714286Z" fill="#e6ab02"/></g></g><path class="foreground" aria-hidden="true" d="" display="none"/></g></g></g><path class="foreground" aria-hidden="true" d="" display="none"/></g><g transform="translate(577.1428571428571,525.3081325392145)"><path class="background" aria-hidden="true" d="M6,0L96.85714285714286,0C100.16863300410687,0,102.85714285714286,2.688509853036,102.85714285714286,6L102.85714285714286,74.69186746078549C102.85714285714286,74.69186746078549,102.85714285714286,74.69186746078549,102.85714285714286,74.69186746078549L0,74.69186746078549C0,74.69186746078549,0,74.69186746078549,0,74.69186746078549L0,6C0,2.688509853036,2.688509853036,0,6,0Z"/><g clip-path="url(#clip13)"><g class="mark-group role-scope" role="graphics-object" aria-roledescription="group mark container"><g transform="translate(0,-525.3081325392145)"><path class="background" aria-hidden="true" d="M0,0h102.85714285714286v0h-102.85714285714286Z"/><g><g class="mark-rect role-mark layer_0_marks" role="graphics-object" aria-roledescription="rect mark container"><path aria-label="Parser: qtoml&#xA;0.3.1; Execution Time (seconds, lower=better): 0.318878525; parser: qtoml; Execution Time (s): 0.3189; Slowdown: 9.48" role="graphics-symbol" aria-roledescription="bar" d="M0,525.3081325392145h102.85714285714286v74.69186746078549h-102.85714285714286Z" fill="#d95f02"/></g></g><path class="foreground" aria-hidden="true" d="" display="none"/></g></g></g><path class="foreground" aria-hidden="true" d="" display="none"/></g><g transform="translate(691.4285714285714,28.571428571428537)"><path class="background" aria-hidden="true" d="M6,0L96.85714285714286,0C100.16863300410687,0,102.85714285714286,2.688509853036,102.85714285714286,6L102.85714285714286,571.4285714285714C102.85714285714286,571.4285714285714,102.85714285714286,571.4285714285714,102.85714285714286,571.4285714285714L0,571.4285714285714C0,571.4285714285714,0,571.4285714285714,0,571.4285714285714L0,6C0,2.688509853036,2.688509853036,0,6,0Z"/><g clip-path="url(#clip14)"><g class="mark-group role-scope" role="graphics-object" aria-roledescription="group mark container"><g transform="translate(0,-28.571428571428537)"><path class="background" aria-hidden="true" d="M0,0h102.85714285714286v0h-102.85714285714286Z"/><g><g class="mark-rect role-mark layer_0_marks" role="graphics-object" aria-roledescription="rect mark container"><path aria-label="Parser: tomlkit&#xA;0.15.0; Execution Time (seconds, lower=better): 2.439573493; parser: tomlkit; Execution Time (s): 2.4396; Slowdown: 72.53" role="graphics-symbol" aria-roledescription="bar" d="M0,28.571428571428537h102.85714285714286v571.4285714285714h-102.85714285714286Z" fill="#a6761d"/></g></g><path class="foreground" aria-hidden="true" d="" display="none"/></g></g></g><path class="foreground" aria-hidden="true" d="" display="none"/></g></g><g class="mark-text role-mark layer_1_marks" role="graphics-object" aria-roledescription="text mark container"><text aria-label="Parser: rtoml&#xA;0.13.0; Execution Time (seconds, lower=better): 0.033636757; parser: rtoml; label: 0.0336s (x1.00); Execution Time (s): 0.0336; Slowdown: 1.00" role="graphics-symbol" aria-roledescription="text mark" text-anchor="middle" transform="translate(57.142857142857096,588.1211621395503)" font-family="sans-serif" font-size="9px" font-weight="bold" fill="#7570b3">0.0336s (x1.00)</text><text aria-label="Parser: toml_rs&#xA;0.3.14; Execution Time (seconds, lower=better): 0.039288826; parser: toml_rs; label: 0.0393s (x1.17); Execution Time (s): 0.0393; Slowdown: 1.17" role="graphics-symbol" aria-roledescription="text mark" text-anchor="middle" transform="translate(171.4285714285714,586.7972611693368)" font-family="sans-serif" font-size="9px" font-weight="bold" fill="#66a61e">0.0393s (x1.17)</text><text aria-label="Parser: pytomlpp&#xA;1.1.0; Execution Time (seconds, lower=better): 0.055546293; parser: pytomlpp; label: 0.0555s (x1.65); Execution Time (s): 0.0555; Slowdown: 1.65" role="graphics-symbol" aria-roledescription="text mark" text-anchor="middle" transform="translate(285.71428571428567,582.9892262117859)" font-family="sans-serif" font-size="9px" font-weight="bold" fill="#1b9e77">0.0555s (x1.65)</text><text aria-label="Parser: toml&#xA;0.10.2; Execution Time (seconds, lower=better): 0.12026426; parser: toml; label: 0.1203s (x3.58); Execution Time (s): 0.1203; Slowdown: 3.58" role="graphics-symbol" aria-roledescription="text mark" text-anchor="middle" transform="translate(400,567.8301438825669)" font-family="sans-serif" font-size="9px" font-weight="bold" fill="#e7298a">0.1203s (x3.58)</text><text aria-label="Parser: tomli-w&#xA;1.2.0; Execution Time (seconds, lower=better): 0.127617275; parser: tomli-w; label: 0.1276s (x3.79); Execution Time (s): 0.1276; Slowdown: 3.79" role="graphics-symbol" aria-roledescription="text mark" text-anchor="middle" transform="translate(514.2857142857142,566.1078252603967)" font-family="sans-serif" font-size="9px" font-weight="bold" fill="#e6ab02">0.1276s (x3.79)</text><text aria-label="Parser: qtoml&#xA;0.3.1; Execution Time (seconds, lower=better): 0.318878525; parser: qtoml; label: 0.3189s (x9.48); Execution Time (s): 0.3189; Slowdown: 9.48" role="graphics-symbol" aria-roledescription="text mark" text-anchor="middle" transform="translate(628.5714285714286,521.3081325392145)" font-family="sans-serif" font-size="9px" font-weight="bold" fill="#d95f02">0.3189s (x9.48)</text><text aria-label="Parser: tomlkit&#xA;0.15.0; Execution Time (seconds, lower=better): 2.439573493; parser: tomlkit; label: 2.4396s (x72.53); Execution Time (s): 2.4396; Slowdown: 72.53" role="graphics-symbol" aria-roledescription="text mark" text-anchor="middle" transform="translate(742.8571428571429,24.571428571428537)" font-family="sans-serif" font-size="9px" font-weight="bold" fill="#a6761d">2.4396s (x72.53)</text></g><g class="mark-group role-title"><g transform="translate(400,-31)"><path class="background" aria-hidden="true" d="M0,0h0v0h0Z" pointer-events="none"/><g><g class="mark-text role-title-text" role="graphics-symbol" aria-roledescription="title" aria-label="Title text 'TOML parsers benchmark (dumps)'" pointer-events="none"><text text-anchor="middle" transform="translate(0,10)" font-family="sans-serif" font-size="13px" font-weight="bold" fill="#000" opacity="1">TOML parsers benchmark (dumps)</text></g><g class="mark-text role-title-subtitle" role="graphics-symbol" aria-roledescription="subtitle" aria-label="Subtitle text 'Python: 3.14.6 (Linux 6.17.0-1018-azure) | CPU: AMD EPYC 7763 64-Core Processor'" pointer-events="none"><text text-anchor="middle" transform="translate(0,25)" font-family="sans-serif" font-size="12px" fill="#000" opacity="1">Python: 3.14.6 (Linux 6.17.0-1018-azure) | CPU: AMD EPYC 7763 64-Core Processor</text></g></g><path class="foreground" aria-hidden="true" d="" pointer-events="none" display="none"/></g></g></g><path class="foreground" aria-hidden="true" d="" display="none"/></g></g></g><defs><clipPath id="clip8"><path d="M3.9394189302248606,0L98.917723926918,0C101.09194842228518,0,102.85714285714286,1.7651944348576794,102.85714285714286,3.9394189302248606L102.85714285714286,7.878837860449721C102.85714285714286,7.878837860449721,102.85714285714286,7.878837860449721,102.85714285714286,7.878837860449721L0,7.878837860449721C0,7.878837860449721,0,7.878837860449721,0,7.878837860449721L0,3.9394189302248606C0,1.7651944348576794,1.7651944348576794,0,3.9394189302248606,0Z"/></clipPath><clipPath id="clip9"><path d="M4.60136941533159,0L98.25577344181127,0C100.79533835537995,0,102.85714285714286,2.061804501762913,102.85714285714286,4.60136941533159L102.85714285714286,9.20273883066318C102.85714285714286,9.20273883066318,102.85714285714286,9.20273883066318,102.85714285714286,9.20273883066318L0,9.20273883066318C0,9.20273883066318,0,9.20273883066318,0,9.20273883066318L0,4.60136941533159C0,2.061804501762913,2.061804501762913,0,4.60136941533159,0Z"/></clipPath><clipPath id="clip10"><path d="M6,0L96.85714285714286,0C100.16863300410687,0,102.85714285714286,2.688509853036,102.85714285714286,6L102.85714285714286,13.010773788214124C102.85714285714286,13.010773788214124,102.85714285714286,13.010773788214124,102.85714285714286,13.010773788214124L0,13.010773788214124C0,13.010773788214124,0,13.010773788214124,0,13.010773788214124L0,6C0,2.688509853036,2.688509853036,0,6,0Z"/></clipPath><clipPath id="clip11"><path d="M6,0L96.85714285714286,0C100.16863300410687,0,102.85714285714286,2.688509853036,102.85714285714286,6L102.85714285714286,28.16985611743314C102.85714285714286,28.16985611743314,102.85714285714286,28.16985611743314,102.85714285714286,28.16985611743314L0,28.16985611743314C0,28.16985611743314,0,28.16985611743314,0,28.16985611743314L0,6C0,2.688509853036,2.688509853036,0,6,0Z"/></clipPath><clipPath id="clip12"><path d="M6,0L96.85714285714286,0C100.16863300410687,0,102.85714285714286,2.688509853036,102.85714285714286,6L102.85714285714286,29.89217473960332C102.85714285714286,29.89217473960332,102.85714285714286,29.89217473960332,102.85714285714286,29.89217473960332L0,29.89217473960332C0,29.89217473960332,0,29.89217473960332,0,29.89217473960332L0,6C0,2.688509853036,2.688509853036,0,6,0Z"/></clipPath><clipPath id="clip13"><path d="M6,0L96.85714285714286,0C100.16863300410687,0,102.85714285714286,2.688509853036,102.85714285714286,6L102.85714285714286,74.69186746078549C102.85714285714286,74.69186746078549,102.85714285714286,74.69186746078549,102.85714285714286,74.69186746078549L0,74.69186746078549C0,74.69186746078549,0,74.69186746078549,0,74.69186746078549L0,6C0,2.688509853036,2.688509853036,0,6,0Z"/></clipPath><clipPath id="clip14"><path d="M6,0L96.85714285714286,0C100.16863300410687,0,102.85714285714286,2.688509853036,102.85714285714286,6L102.85714285714286,571.4285714285714C102.85714285714286,571.4285714285714,102.85714285714286,571.4285714285714,102.85714285714286,571.4285714285714L0,571.4285714285714C0,571.4285714285714,0,571.4285714285714,0,571.4285714285714L0,6C0,2.688509853036,2.688509853036,0,6,0Z"/></clipPath></defs></svg>