<svg xmlns="http://www.w3.org/2000/svg" xmlns:xlink="http://www.w3.org/1999/xlink" version="1.1" class="marks" width="846" height="687" viewBox="0 0 846 687"><rect width="846" height="687" fill="white"/><g fill="none" stroke-miterlimit="10" transform="translate(41,36)"><g class="mark-group role-frame root" role="graphics-object" aria-roledescription="group mark container"><g transform="translate(0,0)"><path class="background" aria-hidden="true" d="M0.5,0.5h800v600h-800Z" stroke="#ddd"/><g><g class="mark-group role-axis" role="graphics-symbol" aria-roledescription="axis" aria-label="X-axis titled 'Parser' for a discrete scale with 7 values: toml_rs&#xA;0.3.14, rtoml&#xA;0.13.0, pytomlpp&#xA;1.1.0, tomllib&#xA;built-in, toml&#xA;0.10.2, qtoml&#xA;0.3.1, tomlkit&#xA;0.15.0"><g transform="translate(0.5,600.5)"><path class="background" aria-hidden="true" d="M0,0h0v0h0Z" pointer-events="none"/><g><g class="mark-rule role-axis-tick" pointer-events="none"><line transform="translate(57,0)" x2="0" y2="5" stroke="#888" stroke-width="1" opacity="1"/><line transform="translate(171,0)" x2="0" y2="5" stroke="#888" stroke-width="1" opacity="1"/><line transform="translate(285,0)" x2="0" y2="5" stroke="#888" stroke-width="1" opacity="1"/><line transform="translate(400,0)" x2="0" y2="5" stroke="#888" stroke-width="1" opacity="1"/><line transform="translate(514,0)" x2="0" y2="5" stroke="#888" stroke-width="1" opacity="1"/><line transform="translate(628,0)" x2="0" y2="5" stroke="#888" stroke-width="1" opacity="1"/><line transform="translate(742,0)" x2="0" y2="5" stroke="#888" stroke-width="1" opacity="1"/></g><g class="mark-text role-axis-label" pointer-events="none"><text text-anchor="middle" transform="translate(56.642857142857096,15)" font-family="sans-serif" font-size="10px" fill="#000" opacity="1"><tspan>toml_rs</tspan><tspan x="0" dy="14">0.3.14</tspan></text><text text-anchor="middle" transform="translate(170.9285714285714,15)" font-family="sans-serif" font-size="10px" fill="#000" opacity="1"><tspan>rtoml</tspan><tspan x="0" dy="14">0.13.0</tspan></text><text text-anchor="middle" transform="translate(285.21428571428567,15)" font-family="sans-serif" font-size="10px" fill="#000" opacity="1"><tspan>pytomlpp</tspan><tspan x="0" dy="14">1.1.0</tspan></text><text text-anchor="middle" transform="translate(399.5,15)" font-family="sans-serif" font-size="10px" fill="#000" opacity="1"><tspan>tomllib</tspan><tspan x="0" dy="14">built-in</tspan></text><text text-anchor="middle" transform="translate(513.7857142857142,15)" font-family="sans-serif" font-size="10px" fill="#000" opacity="1"><tspan>toml</tspan><tspan x="0" dy="14">0.10.2</tspan></text><text text-anchor="middle" transform="translate(628.0714285714286,15)" font-family="sans-serif" font-size="10px" fill="#000" opacity="1"><tspan>qtoml</tspan><tspan x="0" dy="14">0.3.1</tspan></text><text text-anchor="middle" transform="translate(742.3571428571429,15)" font-family="sans-serif" font-size="10px" fill="#000" opacity="1"><tspan>tomlkit</tspan><tspan x="0" dy="14">0.15.0</tspan></text></g><g class="mark-rule role-axis-domain" pointer-events="none"><line transform="translate(0,0)" x2="800" y2="0" stroke="#888" stroke-width="1" opacity="1"/></g><g class="mark-text role-axis-title" pointer-events="none"><text text-anchor="middle" transform="translate(400,44)" font-family="sans-serif" font-size="11px" font-weight="bold" fill="#000" opacity="1">Parser</text></g></g><path class="foreground" aria-hidden="true" d="" pointer-events="none" display="none"/></g></g><g class="mark-group role-axis" role="graphics-symbol" aria-roledescription="axis" aria-label="Y-axis titled 'Execution Time (seconds, lower=better)' for a linear scale with values from 0 to 5"><g transform="translate(0.5,0.5)"><path class="background" aria-hidden="true" d="M0,0h0v0h0Z" pointer-events="none"/><g><g class="mark-rule role-axis-tick" pointer-events="none"><line transform="translate(0,600)" x2="-5" y2="0" stroke="#888" stroke-width="1" opacity="1"/><line transform="translate(0,542)" x2="-5" y2="0" stroke="#888" stroke-width="1" opacity="1"/><line transform="translate(0,485)" x2="-5" y2="0" stroke="#888" stroke-width="1" opacity="1"/><line transform="translate(0,427)" x2="-5" y2="0" stroke="#888" stroke-width="1" opacity="1"/><line transform="translate(0,369)" x2="-5" y2="0" stroke="#888" stroke-width="1" opacity="1"/><line transform="translate(0,311)" x2="-5" y2="0" stroke="#888" stroke-width="1" opacity="1"/><line transform="translate(0,254)" x2="-5" y2="0" stroke="#888" stroke-width="1" opacity="1"/><line transform="translate(0,196)" x2="-5" y2="0" stroke="#888" stroke-width="1" opacity="1"/><line transform="translate(0,138)" x2="-5" y2="0" stroke="#888" stroke-width="1" opacity="1"/><line transform="translate(0,81)" x2="-5" y2="0" stroke="#888" stroke-width="1" opacity="1"/><line transform="translate(0,23)" x2="-5" y2="0" stroke="#888" stroke-width="1" opacity="1"/></g><g class="mark-text role-axis-label" pointer-events="none"><text text-anchor="end" transform="translate(-7,603)" font-family="sans-serif" font-size="10px" fill="#000" opacity="1">0.0</text><text text-anchor="end" transform="translate(-7,545.2812557020347)" font-family="sans-serif" font-size="10px" fill="#000" opacity="1">0.5</text><text text-anchor="end" transform="translate(-7,487.5625114040695)" font-family="sans-serif" font-size="10px" fill="#000" opacity="1">1.0</text><text text-anchor="end" transform="translate(-7,429.8437671061043)" font-family="sans-serif" font-size="10px" fill="#000" opacity="1">1.5</text><text text-anchor="end" transform="translate(-7,372.12502280813897)" font-family="sans-serif" font-size="10px" fill="#000" opacity="1">2.0</text><text text-anchor="end" transform="translate(-7,314.40627851017376)" font-family="sans-serif" font-size="10px" fill="#000" opacity="1">2.5</text><text text-anchor="end" transform="translate(-7,256.68753421220856)" font-family="sans-serif" font-size="10px" fill="#000" opacity="1">3.0</text><text text-anchor="end" transform="translate(-7,198.96878991424327)" font-family="sans-serif" font-size="10px" fill="#000" opacity="1">3.5</text><text text-anchor="end" transform="translate(-7,141.25004561627804)" font-family="sans-serif" font-size="10px" fill="#000" opacity="1">4.0</text><text text-anchor="end" transform="translate(-7,83.53130131831283)" font-family="sans-serif" font-size="10px" fill="#000" opacity="1">4.5</text><text text-anchor="end" transform="translate(-7,25.812557020347548)" font-family="sans-serif" font-size="10px" fill="#000" opacity="1">5.0</text></g><g class="mark-rule role-axis-domain" pointer-events="none"><line transform="translate(0,600)" x2="0" y2="-600" stroke="#888" stroke-width="1" opacity="1"/></g><g class="mark-text role-axis-title" pointer-events="none"><text text-anchor="middle" transform="translate(-24.9013671875,300) rotate(-90) translate(0,-2)" font-family="sans-serif" font-size="11px" font-weight="bold" fill="#000" opacity="1">Execution Time (seconds, lower=better)</text></g></g><path class="foreground" aria-hidden="true" d="" pointer-events="none" display="none"/></g></g><g class="mark-group role-scope" role="graphics-object" aria-roledescription="group mark container"><g transform="translate(5.714285714285666,597.0953032697057)"><path class="background" aria-hidden="true" d="M1.4523483651471452,0L101.40479449199572,0C102.20636737551972,0,102.85714285714286,0.6507754816231377,102.85714285714286,1.4523483651471452L102.85714285714286,2.9046967302942903C102.85714285714286,2.9046967302942903,102.85714285714286,2.9046967302942903,102.85714285714286,2.9046967302942903L0,2.9046967302942903C0,2.9046967302942903,0,2.9046967302942903,0,2.9046967302942903L0,1.4523483651471452C0,0.6507754816231377,0.6507754816231377,0,1.4523483651471452,0Z"/><g clip-path="url(#clip1)"><g class="mark-group role-scope" role="graphics-object" aria-roledescription="group mark container"><g transform="translate(0,-597.0953032697057)"><path class="background" aria-hidden="true" d="M0,0h102.85714285714286v0h-102.85714285714286Z"/><g><g class="mark-rect role-mark layer_0_marks" role="graphics-object" aria-roledescription="rect mark container"><path aria-label="Parser: toml_rs&#xA;0.3.14; Execution Time (seconds, lower=better): 0.025162508; parser: toml_rs; Execution Time (s): 0.0252; Slowdown: 1.00" role="graphics-symbol" aria-roledescription="bar" d="M0,597.0953032697057h102.85714285714286v2.9046967302942903h-102.85714285714286Z" fill="#66a61e"/></g></g><path class="foreground" aria-hidden="true" d="" display="none"/></g></g></g><path class="foreground" aria-hidden="true" d="" display="none"/></g><g transform="translate(119.99999999999996,593.1426118012535)"><path class="background" aria-hidden="true" d="M3.428694099373274,0L99.42844875776959,0C101.32079654560762,0,102.85714285714286,1.5363463115352403,102.85714285714286,3.428694099373274L102.85714285714286,6.857388198746548C102.85714285714286,6.857388198746548,102.85714285714286,6.857388198746548,102.85714285714286,6.857388198746548L0,6.857388198746548C0,6.857388198746548,0,6.857388198746548,0,6.857388198746548L0,3.428694099373274C0,1.5363463115352403,1.5363463115352403,0,3.428694099373274,0Z"/><g clip-path="url(#clip2)"><g class="mark-group role-scope" role="graphics-object" aria-roledescription="group mark container"><g transform="translate(0,-593.1426118012535)"><path class="background" aria-hidden="true" d="M0,0h102.85714285714286v0h-102.85714285714286Z"/><g><g class="mark-rect role-mark layer_0_marks" role="graphics-object" aria-roledescription="rect mark container"><path aria-label="Parser: rtoml&#xA;0.13.0; Execution Time (seconds, lower=better): 0.059403477; parser: rtoml; Execution Time (s): 0.0594; Slowdown: 2.36" role="graphics-symbol" aria-roledescription="bar" d="M0,593.1426118012535h102.85714285714286v6.857388198746548h-102.85714285714286Z" fill="#7570b3"/></g></g><path class="foreground" aria-hidden="true" d="" display="none"/></g></g></g><path class="foreground" aria-hidden="true" d="" display="none"/></g><g transform="translate(234.28571428571425,591.451259466406)"><path class="background" aria-hidden="true" d="M4.274370266797007,0L98.58277259034585,0C100.94186176084155,0,102.85714285714286,1.9152810963013116,102.85714285714286,4.274370266797007L102.85714285714286,8.548740533594014C102.85714285714286,8.548740533594014,102.85714285714286,8.548740533594014,102.85714285714286,8.548740533594014L0,8.548740533594014C0,8.548740533594014,0,8.548740533594014,0,8.548740533594014L0,4.274370266797007C0,1.9152810963013116,1.9152810963013116,0,4.274370266797007,0Z"/><g clip-path="url(#clip3)"><g class="mark-group role-scope" role="graphics-object" aria-roledescription="group mark container"><g transform="translate(0,-591.451259466406)"><path class="background" aria-hidden="true" d="M0,0h102.85714285714286v0h-102.85714285714286Z"/><g><g class="mark-rect role-mark layer_0_marks" role="graphics-object" aria-roledescription="rect mark container"><path aria-label="Parser: pytomlpp&#xA;1.1.0; Execution Time (seconds, lower=better): 0.07405515; parser: pytomlpp; Execution Time (s): 0.0741; Slowdown: 2.94" role="graphics-symbol" aria-roledescription="bar" d="M0,591.451259466406h102.85714285714286v8.548740533594014h-102.85714285714286Z" fill="#1b9e77"/></g></g><path class="foreground" aria-hidden="true" d="" display="none"/></g></g></g><path class="foreground" aria-hidden="true" d="" display="none"/></g><g transform="translate(348.57142857142856,579.2052420274383)"><path class="background" aria-hidden="true" d="M6,0L96.85714285714286,0C100.16863300410687,0,102.85714285714286,2.688509853036,102.85714285714286,6L102.85714285714286,20.794757972561683C102.85714285714286,20.794757972561683,102.85714285714286,20.794757972561683,102.85714285714286,20.794757972561683L0,20.794757972561683C0,20.794757972561683,0,20.794757972561683,0,20.794757972561683L0,6C0,2.688509853036,2.688509853036,0,6,0Z"/><g clip-path="url(#clip4)"><g class="mark-group role-scope" role="graphics-object" aria-roledescription="group mark container"><g transform="translate(0,-579.2052420274383)"><path class="background" aria-hidden="true" d="M0,0h102.85714285714286v0h-102.85714285714286Z"/><g><g class="mark-rect role-mark layer_0_marks" role="graphics-object" aria-roledescription="rect mark container"><path aria-label="Parser: tomllib&#xA;built-in; Execution Time (seconds, lower=better): 0.18013869; parser: tomllib; Execution Time (s): 0.1801; Slowdown: 7.16" role="graphics-symbol" aria-roledescription="bar" d="M0,579.2052420274383h102.85714285714286v20.794757972561683h-102.85714285714286Z" fill="#a6761d"/></g></g><path class="foreground" aria-hidden="true" d="" display="none"/></g></g></g><path class="foreground" aria-hidden="true" d="" display="none"/></g><g transform="translate(462.85714285714283,520.2541778350903)"><path class="background" aria-hidden="true" d="M6,0L96.85714285714286,0C100.16863300410687,0,102.85714285714286,2.688509853036,102.85714285714286,6L102.85714285714286,79.74582216490967C102.85714285714286,79.74582216490967,102.85714285714286,79.74582216490967,102.85714285714286,79.74582216490967L0,79.74582216490967C0,79.74582216490967,0,79.74582216490967,0,79.74582216490967L0,6C0,2.688509853036,2.688509853036,0,6,0Z"/><g clip-path="url(#clip5)"><g class="mark-group role-scope" role="graphics-object" aria-roledescription="group mark container"><g transform="translate(0,-520.2541778350903)"><path class="background" aria-hidden="true" d="M0,0h102.85714285714286v0h-102.85714285714286Z"/><g><g class="mark-rect role-mark layer_0_marks" role="graphics-object" aria-roledescription="rect mark container"><path aria-label="Parser: toml&#xA;0.10.2; Execution Time (seconds, lower=better): 0.690813904; parser: toml; Execution Time (s): 0.6908; Slowdown: 27.45" role="graphics-symbol" aria-roledescription="bar" d="M0,520.2541778350903h102.85714285714286v79.74582216490967h-102.85714285714286Z" fill="#e7298a"/></g></g><path class="foreground" aria-hidden="true" d="" display="none"/></g></g></g><path class="foreground" aria-hidden="true" d="" display="none"/></g><g transform="translate(577.1428571428571,508.63270283655027)"><path class="background" aria-hidden="true" d="M6,0L96.85714285714286,0C100.16863300410687,0,102.85714285714286,2.688509853036,102.85714285714286,6L102.85714285714286,91.36729716344973C102.85714285714286,91.36729716344973,102.85714285714286,91.36729716344973,102.85714285714286,91.36729716344973L0,91.36729716344973C0,91.36729716344973,0,91.36729716344973,0,91.36729716344973L0,6C0,2.688509853036,2.688509853036,0,6,0Z"/><g clip-path="url(#clip6)"><g class="mark-group role-scope" role="graphics-object" aria-roledescription="group mark container"><g transform="translate(0,-508.63270283655027)"><path class="background" aria-hidden="true" d="M0,0h102.85714285714286v0h-102.85714285714286Z"/><g><g class="mark-rect role-mark layer_0_marks" role="graphics-object" aria-roledescription="rect mark container"><path aria-label="Parser: qtoml&#xA;0.3.1; Execution Time (seconds, lower=better): 0.791487222; parser: qtoml; Execution Time (s): 0.7915; Slowdown: 31.46" role="graphics-symbol" aria-roledescription="bar" d="M0,508.63270283655027h102.85714285714286v91.36729716344973h-102.85714285714286Z" fill="#d95f02"/></g></g><path class="foreground" aria-hidden="true" d="" display="none"/></g></g></g><path class="foreground" aria-hidden="true" d="" display="none"/></g><g transform="translate(691.4285714285714,28.571428571428605)"><path class="background" aria-hidden="true" d="M6,0L96.85714285714286,0C100.16863300410687,0,102.85714285714286,2.688509853036,102.85714285714286,6L102.85714285714286,571.4285714285714C102.85714285714286,571.4285714285714,102.85714285714286,571.4285714285714,102.85714285714286,571.4285714285714L0,571.4285714285714C0,571.4285714285714,0,571.4285714285714,0,571.4285714285714L0,6C0,2.688509853036,2.688509853036,0,6,0Z"/><g clip-path="url(#clip7)"><g class="mark-group role-scope" role="graphics-object" aria-roledescription="group mark container"><g transform="translate(0,-28.571428571428605)"><path class="background" aria-hidden="true" d="M0,0h102.85714285714286v0h-102.85714285714286Z"/><g><g class="mark-rect role-mark layer_0_marks" role="graphics-object" aria-roledescription="rect mark container"><path aria-label="Parser: tomlkit&#xA;0.15.0; Execution Time (seconds, lower=better): 4.95011264; parser: tomlkit; Execution Time (s): 4.9501; Slowdown: 196.73" role="graphics-symbol" aria-roledescription="bar" d="M0,28.571428571428605h102.85714285714286v571.4285714285714h-102.85714285714286Z" fill="#e6ab02"/></g></g><path class="foreground" aria-hidden="true" d="" display="none"/></g></g></g><path class="foreground" aria-hidden="true" d="" display="none"/></g></g><g class="mark-text role-mark layer_1_marks" role="graphics-object" aria-roledescription="text mark container"><text aria-label="Parser: toml_rs&#xA;0.3.14; Execution Time (seconds, lower=better): 0.025162508; parser: toml_rs; label: 0.0252s (x1.00); Execution Time (s): 0.0252; Slowdown: 1.00" role="graphics-symbol" aria-roledescription="text mark" text-anchor="middle" transform="translate(57.142857142857096,593.0953032697057)" font-family="sans-serif" font-size="9px" font-weight="bold" fill="#66a61e">0.0252s (x1.00)</text><text aria-label="Parser: rtoml&#xA;0.13.0; Execution Time (seconds, lower=better): 0.059403477; parser: rtoml; label: 0.0594s (x2.36); Execution Time (s): 0.0594; Slowdown: 2.36" role="graphics-symbol" aria-roledescription="text mark" text-anchor="middle" transform="translate(171.4285714285714,589.1426118012535)" font-family="sans-serif" font-size="9px" font-weight="bold" fill="#7570b3">0.0594s (x2.36)</text><text aria-label="Parser: pytomlpp&#xA;1.1.0; Execution Time (seconds, lower=better): 0.07405515; parser: pytomlpp; label: 0.0741s (x2.94); Execution Time (s): 0.0741; Slowdown: 2.94" role="graphics-symbol" aria-roledescription="text mark" text-anchor="middle" transform="translate(285.71428571428567,587.451259466406)" font-family="sans-serif" font-size="9px" font-weight="bold" fill="#1b9e77">0.0741s (x2.94)</text><text aria-label="Parser: tomllib&#xA;built-in; Execution Time (seconds, lower=better): 0.18013869; parser: tomllib; label: 0.1801s (x7.16); Execution Time (s): 0.1801; Slowdown: 7.16" role="graphics-symbol" aria-roledescription="text mark" text-anchor="middle" transform="translate(400,575.2052420274383)" font-family="sans-serif" font-size="9px" font-weight="bold" fill="#a6761d">0.1801s (x7.16)</text><text aria-label="Parser: toml&#xA;0.10.2; Execution Time (seconds, lower=better): 0.690813904; parser: toml; label: 0.6908s (x27.45); Execution Time (s): 0.6908; Slowdown: 27.45" role="graphics-symbol" aria-roledescription="text mark" text-anchor="middle" transform="translate(514.2857142857142,516.2541778350903)" font-family="sans-serif" font-size="9px" font-weight="bold" fill="#e7298a">0.6908s (x27.45)</text><text aria-label="Parser: qtoml&#xA;0.3.1; Execution Time (seconds, lower=better): 0.791487222; parser: qtoml; label: 0.7915s (x31.46); Execution Time (s): 0.7915; Slowdown: 31.46" role="graphics-symbol" aria-roledescription="text mark" text-anchor="middle" transform="translate(628.5714285714286,504.63270283655027)" font-family="sans-serif" font-size="9px" font-weight="bold" fill="#d95f02">0.7915s (x31.46)</text><text aria-label="Parser: tomlkit&#xA;0.15.0; Execution Time (seconds, lower=better): 4.95011264; parser: tomlkit; label: 4.9501s (x196.73); Execution Time (s): 4.9501; Slowdown: 196.73" role="graphics-symbol" aria-roledescription="text mark" text-anchor="middle" transform="translate(742.8571428571429,24.571428571428605)" font-family="sans-serif" font-size="9px" font-weight="bold" fill="#e6ab02">4.9501s (x196.73)</text></g><g class="mark-group role-title"><g transform="translate(400,-31)"><path class="background" aria-hidden="true" d="M0,0h0v0h0Z" pointer-events="none"/><g><g class="mark-text role-title-text" role="graphics-symbol" aria-roledescription="title" aria-label="Title text 'TOML parsers benchmark (loads)'" pointer-events="none"><text text-anchor="middle" transform="translate(0,10)" font-family="sans-serif" font-size="13px" font-weight="bold" fill="#000" opacity="1">TOML parsers benchmark (loads)</text></g><g class="mark-text role-title-subtitle" role="graphics-symbol" aria-roledescription="subtitle" aria-label="Subtitle text 'Python: 3.14.6 (Linux 6.17.0-1018-azure) | CPU: AMD EPYC 9V74 80-Core Processor'" pointer-events="none"><text text-anchor="middle" transform="translate(0,25)" font-family="sans-serif" font-size="12px" fill="#000" opacity="1">Python: 3.14.6 (Linux 6.17.0-1018-azure) | CPU: AMD EPYC 9V74 80-Core Processor</text></g></g><path class="foreground" aria-hidden="true" d="" pointer-events="none" display="none"/></g></g></g><path class="foreground" aria-hidden="true" d="" display="none"/></g></g></g><defs><clipPath id="clip1"><path d="M1.4523483651471452,0L101.40479449199572,0C102.20636737551972,0,102.85714285714286,0.6507754816231377,102.85714285714286,1.4523483651471452L102.85714285714286,2.9046967302942903C102.85714285714286,2.9046967302942903,102.85714285714286,2.9046967302942903,102.85714285714286,2.9046967302942903L0,2.9046967302942903C0,2.9046967302942903,0,2.9046967302942903,0,2.9046967302942903L0,1.4523483651471452C0,0.6507754816231377,0.6507754816231377,0,1.4523483651471452,0Z"/></clipPath><clipPath id="clip2"><path d="M3.428694099373274,0L99.42844875776959,0C101.32079654560762,0,102.85714285714286,1.5363463115352403,102.85714285714286,3.428694099373274L102.85714285714286,6.857388198746548C102.85714285714286,6.857388198746548,102.85714285714286,6.857388198746548,102.85714285714286,6.857388198746548L0,6.857388198746548C0,6.857388198746548,0,6.857388198746548,0,6.857388198746548L0,3.428694099373274C0,1.5363463115352403,1.5363463115352403,0,3.428694099373274,0Z"/></clipPath><clipPath id="clip3"><path d="M4.274370266797007,0L98.58277259034585,0C100.94186176084155,0,102.85714285714286,1.9152810963013116,102.85714285714286,4.274370266797007L102.85714285714286,8.548740533594014C102.85714285714286,8.548740533594014,102.85714285714286,8.548740533594014,102.85714285714286,8.548740533594014L0,8.548740533594014C0,8.548740533594014,0,8.548740533594014,0,8.548740533594014L0,4.274370266797007C0,1.9152810963013116,1.9152810963013116,0,4.274370266797007,0Z"/></clipPath><clipPath id="clip4"><path d="M6,0L96.85714285714286,0C100.16863300410687,0,102.85714285714286,2.688509853036,102.85714285714286,6L102.85714285714286,20.794757972561683C102.85714285714286,20.794757972561683,102.85714285714286,20.794757972561683,102.85714285714286,20.794757972561683L0,20.794757972561683C0,20.794757972561683,0,20.794757972561683,0,20.794757972561683L0,6C0,2.688509853036,2.688509853036,0,6,0Z"/></clipPath><clipPath id="clip5"><path d="M6,0L96.85714285714286,0C100.16863300410687,0,102.85714285714286,2.688509853036,102.85714285714286,6L102.85714285714286,79.74582216490967C102.85714285714286,79.74582216490967,102.85714285714286,79.74582216490967,102.85714285714286,79.74582216490967L0,79.74582216490967C0,79.74582216490967,0,79.74582216490967,0,79.74582216490967L0,6C0,2.688509853036,2.688509853036,0,6,0Z"/></clipPath><clipPath id="clip6"><path d="M6,0L96.85714285714286,0C100.16863300410687,0,102.85714285714286,2.688509853036,102.85714285714286,6L102.85714285714286,91.36729716344973C102.85714285714286,91.36729716344973,102.85714285714286,91.36729716344973,102.85714285714286,91.36729716344973L0,91.36729716344973C0,91.36729716344973,0,91.36729716344973,0,91.36729716344973L0,6C0,2.688509853036,2.688509853036,0,6,0Z"/></clipPath><clipPath id="clip7"><path d="M6,0L96.85714285714286,0C100.16863300410687,0,102.85714285714286,2.688509853036,102.85714285714286,6L102.85714285714286,571.4285714285714C102.85714285714286,571.4285714285714,102.85714285714286,571.4285714285714,102.85714285714286,571.4285714285714L0,571.4285714285714C0,571.4285714285714,0,571.4285714285714,0,571.4285714285714L0,6C0,2.688509853036,2.688509853036,0,6,0Z"/></clipPath></defs></svg>