<svg xmlns="http://www.w3.org/2000/svg" xmlns:xlink="http://www.w3.org/1999/xlink" version="1.1" class="marks" width="844" height="687" viewBox="0 0 844 687"><rect width="844" height="687" fill="white"/><g fill="none" stroke-miterlimit="10" transform="translate(39,36)"><g class="mark-group role-frame root" role="graphics-object" aria-roledescription="group mark container"><g transform="translate(0,0)"><path class="background" aria-hidden="true" d="M0.5,0.5h800v600h-800Z" stroke="#ddd"/><g><g class="mark-group role-axis" role="graphics-symbol" aria-roledescription="axis" aria-label="X-axis titled 'Parser' for a discrete scale with 8 values: yamlrocks&#xA;0.6.1, yaml_rs&#xA;0.1.6, yaml_rs (parse_dt=False)&#xA;0.1.6, ryaml&#xA;0.5.1, PyYAML (CLoader)&#xA;6.0.3, ending with ruamel.yaml&#xA;0.19.1"><g transform="translate(0.5,600.5)"><path class="background" aria-hidden="true" d="M0,0h0v0h0Z" pointer-events="none"/><g><g class="mark-rule role-axis-tick" pointer-events="none"><line transform="translate(50,0)" x2="0" y2="5" stroke="#888" stroke-width="1" opacity="1"/><line transform="translate(150,0)" x2="0" y2="5" stroke="#888" stroke-width="1" opacity="1"/><line transform="translate(250,0)" x2="0" y2="5" stroke="#888" stroke-width="1" opacity="1"/><line transform="translate(350,0)" x2="0" y2="5" stroke="#888" stroke-width="1" opacity="1"/><line transform="translate(450,0)" x2="0" y2="5" stroke="#888" stroke-width="1" opacity="1"/><line transform="translate(550,0)" x2="0" y2="5" stroke="#888" stroke-width="1" opacity="1"/><line transform="translate(650,0)" x2="0" y2="5" stroke="#888" stroke-width="1" opacity="1"/><line transform="translate(750,0)" x2="0" y2="5" stroke="#888" stroke-width="1" opacity="1"/></g><g class="mark-text role-axis-label" pointer-events="none"><text text-anchor="middle" transform="translate(49.5,15)" font-family="sans-serif" font-size="10px" fill="#000" opacity="1"><tspan>yamlrocks</tspan><tspan x="0" dy="14">0.6.1</tspan></text><text text-anchor="middle" transform="translate(149.5,15)" font-family="sans-serif" font-size="10px" fill="#000" opacity="1"><tspan>yaml_rs</tspan><tspan x="0" dy="14">0.1.6</tspan></text><text text-anchor="middle" transform="translate(249.5,15)" font-family="sans-serif" font-size="10px" fill="#000" opacity="1"><tspan>yaml_rs (parse_dt=False)</tspan><tspan x="0" dy="14">0.1.6</tspan></text><text text-anchor="middle" transform="translate(349.5,15)" font-family="sans-serif" font-size="10px" fill="#000" opacity="1"><tspan>ryaml</tspan><tspan x="0" dy="14">0.5.1</tspan></text><text text-anchor="middle" transform="translate(449.5,15)" font-family="sans-serif" font-size="10px" fill="#000" opacity="1"><tspan>PyYAML (CLoader)</tspan><tspan x="0" dy="14">6.0.3</tspan></text><text text-anchor="middle" transform="translate(549.5,15)" font-family="sans-serif" font-size="10px" fill="#000" opacity="1"><tspan>oyaml</tspan><tspan x="0" dy="14">1.0</tspan></text><text text-anchor="middle" transform="translate(649.5,15)" font-family="sans-serif" font-size="10px" fill="#000" opacity="1"><tspan>PyYAML</tspan><tspan x="0" dy="14">6.0.3</tspan></text><text text-anchor="middle" transform="translate(749.5,15)" font-family="sans-serif" font-size="10px" fill="#000" opacity="1"><tspan>ruamel.yaml</tspan><tspan x="0" dy="14">0.19.1</tspan></text></g><g class="mark-rule role-axis-domain" pointer-events="none"><line transform="translate(0,0)" x2="800" y2="0" stroke="#888" stroke-width="1" opacity="1"/></g><g class="mark-text role-axis-title" pointer-events="none"><text text-anchor="middle" transform="translate(400,44)" font-family="sans-serif" font-size="11px" font-weight="bold" fill="#000" opacity="1">Parser</text></g></g><path class="foreground" aria-hidden="true" d="" pointer-events="none" display="none"/></g></g><g class="mark-group role-axis" role="graphics-symbol" aria-roledescription="axis" aria-label="Y-axis titled 'Execution Time (seconds, lower=better)' for a linear scale with values from 0 to 22"><g transform="translate(0.5,0.5)"><path class="background" aria-hidden="true" d="M0,0h0v0h0Z" pointer-events="none"/><g><g class="mark-rule role-axis-tick" pointer-events="none"><line transform="translate(0,600)" x2="-5" y2="0" stroke="#888" stroke-width="1" opacity="1"/><line transform="translate(0,544)" x2="-5" y2="0" stroke="#888" stroke-width="1" opacity="1"/><line transform="translate(0,489)" x2="-5" y2="0" stroke="#888" stroke-width="1" opacity="1"/><line transform="translate(0,433)" x2="-5" y2="0" stroke="#888" stroke-width="1" opacity="1"/><line transform="translate(0,378)" x2="-5" y2="0" stroke="#888" stroke-width="1" opacity="1"/><line transform="translate(0,322)" x2="-5" y2="0" stroke="#888" stroke-width="1" opacity="1"/><line transform="translate(0,266)" x2="-5" y2="0" stroke="#888" stroke-width="1" opacity="1"/><line transform="translate(0,211)" x2="-5" y2="0" stroke="#888" stroke-width="1" opacity="1"/><line transform="translate(0,155)" x2="-5" y2="0" stroke="#888" stroke-width="1" opacity="1"/><line transform="translate(0,100)" x2="-5" y2="0" stroke="#888" stroke-width="1" opacity="1"/><line transform="translate(0,44)" x2="-5" y2="0" stroke="#888" stroke-width="1" opacity="1"/></g><g class="mark-text role-axis-label" pointer-events="none"><text text-anchor="end" transform="translate(-7,603)" font-family="sans-serif" font-size="10px" fill="#000" opacity="1">0</text><text text-anchor="end" transform="translate(-7,547.4025469582589)" font-family="sans-serif" font-size="10px" fill="#000" opacity="1">2</text><text text-anchor="end" transform="translate(-7,491.80509391651765)" font-family="sans-serif" font-size="10px" fill="#000" opacity="1">4</text><text text-anchor="end" transform="translate(-7,436.2076408747765)" font-family="sans-serif" font-size="10px" fill="#000" opacity="1">6</text><text text-anchor="end" transform="translate(-7,380.61018783303535)" font-family="sans-serif" font-size="10px" fill="#000" opacity="1">8</text><text text-anchor="end" transform="translate(-7,325.0127347912942)" font-family="sans-serif" font-size="10px" fill="#000" opacity="1">10</text><text text-anchor="end" transform="translate(-7,269.415281749553)" font-family="sans-serif" font-size="10px" fill="#000" opacity="1">12</text><text text-anchor="end" transform="translate(-7,213.8178287078119)" font-family="sans-serif" font-size="10px" fill="#000" opacity="1">14</text><text text-anchor="end" transform="translate(-7,158.22037566607074)" font-family="sans-serif" font-size="10px" fill="#000" opacity="1">16</text><text text-anchor="end" transform="translate(-7,102.62292262432956)" font-family="sans-serif" font-size="10px" fill="#000" opacity="1">18</text><text text-anchor="end" transform="translate(-7,47.02546958258839)" font-family="sans-serif" font-size="10px" fill="#000" opacity="1">20</text></g><g class="mark-rule role-axis-domain" pointer-events="none"><line transform="translate(0,600)" x2="0" y2="-600" stroke="#888" stroke-width="1" opacity="1"/></g><g class="mark-text role-axis-title" pointer-events="none"><text text-anchor="middle" transform="translate(-22.123046875,300) rotate(-90) translate(0,-2)" font-family="sans-serif" font-size="11px" font-weight="bold" fill="#000" opacity="1">Execution Time (seconds, lower=better)</text></g></g><path class="foreground" aria-hidden="true" d="" pointer-events="none" display="none"/></g></g><g class="mark-group role-scope" role="graphics-object" aria-roledescription="group mark container"><g transform="translate(5,594.376492515883)"><path class="background" aria-hidden="true" d="M2.8117537420584995,0L87.1882462579415,0C88.74009539336082,0,90,1.2599046066391866,90,2.8117537420584995L90,5.623507484116999C90,5.623507484116999,90,5.623507484116999,90,5.623507484116999L0,5.623507484116999C0,5.623507484116999,0,5.623507484116999,0,5.623507484116999L0,2.8117537420584995C0,1.2599046066391866,1.2599046066391866,0,2.8117537420584995,0Z"/><g clip-path="url(#clip1)"><g class="mark-group role-scope" role="graphics-object" aria-roledescription="group mark container"><g transform="translate(0,-594.376492515883)"><path class="background" aria-hidden="true" d="M0,0h90v0h-90Z"/><g><g class="mark-rect role-mark layer_0_marks" role="graphics-object" aria-roledescription="rect mark container"><path aria-label="Parser: yamlrocks&#xA;0.6.1; Execution Time (seconds, lower=better): 0.202293708667; parser: yamlrocks; Execution Time (s): 0.2023; Slowdown: 1.00" role="graphics-symbol" aria-roledescription="bar" d="M0,594.376492515883h90v5.623507484116999h-90Z" fill="#666666"/></g></g><path class="foreground" aria-hidden="true" d="" display="none"/></g></g></g><path class="foreground" aria-hidden="true" d="" display="none"/></g><g transform="translate(105,590.3030374079806)"><path class="background" aria-hidden="true" d="M4.848481296009709,0L85.15151870399029,0C87.82746837723619,0,90,2.1725316227638096,90,4.848481296009709L90,9.696962592019418C90,9.696962592019418,90,9.696962592019418,90,9.696962592019418L0,9.696962592019418C0,9.696962592019418,0,9.696962592019418,0,9.696962592019418L0,4.848481296009709C0,2.1725316227638096,2.1725316227638096,0,4.848481296009709,0Z"/><g clip-path="url(#clip2)"><g class="mark-group role-scope" role="graphics-object" aria-roledescription="group mark container"><g transform="translate(0,-590.3030374079806)"><path class="background" aria-hidden="true" d="M0,0h90v0h-90Z"/><g><g class="mark-rect role-mark layer_0_marks" role="graphics-object" aria-roledescription="rect mark container"><path aria-label="Parser: yaml_rs&#xA;0.1.6; Execution Time (seconds, lower=better): 0.348827583333; parser: yaml_rs; Execution Time (s): 0.3488; Slowdown: 1.72" role="graphics-symbol" aria-roledescription="bar" d="M0,590.3030374079806h90v9.696962592019418h-90Z" fill="#e6ab02"/></g></g><path class="foreground" aria-hidden="true" d="" display="none"/></g></g></g><path class="foreground" aria-hidden="true" d="" display="none"/></g><g transform="translate(205,590.2548865388069)"><path class="background" aria-hidden="true" d="M4.872556730596557,0L85.12744326940344,0C87.81668053671905,0,90,2.1833194632809536,90,4.872556730596557L90,9.745113461193114C90,9.745113461193114,90,9.745113461193114,90,9.745113461193114L0,9.745113461193114C0,9.745113461193114,0,9.745113461193114,0,9.745113461193114L0,4.872556730596557C0,2.1833194632809536,2.1833194632809536,0,4.872556730596557,0Z"/><g clip-path="url(#clip3)"><g class="mark-group role-scope" role="graphics-object" aria-roledescription="group mark container"><g transform="translate(0,-590.2548865388069)"><path class="background" aria-hidden="true" d="M0,0h90v0h-90Z"/><g><g class="mark-rect role-mark layer_0_marks" role="graphics-object" aria-roledescription="rect mark container"><path aria-label="Parser: yaml_rs (parse_dt=False)&#xA;0.1.6; Execution Time (seconds, lower=better): 0.350559708333; parser: yaml_rs (parse_dt=False); Execution Time (s): 0.3506; Slowdown: 1.73" role="graphics-symbol" aria-roledescription="bar" d="M0,590.2548865388069h90v9.745113461193114h-90Z" fill="#a6761d"/></g></g><path class="foreground" aria-hidden="true" d="" display="none"/></g></g></g><path class="foreground" aria-hidden="true" d="" display="none"/></g><g transform="translate(305,579.1141055900483)"><path class="background" aria-hidden="true" d="M6,0L84,0C87.311490146964,0,90,2.688509853036,90,6L90,20.885894409951675C90,20.885894409951675,90,20.885894409951675,90,20.885894409951675L0,20.885894409951675C0,20.885894409951675,0,20.885894409951675,0,20.885894409951675L0,6C0,2.688509853036,2.688509853036,0,6,0Z"/><g clip-path="url(#clip4)"><g class="mark-group role-scope" role="graphics-object" aria-roledescription="group mark container"><g transform="translate(0,-579.1141055900483)"><path class="background" aria-hidden="true" d="M0,0h90v0h-90Z"/><g><g class="mark-rect role-mark layer_0_marks" role="graphics-object" aria-roledescription="rect mark container"><path aria-label="Parser: ryaml&#xA;0.5.1; Execution Time (seconds, lower=better): 0.751325583; parser: ryaml; Execution Time (s): 0.7513; Slowdown: 3.71" role="graphics-symbol" aria-roledescription="bar" d="M0,579.1141055900483h90v20.885894409951675h-90Z" fill="#66a61e"/></g></g><path class="foreground" aria-hidden="true" d="" display="none"/></g></g></g><path class="foreground" aria-hidden="true" d="" display="none"/></g><g transform="translate(405,560.4914421647026)"><path class="background" aria-hidden="true" d="M6,0L84,0C87.311490146964,0,90,2.688509853036,90,6L90,39.50855783529744C90,39.50855783529744,90,39.50855783529744,90,39.50855783529744L0,39.50855783529744C0,39.50855783529744,0,39.50855783529744,0,39.50855783529744L0,6C0,2.688509853036,2.688509853036,0,6,0Z"/><g clip-path="url(#clip5)"><g class="mark-group role-scope" role="graphics-object" aria-roledescription="group mark container"><g transform="translate(0,-560.4914421647026)"><path class="background" aria-hidden="true" d="M0,0h90v0h-90Z"/><g><g class="mark-rect role-mark layer_0_marks" role="graphics-object" aria-roledescription="rect mark container"><path aria-label="Parser: PyYAML (CLoader)&#xA;6.0.3; Execution Time (seconds, lower=better): 1.42123625; parser: PyYAML (CLoader); Execution Time (s): 1.4212; Slowdown: 7.03" role="graphics-symbol" aria-roledescription="bar" d="M0,560.4914421647026h90v39.50855783529744h-90Z" fill="#d95f02"/></g></g><path class="foreground" aria-hidden="true" d="" display="none"/></g></g></g><path class="foreground" aria-hidden="true" d="" display="none"/></g><g transform="translate(505,228.9671022077502)"><path class="background" aria-hidden="true" d="M6,0L84,0C87.311490146964,0,90,2.688509853036,90,6L90,371.0328977922498C90,371.0328977922498,90,371.0328977922498,90,371.0328977922498L0,371.0328977922498C0,371.0328977922498,0,371.0328977922498,0,371.0328977922498L0,6C0,2.688509853036,2.688509853036,0,6,0Z"/><g clip-path="url(#clip6)"><g class="mark-group role-scope" role="graphics-object" aria-roledescription="group mark container"><g transform="translate(0,-228.9671022077502)"><path class="background" aria-hidden="true" d="M0,0h90v0h-90Z"/><g><g class="mark-rect role-mark layer_0_marks" role="graphics-object" aria-roledescription="rect mark container"><path aria-label="Parser: oyaml&#xA;1.0; Execution Time (seconds, lower=better): 13.3471185277; parser: oyaml; Execution Time (s): 13.3471; Slowdown: 65.98" role="graphics-symbol" aria-roledescription="bar" d="M0,228.9671022077502h90v371.0328977922498h-90Z" fill="#7570b3"/></g></g><path class="foreground" aria-hidden="true" d="" display="none"/></g></g></g><path class="foreground" aria-hidden="true" d="" display="none"/></g><g transform="translate(605,217.32032806049702)"><path class="background" aria-hidden="true" d="M6,0L84,0C87.311490146964,0,90,2.688509853036,90,6L90,382.679671939503C90,382.679671939503,90,382.679671939503,90,382.679671939503L0,382.679671939503C0,382.679671939503,0,382.679671939503,0,382.679671939503L0,6C0,2.688509853036,2.688509853036,0,6,0Z"/><g clip-path="url(#clip7)"><g class="mark-group role-scope" role="graphics-object" aria-roledescription="group mark container"><g transform="translate(0,-217.32032806049702)"><path class="background" aria-hidden="true" d="M0,0h90v0h-90Z"/><g><g class="mark-rect role-mark layer_0_marks" role="graphics-object" aria-roledescription="rect mark container"><path aria-label="Parser: PyYAML&#xA;6.0.3; Execution Time (seconds, lower=better): 13.7660864303; parser: PyYAML; Execution Time (s): 13.7661; Slowdown: 68.05" role="graphics-symbol" aria-roledescription="bar" d="M0,217.32032806049702h90v382.679671939503h-90Z" fill="#1b9e77"/></g></g><path class="foreground" aria-hidden="true" d="" display="none"/></g></g></g><path class="foreground" aria-hidden="true" d="" display="none"/></g><g transform="translate(705,28.571428571428537)"><path class="background" aria-hidden="true" d="M6,0L84,0C87.311490146964,0,90,2.688509853036,90,6L90,571.4285714285714C90,571.4285714285714,90,571.4285714285714,90,571.4285714285714L0,571.4285714285714C0,571.4285714285714,0,571.4285714285714,0,571.4285714285714L0,6C0,2.688509853036,2.688509853036,0,6,0Z"/><g clip-path="url(#clip8)"><g class="mark-group role-scope" role="graphics-object" aria-roledescription="group mark container"><g transform="translate(0,-28.571428571428537)"><path class="background" aria-hidden="true" d="M0,0h90v0h-90Z"/><g><g class="mark-rect role-mark layer_0_marks" role="graphics-object" aria-roledescription="rect mark container"><path aria-label="Parser: ruamel.yaml&#xA;0.19.1; Execution Time (seconds, lower=better): 20.555926222; parser: ruamel.yaml; Execution Time (s): 20.5559; Slowdown: 101.61" role="graphics-symbol" aria-roledescription="bar" d="M0,28.571428571428537h90v571.4285714285714h-90Z" fill="#e7298a"/></g></g><path class="foreground" aria-hidden="true" d="" display="none"/></g></g></g><path class="foreground" aria-hidden="true" d="" display="none"/></g></g><g class="mark-text role-mark layer_1_marks" role="graphics-object" aria-roledescription="text mark container"><text aria-label="Parser: yamlrocks&#xA;0.6.1; Execution Time (seconds, lower=better): 0.202293708667; parser: yamlrocks; label: 0.2023s (x1.00); Execution Time (s): 0.2023; Slowdown: 1.00" role="graphics-symbol" aria-roledescription="text mark" text-anchor="middle" transform="translate(50,590.376492515883)" font-family="sans-serif" font-size="9px" font-weight="bold" fill="#666666">0.2023s (x1.00)</text><text aria-label="Parser: yaml_rs&#xA;0.1.6; Execution Time (seconds, lower=better): 0.348827583333; parser: yaml_rs; label: 0.3488s (x1.72); Execution Time (s): 0.3488; Slowdown: 1.72" role="graphics-symbol" aria-roledescription="text mark" text-anchor="middle" transform="translate(150,586.3030374079806)" font-family="sans-serif" font-size="9px" font-weight="bold" fill="#e6ab02">0.3488s (x1.72)</text><text aria-label="Parser: yaml_rs (parse_dt=False)&#xA;0.1.6; Execution Time (seconds, lower=better): 0.350559708333; parser: yaml_rs (parse_dt=False); label: 0.3506s (x1.73); Execution Time (s): 0.3506; Slowdown: 1.73" role="graphics-symbol" aria-roledescription="text mark" text-anchor="middle" transform="translate(250,586.2548865388069)" font-family="sans-serif" font-size="9px" font-weight="bold" fill="#a6761d">0.3506s (x1.73)</text><text aria-label="Parser: ryaml&#xA;0.5.1; Execution Time (seconds, lower=better): 0.751325583; parser: ryaml; label: 0.7513s (x3.71); Execution Time (s): 0.7513; Slowdown: 3.71" role="graphics-symbol" aria-roledescription="text mark" text-anchor="middle" transform="translate(350,575.1141055900483)" font-family="sans-serif" font-size="9px" font-weight="bold" fill="#66a61e">0.7513s (x3.71)</text><text aria-label="Parser: PyYAML (CLoader)&#xA;6.0.3; Execution Time (seconds, lower=better): 1.42123625; parser: PyYAML (CLoader); label: 1.4212s (x7.03); Execution Time (s): 1.4212; Slowdown: 7.03" role="graphics-symbol" aria-roledescription="text mark" text-anchor="middle" transform="translate(450,556.4914421647026)" font-family="sans-serif" font-size="9px" font-weight="bold" fill="#d95f02">1.4212s (x7.03)</text><text aria-label="Parser: oyaml&#xA;1.0; Execution Time (seconds, lower=better): 13.3471185277; parser: oyaml; label: 13.3471s (x65.98); Execution Time (s): 13.3471; Slowdown: 65.98" role="graphics-symbol" aria-roledescription="text mark" text-anchor="middle" transform="translate(550,224.9671022077502)" font-family="sans-serif" font-size="9px" font-weight="bold" fill="#7570b3">13.3471s (x65.98)</text><text aria-label="Parser: PyYAML&#xA;6.0.3; Execution Time (seconds, lower=better): 13.7660864303; parser: PyYAML; label: 13.7661s (x68.05); Execution Time (s): 13.7661; Slowdown: 68.05" role="graphics-symbol" aria-roledescription="text mark" text-anchor="middle" transform="translate(650,213.32032806049702)" font-family="sans-serif" font-size="9px" font-weight="bold" fill="#1b9e77">13.7661s (x68.05)</text><text aria-label="Parser: ruamel.yaml&#xA;0.19.1; Execution Time (seconds, lower=better): 20.555926222; parser: ruamel.yaml; label: 20.5559s (x101.61); Execution Time (s): 20.5559; Slowdown: 101.61" role="graphics-symbol" aria-roledescription="text mark" text-anchor="middle" transform="translate(750,24.571428571428537)" font-family="sans-serif" font-size="9px" font-weight="bold" fill="#e7298a">20.5559s (x101.61)</text></g><g class="mark-group role-title"><g transform="translate(400,-31)"><path class="background" aria-hidden="true" d="M0,0h0v0h0Z" pointer-events="none"/><g><g class="mark-text role-title-text" role="graphics-symbol" aria-roledescription="title" aria-label="Title text 'YAML parsers benchmark (loads)'" pointer-events="none"><text text-anchor="middle" transform="translate(0,10)" font-family="sans-serif" font-size="13px" font-weight="bold" fill="#000" opacity="1">YAML parsers benchmark (loads)</text></g><g class="mark-text role-title-subtitle" role="graphics-symbol" aria-roledescription="subtitle" aria-label="Subtitle text 'Python: 3.14.6 (Darwin 25.4.0) | CPU: Apple M1 (Virtual)'" pointer-events="none"><text text-anchor="middle" transform="translate(0,25)" font-family="sans-serif" font-size="12px" fill="#000" opacity="1">Python: 3.14.6 (Darwin 25.4.0) | CPU: Apple M1 (Virtual)</text></g></g><path class="foreground" aria-hidden="true" d="" pointer-events="none" display="none"/></g></g></g><path class="foreground" aria-hidden="true" d="" display="none"/></g></g></g><defs><clipPath id="clip1"><path d="M2.8117537420584995,0L87.1882462579415,0C88.74009539336082,0,90,1.2599046066391866,90,2.8117537420584995L90,5.623507484116999C90,5.623507484116999,90,5.623507484116999,90,5.623507484116999L0,5.623507484116999C0,5.623507484116999,0,5.623507484116999,0,5.623507484116999L0,2.8117537420584995C0,1.2599046066391866,1.2599046066391866,0,2.8117537420584995,0Z"/></clipPath><clipPath id="clip2"><path d="M4.848481296009709,0L85.15151870399029,0C87.82746837723619,0,90,2.1725316227638096,90,4.848481296009709L90,9.696962592019418C90,9.696962592019418,90,9.696962592019418,90,9.696962592019418L0,9.696962592019418C0,9.696962592019418,0,9.696962592019418,0,9.696962592019418L0,4.848481296009709C0,2.1725316227638096,2.1725316227638096,0,4.848481296009709,0Z"/></clipPath><clipPath id="clip3"><path d="M4.872556730596557,0L85.12744326940344,0C87.81668053671905,0,90,2.1833194632809536,90,4.872556730596557L90,9.745113461193114C90,9.745113461193114,90,9.745113461193114,90,9.745113461193114L0,9.745113461193114C0,9.745113461193114,0,9.745113461193114,0,9.745113461193114L0,4.872556730596557C0,2.1833194632809536,2.1833194632809536,0,4.872556730596557,0Z"/></clipPath><clipPath id="clip4"><path d="M6,0L84,0C87.311490146964,0,90,2.688509853036,90,6L90,20.885894409951675C90,20.885894409951675,90,20.885894409951675,90,20.885894409951675L0,20.885894409951675C0,20.885894409951675,0,20.885894409951675,0,20.885894409951675L0,6C0,2.688509853036,2.688509853036,0,6,0Z"/></clipPath><clipPath id="clip5"><path d="M6,0L84,0C87.311490146964,0,90,2.688509853036,90,6L90,39.50855783529744C90,39.50855783529744,90,39.50855783529744,90,39.50855783529744L0,39.50855783529744C0,39.50855783529744,0,39.50855783529744,0,39.50855783529744L0,6C0,2.688509853036,2.688509853036,0,6,0Z"/></clipPath><clipPath id="clip6"><path d="M6,0L84,0C87.311490146964,0,90,2.688509853036,90,6L90,371.0328977922498C90,371.0328977922498,90,371.0328977922498,90,371.0328977922498L0,371.0328977922498C0,371.0328977922498,0,371.0328977922498,0,371.0328977922498L0,6C0,2.688509853036,2.688509853036,0,6,0Z"/></clipPath><clipPath id="clip7"><path d="M6,0L84,0C87.311490146964,0,90,2.688509853036,90,6L90,382.679671939503C90,382.679671939503,90,382.679671939503,90,382.679671939503L0,382.679671939503C0,382.679671939503,0,382.679671939503,0,382.679671939503L0,6C0,2.688509853036,2.688509853036,0,6,0Z"/></clipPath><clipPath id="clip8"><path d="M6,0L84,0C87.311490146964,0,90,2.688509853036,90,6L90,571.4285714285714C90,571.4285714285714,90,571.4285714285714,90,571.4285714285714L0,571.4285714285714C0,571.4285714285714,0,571.4285714285714,0,571.4285714285714L0,6C0,2.688509853036,2.688509853036,0,6,0Z"/></clipPath></defs></svg>