<svg xmlns="http://www.w3.org/2000/svg" xmlns:xlink="http://www.w3.org/1999/xlink" version="1.1" class="marks" width="846" height="687" viewBox="0 0 846 687"><rect width="846" height="687" fill="white"/><g fill="none" stroke-miterlimit="10" transform="translate(41,36)"><g class="mark-group role-frame root" role="graphics-object" aria-roledescription="group mark container"><g transform="translate(0,0)"><path class="background" aria-hidden="true" d="M0.5,0.5h800v600h-800Z" stroke="#ddd"/><g><g class="mark-group role-axis" role="graphics-symbol" aria-roledescription="axis" aria-label="X-axis titled 'Parser' for a discrete scale with 7 values: yamlrocks&#xA;v0.2.1, yaml_rs&#xA;v0.1.4, ryaml&#xA;v0.5.1, PyYAML (CDumper)&#xA;v6.0.3, PyYAML&#xA;v6.0.3, oyaml&#xA;v1.0, ruamel.yaml&#xA;v0.19.1"><g transform="translate(0.5,600.5)"><path class="background" aria-hidden="true" d="M0,0h0v0h0Z" pointer-events="none"/><g><g class="mark-rule role-axis-tick" pointer-events="none"><line transform="translate(57,0)" x2="0" y2="5" stroke="#888" stroke-width="1" opacity="1"/><line transform="translate(171,0)" x2="0" y2="5" stroke="#888" stroke-width="1" opacity="1"/><line transform="translate(285,0)" x2="0" y2="5" stroke="#888" stroke-width="1" opacity="1"/><line transform="translate(400,0)" x2="0" y2="5" stroke="#888" stroke-width="1" opacity="1"/><line transform="translate(514,0)" x2="0" y2="5" stroke="#888" stroke-width="1" opacity="1"/><line transform="translate(628,0)" x2="0" y2="5" stroke="#888" stroke-width="1" opacity="1"/><line transform="translate(742,0)" x2="0" y2="5" stroke="#888" stroke-width="1" opacity="1"/></g><g class="mark-text role-axis-label" pointer-events="none"><text text-anchor="middle" transform="translate(56.642857142857096,15)" font-family="sans-serif" font-size="10px" fill="#000" opacity="1"><tspan>yamlrocks</tspan><tspan x="0" dy="14">v0.2.1</tspan></text><text text-anchor="middle" transform="translate(170.9285714285714,15)" font-family="sans-serif" font-size="10px" fill="#000" opacity="1"><tspan>yaml_rs</tspan><tspan x="0" dy="14">v0.1.4</tspan></text><text text-anchor="middle" transform="translate(285.21428571428567,15)" font-family="sans-serif" font-size="10px" fill="#000" opacity="1"><tspan>ryaml</tspan><tspan x="0" dy="14">v0.5.1</tspan></text><text text-anchor="middle" transform="translate(399.5,15)" font-family="sans-serif" font-size="10px" fill="#000" opacity="1"><tspan>PyYAML (CDumper)</tspan><tspan x="0" dy="14">v6.0.3</tspan></text><text text-anchor="middle" transform="translate(513.7857142857142,15)" font-family="sans-serif" font-size="10px" fill="#000" opacity="1"><tspan>PyYAML</tspan><tspan x="0" dy="14">v6.0.3</tspan></text><text text-anchor="middle" transform="translate(628.0714285714286,15)" font-family="sans-serif" font-size="10px" fill="#000" opacity="1"><tspan>oyaml</tspan><tspan x="0" dy="14">v1.0</tspan></text><text text-anchor="middle" transform="translate(742.3571428571429,15)" font-family="sans-serif" font-size="10px" fill="#000" opacity="1"><tspan>ruamel.yaml</tspan><tspan x="0" dy="14">v0.19.1</tspan></text></g><g class="mark-rule role-axis-domain" pointer-events="none"><line transform="translate(0,0)" x2="800" y2="0" stroke="#888" stroke-width="1" opacity="1"/></g><g class="mark-text role-axis-title" pointer-events="none"><text text-anchor="middle" transform="translate(400,44)" font-family="sans-serif" font-size="11px" font-weight="bold" fill="#000" opacity="1">Parser</text></g></g><path class="foreground" aria-hidden="true" d="" pointer-events="none" display="none"/></g></g><g class="mark-group role-axis" role="graphics-symbol" aria-roledescription="axis" aria-label="Y-axis titled 'Execution Time (seconds, lower=better)' for a linear scale with values from 0 to 9"><g transform="translate(0.5,0.5)"><path class="background" aria-hidden="true" d="M0,0h0v0h0Z" pointer-events="none"/><g><g class="mark-rule role-axis-tick" pointer-events="none"><line transform="translate(0,600)" x2="-5" y2="0" stroke="#888" stroke-width="1" opacity="1"/><line transform="translate(0,565)" x2="-5" y2="0" stroke="#888" stroke-width="1" opacity="1"/><line transform="translate(0,530)" x2="-5" y2="0" stroke="#888" stroke-width="1" opacity="1"/><line transform="translate(0,495)" x2="-5" y2="0" stroke="#888" stroke-width="1" opacity="1"/><line transform="translate(0,460)" x2="-5" y2="0" stroke="#888" stroke-width="1" opacity="1"/><line transform="translate(0,425)" x2="-5" y2="0" stroke="#888" stroke-width="1" opacity="1"/><line transform="translate(0,390)" x2="-5" y2="0" stroke="#888" stroke-width="1" opacity="1"/><line transform="translate(0,355)" x2="-5" y2="0" stroke="#888" stroke-width="1" opacity="1"/><line transform="translate(0,320)" x2="-5" y2="0" stroke="#888" stroke-width="1" opacity="1"/><line transform="translate(0,285)" x2="-5" y2="0" stroke="#888" stroke-width="1" opacity="1"/><line transform="translate(0,250)" x2="-5" y2="0" stroke="#888" stroke-width="1" opacity="1"/><line transform="translate(0,215)" x2="-5" y2="0" stroke="#888" stroke-width="1" opacity="1"/><line transform="translate(0,180)" x2="-5" y2="0" stroke="#888" stroke-width="1" opacity="1"/><line transform="translate(0,145)" x2="-5" y2="0" stroke="#888" stroke-width="1" opacity="1"/><line transform="translate(0,110)" x2="-5" y2="0" stroke="#888" stroke-width="1" opacity="1"/><line transform="translate(0,75)" x2="-5" y2="0" stroke="#888" stroke-width="1" opacity="1"/><line transform="translate(0,40)" x2="-5" y2="0" stroke="#888" stroke-width="1" opacity="1"/><line transform="translate(0,5)" x2="-5" y2="0" stroke="#888" stroke-width="1" opacity="1"/></g><g class="mark-text role-axis-label" pointer-events="none"><text text-anchor="end" transform="translate(-7,603)" font-family="sans-serif" font-size="10px" fill="#000" opacity="1">0.0</text><text text-anchor="end" transform="translate(-7,568.0098952130016)" font-family="sans-serif" font-size="10px" fill="#000" opacity="1">0.5</text><text text-anchor="end" transform="translate(-7,533.0197904260032)" font-family="sans-serif" font-size="10px" fill="#000" opacity="1">1.0</text><text text-anchor="end" transform="translate(-7,498.02968563900487)" font-family="sans-serif" font-size="10px" fill="#000" opacity="1">1.5</text><text text-anchor="end" transform="translate(-7,463.0395808520065)" font-family="sans-serif" font-size="10px" fill="#000" opacity="1">2.0</text><text text-anchor="end" transform="translate(-7,428.0494760650081)" font-family="sans-serif" font-size="10px" fill="#000" opacity="1">2.5</text><text text-anchor="end" transform="translate(-7,393.05937127800973)" font-family="sans-serif" font-size="10px" fill="#000" opacity="1">3.0</text><text text-anchor="end" transform="translate(-7,358.0692664910114)" font-family="sans-serif" font-size="10px" fill="#000" opacity="1">3.5</text><text text-anchor="end" transform="translate(-7,323.079161704013)" font-family="sans-serif" font-size="10px" fill="#000" opacity="1">4.0</text><text text-anchor="end" transform="translate(-7,288.0890569170146)" font-family="sans-serif" font-size="10px" fill="#000" opacity="1">4.5</text><text text-anchor="end" transform="translate(-7,253.09895213001624)" font-family="sans-serif" font-size="10px" fill="#000" opacity="1">5.0</text><text text-anchor="end" transform="translate(-7,218.10884734301783)" font-family="sans-serif" font-size="10px" fill="#000" opacity="1">5.5</text><text text-anchor="end" transform="translate(-7,183.11874255601947)" font-family="sans-serif" font-size="10px" fill="#000" opacity="1">6.0</text><text text-anchor="end" transform="translate(-7,148.1286377690211)" font-family="sans-serif" font-size="10px" fill="#000" opacity="1">6.5</text><text text-anchor="end" transform="translate(-7,113.1385329820227)" font-family="sans-serif" font-size="10px" fill="#000" opacity="1">7.0</text><text text-anchor="end" transform="translate(-7,78.14842819502434)" font-family="sans-serif" font-size="10px" fill="#000" opacity="1">7.5</text><text text-anchor="end" transform="translate(-7,43.158323408025986)" font-family="sans-serif" font-size="10px" fill="#000" opacity="1">8.0</text><text text-anchor="end" transform="translate(-7,8.168218621027565)" font-family="sans-serif" font-size="10px" fill="#000" opacity="1">8.5</text></g><g class="mark-rule role-axis-domain" pointer-events="none"><line transform="translate(0,600)" x2="0" y2="-600" stroke="#888" stroke-width="1" opacity="1"/></g><g class="mark-text role-axis-title" pointer-events="none"><text text-anchor="middle" transform="translate(-24.9013671875,300) rotate(-90) translate(0,-2)" font-family="sans-serif" font-size="11px" font-weight="bold" fill="#000" opacity="1">Execution Time (seconds, lower=better)</text></g></g><path class="foreground" aria-hidden="true" d="" pointer-events="none" display="none"/></g></g><g class="mark-group role-scope" role="graphics-object" aria-roledescription="group mark container"><g transform="translate(5.714285714285666,598.0013486992369)"><path class="background" aria-hidden="true" d="M0.999325650381536,0L101.85781720676133,0C102.40936004756914,0,102.85714285714286,0.44778280957372807,102.85714285714286,0.999325650381536L102.85714285714286,1.998651300763072C102.85714285714286,1.998651300763072,102.85714285714286,1.998651300763072,102.85714285714286,1.998651300763072L0,1.998651300763072C0,1.998651300763072,0,1.998651300763072,0,1.998651300763072L0,0.999325650381536C0,0.44778280957372807,0.44778280957372807,0,0.999325650381536,0Z"/><g clip-path="url(#clip9)"><g class="mark-group role-scope" role="graphics-object" aria-roledescription="group mark container"><g transform="translate(0,-598.0013486992369)"><path class="background" aria-hidden="true" d="M0,0h102.85714285714286v0h-102.85714285714286Z"/><g><g class="mark-rect role-mark layer_0_marks" role="graphics-object" aria-roledescription="rect mark container"><path aria-label="Parser: yamlrocks&#xA;v0.2.1; Execution Time (seconds, lower=better): 0.028560236; parser: yamlrocks; Execution Time (s): 0.0286; Slowdown: 1.00" role="graphics-symbol" aria-roledescription="bar" d="M0,598.0013486992369h102.85714285714286v1.998651300763072h-102.85714285714286Z" fill="#a6761d"/></g></g><path class="foreground" aria-hidden="true" d="" display="none"/></g></g></g><path class="foreground" aria-hidden="true" d="" display="none"/></g><g transform="translate(119.99999999999996,597.0039110682565)"><path class="background" aria-hidden="true" d="M1.4980444658717715,0L101.35909839127109,0C102.18589163934581,0,102.85714285714286,0.6712512177970517,102.85714285714286,1.4980444658717715L102.85714285714286,2.996088931743543C102.85714285714286,2.996088931743543,102.85714285714286,2.996088931743543,102.85714285714286,2.996088931743543L0,2.996088931743543C0,2.996088931743543,0,2.996088931743543,0,2.996088931743543L0,1.4980444658717715C0,0.6712512177970517,0.6712512177970517,0,1.4980444658717715,0Z"/><g clip-path="url(#clip10)"><g class="mark-group role-scope" role="graphics-object" aria-roledescription="group mark container"><g transform="translate(0,-597.0039110682565)"><path class="background" aria-hidden="true" d="M0,0h102.85714285714286v0h-102.85714285714286Z"/><g><g class="mark-rect role-mark layer_0_marks" role="graphics-object" aria-roledescription="rect mark container"><path aria-label="Parser: yaml_rs&#xA;v0.1.4; Execution Time (seconds, lower=better): 0.0428133746667; parser: yaml_rs; Execution Time (s): 0.0428; Slowdown: 1.50" role="graphics-symbol" aria-roledescription="bar" d="M0,597.0039110682565h102.85714285714286v2.996088931743543h-102.85714285714286Z" fill="#e6ab02"/></g></g><path class="foreground" aria-hidden="true" d="" display="none"/></g></g></g><path class="foreground" aria-hidden="true" d="" display="none"/></g><g transform="translate(234.28571428571425,589.5412496746551)"><path class="background" aria-hidden="true" d="M5.229375162672454,0L97.6277676944704,0C100.51393841546509,0,102.85714285714286,2.3432044416777713,102.85714285714286,5.229375162672454L102.85714285714286,10.458750325344909C102.85714285714286,10.458750325344909,102.85714285714286,10.458750325344909,102.85714285714286,10.458750325344909L0,10.458750325344909C0,10.458750325344909,0,10.458750325344909,0,10.458750325344909L0,5.229375162672454C0,2.3432044416777713,2.3432044416777713,0,5.229375162672454,0Z"/><g clip-path="url(#clip11)"><g class="mark-group role-scope" role="graphics-object" aria-roledescription="group mark container"><g transform="translate(0,-589.5412496746551)"><path class="background" aria-hidden="true" d="M0,0h102.85714285714286v0h-102.85714285714286Z"/><g><g class="mark-rect role-mark layer_0_marks" role="graphics-object" aria-roledescription="rect mark container"><path aria-label="Parser: ryaml&#xA;v0.5.1; Execution Time (seconds, lower=better): 0.149452972333; parser: ryaml; Execution Time (s): 0.1495; Slowdown: 5.23" role="graphics-symbol" aria-roledescription="bar" d="M0,589.5412496746551h102.85714285714286v10.458750325344909h-102.85714285714286Z" fill="#66a61e"/></g></g><path class="foreground" aria-hidden="true" d="" display="none"/></g></g></g><path class="foreground" aria-hidden="true" d="" display="none"/></g><g transform="translate(348.57142857142856,587.740915499745)"><path class="background" aria-hidden="true" d="M6,0L96.85714285714286,0C100.16863300410687,0,102.85714285714286,2.688509853036,102.85714285714286,6L102.85714285714286,12.259084500254971C102.85714285714286,12.259084500254971,102.85714285714286,12.259084500254971,102.85714285714286,12.259084500254971L0,12.259084500254971C0,12.259084500254971,0,12.259084500254971,0,12.259084500254971L0,6C0,2.688509853036,2.688509853036,0,6,0Z"/><g clip-path="url(#clip12)"><g class="mark-group role-scope" role="graphics-object" aria-roledescription="group mark container"><g transform="translate(0,-587.740915499745)"><path class="background" aria-hidden="true" d="M0,0h102.85714285714286v0h-102.85714285714286Z"/><g><g class="mark-rect role-mark layer_0_marks" role="graphics-object" aria-roledescription="rect mark container"><path aria-label="Parser: PyYAML (CDumper)&#xA;v6.0.3; Execution Time (seconds, lower=better): 0.175179305333; parser: PyYAML (CDumper); Execution Time (s): 0.1752; Slowdown: 6.13" role="graphics-symbol" aria-roledescription="bar" d="M0,587.740915499745h102.85714285714286v12.259084500254971h-102.85714285714286Z" fill="#d95f02"/></g></g><path class="foreground" aria-hidden="true" d="" display="none"/></g></g></g><path class="foreground" aria-hidden="true" d="" display="none"/></g><g transform="translate(462.85714285714283,51.67021075920986)"><path class="background" aria-hidden="true" d="M6,0L96.85714285714286,0C100.16863300410687,0,102.85714285714286,2.688509853036,102.85714285714286,6L102.85714285714286,548.3297892407901C102.85714285714286,548.3297892407901,102.85714285714286,548.3297892407901,102.85714285714286,548.3297892407901L0,548.3297892407901C0,548.3297892407901,0,548.3297892407901,0,548.3297892407901L0,6C0,2.688509853036,2.688509853036,0,6,0Z"/><g clip-path="url(#clip13)"><g class="mark-group role-scope" role="graphics-object" aria-roledescription="group mark container"><g transform="translate(0,-51.67021075920986)"><path class="background" aria-hidden="true" d="M0,0h102.85714285714286v0h-102.85714285714286Z"/><g><g class="mark-rect role-mark layer_0_marks" role="graphics-object" aria-roledescription="rect mark container"><path aria-label="Parser: PyYAML&#xA;v6.0.3; Execution Time (seconds, lower=better): 7.83549795833; parser: PyYAML; Execution Time (s): 7.8355; Slowdown: 274.35" role="graphics-symbol" aria-roledescription="bar" d="M0,51.67021075920986h102.85714285714286v548.3297892407901h-102.85714285714286Z" fill="#1b9e77"/></g></g><path class="foreground" aria-hidden="true" d="" display="none"/></g></g></g><path class="foreground" aria-hidden="true" d="" display="none"/></g><g transform="translate(577.1428571428571,49.431295051966615)"><path class="background" aria-hidden="true" d="M6,0L96.85714285714286,0C100.16863300410687,0,102.85714285714286,2.688509853036,102.85714285714286,6L102.85714285714286,550.5687049480334C102.85714285714286,550.5687049480334,102.85714285714286,550.5687049480334,102.85714285714286,550.5687049480334L0,550.5687049480334C0,550.5687049480334,0,550.5687049480334,0,550.5687049480334L0,6C0,2.688509853036,2.688509853036,0,6,0Z"/><g clip-path="url(#clip14)"><g class="mark-group role-scope" role="graphics-object" aria-roledescription="group mark container"><g transform="translate(0,-49.431295051966615)"><path class="background" aria-hidden="true" d="M0,0h102.85714285714286v0h-102.85714285714286Z"/><g><g class="mark-rect role-mark layer_0_marks" role="graphics-object" aria-roledescription="rect mark container"><path aria-label="Parser: oyaml&#xA;v1.0; Execution Time (seconds, lower=better): 7.86749151367; parser: oyaml; Execution Time (s): 7.8675; Slowdown: 275.47" role="graphics-symbol" aria-roledescription="bar" d="M0,49.431295051966615h102.85714285714286v550.5687049480334h-102.85714285714286Z" fill="#7570b3"/></g></g><path class="foreground" aria-hidden="true" d="" display="none"/></g></g></g><path class="foreground" aria-hidden="true" d="" display="none"/></g><g transform="translate(691.4285714285714,23.07692307692313)"><path class="background" aria-hidden="true" d="M6,0L96.85714285714286,0C100.16863300410687,0,102.85714285714286,2.688509853036,102.85714285714286,6L102.85714285714286,576.9230769230769C102.85714285714286,576.9230769230769,102.85714285714286,576.9230769230769,102.85714285714286,576.9230769230769L0,576.9230769230769C0,576.9230769230769,0,576.9230769230769,0,576.9230769230769L0,6C0,2.688509853036,2.688509853036,0,6,0Z"/><g clip-path="url(#clip15)"><g class="mark-group role-scope" role="graphics-object" aria-roledescription="group mark container"><g transform="translate(0,-23.07692307692313)"><path class="background" aria-hidden="true" d="M0,0h102.85714285714286v0h-102.85714285714286Z"/><g><g class="mark-rect role-mark layer_0_marks" role="graphics-object" aria-roledescription="rect mark container"><path aria-label="Parser: ruamel.yaml&#xA;v0.19.1; Execution Time (seconds, lower=better): 8.24408901367; parser: ruamel.yaml; Execution Time (s): 8.2441; Slowdown: 288.66" role="graphics-symbol" aria-roledescription="bar" d="M0,23.07692307692313h102.85714285714286v576.9230769230769h-102.85714285714286Z" fill="#e7298a"/></g></g><path class="foreground" aria-hidden="true" d="" display="none"/></g></g></g><path class="foreground" aria-hidden="true" d="" display="none"/></g></g><g class="mark-text role-mark layer_1_marks" role="graphics-object" aria-roledescription="text mark container"><text aria-label="Parser: yamlrocks&#xA;v0.2.1; Execution Time (seconds, lower=better): 0.028560236; parser: yamlrocks; label: 0.0286s (x1.00); Execution Time (s): 0.0286; Slowdown: 1.00" role="graphics-symbol" aria-roledescription="text mark" text-anchor="middle" transform="translate(57.142857142857096,594.0013486992369)" font-family="sans-serif" font-size="9px" font-weight="bold" fill="#a6761d">0.0286s (x1.00)</text><text aria-label="Parser: yaml_rs&#xA;v0.1.4; Execution Time (seconds, lower=better): 0.0428133746667; parser: yaml_rs; label: 0.0428s (x1.50); Execution Time (s): 0.0428; Slowdown: 1.50" role="graphics-symbol" aria-roledescription="text mark" text-anchor="middle" transform="translate(171.4285714285714,593.0039110682565)" font-family="sans-serif" font-size="9px" font-weight="bold" fill="#e6ab02">0.0428s (x1.50)</text><text aria-label="Parser: ryaml&#xA;v0.5.1; Execution Time (seconds, lower=better): 0.149452972333; parser: ryaml; label: 0.1495s (x5.23); Execution Time (s): 0.1495; Slowdown: 5.23" role="graphics-symbol" aria-roledescription="text mark" text-anchor="middle" transform="translate(285.71428571428567,585.5412496746551)" font-family="sans-serif" font-size="9px" font-weight="bold" fill="#66a61e">0.1495s (x5.23)</text><text aria-label="Parser: PyYAML (CDumper)&#xA;v6.0.3; Execution Time (seconds, lower=better): 0.175179305333; parser: PyYAML (CDumper); label: 0.1752s (x6.13); Execution Time (s): 0.1752; Slowdown: 6.13" role="graphics-symbol" aria-roledescription="text mark" text-anchor="middle" transform="translate(400,583.740915499745)" font-family="sans-serif" font-size="9px" font-weight="bold" fill="#d95f02">0.1752s (x6.13)</text><text aria-label="Parser: PyYAML&#xA;v6.0.3; Execution Time (seconds, lower=better): 7.83549795833; parser: PyYAML; label: 7.8355s (x274.35); Execution Time (s): 7.8355; Slowdown: 274.35" role="graphics-symbol" aria-roledescription="text mark" text-anchor="middle" transform="translate(514.2857142857142,47.67021075920986)" font-family="sans-serif" font-size="9px" font-weight="bold" fill="#1b9e77">7.8355s (x274.35)</text><text aria-label="Parser: oyaml&#xA;v1.0; Execution Time (seconds, lower=better): 7.86749151367; parser: oyaml; label: 7.8675s (x275.47); Execution Time (s): 7.8675; Slowdown: 275.47" role="graphics-symbol" aria-roledescription="text mark" text-anchor="middle" transform="translate(628.5714285714286,45.431295051966615)" font-family="sans-serif" font-size="9px" font-weight="bold" fill="#7570b3">7.8675s (x275.47)</text><text aria-label="Parser: ruamel.yaml&#xA;v0.19.1; Execution Time (seconds, lower=better): 8.24408901367; parser: ruamel.yaml; label: 8.2441s (x288.66); Execution Time (s): 8.2441; Slowdown: 288.66" role="graphics-symbol" aria-roledescription="text mark" text-anchor="middle" transform="translate(742.8571428571429,19.07692307692313)" font-family="sans-serif" font-size="9px" font-weight="bold" fill="#e7298a">8.2441s (x288.66)</text></g><g class="mark-group role-title"><g transform="translate(400,-31)"><path class="background" aria-hidden="true" d="M0,0h0v0h0Z" pointer-events="none"/><g><g class="mark-text role-title-text" role="graphics-symbol" aria-roledescription="title" aria-label="Title text 'YAML parsers benchmark (dumps)'" pointer-events="none"><text text-anchor="middle" transform="translate(0,10)" font-family="sans-serif" font-size="13px" font-weight="bold" fill="#000" opacity="1">YAML parsers benchmark (dumps)</text></g><g class="mark-text role-title-subtitle" role="graphics-symbol" aria-roledescription="subtitle" aria-label="Subtitle text 'Python: 3.14.5 (Darwin 24.6.0) | CPU: Apple M1 (Virtual)'" pointer-events="none"><text text-anchor="middle" transform="translate(0,25)" font-family="sans-serif" font-size="12px" fill="#000" opacity="1">Python: 3.14.5 (Darwin 24.6.0) | CPU: Apple M1 (Virtual)</text></g></g><path class="foreground" aria-hidden="true" d="" pointer-events="none" display="none"/></g></g></g><path class="foreground" aria-hidden="true" d="" display="none"/></g></g></g><defs><clipPath id="clip9"><path d="M0.999325650381536,0L101.85781720676133,0C102.40936004756914,0,102.85714285714286,0.44778280957372807,102.85714285714286,0.999325650381536L102.85714285714286,1.998651300763072C102.85714285714286,1.998651300763072,102.85714285714286,1.998651300763072,102.85714285714286,1.998651300763072L0,1.998651300763072C0,1.998651300763072,0,1.998651300763072,0,1.998651300763072L0,0.999325650381536C0,0.44778280957372807,0.44778280957372807,0,0.999325650381536,0Z"/></clipPath><clipPath id="clip10"><path d="M1.4980444658717715,0L101.35909839127109,0C102.18589163934581,0,102.85714285714286,0.6712512177970517,102.85714285714286,1.4980444658717715L102.85714285714286,2.996088931743543C102.85714285714286,2.996088931743543,102.85714285714286,2.996088931743543,102.85714285714286,2.996088931743543L0,2.996088931743543C0,2.996088931743543,0,2.996088931743543,0,2.996088931743543L0,1.4980444658717715C0,0.6712512177970517,0.6712512177970517,0,1.4980444658717715,0Z"/></clipPath><clipPath id="clip11"><path d="M5.229375162672454,0L97.6277676944704,0C100.51393841546509,0,102.85714285714286,2.3432044416777713,102.85714285714286,5.229375162672454L102.85714285714286,10.458750325344909C102.85714285714286,10.458750325344909,102.85714285714286,10.458750325344909,102.85714285714286,10.458750325344909L0,10.458750325344909C0,10.458750325344909,0,10.458750325344909,0,10.458750325344909L0,5.229375162672454C0,2.3432044416777713,2.3432044416777713,0,5.229375162672454,0Z"/></clipPath><clipPath id="clip12"><path d="M6,0L96.85714285714286,0C100.16863300410687,0,102.85714285714286,2.688509853036,102.85714285714286,6L102.85714285714286,12.259084500254971C102.85714285714286,12.259084500254971,102.85714285714286,12.259084500254971,102.85714285714286,12.259084500254971L0,12.259084500254971C0,12.259084500254971,0,12.259084500254971,0,12.259084500254971L0,6C0,2.688509853036,2.688509853036,0,6,0Z"/></clipPath><clipPath id="clip13"><path d="M6,0L96.85714285714286,0C100.16863300410687,0,102.85714285714286,2.688509853036,102.85714285714286,6L102.85714285714286,548.3297892407901C102.85714285714286,548.3297892407901,102.85714285714286,548.3297892407901,102.85714285714286,548.3297892407901L0,548.3297892407901C0,548.3297892407901,0,548.3297892407901,0,548.3297892407901L0,6C0,2.688509853036,2.688509853036,0,6,0Z"/></clipPath><clipPath id="clip14"><path d="M6,0L96.85714285714286,0C100.16863300410687,0,102.85714285714286,2.688509853036,102.85714285714286,6L102.85714285714286,550.5687049480334C102.85714285714286,550.5687049480334,102.85714285714286,550.5687049480334,102.85714285714286,550.5687049480334L0,550.5687049480334C0,550.5687049480334,0,550.5687049480334,0,550.5687049480334L0,6C0,2.688509853036,2.688509853036,0,6,0Z"/></clipPath><clipPath id="clip15"><path d="M6,0L96.85714285714286,0C100.16863300410687,0,102.85714285714286,2.688509853036,102.85714285714286,6L102.85714285714286,576.9230769230769C102.85714285714286,576.9230769230769,102.85714285714286,576.9230769230769,102.85714285714286,576.9230769230769L0,576.9230769230769C0,576.9230769230769,0,576.9230769230769,0,576.9230769230769L0,6C0,2.688509853036,2.688509853036,0,6,0Z"/></clipPath></defs></svg>