<svg xmlns="http://www.w3.org/2000/svg" xmlns:xlink="http://www.w3.org/1999/xlink" version="1.1" class="marks" width="844" height="691" viewBox="0 0 844 691"><rect width="844" height="691" fill="white"/><g fill="none" stroke-miterlimit="10" transform="translate(39,40)"><g class="mark-group role-frame root" role="graphics-object" aria-roledescription="group mark container"><g transform="translate(0,0)"><path class="background" aria-hidden="true" d="M0.5,0.5h800v600h-800Z" stroke="#ddd"/><g><g class="mark-group role-axis" role="graphics-symbol" aria-roledescription="axis" aria-label="X-axis titled 'Parser' for a discrete scale with 8 values: yaml_rs&#xA;0.1.4, yamlrocks&#xA;0.5.0, yaml_rs (parse_dt=False)&#xA;0.1.4, ryaml&#xA;0.5.1, PyYAML (CLoader)&#xA;6.0.3, ending with ruamel.yaml&#xA;0.19.1"><g transform="translate(0.5,600.5)"><path class="background" aria-hidden="true" d="M0,0h0v0h0Z" pointer-events="none"/><g><g class="mark-rule role-axis-tick" pointer-events="none"><line transform="translate(50,0)" x2="0" y2="5" stroke="#888" stroke-width="1" opacity="1"/><line transform="translate(150,0)" x2="0" y2="5" stroke="#888" stroke-width="1" opacity="1"/><line transform="translate(250,0)" x2="0" y2="5" stroke="#888" stroke-width="1" opacity="1"/><line transform="translate(350,0)" x2="0" y2="5" stroke="#888" stroke-width="1" opacity="1"/><line transform="translate(450,0)" x2="0" y2="5" stroke="#888" stroke-width="1" opacity="1"/><line transform="translate(550,0)" x2="0" y2="5" stroke="#888" stroke-width="1" opacity="1"/><line transform="translate(650,0)" x2="0" y2="5" stroke="#888" stroke-width="1" opacity="1"/><line transform="translate(750,0)" x2="0" y2="5" stroke="#888" stroke-width="1" opacity="1"/></g><g class="mark-text role-axis-label" pointer-events="none"><text text-anchor="middle" transform="translate(49.5,15)" font-family="sans-serif" font-size="10px" fill="#000" opacity="1"><tspan>yaml_rs</tspan><tspan x="0" dy="14">0.1.4</tspan></text><text text-anchor="middle" transform="translate(149.5,15)" font-family="sans-serif" font-size="10px" fill="#000" opacity="1"><tspan>yamlrocks</tspan><tspan x="0" dy="14">0.5.0</tspan></text><text text-anchor="middle" transform="translate(249.5,15)" font-family="sans-serif" font-size="10px" fill="#000" opacity="1"><tspan>yaml_rs (parse_dt=False)</tspan><tspan x="0" dy="14">0.1.4</tspan></text><text text-anchor="middle" transform="translate(349.5,15)" font-family="sans-serif" font-size="10px" fill="#000" opacity="1"><tspan>ryaml</tspan><tspan x="0" dy="14">0.5.1</tspan></text><text text-anchor="middle" transform="translate(449.5,15)" font-family="sans-serif" font-size="10px" fill="#000" opacity="1"><tspan>PyYAML (CLoader)</tspan><tspan x="0" dy="14">6.0.3</tspan></text><text text-anchor="middle" transform="translate(549.5,15)" font-family="sans-serif" font-size="10px" fill="#000" opacity="1"><tspan>oyaml</tspan><tspan x="0" dy="14">1.0</tspan></text><text text-anchor="middle" transform="translate(649.5,15)" font-family="sans-serif" font-size="10px" fill="#000" opacity="1"><tspan>PyYAML</tspan><tspan x="0" dy="14">6.0.3</tspan></text><text text-anchor="middle" transform="translate(749.5,15)" font-family="sans-serif" font-size="10px" fill="#000" opacity="1"><tspan>ruamel.yaml</tspan><tspan x="0" dy="14">0.19.1</tspan></text></g><g class="mark-rule role-axis-domain" pointer-events="none"><line transform="translate(0,0)" x2="800" y2="0" stroke="#888" stroke-width="1" opacity="1"/></g><g class="mark-text role-axis-title" pointer-events="none"><text text-anchor="middle" transform="translate(400,44)" font-family="sans-serif" font-size="11px" font-weight="bold" fill="#000" opacity="1">Parser</text></g></g><path class="foreground" aria-hidden="true" d="" pointer-events="none" display="none"/></g></g><g class="mark-group role-axis" role="graphics-symbol" aria-roledescription="axis" aria-label="Y-axis titled 'Execution Time (seconds, lower=better)' for a linear scale with values from 0 to 24"><g transform="translate(0.5,0.5)"><path class="background" aria-hidden="true" d="M0,0h0v0h0Z" pointer-events="none"/><g><g class="mark-rule role-axis-tick" pointer-events="none"><line transform="translate(0,600)" x2="-5" y2="0" stroke="#888" stroke-width="1" opacity="1"/><line transform="translate(0,550)" x2="-5" y2="0" stroke="#888" stroke-width="1" opacity="1"/><line transform="translate(0,500)" x2="-5" y2="0" stroke="#888" stroke-width="1" opacity="1"/><line transform="translate(0,450)" x2="-5" y2="0" stroke="#888" stroke-width="1" opacity="1"/><line transform="translate(0,401)" x2="-5" y2="0" stroke="#888" stroke-width="1" opacity="1"/><line transform="translate(0,351)" x2="-5" y2="0" stroke="#888" stroke-width="1" opacity="1"/><line transform="translate(0,301)" x2="-5" y2="0" stroke="#888" stroke-width="1" opacity="1"/><line transform="translate(0,251)" x2="-5" y2="0" stroke="#888" stroke-width="1" opacity="1"/><line transform="translate(0,201)" x2="-5" y2="0" stroke="#888" stroke-width="1" opacity="1"/><line transform="translate(0,151)" x2="-5" y2="0" stroke="#888" stroke-width="1" opacity="1"/><line transform="translate(0,101)" x2="-5" y2="0" stroke="#888" stroke-width="1" opacity="1"/><line transform="translate(0,52)" x2="-5" y2="0" stroke="#888" stroke-width="1" opacity="1"/><line transform="translate(0,2)" x2="-5" y2="0" stroke="#888" stroke-width="1" opacity="1"/></g><g class="mark-text role-axis-label" pointer-events="none"><text text-anchor="end" transform="translate(-7,603)" font-family="sans-serif" font-size="10px" fill="#000" opacity="1">0</text><text text-anchor="end" transform="translate(-7,553.1431823527006)" font-family="sans-serif" font-size="10px" fill="#000" opacity="1">2</text><text text-anchor="end" transform="translate(-7,503.2863647054012)" font-family="sans-serif" font-size="10px" fill="#000" opacity="1">4</text><text text-anchor="end" transform="translate(-7,453.4295470581018)" font-family="sans-serif" font-size="10px" fill="#000" opacity="1">6</text><text text-anchor="end" transform="translate(-7,403.57272941080237)" font-family="sans-serif" font-size="10px" fill="#000" opacity="1">8</text><text text-anchor="end" transform="translate(-7,353.71591176350296)" font-family="sans-serif" font-size="10px" fill="#000" opacity="1">10</text><text text-anchor="end" transform="translate(-7,303.85909411620355)" font-family="sans-serif" font-size="10px" fill="#000" opacity="1">12</text><text text-anchor="end" transform="translate(-7,254.00227646890406)" font-family="sans-serif" font-size="10px" fill="#000" opacity="1">14</text><text text-anchor="end" transform="translate(-7,204.14545882160465)" font-family="sans-serif" font-size="10px" fill="#000" opacity="1">16</text><text text-anchor="end" transform="translate(-7,154.28864117430524)" font-family="sans-serif" font-size="10px" fill="#000" opacity="1">18</text><text text-anchor="end" transform="translate(-7,104.43182352700582)" font-family="sans-serif" font-size="10px" fill="#000" opacity="1">20</text><text text-anchor="end" transform="translate(-7,54.5750058797064)" font-family="sans-serif" font-size="10px" fill="#000" opacity="1">22</text><text text-anchor="end" transform="translate(-7,4.718188232406992)" font-family="sans-serif" font-size="10px" fill="#000" opacity="1">24</text></g><g class="mark-rule role-axis-domain" pointer-events="none"><line transform="translate(0,600)" x2="0" y2="-600" stroke="#888" stroke-width="1" opacity="1"/></g><g class="mark-text role-axis-title" pointer-events="none"><text text-anchor="middle" transform="translate(-22.123046875,300) rotate(-90) translate(0,-2)" font-family="sans-serif" font-size="11px" font-weight="bold" fill="#000" opacity="1">Execution Time (seconds, lower=better)</text></g></g><path class="foreground" aria-hidden="true" d="" pointer-events="none" display="none"/></g></g><g class="mark-group role-scope" role="graphics-object" aria-roledescription="group mark container"><g transform="translate(5,592.0460967513727)"><path class="background" aria-hidden="true" d="M3.9769516243136422,0L86.02304837568636,0C88.21798772883088,0,90,1.7820122711691253,90,3.9769516243136422L90,7.9539032486272845C90,7.9539032486272845,90,7.9539032486272845,90,7.9539032486272845L0,7.9539032486272845C0,7.9539032486272845,0,7.9539032486272845,0,7.9539032486272845L0,3.9769516243136422C0,1.7820122711691253,1.7820122711691253,0,3.9769516243136422,0Z"/><g clip-path="url(#clip1)"><g class="mark-group role-scope" role="graphics-object" aria-roledescription="group mark container"><g transform="translate(0,-592.0460967513727)"><path class="background" aria-hidden="true" d="M0,0h90v0h-90Z"/><g><g class="mark-rect role-mark layer_0_marks" role="graphics-object" aria-roledescription="rect mark container"><path aria-label="Parser: yaml_rs&#xA;0.1.4; Execution Time (seconds, lower=better): 0.319069833333; parser: yaml_rs; Execution Time (s): 0.3191; Slowdown: 1.00" role="graphics-symbol" aria-roledescription="bar" d="M0,592.0460967513727h90v7.9539032486272845h-90Z" fill="#e6ab02"/></g></g><path class="foreground" aria-hidden="true" d="" display="none"/></g></g></g><path class="foreground" aria-hidden="true" d="" display="none"/></g><g transform="translate(105,591.9509827481945)"><path class="background" aria-hidden="true" d="M4.02450862590274,0L85.97549137409726,0C88.19667815093868,0,90,1.8033218490613152,90,4.02450862590274L90,8.04901725180548C90,8.04901725180548,90,8.04901725180548,90,8.04901725180548L0,8.04901725180548C0,8.04901725180548,0,8.04901725180548,0,8.04901725180548L0,4.02450862590274C0,1.8033218490613152,1.8033218490613152,0,4.02450862590274,0Z"/><g clip-path="url(#clip2)"><g class="mark-group role-scope" role="graphics-object" aria-roledescription="group mark container"><g transform="translate(0,-591.9509827481945)"><path class="background" aria-hidden="true" d="M0,0h90v0h-90Z"/><g><g class="mark-rect role-mark layer_0_marks" role="graphics-object" aria-roledescription="rect mark container"><path aria-label="Parser: yamlrocks&#xA;0.5.0; Execution Time (seconds, lower=better): 0.322885319667; parser: yamlrocks; Execution Time (s): 0.3229; Slowdown: 1.01" role="graphics-symbol" aria-roledescription="bar" d="M0,591.9509827481945h90v8.04901725180548h-90Z" fill="#666666"/></g></g><path class="foreground" aria-hidden="true" d="" display="none"/></g></g></g><path class="foreground" aria-hidden="true" d="" display="none"/></g><g transform="translate(205,591.6000572277143)"><path class="background" aria-hidden="true" d="M4.199971386142863,0L85.80002861385714,0C88.11805592431428,0,90,1.8819440756857257,90,4.199971386142863L90,8.399942772285726C90,8.399942772285726,90,8.399942772285726,90,8.399942772285726L0,8.399942772285726C0,8.399942772285726,0,8.399942772285726,0,8.399942772285726L0,4.199971386142863C0,1.8819440756857257,1.8819440756857257,0,4.199971386142863,0Z"/><g clip-path="url(#clip3)"><g class="mark-group role-scope" role="graphics-object" aria-roledescription="group mark container"><g transform="translate(0,-591.6000572277143)"><path class="background" aria-hidden="true" d="M0,0h90v0h-90Z"/><g><g class="mark-rect role-mark layer_0_marks" role="graphics-object" aria-roledescription="rect mark container"><path aria-label="Parser: yaml_rs (parse_dt=False)&#xA;0.1.4; Execution Time (seconds, lower=better): 0.336962653; parser: yaml_rs (parse_dt=False); Execution Time (s): 0.3370; Slowdown: 1.06" role="graphics-symbol" aria-roledescription="bar" d="M0,591.6000572277143h90v8.399942772285726h-90Z" fill="#a6761d"/></g></g><path class="foreground" aria-hidden="true" d="" display="none"/></g></g></g><path class="foreground" aria-hidden="true" d="" display="none"/></g><g transform="translate(305,584.0416109941891)"><path class="background" aria-hidden="true" d="M6,0L84,0C87.311490146964,0,90,2.688509853036,90,6L90,15.958389005810886C90,15.958389005810886,90,15.958389005810886,90,15.958389005810886L0,15.958389005810886C0,15.958389005810886,0,15.958389005810886,0,15.958389005810886L0,6C0,2.688509853036,2.688509853036,0,6,0Z"/><g clip-path="url(#clip4)"><g class="mark-group role-scope" role="graphics-object" aria-roledescription="group mark container"><g transform="translate(0,-584.0416109941891)"><path class="background" aria-hidden="true" d="M0,0h90v0h-90Z"/><g><g class="mark-rect role-mark layer_0_marks" role="graphics-object" aria-roledescription="rect mark container"><path aria-label="Parser: ryaml&#xA;0.5.1; Execution Time (seconds, lower=better): 0.640168777667; parser: ryaml; Execution Time (s): 0.6402; Slowdown: 2.01" role="graphics-symbol" aria-roledescription="bar" d="M0,584.0416109941891h90v15.958389005810886h-90Z" fill="#66a61e"/></g></g><path class="foreground" aria-hidden="true" d="" display="none"/></g></g></g><path class="foreground" aria-hidden="true" d="" display="none"/></g><g transform="translate(405,550.8307514927724)"><path class="background" aria-hidden="true" d="M6,0L84,0C87.311490146964,0,90,2.688509853036,90,6L90,49.16924850722762C90,49.16924850722762,90,49.16924850722762,90,49.16924850722762L0,49.16924850722762C0,49.16924850722762,0,49.16924850722762,0,49.16924850722762L0,6C0,2.688509853036,2.688509853036,0,6,0Z"/><g clip-path="url(#clip5)"><g class="mark-group role-scope" role="graphics-object" aria-roledescription="group mark container"><g transform="translate(0,-550.8307514927724)"><path class="background" aria-hidden="true" d="M0,0h90v0h-90Z"/><g><g class="mark-rect role-mark layer_0_marks" role="graphics-object" aria-roledescription="rect mark container"><path aria-label="Parser: PyYAML (CLoader)&#xA;6.0.3; Execution Time (seconds, lower=better): 1.97241825; parser: PyYAML (CLoader); Execution Time (s): 1.9724; Slowdown: 6.18" role="graphics-symbol" aria-roledescription="bar" d="M0,550.8307514927724h90v49.16924850722762h-90Z" fill="#d95f02"/></g></g><path class="foreground" aria-hidden="true" d="" display="none"/></g></g></g><path class="foreground" aria-hidden="true" d="" display="none"/></g><g transform="translate(505,223.43940985173418)"><path class="background" aria-hidden="true" d="M6,0L84,0C87.311490146964,0,90,2.688509853036,90,6L90,376.5605901482658C90,376.5605901482658,90,376.5605901482658,90,376.5605901482658L0,376.5605901482658C0,376.5605901482658,0,376.5605901482658,0,376.5605901482658L0,6C0,2.688509853036,2.688509853036,0,6,0Z"/><g clip-path="url(#clip6)"><g class="mark-group role-scope" role="graphics-object" aria-roledescription="group mark container"><g transform="translate(0,-223.43940985173418)"><path class="background" aria-hidden="true" d="M0,0h90v0h-90Z"/><g><g class="mark-rect role-mark layer_0_marks" role="graphics-object" aria-roledescription="rect mark container"><path aria-label="Parser: oyaml&#xA;1.0; Execution Time (seconds, lower=better): 15.1056809447; parser: oyaml; Execution Time (s): 15.1057; Slowdown: 47.34" role="graphics-symbol" aria-roledescription="bar" d="M0,223.43940985173418h90v376.5605901482658h-90Z" fill="#7570b3"/></g></g><path class="foreground" aria-hidden="true" d="" display="none"/></g></g></g><path class="foreground" aria-hidden="true" d="" display="none"/></g><g transform="translate(605,162.40368166929713)"><path class="background" aria-hidden="true" d="M6,0L84,0C87.311490146964,0,90,2.688509853036,90,6L90,437.59631833070284C90,437.59631833070284,90,437.59631833070284,90,437.59631833070284L0,437.59631833070284C0,437.59631833070284,0,437.59631833070284,0,437.59631833070284L0,6C0,2.688509853036,2.688509853036,0,6,0Z"/><g clip-path="url(#clip7)"><g class="mark-group role-scope" role="graphics-object" aria-roledescription="group mark container"><g transform="translate(0,-162.40368166929713)"><path class="background" aria-hidden="true" d="M0,0h90v0h-90Z"/><g><g class="mark-rect role-mark layer_0_marks" role="graphics-object" aria-roledescription="rect mark container"><path aria-label="Parser: PyYAML&#xA;6.0.3; Execution Time (seconds, lower=better): 17.5541215417; parser: PyYAML; Execution Time (s): 17.5541; Slowdown: 55.02" role="graphics-symbol" aria-roledescription="bar" d="M0,162.40368166929713h90v437.59631833070284h-90Z" fill="#1b9e77"/></g></g><path class="foreground" aria-hidden="true" d="" display="none"/></g></g></g><path class="foreground" aria-hidden="true" d="" display="none"/></g><g transform="translate(705,28.571428571428605)"><path class="background" aria-hidden="true" d="M6,0L84,0C87.311490146964,0,90,2.688509853036,90,6L90,571.4285714285714C90,571.4285714285714,90,571.4285714285714,90,571.4285714285714L0,571.4285714285714C0,571.4285714285714,0,571.4285714285714,0,571.4285714285714L0,6C0,2.688509853036,2.688509853036,0,6,0Z"/><g clip-path="url(#clip8)"><g class="mark-group role-scope" role="graphics-object" aria-roledescription="group mark container"><g transform="translate(0,-28.571428571428605)"><path class="background" aria-hidden="true" d="M0,0h90v0h-90Z"/><g><g class="mark-rect role-mark layer_0_marks" role="graphics-object" aria-roledescription="rect mark container"><path aria-label="Parser: ruamel.yaml&#xA;0.19.1; Execution Time (seconds, lower=better): 22.9227856247; parser: ruamel.yaml; Execution Time (s): 22.9228; Slowdown: 71.84" role="graphics-symbol" aria-roledescription="bar" d="M0,28.571428571428605h90v571.4285714285714h-90Z" fill="#e7298a"/></g></g><path class="foreground" aria-hidden="true" d="" display="none"/></g></g></g><path class="foreground" aria-hidden="true" d="" display="none"/></g></g><g class="mark-text role-mark layer_1_marks" role="graphics-object" aria-roledescription="text mark container"><text aria-label="Parser: yaml_rs&#xA;0.1.4; Execution Time (seconds, lower=better): 0.319069833333; parser: yaml_rs; label: 0.3191s (x1.00); Execution Time (s): 0.3191; Slowdown: 1.00" role="graphics-symbol" aria-roledescription="text mark" text-anchor="middle" transform="translate(50,588.0460967513727)" font-family="sans-serif" font-size="9px" font-weight="bold" fill="#e6ab02">0.3191s (x1.00)</text><text aria-label="Parser: yamlrocks&#xA;0.5.0; Execution Time (seconds, lower=better): 0.322885319667; parser: yamlrocks; label: 0.3229s (x1.01); Execution Time (s): 0.3229; Slowdown: 1.01" role="graphics-symbol" aria-roledescription="text mark" text-anchor="middle" transform="translate(150,587.9509827481945)" font-family="sans-serif" font-size="9px" font-weight="bold" fill="#666666">0.3229s (x1.01)</text><text aria-label="Parser: yaml_rs (parse_dt=False)&#xA;0.1.4; Execution Time (seconds, lower=better): 0.336962653; parser: yaml_rs (parse_dt=False); label: 0.3370s (x1.06); Execution Time (s): 0.3370; Slowdown: 1.06" role="graphics-symbol" aria-roledescription="text mark" text-anchor="middle" transform="translate(250,587.6000572277143)" font-family="sans-serif" font-size="9px" font-weight="bold" fill="#a6761d">0.3370s (x1.06)</text><text aria-label="Parser: ryaml&#xA;0.5.1; Execution Time (seconds, lower=better): 0.640168777667; parser: ryaml; label: 0.6402s (x2.01); Execution Time (s): 0.6402; Slowdown: 2.01" role="graphics-symbol" aria-roledescription="text mark" text-anchor="middle" transform="translate(350,580.0416109941891)" font-family="sans-serif" font-size="9px" font-weight="bold" fill="#66a61e">0.6402s (x2.01)</text><text aria-label="Parser: PyYAML (CLoader)&#xA;6.0.3; Execution Time (seconds, lower=better): 1.97241825; parser: PyYAML (CLoader); label: 1.9724s (x6.18); Execution Time (s): 1.9724; Slowdown: 6.18" role="graphics-symbol" aria-roledescription="text mark" text-anchor="middle" transform="translate(450,546.8307514927724)" font-family="sans-serif" font-size="9px" font-weight="bold" fill="#d95f02">1.9724s (x6.18)</text><text aria-label="Parser: oyaml&#xA;1.0; Execution Time (seconds, lower=better): 15.1056809447; parser: oyaml; label: 15.1057s (x47.34); Execution Time (s): 15.1057; Slowdown: 47.34" role="graphics-symbol" aria-roledescription="text mark" text-anchor="middle" transform="translate(550,219.43940985173418)" font-family="sans-serif" font-size="9px" font-weight="bold" fill="#7570b3">15.1057s (x47.34)</text><text aria-label="Parser: PyYAML&#xA;6.0.3; Execution Time (seconds, lower=better): 17.5541215417; parser: PyYAML; label: 17.5541s (x55.02); Execution Time (s): 17.5541; Slowdown: 55.02" role="graphics-symbol" aria-roledescription="text mark" text-anchor="middle" transform="translate(650,158.40368166929713)" font-family="sans-serif" font-size="9px" font-weight="bold" fill="#1b9e77">17.5541s (x55.02)</text><text aria-label="Parser: ruamel.yaml&#xA;0.19.1; Execution Time (seconds, lower=better): 22.9227856247; parser: ruamel.yaml; label: 22.9228s (x71.84); Execution Time (s): 22.9228; Slowdown: 71.84" role="graphics-symbol" aria-roledescription="text mark" text-anchor="middle" transform="translate(750,24.571428571428605)" font-family="sans-serif" font-size="9px" font-weight="bold" fill="#e7298a">22.9228s (x71.84)</text></g><g class="mark-group role-title"><g transform="translate(400,-34.28181176759301)"><path class="background" aria-hidden="true" d="M0,0h0v0h0Z" pointer-events="none"/><g><g class="mark-text role-title-text" role="graphics-symbol" aria-roledescription="title" aria-label="Title text 'YAML parsers benchmark (loads)'" pointer-events="none"><text text-anchor="middle" transform="translate(0,10)" font-family="sans-serif" font-size="13px" font-weight="bold" fill="#000" opacity="1">YAML parsers benchmark (loads)</text></g><g class="mark-text role-title-subtitle" role="graphics-symbol" aria-roledescription="subtitle" aria-label="Subtitle text 'Python: 3.14.6 (Darwin 25.4.0) | CPU: Unknown'" pointer-events="none"><text text-anchor="middle" transform="translate(0,25)" font-family="sans-serif" font-size="12px" fill="#000" opacity="1">Python: 3.14.6 (Darwin 25.4.0) | CPU: Unknown</text></g></g><path class="foreground" aria-hidden="true" d="" pointer-events="none" display="none"/></g></g></g><path class="foreground" aria-hidden="true" d="" display="none"/></g></g></g><defs><clipPath id="clip1"><path d="M3.9769516243136422,0L86.02304837568636,0C88.21798772883088,0,90,1.7820122711691253,90,3.9769516243136422L90,7.9539032486272845C90,7.9539032486272845,90,7.9539032486272845,90,7.9539032486272845L0,7.9539032486272845C0,7.9539032486272845,0,7.9539032486272845,0,7.9539032486272845L0,3.9769516243136422C0,1.7820122711691253,1.7820122711691253,0,3.9769516243136422,0Z"/></clipPath><clipPath id="clip2"><path d="M4.02450862590274,0L85.97549137409726,0C88.19667815093868,0,90,1.8033218490613152,90,4.02450862590274L90,8.04901725180548C90,8.04901725180548,90,8.04901725180548,90,8.04901725180548L0,8.04901725180548C0,8.04901725180548,0,8.04901725180548,0,8.04901725180548L0,4.02450862590274C0,1.8033218490613152,1.8033218490613152,0,4.02450862590274,0Z"/></clipPath><clipPath id="clip3"><path d="M4.199971386142863,0L85.80002861385714,0C88.11805592431428,0,90,1.8819440756857257,90,4.199971386142863L90,8.399942772285726C90,8.399942772285726,90,8.399942772285726,90,8.399942772285726L0,8.399942772285726C0,8.399942772285726,0,8.399942772285726,0,8.399942772285726L0,4.199971386142863C0,1.8819440756857257,1.8819440756857257,0,4.199971386142863,0Z"/></clipPath><clipPath id="clip4"><path d="M6,0L84,0C87.311490146964,0,90,2.688509853036,90,6L90,15.958389005810886C90,15.958389005810886,90,15.958389005810886,90,15.958389005810886L0,15.958389005810886C0,15.958389005810886,0,15.958389005810886,0,15.958389005810886L0,6C0,2.688509853036,2.688509853036,0,6,0Z"/></clipPath><clipPath id="clip5"><path d="M6,0L84,0C87.311490146964,0,90,2.688509853036,90,6L90,49.16924850722762C90,49.16924850722762,90,49.16924850722762,90,49.16924850722762L0,49.16924850722762C0,49.16924850722762,0,49.16924850722762,0,49.16924850722762L0,6C0,2.688509853036,2.688509853036,0,6,0Z"/></clipPath><clipPath id="clip6"><path d="M6,0L84,0C87.311490146964,0,90,2.688509853036,90,6L90,376.5605901482658C90,376.5605901482658,90,376.5605901482658,90,376.5605901482658L0,376.5605901482658C0,376.5605901482658,0,376.5605901482658,0,376.5605901482658L0,6C0,2.688509853036,2.688509853036,0,6,0Z"/></clipPath><clipPath id="clip7"><path d="M6,0L84,0C87.311490146964,0,90,2.688509853036,90,6L90,437.59631833070284C90,437.59631833070284,90,437.59631833070284,90,437.59631833070284L0,437.59631833070284C0,437.59631833070284,0,437.59631833070284,0,437.59631833070284L0,6C0,2.688509853036,2.688509853036,0,6,0Z"/></clipPath><clipPath id="clip8"><path d="M6,0L84,0C87.311490146964,0,90,2.688509853036,90,6L90,571.4285714285714C90,571.4285714285714,90,571.4285714285714,90,571.4285714285714L0,571.4285714285714C0,571.4285714285714,0,571.4285714285714,0,571.4285714285714L0,6C0,2.688509853036,2.688509853036,0,6,0Z"/></clipPath></defs></svg>