<svg xmlns="http://www.w3.org/2000/svg" xmlns:xlink="http://www.w3.org/1999/xlink" version="1.1" class="marks" width="844" height="687" viewBox="0 0 844 687"><rect width="844" height="687" fill="white"/><g fill="none" stroke-miterlimit="10" transform="translate(39,36)"><g class="mark-group role-frame root" role="graphics-object" aria-roledescription="group mark container"><g transform="translate(0,0)"><path class="background" aria-hidden="true" d="M0.5,0.5h800v600h-800Z" stroke="#ddd"/><g><g class="mark-group role-axis" role="graphics-symbol" aria-roledescription="axis" aria-label="X-axis titled 'Parser' for a discrete scale with 8 values: yaml_rs&#xA;0.1.4, yaml_rs (parse_dt=False)&#xA;0.1.4, yamlrocks&#xA;0.5.0, ryaml&#xA;0.5.1, PyYAML (CLoader)&#xA;6.0.3, ending with ruamel.yaml&#xA;0.19.1"><g transform="translate(0.5,600.5)"><path class="background" aria-hidden="true" d="M0,0h0v0h0Z" pointer-events="none"/><g><g class="mark-rule role-axis-tick" pointer-events="none"><line transform="translate(50,0)" x2="0" y2="5" stroke="#888" stroke-width="1" opacity="1"/><line transform="translate(150,0)" x2="0" y2="5" stroke="#888" stroke-width="1" opacity="1"/><line transform="translate(250,0)" x2="0" y2="5" stroke="#888" stroke-width="1" opacity="1"/><line transform="translate(350,0)" x2="0" y2="5" stroke="#888" stroke-width="1" opacity="1"/><line transform="translate(450,0)" x2="0" y2="5" stroke="#888" stroke-width="1" opacity="1"/><line transform="translate(550,0)" x2="0" y2="5" stroke="#888" stroke-width="1" opacity="1"/><line transform="translate(650,0)" x2="0" y2="5" stroke="#888" stroke-width="1" opacity="1"/><line transform="translate(750,0)" x2="0" y2="5" stroke="#888" stroke-width="1" opacity="1"/></g><g class="mark-text role-axis-label" pointer-events="none"><text text-anchor="middle" transform="translate(49.5,15)" font-family="sans-serif" font-size="10px" fill="#000" opacity="1"><tspan>yaml_rs</tspan><tspan x="0" dy="14">0.1.4</tspan></text><text text-anchor="middle" transform="translate(149.5,15)" font-family="sans-serif" font-size="10px" fill="#000" opacity="1"><tspan>yaml_rs (parse_dt=False)</tspan><tspan x="0" dy="14">0.1.4</tspan></text><text text-anchor="middle" transform="translate(249.5,15)" font-family="sans-serif" font-size="10px" fill="#000" opacity="1"><tspan>yamlrocks</tspan><tspan x="0" dy="14">0.5.0</tspan></text><text text-anchor="middle" transform="translate(349.5,15)" font-family="sans-serif" font-size="10px" fill="#000" opacity="1"><tspan>ryaml</tspan><tspan x="0" dy="14">0.5.1</tspan></text><text text-anchor="middle" transform="translate(449.5,15)" font-family="sans-serif" font-size="10px" fill="#000" opacity="1"><tspan>PyYAML (CLoader)</tspan><tspan x="0" dy="14">6.0.3</tspan></text><text text-anchor="middle" transform="translate(549.5,15)" font-family="sans-serif" font-size="10px" fill="#000" opacity="1"><tspan>oyaml</tspan><tspan x="0" dy="14">1.0</tspan></text><text text-anchor="middle" transform="translate(649.5,15)" font-family="sans-serif" font-size="10px" fill="#000" opacity="1"><tspan>PyYAML</tspan><tspan x="0" dy="14">6.0.3</tspan></text><text text-anchor="middle" transform="translate(749.5,15)" font-family="sans-serif" font-size="10px" fill="#000" opacity="1"><tspan>ruamel.yaml</tspan><tspan x="0" dy="14">0.19.1</tspan></text></g><g class="mark-rule role-axis-domain" pointer-events="none"><line transform="translate(0,0)" x2="800" y2="0" stroke="#888" stroke-width="1" opacity="1"/></g><g class="mark-text role-axis-title" pointer-events="none"><text text-anchor="middle" transform="translate(400,44)" font-family="sans-serif" font-size="11px" font-weight="bold" fill="#000" opacity="1">Parser</text></g></g><path class="foreground" aria-hidden="true" d="" pointer-events="none" display="none"/></g></g><g class="mark-group role-axis" role="graphics-symbol" aria-roledescription="axis" aria-label="Y-axis titled 'Execution Time (seconds, lower=better)' for a linear scale with values from 0 to 22"><g transform="translate(0.5,0.5)"><path class="background" aria-hidden="true" d="M0,0h0v0h0Z" pointer-events="none"/><g><g class="mark-rule role-axis-tick" pointer-events="none"><line transform="translate(0,600)" x2="-5" y2="0" stroke="#888" stroke-width="1" opacity="1"/><line transform="translate(0,547)" x2="-5" y2="0" stroke="#888" stroke-width="1" opacity="1"/><line transform="translate(0,493)" x2="-5" y2="0" stroke="#888" stroke-width="1" opacity="1"/><line transform="translate(0,440)" x2="-5" y2="0" stroke="#888" stroke-width="1" opacity="1"/><line transform="translate(0,386)" x2="-5" y2="0" stroke="#888" stroke-width="1" opacity="1"/><line transform="translate(0,333)" x2="-5" y2="0" stroke="#888" stroke-width="1" opacity="1"/><line transform="translate(0,280)" x2="-5" y2="0" stroke="#888" stroke-width="1" opacity="1"/><line transform="translate(0,226)" x2="-5" y2="0" stroke="#888" stroke-width="1" opacity="1"/><line transform="translate(0,173)" x2="-5" y2="0" stroke="#888" stroke-width="1" opacity="1"/><line transform="translate(0,119)" x2="-5" y2="0" stroke="#888" stroke-width="1" opacity="1"/><line transform="translate(0,66)" x2="-5" y2="0" stroke="#888" stroke-width="1" opacity="1"/><line transform="translate(0,13)" x2="-5" y2="0" stroke="#888" stroke-width="1" opacity="1"/></g><g class="mark-text role-axis-label" pointer-events="none"><text text-anchor="end" transform="translate(-7,603)" font-family="sans-serif" font-size="10px" fill="#000" opacity="1">0</text><text text-anchor="end" transform="translate(-7,549.6053984623018)" font-family="sans-serif" font-size="10px" fill="#000" opacity="1">2</text><text text-anchor="end" transform="translate(-7,496.2107969246037)" font-family="sans-serif" font-size="10px" fill="#000" opacity="1">4</text><text text-anchor="end" transform="translate(-7,442.81619538690546)" font-family="sans-serif" font-size="10px" fill="#000" opacity="1">6</text><text text-anchor="end" transform="translate(-7,389.42159384920734)" font-family="sans-serif" font-size="10px" fill="#000" opacity="1">8</text><text text-anchor="end" transform="translate(-7,336.02699231150916)" font-family="sans-serif" font-size="10px" fill="#000" opacity="1">10</text><text text-anchor="end" transform="translate(-7,282.63239077381104)" font-family="sans-serif" font-size="10px" fill="#000" opacity="1">12</text><text text-anchor="end" transform="translate(-7,229.23778923611283)" font-family="sans-serif" font-size="10px" fill="#000" opacity="1">14</text><text text-anchor="end" transform="translate(-7,175.84318769841465)" font-family="sans-serif" font-size="10px" fill="#000" opacity="1">16</text><text text-anchor="end" transform="translate(-7,122.44858616071652)" font-family="sans-serif" font-size="10px" fill="#000" opacity="1">18</text><text text-anchor="end" transform="translate(-7,69.05398462301832)" font-family="sans-serif" font-size="10px" fill="#000" opacity="1">20</text><text text-anchor="end" transform="translate(-7,15.659383085320197)" font-family="sans-serif" font-size="10px" fill="#000" opacity="1">22</text></g><g class="mark-rule role-axis-domain" pointer-events="none"><line transform="translate(0,600)" x2="0" y2="-600" stroke="#888" stroke-width="1" opacity="1"/></g><g class="mark-text role-axis-title" pointer-events="none"><text text-anchor="middle" transform="translate(-22.123046875,300) rotate(-90) translate(0,-2)" font-family="sans-serif" font-size="11px" font-weight="bold" fill="#000" opacity="1">Execution Time (seconds, lower=better)</text></g></g><path class="foreground" aria-hidden="true" d="" pointer-events="none" display="none"/></g></g><g class="mark-group role-scope" role="graphics-object" aria-roledescription="group mark container"><g transform="translate(5,592.2856054402228)"><path class="background" aria-hidden="true" d="M3.8571972798886236,0L86.14280272011138,0C88.2716478513193,0,90,1.7283521486807039,90,3.8571972798886236L90,7.714394559777247C90,7.714394559777247,90,7.714394559777247,90,7.714394559777247L0,7.714394559777247C0,7.714394559777247,0,7.714394559777247,0,7.714394559777247L0,3.8571972798886236C0,1.7283521486807039,1.7283521486807039,0,3.8571972798886236,0Z"/><g clip-path="url(#clip1)"><g class="mark-group role-scope" role="graphics-object" aria-roledescription="group mark container"><g transform="translate(0,-592.2856054402228)"><path class="background" aria-hidden="true" d="M0,0h90v0h-90Z"/><g><g class="mark-rect role-mark layer_0_marks" role="graphics-object" aria-roledescription="rect mark container"><path aria-label="Parser: yaml_rs&#xA;0.1.4; Execution Time (seconds, lower=better): 0.288957847333; parser: yaml_rs; Execution Time (s): 0.2890; Slowdown: 1.00" role="graphics-symbol" aria-roledescription="bar" d="M0,592.2856054402228h90v7.714394559777247h-90Z" fill="#e6ab02"/></g></g><path class="foreground" aria-hidden="true" d="" display="none"/></g></g></g><path class="foreground" aria-hidden="true" d="" display="none"/></g><g transform="translate(105,591.7408659375212)"><path class="background" aria-hidden="true" d="M4.1295670312393895,0L85.87043296876061,0C88.14960305795671,0,90,1.850396942043287,90,4.1295670312393895L90,8.259134062478779C90,8.259134062478779,90,8.259134062478779,90,8.259134062478779L0,8.259134062478779C0,8.259134062478779,0,8.259134062478779,0,8.259134062478779L0,4.1295670312393895C0,1.850396942043287,1.850396942043287,0,4.1295670312393895,0Z"/><g clip-path="url(#clip2)"><g class="mark-group role-scope" role="graphics-object" aria-roledescription="group mark container"><g transform="translate(0,-591.7408659375212)"><path class="background" aria-hidden="true" d="M0,0h90v0h-90Z"/><g><g class="mark-rect role-mark layer_0_marks" role="graphics-object" aria-roledescription="rect mark container"><path aria-label="Parser: yaml_rs (parse_dt=False)&#xA;0.1.4; Execution Time (seconds, lower=better): 0.309362138667; parser: yaml_rs (parse_dt=False); Execution Time (s): 0.3094; Slowdown: 1.07" role="graphics-symbol" aria-roledescription="bar" d="M0,591.7408659375212h90v8.259134062478779h-90Z" fill="#a6761d"/></g></g><path class="foreground" aria-hidden="true" d="" display="none"/></g></g></g><path class="foreground" aria-hidden="true" d="" display="none"/></g><g transform="translate(205,591.6205919812236)"><path class="background" aria-hidden="true" d="M4.189704009388208,0L85.81029599061179,0C88.1226565815759,0,90,1.8773434184241053,90,4.189704009388208L90,8.379408018776417C90,8.379408018776417,90,8.379408018776417,90,8.379408018776417L0,8.379408018776417C0,8.379408018776417,0,8.379408018776417,0,8.379408018776417L0,4.189704009388208C0,1.8773434184241053,1.8773434184241053,0,4.189704009388208,0Z"/><g clip-path="url(#clip3)"><g class="mark-group role-scope" role="graphics-object" aria-roledescription="group mark container"><g transform="translate(0,-591.6205919812236)"><path class="background" aria-hidden="true" d="M0,0h90v0h-90Z"/><g><g class="mark-rect role-mark layer_0_marks" role="graphics-object" aria-roledescription="rect mark container"><path aria-label="Parser: yamlrocks&#xA;0.5.0; Execution Time (seconds, lower=better): 0.313867236667; parser: yamlrocks; Execution Time (s): 0.3139; Slowdown: 1.09" role="graphics-symbol" aria-roledescription="bar" d="M0,591.6205919812236h90v8.379408018776417h-90Z" fill="#666666"/></g></g><path class="foreground" aria-hidden="true" d="" display="none"/></g></g></g><path class="foreground" aria-hidden="true" d="" display="none"/></g><g transform="translate(305,583.1379477518445)"><path class="background" aria-hidden="true" d="M6,0L84,0C87.311490146964,0,90,2.688509853036,90,6L90,16.862052248155464C90,16.862052248155464,90,16.862052248155464,90,16.862052248155464L0,16.862052248155464C0,16.862052248155464,0,16.862052248155464,0,16.862052248155464L0,6C0,2.688509853036,2.688509853036,0,6,0Z"/><g clip-path="url(#clip4)"><g class="mark-group role-scope" role="graphics-object" aria-roledescription="group mark container"><g transform="translate(0,-583.1379477518445)"><path class="background" aria-hidden="true" d="M0,0h90v0h-90Z"/><g><g class="mark-rect role-mark layer_0_marks" role="graphics-object" aria-roledescription="rect mark container"><path aria-label="Parser: ryaml&#xA;0.5.1; Execution Time (seconds, lower=better): 0.631601389; parser: ryaml; Execution Time (s): 0.6316; Slowdown: 2.19" role="graphics-symbol" aria-roledescription="bar" d="M0,583.1379477518445h90v16.862052248155464h-90Z" fill="#66a61e"/></g></g><path class="foreground" aria-hidden="true" d="" display="none"/></g></g></g><path class="foreground" aria-hidden="true" d="" display="none"/></g><g transform="translate(405,551.4703285559435)"><path class="background" aria-hidden="true" d="M6,0L84,0C87.311490146964,0,90,2.688509853036,90,6L90,48.529671444056476C90,48.529671444056476,90,48.529671444056476,90,48.529671444056476L0,48.529671444056476C0,48.529671444056476,0,48.529671444056476,0,48.529671444056476L0,6C0,2.688509853036,2.688509853036,0,6,0Z"/><g clip-path="url(#clip5)"><g class="mark-group role-scope" role="graphics-object" aria-roledescription="group mark container"><g transform="translate(0,-551.4703285559435)"><path class="background" aria-hidden="true" d="M0,0h90v0h-90Z"/><g><g class="mark-rect role-mark layer_0_marks" role="graphics-object" aria-roledescription="rect mark container"><path aria-label="Parser: PyYAML (CLoader)&#xA;6.0.3; Execution Time (seconds, lower=better): 1.81777445833; parser: PyYAML (CLoader); Execution Time (s): 1.8178; Slowdown: 6.29" role="graphics-symbol" aria-roledescription="bar" d="M0,551.4703285559435h90v48.529671444056476h-90Z" fill="#d95f02"/></g></g><path class="foreground" aria-hidden="true" d="" display="none"/></g></g></g><path class="foreground" aria-hidden="true" d="" display="none"/></g><g transform="translate(505,229.6385618711245)"><path class="background" aria-hidden="true" d="M6,0L84,0C87.311490146964,0,90,2.688509853036,90,6L90,370.36143812887553C90,370.36143812887553,90,370.36143812887553,90,370.36143812887553L0,370.36143812887553C0,370.36143812887553,0,370.36143812887553,0,370.36143812887553L0,6C0,2.688509853036,2.688509853036,0,6,0Z"/><g clip-path="url(#clip6)"><g class="mark-group role-scope" role="graphics-object" aria-roledescription="group mark container"><g transform="translate(0,-229.6385618711245)"><path class="background" aria-hidden="true" d="M0,0h90v0h-90Z"/><g><g class="mark-rect role-mark layer_0_marks" role="graphics-object" aria-roledescription="rect mark container"><path aria-label="Parser: oyaml&#xA;1.0; Execution Time (seconds, lower=better): 13.8726173607; parser: oyaml; Execution Time (s): 13.8726; Slowdown: 48.01" role="graphics-symbol" aria-roledescription="bar" d="M0,229.6385618711245h90v370.36143812887553h-90Z" fill="#7570b3"/></g></g><path class="foreground" aria-hidden="true" d="" display="none"/></g></g></g><path class="foreground" aria-hidden="true" d="" display="none"/></g><g transform="translate(605,138.4683339151228)"><path class="background" aria-hidden="true" d="M6,0L84,0C87.311490146964,0,90,2.688509853036,90,6L90,461.5316660848772C90,461.5316660848772,90,461.5316660848772,90,461.5316660848772L0,461.5316660848772C0,461.5316660848772,0,461.5316660848772,0,461.5316660848772L0,6C0,2.688509853036,2.688509853036,0,6,0Z"/><g clip-path="url(#clip7)"><g class="mark-group role-scope" role="graphics-object" aria-roledescription="group mark container"><g transform="translate(0,-138.4683339151228)"><path class="background" aria-hidden="true" d="M0,0h90v0h-90Z"/><g><g class="mark-rect role-mark layer_0_marks" role="graphics-object" aria-roledescription="rect mark container"><path aria-label="Parser: PyYAML&#xA;6.0.3; Execution Time (seconds, lower=better): 17.2875778747; parser: PyYAML; Execution Time (s): 17.2876; Slowdown: 59.83" role="graphics-symbol" aria-roledescription="bar" d="M0,138.4683339151228h90v461.5316660848772h-90Z" fill="#1b9e77"/></g></g><path class="foreground" aria-hidden="true" d="" display="none"/></g></g></g><path class="foreground" aria-hidden="true" d="" display="none"/></g><g transform="translate(705,28.571428571428605)"><path class="background" aria-hidden="true" d="M6,0L84,0C87.311490146964,0,90,2.688509853036,90,6L90,571.4285714285714C90,571.4285714285714,90,571.4285714285714,90,571.4285714285714L0,571.4285714285714C0,571.4285714285714,0,571.4285714285714,0,571.4285714285714L0,6C0,2.688509853036,2.688509853036,0,6,0Z"/><g clip-path="url(#clip8)"><g class="mark-group role-scope" role="graphics-object" aria-roledescription="group mark container"><g transform="translate(0,-28.571428571428605)"><path class="background" aria-hidden="true" d="M0,0h90v0h-90Z"/><g><g class="mark-rect role-mark layer_0_marks" role="graphics-object" aria-roledescription="rect mark container"><path aria-label="Parser: ruamel.yaml&#xA;0.19.1; Execution Time (seconds, lower=better): 21.403982986; parser: ruamel.yaml; Execution Time (s): 21.4040; Slowdown: 74.07" role="graphics-symbol" aria-roledescription="bar" d="M0,28.571428571428605h90v571.4285714285714h-90Z" fill="#e7298a"/></g></g><path class="foreground" aria-hidden="true" d="" display="none"/></g></g></g><path class="foreground" aria-hidden="true" d="" display="none"/></g></g><g class="mark-text role-mark layer_1_marks" role="graphics-object" aria-roledescription="text mark container"><text aria-label="Parser: yaml_rs&#xA;0.1.4; Execution Time (seconds, lower=better): 0.288957847333; parser: yaml_rs; label: 0.2890s (x1.00); Execution Time (s): 0.2890; Slowdown: 1.00" role="graphics-symbol" aria-roledescription="text mark" text-anchor="middle" transform="translate(50,588.2856054402228)" font-family="sans-serif" font-size="9px" font-weight="bold" fill="#e6ab02">0.2890s (x1.00)</text><text aria-label="Parser: yaml_rs (parse_dt=False)&#xA;0.1.4; Execution Time (seconds, lower=better): 0.309362138667; parser: yaml_rs (parse_dt=False); label: 0.3094s (x1.07); Execution Time (s): 0.3094; Slowdown: 1.07" role="graphics-symbol" aria-roledescription="text mark" text-anchor="middle" transform="translate(150,587.7408659375212)" font-family="sans-serif" font-size="9px" font-weight="bold" fill="#a6761d">0.3094s (x1.07)</text><text aria-label="Parser: yamlrocks&#xA;0.5.0; Execution Time (seconds, lower=better): 0.313867236667; parser: yamlrocks; label: 0.3139s (x1.09); Execution Time (s): 0.3139; Slowdown: 1.09" role="graphics-symbol" aria-roledescription="text mark" text-anchor="middle" transform="translate(250,587.6205919812236)" font-family="sans-serif" font-size="9px" font-weight="bold" fill="#666666">0.3139s (x1.09)</text><text aria-label="Parser: ryaml&#xA;0.5.1; Execution Time (seconds, lower=better): 0.631601389; parser: ryaml; label: 0.6316s (x2.19); Execution Time (s): 0.6316; Slowdown: 2.19" role="graphics-symbol" aria-roledescription="text mark" text-anchor="middle" transform="translate(350,579.1379477518445)" font-family="sans-serif" font-size="9px" font-weight="bold" fill="#66a61e">0.6316s (x2.19)</text><text aria-label="Parser: PyYAML (CLoader)&#xA;6.0.3; Execution Time (seconds, lower=better): 1.81777445833; parser: PyYAML (CLoader); label: 1.8178s (x6.29); Execution Time (s): 1.8178; Slowdown: 6.29" role="graphics-symbol" aria-roledescription="text mark" text-anchor="middle" transform="translate(450,547.4703285559435)" font-family="sans-serif" font-size="9px" font-weight="bold" fill="#d95f02">1.8178s (x6.29)</text><text aria-label="Parser: oyaml&#xA;1.0; Execution Time (seconds, lower=better): 13.8726173607; parser: oyaml; label: 13.8726s (x48.01); Execution Time (s): 13.8726; Slowdown: 48.01" role="graphics-symbol" aria-roledescription="text mark" text-anchor="middle" transform="translate(550,225.6385618711245)" font-family="sans-serif" font-size="9px" font-weight="bold" fill="#7570b3">13.8726s (x48.01)</text><text aria-label="Parser: PyYAML&#xA;6.0.3; Execution Time (seconds, lower=better): 17.2875778747; parser: PyYAML; label: 17.2876s (x59.83); Execution Time (s): 17.2876; Slowdown: 59.83" role="graphics-symbol" aria-roledescription="text mark" text-anchor="middle" transform="translate(650,134.4683339151228)" font-family="sans-serif" font-size="9px" font-weight="bold" fill="#1b9e77">17.2876s (x59.83)</text><text aria-label="Parser: ruamel.yaml&#xA;0.19.1; Execution Time (seconds, lower=better): 21.403982986; parser: ruamel.yaml; label: 21.4040s (x74.07); Execution Time (s): 21.4040; Slowdown: 74.07" role="graphics-symbol" aria-roledescription="text mark" text-anchor="middle" transform="translate(750,24.571428571428605)" font-family="sans-serif" font-size="9px" font-weight="bold" fill="#e7298a">21.4040s (x74.07)</text></g><g class="mark-group role-title"><g transform="translate(400,-31)"><path class="background" aria-hidden="true" d="M0,0h0v0h0Z" pointer-events="none"/><g><g class="mark-text role-title-text" role="graphics-symbol" aria-roledescription="title" aria-label="Title text 'YAML parsers benchmark (loads)'" pointer-events="none"><text text-anchor="middle" transform="translate(0,10)" font-family="sans-serif" font-size="13px" font-weight="bold" fill="#000" opacity="1">YAML parsers benchmark (loads)</text></g><g class="mark-text role-title-subtitle" role="graphics-symbol" aria-roledescription="subtitle" aria-label="Subtitle text 'Python: 3.14.6 (Darwin 24.6.0) | CPU: Unknown'" pointer-events="none"><text text-anchor="middle" transform="translate(0,25)" font-family="sans-serif" font-size="12px" fill="#000" opacity="1">Python: 3.14.6 (Darwin 24.6.0) | CPU: Unknown</text></g></g><path class="foreground" aria-hidden="true" d="" pointer-events="none" display="none"/></g></g></g><path class="foreground" aria-hidden="true" d="" display="none"/></g></g></g><defs><clipPath id="clip1"><path d="M3.8571972798886236,0L86.14280272011138,0C88.2716478513193,0,90,1.7283521486807039,90,3.8571972798886236L90,7.714394559777247C90,7.714394559777247,90,7.714394559777247,90,7.714394559777247L0,7.714394559777247C0,7.714394559777247,0,7.714394559777247,0,7.714394559777247L0,3.8571972798886236C0,1.7283521486807039,1.7283521486807039,0,3.8571972798886236,0Z"/></clipPath><clipPath id="clip2"><path d="M4.1295670312393895,0L85.87043296876061,0C88.14960305795671,0,90,1.850396942043287,90,4.1295670312393895L90,8.259134062478779C90,8.259134062478779,90,8.259134062478779,90,8.259134062478779L0,8.259134062478779C0,8.259134062478779,0,8.259134062478779,0,8.259134062478779L0,4.1295670312393895C0,1.850396942043287,1.850396942043287,0,4.1295670312393895,0Z"/></clipPath><clipPath id="clip3"><path d="M4.189704009388208,0L85.81029599061179,0C88.1226565815759,0,90,1.8773434184241053,90,4.189704009388208L90,8.379408018776417C90,8.379408018776417,90,8.379408018776417,90,8.379408018776417L0,8.379408018776417C0,8.379408018776417,0,8.379408018776417,0,8.379408018776417L0,4.189704009388208C0,1.8773434184241053,1.8773434184241053,0,4.189704009388208,0Z"/></clipPath><clipPath id="clip4"><path d="M6,0L84,0C87.311490146964,0,90,2.688509853036,90,6L90,16.862052248155464C90,16.862052248155464,90,16.862052248155464,90,16.862052248155464L0,16.862052248155464C0,16.862052248155464,0,16.862052248155464,0,16.862052248155464L0,6C0,2.688509853036,2.688509853036,0,6,0Z"/></clipPath><clipPath id="clip5"><path d="M6,0L84,0C87.311490146964,0,90,2.688509853036,90,6L90,48.529671444056476C90,48.529671444056476,90,48.529671444056476,90,48.529671444056476L0,48.529671444056476C0,48.529671444056476,0,48.529671444056476,0,48.529671444056476L0,6C0,2.688509853036,2.688509853036,0,6,0Z"/></clipPath><clipPath id="clip6"><path d="M6,0L84,0C87.311490146964,0,90,2.688509853036,90,6L90,370.36143812887553C90,370.36143812887553,90,370.36143812887553,90,370.36143812887553L0,370.36143812887553C0,370.36143812887553,0,370.36143812887553,0,370.36143812887553L0,6C0,2.688509853036,2.688509853036,0,6,0Z"/></clipPath><clipPath id="clip7"><path d="M6,0L84,0C87.311490146964,0,90,2.688509853036,90,6L90,461.5316660848772C90,461.5316660848772,90,461.5316660848772,90,461.5316660848772L0,461.5316660848772C0,461.5316660848772,0,461.5316660848772,0,461.5316660848772L0,6C0,2.688509853036,2.688509853036,0,6,0Z"/></clipPath><clipPath id="clip8"><path d="M6,0L84,0C87.311490146964,0,90,2.688509853036,90,6L90,571.4285714285714C90,571.4285714285714,90,571.4285714285714,90,571.4285714285714L0,571.4285714285714C0,571.4285714285714,0,571.4285714285714,0,571.4285714285714L0,6C0,2.688509853036,2.688509853036,0,6,0Z"/></clipPath></defs></svg>