<svg xmlns="http://www.w3.org/2000/svg" xmlns:xlink="http://www.w3.org/1999/xlink" version="1.1" class="marks" width="844" height="687" viewBox="0 0 844 687"><rect width="844" height="687" fill="white"/><g fill="none" stroke-miterlimit="10" transform="translate(39,36)"><g class="mark-group role-frame root" role="graphics-object" aria-roledescription="group mark container"><g transform="translate(0,0)"><path class="background" aria-hidden="true" d="M0.5,0.5h800v600h-800Z" stroke="#ddd"/><g><g class="mark-group role-axis" role="graphics-symbol" aria-roledescription="axis" aria-label="X-axis titled 'Parser' for a discrete scale with 7 values: yamlrocks&#xA;0.5.0, yaml_rs&#xA;0.1.4, ryaml&#xA;0.5.1, PyYAML (CDumper)&#xA;6.0.3, ruamel.yaml&#xA;0.19.1, oyaml&#xA;1.0, PyYAML&#xA;6.0.3"><g transform="translate(0.5,600.5)"><path class="background" aria-hidden="true" d="M0,0h0v0h0Z" pointer-events="none"/><g><g class="mark-rule role-axis-tick" pointer-events="none"><line transform="translate(57,0)" x2="0" y2="5" stroke="#888" stroke-width="1" opacity="1"/><line transform="translate(171,0)" x2="0" y2="5" stroke="#888" stroke-width="1" opacity="1"/><line transform="translate(285,0)" x2="0" y2="5" stroke="#888" stroke-width="1" opacity="1"/><line transform="translate(400,0)" x2="0" y2="5" stroke="#888" stroke-width="1" opacity="1"/><line transform="translate(514,0)" x2="0" y2="5" stroke="#888" stroke-width="1" opacity="1"/><line transform="translate(628,0)" x2="0" y2="5" stroke="#888" stroke-width="1" opacity="1"/><line transform="translate(742,0)" x2="0" y2="5" stroke="#888" stroke-width="1" opacity="1"/></g><g class="mark-text role-axis-label" pointer-events="none"><text text-anchor="middle" transform="translate(56.642857142857096,15)" font-family="sans-serif" font-size="10px" fill="#000" opacity="1"><tspan>yamlrocks</tspan><tspan x="0" dy="14">0.5.0</tspan></text><text text-anchor="middle" transform="translate(170.9285714285714,15)" font-family="sans-serif" font-size="10px" fill="#000" opacity="1"><tspan>yaml_rs</tspan><tspan x="0" dy="14">0.1.4</tspan></text><text text-anchor="middle" transform="translate(285.21428571428567,15)" font-family="sans-serif" font-size="10px" fill="#000" opacity="1"><tspan>ryaml</tspan><tspan x="0" dy="14">0.5.1</tspan></text><text text-anchor="middle" transform="translate(399.5,15)" font-family="sans-serif" font-size="10px" fill="#000" opacity="1"><tspan>PyYAML (CDumper)</tspan><tspan x="0" dy="14">6.0.3</tspan></text><text text-anchor="middle" transform="translate(513.7857142857142,15)" font-family="sans-serif" font-size="10px" fill="#000" opacity="1"><tspan>ruamel.yaml</tspan><tspan x="0" dy="14">0.19.1</tspan></text><text text-anchor="middle" transform="translate(628.0714285714286,15)" font-family="sans-serif" font-size="10px" fill="#000" opacity="1"><tspan>oyaml</tspan><tspan x="0" dy="14">1.0</tspan></text><text text-anchor="middle" transform="translate(742.3571428571429,15)" font-family="sans-serif" font-size="10px" fill="#000" opacity="1"><tspan>PyYAML</tspan><tspan x="0" dy="14">6.0.3</tspan></text></g><g class="mark-rule role-axis-domain" pointer-events="none"><line transform="translate(0,0)" x2="800" y2="0" stroke="#888" stroke-width="1" opacity="1"/></g><g class="mark-text role-axis-title" pointer-events="none"><text text-anchor="middle" transform="translate(400,44)" font-family="sans-serif" font-size="11px" font-weight="bold" fill="#000" opacity="1">Parser</text></g></g><path class="foreground" aria-hidden="true" d="" pointer-events="none" display="none"/></g></g><g class="mark-group role-axis" role="graphics-symbol" aria-roledescription="axis" aria-label="Y-axis titled 'Execution Time (seconds, lower=better)' for a linear scale with values from 0 to 12"><g transform="translate(0.5,0.5)"><path class="background" aria-hidden="true" d="M0,0h0v0h0Z" pointer-events="none"/><g><g class="mark-rule role-axis-tick" pointer-events="none"><line transform="translate(0,600)" x2="-5" y2="0" stroke="#888" stroke-width="1" opacity="1"/><line transform="translate(0,549)" x2="-5" y2="0" stroke="#888" stroke-width="1" opacity="1"/><line transform="translate(0,498)" x2="-5" y2="0" stroke="#888" stroke-width="1" opacity="1"/><line transform="translate(0,447)" x2="-5" y2="0" stroke="#888" stroke-width="1" opacity="1"/><line transform="translate(0,397)" x2="-5" y2="0" stroke="#888" stroke-width="1" opacity="1"/><line transform="translate(0,346)" x2="-5" y2="0" stroke="#888" stroke-width="1" opacity="1"/><line transform="translate(0,295)" x2="-5" y2="0" stroke="#888" stroke-width="1" opacity="1"/><line transform="translate(0,244)" x2="-5" y2="0" stroke="#888" stroke-width="1" opacity="1"/><line transform="translate(0,193)" x2="-5" y2="0" stroke="#888" stroke-width="1" opacity="1"/><line transform="translate(0,142)" x2="-5" y2="0" stroke="#888" stroke-width="1" opacity="1"/><line transform="translate(0,91)" x2="-5" y2="0" stroke="#888" stroke-width="1" opacity="1"/><line transform="translate(0,40)" x2="-5" y2="0" stroke="#888" stroke-width="1" opacity="1"/></g><g class="mark-text role-axis-label" pointer-events="none"><text text-anchor="end" transform="translate(-7,603)" font-family="sans-serif" font-size="10px" fill="#000" opacity="1">0</text><text text-anchor="end" transform="translate(-7,552.1284331841348)" font-family="sans-serif" font-size="10px" fill="#000" opacity="1">1</text><text text-anchor="end" transform="translate(-7,501.25686636826964)" font-family="sans-serif" font-size="10px" fill="#000" opacity="1">2</text><text text-anchor="end" transform="translate(-7,450.3852995524044)" font-family="sans-serif" font-size="10px" fill="#000" opacity="1">3</text><text text-anchor="end" transform="translate(-7,399.5137327365392)" font-family="sans-serif" font-size="10px" fill="#000" opacity="1">4</text><text text-anchor="end" transform="translate(-7,348.6421659206741)" font-family="sans-serif" font-size="10px" fill="#000" opacity="1">5</text><text text-anchor="end" transform="translate(-7,297.77059910480887)" font-family="sans-serif" font-size="10px" fill="#000" opacity="1">6</text><text text-anchor="end" transform="translate(-7,246.8990322889437)" font-family="sans-serif" font-size="10px" fill="#000" opacity="1">7</text><text text-anchor="end" transform="translate(-7,196.02746547307845)" font-family="sans-serif" font-size="10px" fill="#000" opacity="1">8</text><text text-anchor="end" transform="translate(-7,145.15589865721327)" font-family="sans-serif" font-size="10px" fill="#000" opacity="1">9</text><text text-anchor="end" transform="translate(-7,94.28433184134809)" font-family="sans-serif" font-size="10px" fill="#000" opacity="1">10</text><text text-anchor="end" transform="translate(-7,43.41276502548292)" font-family="sans-serif" font-size="10px" fill="#000" opacity="1">11</text></g><g class="mark-rule role-axis-domain" pointer-events="none"><line transform="translate(0,600)" x2="0" y2="-600" stroke="#888" stroke-width="1" opacity="1"/></g><g class="mark-text role-axis-title" pointer-events="none"><text text-anchor="middle" transform="translate(-22.123046875,300) rotate(-90) translate(0,-2)" font-family="sans-serif" font-size="11px" font-weight="bold" fill="#000" opacity="1">Execution Time (seconds, lower=better)</text></g></g><path class="foreground" aria-hidden="true" d="" pointer-events="none" display="none"/></g></g><g class="mark-group role-scope" role="graphics-object" aria-roledescription="group mark container"><g transform="translate(5.714285714285666,597.9730584542464)"><path class="background" aria-hidden="true" d="M1.0134707728768149,0L101.84367208426605,0C102.4030218307023,0,102.85714285714286,0.4541210264405545,102.85714285714286,1.0134707728768149L102.85714285714286,2.0269415457536297C102.85714285714286,2.0269415457536297,102.85714285714286,2.0269415457536297,102.85714285714286,2.0269415457536297L0,2.0269415457536297C0,2.0269415457536297,0,2.0269415457536297,0,2.0269415457536297L0,1.0134707728768149C0,0.4541210264405545,0.4541210264405545,0,1.0134707728768149,0Z"/><g clip-path="url(#clip9)"><g class="mark-group role-scope" role="graphics-object" aria-roledescription="group mark container"><g transform="translate(0,-597.9730584542464)"><path class="background" aria-hidden="true" d="M0,0h102.85714285714286v0h-102.85714285714286Z"/><g><g class="mark-rect role-mark layer_0_marks" role="graphics-object" aria-roledescription="rect mark container"><path aria-label="Parser: yamlrocks&#xA;0.5.0; Execution Time (seconds, lower=better): 0.0398442916667; parser: yamlrocks; Execution Time (s): 0.0398; Slowdown: 1.00" role="graphics-symbol" aria-roledescription="bar" d="M0,597.9730584542464h102.85714285714286v2.0269415457536297h-102.85714285714286Z" fill="#a6761d"/></g></g><path class="foreground" aria-hidden="true" d="" display="none"/></g></g></g><path class="foreground" aria-hidden="true" d="" display="none"/></g><g transform="translate(119.99999999999996,596.1711444524566)"><path class="background" aria-hidden="true" d="M1.9144277737717061,0L100.94271508337116,0C101.99931653502436,0,102.85714285714286,0.8578263221185011,102.85714285714286,1.9144277737717061L102.85714285714286,3.8288555475434123C102.85714285714286,3.8288555475434123,102.85714285714286,3.8288555475434123,102.85714285714286,3.8288555475434123L0,3.8288555475434123C0,3.8288555475434123,0,3.8288555475434123,0,3.8288555475434123L0,1.9144277737717061C0,0.8578263221185011,0.8578263221185011,0,1.9144277737717061,0Z"/><g clip-path="url(#clip10)"><g class="mark-group role-scope" role="graphics-object" aria-roledescription="group mark container"><g transform="translate(0,-596.1711444524566)"><path class="background" aria-hidden="true" d="M0,0h102.85714285714286v0h-102.85714285714286Z"/><g><g class="mark-rect role-mark layer_0_marks" role="graphics-object" aria-roledescription="rect mark container"><path aria-label="Parser: yaml_rs&#xA;0.1.4; Execution Time (seconds, lower=better): 0.075265139; parser: yaml_rs; Execution Time (s): 0.0753; Slowdown: 1.89" role="graphics-symbol" aria-roledescription="bar" d="M0,596.1711444524566h102.85714285714286v3.8288555475434123h-102.85714285714286Z" fill="#e6ab02"/></g></g><path class="foreground" aria-hidden="true" d="" display="none"/></g></g></g><path class="foreground" aria-hidden="true" d="" display="none"/></g><g transform="translate(234.28571428571425,587.9874708206139)"><path class="background" aria-hidden="true" d="M6,0L96.85714285714286,0C100.16863300410687,0,102.85714285714286,2.688509853036,102.85714285714286,6L102.85714285714286,12.012529179386092C102.85714285714286,12.012529179386092,102.85714285714286,12.012529179386092,102.85714285714286,12.012529179386092L0,12.012529179386092C0,12.012529179386092,0,12.012529179386092,0,12.012529179386092L0,6C0,2.688509853036,2.688509853036,0,6,0Z"/><g clip-path="url(#clip11)"><g class="mark-group role-scope" role="graphics-object" aria-roledescription="group mark container"><g transform="translate(0,-587.9874708206139)"><path class="background" aria-hidden="true" d="M0,0h102.85714285714286v0h-102.85714285714286Z"/><g><g class="mark-rect role-mark layer_0_marks" role="graphics-object" aria-roledescription="rect mark container"><path aria-label="Parser: ryaml&#xA;0.5.1; Execution Time (seconds, lower=better): 0.236134444667; parser: ryaml; Execution Time (s): 0.2361; Slowdown: 5.93" role="graphics-symbol" aria-roledescription="bar" d="M0,587.9874708206139h102.85714285714286v12.012529179386092h-102.85714285714286Z" fill="#66a61e"/></g></g><path class="foreground" aria-hidden="true" d="" display="none"/></g></g></g><path class="foreground" aria-hidden="true" d="" display="none"/></g><g transform="translate(348.57142857142856,586.2902957451079)"><path class="background" aria-hidden="true" d="M6,0L96.85714285714286,0C100.16863300410687,0,102.85714285714286,2.688509853036,102.85714285714286,6L102.85714285714286,13.70970425489213C102.85714285714286,13.70970425489213,102.85714285714286,13.70970425489213,102.85714285714286,13.70970425489213L0,13.70970425489213C0,13.70970425489213,0,13.70970425489213,0,13.70970425489213L0,6C0,2.688509853036,2.688509853036,0,6,0Z"/><g clip-path="url(#clip12)"><g class="mark-group role-scope" role="graphics-object" aria-roledescription="group mark container"><g transform="translate(0,-586.2902957451079)"><path class="background" aria-hidden="true" d="M0,0h102.85714285714286v0h-102.85714285714286Z"/><g><g class="mark-rect role-mark layer_0_marks" role="graphics-object" aria-roledescription="rect mark container"><path aria-label="Parser: PyYAML (CDumper)&#xA;6.0.3; Execution Time (seconds, lower=better): 0.269496402667; parser: PyYAML (CDumper); Execution Time (s): 0.2695; Slowdown: 6.76" role="graphics-symbol" aria-roledescription="bar" d="M0,586.2902957451079h102.85714285714286v13.70970425489213h-102.85714285714286Z" fill="#d95f02"/></g></g><path class="foreground" aria-hidden="true" d="" display="none"/></g></g></g><path class="foreground" aria-hidden="true" d="" display="none"/></g><g transform="translate(462.85714285714283,113.669861766702)"><path class="background" aria-hidden="true" d="M6,0L96.85714285714286,0C100.16863300410687,0,102.85714285714286,2.688509853036,102.85714285714286,6L102.85714285714286,486.330138233298C102.85714285714286,486.330138233298,102.85714285714286,486.330138233298,102.85714285714286,486.330138233298L0,486.330138233298C0,486.330138233298,0,486.330138233298,0,486.330138233298L0,6C0,2.688509853036,2.688509853036,0,6,0Z"/><g clip-path="url(#clip13)"><g class="mark-group role-scope" role="graphics-object" aria-roledescription="group mark container"><g transform="translate(0,-113.669861766702)"><path class="background" aria-hidden="true" d="M0,0h102.85714285714286v0h-102.85714285714286Z"/><g><g class="mark-rect role-mark layer_0_marks" role="graphics-object" aria-roledescription="rect mark container"><path aria-label="Parser: ruamel.yaml&#xA;0.19.1; Execution Time (seconds, lower=better): 9.55995988867; parser: ruamel.yaml; Execution Time (s): 9.5600; Slowdown: 239.93" role="graphics-symbol" aria-roledescription="bar" d="M0,113.669861766702h102.85714285714286v486.330138233298h-102.85714285714286Z" fill="#e7298a"/></g></g><path class="foreground" aria-hidden="true" d="" display="none"/></g></g></g><path class="foreground" aria-hidden="true" d="" display="none"/></g><g transform="translate(577.1428571428571,101.48926212135123)"><path class="background" aria-hidden="true" d="M6,0L96.85714285714286,0C100.16863300410687,0,102.85714285714286,2.688509853036,102.85714285714286,6L102.85714285714286,498.5107378786488C102.85714285714286,498.5107378786488,102.85714285714286,498.5107378786488,102.85714285714286,498.5107378786488L0,498.5107378786488C0,498.5107378786488,0,498.5107378786488,0,498.5107378786488L0,6C0,2.688509853036,2.688509853036,0,6,0Z"/><g clip-path="url(#clip14)"><g class="mark-group role-scope" role="graphics-object" aria-roledescription="group mark container"><g transform="translate(0,-101.48926212135123)"><path class="background" aria-hidden="true" d="M0,0h102.85714285714286v0h-102.85714285714286Z"/><g><g class="mark-rect role-mark layer_0_marks" role="graphics-object" aria-roledescription="rect mark container"><path aria-label="Parser: oyaml&#xA;1.0; Execution Time (seconds, lower=better): 9.79939815267; parser: oyaml; Execution Time (s): 9.7994; Slowdown: 245.94" role="graphics-symbol" aria-roledescription="bar" d="M0,101.48926212135123h102.85714285714286v498.5107378786488h-102.85714285714286Z" fill="#7570b3"/></g></g><path class="foreground" aria-hidden="true" d="" display="none"/></g></g></g><path class="foreground" aria-hidden="true" d="" display="none"/></g><g transform="translate(691.4285714285714,28.571428571428605)"><path class="background" aria-hidden="true" d="M6,0L96.85714285714286,0C100.16863300410687,0,102.85714285714286,2.688509853036,102.85714285714286,6L102.85714285714286,571.4285714285714C102.85714285714286,571.4285714285714,102.85714285714286,571.4285714285714,102.85714285714286,571.4285714285714L0,571.4285714285714C0,571.4285714285714,0,571.4285714285714,0,571.4285714285714L0,6C0,2.688509853036,2.688509853036,0,6,0Z"/><g clip-path="url(#clip15)"><g class="mark-group role-scope" role="graphics-object" aria-roledescription="group mark container"><g transform="translate(0,-28.571428571428605)"><path class="background" aria-hidden="true" d="M0,0h102.85714285714286v0h-102.85714285714286Z"/><g><g class="mark-rect role-mark layer_0_marks" role="graphics-object" aria-roledescription="rect mark container"><path aria-label="Parser: PyYAML&#xA;6.0.3; Execution Time (seconds, lower=better): 11.23276925; parser: PyYAML; Execution Time (s): 11.2328; Slowdown: 281.92" role="graphics-symbol" aria-roledescription="bar" d="M0,28.571428571428605h102.85714285714286v571.4285714285714h-102.85714285714286Z" fill="#1b9e77"/></g></g><path class="foreground" aria-hidden="true" d="" display="none"/></g></g></g><path class="foreground" aria-hidden="true" d="" display="none"/></g></g><g class="mark-text role-mark layer_1_marks" role="graphics-object" aria-roledescription="text mark container"><text aria-label="Parser: yamlrocks&#xA;0.5.0; Execution Time (seconds, lower=better): 0.0398442916667; parser: yamlrocks; label: 0.0398s (x1.00); Execution Time (s): 0.0398; Slowdown: 1.00" role="graphics-symbol" aria-roledescription="text mark" text-anchor="middle" transform="translate(57.142857142857096,593.9730584542464)" font-family="sans-serif" font-size="9px" font-weight="bold" fill="#a6761d">0.0398s (x1.00)</text><text aria-label="Parser: yaml_rs&#xA;0.1.4; Execution Time (seconds, lower=better): 0.075265139; parser: yaml_rs; label: 0.0753s (x1.89); Execution Time (s): 0.0753; Slowdown: 1.89" role="graphics-symbol" aria-roledescription="text mark" text-anchor="middle" transform="translate(171.4285714285714,592.1711444524566)" font-family="sans-serif" font-size="9px" font-weight="bold" fill="#e6ab02">0.0753s (x1.89)</text><text aria-label="Parser: ryaml&#xA;0.5.1; Execution Time (seconds, lower=better): 0.236134444667; parser: ryaml; label: 0.2361s (x5.93); Execution Time (s): 0.2361; Slowdown: 5.93" role="graphics-symbol" aria-roledescription="text mark" text-anchor="middle" transform="translate(285.71428571428567,583.9874708206139)" font-family="sans-serif" font-size="9px" font-weight="bold" fill="#66a61e">0.2361s (x5.93)</text><text aria-label="Parser: PyYAML (CDumper)&#xA;6.0.3; Execution Time (seconds, lower=better): 0.269496402667; parser: PyYAML (CDumper); label: 0.2695s (x6.76); Execution Time (s): 0.2695; Slowdown: 6.76" role="graphics-symbol" aria-roledescription="text mark" text-anchor="middle" transform="translate(400,582.2902957451079)" font-family="sans-serif" font-size="9px" font-weight="bold" fill="#d95f02">0.2695s (x6.76)</text><text aria-label="Parser: ruamel.yaml&#xA;0.19.1; Execution Time (seconds, lower=better): 9.55995988867; parser: ruamel.yaml; label: 9.5600s (x239.93); Execution Time (s): 9.5600; Slowdown: 239.93" role="graphics-symbol" aria-roledescription="text mark" text-anchor="middle" transform="translate(514.2857142857142,109.669861766702)" font-family="sans-serif" font-size="9px" font-weight="bold" fill="#e7298a">9.5600s (x239.93)</text><text aria-label="Parser: oyaml&#xA;1.0; Execution Time (seconds, lower=better): 9.79939815267; parser: oyaml; label: 9.7994s (x245.94); Execution Time (s): 9.7994; Slowdown: 245.94" role="graphics-symbol" aria-roledescription="text mark" text-anchor="middle" transform="translate(628.5714285714286,97.48926212135123)" font-family="sans-serif" font-size="9px" font-weight="bold" fill="#7570b3">9.7994s (x245.94)</text><text aria-label="Parser: PyYAML&#xA;6.0.3; Execution Time (seconds, lower=better): 11.23276925; parser: PyYAML; label: 11.2328s (x281.92); Execution Time (s): 11.2328; Slowdown: 281.92" role="graphics-symbol" aria-roledescription="text mark" text-anchor="middle" transform="translate(742.8571428571429,24.571428571428605)" font-family="sans-serif" font-size="9px" font-weight="bold" fill="#1b9e77">11.2328s (x281.92)</text></g><g class="mark-group role-title"><g transform="translate(400,-31)"><path class="background" aria-hidden="true" d="M0,0h0v0h0Z" pointer-events="none"/><g><g class="mark-text role-title-text" role="graphics-symbol" aria-roledescription="title" aria-label="Title text 'YAML parsers benchmark (dumps)'" pointer-events="none"><text text-anchor="middle" transform="translate(0,10)" font-family="sans-serif" font-size="13px" font-weight="bold" fill="#000" opacity="1">YAML parsers benchmark (dumps)</text></g><g class="mark-text role-title-subtitle" role="graphics-symbol" aria-roledescription="subtitle" aria-label="Subtitle text 'Python: 3.14.6 (Darwin 24.6.0) | CPU: Unknown'" pointer-events="none"><text text-anchor="middle" transform="translate(0,25)" font-family="sans-serif" font-size="12px" fill="#000" opacity="1">Python: 3.14.6 (Darwin 24.6.0) | CPU: Unknown</text></g></g><path class="foreground" aria-hidden="true" d="" pointer-events="none" display="none"/></g></g></g><path class="foreground" aria-hidden="true" d="" display="none"/></g></g></g><defs><clipPath id="clip9"><path d="M1.0134707728768149,0L101.84367208426605,0C102.4030218307023,0,102.85714285714286,0.4541210264405545,102.85714285714286,1.0134707728768149L102.85714285714286,2.0269415457536297C102.85714285714286,2.0269415457536297,102.85714285714286,2.0269415457536297,102.85714285714286,2.0269415457536297L0,2.0269415457536297C0,2.0269415457536297,0,2.0269415457536297,0,2.0269415457536297L0,1.0134707728768149C0,0.4541210264405545,0.4541210264405545,0,1.0134707728768149,0Z"/></clipPath><clipPath id="clip10"><path d="M1.9144277737717061,0L100.94271508337116,0C101.99931653502436,0,102.85714285714286,0.8578263221185011,102.85714285714286,1.9144277737717061L102.85714285714286,3.8288555475434123C102.85714285714286,3.8288555475434123,102.85714285714286,3.8288555475434123,102.85714285714286,3.8288555475434123L0,3.8288555475434123C0,3.8288555475434123,0,3.8288555475434123,0,3.8288555475434123L0,1.9144277737717061C0,0.8578263221185011,0.8578263221185011,0,1.9144277737717061,0Z"/></clipPath><clipPath id="clip11"><path d="M6,0L96.85714285714286,0C100.16863300410687,0,102.85714285714286,2.688509853036,102.85714285714286,6L102.85714285714286,12.012529179386092C102.85714285714286,12.012529179386092,102.85714285714286,12.012529179386092,102.85714285714286,12.012529179386092L0,12.012529179386092C0,12.012529179386092,0,12.012529179386092,0,12.012529179386092L0,6C0,2.688509853036,2.688509853036,0,6,0Z"/></clipPath><clipPath id="clip12"><path d="M6,0L96.85714285714286,0C100.16863300410687,0,102.85714285714286,2.688509853036,102.85714285714286,6L102.85714285714286,13.70970425489213C102.85714285714286,13.70970425489213,102.85714285714286,13.70970425489213,102.85714285714286,13.70970425489213L0,13.70970425489213C0,13.70970425489213,0,13.70970425489213,0,13.70970425489213L0,6C0,2.688509853036,2.688509853036,0,6,0Z"/></clipPath><clipPath id="clip13"><path d="M6,0L96.85714285714286,0C100.16863300410687,0,102.85714285714286,2.688509853036,102.85714285714286,6L102.85714285714286,486.330138233298C102.85714285714286,486.330138233298,102.85714285714286,486.330138233298,102.85714285714286,486.330138233298L0,486.330138233298C0,486.330138233298,0,486.330138233298,0,486.330138233298L0,6C0,2.688509853036,2.688509853036,0,6,0Z"/></clipPath><clipPath id="clip14"><path d="M6,0L96.85714285714286,0C100.16863300410687,0,102.85714285714286,2.688509853036,102.85714285714286,6L102.85714285714286,498.5107378786488C102.85714285714286,498.5107378786488,102.85714285714286,498.5107378786488,102.85714285714286,498.5107378786488L0,498.5107378786488C0,498.5107378786488,0,498.5107378786488,0,498.5107378786488L0,6C0,2.688509853036,2.688509853036,0,6,0Z"/></clipPath><clipPath id="clip15"><path d="M6,0L96.85714285714286,0C100.16863300410687,0,102.85714285714286,2.688509853036,102.85714285714286,6L102.85714285714286,571.4285714285714C102.85714285714286,571.4285714285714,102.85714285714286,571.4285714285714,102.85714285714286,571.4285714285714L0,571.4285714285714C0,571.4285714285714,0,571.4285714285714,0,571.4285714285714L0,6C0,2.688509853036,2.688509853036,0,6,0Z"/></clipPath></defs></svg>