<svg xmlns="http://www.w3.org/2000/svg" xmlns:xlink="http://www.w3.org/1999/xlink" version="1.1" class="marks" width="844" height="687" viewBox="0 0 844 687"><rect width="844" height="687" fill="white"/><g fill="none" stroke-miterlimit="10" transform="translate(39,36)"><g class="mark-group role-frame root" role="graphics-object" aria-roledescription="group mark container"><g transform="translate(0,0)"><path class="background" aria-hidden="true" d="M0.5,0.5h800v600h-800Z" stroke="#ddd"/><g><g class="mark-group role-axis" role="graphics-symbol" aria-roledescription="axis" aria-label="X-axis titled 'Parser' for a discrete scale with 8 values: yamlrocks&#xA;0.6.1, yaml_rs (parse_dt=False)&#xA;0.1.6, yaml_rs&#xA;0.1.6, ryaml&#xA;0.5.1, PyYAML (CLoader)&#xA;6.0.3, ending with ruamel.yaml&#xA;0.19.1"><g transform="translate(0.5,600.5)"><path class="background" aria-hidden="true" d="M0,0h0v0h0Z" pointer-events="none"/><g><g class="mark-rule role-axis-tick" pointer-events="none"><line transform="translate(50,0)" x2="0" y2="5" stroke="#888" stroke-width="1" opacity="1"/><line transform="translate(150,0)" x2="0" y2="5" stroke="#888" stroke-width="1" opacity="1"/><line transform="translate(250,0)" x2="0" y2="5" stroke="#888" stroke-width="1" opacity="1"/><line transform="translate(350,0)" x2="0" y2="5" stroke="#888" stroke-width="1" opacity="1"/><line transform="translate(450,0)" x2="0" y2="5" stroke="#888" stroke-width="1" opacity="1"/><line transform="translate(550,0)" x2="0" y2="5" stroke="#888" stroke-width="1" opacity="1"/><line transform="translate(650,0)" x2="0" y2="5" stroke="#888" stroke-width="1" opacity="1"/><line transform="translate(750,0)" x2="0" y2="5" stroke="#888" stroke-width="1" opacity="1"/></g><g class="mark-text role-axis-label" pointer-events="none"><text text-anchor="middle" transform="translate(49.5,15)" font-family="sans-serif" font-size="10px" fill="#000" opacity="1"><tspan>yamlrocks</tspan><tspan x="0" dy="14">0.6.1</tspan></text><text text-anchor="middle" transform="translate(149.5,15)" font-family="sans-serif" font-size="10px" fill="#000" opacity="1"><tspan>yaml_rs (parse_dt=False)</tspan><tspan x="0" dy="14">0.1.6</tspan></text><text text-anchor="middle" transform="translate(249.5,15)" font-family="sans-serif" font-size="10px" fill="#000" opacity="1"><tspan>yaml_rs</tspan><tspan x="0" dy="14">0.1.6</tspan></text><text text-anchor="middle" transform="translate(349.5,15)" font-family="sans-serif" font-size="10px" fill="#000" opacity="1"><tspan>ryaml</tspan><tspan x="0" dy="14">0.5.1</tspan></text><text text-anchor="middle" transform="translate(449.5,15)" font-family="sans-serif" font-size="10px" fill="#000" opacity="1"><tspan>PyYAML (CLoader)</tspan><tspan x="0" dy="14">6.0.3</tspan></text><text text-anchor="middle" transform="translate(549.5,15)" font-family="sans-serif" font-size="10px" fill="#000" opacity="1"><tspan>oyaml</tspan><tspan x="0" dy="14">1.0</tspan></text><text text-anchor="middle" transform="translate(649.5,15)" font-family="sans-serif" font-size="10px" fill="#000" opacity="1"><tspan>PyYAML</tspan><tspan x="0" dy="14">6.0.3</tspan></text><text text-anchor="middle" transform="translate(749.5,15)" font-family="sans-serif" font-size="10px" fill="#000" opacity="1"><tspan>ruamel.yaml</tspan><tspan x="0" dy="14">0.19.1</tspan></text></g><g class="mark-rule role-axis-domain" pointer-events="none"><line transform="translate(0,0)" x2="800" y2="0" stroke="#888" stroke-width="1" opacity="1"/></g><g class="mark-text role-axis-title" pointer-events="none"><text text-anchor="middle" transform="translate(400,44)" font-family="sans-serif" font-size="11px" font-weight="bold" fill="#000" opacity="1">Parser</text></g></g><path class="foreground" aria-hidden="true" d="" pointer-events="none" display="none"/></g></g><g class="mark-group role-axis" role="graphics-symbol" aria-roledescription="axis" aria-label="Y-axis titled 'Execution Time (seconds, lower=better)' for a linear scale with values from 0 to 17"><g transform="translate(0.5,0.5)"><path class="background" aria-hidden="true" d="M0,0h0v0h0Z" pointer-events="none"/><g><g class="mark-rule role-axis-tick" pointer-events="none"><line transform="translate(0,600)" x2="-5" y2="0" stroke="#888" stroke-width="1" opacity="1"/><line transform="translate(0,565)" x2="-5" y2="0" stroke="#888" stroke-width="1" opacity="1"/><line transform="translate(0,530)" x2="-5" y2="0" stroke="#888" stroke-width="1" opacity="1"/><line transform="translate(0,495)" x2="-5" y2="0" stroke="#888" stroke-width="1" opacity="1"/><line transform="translate(0,460)" x2="-5" y2="0" stroke="#888" stroke-width="1" opacity="1"/><line transform="translate(0,425)" x2="-5" y2="0" stroke="#888" stroke-width="1" opacity="1"/><line transform="translate(0,390)" x2="-5" y2="0" stroke="#888" stroke-width="1" opacity="1"/><line transform="translate(0,355)" x2="-5" y2="0" stroke="#888" stroke-width="1" opacity="1"/><line transform="translate(0,320)" x2="-5" y2="0" stroke="#888" stroke-width="1" opacity="1"/><line transform="translate(0,285)" x2="-5" y2="0" stroke="#888" stroke-width="1" opacity="1"/><line transform="translate(0,250)" x2="-5" y2="0" stroke="#888" stroke-width="1" opacity="1"/><line transform="translate(0,215)" x2="-5" y2="0" stroke="#888" stroke-width="1" opacity="1"/><line transform="translate(0,180)" x2="-5" y2="0" stroke="#888" stroke-width="1" opacity="1"/><line transform="translate(0,145)" x2="-5" y2="0" stroke="#888" stroke-width="1" opacity="1"/><line transform="translate(0,110)" x2="-5" y2="0" stroke="#888" stroke-width="1" opacity="1"/><line transform="translate(0,75)" x2="-5" y2="0" stroke="#888" stroke-width="1" opacity="1"/><line transform="translate(0,40)" x2="-5" y2="0" stroke="#888" stroke-width="1" opacity="1"/><line transform="translate(0,5)" x2="-5" y2="0" stroke="#888" stroke-width="1" opacity="1"/></g><g class="mark-text role-axis-label" pointer-events="none"><text text-anchor="end" transform="translate(-7,603)" font-family="sans-serif" font-size="10px" fill="#000" opacity="1">0</text><text text-anchor="end" transform="translate(-7,568.0057071282247)" font-family="sans-serif" font-size="10px" fill="#000" opacity="1">1</text><text text-anchor="end" transform="translate(-7,533.0114142564495)" font-family="sans-serif" font-size="10px" fill="#000" opacity="1">2</text><text text-anchor="end" transform="translate(-7,498.0171213846741)" font-family="sans-serif" font-size="10px" fill="#000" opacity="1">3</text><text text-anchor="end" transform="translate(-7,463.02282851289885)" font-family="sans-serif" font-size="10px" fill="#000" opacity="1">4</text><text text-anchor="end" transform="translate(-7,428.0285356411236)" font-family="sans-serif" font-size="10px" fill="#000" opacity="1">5</text><text text-anchor="end" transform="translate(-7,393.0342427693483)" font-family="sans-serif" font-size="10px" fill="#000" opacity="1">6</text><text text-anchor="end" transform="translate(-7,358.0399498975731)" font-family="sans-serif" font-size="10px" fill="#000" opacity="1">7</text><text text-anchor="end" transform="translate(-7,323.0456570257977)" font-family="sans-serif" font-size="10px" fill="#000" opacity="1">8</text><text text-anchor="end" transform="translate(-7,288.05136415402245)" font-family="sans-serif" font-size="10px" fill="#000" opacity="1">9</text><text text-anchor="end" transform="translate(-7,253.0570712822472)" font-family="sans-serif" font-size="10px" fill="#000" opacity="1">10</text><text text-anchor="end" transform="translate(-7,218.06277841047194)" font-family="sans-serif" font-size="10px" fill="#000" opacity="1">11</text><text text-anchor="end" transform="translate(-7,183.0684855386966)" font-family="sans-serif" font-size="10px" fill="#000" opacity="1">12</text><text text-anchor="end" transform="translate(-7,148.0741926669213)" font-family="sans-serif" font-size="10px" fill="#000" opacity="1">13</text><text text-anchor="end" transform="translate(-7,113.07989979514605)" font-family="sans-serif" font-size="10px" fill="#000" opacity="1">14</text><text text-anchor="end" transform="translate(-7,78.08560692337079)" font-family="sans-serif" font-size="10px" fill="#000" opacity="1">15</text><text text-anchor="end" transform="translate(-7,43.09131405159552)" font-family="sans-serif" font-size="10px" fill="#000" opacity="1">16</text><text text-anchor="end" transform="translate(-7,8.097021179820182)" font-family="sans-serif" font-size="10px" fill="#000" opacity="1">17</text></g><g class="mark-rule role-axis-domain" pointer-events="none"><line transform="translate(0,600)" x2="0" y2="-600" stroke="#888" stroke-width="1" opacity="1"/></g><g class="mark-text role-axis-title" pointer-events="none"><text text-anchor="middle" transform="translate(-22.123046875,300) rotate(-90) translate(0,-2)" font-family="sans-serif" font-size="11px" font-weight="bold" fill="#000" opacity="1">Execution Time (seconds, lower=better)</text></g></g><path class="foreground" aria-hidden="true" d="" pointer-events="none" display="none"/></g></g><g class="mark-group role-scope" role="graphics-object" aria-roledescription="group mark container"><g transform="translate(5,594.9646935600337)"><path class="background" aria-hidden="true" d="M2.517653219983174,0L87.48234678001683,0C88.87187741859124,0,90,1.1281225814087625,90,2.517653219983174L90,5.035306439966348C90,5.035306439966348,90,5.035306439966348,90,5.035306439966348L0,5.035306439966348C0,5.035306439966348,0,5.035306439966348,0,5.035306439966348L0,2.517653219983174C0,1.1281225814087625,1.1281225814087625,0,2.517653219983174,0Z"/><g clip-path="url(#clip1)"><g class="mark-group role-scope" role="graphics-object" aria-roledescription="group mark container"><g transform="translate(0,-594.9646935600337)"><path class="background" aria-hidden="true" d="M0,0h90v0h-90Z"/><g><g class="mark-rect role-mark layer_0_marks" role="graphics-object" aria-roledescription="rect mark container"><path aria-label="Parser: yamlrocks&#xA;0.6.1; Execution Time (seconds, lower=better): 0.143889361; parser: yamlrocks; Execution Time (s): 0.1439; Slowdown: 1.00" role="graphics-symbol" aria-roledescription="bar" d="M0,594.9646935600337h90v5.035306439966348h-90Z" fill="#666666"/></g></g><path class="foreground" aria-hidden="true" d="" display="none"/></g></g></g><path class="foreground" aria-hidden="true" d="" display="none"/></g><g transform="translate(105,591.5812902654787)"><path class="background" aria-hidden="true" d="M4.209354867260629,0L85.79064513273937,0C88.11385132740746,0,90,1.886148672592541,90,4.209354867260629L90,8.418709734521258C90,8.418709734521258,90,8.418709734521258,90,8.418709734521258L0,8.418709734521258C0,8.418709734521258,0,8.418709734521258,0,8.418709734521258L0,4.209354867260629C0,1.886148672592541,1.886148672592541,0,4.209354867260629,0Z"/><g clip-path="url(#clip2)"><g class="mark-group role-scope" role="graphics-object" aria-roledescription="group mark container"><g transform="translate(0,-591.5812902654787)"><path class="background" aria-hidden="true" d="M0,0h90v0h-90Z"/><g><g class="mark-rect role-mark layer_0_marks" role="graphics-object" aria-roledescription="rect mark container"><path aria-label="Parser: yaml_rs (parse_dt=False)&#xA;0.1.6; Execution Time (seconds, lower=better): 0.240573792; parser: yaml_rs (parse_dt=False); Execution Time (s): 0.2406; Slowdown: 1.67" role="graphics-symbol" aria-roledescription="bar" d="M0,591.5812902654787h90v8.418709734521258h-90Z" fill="#a6761d"/></g></g><path class="foreground" aria-hidden="true" d="" display="none"/></g></g></g><path class="foreground" aria-hidden="true" d="" display="none"/></g><g transform="translate(205,591.4429524949588)"><path class="background" aria-hidden="true" d="M4.278523752520584,0L85.72147624747942,0C88.08285778914997,0,90,1.9171422108500253,90,4.278523752520584L90,8.557047505041169C90,8.557047505041169,90,8.557047505041169,90,8.557047505041169L0,8.557047505041169C0,8.557047505041169,0,8.557047505041169,0,8.557047505041169L0,4.278523752520584C0,1.9171422108500253,1.9171422108500253,0,4.278523752520584,0Z"/><g clip-path="url(#clip3)"><g class="mark-group role-scope" role="graphics-object" aria-roledescription="group mark container"><g transform="translate(0,-591.4429524949588)"><path class="background" aria-hidden="true" d="M0,0h90v0h-90Z"/><g><g class="mark-rect role-mark layer_0_marks" role="graphics-object" aria-roledescription="rect mark container"><path aria-label="Parser: yaml_rs&#xA;0.1.6; Execution Time (seconds, lower=better): 0.244526944333; parser: yaml_rs; Execution Time (s): 0.2445; Slowdown: 1.70" role="graphics-symbol" aria-roledescription="bar" d="M0,591.4429524949588h90v8.557047505041169h-90Z" fill="#e6ab02"/></g></g><path class="foreground" aria-hidden="true" d="" display="none"/></g></g></g><path class="foreground" aria-hidden="true" d="" display="none"/></g><g transform="translate(305,582.5556823134092)"><path class="background" aria-hidden="true" d="M6,0L84,0C87.311490146964,0,90,2.688509853036,90,6L90,17.444317686590807C90,17.444317686590807,90,17.444317686590807,90,17.444317686590807L0,17.444317686590807C0,17.444317686590807,0,17.444317686590807,0,17.444317686590807L0,6C0,2.688509853036,2.688509853036,0,6,0Z"/><g clip-path="url(#clip4)"><g class="mark-group role-scope" role="graphics-object" aria-roledescription="group mark container"><g transform="translate(0,-582.5556823134092)"><path class="background" aria-hidden="true" d="M0,0h90v0h-90Z"/><g><g class="mark-rect role-mark layer_0_marks" role="graphics-object" aria-roledescription="rect mark container"><path aria-label="Parser: ryaml&#xA;0.5.1; Execution Time (seconds, lower=better): 0.498490361; parser: ryaml; Execution Time (s): 0.4985; Slowdown: 3.46" role="graphics-symbol" aria-roledescription="bar" d="M0,582.5556823134092h90v17.444317686590807h-90Z" fill="#66a61e"/></g></g><path class="foreground" aria-hidden="true" d="" display="none"/></g></g></g><path class="foreground" aria-hidden="true" d="" display="none"/></g><g transform="translate(405,554.9741930684328)"><path class="background" aria-hidden="true" d="M6,0L84,0C87.311490146964,0,90,2.688509853036,90,6L90,45.02580693156722C90,45.02580693156722,90,45.02580693156722,90,45.02580693156722L0,45.02580693156722C0,45.02580693156722,0,45.02580693156722,0,45.02580693156722L0,6C0,2.688509853036,2.688509853036,0,6,0Z"/><g clip-path="url(#clip5)"><g class="mark-group role-scope" role="graphics-object" aria-roledescription="group mark container"><g transform="translate(0,-554.9741930684328)"><path class="background" aria-hidden="true" d="M0,0h90v0h-90Z"/><g><g class="mark-rect role-mark layer_0_marks" role="graphics-object" aria-roledescription="rect mark container"><path aria-label="Parser: PyYAML (CLoader)&#xA;6.0.3; Execution Time (seconds, lower=better): 1.28666143067; parser: PyYAML (CLoader); Execution Time (s): 1.2867; Slowdown: 8.94" role="graphics-symbol" aria-roledescription="bar" d="M0,554.9741930684328h90v45.02580693156722h-90Z" fill="#d95f02"/></g></g><path class="foreground" aria-hidden="true" d="" display="none"/></g></g></g><path class="foreground" aria-hidden="true" d="" display="none"/></g><g transform="translate(505,150.68163832152436)"><path class="background" aria-hidden="true" d="M6,0L84,0C87.311490146964,0,90,2.688509853036,90,6L90,449.31836167847564C90,449.31836167847564,90,449.31836167847564,90,449.31836167847564L0,449.31836167847564C0,449.31836167847564,0,449.31836167847564,0,449.31836167847564L0,6C0,2.688509853036,2.688509853036,0,6,0Z"/><g clip-path="url(#clip6)"><g class="mark-group role-scope" role="graphics-object" aria-roledescription="group mark container"><g transform="translate(0,-150.68163832152436)"><path class="background" aria-hidden="true" d="M0,0h90v0h-90Z"/><g><g class="mark-rect role-mark layer_0_marks" role="graphics-object" aria-roledescription="rect mark container"><path aria-label="Parser: oyaml&#xA;1.0; Execution Time (seconds, lower=better): 12.8397611383; parser: oyaml; Execution Time (s): 12.8398; Slowdown: 89.23" role="graphics-symbol" aria-roledescription="bar" d="M0,150.68163832152436h90v449.31836167847564h-90Z" fill="#7570b3"/></g></g><path class="foreground" aria-hidden="true" d="" display="none"/></g></g></g><path class="foreground" aria-hidden="true" d="" display="none"/></g><g transform="translate(605,142.64073911586658)"><path class="background" aria-hidden="true" d="M6,0L84,0C87.311490146964,0,90,2.688509853036,90,6L90,457.3592608841334C90,457.3592608841334,90,457.3592608841334,90,457.3592608841334L0,457.3592608841334C0,457.3592608841334,0,457.3592608841334,0,457.3592608841334L0,6C0,2.688509853036,2.688509853036,0,6,0Z"/><g clip-path="url(#clip7)"><g class="mark-group role-scope" role="graphics-object" aria-roledescription="group mark container"><g transform="translate(0,-142.64073911586658)"><path class="background" aria-hidden="true" d="M0,0h90v0h-90Z"/><g><g class="mark-rect role-mark layer_0_marks" role="graphics-object" aria-roledescription="rect mark container"><path aria-label="Parser: PyYAML&#xA;6.0.3; Execution Time (seconds, lower=better): 13.0695385833; parser: PyYAML; Execution Time (s): 13.0695; Slowdown: 90.83" role="graphics-symbol" aria-roledescription="bar" d="M0,142.64073911586658h90v457.3592608841334h-90Z" fill="#1b9e77"/></g></g><path class="foreground" aria-hidden="true" d="" display="none"/></g></g></g><path class="foreground" aria-hidden="true" d="" display="none"/></g><g transform="translate(705,28.571428571428605)"><path class="background" aria-hidden="true" d="M6,0L84,0C87.311490146964,0,90,2.688509853036,90,6L90,571.4285714285714C90,571.4285714285714,90,571.4285714285714,90,571.4285714285714L0,571.4285714285714C0,571.4285714285714,0,571.4285714285714,0,571.4285714285714L0,6C0,2.688509853036,2.688509853036,0,6,0Z"/><g clip-path="url(#clip8)"><g class="mark-group role-scope" role="graphics-object" aria-roledescription="group mark container"><g transform="translate(0,-28.571428571428605)"><path class="background" aria-hidden="true" d="M0,0h90v0h-90Z"/><g><g class="mark-rect role-mark layer_0_marks" role="graphics-object" aria-roledescription="rect mark container"><path aria-label="Parser: ruamel.yaml&#xA;0.19.1; Execution Time (seconds, lower=better): 16.3291932637; parser: ruamel.yaml; Execution Time (s): 16.3292; Slowdown: 113.48" role="graphics-symbol" aria-roledescription="bar" d="M0,28.571428571428605h90v571.4285714285714h-90Z" fill="#e7298a"/></g></g><path class="foreground" aria-hidden="true" d="" display="none"/></g></g></g><path class="foreground" aria-hidden="true" d="" display="none"/></g></g><g class="mark-text role-mark layer_1_marks" role="graphics-object" aria-roledescription="text mark container"><text aria-label="Parser: yamlrocks&#xA;0.6.1; Execution Time (seconds, lower=better): 0.143889361; parser: yamlrocks; label: 0.1439s (x1.00); Execution Time (s): 0.1439; Slowdown: 1.00" role="graphics-symbol" aria-roledescription="text mark" text-anchor="middle" transform="translate(50,590.9646935600337)" font-family="sans-serif" font-size="9px" font-weight="bold" fill="#666666">0.1439s (x1.00)</text><text aria-label="Parser: yaml_rs (parse_dt=False)&#xA;0.1.6; Execution Time (seconds, lower=better): 0.240573792; parser: yaml_rs (parse_dt=False); label: 0.2406s (x1.67); Execution Time (s): 0.2406; Slowdown: 1.67" role="graphics-symbol" aria-roledescription="text mark" text-anchor="middle" transform="translate(150,587.5812902654787)" font-family="sans-serif" font-size="9px" font-weight="bold" fill="#a6761d">0.2406s (x1.67)</text><text aria-label="Parser: yaml_rs&#xA;0.1.6; Execution Time (seconds, lower=better): 0.244526944333; parser: yaml_rs; label: 0.2445s (x1.70); Execution Time (s): 0.2445; Slowdown: 1.70" role="graphics-symbol" aria-roledescription="text mark" text-anchor="middle" transform="translate(250,587.4429524949588)" font-family="sans-serif" font-size="9px" font-weight="bold" fill="#e6ab02">0.2445s (x1.70)</text><text aria-label="Parser: ryaml&#xA;0.5.1; Execution Time (seconds, lower=better): 0.498490361; parser: ryaml; label: 0.4985s (x3.46); Execution Time (s): 0.4985; Slowdown: 3.46" role="graphics-symbol" aria-roledescription="text mark" text-anchor="middle" transform="translate(350,578.5556823134092)" font-family="sans-serif" font-size="9px" font-weight="bold" fill="#66a61e">0.4985s (x3.46)</text><text aria-label="Parser: PyYAML (CLoader)&#xA;6.0.3; Execution Time (seconds, lower=better): 1.28666143067; parser: PyYAML (CLoader); label: 1.2867s (x8.94); Execution Time (s): 1.2867; Slowdown: 8.94" role="graphics-symbol" aria-roledescription="text mark" text-anchor="middle" transform="translate(450,550.9741930684328)" font-family="sans-serif" font-size="9px" font-weight="bold" fill="#d95f02">1.2867s (x8.94)</text><text aria-label="Parser: oyaml&#xA;1.0; Execution Time (seconds, lower=better): 12.8397611383; parser: oyaml; label: 12.8398s (x89.23); Execution Time (s): 12.8398; Slowdown: 89.23" role="graphics-symbol" aria-roledescription="text mark" text-anchor="middle" transform="translate(550,146.68163832152436)" font-family="sans-serif" font-size="9px" font-weight="bold" fill="#7570b3">12.8398s (x89.23)</text><text aria-label="Parser: PyYAML&#xA;6.0.3; Execution Time (seconds, lower=better): 13.0695385833; parser: PyYAML; label: 13.0695s (x90.83); Execution Time (s): 13.0695; Slowdown: 90.83" role="graphics-symbol" aria-roledescription="text mark" text-anchor="middle" transform="translate(650,138.64073911586658)" font-family="sans-serif" font-size="9px" font-weight="bold" fill="#1b9e77">13.0695s (x90.83)</text><text aria-label="Parser: ruamel.yaml&#xA;0.19.1; Execution Time (seconds, lower=better): 16.3291932637; parser: ruamel.yaml; label: 16.3292s (x113.48); Execution Time (s): 16.3292; Slowdown: 113.48" role="graphics-symbol" aria-roledescription="text mark" text-anchor="middle" transform="translate(750,24.571428571428605)" font-family="sans-serif" font-size="9px" font-weight="bold" fill="#e7298a">16.3292s (x113.48)</text></g><g class="mark-group role-title"><g transform="translate(400,-31)"><path class="background" aria-hidden="true" d="M0,0h0v0h0Z" pointer-events="none"/><g><g class="mark-text role-title-text" role="graphics-symbol" aria-roledescription="title" aria-label="Title text 'YAML parsers benchmark (loads)'" pointer-events="none"><text text-anchor="middle" transform="translate(0,10)" font-family="sans-serif" font-size="13px" font-weight="bold" fill="#000" opacity="1">YAML parsers benchmark (loads)</text></g><g class="mark-text role-title-subtitle" role="graphics-symbol" aria-roledescription="subtitle" aria-label="Subtitle text 'Python: 3.14.7 (Darwin 25.6.0) | CPU: Apple M1 (Virtual)'" pointer-events="none"><text text-anchor="middle" transform="translate(0,25)" font-family="sans-serif" font-size="12px" fill="#000" opacity="1">Python: 3.14.7 (Darwin 25.6.0) | CPU: Apple M1 (Virtual)</text></g></g><path class="foreground" aria-hidden="true" d="" pointer-events="none" display="none"/></g></g></g><path class="foreground" aria-hidden="true" d="" display="none"/></g></g></g><defs><clipPath id="clip1"><path d="M2.517653219983174,0L87.48234678001683,0C88.87187741859124,0,90,1.1281225814087625,90,2.517653219983174L90,5.035306439966348C90,5.035306439966348,90,5.035306439966348,90,5.035306439966348L0,5.035306439966348C0,5.035306439966348,0,5.035306439966348,0,5.035306439966348L0,2.517653219983174C0,1.1281225814087625,1.1281225814087625,0,2.517653219983174,0Z"/></clipPath><clipPath id="clip2"><path d="M4.209354867260629,0L85.79064513273937,0C88.11385132740746,0,90,1.886148672592541,90,4.209354867260629L90,8.418709734521258C90,8.418709734521258,90,8.418709734521258,90,8.418709734521258L0,8.418709734521258C0,8.418709734521258,0,8.418709734521258,0,8.418709734521258L0,4.209354867260629C0,1.886148672592541,1.886148672592541,0,4.209354867260629,0Z"/></clipPath><clipPath id="clip3"><path d="M4.278523752520584,0L85.72147624747942,0C88.08285778914997,0,90,1.9171422108500253,90,4.278523752520584L90,8.557047505041169C90,8.557047505041169,90,8.557047505041169,90,8.557047505041169L0,8.557047505041169C0,8.557047505041169,0,8.557047505041169,0,8.557047505041169L0,4.278523752520584C0,1.9171422108500253,1.9171422108500253,0,4.278523752520584,0Z"/></clipPath><clipPath id="clip4"><path d="M6,0L84,0C87.311490146964,0,90,2.688509853036,90,6L90,17.444317686590807C90,17.444317686590807,90,17.444317686590807,90,17.444317686590807L0,17.444317686590807C0,17.444317686590807,0,17.444317686590807,0,17.444317686590807L0,6C0,2.688509853036,2.688509853036,0,6,0Z"/></clipPath><clipPath id="clip5"><path d="M6,0L84,0C87.311490146964,0,90,2.688509853036,90,6L90,45.02580693156722C90,45.02580693156722,90,45.02580693156722,90,45.02580693156722L0,45.02580693156722C0,45.02580693156722,0,45.02580693156722,0,45.02580693156722L0,6C0,2.688509853036,2.688509853036,0,6,0Z"/></clipPath><clipPath id="clip6"><path d="M6,0L84,0C87.311490146964,0,90,2.688509853036,90,6L90,449.31836167847564C90,449.31836167847564,90,449.31836167847564,90,449.31836167847564L0,449.31836167847564C0,449.31836167847564,0,449.31836167847564,0,449.31836167847564L0,6C0,2.688509853036,2.688509853036,0,6,0Z"/></clipPath><clipPath id="clip7"><path d="M6,0L84,0C87.311490146964,0,90,2.688509853036,90,6L90,457.3592608841334C90,457.3592608841334,90,457.3592608841334,90,457.3592608841334L0,457.3592608841334C0,457.3592608841334,0,457.3592608841334,0,457.3592608841334L0,6C0,2.688509853036,2.688509853036,0,6,0Z"/></clipPath><clipPath id="clip8"><path d="M6,0L84,0C87.311490146964,0,90,2.688509853036,90,6L90,571.4285714285714C90,571.4285714285714,90,571.4285714285714,90,571.4285714285714L0,571.4285714285714C0,571.4285714285714,0,571.4285714285714,0,571.4285714285714L0,6C0,2.688509853036,2.688509853036,0,6,0Z"/></clipPath></defs></svg>