<svg xmlns="http://www.w3.org/2000/svg" xmlns:xlink="http://www.w3.org/1999/xlink" version="1.1" class="marks" width="844" height="687" viewBox="0 0 844 687"><rect width="844" height="687" fill="white"/><g fill="none" stroke-miterlimit="10" transform="translate(39,36)"><g class="mark-group role-frame root" role="graphics-object" aria-roledescription="group mark container"><g transform="translate(0,0)"><path class="background" aria-hidden="true" d="M0.5,0.5h800v600h-800Z" stroke="#ddd"/><g><g class="mark-group role-axis" role="graphics-symbol" aria-roledescription="axis" aria-label="X-axis titled 'Parser' for a discrete scale with 8 values: yamlrocks&#xA;0.6.1, yaml_rs&#xA;0.1.6, yaml_rs (parse_dt=False)&#xA;0.1.6, ryaml&#xA;0.5.1, PyYAML (CLoader)&#xA;6.0.3, ending with ruamel.yaml&#xA;0.19.1"><g transform="translate(0.5,600.5)"><path class="background" aria-hidden="true" d="M0,0h0v0h0Z" pointer-events="none"/><g><g class="mark-rule role-axis-tick" pointer-events="none"><line transform="translate(50,0)" x2="0" y2="5" stroke="#888" stroke-width="1" opacity="1"/><line transform="translate(150,0)" x2="0" y2="5" stroke="#888" stroke-width="1" opacity="1"/><line transform="translate(250,0)" x2="0" y2="5" stroke="#888" stroke-width="1" opacity="1"/><line transform="translate(350,0)" x2="0" y2="5" stroke="#888" stroke-width="1" opacity="1"/><line transform="translate(450,0)" x2="0" y2="5" stroke="#888" stroke-width="1" opacity="1"/><line transform="translate(550,0)" x2="0" y2="5" stroke="#888" stroke-width="1" opacity="1"/><line transform="translate(650,0)" x2="0" y2="5" stroke="#888" stroke-width="1" opacity="1"/><line transform="translate(750,0)" x2="0" y2="5" stroke="#888" stroke-width="1" opacity="1"/></g><g class="mark-text role-axis-label" pointer-events="none"><text text-anchor="middle" transform="translate(49.5,15)" font-family="sans-serif" font-size="10px" fill="#000" opacity="1"><tspan>yamlrocks</tspan><tspan x="0" dy="14">0.6.1</tspan></text><text text-anchor="middle" transform="translate(149.5,15)" font-family="sans-serif" font-size="10px" fill="#000" opacity="1"><tspan>yaml_rs</tspan><tspan x="0" dy="14">0.1.6</tspan></text><text text-anchor="middle" transform="translate(249.5,15)" font-family="sans-serif" font-size="10px" fill="#000" opacity="1"><tspan>yaml_rs (parse_dt=False)</tspan><tspan x="0" dy="14">0.1.6</tspan></text><text text-anchor="middle" transform="translate(349.5,15)" font-family="sans-serif" font-size="10px" fill="#000" opacity="1"><tspan>ryaml</tspan><tspan x="0" dy="14">0.5.1</tspan></text><text text-anchor="middle" transform="translate(449.5,15)" font-family="sans-serif" font-size="10px" fill="#000" opacity="1"><tspan>PyYAML (CLoader)</tspan><tspan x="0" dy="14">6.0.3</tspan></text><text text-anchor="middle" transform="translate(549.5,15)" font-family="sans-serif" font-size="10px" fill="#000" opacity="1"><tspan>oyaml</tspan><tspan x="0" dy="14">1.0</tspan></text><text text-anchor="middle" transform="translate(649.5,15)" font-family="sans-serif" font-size="10px" fill="#000" opacity="1"><tspan>PyYAML</tspan><tspan x="0" dy="14">6.0.3</tspan></text><text text-anchor="middle" transform="translate(749.5,15)" font-family="sans-serif" font-size="10px" fill="#000" opacity="1"><tspan>ruamel.yaml</tspan><tspan x="0" dy="14">0.19.1</tspan></text></g><g class="mark-rule role-axis-domain" pointer-events="none"><line transform="translate(0,0)" x2="800" y2="0" stroke="#888" stroke-width="1" opacity="1"/></g><g class="mark-text role-axis-title" pointer-events="none"><text text-anchor="middle" transform="translate(400,44)" font-family="sans-serif" font-size="11px" font-weight="bold" fill="#000" opacity="1">Parser</text></g></g><path class="foreground" aria-hidden="true" d="" pointer-events="none" display="none"/></g></g><g class="mark-group role-axis" role="graphics-symbol" aria-roledescription="axis" aria-label="Y-axis titled 'Execution Time (seconds, lower=better)' for a linear scale with values from 0 to 22"><g transform="translate(0.5,0.5)"><path class="background" aria-hidden="true" d="M0,0h0v0h0Z" pointer-events="none"/><g><g class="mark-rule role-axis-tick" pointer-events="none"><line transform="translate(0,600)" x2="-5" y2="0" stroke="#888" stroke-width="1" opacity="1"/><line transform="translate(0,545)" x2="-5" y2="0" stroke="#888" stroke-width="1" opacity="1"/><line transform="translate(0,490)" x2="-5" y2="0" stroke="#888" stroke-width="1" opacity="1"/><line transform="translate(0,435)" x2="-5" y2="0" stroke="#888" stroke-width="1" opacity="1"/><line transform="translate(0,381)" x2="-5" y2="0" stroke="#888" stroke-width="1" opacity="1"/><line transform="translate(0,326)" x2="-5" y2="0" stroke="#888" stroke-width="1" opacity="1"/><line transform="translate(0,271)" x2="-5" y2="0" stroke="#888" stroke-width="1" opacity="1"/><line transform="translate(0,216)" x2="-5" y2="0" stroke="#888" stroke-width="1" opacity="1"/><line transform="translate(0,161)" x2="-5" y2="0" stroke="#888" stroke-width="1" opacity="1"/><line transform="translate(0,106)" x2="-5" y2="0" stroke="#888" stroke-width="1" opacity="1"/><line transform="translate(0,51)" x2="-5" y2="0" stroke="#888" stroke-width="1" opacity="1"/></g><g class="mark-text role-axis-label" pointer-events="none"><text text-anchor="end" transform="translate(-7,603)" font-family="sans-serif" font-size="10px" fill="#000" opacity="1">0</text><text text-anchor="end" transform="translate(-7,548.1499884491182)" font-family="sans-serif" font-size="10px" fill="#000" opacity="1">2</text><text text-anchor="end" transform="translate(-7,493.2999768982362)" font-family="sans-serif" font-size="10px" fill="#000" opacity="1">4</text><text text-anchor="end" transform="translate(-7,438.4499653473543)" font-family="sans-serif" font-size="10px" fill="#000" opacity="1">6</text><text text-anchor="end" transform="translate(-7,383.5999537964724)" font-family="sans-serif" font-size="10px" fill="#000" opacity="1">8</text><text text-anchor="end" transform="translate(-7,328.7499422455905)" font-family="sans-serif" font-size="10px" fill="#000" opacity="1">10</text><text text-anchor="end" transform="translate(-7,273.89993069470864)" font-family="sans-serif" font-size="10px" fill="#000" opacity="1">12</text><text text-anchor="end" transform="translate(-7,219.04991914382668)" font-family="sans-serif" font-size="10px" fill="#000" opacity="1">14</text><text text-anchor="end" transform="translate(-7,164.1999075929448)" font-family="sans-serif" font-size="10px" fill="#000" opacity="1">16</text><text text-anchor="end" transform="translate(-7,109.34989604206295)" font-family="sans-serif" font-size="10px" fill="#000" opacity="1">18</text><text text-anchor="end" transform="translate(-7,54.499884491181014)" font-family="sans-serif" font-size="10px" fill="#000" opacity="1">20</text></g><g class="mark-rule role-axis-domain" pointer-events="none"><line transform="translate(0,600)" x2="0" y2="-600" stroke="#888" stroke-width="1" opacity="1"/></g><g class="mark-text role-axis-title" pointer-events="none"><text text-anchor="middle" transform="translate(-22.123046875,300) rotate(-90) translate(0,-2)" font-family="sans-serif" font-size="11px" font-weight="bold" fill="#000" opacity="1">Execution Time (seconds, lower=better)</text></g></g><path class="foreground" aria-hidden="true" d="" pointer-events="none" display="none"/></g></g><g class="mark-group role-scope" role="graphics-object" aria-roledescription="group mark container"><g transform="translate(5,592.1248101667948)"><path class="background" aria-hidden="true" d="M3.9375949166026203,0L86.06240508339738,0C88.23562287824157,0,90,1.7643771217584352,90,3.9375949166026203L90,7.875189833205241C90,7.875189833205241,90,7.875189833205241,90,7.875189833205241L0,7.875189833205241C0,7.875189833205241,0,7.875189833205241,0,7.875189833205241L0,3.9375949166026203C0,1.7643771217584352,1.7643771217584352,0,3.9375949166026203,0Z"/><g clip-path="url(#clip1)"><g class="mark-group role-scope" role="graphics-object" aria-roledescription="group mark container"><g transform="translate(0,-592.1248101667948)"><path class="background" aria-hidden="true" d="M0,0h90v0h-90Z"/><g><g class="mark-rect role-mark layer_0_marks" role="graphics-object" aria-roledescription="rect mark container"><path aria-label="Parser: yamlrocks&#xA;0.6.1; Execution Time (seconds, lower=better): 0.287153625333; parser: yamlrocks; Execution Time (s): 0.2872; Slowdown: 1.00" role="graphics-symbol" aria-roledescription="bar" d="M0,592.1248101667948h90v7.875189833205241h-90Z" fill="#666666"/></g></g><path class="foreground" aria-hidden="true" d="" display="none"/></g></g></g><path class="foreground" aria-hidden="true" d="" display="none"/></g><g transform="translate(105,587.9032538973337)"><path class="background" aria-hidden="true" d="M6,0L84,0C87.311490146964,0,90,2.688509853036,90,6L90,12.096746102666316C90,12.096746102666316,90,12.096746102666316,90,12.096746102666316L0,12.096746102666316C0,12.096746102666316,0,12.096746102666316,0,12.096746102666316L0,6C0,2.688509853036,2.688509853036,0,6,0Z"/><g clip-path="url(#clip2)"><g class="mark-group role-scope" role="graphics-object" aria-roledescription="group mark container"><g transform="translate(0,-587.9032538973337)"><path class="background" aria-hidden="true" d="M0,0h90v0h-90Z"/><g><g class="mark-rect role-mark layer_0_marks" role="graphics-object" aria-roledescription="rect mark container"><path aria-label="Parser: yaml_rs&#xA;0.1.6; Execution Time (seconds, lower=better): 0.441084541667; parser: yaml_rs; Execution Time (s): 0.4411; Slowdown: 1.54" role="graphics-symbol" aria-roledescription="bar" d="M0,587.9032538973337h90v12.096746102666316h-90Z" fill="#e6ab02"/></g></g><path class="foreground" aria-hidden="true" d="" display="none"/></g></g></g><path class="foreground" aria-hidden="true" d="" display="none"/></g><g transform="translate(205,587.7487265687249)"><path class="background" aria-hidden="true" d="M6,0L84,0C87.311490146964,0,90,2.688509853036,90,6L90,12.25127343127508C90,12.25127343127508,90,12.25127343127508,90,12.25127343127508L0,12.25127343127508C0,12.25127343127508,0,12.25127343127508,0,12.25127343127508L0,6C0,2.688509853036,2.688509853036,0,6,0Z"/><g clip-path="url(#clip3)"><g class="mark-group role-scope" role="graphics-object" aria-roledescription="group mark container"><g transform="translate(0,-587.7487265687249)"><path class="background" aria-hidden="true" d="M0,0h90v0h-90Z"/><g><g class="mark-rect role-mark layer_0_marks" role="graphics-object" aria-roledescription="rect mark container"><path aria-label="Parser: yaml_rs (parse_dt=False)&#xA;0.1.6; Execution Time (seconds, lower=better): 0.446719083; parser: yaml_rs (parse_dt=False); Execution Time (s): 0.4467; Slowdown: 1.56" role="graphics-symbol" aria-roledescription="bar" d="M0,587.7487265687249h90v12.25127343127508h-90Z" fill="#a6761d"/></g></g><path class="foreground" aria-hidden="true" d="" display="none"/></g></g></g><path class="foreground" aria-hidden="true" d="" display="none"/></g><g transform="translate(305,574.6171767108731)"><path class="background" aria-hidden="true" d="M6,0L84,0C87.311490146964,0,90,2.688509853036,90,6L90,25.382823289126918C90,25.382823289126918,90,25.382823289126918,90,25.382823289126918L0,25.382823289126918C0,25.382823289126918,0,25.382823289126918,0,25.382823289126918L0,6C0,2.688509853036,2.688509853036,0,6,0Z"/><g clip-path="url(#clip4)"><g class="mark-group role-scope" role="graphics-object" aria-roledescription="group mark container"><g transform="translate(0,-574.6171767108731)"><path class="background" aria-hidden="true" d="M0,0h90v0h-90Z"/><g><g class="mark-rect role-mark layer_0_marks" role="graphics-object" aria-roledescription="rect mark container"><path aria-label="Parser: ryaml&#xA;0.5.1; Execution Time (seconds, lower=better): 0.92553575; parser: ryaml; Execution Time (s): 0.9255; Slowdown: 3.22" role="graphics-symbol" aria-roledescription="bar" d="M0,574.6171767108731h90v25.382823289126918h-90Z" fill="#66a61e"/></g></g><path class="foreground" aria-hidden="true" d="" display="none"/></g></g></g><path class="foreground" aria-hidden="true" d="" display="none"/></g><g transform="translate(405,560.3625564937876)"><path class="background" aria-hidden="true" d="M6,0L84,0C87.311490146964,0,90,2.688509853036,90,6L90,39.637443506212435C90,39.637443506212435,90,39.637443506212435,90,39.637443506212435L0,39.637443506212435C0,39.637443506212435,0,39.637443506212435,0,39.637443506212435L0,6C0,2.688509853036,2.688509853036,0,6,0Z"/><g clip-path="url(#clip5)"><g class="mark-group role-scope" role="graphics-object" aria-roledescription="group mark container"><g transform="translate(0,-560.3625564937876)"><path class="background" aria-hidden="true" d="M0,0h90v0h-90Z"/><g><g class="mark-rect role-mark layer_0_marks" role="graphics-object" aria-roledescription="rect mark container"><path aria-label="Parser: PyYAML (CLoader)&#xA;6.0.3; Execution Time (seconds, lower=better): 1.445303014; parser: PyYAML (CLoader); Execution Time (s): 1.4453; Slowdown: 5.03" role="graphics-symbol" aria-roledescription="bar" d="M0,560.3625564937876h90v39.637443506212435h-90Z" fill="#d95f02"/></g></g><path class="foreground" aria-hidden="true" d="" display="none"/></g></g></g><path class="foreground" aria-hidden="true" d="" display="none"/></g><g transform="translate(505,205.1106019961288)"><path class="background" aria-hidden="true" d="M6,0L84,0C87.311490146964,0,90,2.688509853036,90,6L90,394.8893980038712C90,394.8893980038712,90,394.8893980038712,90,394.8893980038712L0,394.8893980038712C0,394.8893980038712,0,394.8893980038712,0,394.8893980038712L0,6C0,2.688509853036,2.688509853036,0,6,0Z"/><g clip-path="url(#clip6)"><g class="mark-group role-scope" role="graphics-object" aria-roledescription="group mark container"><g transform="translate(0,-205.1106019961288)"><path class="background" aria-hidden="true" d="M0,0h90v0h-90Z"/><g><g class="mark-rect role-mark layer_0_marks" role="graphics-object" aria-roledescription="rect mark container"><path aria-label="Parser: oyaml&#xA;1.0; Execution Time (seconds, lower=better): 14.3988811247; parser: oyaml; Execution Time (s): 14.3989; Slowdown: 50.14" role="graphics-symbol" aria-roledescription="bar" d="M0,205.1106019961288h90v394.8893980038712h-90Z" fill="#7570b3"/></g></g><path class="foreground" aria-hidden="true" d="" display="none"/></g></g></g><path class="foreground" aria-hidden="true" d="" display="none"/></g><g transform="translate(605,122.69743347034627)"><path class="background" aria-hidden="true" d="M6,0L84,0C87.311490146964,0,90,2.688509853036,90,6L90,477.30256652965375C90,477.30256652965375,90,477.30256652965375,90,477.30256652965375L0,477.30256652965375C0,477.30256652965375,0,477.30256652965375,0,477.30256652965375L0,6C0,2.688509853036,2.688509853036,0,6,0Z"/><g clip-path="url(#clip7)"><g class="mark-group role-scope" role="graphics-object" aria-roledescription="group mark container"><g transform="translate(0,-122.69743347034627)"><path class="background" aria-hidden="true" d="M0,0h90v0h-90Z"/><g><g class="mark-rect role-mark layer_0_marks" role="graphics-object" aria-roledescription="rect mark container"><path aria-label="Parser: PyYAML&#xA;6.0.3; Execution Time (seconds, lower=better): 17.403918542; parser: PyYAML; Execution Time (s): 17.4039; Slowdown: 60.61" role="graphics-symbol" aria-roledescription="bar" d="M0,122.69743347034627h90v477.30256652965375h-90Z" fill="#1b9e77"/></g></g><path class="foreground" aria-hidden="true" d="" display="none"/></g></g></g><path class="foreground" aria-hidden="true" d="" display="none"/></g><g transform="translate(705,28.571428571428605)"><path class="background" aria-hidden="true" d="M6,0L84,0C87.311490146964,0,90,2.688509853036,90,6L90,571.4285714285714C90,571.4285714285714,90,571.4285714285714,90,571.4285714285714L0,571.4285714285714C0,571.4285714285714,0,571.4285714285714,0,571.4285714285714L0,6C0,2.688509853036,2.688509853036,0,6,0Z"/><g clip-path="url(#clip8)"><g class="mark-group role-scope" role="graphics-object" aria-roledescription="group mark container"><g transform="translate(0,-28.571428571428605)"><path class="background" aria-hidden="true" d="M0,0h90v0h-90Z"/><g><g class="mark-rect role-mark layer_0_marks" role="graphics-object" aria-roledescription="rect mark container"><path aria-label="Parser: ruamel.yaml&#xA;0.19.1; Execution Time (seconds, lower=better): 20.8360419723; parser: ruamel.yaml; Execution Time (s): 20.8360; Slowdown: 72.56" role="graphics-symbol" aria-roledescription="bar" d="M0,28.571428571428605h90v571.4285714285714h-90Z" fill="#e7298a"/></g></g><path class="foreground" aria-hidden="true" d="" display="none"/></g></g></g><path class="foreground" aria-hidden="true" d="" display="none"/></g></g><g class="mark-text role-mark layer_1_marks" role="graphics-object" aria-roledescription="text mark container"><text aria-label="Parser: yamlrocks&#xA;0.6.1; Execution Time (seconds, lower=better): 0.287153625333; parser: yamlrocks; label: 0.2872s (x1.00); Execution Time (s): 0.2872; Slowdown: 1.00" role="graphics-symbol" aria-roledescription="text mark" text-anchor="middle" transform="translate(50,588.1248101667948)" font-family="sans-serif" font-size="9px" font-weight="bold" fill="#666666">0.2872s (x1.00)</text><text aria-label="Parser: yaml_rs&#xA;0.1.6; Execution Time (seconds, lower=better): 0.441084541667; parser: yaml_rs; label: 0.4411s (x1.54); Execution Time (s): 0.4411; Slowdown: 1.54" role="graphics-symbol" aria-roledescription="text mark" text-anchor="middle" transform="translate(150,583.9032538973337)" font-family="sans-serif" font-size="9px" font-weight="bold" fill="#e6ab02">0.4411s (x1.54)</text><text aria-label="Parser: yaml_rs (parse_dt=False)&#xA;0.1.6; Execution Time (seconds, lower=better): 0.446719083; parser: yaml_rs (parse_dt=False); label: 0.4467s (x1.56); Execution Time (s): 0.4467; Slowdown: 1.56" role="graphics-symbol" aria-roledescription="text mark" text-anchor="middle" transform="translate(250,583.7487265687249)" font-family="sans-serif" font-size="9px" font-weight="bold" fill="#a6761d">0.4467s (x1.56)</text><text aria-label="Parser: ryaml&#xA;0.5.1; Execution Time (seconds, lower=better): 0.92553575; parser: ryaml; label: 0.9255s (x3.22); Execution Time (s): 0.9255; Slowdown: 3.22" role="graphics-symbol" aria-roledescription="text mark" text-anchor="middle" transform="translate(350,570.6171767108731)" font-family="sans-serif" font-size="9px" font-weight="bold" fill="#66a61e">0.9255s (x3.22)</text><text aria-label="Parser: PyYAML (CLoader)&#xA;6.0.3; Execution Time (seconds, lower=better): 1.445303014; parser: PyYAML (CLoader); label: 1.4453s (x5.03); Execution Time (s): 1.4453; Slowdown: 5.03" role="graphics-symbol" aria-roledescription="text mark" text-anchor="middle" transform="translate(450,556.3625564937876)" font-family="sans-serif" font-size="9px" font-weight="bold" fill="#d95f02">1.4453s (x5.03)</text><text aria-label="Parser: oyaml&#xA;1.0; Execution Time (seconds, lower=better): 14.3988811247; parser: oyaml; label: 14.3989s (x50.14); Execution Time (s): 14.3989; Slowdown: 50.14" role="graphics-symbol" aria-roledescription="text mark" text-anchor="middle" transform="translate(550,201.1106019961288)" font-family="sans-serif" font-size="9px" font-weight="bold" fill="#7570b3">14.3989s (x50.14)</text><text aria-label="Parser: PyYAML&#xA;6.0.3; Execution Time (seconds, lower=better): 17.403918542; parser: PyYAML; label: 17.4039s (x60.61); Execution Time (s): 17.4039; Slowdown: 60.61" role="graphics-symbol" aria-roledescription="text mark" text-anchor="middle" transform="translate(650,118.69743347034627)" font-family="sans-serif" font-size="9px" font-weight="bold" fill="#1b9e77">17.4039s (x60.61)</text><text aria-label="Parser: ruamel.yaml&#xA;0.19.1; Execution Time (seconds, lower=better): 20.8360419723; parser: ruamel.yaml; label: 20.8360s (x72.56); Execution Time (s): 20.8360; Slowdown: 72.56" role="graphics-symbol" aria-roledescription="text mark" text-anchor="middle" transform="translate(750,24.571428571428605)" font-family="sans-serif" font-size="9px" font-weight="bold" fill="#e7298a">20.8360s (x72.56)</text></g><g class="mark-group role-title"><g transform="translate(400,-31)"><path class="background" aria-hidden="true" d="M0,0h0v0h0Z" pointer-events="none"/><g><g class="mark-text role-title-text" role="graphics-symbol" aria-roledescription="title" aria-label="Title text 'YAML parsers benchmark (loads)'" pointer-events="none"><text text-anchor="middle" transform="translate(0,10)" font-family="sans-serif" font-size="13px" font-weight="bold" fill="#000" opacity="1">YAML parsers benchmark (loads)</text></g><g class="mark-text role-title-subtitle" role="graphics-symbol" aria-roledescription="subtitle" aria-label="Subtitle text 'Python: 3.14.6 (Darwin 25.4.0) | CPU: Apple M1 (Virtual)'" pointer-events="none"><text text-anchor="middle" transform="translate(0,25)" font-family="sans-serif" font-size="12px" fill="#000" opacity="1">Python: 3.14.6 (Darwin 25.4.0) | CPU: Apple M1 (Virtual)</text></g></g><path class="foreground" aria-hidden="true" d="" pointer-events="none" display="none"/></g></g></g><path class="foreground" aria-hidden="true" d="" display="none"/></g></g></g><defs><clipPath id="clip1"><path d="M3.9375949166026203,0L86.06240508339738,0C88.23562287824157,0,90,1.7643771217584352,90,3.9375949166026203L90,7.875189833205241C90,7.875189833205241,90,7.875189833205241,90,7.875189833205241L0,7.875189833205241C0,7.875189833205241,0,7.875189833205241,0,7.875189833205241L0,3.9375949166026203C0,1.7643771217584352,1.7643771217584352,0,3.9375949166026203,0Z"/></clipPath><clipPath id="clip2"><path d="M6,0L84,0C87.311490146964,0,90,2.688509853036,90,6L90,12.096746102666316C90,12.096746102666316,90,12.096746102666316,90,12.096746102666316L0,12.096746102666316C0,12.096746102666316,0,12.096746102666316,0,12.096746102666316L0,6C0,2.688509853036,2.688509853036,0,6,0Z"/></clipPath><clipPath id="clip3"><path d="M6,0L84,0C87.311490146964,0,90,2.688509853036,90,6L90,12.25127343127508C90,12.25127343127508,90,12.25127343127508,90,12.25127343127508L0,12.25127343127508C0,12.25127343127508,0,12.25127343127508,0,12.25127343127508L0,6C0,2.688509853036,2.688509853036,0,6,0Z"/></clipPath><clipPath id="clip4"><path d="M6,0L84,0C87.311490146964,0,90,2.688509853036,90,6L90,25.382823289126918C90,25.382823289126918,90,25.382823289126918,90,25.382823289126918L0,25.382823289126918C0,25.382823289126918,0,25.382823289126918,0,25.382823289126918L0,6C0,2.688509853036,2.688509853036,0,6,0Z"/></clipPath><clipPath id="clip5"><path d="M6,0L84,0C87.311490146964,0,90,2.688509853036,90,6L90,39.637443506212435C90,39.637443506212435,90,39.637443506212435,90,39.637443506212435L0,39.637443506212435C0,39.637443506212435,0,39.637443506212435,0,39.637443506212435L0,6C0,2.688509853036,2.688509853036,0,6,0Z"/></clipPath><clipPath id="clip6"><path d="M6,0L84,0C87.311490146964,0,90,2.688509853036,90,6L90,394.8893980038712C90,394.8893980038712,90,394.8893980038712,90,394.8893980038712L0,394.8893980038712C0,394.8893980038712,0,394.8893980038712,0,394.8893980038712L0,6C0,2.688509853036,2.688509853036,0,6,0Z"/></clipPath><clipPath id="clip7"><path d="M6,0L84,0C87.311490146964,0,90,2.688509853036,90,6L90,477.30256652965375C90,477.30256652965375,90,477.30256652965375,90,477.30256652965375L0,477.30256652965375C0,477.30256652965375,0,477.30256652965375,0,477.30256652965375L0,6C0,2.688509853036,2.688509853036,0,6,0Z"/></clipPath><clipPath id="clip8"><path d="M6,0L84,0C87.311490146964,0,90,2.688509853036,90,6L90,571.4285714285714C90,571.4285714285714,90,571.4285714285714,90,571.4285714285714L0,571.4285714285714C0,571.4285714285714,0,571.4285714285714,0,571.4285714285714L0,6C0,2.688509853036,2.688509853036,0,6,0Z"/></clipPath></defs></svg>