<svg xmlns="http://www.w3.org/2000/svg" xmlns:xlink="http://www.w3.org/1999/xlink" version="1.1" class="marks" width="844" height="687" viewBox="0 0 844 687"><rect width="844" height="687" fill="white"/><g fill="none" stroke-miterlimit="10" transform="translate(39,36)"><g class="mark-group role-frame root" role="graphics-object" aria-roledescription="group mark container"><g transform="translate(0,0)"><path class="background" aria-hidden="true" d="M0.5,0.5h800v600h-800Z" stroke="#ddd"/><g><g class="mark-group role-axis" role="graphics-symbol" aria-roledescription="axis" aria-label="X-axis titled 'Parser' for a discrete scale with 8 values: yaml_rs&#xA;v0.1.4, yamlrocks&#xA;v0.2.1, yaml_rs (parse_dt=False)&#xA;v0.1.4, ryaml&#xA;v0.5.1, PyYAML (CLoader)&#xA;v6.0.3, ending with ruamel.yaml&#xA;v0.19.1"><g transform="translate(0.5,600.5)"><path class="background" aria-hidden="true" d="M0,0h0v0h0Z" pointer-events="none"/><g><g class="mark-rule role-axis-tick" pointer-events="none"><line transform="translate(50,0)" x2="0" y2="5" stroke="#888" stroke-width="1" opacity="1"/><line transform="translate(150,0)" x2="0" y2="5" stroke="#888" stroke-width="1" opacity="1"/><line transform="translate(250,0)" x2="0" y2="5" stroke="#888" stroke-width="1" opacity="1"/><line transform="translate(350,0)" x2="0" y2="5" stroke="#888" stroke-width="1" opacity="1"/><line transform="translate(450,0)" x2="0" y2="5" stroke="#888" stroke-width="1" opacity="1"/><line transform="translate(550,0)" x2="0" y2="5" stroke="#888" stroke-width="1" opacity="1"/><line transform="translate(650,0)" x2="0" y2="5" stroke="#888" stroke-width="1" opacity="1"/><line transform="translate(750,0)" x2="0" y2="5" stroke="#888" stroke-width="1" opacity="1"/></g><g class="mark-text role-axis-label" pointer-events="none"><text text-anchor="middle" transform="translate(49.5,15)" font-family="sans-serif" font-size="10px" fill="#000" opacity="1"><tspan>yaml_rs</tspan><tspan x="0" dy="14">v0.1.4</tspan></text><text text-anchor="middle" transform="translate(149.5,15)" font-family="sans-serif" font-size="10px" fill="#000" opacity="1"><tspan>yamlrocks</tspan><tspan x="0" dy="14">v0.2.1</tspan></text><text text-anchor="middle" transform="translate(249.5,15)" font-family="sans-serif" font-size="10px" fill="#000" opacity="1"><tspan>yaml_rs (parse_dt=False)</tspan><tspan x="0" dy="14">v0.1.4</tspan></text><text text-anchor="middle" transform="translate(349.5,15)" font-family="sans-serif" font-size="10px" fill="#000" opacity="1"><tspan>ryaml</tspan><tspan x="0" dy="14">v0.5.1</tspan></text><text text-anchor="middle" transform="translate(449.5,15)" font-family="sans-serif" font-size="10px" fill="#000" opacity="1"><tspan>PyYAML (CLoader)</tspan><tspan x="0" dy="14">v6.0.3</tspan></text><text text-anchor="middle" transform="translate(549.5,15)" font-family="sans-serif" font-size="10px" fill="#000" opacity="1"><tspan>PyYAML</tspan><tspan x="0" dy="14">v6.0.3</tspan></text><text text-anchor="middle" transform="translate(649.5,15)" font-family="sans-serif" font-size="10px" fill="#000" opacity="1"><tspan>oyaml</tspan><tspan x="0" dy="14">v1.0</tspan></text><text text-anchor="middle" transform="translate(749.5,15)" font-family="sans-serif" font-size="10px" fill="#000" opacity="1"><tspan>ruamel.yaml</tspan><tspan x="0" dy="14">v0.19.1</tspan></text></g><g class="mark-rule role-axis-domain" pointer-events="none"><line transform="translate(0,0)" x2="800" y2="0" stroke="#888" stroke-width="1" opacity="1"/></g><g class="mark-text role-axis-title" pointer-events="none"><text text-anchor="middle" transform="translate(400,44)" font-family="sans-serif" font-size="11px" font-weight="bold" fill="#000" opacity="1">Parser</text></g></g><path class="foreground" aria-hidden="true" d="" pointer-events="none" display="none"/></g></g><g class="mark-group role-axis" role="graphics-symbol" aria-roledescription="axis" aria-label="Y-axis titled 'Execution Time (seconds, lower=better)' for a linear scale with values from 0 to 31"><g transform="translate(0.5,0.5)"><path class="background" aria-hidden="true" d="M0,0h0v0h0Z" pointer-events="none"/><g><g class="mark-rule role-axis-tick" pointer-events="none"><line transform="translate(0,600)" x2="-5" y2="0" stroke="#888" stroke-width="1" opacity="1"/><line transform="translate(0,562)" x2="-5" y2="0" stroke="#888" stroke-width="1" opacity="1"/><line transform="translate(0,524)" x2="-5" y2="0" stroke="#888" stroke-width="1" opacity="1"/><line transform="translate(0,486)" x2="-5" y2="0" stroke="#888" stroke-width="1" opacity="1"/><line transform="translate(0,448)" x2="-5" y2="0" stroke="#888" stroke-width="1" opacity="1"/><line transform="translate(0,409)" x2="-5" y2="0" stroke="#888" stroke-width="1" opacity="1"/><line transform="translate(0,371)" x2="-5" y2="0" stroke="#888" stroke-width="1" opacity="1"/><line transform="translate(0,333)" x2="-5" y2="0" stroke="#888" stroke-width="1" opacity="1"/><line transform="translate(0,295)" x2="-5" y2="0" stroke="#888" stroke-width="1" opacity="1"/><line transform="translate(0,257)" x2="-5" y2="0" stroke="#888" stroke-width="1" opacity="1"/><line transform="translate(0,219)" x2="-5" y2="0" stroke="#888" stroke-width="1" opacity="1"/><line transform="translate(0,181)" x2="-5" y2="0" stroke="#888" stroke-width="1" opacity="1"/><line transform="translate(0,143)" x2="-5" y2="0" stroke="#888" stroke-width="1" opacity="1"/><line transform="translate(0,105)" x2="-5" y2="0" stroke="#888" stroke-width="1" opacity="1"/><line transform="translate(0,67)" x2="-5" y2="0" stroke="#888" stroke-width="1" opacity="1"/><line transform="translate(0,28)" x2="-5" y2="0" stroke="#888" stroke-width="1" opacity="1"/></g><g class="mark-text role-axis-label" pointer-events="none"><text text-anchor="end" transform="translate(-7,603)" font-family="sans-serif" font-size="10px" fill="#000" opacity="1">0</text><text text-anchor="end" transform="translate(-7,564.8999223376188)" font-family="sans-serif" font-size="10px" fill="#000" opacity="1">2</text><text text-anchor="end" transform="translate(-7,526.7998446752376)" font-family="sans-serif" font-size="10px" fill="#000" opacity="1">4</text><text text-anchor="end" transform="translate(-7,488.6997670128564)" font-family="sans-serif" font-size="10px" fill="#000" opacity="1">6</text><text text-anchor="end" transform="translate(-7,450.5996893504752)" font-family="sans-serif" font-size="10px" fill="#000" opacity="1">8</text><text text-anchor="end" transform="translate(-7,412.49961168809403)" font-family="sans-serif" font-size="10px" fill="#000" opacity="1">10</text><text text-anchor="end" transform="translate(-7,374.39953402571285)" font-family="sans-serif" font-size="10px" fill="#000" opacity="1">12</text><text text-anchor="end" transform="translate(-7,336.2994563633317)" font-family="sans-serif" font-size="10px" fill="#000" opacity="1">14</text><text text-anchor="end" transform="translate(-7,298.19937870095043)" font-family="sans-serif" font-size="10px" fill="#000" opacity="1">16</text><text text-anchor="end" transform="translate(-7,260.09930103856925)" font-family="sans-serif" font-size="10px" fill="#000" opacity="1">18</text><text text-anchor="end" transform="translate(-7,221.99922337618807)" font-family="sans-serif" font-size="10px" fill="#000" opacity="1">20</text><text text-anchor="end" transform="translate(-7,183.8991457138069)" font-family="sans-serif" font-size="10px" fill="#000" opacity="1">22</text><text text-anchor="end" transform="translate(-7,145.79906805142568)" font-family="sans-serif" font-size="10px" fill="#000" opacity="1">24</text><text text-anchor="end" transform="translate(-7,107.69899038904448)" font-family="sans-serif" font-size="10px" fill="#000" opacity="1">26</text><text text-anchor="end" transform="translate(-7,69.5989127266633)" font-family="sans-serif" font-size="10px" fill="#000" opacity="1">28</text><text text-anchor="end" transform="translate(-7,31.4988350642821)" font-family="sans-serif" font-size="10px" fill="#000" opacity="1">30</text></g><g class="mark-rule role-axis-domain" pointer-events="none"><line transform="translate(0,600)" x2="0" y2="-600" stroke="#888" stroke-width="1" opacity="1"/></g><g class="mark-text role-axis-title" pointer-events="none"><text text-anchor="middle" transform="translate(-22.123046875,300) rotate(-90) translate(0,-2)" font-family="sans-serif" font-size="11px" font-weight="bold" fill="#000" opacity="1">Execution Time (seconds, lower=better)</text></g></g><path class="foreground" aria-hidden="true" d="" pointer-events="none" display="none"/></g></g><g class="mark-group role-scope" role="graphics-object" aria-roledescription="group mark container"><g transform="translate(5,593.9587455898366)"><path class="background" aria-hidden="true" d="M3.0206272050817233,0L86.97937279491828,0C88.64650233279819,0,90,1.3534976672018013,90,3.0206272050817233L90,6.041254410163447C90,6.041254410163447,90,6.041254410163447,90,6.041254410163447L0,6.041254410163447C0,6.041254410163447,0,6.041254410163447,0,6.041254410163447L0,3.0206272050817233C0,1.3534976672018013,1.3534976672018013,0,3.0206272050817233,0Z"/><g clip-path="url(#clip1)"><g class="mark-group role-scope" role="graphics-object" aria-roledescription="group mark container"><g transform="translate(0,-593.9587455898366)"><path class="background" aria-hidden="true" d="M0,0h90v0h-90Z"/><g><g class="mark-rect role-mark layer_0_marks" role="graphics-object" aria-roledescription="rect mark container"><path aria-label="Parser: yaml_rs&#xA;v0.1.4; Execution Time (seconds, lower=better): 0.317125569333; parser: yaml_rs; Execution Time (s): 0.3171; Slowdown: 1.00" role="graphics-symbol" aria-roledescription="bar" d="M0,593.9587455898366h90v6.041254410163447h-90Z" fill="#e6ab02"/></g></g><path class="foreground" aria-hidden="true" d="" display="none"/></g></g></g><path class="foreground" aria-hidden="true" d="" display="none"/></g><g transform="translate(105,592.8168807060335)"><path class="background" aria-hidden="true" d="M3.591559646983228,0L86.40844035301677,0C88.39067608355319,0,90,1.6093239164468178,90,3.591559646983228L90,7.183119293966456C90,7.183119293966456,90,7.183119293966456,90,7.183119293966456L0,7.183119293966456C0,7.183119293966456,0,7.183119293966456,0,7.183119293966456L0,3.591559646983228C0,1.6093239164468178,1.6093239164468178,0,3.591559646983228,0Z"/><g clip-path="url(#clip2)"><g class="mark-group role-scope" role="graphics-object" aria-roledescription="group mark container"><g transform="translate(0,-592.8168807060335)"><path class="background" aria-hidden="true" d="M0,0h90v0h-90Z"/><g><g class="mark-rect role-mark layer_0_marks" role="graphics-object" aria-roledescription="rect mark container"><path aria-label="Parser: yamlrocks&#xA;v0.2.1; Execution Time (seconds, lower=better): 0.377065861; parser: yamlrocks; Execution Time (s): 0.3771; Slowdown: 1.19" role="graphics-symbol" aria-roledescription="bar" d="M0,592.8168807060335h90v7.183119293966456h-90Z" fill="#666666"/></g></g><path class="foreground" aria-hidden="true" d="" display="none"/></g></g></g><path class="foreground" aria-hidden="true" d="" display="none"/></g><g transform="translate(205,592.2515303223855)"><path class="background" aria-hidden="true" d="M3.87423483880724,0L86.12576516119276,0C88.26401357714856,0,90,1.7359864228514341,90,3.87423483880724L90,7.74846967761448C90,7.74846967761448,90,7.74846967761448,90,7.74846967761448L0,7.74846967761448C0,7.74846967761448,0,7.74846967761448,0,7.74846967761448L0,3.87423483880724C0,1.7359864228514341,1.7359864228514341,0,3.87423483880724,0Z"/><g clip-path="url(#clip3)"><g class="mark-group role-scope" role="graphics-object" aria-roledescription="group mark container"><g transform="translate(0,-592.2515303223855)"><path class="background" aria-hidden="true" d="M0,0h90v0h-90Z"/><g><g class="mark-rect role-mark layer_0_marks" role="graphics-object" aria-roledescription="rect mark container"><path aria-label="Parser: yaml_rs (parse_dt=False)&#xA;v0.1.4; Execution Time (seconds, lower=better): 0.406742986; parser: yaml_rs (parse_dt=False); Execution Time (s): 0.4067; Slowdown: 1.28" role="graphics-symbol" aria-roledescription="bar" d="M0,592.2515303223855h90v7.74846967761448h-90Z" fill="#a6761d"/></g></g><path class="foreground" aria-hidden="true" d="" display="none"/></g></g></g><path class="foreground" aria-hidden="true" d="" display="none"/></g><g transform="translate(305,588.3011848888361)"><path class="background" aria-hidden="true" d="M5.849407555581934,0L84.15059244441807,0C87.37896835873246,0,90,2.621031641267542,90,5.849407555581934L90,11.698815111163867C90,11.698815111163867,90,11.698815111163867,90,11.698815111163867L0,11.698815111163867C0,11.698815111163867,0,11.698815111163867,0,11.698815111163867L0,5.849407555581934C0,2.621031641267542,2.621031641267542,0,5.849407555581934,0Z"/><g clip-path="url(#clip4)"><g class="mark-group role-scope" role="graphics-object" aria-roledescription="group mark container"><g transform="translate(0,-588.3011848888361)"><path class="background" aria-hidden="true" d="M0,0h90v0h-90Z"/><g><g class="mark-rect role-mark layer_0_marks" role="graphics-object" aria-roledescription="rect mark container"><path aria-label="Parser: ryaml&#xA;v0.5.1; Execution Time (seconds, lower=better): 0.614109777667; parser: ryaml; Execution Time (s): 0.6141; Slowdown: 1.94" role="graphics-symbol" aria-roledescription="bar" d="M0,588.3011848888361h90v11.698815111163867h-90Z" fill="#66a61e"/></g></g><path class="foreground" aria-hidden="true" d="" display="none"/></g></g></g><path class="foreground" aria-hidden="true" d="" display="none"/></g><g transform="translate(405,560.9386142489087)"><path class="background" aria-hidden="true" d="M6,0L84,0C87.311490146964,0,90,2.688509853036,90,6L90,39.06138575109128C90,39.06138575109128,90,39.06138575109128,90,39.06138575109128L0,39.06138575109128C0,39.06138575109128,0,39.06138575109128,0,39.06138575109128L0,6C0,2.688509853036,2.688509853036,0,6,0Z"/><g clip-path="url(#clip5)"><g class="mark-group role-scope" role="graphics-object" aria-roledescription="group mark container"><g transform="translate(0,-560.9386142489087)"><path class="background" aria-hidden="true" d="M0,0h90v0h-90Z"/><g><g class="mark-rect role-mark layer_0_marks" role="graphics-object" aria-roledescription="rect mark container"><path aria-label="Parser: PyYAML (CLoader)&#xA;v6.0.3; Execution Time (seconds, lower=better): 2.050462264; parser: PyYAML (CLoader); Execution Time (s): 2.0505; Slowdown: 6.47" role="graphics-symbol" aria-roledescription="bar" d="M0,560.9386142489087h90v39.06138575109128h-90Z" fill="#d95f02"/></g></g><path class="foreground" aria-hidden="true" d="" display="none"/></g></g></g><path class="foreground" aria-hidden="true" d="" display="none"/></g><g transform="translate(505,222.61580789395677)"><path class="background" aria-hidden="true" d="M6,0L84,0C87.311490146964,0,90,2.688509853036,90,6L90,377.3841921060432C90,377.3841921060432,90,377.3841921060432,90,377.3841921060432L0,377.3841921060432C0,377.3841921060432,0,377.3841921060432,0,377.3841921060432L0,6C0,2.688509853036,2.688509853036,0,6,0Z"/><g clip-path="url(#clip6)"><g class="mark-group role-scope" role="graphics-object" aria-roledescription="group mark container"><g transform="translate(0,-222.61580789395677)"><path class="background" aria-hidden="true" d="M0,0h90v0h-90Z"/><g><g class="mark-rect role-mark layer_0_marks" role="graphics-object" aria-roledescription="rect mark container"><path aria-label="Parser: PyYAML&#xA;v6.0.3; Execution Time (seconds, lower=better): 19.8101534307; parser: PyYAML; Execution Time (s): 19.8102; Slowdown: 62.47" role="graphics-symbol" aria-roledescription="bar" d="M0,222.61580789395677h90v377.3841921060432h-90Z" fill="#1b9e77"/></g></g><path class="foreground" aria-hidden="true" d="" display="none"/></g></g></g><path class="foreground" aria-hidden="true" d="" display="none"/></g><g transform="translate(605,182.75956721650036)"><path class="background" aria-hidden="true" d="M6,0L84,0C87.311490146964,0,90,2.688509853036,90,6L90,417.2404327834996C90,417.2404327834996,90,417.2404327834996,90,417.2404327834996L0,417.2404327834996C0,417.2404327834996,0,417.2404327834996,0,417.2404327834996L0,6C0,2.688509853036,2.688509853036,0,6,0Z"/><g clip-path="url(#clip7)"><g class="mark-group role-scope" role="graphics-object" aria-roledescription="group mark container"><g transform="translate(0,-182.75956721650036)"><path class="background" aria-hidden="true" d="M0,0h90v0h-90Z"/><g><g class="mark-rect role-mark layer_0_marks" role="graphics-object" aria-roledescription="rect mark container"><path aria-label="Parser: oyaml&#xA;v1.0; Execution Time (seconds, lower=better): 21.9023402777; parser: oyaml; Execution Time (s): 21.9023; Slowdown: 69.07" role="graphics-symbol" aria-roledescription="bar" d="M0,182.75956721650036h90v417.2404327834996h-90Z" fill="#7570b3"/></g></g><path class="foreground" aria-hidden="true" d="" display="none"/></g></g></g><path class="foreground" aria-hidden="true" d="" display="none"/></g><g transform="translate(705,23.076923076923062)"><path class="background" aria-hidden="true" d="M6,0L84,0C87.311490146964,0,90,2.688509853036,90,6L90,576.9230769230769C90,576.9230769230769,90,576.9230769230769,90,576.9230769230769L0,576.9230769230769C0,576.9230769230769,0,576.9230769230769,0,576.9230769230769L0,6C0,2.688509853036,2.688509853036,0,6,0Z"/><g clip-path="url(#clip8)"><g class="mark-group role-scope" role="graphics-object" aria-roledescription="group mark container"><g transform="translate(0,-23.076923076923062)"><path class="background" aria-hidden="true" d="M0,0h90v0h-90Z"/><g><g class="mark-rect role-mark layer_0_marks" role="graphics-object" aria-roledescription="rect mark container"><path aria-label="Parser: ruamel.yaml&#xA;v0.19.1; Execution Time (seconds, lower=better): 30.2846142223; parser: ruamel.yaml; Execution Time (s): 30.2846; Slowdown: 95.50" role="graphics-symbol" aria-roledescription="bar" d="M0,23.076923076923062h90v576.9230769230769h-90Z" fill="#e7298a"/></g></g><path class="foreground" aria-hidden="true" d="" display="none"/></g></g></g><path class="foreground" aria-hidden="true" d="" display="none"/></g></g><g class="mark-text role-mark layer_1_marks" role="graphics-object" aria-roledescription="text mark container"><text aria-label="Parser: yaml_rs&#xA;v0.1.4; Execution Time (seconds, lower=better): 0.317125569333; parser: yaml_rs; label: 0.3171s (x1.00); Execution Time (s): 0.3171; Slowdown: 1.00" role="graphics-symbol" aria-roledescription="text mark" text-anchor="middle" transform="translate(50,589.9587455898366)" font-family="sans-serif" font-size="9px" font-weight="bold" fill="#e6ab02">0.3171s (x1.00)</text><text aria-label="Parser: yamlrocks&#xA;v0.2.1; Execution Time (seconds, lower=better): 0.377065861; parser: yamlrocks; label: 0.3771s (x1.19); Execution Time (s): 0.3771; Slowdown: 1.19" role="graphics-symbol" aria-roledescription="text mark" text-anchor="middle" transform="translate(150,588.8168807060335)" font-family="sans-serif" font-size="9px" font-weight="bold" fill="#666666">0.3771s (x1.19)</text><text aria-label="Parser: yaml_rs (parse_dt=False)&#xA;v0.1.4; Execution Time (seconds, lower=better): 0.406742986; parser: yaml_rs (parse_dt=False); label: 0.4067s (x1.28); Execution Time (s): 0.4067; Slowdown: 1.28" role="graphics-symbol" aria-roledescription="text mark" text-anchor="middle" transform="translate(250,588.2515303223855)" font-family="sans-serif" font-size="9px" font-weight="bold" fill="#a6761d">0.4067s (x1.28)</text><text aria-label="Parser: ryaml&#xA;v0.5.1; Execution Time (seconds, lower=better): 0.614109777667; parser: ryaml; label: 0.6141s (x1.94); Execution Time (s): 0.6141; Slowdown: 1.94" role="graphics-symbol" aria-roledescription="text mark" text-anchor="middle" transform="translate(350,584.3011848888361)" font-family="sans-serif" font-size="9px" font-weight="bold" fill="#66a61e">0.6141s (x1.94)</text><text aria-label="Parser: PyYAML (CLoader)&#xA;v6.0.3; Execution Time (seconds, lower=better): 2.050462264; parser: PyYAML (CLoader); label: 2.0505s (x6.47); Execution Time (s): 2.0505; Slowdown: 6.47" role="graphics-symbol" aria-roledescription="text mark" text-anchor="middle" transform="translate(450,556.9386142489087)" font-family="sans-serif" font-size="9px" font-weight="bold" fill="#d95f02">2.0505s (x6.47)</text><text aria-label="Parser: PyYAML&#xA;v6.0.3; Execution Time (seconds, lower=better): 19.8101534307; parser: PyYAML; label: 19.8102s (x62.47); Execution Time (s): 19.8102; Slowdown: 62.47" role="graphics-symbol" aria-roledescription="text mark" text-anchor="middle" transform="translate(550,218.61580789395677)" font-family="sans-serif" font-size="9px" font-weight="bold" fill="#1b9e77">19.8102s (x62.47)</text><text aria-label="Parser: oyaml&#xA;v1.0; Execution Time (seconds, lower=better): 21.9023402777; parser: oyaml; label: 21.9023s (x69.07); Execution Time (s): 21.9023; Slowdown: 69.07" role="graphics-symbol" aria-roledescription="text mark" text-anchor="middle" transform="translate(650,178.75956721650036)" font-family="sans-serif" font-size="9px" font-weight="bold" fill="#7570b3">21.9023s (x69.07)</text><text aria-label="Parser: ruamel.yaml&#xA;v0.19.1; Execution Time (seconds, lower=better): 30.2846142223; parser: ruamel.yaml; label: 30.2846s (x95.50); Execution Time (s): 30.2846; Slowdown: 95.50" role="graphics-symbol" aria-roledescription="text mark" text-anchor="middle" transform="translate(750,19.076923076923062)" font-family="sans-serif" font-size="9px" font-weight="bold" fill="#e7298a">30.2846s (x95.50)</text></g><g class="mark-group role-title"><g transform="translate(400,-31)"><path class="background" aria-hidden="true" d="M0,0h0v0h0Z" pointer-events="none"/><g><g class="mark-text role-title-text" role="graphics-symbol" aria-roledescription="title" aria-label="Title text 'YAML parsers benchmark (loads)'" pointer-events="none"><text text-anchor="middle" transform="translate(0,10)" font-family="sans-serif" font-size="13px" font-weight="bold" fill="#000" opacity="1">YAML parsers benchmark (loads)</text></g><g class="mark-text role-title-subtitle" role="graphics-symbol" aria-roledescription="subtitle" aria-label="Subtitle text 'Python: 3.14.6 (Darwin 24.6.0) | CPU: Apple M1 (Virtual)'" pointer-events="none"><text text-anchor="middle" transform="translate(0,25)" font-family="sans-serif" font-size="12px" fill="#000" opacity="1">Python: 3.14.6 (Darwin 24.6.0) | CPU: Apple M1 (Virtual)</text></g></g><path class="foreground" aria-hidden="true" d="" pointer-events="none" display="none"/></g></g></g><path class="foreground" aria-hidden="true" d="" display="none"/></g></g></g><defs><clipPath id="clip1"><path d="M3.0206272050817233,0L86.97937279491828,0C88.64650233279819,0,90,1.3534976672018013,90,3.0206272050817233L90,6.041254410163447C90,6.041254410163447,90,6.041254410163447,90,6.041254410163447L0,6.041254410163447C0,6.041254410163447,0,6.041254410163447,0,6.041254410163447L0,3.0206272050817233C0,1.3534976672018013,1.3534976672018013,0,3.0206272050817233,0Z"/></clipPath><clipPath id="clip2"><path d="M3.591559646983228,0L86.40844035301677,0C88.39067608355319,0,90,1.6093239164468178,90,3.591559646983228L90,7.183119293966456C90,7.183119293966456,90,7.183119293966456,90,7.183119293966456L0,7.183119293966456C0,7.183119293966456,0,7.183119293966456,0,7.183119293966456L0,3.591559646983228C0,1.6093239164468178,1.6093239164468178,0,3.591559646983228,0Z"/></clipPath><clipPath id="clip3"><path d="M3.87423483880724,0L86.12576516119276,0C88.26401357714856,0,90,1.7359864228514341,90,3.87423483880724L90,7.74846967761448C90,7.74846967761448,90,7.74846967761448,90,7.74846967761448L0,7.74846967761448C0,7.74846967761448,0,7.74846967761448,0,7.74846967761448L0,3.87423483880724C0,1.7359864228514341,1.7359864228514341,0,3.87423483880724,0Z"/></clipPath><clipPath id="clip4"><path d="M5.849407555581934,0L84.15059244441807,0C87.37896835873246,0,90,2.621031641267542,90,5.849407555581934L90,11.698815111163867C90,11.698815111163867,90,11.698815111163867,90,11.698815111163867L0,11.698815111163867C0,11.698815111163867,0,11.698815111163867,0,11.698815111163867L0,5.849407555581934C0,2.621031641267542,2.621031641267542,0,5.849407555581934,0Z"/></clipPath><clipPath id="clip5"><path d="M6,0L84,0C87.311490146964,0,90,2.688509853036,90,6L90,39.06138575109128C90,39.06138575109128,90,39.06138575109128,90,39.06138575109128L0,39.06138575109128C0,39.06138575109128,0,39.06138575109128,0,39.06138575109128L0,6C0,2.688509853036,2.688509853036,0,6,0Z"/></clipPath><clipPath id="clip6"><path d="M6,0L84,0C87.311490146964,0,90,2.688509853036,90,6L90,377.3841921060432C90,377.3841921060432,90,377.3841921060432,90,377.3841921060432L0,377.3841921060432C0,377.3841921060432,0,377.3841921060432,0,377.3841921060432L0,6C0,2.688509853036,2.688509853036,0,6,0Z"/></clipPath><clipPath id="clip7"><path d="M6,0L84,0C87.311490146964,0,90,2.688509853036,90,6L90,417.2404327834996C90,417.2404327834996,90,417.2404327834996,90,417.2404327834996L0,417.2404327834996C0,417.2404327834996,0,417.2404327834996,0,417.2404327834996L0,6C0,2.688509853036,2.688509853036,0,6,0Z"/></clipPath><clipPath id="clip8"><path d="M6,0L84,0C87.311490146964,0,90,2.688509853036,90,6L90,576.9230769230769C90,576.9230769230769,90,576.9230769230769,90,576.9230769230769L0,576.9230769230769C0,576.9230769230769,0,576.9230769230769,0,576.9230769230769L0,6C0,2.688509853036,2.688509853036,0,6,0Z"/></clipPath></defs></svg>