<svg xmlns="http://www.w3.org/2000/svg" xmlns:xlink="http://www.w3.org/1999/xlink" version="1.1" class="marks" width="844" height="687" viewBox="0 0 844 687"><rect width="844" height="687" fill="white"/><g fill="none" stroke-miterlimit="10" transform="translate(39,36)"><g class="mark-group role-frame root" role="graphics-object" aria-roledescription="group mark container"><g transform="translate(0,0)"><path class="background" aria-hidden="true" d="M0.5,0.5h800v600h-800Z" stroke="#ddd"/><g><g class="mark-group role-axis" role="graphics-symbol" aria-roledescription="axis" aria-label="X-axis titled 'Parser' for a discrete scale with 8 values: yaml_rs&#xA;v0.1.4, yamlrocks&#xA;v0.2.1, yaml_rs (parse_dt=False)&#xA;v0.1.4, ryaml&#xA;v0.5.1, PyYAML (CLoader)&#xA;v6.0.3, ending with ruamel.yaml&#xA;v0.19.1"><g transform="translate(0.5,600.5)"><path class="background" aria-hidden="true" d="M0,0h0v0h0Z" pointer-events="none"/><g><g class="mark-rule role-axis-tick" pointer-events="none"><line transform="translate(50,0)" x2="0" y2="5" stroke="#888" stroke-width="1" opacity="1"/><line transform="translate(150,0)" x2="0" y2="5" stroke="#888" stroke-width="1" opacity="1"/><line transform="translate(250,0)" x2="0" y2="5" stroke="#888" stroke-width="1" opacity="1"/><line transform="translate(350,0)" x2="0" y2="5" stroke="#888" stroke-width="1" opacity="1"/><line transform="translate(450,0)" x2="0" y2="5" stroke="#888" stroke-width="1" opacity="1"/><line transform="translate(550,0)" x2="0" y2="5" stroke="#888" stroke-width="1" opacity="1"/><line transform="translate(650,0)" x2="0" y2="5" stroke="#888" stroke-width="1" opacity="1"/><line transform="translate(750,0)" x2="0" y2="5" stroke="#888" stroke-width="1" opacity="1"/></g><g class="mark-text role-axis-label" pointer-events="none"><text text-anchor="middle" transform="translate(49.5,15)" font-family="sans-serif" font-size="10px" fill="#000" opacity="1"><tspan>yaml_rs</tspan><tspan x="0" dy="14">v0.1.4</tspan></text><text text-anchor="middle" transform="translate(149.5,15)" font-family="sans-serif" font-size="10px" fill="#000" opacity="1"><tspan>yamlrocks</tspan><tspan x="0" dy="14">v0.2.1</tspan></text><text text-anchor="middle" transform="translate(249.5,15)" font-family="sans-serif" font-size="10px" fill="#000" opacity="1"><tspan>yaml_rs (parse_dt=False)</tspan><tspan x="0" dy="14">v0.1.4</tspan></text><text text-anchor="middle" transform="translate(349.5,15)" font-family="sans-serif" font-size="10px" fill="#000" opacity="1"><tspan>ryaml</tspan><tspan x="0" dy="14">v0.5.1</tspan></text><text text-anchor="middle" transform="translate(449.5,15)" font-family="sans-serif" font-size="10px" fill="#000" opacity="1"><tspan>PyYAML (CLoader)</tspan><tspan x="0" dy="14">v6.0.3</tspan></text><text text-anchor="middle" transform="translate(549.5,15)" font-family="sans-serif" font-size="10px" fill="#000" opacity="1"><tspan>oyaml</tspan><tspan x="0" dy="14">v1.0</tspan></text><text text-anchor="middle" transform="translate(649.5,15)" font-family="sans-serif" font-size="10px" fill="#000" opacity="1"><tspan>PyYAML</tspan><tspan x="0" dy="14">v6.0.3</tspan></text><text text-anchor="middle" transform="translate(749.5,15)" font-family="sans-serif" font-size="10px" fill="#000" opacity="1"><tspan>ruamel.yaml</tspan><tspan x="0" dy="14">v0.19.1</tspan></text></g><g class="mark-rule role-axis-domain" pointer-events="none"><line transform="translate(0,0)" x2="800" y2="0" stroke="#888" stroke-width="1" opacity="1"/></g><g class="mark-text role-axis-title" pointer-events="none"><text text-anchor="middle" transform="translate(400,44)" font-family="sans-serif" font-size="11px" font-weight="bold" fill="#000" opacity="1">Parser</text></g></g><path class="foreground" aria-hidden="true" d="" pointer-events="none" display="none"/></g></g><g class="mark-group role-axis" role="graphics-symbol" aria-roledescription="axis" aria-label="Y-axis titled 'Execution Time (seconds, lower=better)' for a linear scale with values from 0 to 18"><g transform="translate(0.5,0.5)"><path class="background" aria-hidden="true" d="M0,0h0v0h0Z" pointer-events="none"/><g><g class="mark-rule role-axis-tick" pointer-events="none"><line transform="translate(0,600)" x2="-5" y2="0" stroke="#888" stroke-width="1" opacity="1"/><line transform="translate(0,566)" x2="-5" y2="0" stroke="#888" stroke-width="1" opacity="1"/><line transform="translate(0,533)" x2="-5" y2="0" stroke="#888" stroke-width="1" opacity="1"/><line transform="translate(0,499)" x2="-5" y2="0" stroke="#888" stroke-width="1" opacity="1"/><line transform="translate(0,466)" x2="-5" y2="0" stroke="#888" stroke-width="1" opacity="1"/><line transform="translate(0,432)" x2="-5" y2="0" stroke="#888" stroke-width="1" opacity="1"/><line transform="translate(0,398)" x2="-5" y2="0" stroke="#888" stroke-width="1" opacity="1"/><line transform="translate(0,365)" x2="-5" y2="0" stroke="#888" stroke-width="1" opacity="1"/><line transform="translate(0,331)" x2="-5" y2="0" stroke="#888" stroke-width="1" opacity="1"/><line transform="translate(0,297)" x2="-5" y2="0" stroke="#888" stroke-width="1" opacity="1"/><line transform="translate(0,264)" x2="-5" y2="0" stroke="#888" stroke-width="1" opacity="1"/><line transform="translate(0,230)" x2="-5" y2="0" stroke="#888" stroke-width="1" opacity="1"/><line transform="translate(0,197)" x2="-5" y2="0" stroke="#888" stroke-width="1" opacity="1"/><line transform="translate(0,163)" x2="-5" y2="0" stroke="#888" stroke-width="1" opacity="1"/><line transform="translate(0,129)" x2="-5" y2="0" stroke="#888" stroke-width="1" opacity="1"/><line transform="translate(0,96)" x2="-5" y2="0" stroke="#888" stroke-width="1" opacity="1"/><line transform="translate(0,62)" x2="-5" y2="0" stroke="#888" stroke-width="1" opacity="1"/><line transform="translate(0,29)" x2="-5" y2="0" stroke="#888" stroke-width="1" opacity="1"/></g><g class="mark-text role-axis-label" pointer-events="none"><text text-anchor="end" transform="translate(-7,603)" font-family="sans-serif" font-size="10px" fill="#000" opacity="1">0</text><text text-anchor="end" transform="translate(-7,569.384464117786)" font-family="sans-serif" font-size="10px" fill="#000" opacity="1">1</text><text text-anchor="end" transform="translate(-7,535.7689282355722)" font-family="sans-serif" font-size="10px" fill="#000" opacity="1">2</text><text text-anchor="end" transform="translate(-7,502.15339235335836)" font-family="sans-serif" font-size="10px" fill="#000" opacity="1">3</text><text text-anchor="end" transform="translate(-7,468.5378564711444)" font-family="sans-serif" font-size="10px" fill="#000" opacity="1">4</text><text text-anchor="end" transform="translate(-7,434.92232058893046)" font-family="sans-serif" font-size="10px" fill="#000" opacity="1">5</text><text text-anchor="end" transform="translate(-7,401.3067847067166)" font-family="sans-serif" font-size="10px" fill="#000" opacity="1">6</text><text text-anchor="end" transform="translate(-7,367.69124882450274)" font-family="sans-serif" font-size="10px" fill="#000" opacity="1">7</text><text text-anchor="end" transform="translate(-7,334.0757129422888)" font-family="sans-serif" font-size="10px" fill="#000" opacity="1">8</text><text text-anchor="end" transform="translate(-7,300.46017706007495)" font-family="sans-serif" font-size="10px" fill="#000" opacity="1">9</text><text text-anchor="end" transform="translate(-7,266.84464117786104)" font-family="sans-serif" font-size="10px" fill="#000" opacity="1">10</text><text text-anchor="end" transform="translate(-7,233.22910529564714)" font-family="sans-serif" font-size="10px" fill="#000" opacity="1">11</text><text text-anchor="end" transform="translate(-7,199.61356941343323)" font-family="sans-serif" font-size="10px" fill="#000" opacity="1">12</text><text text-anchor="end" transform="translate(-7,165.99803353121936)" font-family="sans-serif" font-size="10px" fill="#000" opacity="1">13</text><text text-anchor="end" transform="translate(-7,132.38249764900542)" font-family="sans-serif" font-size="10px" fill="#000" opacity="1">14</text><text text-anchor="end" transform="translate(-7,98.76696176679155)" font-family="sans-serif" font-size="10px" fill="#000" opacity="1">15</text><text text-anchor="end" transform="translate(-7,65.15142588457763)" font-family="sans-serif" font-size="10px" fill="#000" opacity="1">16</text><text text-anchor="end" transform="translate(-7,31.53589000236376)" font-family="sans-serif" font-size="10px" fill="#000" opacity="1">17</text></g><g class="mark-rule role-axis-domain" pointer-events="none"><line transform="translate(0,600)" x2="0" y2="-600" stroke="#888" stroke-width="1" opacity="1"/></g><g class="mark-text role-axis-title" pointer-events="none"><text text-anchor="middle" transform="translate(-22.123046875,300) rotate(-90) translate(0,-2)" font-family="sans-serif" font-size="11px" font-weight="bold" fill="#000" opacity="1">Execution Time (seconds, lower=better)</text></g></g><path class="foreground" aria-hidden="true" d="" pointer-events="none" display="none"/></g></g><g class="mark-group role-scope" role="graphics-object" aria-roledescription="group mark container"><g transform="translate(5,591.5136958786402)"><path class="background" aria-hidden="true" d="M4.243152060679904,0L85.7568479393201,0C88.09870731282201,0,90,1.9012926871779883,90,4.243152060679904L90,8.486304121359808C90,8.486304121359808,90,8.486304121359808,90,8.486304121359808L0,8.486304121359808C0,8.486304121359808,0,8.486304121359808,0,8.486304121359808L0,4.243152060679904C0,1.9012926871779883,1.9012926871779883,0,4.243152060679904,0Z"/><g clip-path="url(#clip1)"><g class="mark-group role-scope" role="graphics-object" aria-roledescription="group mark container"><g transform="translate(0,-591.5136958786402)"><path class="background" aria-hidden="true" d="M0,0h90v0h-90Z"/><g><g class="mark-rect role-mark layer_0_marks" role="graphics-object" aria-roledescription="rect mark container"><path aria-label="Parser: yaml_rs&#xA;v0.1.4; Execution Time (seconds, lower=better): 0.252451847; parser: yaml_rs; Execution Time (s): 0.2525; Slowdown: 1.00" role="graphics-symbol" aria-roledescription="bar" d="M0,591.5136958786402h90v8.486304121359808h-90Z" fill="#e6ab02"/></g></g><path class="foreground" aria-hidden="true" d="" display="none"/></g></g></g><path class="foreground" aria-hidden="true" d="" display="none"/></g><g transform="translate(105,591.4401945681988)"><path class="background" aria-hidden="true" d="M4.279902715900619,0L85.72009728409938,0C88.08223989637762,0,90,1.9177601036223917,90,4.279902715900619L90,8.559805431801237C90,8.559805431801237,90,8.559805431801237,90,8.559805431801237L0,8.559805431801237C0,8.559805431801237,0,8.559805431801237,0,8.559805431801237L0,4.279902715900619C0,1.9177601036223917,1.9177601036223917,0,4.279902715900619,0Z"/><g clip-path="url(#clip2)"><g class="mark-group role-scope" role="graphics-object" aria-roledescription="group mark container"><g transform="translate(0,-591.4401945681988)"><path class="background" aria-hidden="true" d="M0,0h90v0h-90Z"/><g><g class="mark-rect role-mark layer_0_marks" role="graphics-object" aria-roledescription="rect mark container"><path aria-label="Parser: yamlrocks&#xA;v0.2.1; Execution Time (seconds, lower=better): 0.254638375; parser: yamlrocks; Execution Time (s): 0.2546; Slowdown: 1.01" role="graphics-symbol" aria-roledescription="bar" d="M0,591.4401945681988h90v8.559805431801237h-90Z" fill="#666666"/></g></g><path class="foreground" aria-hidden="true" d="" display="none"/></g></g></g><path class="foreground" aria-hidden="true" d="" display="none"/></g><g transform="translate(205,590.9135044919367)"><path class="background" aria-hidden="true" d="M4.543247754031654,0L85.45675224596835,0C87.96423894141704,0,90,2.0357610585829633,90,4.543247754031654L90,9.086495508063308C90,9.086495508063308,90,9.086495508063308,90,9.086495508063308L0,9.086495508063308C0,9.086495508063308,0,9.086495508063308,0,9.086495508063308L0,4.543247754031654C0,2.0357610585829633,2.0357610585829633,0,4.543247754031654,0Z"/><g clip-path="url(#clip3)"><g class="mark-group role-scope" role="graphics-object" aria-roledescription="group mark container"><g transform="translate(0,-590.9135044919367)"><path class="background" aria-hidden="true" d="M0,0h90v0h-90Z"/><g><g class="mark-rect role-mark layer_0_marks" role="graphics-object" aria-roledescription="rect mark container"><path aria-label="Parser: yaml_rs (parse_dt=False)&#xA;v0.1.4; Execution Time (seconds, lower=better): 0.270306430333; parser: yaml_rs (parse_dt=False); Execution Time (s): 0.2703; Slowdown: 1.07" role="graphics-symbol" aria-roledescription="bar" d="M0,590.9135044919367h90v9.086495508063308h-90Z" fill="#a6761d"/></g></g><path class="foreground" aria-hidden="true" d="" display="none"/></g></g></g><path class="foreground" aria-hidden="true" d="" display="none"/></g><g transform="translate(305,583.7041509084296)"><path class="background" aria-hidden="true" d="M6,0L84,0C87.311490146964,0,90,2.688509853036,90,6L90,16.295849091570403C90,16.295849091570403,90,16.295849091570403,90,16.295849091570403L0,16.295849091570403C0,16.295849091570403,0,16.295849091570403,0,16.295849091570403L0,6C0,2.688509853036,2.688509853036,0,6,0Z"/><g clip-path="url(#clip4)"><g class="mark-group role-scope" role="graphics-object" aria-roledescription="group mark container"><g transform="translate(0,-583.7041509084296)"><path class="background" aria-hidden="true" d="M0,0h90v0h-90Z"/><g><g class="mark-rect role-mark layer_0_marks" role="graphics-object" aria-roledescription="rect mark container"><path aria-label="Parser: ryaml&#xA;v0.5.1; Execution Time (seconds, lower=better): 0.484771361333; parser: ryaml; Execution Time (s): 0.4848; Slowdown: 1.92" role="graphics-symbol" aria-roledescription="bar" d="M0,583.7041509084296h90v16.295849091570403h-90Z" fill="#66a61e"/></g></g><path class="foreground" aria-hidden="true" d="" display="none"/></g></g></g><path class="foreground" aria-hidden="true" d="" display="none"/></g><g transform="translate(405,558.3045246738506)"><path class="background" aria-hidden="true" d="M6,0L84,0C87.311490146964,0,90,2.688509853036,90,6L90,41.69547532614945C90,41.69547532614945,90,41.69547532614945,90,41.69547532614945L0,41.69547532614945C0,41.69547532614945,0,41.69547532614945,0,41.69547532614945L0,6C0,2.688509853036,2.688509853036,0,6,0Z"/><g clip-path="url(#clip5)"><g class="mark-group role-scope" role="graphics-object" aria-roledescription="group mark container"><g transform="translate(0,-558.3045246738506)"><path class="background" aria-hidden="true" d="M0,0h90v0h-90Z"/><g><g class="mark-rect role-mark layer_0_marks" role="graphics-object" aria-roledescription="rect mark container"><path aria-label="Parser: PyYAML (CLoader)&#xA;v6.0.3; Execution Time (seconds, lower=better): 1.24036324967; parser: PyYAML (CLoader); Execution Time (s): 1.2404; Slowdown: 4.91" role="graphics-symbol" aria-roledescription="bar" d="M0,558.3045246738506h90v41.69547532614945h-90Z" fill="#d95f02"/></g></g><path class="foreground" aria-hidden="true" d="" display="none"/></g></g></g><path class="foreground" aria-hidden="true" d="" display="none"/></g><g transform="translate(505,162.19016582324778)"><path class="background" aria-hidden="true" d="M6,0L84,0C87.311490146964,0,90,2.688509853036,90,6L90,437.80983417675225C90,437.80983417675225,90,437.80983417675225,90,437.80983417675225L0,437.80983417675225C0,437.80983417675225,0,437.80983417675225,0,437.80983417675225L0,6C0,2.688509853036,2.688509853036,0,6,0Z"/><g clip-path="url(#clip6)"><g class="mark-group role-scope" role="graphics-object" aria-roledescription="group mark container"><g transform="translate(0,-162.19016582324778)"><path class="background" aria-hidden="true" d="M0,0h90v0h-90Z"/><g><g class="mark-rect role-mark layer_0_marks" role="graphics-object" aria-roledescription="rect mark container"><path aria-label="Parser: oyaml&#xA;v1.0; Execution Time (seconds, lower=better): 13.0240325697; parser: oyaml; Execution Time (s): 13.0240; Slowdown: 51.59" role="graphics-symbol" aria-roledescription="bar" d="M0,162.19016582324778h90v437.80983417675225h-90Z" fill="#7570b3"/></g></g><path class="foreground" aria-hidden="true" d="" display="none"/></g></g></g><path class="foreground" aria-hidden="true" d="" display="none"/></g><g transform="translate(605,141.39747779651955)"><path class="background" aria-hidden="true" d="M6,0L84,0C87.311490146964,0,90,2.688509853036,90,6L90,458.6025222034805C90,458.6025222034805,90,458.6025222034805,90,458.6025222034805L0,458.6025222034805C0,458.6025222034805,0,458.6025222034805,0,458.6025222034805L0,6C0,2.688509853036,2.688509853036,0,6,0Z"/><g clip-path="url(#clip7)"><g class="mark-group role-scope" role="graphics-object" aria-roledescription="group mark container"><g transform="translate(0,-141.39747779651955)"><path class="background" aria-hidden="true" d="M0,0h90v0h-90Z"/><g><g class="mark-rect role-mark layer_0_marks" role="graphics-object" aria-roledescription="rect mark container"><path aria-label="Parser: PyYAML&#xA;v6.0.3; Execution Time (seconds, lower=better): 13.6425765697; parser: PyYAML; Execution Time (s): 13.6426; Slowdown: 54.04" role="graphics-symbol" aria-roledescription="bar" d="M0,141.39747779651955h90v458.6025222034805h-90Z" fill="#1b9e77"/></g></g><path class="foreground" aria-hidden="true" d="" display="none"/></g></g></g><path class="foreground" aria-hidden="true" d="" display="none"/></g><g transform="translate(705,23.076923076923062)"><path class="background" aria-hidden="true" d="M6,0L84,0C87.311490146964,0,90,2.688509853036,90,6L90,576.9230769230769C90,576.9230769230769,90,576.9230769230769,90,576.9230769230769L0,576.9230769230769C0,576.9230769230769,0,576.9230769230769,0,576.9230769230769L0,6C0,2.688509853036,2.688509853036,0,6,0Z"/><g clip-path="url(#clip8)"><g class="mark-group role-scope" role="graphics-object" aria-roledescription="group mark container"><g transform="translate(0,-23.076923076923062)"><path class="background" aria-hidden="true" d="M0,0h90v0h-90Z"/><g><g class="mark-rect role-mark layer_0_marks" role="graphics-object" aria-roledescription="rect mark container"><path aria-label="Parser: ruamel.yaml&#xA;v0.19.1; Execution Time (seconds, lower=better): 17.1623941663; parser: ruamel.yaml; Execution Time (s): 17.1624; Slowdown: 67.98" role="graphics-symbol" aria-roledescription="bar" d="M0,23.076923076923062h90v576.9230769230769h-90Z" fill="#e7298a"/></g></g><path class="foreground" aria-hidden="true" d="" display="none"/></g></g></g><path class="foreground" aria-hidden="true" d="" display="none"/></g></g><g class="mark-text role-mark layer_1_marks" role="graphics-object" aria-roledescription="text mark container"><text aria-label="Parser: yaml_rs&#xA;v0.1.4; Execution Time (seconds, lower=better): 0.252451847; parser: yaml_rs; label: 0.2525s (x1.00); Execution Time (s): 0.2525; Slowdown: 1.00" role="graphics-symbol" aria-roledescription="text mark" text-anchor="middle" transform="translate(50,587.5136958786402)" font-family="sans-serif" font-size="9px" font-weight="bold" fill="#e6ab02">0.2525s (x1.00)</text><text aria-label="Parser: yamlrocks&#xA;v0.2.1; Execution Time (seconds, lower=better): 0.254638375; parser: yamlrocks; label: 0.2546s (x1.01); Execution Time (s): 0.2546; Slowdown: 1.01" role="graphics-symbol" aria-roledescription="text mark" text-anchor="middle" transform="translate(150,587.4401945681988)" font-family="sans-serif" font-size="9px" font-weight="bold" fill="#666666">0.2546s (x1.01)</text><text aria-label="Parser: yaml_rs (parse_dt=False)&#xA;v0.1.4; Execution Time (seconds, lower=better): 0.270306430333; parser: yaml_rs (parse_dt=False); label: 0.2703s (x1.07); Execution Time (s): 0.2703; Slowdown: 1.07" role="graphics-symbol" aria-roledescription="text mark" text-anchor="middle" transform="translate(250,586.9135044919367)" font-family="sans-serif" font-size="9px" font-weight="bold" fill="#a6761d">0.2703s (x1.07)</text><text aria-label="Parser: ryaml&#xA;v0.5.1; Execution Time (seconds, lower=better): 0.484771361333; parser: ryaml; label: 0.4848s (x1.92); Execution Time (s): 0.4848; Slowdown: 1.92" role="graphics-symbol" aria-roledescription="text mark" text-anchor="middle" transform="translate(350,579.7041509084296)" font-family="sans-serif" font-size="9px" font-weight="bold" fill="#66a61e">0.4848s (x1.92)</text><text aria-label="Parser: PyYAML (CLoader)&#xA;v6.0.3; Execution Time (seconds, lower=better): 1.24036324967; parser: PyYAML (CLoader); label: 1.2404s (x4.91); Execution Time (s): 1.2404; Slowdown: 4.91" role="graphics-symbol" aria-roledescription="text mark" text-anchor="middle" transform="translate(450,554.3045246738506)" font-family="sans-serif" font-size="9px" font-weight="bold" fill="#d95f02">1.2404s (x4.91)</text><text aria-label="Parser: oyaml&#xA;v1.0; Execution Time (seconds, lower=better): 13.0240325697; parser: oyaml; label: 13.0240s (x51.59); Execution Time (s): 13.0240; Slowdown: 51.59" role="graphics-symbol" aria-roledescription="text mark" text-anchor="middle" transform="translate(550,158.19016582324778)" font-family="sans-serif" font-size="9px" font-weight="bold" fill="#7570b3">13.0240s (x51.59)</text><text aria-label="Parser: PyYAML&#xA;v6.0.3; Execution Time (seconds, lower=better): 13.6425765697; parser: PyYAML; label: 13.6426s (x54.04); Execution Time (s): 13.6426; Slowdown: 54.04" role="graphics-symbol" aria-roledescription="text mark" text-anchor="middle" transform="translate(650,137.39747779651955)" font-family="sans-serif" font-size="9px" font-weight="bold" fill="#1b9e77">13.6426s (x54.04)</text><text aria-label="Parser: ruamel.yaml&#xA;v0.19.1; Execution Time (seconds, lower=better): 17.1623941663; parser: ruamel.yaml; label: 17.1624s (x67.98); Execution Time (s): 17.1624; Slowdown: 67.98" role="graphics-symbol" aria-roledescription="text mark" text-anchor="middle" transform="translate(750,19.076923076923062)" font-family="sans-serif" font-size="9px" font-weight="bold" fill="#e7298a">17.1624s (x67.98)</text></g><g class="mark-group role-title"><g transform="translate(400,-31)"><path class="background" aria-hidden="true" d="M0,0h0v0h0Z" pointer-events="none"/><g><g class="mark-text role-title-text" role="graphics-symbol" aria-roledescription="title" aria-label="Title text 'YAML parsers benchmark (loads)'" pointer-events="none"><text text-anchor="middle" transform="translate(0,10)" font-family="sans-serif" font-size="13px" font-weight="bold" fill="#000" opacity="1">YAML parsers benchmark (loads)</text></g><g class="mark-text role-title-subtitle" role="graphics-symbol" aria-roledescription="subtitle" aria-label="Subtitle text 'Python: 3.14.5 (Darwin 24.6.0) | CPU: Apple M1 (Virtual)'" pointer-events="none"><text text-anchor="middle" transform="translate(0,25)" font-family="sans-serif" font-size="12px" fill="#000" opacity="1">Python: 3.14.5 (Darwin 24.6.0) | CPU: Apple M1 (Virtual)</text></g></g><path class="foreground" aria-hidden="true" d="" pointer-events="none" display="none"/></g></g></g><path class="foreground" aria-hidden="true" d="" display="none"/></g></g></g><defs><clipPath id="clip1"><path d="M4.243152060679904,0L85.7568479393201,0C88.09870731282201,0,90,1.9012926871779883,90,4.243152060679904L90,8.486304121359808C90,8.486304121359808,90,8.486304121359808,90,8.486304121359808L0,8.486304121359808C0,8.486304121359808,0,8.486304121359808,0,8.486304121359808L0,4.243152060679904C0,1.9012926871779883,1.9012926871779883,0,4.243152060679904,0Z"/></clipPath><clipPath id="clip2"><path d="M4.279902715900619,0L85.72009728409938,0C88.08223989637762,0,90,1.9177601036223917,90,4.279902715900619L90,8.559805431801237C90,8.559805431801237,90,8.559805431801237,90,8.559805431801237L0,8.559805431801237C0,8.559805431801237,0,8.559805431801237,0,8.559805431801237L0,4.279902715900619C0,1.9177601036223917,1.9177601036223917,0,4.279902715900619,0Z"/></clipPath><clipPath id="clip3"><path d="M4.543247754031654,0L85.45675224596835,0C87.96423894141704,0,90,2.0357610585829633,90,4.543247754031654L90,9.086495508063308C90,9.086495508063308,90,9.086495508063308,90,9.086495508063308L0,9.086495508063308C0,9.086495508063308,0,9.086495508063308,0,9.086495508063308L0,4.543247754031654C0,2.0357610585829633,2.0357610585829633,0,4.543247754031654,0Z"/></clipPath><clipPath id="clip4"><path d="M6,0L84,0C87.311490146964,0,90,2.688509853036,90,6L90,16.295849091570403C90,16.295849091570403,90,16.295849091570403,90,16.295849091570403L0,16.295849091570403C0,16.295849091570403,0,16.295849091570403,0,16.295849091570403L0,6C0,2.688509853036,2.688509853036,0,6,0Z"/></clipPath><clipPath id="clip5"><path d="M6,0L84,0C87.311490146964,0,90,2.688509853036,90,6L90,41.69547532614945C90,41.69547532614945,90,41.69547532614945,90,41.69547532614945L0,41.69547532614945C0,41.69547532614945,0,41.69547532614945,0,41.69547532614945L0,6C0,2.688509853036,2.688509853036,0,6,0Z"/></clipPath><clipPath id="clip6"><path d="M6,0L84,0C87.311490146964,0,90,2.688509853036,90,6L90,437.80983417675225C90,437.80983417675225,90,437.80983417675225,90,437.80983417675225L0,437.80983417675225C0,437.80983417675225,0,437.80983417675225,0,437.80983417675225L0,6C0,2.688509853036,2.688509853036,0,6,0Z"/></clipPath><clipPath id="clip7"><path d="M6,0L84,0C87.311490146964,0,90,2.688509853036,90,6L90,458.6025222034805C90,458.6025222034805,90,458.6025222034805,90,458.6025222034805L0,458.6025222034805C0,458.6025222034805,0,458.6025222034805,0,458.6025222034805L0,6C0,2.688509853036,2.688509853036,0,6,0Z"/></clipPath><clipPath id="clip8"><path d="M6,0L84,0C87.311490146964,0,90,2.688509853036,90,6L90,576.9230769230769C90,576.9230769230769,90,576.9230769230769,90,576.9230769230769L0,576.9230769230769C0,576.9230769230769,0,576.9230769230769,0,576.9230769230769L0,6C0,2.688509853036,2.688509853036,0,6,0Z"/></clipPath></defs></svg>