<svg xmlns="http://www.w3.org/2000/svg" xmlns:xlink="http://www.w3.org/1999/xlink" version="1.1" class="marks" width="844" height="687" viewBox="0 0 844 687"><rect width="844" height="687" fill="white"/><g fill="none" stroke-miterlimit="10" transform="translate(39,36)"><g class="mark-group role-frame root" role="graphics-object" aria-roledescription="group mark container"><g transform="translate(0,0)"><path class="background" aria-hidden="true" d="M0.5,0.5h800v600h-800Z" stroke="#ddd"/><g><g class="mark-group role-axis" role="graphics-symbol" aria-roledescription="axis" aria-label="X-axis titled 'Parser' for a discrete scale with 8 values: yamlrocks&#xA;0.6.1, yaml_rs (parse_dt=False)&#xA;0.1.6, yaml_rs&#xA;0.1.6, ryaml&#xA;0.5.1, PyYAML (CLoader)&#xA;6.0.3, ending with ruamel.yaml&#xA;0.19.1"><g transform="translate(0.5,600.5)"><path class="background" aria-hidden="true" d="M0,0h0v0h0Z" pointer-events="none"/><g><g class="mark-rule role-axis-tick" pointer-events="none"><line transform="translate(50,0)" x2="0" y2="5" stroke="#888" stroke-width="1" opacity="1"/><line transform="translate(150,0)" x2="0" y2="5" stroke="#888" stroke-width="1" opacity="1"/><line transform="translate(250,0)" x2="0" y2="5" stroke="#888" stroke-width="1" opacity="1"/><line transform="translate(350,0)" x2="0" y2="5" stroke="#888" stroke-width="1" opacity="1"/><line transform="translate(450,0)" x2="0" y2="5" stroke="#888" stroke-width="1" opacity="1"/><line transform="translate(550,0)" x2="0" y2="5" stroke="#888" stroke-width="1" opacity="1"/><line transform="translate(650,0)" x2="0" y2="5" stroke="#888" stroke-width="1" opacity="1"/><line transform="translate(750,0)" x2="0" y2="5" stroke="#888" stroke-width="1" opacity="1"/></g><g class="mark-text role-axis-label" pointer-events="none"><text text-anchor="middle" transform="translate(49.5,15)" font-family="sans-serif" font-size="10px" fill="#000" opacity="1"><tspan>yamlrocks</tspan><tspan x="0" dy="14">0.6.1</tspan></text><text text-anchor="middle" transform="translate(149.5,15)" font-family="sans-serif" font-size="10px" fill="#000" opacity="1"><tspan>yaml_rs (parse_dt=False)</tspan><tspan x="0" dy="14">0.1.6</tspan></text><text text-anchor="middle" transform="translate(249.5,15)" font-family="sans-serif" font-size="10px" fill="#000" opacity="1"><tspan>yaml_rs</tspan><tspan x="0" dy="14">0.1.6</tspan></text><text text-anchor="middle" transform="translate(349.5,15)" font-family="sans-serif" font-size="10px" fill="#000" opacity="1"><tspan>ryaml</tspan><tspan x="0" dy="14">0.5.1</tspan></text><text text-anchor="middle" transform="translate(449.5,15)" font-family="sans-serif" font-size="10px" fill="#000" opacity="1"><tspan>PyYAML (CLoader)</tspan><tspan x="0" dy="14">6.0.3</tspan></text><text text-anchor="middle" transform="translate(549.5,15)" font-family="sans-serif" font-size="10px" fill="#000" opacity="1"><tspan>PyYAML</tspan><tspan x="0" dy="14">6.0.3</tspan></text><text text-anchor="middle" transform="translate(649.5,15)" font-family="sans-serif" font-size="10px" fill="#000" opacity="1"><tspan>oyaml</tspan><tspan x="0" dy="14">1.0</tspan></text><text text-anchor="middle" transform="translate(749.5,15)" font-family="sans-serif" font-size="10px" fill="#000" opacity="1"><tspan>ruamel.yaml</tspan><tspan x="0" dy="14">0.19.1</tspan></text></g><g class="mark-rule role-axis-domain" pointer-events="none"><line transform="translate(0,0)" x2="800" y2="0" stroke="#888" stroke-width="1" opacity="1"/></g><g class="mark-text role-axis-title" pointer-events="none"><text text-anchor="middle" transform="translate(400,44)" font-family="sans-serif" font-size="11px" font-weight="bold" fill="#000" opacity="1">Parser</text></g></g><path class="foreground" aria-hidden="true" d="" pointer-events="none" display="none"/></g></g><g class="mark-group role-axis" role="graphics-symbol" aria-roledescription="axis" aria-label="Y-axis titled 'Execution Time (seconds, lower=better)' for a linear scale with values from 0 to 18"><g transform="translate(0.5,0.5)"><path class="background" aria-hidden="true" d="M0,0h0v0h0Z" pointer-events="none"/><g><g class="mark-rule role-axis-tick" pointer-events="none"><line transform="translate(0,600)" x2="-5" y2="0" stroke="#888" stroke-width="1" opacity="1"/><line transform="translate(0,566)" x2="-5" y2="0" stroke="#888" stroke-width="1" opacity="1"/><line transform="translate(0,532)" x2="-5" y2="0" stroke="#888" stroke-width="1" opacity="1"/><line transform="translate(0,498)" x2="-5" y2="0" stroke="#888" stroke-width="1" opacity="1"/><line transform="translate(0,464)" x2="-5" y2="0" stroke="#888" stroke-width="1" opacity="1"/><line transform="translate(0,430)" x2="-5" y2="0" stroke="#888" stroke-width="1" opacity="1"/><line transform="translate(0,396)" x2="-5" y2="0" stroke="#888" stroke-width="1" opacity="1"/><line transform="translate(0,362)" x2="-5" y2="0" stroke="#888" stroke-width="1" opacity="1"/><line transform="translate(0,328)" x2="-5" y2="0" stroke="#888" stroke-width="1" opacity="1"/><line transform="translate(0,294)" x2="-5" y2="0" stroke="#888" stroke-width="1" opacity="1"/><line transform="translate(0,260)" x2="-5" y2="0" stroke="#888" stroke-width="1" opacity="1"/><line transform="translate(0,225)" x2="-5" y2="0" stroke="#888" stroke-width="1" opacity="1"/><line transform="translate(0,191)" x2="-5" y2="0" stroke="#888" stroke-width="1" opacity="1"/><line transform="translate(0,157)" x2="-5" y2="0" stroke="#888" stroke-width="1" opacity="1"/><line transform="translate(0,123)" x2="-5" y2="0" stroke="#888" stroke-width="1" opacity="1"/><line transform="translate(0,89)" x2="-5" y2="0" stroke="#888" stroke-width="1" opacity="1"/><line transform="translate(0,55)" x2="-5" y2="0" stroke="#888" stroke-width="1" opacity="1"/><line transform="translate(0,21)" x2="-5" y2="0" stroke="#888" stroke-width="1" opacity="1"/></g><g class="mark-text role-axis-label" pointer-events="none"><text text-anchor="end" transform="translate(-7,603)" font-family="sans-serif" font-size="10px" fill="#000" opacity="1">0</text><text text-anchor="end" transform="translate(-7,568.9539151664063)" font-family="sans-serif" font-size="10px" fill="#000" opacity="1">1</text><text text-anchor="end" transform="translate(-7,534.9078303328126)" font-family="sans-serif" font-size="10px" fill="#000" opacity="1">2</text><text text-anchor="end" transform="translate(-7,500.86174549921896)" font-family="sans-serif" font-size="10px" fill="#000" opacity="1">3</text><text text-anchor="end" transform="translate(-7,466.81566066562533)" font-family="sans-serif" font-size="10px" fill="#000" opacity="1">4</text><text text-anchor="end" transform="translate(-7,432.7695758320316)" font-family="sans-serif" font-size="10px" fill="#000" opacity="1">5</text><text text-anchor="end" transform="translate(-7,398.7234909984379)" font-family="sans-serif" font-size="10px" fill="#000" opacity="1">6</text><text text-anchor="end" transform="translate(-7,364.6774061648443)" font-family="sans-serif" font-size="10px" fill="#000" opacity="1">7</text><text text-anchor="end" transform="translate(-7,330.63132133125066)" font-family="sans-serif" font-size="10px" fill="#000" opacity="1">8</text><text text-anchor="end" transform="translate(-7,296.5852364976569)" font-family="sans-serif" font-size="10px" fill="#000" opacity="1">9</text><text text-anchor="end" transform="translate(-7,262.53915166406324)" font-family="sans-serif" font-size="10px" fill="#000" opacity="1">10</text><text text-anchor="end" transform="translate(-7,228.4930668304696)" font-family="sans-serif" font-size="10px" fill="#000" opacity="1">11</text><text text-anchor="end" transform="translate(-7,194.44698199687588)" font-family="sans-serif" font-size="10px" fill="#000" opacity="1">12</text><text text-anchor="end" transform="translate(-7,160.40089716328225)" font-family="sans-serif" font-size="10px" fill="#000" opacity="1">13</text><text text-anchor="end" transform="translate(-7,126.35481232968854)" font-family="sans-serif" font-size="10px" fill="#000" opacity="1">14</text><text text-anchor="end" transform="translate(-7,92.3087274960949)" font-family="sans-serif" font-size="10px" fill="#000" opacity="1">15</text><text text-anchor="end" transform="translate(-7,58.26264266250121)" font-family="sans-serif" font-size="10px" fill="#000" opacity="1">16</text><text text-anchor="end" transform="translate(-7,24.2165578289075)" font-family="sans-serif" font-size="10px" fill="#000" opacity="1">17</text></g><g class="mark-rule role-axis-domain" pointer-events="none"><line transform="translate(0,600)" x2="0" y2="-600" stroke="#888" stroke-width="1" opacity="1"/></g><g class="mark-text role-axis-title" pointer-events="none"><text text-anchor="middle" transform="translate(-22.123046875,300) rotate(-90) translate(0,-2)" font-family="sans-serif" font-size="11px" font-weight="bold" fill="#000" opacity="1">Execution Time (seconds, lower=better)</text></g></g><path class="foreground" aria-hidden="true" d="" pointer-events="none" display="none"/></g></g><g class="mark-group role-scope" role="graphics-object" aria-roledescription="group mark container"><g transform="translate(5,594.9866681368276)"><path class="background" aria-hidden="true" d="M2.5066659315862125,0L87.49333406841379,0C88.87680065744347,0,90,1.1231993425565328,90,2.5066659315862125L90,5.013331863172425C90,5.013331863172425,90,5.013331863172425,90,5.013331863172425L0,5.013331863172425C0,5.013331863172425,0,5.013331863172425,0,5.013331863172425L0,2.5066659315862125C0,1.1231993425565328,1.1231993425565328,0,2.5066659315862125,0Z"/><g clip-path="url(#clip1)"><g class="mark-group role-scope" role="graphics-object" aria-roledescription="group mark container"><g transform="translate(0,-594.9866681368276)"><path class="background" aria-hidden="true" d="M0,0h90v0h-90Z"/><g><g class="mark-rect role-mark layer_0_marks" role="graphics-object" aria-roledescription="rect mark container"><path aria-label="Parser: yamlrocks&#xA;0.6.1; Execution Time (seconds, lower=better): 0.147251347333; parser: yamlrocks; Execution Time (s): 0.1473; Slowdown: 1.00" role="graphics-symbol" aria-roledescription="bar" d="M0,594.9866681368276h90v5.013331863172425h-90Z" fill="#666666"/></g></g><path class="foreground" aria-hidden="true" d="" display="none"/></g></g></g><path class="foreground" aria-hidden="true" d="" display="none"/></g><g transform="translate(105,591.7320042967733)"><path class="background" aria-hidden="true" d="M4.133997851613344,0L85.86600214838666,0C88.14761767391798,0,90,1.852382326082022,90,4.133997851613344L90,8.267995703226688C90,8.267995703226688,90,8.267995703226688,90,8.267995703226688L0,8.267995703226688C0,8.267995703226688,0,8.267995703226688,0,8.267995703226688L0,4.133997851613344C0,1.852382326082022,1.852382326082022,0,4.133997851613344,0Z"/><g clip-path="url(#clip2)"><g class="mark-group role-scope" role="graphics-object" aria-roledescription="group mark container"><g transform="translate(0,-591.7320042967733)"><path class="background" aria-hidden="true" d="M0,0h90v0h-90Z"/><g><g class="mark-rect role-mark layer_0_marks" role="graphics-object" aria-roledescription="rect mark container"><path aria-label="Parser: yaml_rs (parse_dt=False)&#xA;0.1.6; Execution Time (seconds, lower=better): 0.242847180333; parser: yaml_rs (parse_dt=False); Execution Time (s): 0.2428; Slowdown: 1.65" role="graphics-symbol" aria-roledescription="bar" d="M0,591.7320042967733h90v8.267995703226688h-90Z" fill="#a6761d"/></g></g><path class="foreground" aria-hidden="true" d="" display="none"/></g></g></g><path class="foreground" aria-hidden="true" d="" display="none"/></g><g transform="translate(205,591.7240025135451)"><path class="background" aria-hidden="true" d="M4.137998743227456,0L85.86200125677254,0C88.14582493449707,0,90,1.8541750655029334,90,4.137998743227456L90,8.275997486454912C90,8.275997486454912,90,8.275997486454912,90,8.275997486454912L0,8.275997486454912C0,8.275997486454912,0,8.275997486454912,0,8.275997486454912L0,4.137998743227456C0,1.8541750655029334,1.8541750655029334,0,4.137998743227456,0Z"/><g clip-path="url(#clip3)"><g class="mark-group role-scope" role="graphics-object" aria-roledescription="group mark container"><g transform="translate(0,-591.7240025135451)"><path class="background" aria-hidden="true" d="M0,0h90v0h-90Z"/><g><g class="mark-rect role-mark layer_0_marks" role="graphics-object" aria-roledescription="rect mark container"><path aria-label="Parser: yaml_rs&#xA;0.1.6; Execution Time (seconds, lower=better): 0.243082208333; parser: yaml_rs; Execution Time (s): 0.2431; Slowdown: 1.65" role="graphics-symbol" aria-roledescription="bar" d="M0,591.7240025135451h90v8.275997486454912h-90Z" fill="#e6ab02"/></g></g><path class="foreground" aria-hidden="true" d="" display="none"/></g></g></g><path class="foreground" aria-hidden="true" d="" display="none"/></g><g transform="translate(305,582.7560807593229)"><path class="background" aria-hidden="true" d="M6,0L84,0C87.311490146964,0,90,2.688509853036,90,6L90,17.243919240677087C90,17.243919240677087,90,17.243919240677087,90,17.243919240677087L0,17.243919240677087C0,17.243919240677087,0,17.243919240677087,0,17.243919240677087L0,6C0,2.688509853036,2.688509853036,0,6,0Z"/><g clip-path="url(#clip4)"><g class="mark-group role-scope" role="graphics-object" aria-roledescription="group mark container"><g transform="translate(0,-582.7560807593229)"><path class="background" aria-hidden="true" d="M0,0h90v0h-90Z"/><g><g class="mark-rect role-mark layer_0_marks" role="graphics-object" aria-roledescription="rect mark container"><path aria-label="Parser: ryaml&#xA;0.5.1; Execution Time (seconds, lower=better): 0.506487583667; parser: ryaml; Execution Time (s): 0.5065; Slowdown: 3.44" role="graphics-symbol" aria-roledescription="bar" d="M0,582.7560807593229h90v17.243919240677087h-90Z" fill="#66a61e"/></g></g><path class="foreground" aria-hidden="true" d="" display="none"/></g></g></g><path class="foreground" aria-hidden="true" d="" display="none"/></g><g transform="translate(405,559.7046376105494)"><path class="background" aria-hidden="true" d="M6,0L84,0C87.311490146964,0,90,2.688509853036,90,6L90,40.29536238945059C90,40.29536238945059,90,40.29536238945059,90,40.29536238945059L0,40.29536238945059C0,40.29536238945059,0,40.29536238945059,0,40.29536238945059L0,6C0,2.688509853036,2.688509853036,0,6,0Z"/><g clip-path="url(#clip5)"><g class="mark-group role-scope" role="graphics-object" aria-roledescription="group mark container"><g transform="translate(0,-559.7046376105494)"><path class="background" aria-hidden="true" d="M0,0h90v0h-90Z"/><g><g class="mark-rect role-mark layer_0_marks" role="graphics-object" aria-roledescription="rect mark container"><path aria-label="Parser: PyYAML (CLoader)&#xA;6.0.3; Execution Time (seconds, lower=better): 1.183553486; parser: PyYAML (CLoader); Execution Time (s): 1.1836; Slowdown: 8.04" role="graphics-symbol" aria-roledescription="bar" d="M0,559.7046376105494h90v40.29536238945059h-90Z" fill="#d95f02"/></g></g><path class="foreground" aria-hidden="true" d="" display="none"/></g></g></g><path class="foreground" aria-hidden="true" d="" display="none"/></g><g transform="translate(505,187.51499919414798)"><path class="background" aria-hidden="true" d="M6,0L84,0C87.311490146964,0,90,2.688509853036,90,6L90,412.485000805852C90,412.485000805852,90,412.485000805852,90,412.485000805852L0,412.485000805852C0,412.485000805852,0,412.485000805852,0,412.485000805852L0,6C0,2.688509853036,2.688509853036,0,6,0Z"/><g clip-path="url(#clip6)"><g class="mark-group role-scope" role="graphics-object" aria-roledescription="group mark container"><g transform="translate(0,-187.51499919414798)"><path class="background" aria-hidden="true" d="M0,0h90v0h-90Z"/><g><g class="mark-rect role-mark layer_0_marks" role="graphics-object" aria-roledescription="rect mark container"><path aria-label="Parser: PyYAML&#xA;6.0.3; Execution Time (seconds, lower=better): 12.1154900137; parser: PyYAML; Execution Time (s): 12.1155; Slowdown: 82.28" role="graphics-symbol" aria-roledescription="bar" d="M0,187.51499919414798h90v412.485000805852h-90Z" fill="#1b9e77"/></g></g><path class="foreground" aria-hidden="true" d="" display="none"/></g></g></g><path class="foreground" aria-hidden="true" d="" display="none"/></g><g transform="translate(605,159.78656355903885)"><path class="background" aria-hidden="true" d="M6,0L84,0C87.311490146964,0,90,2.688509853036,90,6L90,440.2134364409611C90,440.2134364409611,90,440.2134364409611,90,440.2134364409611L0,440.2134364409611C0,440.2134364409611,0,440.2134364409611,0,440.2134364409611L0,6C0,2.688509853036,2.688509853036,0,6,0Z"/><g clip-path="url(#clip7)"><g class="mark-group role-scope" role="graphics-object" aria-roledescription="group mark container"><g transform="translate(0,-159.78656355903885)"><path class="background" aria-hidden="true" d="M0,0h90v0h-90Z"/><g><g class="mark-rect role-mark layer_0_marks" role="graphics-object" aria-roledescription="rect mark container"><path aria-label="Parser: oyaml&#xA;1.0; Execution Time (seconds, lower=better): 12.929928319; parser: oyaml; Execution Time (s): 12.9299; Slowdown: 87.81" role="graphics-symbol" aria-roledescription="bar" d="M0,159.78656355903885h90v440.2134364409611h-90Z" fill="#7570b3"/></g></g><path class="foreground" aria-hidden="true" d="" display="none"/></g></g></g><path class="foreground" aria-hidden="true" d="" display="none"/></g><g transform="translate(705,28.57142857142867)"><path class="background" aria-hidden="true" d="M6,0L84,0C87.311490146964,0,90,2.688509853036,90,6L90,571.4285714285713C90,571.4285714285713,90,571.4285714285713,90,571.4285714285713L0,571.4285714285713C0,571.4285714285713,0,571.4285714285713,0,571.4285714285713L0,6C0,2.688509853036,2.688509853036,0,6,0Z"/><g clip-path="url(#clip8)"><g class="mark-group role-scope" role="graphics-object" aria-roledescription="group mark container"><g transform="translate(0,-28.57142857142867)"><path class="background" aria-hidden="true" d="M0,0h90v0h-90Z"/><g><g class="mark-rect role-mark layer_0_marks" role="graphics-object" aria-roledescription="rect mark container"><path aria-label="Parser: ruamel.yaml&#xA;0.19.1; Execution Time (seconds, lower=better): 16.783973083; parser: ruamel.yaml; Execution Time (s): 16.7840; Slowdown: 113.98" role="graphics-symbol" aria-roledescription="bar" d="M0,28.57142857142867h90v571.4285714285713h-90Z" fill="#e7298a"/></g></g><path class="foreground" aria-hidden="true" d="" display="none"/></g></g></g><path class="foreground" aria-hidden="true" d="" display="none"/></g></g><g class="mark-text role-mark layer_1_marks" role="graphics-object" aria-roledescription="text mark container"><text aria-label="Parser: yamlrocks&#xA;0.6.1; Execution Time (seconds, lower=better): 0.147251347333; parser: yamlrocks; label: 0.1473s (x1.00); Execution Time (s): 0.1473; Slowdown: 1.00" role="graphics-symbol" aria-roledescription="text mark" text-anchor="middle" transform="translate(50,590.9866681368276)" font-family="sans-serif" font-size="9px" font-weight="bold" fill="#666666">0.1473s (x1.00)</text><text aria-label="Parser: yaml_rs (parse_dt=False)&#xA;0.1.6; Execution Time (seconds, lower=better): 0.242847180333; parser: yaml_rs (parse_dt=False); label: 0.2428s (x1.65); Execution Time (s): 0.2428; Slowdown: 1.65" role="graphics-symbol" aria-roledescription="text mark" text-anchor="middle" transform="translate(150,587.7320042967733)" font-family="sans-serif" font-size="9px" font-weight="bold" fill="#a6761d">0.2428s (x1.65)</text><text aria-label="Parser: yaml_rs&#xA;0.1.6; Execution Time (seconds, lower=better): 0.243082208333; parser: yaml_rs; label: 0.2431s (x1.65); Execution Time (s): 0.2431; Slowdown: 1.65" role="graphics-symbol" aria-roledescription="text mark" text-anchor="middle" transform="translate(250,587.7240025135451)" font-family="sans-serif" font-size="9px" font-weight="bold" fill="#e6ab02">0.2431s (x1.65)</text><text aria-label="Parser: ryaml&#xA;0.5.1; Execution Time (seconds, lower=better): 0.506487583667; parser: ryaml; label: 0.5065s (x3.44); Execution Time (s): 0.5065; Slowdown: 3.44" role="graphics-symbol" aria-roledescription="text mark" text-anchor="middle" transform="translate(350,578.7560807593229)" font-family="sans-serif" font-size="9px" font-weight="bold" fill="#66a61e">0.5065s (x3.44)</text><text aria-label="Parser: PyYAML (CLoader)&#xA;6.0.3; Execution Time (seconds, lower=better): 1.183553486; parser: PyYAML (CLoader); label: 1.1836s (x8.04); Execution Time (s): 1.1836; Slowdown: 8.04" role="graphics-symbol" aria-roledescription="text mark" text-anchor="middle" transform="translate(450,555.7046376105494)" font-family="sans-serif" font-size="9px" font-weight="bold" fill="#d95f02">1.1836s (x8.04)</text><text aria-label="Parser: PyYAML&#xA;6.0.3; Execution Time (seconds, lower=better): 12.1154900137; parser: PyYAML; label: 12.1155s (x82.28); Execution Time (s): 12.1155; Slowdown: 82.28" role="graphics-symbol" aria-roledescription="text mark" text-anchor="middle" transform="translate(550,183.51499919414798)" font-family="sans-serif" font-size="9px" font-weight="bold" fill="#1b9e77">12.1155s (x82.28)</text><text aria-label="Parser: oyaml&#xA;1.0; Execution Time (seconds, lower=better): 12.929928319; parser: oyaml; label: 12.9299s (x87.81); Execution Time (s): 12.9299; Slowdown: 87.81" role="graphics-symbol" aria-roledescription="text mark" text-anchor="middle" transform="translate(650,155.78656355903885)" font-family="sans-serif" font-size="9px" font-weight="bold" fill="#7570b3">12.9299s (x87.81)</text><text aria-label="Parser: ruamel.yaml&#xA;0.19.1; Execution Time (seconds, lower=better): 16.783973083; parser: ruamel.yaml; label: 16.7840s (x113.98); Execution Time (s): 16.7840; Slowdown: 113.98" role="graphics-symbol" aria-roledescription="text mark" text-anchor="middle" transform="translate(750,24.57142857142867)" font-family="sans-serif" font-size="9px" font-weight="bold" fill="#e7298a">16.7840s (x113.98)</text></g><g class="mark-group role-title"><g transform="translate(400,-31)"><path class="background" aria-hidden="true" d="M0,0h0v0h0Z" pointer-events="none"/><g><g class="mark-text role-title-text" role="graphics-symbol" aria-roledescription="title" aria-label="Title text 'YAML parsers benchmark (loads)'" pointer-events="none"><text text-anchor="middle" transform="translate(0,10)" font-family="sans-serif" font-size="13px" font-weight="bold" fill="#000" opacity="1">YAML parsers benchmark (loads)</text></g><g class="mark-text role-title-subtitle" role="graphics-symbol" aria-roledescription="subtitle" aria-label="Subtitle text 'Python: 3.14.6 (Darwin 25.4.0) | CPU: Apple M1 (Virtual)'" pointer-events="none"><text text-anchor="middle" transform="translate(0,25)" font-family="sans-serif" font-size="12px" fill="#000" opacity="1">Python: 3.14.6 (Darwin 25.4.0) | CPU: Apple M1 (Virtual)</text></g></g><path class="foreground" aria-hidden="true" d="" pointer-events="none" display="none"/></g></g></g><path class="foreground" aria-hidden="true" d="" display="none"/></g></g></g><defs><clipPath id="clip1"><path d="M2.5066659315862125,0L87.49333406841379,0C88.87680065744347,0,90,1.1231993425565328,90,2.5066659315862125L90,5.013331863172425C90,5.013331863172425,90,5.013331863172425,90,5.013331863172425L0,5.013331863172425C0,5.013331863172425,0,5.013331863172425,0,5.013331863172425L0,2.5066659315862125C0,1.1231993425565328,1.1231993425565328,0,2.5066659315862125,0Z"/></clipPath><clipPath id="clip2"><path d="M4.133997851613344,0L85.86600214838666,0C88.14761767391798,0,90,1.852382326082022,90,4.133997851613344L90,8.267995703226688C90,8.267995703226688,90,8.267995703226688,90,8.267995703226688L0,8.267995703226688C0,8.267995703226688,0,8.267995703226688,0,8.267995703226688L0,4.133997851613344C0,1.852382326082022,1.852382326082022,0,4.133997851613344,0Z"/></clipPath><clipPath id="clip3"><path d="M4.137998743227456,0L85.86200125677254,0C88.14582493449707,0,90,1.8541750655029334,90,4.137998743227456L90,8.275997486454912C90,8.275997486454912,90,8.275997486454912,90,8.275997486454912L0,8.275997486454912C0,8.275997486454912,0,8.275997486454912,0,8.275997486454912L0,4.137998743227456C0,1.8541750655029334,1.8541750655029334,0,4.137998743227456,0Z"/></clipPath><clipPath id="clip4"><path d="M6,0L84,0C87.311490146964,0,90,2.688509853036,90,6L90,17.243919240677087C90,17.243919240677087,90,17.243919240677087,90,17.243919240677087L0,17.243919240677087C0,17.243919240677087,0,17.243919240677087,0,17.243919240677087L0,6C0,2.688509853036,2.688509853036,0,6,0Z"/></clipPath><clipPath id="clip5"><path d="M6,0L84,0C87.311490146964,0,90,2.688509853036,90,6L90,40.29536238945059C90,40.29536238945059,90,40.29536238945059,90,40.29536238945059L0,40.29536238945059C0,40.29536238945059,0,40.29536238945059,0,40.29536238945059L0,6C0,2.688509853036,2.688509853036,0,6,0Z"/></clipPath><clipPath id="clip6"><path d="M6,0L84,0C87.311490146964,0,90,2.688509853036,90,6L90,412.485000805852C90,412.485000805852,90,412.485000805852,90,412.485000805852L0,412.485000805852C0,412.485000805852,0,412.485000805852,0,412.485000805852L0,6C0,2.688509853036,2.688509853036,0,6,0Z"/></clipPath><clipPath id="clip7"><path d="M6,0L84,0C87.311490146964,0,90,2.688509853036,90,6L90,440.2134364409611C90,440.2134364409611,90,440.2134364409611,90,440.2134364409611L0,440.2134364409611C0,440.2134364409611,0,440.2134364409611,0,440.2134364409611L0,6C0,2.688509853036,2.688509853036,0,6,0Z"/></clipPath><clipPath id="clip8"><path d="M6,0L84,0C87.311490146964,0,90,2.688509853036,90,6L90,571.4285714285713C90,571.4285714285713,90,571.4285714285713,90,571.4285714285713L0,571.4285714285713C0,571.4285714285713,0,571.4285714285713,0,571.4285714285713L0,6C0,2.688509853036,2.688509853036,0,6,0Z"/></clipPath></defs></svg>