<svg xmlns="http://www.w3.org/2000/svg" xmlns:xlink="http://www.w3.org/1999/xlink" version="1.1" class="marks" width="844" height="687" viewBox="0 0 844 687"><rect width="844" height="687" fill="white"/><g fill="none" stroke-miterlimit="10" transform="translate(39,36)"><g class="mark-group role-frame root" role="graphics-object" aria-roledescription="group mark container"><g transform="translate(0,0)"><path class="background" aria-hidden="true" d="M0.5,0.5h800v600h-800Z" stroke="#ddd"/><g><g class="mark-group role-axis" role="graphics-symbol" aria-roledescription="axis" aria-label="X-axis titled 'Parser' for a discrete scale with 8 values: yamlrocks&#xA;0.6.1, yaml_rs (parse_dt=False)&#xA;0.1.6, yaml_rs&#xA;0.1.6, ryaml&#xA;0.5.1, PyYAML (CLoader)&#xA;6.0.3, ending with ruamel.yaml&#xA;0.19.1"><g transform="translate(0.5,600.5)"><path class="background" aria-hidden="true" d="M0,0h0v0h0Z" pointer-events="none"/><g><g class="mark-rule role-axis-tick" pointer-events="none"><line transform="translate(50,0)" x2="0" y2="5" stroke="#888" stroke-width="1" opacity="1"/><line transform="translate(150,0)" x2="0" y2="5" stroke="#888" stroke-width="1" opacity="1"/><line transform="translate(250,0)" x2="0" y2="5" stroke="#888" stroke-width="1" opacity="1"/><line transform="translate(350,0)" x2="0" y2="5" stroke="#888" stroke-width="1" opacity="1"/><line transform="translate(450,0)" x2="0" y2="5" stroke="#888" stroke-width="1" opacity="1"/><line transform="translate(550,0)" x2="0" y2="5" stroke="#888" stroke-width="1" opacity="1"/><line transform="translate(650,0)" x2="0" y2="5" stroke="#888" stroke-width="1" opacity="1"/><line transform="translate(750,0)" x2="0" y2="5" stroke="#888" stroke-width="1" opacity="1"/></g><g class="mark-text role-axis-label" pointer-events="none"><text text-anchor="middle" transform="translate(49.5,15)" font-family="sans-serif" font-size="10px" fill="#000" opacity="1"><tspan>yamlrocks</tspan><tspan x="0" dy="14">0.6.1</tspan></text><text text-anchor="middle" transform="translate(149.5,15)" font-family="sans-serif" font-size="10px" fill="#000" opacity="1"><tspan>yaml_rs (parse_dt=False)</tspan><tspan x="0" dy="14">0.1.6</tspan></text><text text-anchor="middle" transform="translate(249.5,15)" font-family="sans-serif" font-size="10px" fill="#000" opacity="1"><tspan>yaml_rs</tspan><tspan x="0" dy="14">0.1.6</tspan></text><text text-anchor="middle" transform="translate(349.5,15)" font-family="sans-serif" font-size="10px" fill="#000" opacity="1"><tspan>ryaml</tspan><tspan x="0" dy="14">0.5.1</tspan></text><text text-anchor="middle" transform="translate(449.5,15)" font-family="sans-serif" font-size="10px" fill="#000" opacity="1"><tspan>PyYAML (CLoader)</tspan><tspan x="0" dy="14">6.0.3</tspan></text><text text-anchor="middle" transform="translate(549.5,15)" font-family="sans-serif" font-size="10px" fill="#000" opacity="1"><tspan>oyaml</tspan><tspan x="0" dy="14">1.0</tspan></text><text text-anchor="middle" transform="translate(649.5,15)" font-family="sans-serif" font-size="10px" fill="#000" opacity="1"><tspan>PyYAML</tspan><tspan x="0" dy="14">6.0.3</tspan></text><text text-anchor="middle" transform="translate(749.5,15)" font-family="sans-serif" font-size="10px" fill="#000" opacity="1"><tspan>ruamel.yaml</tspan><tspan x="0" dy="14">0.19.1</tspan></text></g><g class="mark-rule role-axis-domain" pointer-events="none"><line transform="translate(0,0)" x2="800" y2="0" stroke="#888" stroke-width="1" opacity="1"/></g><g class="mark-text role-axis-title" pointer-events="none"><text text-anchor="middle" transform="translate(400,44)" font-family="sans-serif" font-size="11px" font-weight="bold" fill="#000" opacity="1">Parser</text></g></g><path class="foreground" aria-hidden="true" d="" pointer-events="none" display="none"/></g></g><g class="mark-group role-axis" role="graphics-symbol" aria-roledescription="axis" aria-label="Y-axis titled 'Execution Time (seconds, lower=better)' for a linear scale with values from 0 to 22"><g transform="translate(0.5,0.5)"><path class="background" aria-hidden="true" d="M0,0h0v0h0Z" pointer-events="none"/><g><g class="mark-rule role-axis-tick" pointer-events="none"><line transform="translate(0,600)" x2="-5" y2="0" stroke="#888" stroke-width="1" opacity="1"/><line transform="translate(0,546)" x2="-5" y2="0" stroke="#888" stroke-width="1" opacity="1"/><line transform="translate(0,492)" x2="-5" y2="0" stroke="#888" stroke-width="1" opacity="1"/><line transform="translate(0,438)" x2="-5" y2="0" stroke="#888" stroke-width="1" opacity="1"/><line transform="translate(0,384)" x2="-5" y2="0" stroke="#888" stroke-width="1" opacity="1"/><line transform="translate(0,330)" x2="-5" y2="0" stroke="#888" stroke-width="1" opacity="1"/><line transform="translate(0,276)" x2="-5" y2="0" stroke="#888" stroke-width="1" opacity="1"/><line transform="translate(0,221)" x2="-5" y2="0" stroke="#888" stroke-width="1" opacity="1"/><line transform="translate(0,167)" x2="-5" y2="0" stroke="#888" stroke-width="1" opacity="1"/><line transform="translate(0,113)" x2="-5" y2="0" stroke="#888" stroke-width="1" opacity="1"/><line transform="translate(0,59)" x2="-5" y2="0" stroke="#888" stroke-width="1" opacity="1"/><line transform="translate(0,5)" x2="-5" y2="0" stroke="#888" stroke-width="1" opacity="1"/></g><g class="mark-text role-axis-label" pointer-events="none"><text text-anchor="end" transform="translate(-7,603)" font-family="sans-serif" font-size="10px" fill="#000" opacity="1">0</text><text text-anchor="end" transform="translate(-7,548.9220344964367)" font-family="sans-serif" font-size="10px" fill="#000" opacity="1">2</text><text text-anchor="end" transform="translate(-7,494.8440689928735)" font-family="sans-serif" font-size="10px" fill="#000" opacity="1">4</text><text text-anchor="end" transform="translate(-7,440.76610348931024)" font-family="sans-serif" font-size="10px" fill="#000" opacity="1">6</text><text text-anchor="end" transform="translate(-7,386.68813798574695)" font-family="sans-serif" font-size="10px" fill="#000" opacity="1">8</text><text text-anchor="end" transform="translate(-7,332.61017248218366)" font-family="sans-serif" font-size="10px" fill="#000" opacity="1">10</text><text text-anchor="end" transform="translate(-7,278.5322069786204)" font-family="sans-serif" font-size="10px" fill="#000" opacity="1">12</text><text text-anchor="end" transform="translate(-7,224.45424147505716)" font-family="sans-serif" font-size="10px" fill="#000" opacity="1">14</text><text text-anchor="end" transform="translate(-7,170.37627597149384)" font-family="sans-serif" font-size="10px" fill="#000" opacity="1">16</text><text text-anchor="end" transform="translate(-7,116.29831046793059)" font-family="sans-serif" font-size="10px" fill="#000" opacity="1">18</text><text text-anchor="end" transform="translate(-7,62.22034496436734)" font-family="sans-serif" font-size="10px" fill="#000" opacity="1">20</text><text text-anchor="end" transform="translate(-7,8.142379460804092)" font-family="sans-serif" font-size="10px" fill="#000" opacity="1">22</text></g><g class="mark-rule role-axis-domain" pointer-events="none"><line transform="translate(0,600)" x2="0" y2="-600" stroke="#888" stroke-width="1" opacity="1"/></g><g class="mark-text role-axis-title" pointer-events="none"><text text-anchor="middle" transform="translate(-22.123046875,300) rotate(-90) translate(0,-2)" font-family="sans-serif" font-size="11px" font-weight="bold" fill="#000" opacity="1">Execution Time (seconds, lower=better)</text></g></g><path class="foreground" aria-hidden="true" d="" pointer-events="none" display="none"/></g></g><g class="mark-group role-scope" role="graphics-object" aria-roledescription="group mark container"><g transform="translate(5,593.9046689766573)"><path class="background" aria-hidden="true" d="M3.0476655116713687,0L86.95233448832863,0C88.63438687385225,0,90,1.3656131261477462,90,3.0476655116713687L90,6.095331023342737C90,6.095331023342737,90,6.095331023342737,90,6.095331023342737L0,6.095331023342737C0,6.095331023342737,0,6.095331023342737,0,6.095331023342737L0,3.0476655116713687C0,1.3656131261477462,1.3656131261477462,0,3.0476655116713687,0Z"/><g clip-path="url(#clip1)"><g class="mark-group role-scope" role="graphics-object" aria-roledescription="group mark container"><g transform="translate(0,-593.9046689766573)"><path class="background" aria-hidden="true" d="M0,0h90v0h-90Z"/><g><g class="mark-rect role-mark layer_0_marks" role="graphics-object" aria-roledescription="rect mark container"><path aria-label="Parser: yamlrocks&#xA;0.6.1; Execution Time (seconds, lower=better): 0.225427527333; parser: yamlrocks; Execution Time (s): 0.2254; Slowdown: 1.00" role="graphics-symbol" aria-roledescription="bar" d="M0,593.9046689766573h90v6.095331023342737h-90Z" fill="#666666"/></g></g><path class="foreground" aria-hidden="true" d="" display="none"/></g></g></g><path class="foreground" aria-hidden="true" d="" display="none"/></g><g transform="translate(105,592.6613864913951)"><path class="background" aria-hidden="true" d="M3.669306754302454,0L86.33069324569755,0C88.35583877287438,0,90,1.6441612271256156,90,3.669306754302454L90,7.338613508604908C90,7.338613508604908,90,7.338613508604908,90,7.338613508604908L0,7.338613508604908C0,7.338613508604908,0,7.338613508604908,0,7.338613508604908L0,3.669306754302454C0,1.6441612271256156,1.6441612271256156,0,3.669306754302454,0Z"/><g clip-path="url(#clip2)"><g class="mark-group role-scope" role="graphics-object" aria-roledescription="group mark container"><g transform="translate(0,-592.6613864913951)"><path class="background" aria-hidden="true" d="M0,0h90v0h-90Z"/><g><g class="mark-rect role-mark layer_0_marks" role="graphics-object" aria-roledescription="rect mark container"><path aria-label="Parser: yaml_rs (parse_dt=False)&#xA;0.1.6; Execution Time (seconds, lower=better): 0.271408639; parser: yaml_rs (parse_dt=False); Execution Time (s): 0.2714; Slowdown: 1.20" role="graphics-symbol" aria-roledescription="bar" d="M0,592.6613864913951h90v7.338613508604908h-90Z" fill="#a6761d"/></g></g><path class="foreground" aria-hidden="true" d="" display="none"/></g></g></g><path class="foreground" aria-hidden="true" d="" display="none"/></g><g transform="translate(205,591.5449698136188)"><path class="background" aria-hidden="true" d="M4.227515093190618,0L85.77248490680938,0C88.10571400301643,0,90,1.8942859969835635,90,4.227515093190618L90,8.455030186381236C90,8.455030186381236,90,8.455030186381236,90,8.455030186381236L0,8.455030186381236C0,8.455030186381236,0,8.455030186381236,0,8.455030186381236L0,4.227515093190618C0,1.8942859969835635,1.8942859969835635,0,4.227515093190618,0Z"/><g clip-path="url(#clip3)"><g class="mark-group role-scope" role="graphics-object" aria-roledescription="group mark container"><g transform="translate(0,-591.5449698136188)"><path class="background" aria-hidden="true" d="M0,0h90v0h-90Z"/><g><g class="mark-rect role-mark layer_0_marks" role="graphics-object" aria-roledescription="rect mark container"><path aria-label="Parser: yaml_rs&#xA;0.1.6; Execution Time (seconds, lower=better): 0.312697791333; parser: yaml_rs; Execution Time (s): 0.3127; Slowdown: 1.39" role="graphics-symbol" aria-roledescription="bar" d="M0,591.5449698136188h90v8.455030186381236h-90Z" fill="#e6ab02"/></g></g><path class="foreground" aria-hidden="true" d="" display="none"/></g></g></g><path class="foreground" aria-hidden="true" d="" display="none"/></g><g transform="translate(305,583.2092904361677)"><path class="background" aria-hidden="true" d="M6,0L84,0C87.311490146964,0,90,2.688509853036,90,6L90,16.79070956383225C90,16.79070956383225,90,16.79070956383225,90,16.79070956383225L0,16.79070956383225C0,16.79070956383225,0,16.79070956383225,0,16.79070956383225L0,6C0,2.688509853036,2.688509853036,0,6,0Z"/><g clip-path="url(#clip4)"><g class="mark-group role-scope" role="graphics-object" aria-roledescription="group mark container"><g transform="translate(0,-583.2092904361677)"><path class="background" aria-hidden="true" d="M0,0h90v0h-90Z"/><g><g class="mark-rect role-mark layer_0_marks" role="graphics-object" aria-roledescription="rect mark container"><path aria-label="Parser: ryaml&#xA;0.5.1; Execution Time (seconds, lower=better): 0.620981555333; parser: ryaml; Execution Time (s): 0.6210; Slowdown: 2.75" role="graphics-symbol" aria-roledescription="bar" d="M0,583.2092904361677h90v16.79070956383225h-90Z" fill="#66a61e"/></g></g><path class="foreground" aria-hidden="true" d="" display="none"/></g></g></g><path class="foreground" aria-hidden="true" d="" display="none"/></g><g transform="translate(405,553.7854329661425)"><path class="background" aria-hidden="true" d="M6,0L84,0C87.311490146964,0,90,2.688509853036,90,6L90,46.21456703385752C90,46.21456703385752,90,46.21456703385752,90,46.21456703385752L0,46.21456703385752C0,46.21456703385752,0,46.21456703385752,0,46.21456703385752L0,6C0,2.688509853036,2.688509853036,0,6,0Z"/><g clip-path="url(#clip5)"><g class="mark-group role-scope" role="graphics-object" aria-roledescription="group mark container"><g transform="translate(0,-553.7854329661425)"><path class="background" aria-hidden="true" d="M0,0h90v0h-90Z"/><g><g class="mark-rect role-mark layer_0_marks" role="graphics-object" aria-roledescription="rect mark container"><path aria-label="Parser: PyYAML (CLoader)&#xA;6.0.3; Execution Time (seconds, lower=better): 1.709182903; parser: PyYAML (CLoader); Execution Time (s): 1.7092; Slowdown: 7.58" role="graphics-symbol" aria-roledescription="bar" d="M0,553.7854329661425h90v46.21456703385752h-90Z" fill="#d95f02"/></g></g><path class="foreground" aria-hidden="true" d="" display="none"/></g></g></g><path class="foreground" aria-hidden="true" d="" display="none"/></g><g transform="translate(505,202.9584506395449)"><path class="background" aria-hidden="true" d="M6,0L84,0C87.311490146964,0,90,2.688509853036,90,6L90,397.04154936045506C90,397.04154936045506,90,397.04154936045506,90,397.04154936045506L0,397.04154936045506C0,397.04154936045506,0,397.04154936045506,0,397.04154936045506L0,6C0,2.688509853036,2.688509853036,0,6,0Z"/><g clip-path="url(#clip6)"><g class="mark-group role-scope" role="graphics-object" aria-roledescription="group mark container"><g transform="translate(0,-202.9584506395449)"><path class="background" aria-hidden="true" d="M0,0h90v0h-90Z"/><g><g class="mark-rect role-mark layer_0_marks" role="graphics-object" aria-roledescription="rect mark container"><path aria-label="Parser: oyaml&#xA;1.0; Execution Time (seconds, lower=better): 14.684041667; parser: oyaml; Execution Time (s): 14.6840; Slowdown: 65.14" role="graphics-symbol" aria-roledescription="bar" d="M0,202.9584506395449h90v397.04154936045506h-90Z" fill="#7570b3"/></g></g><path class="foreground" aria-hidden="true" d="" display="none"/></g></g></g><path class="foreground" aria-hidden="true" d="" display="none"/></g><g transform="translate(605,149.58321290350662)"><path class="background" aria-hidden="true" d="M6,0L84,0C87.311490146964,0,90,2.688509853036,90,6L90,450.4167870964934C90,450.4167870964934,90,450.4167870964934,90,450.4167870964934L0,450.4167870964934C0,450.4167870964934,0,450.4167870964934,0,450.4167870964934L0,6C0,2.688509853036,2.688509853036,0,6,0Z"/><g clip-path="url(#clip7)"><g class="mark-group role-scope" role="graphics-object" aria-roledescription="group mark container"><g transform="translate(0,-149.58321290350662)"><path class="background" aria-hidden="true" d="M0,0h90v0h-90Z"/><g><g class="mark-rect role-mark layer_0_marks" role="graphics-object" aria-roledescription="rect mark container"><path aria-label="Parser: PyYAML&#xA;6.0.3; Execution Time (seconds, lower=better): 16.6580522363; parser: PyYAML; Execution Time (s): 16.6581; Slowdown: 73.90" role="graphics-symbol" aria-roledescription="bar" d="M0,149.58321290350662h90v450.4167870964934h-90Z" fill="#1b9e77"/></g></g><path class="foreground" aria-hidden="true" d="" display="none"/></g></g></g><path class="foreground" aria-hidden="true" d="" display="none"/></g><g transform="translate(705,28.571428571428605)"><path class="background" aria-hidden="true" d="M6,0L84,0C87.311490146964,0,90,2.688509853036,90,6L90,571.4285714285714C90,571.4285714285714,90,571.4285714285714,90,571.4285714285714L0,571.4285714285714C0,571.4285714285714,0,571.4285714285714,0,571.4285714285714L0,6C0,2.688509853036,2.688509853036,0,6,0Z"/><g clip-path="url(#clip8)"><g class="mark-group role-scope" role="graphics-object" aria-roledescription="group mark container"><g transform="translate(0,-28.571428571428605)"><path class="background" aria-hidden="true" d="M0,0h90v0h-90Z"/><g><g class="mark-rect role-mark layer_0_marks" role="graphics-object" aria-roledescription="rect mark container"><path aria-label="Parser: ruamel.yaml&#xA;0.19.1; Execution Time (seconds, lower=better): 21.1335084857; parser: ruamel.yaml; Execution Time (s): 21.1335; Slowdown: 93.75" role="graphics-symbol" aria-roledescription="bar" d="M0,28.571428571428605h90v571.4285714285714h-90Z" fill="#e7298a"/></g></g><path class="foreground" aria-hidden="true" d="" display="none"/></g></g></g><path class="foreground" aria-hidden="true" d="" display="none"/></g></g><g class="mark-text role-mark layer_1_marks" role="graphics-object" aria-roledescription="text mark container"><text aria-label="Parser: yamlrocks&#xA;0.6.1; Execution Time (seconds, lower=better): 0.225427527333; parser: yamlrocks; label: 0.2254s (x1.00); Execution Time (s): 0.2254; Slowdown: 1.00" role="graphics-symbol" aria-roledescription="text mark" text-anchor="middle" transform="translate(50,589.9046689766573)" font-family="sans-serif" font-size="9px" font-weight="bold" fill="#666666">0.2254s (x1.00)</text><text aria-label="Parser: yaml_rs (parse_dt=False)&#xA;0.1.6; Execution Time (seconds, lower=better): 0.271408639; parser: yaml_rs (parse_dt=False); label: 0.2714s (x1.20); Execution Time (s): 0.2714; Slowdown: 1.20" role="graphics-symbol" aria-roledescription="text mark" text-anchor="middle" transform="translate(150,588.6613864913951)" font-family="sans-serif" font-size="9px" font-weight="bold" fill="#a6761d">0.2714s (x1.20)</text><text aria-label="Parser: yaml_rs&#xA;0.1.6; Execution Time (seconds, lower=better): 0.312697791333; parser: yaml_rs; label: 0.3127s (x1.39); Execution Time (s): 0.3127; Slowdown: 1.39" role="graphics-symbol" aria-roledescription="text mark" text-anchor="middle" transform="translate(250,587.5449698136188)" font-family="sans-serif" font-size="9px" font-weight="bold" fill="#e6ab02">0.3127s (x1.39)</text><text aria-label="Parser: ryaml&#xA;0.5.1; Execution Time (seconds, lower=better): 0.620981555333; parser: ryaml; label: 0.6210s (x2.75); Execution Time (s): 0.6210; Slowdown: 2.75" role="graphics-symbol" aria-roledescription="text mark" text-anchor="middle" transform="translate(350,579.2092904361677)" font-family="sans-serif" font-size="9px" font-weight="bold" fill="#66a61e">0.6210s (x2.75)</text><text aria-label="Parser: PyYAML (CLoader)&#xA;6.0.3; Execution Time (seconds, lower=better): 1.709182903; parser: PyYAML (CLoader); label: 1.7092s (x7.58); Execution Time (s): 1.7092; Slowdown: 7.58" role="graphics-symbol" aria-roledescription="text mark" text-anchor="middle" transform="translate(450,549.7854329661425)" font-family="sans-serif" font-size="9px" font-weight="bold" fill="#d95f02">1.7092s (x7.58)</text><text aria-label="Parser: oyaml&#xA;1.0; Execution Time (seconds, lower=better): 14.684041667; parser: oyaml; label: 14.6840s (x65.14); Execution Time (s): 14.6840; Slowdown: 65.14" role="graphics-symbol" aria-roledescription="text mark" text-anchor="middle" transform="translate(550,198.9584506395449)" font-family="sans-serif" font-size="9px" font-weight="bold" fill="#7570b3">14.6840s (x65.14)</text><text aria-label="Parser: PyYAML&#xA;6.0.3; Execution Time (seconds, lower=better): 16.6580522363; parser: PyYAML; label: 16.6581s (x73.90); Execution Time (s): 16.6581; Slowdown: 73.90" role="graphics-symbol" aria-roledescription="text mark" text-anchor="middle" transform="translate(650,145.58321290350662)" font-family="sans-serif" font-size="9px" font-weight="bold" fill="#1b9e77">16.6581s (x73.90)</text><text aria-label="Parser: ruamel.yaml&#xA;0.19.1; Execution Time (seconds, lower=better): 21.1335084857; parser: ruamel.yaml; label: 21.1335s (x93.75); Execution Time (s): 21.1335; Slowdown: 93.75" role="graphics-symbol" aria-roledescription="text mark" text-anchor="middle" transform="translate(750,24.571428571428605)" font-family="sans-serif" font-size="9px" font-weight="bold" fill="#e7298a">21.1335s (x93.75)</text></g><g class="mark-group role-title"><g transform="translate(400,-31)"><path class="background" aria-hidden="true" d="M0,0h0v0h0Z" pointer-events="none"/><g><g class="mark-text role-title-text" role="graphics-symbol" aria-roledescription="title" aria-label="Title text 'YAML parsers benchmark (loads)'" pointer-events="none"><text text-anchor="middle" transform="translate(0,10)" font-family="sans-serif" font-size="13px" font-weight="bold" fill="#000" opacity="1">YAML parsers benchmark (loads)</text></g><g class="mark-text role-title-subtitle" role="graphics-symbol" aria-roledescription="subtitle" aria-label="Subtitle text 'Python: 3.14.6 (Darwin 25.4.0) | CPU: Apple M1 (Virtual)'" pointer-events="none"><text text-anchor="middle" transform="translate(0,25)" font-family="sans-serif" font-size="12px" fill="#000" opacity="1">Python: 3.14.6 (Darwin 25.4.0) | CPU: Apple M1 (Virtual)</text></g></g><path class="foreground" aria-hidden="true" d="" pointer-events="none" display="none"/></g></g></g><path class="foreground" aria-hidden="true" d="" display="none"/></g></g></g><defs><clipPath id="clip1"><path d="M3.0476655116713687,0L86.95233448832863,0C88.63438687385225,0,90,1.3656131261477462,90,3.0476655116713687L90,6.095331023342737C90,6.095331023342737,90,6.095331023342737,90,6.095331023342737L0,6.095331023342737C0,6.095331023342737,0,6.095331023342737,0,6.095331023342737L0,3.0476655116713687C0,1.3656131261477462,1.3656131261477462,0,3.0476655116713687,0Z"/></clipPath><clipPath id="clip2"><path d="M3.669306754302454,0L86.33069324569755,0C88.35583877287438,0,90,1.6441612271256156,90,3.669306754302454L90,7.338613508604908C90,7.338613508604908,90,7.338613508604908,90,7.338613508604908L0,7.338613508604908C0,7.338613508604908,0,7.338613508604908,0,7.338613508604908L0,3.669306754302454C0,1.6441612271256156,1.6441612271256156,0,3.669306754302454,0Z"/></clipPath><clipPath id="clip3"><path d="M4.227515093190618,0L85.77248490680938,0C88.10571400301643,0,90,1.8942859969835635,90,4.227515093190618L90,8.455030186381236C90,8.455030186381236,90,8.455030186381236,90,8.455030186381236L0,8.455030186381236C0,8.455030186381236,0,8.455030186381236,0,8.455030186381236L0,4.227515093190618C0,1.8942859969835635,1.8942859969835635,0,4.227515093190618,0Z"/></clipPath><clipPath id="clip4"><path d="M6,0L84,0C87.311490146964,0,90,2.688509853036,90,6L90,16.79070956383225C90,16.79070956383225,90,16.79070956383225,90,16.79070956383225L0,16.79070956383225C0,16.79070956383225,0,16.79070956383225,0,16.79070956383225L0,6C0,2.688509853036,2.688509853036,0,6,0Z"/></clipPath><clipPath id="clip5"><path d="M6,0L84,0C87.311490146964,0,90,2.688509853036,90,6L90,46.21456703385752C90,46.21456703385752,90,46.21456703385752,90,46.21456703385752L0,46.21456703385752C0,46.21456703385752,0,46.21456703385752,0,46.21456703385752L0,6C0,2.688509853036,2.688509853036,0,6,0Z"/></clipPath><clipPath id="clip6"><path d="M6,0L84,0C87.311490146964,0,90,2.688509853036,90,6L90,397.04154936045506C90,397.04154936045506,90,397.04154936045506,90,397.04154936045506L0,397.04154936045506C0,397.04154936045506,0,397.04154936045506,0,397.04154936045506L0,6C0,2.688509853036,2.688509853036,0,6,0Z"/></clipPath><clipPath id="clip7"><path d="M6,0L84,0C87.311490146964,0,90,2.688509853036,90,6L90,450.4167870964934C90,450.4167870964934,90,450.4167870964934,90,450.4167870964934L0,450.4167870964934C0,450.4167870964934,0,450.4167870964934,0,450.4167870964934L0,6C0,2.688509853036,2.688509853036,0,6,0Z"/></clipPath><clipPath id="clip8"><path d="M6,0L84,0C87.311490146964,0,90,2.688509853036,90,6L90,571.4285714285714C90,571.4285714285714,90,571.4285714285714,90,571.4285714285714L0,571.4285714285714C0,571.4285714285714,0,571.4285714285714,0,571.4285714285714L0,6C0,2.688509853036,2.688509853036,0,6,0Z"/></clipPath></defs></svg>