<svg xmlns="http://www.w3.org/2000/svg" xmlns:xlink="http://www.w3.org/1999/xlink" version="1.1" class="marks" width="852" height="687" viewBox="0 0 852 687"><rect width="852" height="687" fill="white"/><g fill="none" stroke-miterlimit="10" transform="translate(47,36)"><g class="mark-group role-frame root" role="graphics-object" aria-roledescription="group mark container"><g transform="translate(0,0)"><path class="background" aria-hidden="true" d="M0.5,0.5h800v600h-800Z" stroke="#ddd"/><g><g class="mark-group role-axis" role="graphics-symbol" aria-roledescription="axis" aria-label="X-axis titled 'Parser' for a discrete scale with 7 values: yamlrocks&#xA;v0.2.1, yaml_rs&#xA;v0.1.4, ryaml&#xA;v0.5.1, PyYAML (CDumper)&#xA;v6.0.3, oyaml&#xA;v1.0, PyYAML&#xA;v6.0.3, ruamel.yaml&#xA;v0.19.1"><g transform="translate(0.5,600.5)"><path class="background" aria-hidden="true" d="M0,0h0v0h0Z" pointer-events="none"/><g><g class="mark-rule role-axis-tick" pointer-events="none"><line transform="translate(57,0)" x2="0" y2="5" stroke="#888" stroke-width="1" opacity="1"/><line transform="translate(171,0)" x2="0" y2="5" stroke="#888" stroke-width="1" opacity="1"/><line transform="translate(285,0)" x2="0" y2="5" stroke="#888" stroke-width="1" opacity="1"/><line transform="translate(400,0)" x2="0" y2="5" stroke="#888" stroke-width="1" opacity="1"/><line transform="translate(514,0)" x2="0" y2="5" stroke="#888" stroke-width="1" opacity="1"/><line transform="translate(628,0)" x2="0" y2="5" stroke="#888" stroke-width="1" opacity="1"/><line transform="translate(742,0)" x2="0" y2="5" stroke="#888" stroke-width="1" opacity="1"/></g><g class="mark-text role-axis-label" pointer-events="none"><text text-anchor="middle" transform="translate(56.642857142857096,15)" font-family="sans-serif" font-size="10px" fill="#000" opacity="1"><tspan>yamlrocks</tspan><tspan x="0" dy="14">v0.2.1</tspan></text><text text-anchor="middle" transform="translate(170.9285714285714,15)" font-family="sans-serif" font-size="10px" fill="#000" opacity="1"><tspan>yaml_rs</tspan><tspan x="0" dy="14">v0.1.4</tspan></text><text text-anchor="middle" transform="translate(285.21428571428567,15)" font-family="sans-serif" font-size="10px" fill="#000" opacity="1"><tspan>ryaml</tspan><tspan x="0" dy="14">v0.5.1</tspan></text><text text-anchor="middle" transform="translate(399.5,15)" font-family="sans-serif" font-size="10px" fill="#000" opacity="1"><tspan>PyYAML (CDumper)</tspan><tspan x="0" dy="14">v6.0.3</tspan></text><text text-anchor="middle" transform="translate(513.7857142857142,15)" font-family="sans-serif" font-size="10px" fill="#000" opacity="1"><tspan>oyaml</tspan><tspan x="0" dy="14">v1.0</tspan></text><text text-anchor="middle" transform="translate(628.0714285714286,15)" font-family="sans-serif" font-size="10px" fill="#000" opacity="1"><tspan>PyYAML</tspan><tspan x="0" dy="14">v6.0.3</tspan></text><text text-anchor="middle" transform="translate(742.3571428571429,15)" font-family="sans-serif" font-size="10px" fill="#000" opacity="1"><tspan>ruamel.yaml</tspan><tspan x="0" dy="14">v0.19.1</tspan></text></g><g class="mark-rule role-axis-domain" pointer-events="none"><line transform="translate(0,0)" x2="800" y2="0" stroke="#888" stroke-width="1" opacity="1"/></g><g class="mark-text role-axis-title" pointer-events="none"><text text-anchor="middle" transform="translate(400,44)" font-family="sans-serif" font-size="11px" font-weight="bold" fill="#000" opacity="1">Parser</text></g></g><path class="foreground" aria-hidden="true" d="" pointer-events="none" display="none"/></g></g><g class="mark-group role-axis" role="graphics-symbol" aria-roledescription="axis" aria-label="Y-axis titled 'Execution Time (seconds, lower=better)' for a linear scale with values from 0 to 11"><g transform="translate(0.5,0.5)"><path class="background" aria-hidden="true" d="M0,0h0v0h0Z" pointer-events="none"/><g><g class="mark-rule role-axis-tick" pointer-events="none"><line transform="translate(0,600)" x2="-5" y2="0" stroke="#888" stroke-width="1" opacity="1"/><line transform="translate(0,572)" x2="-5" y2="0" stroke="#888" stroke-width="1" opacity="1"/><line transform="translate(0,543)" x2="-5" y2="0" stroke="#888" stroke-width="1" opacity="1"/><line transform="translate(0,515)" x2="-5" y2="0" stroke="#888" stroke-width="1" opacity="1"/><line transform="translate(0,487)" x2="-5" y2="0" stroke="#888" stroke-width="1" opacity="1"/><line transform="translate(0,458)" x2="-5" y2="0" stroke="#888" stroke-width="1" opacity="1"/><line transform="translate(0,430)" x2="-5" y2="0" stroke="#888" stroke-width="1" opacity="1"/><line transform="translate(0,402)" x2="-5" y2="0" stroke="#888" stroke-width="1" opacity="1"/><line transform="translate(0,373)" x2="-5" y2="0" stroke="#888" stroke-width="1" opacity="1"/><line transform="translate(0,345)" x2="-5" y2="0" stroke="#888" stroke-width="1" opacity="1"/><line transform="translate(0,317)" x2="-5" y2="0" stroke="#888" stroke-width="1" opacity="1"/><line transform="translate(0,288)" x2="-5" y2="0" stroke="#888" stroke-width="1" opacity="1"/><line transform="translate(0,260)" x2="-5" y2="0" stroke="#888" stroke-width="1" opacity="1"/><line transform="translate(0,232)" x2="-5" y2="0" stroke="#888" stroke-width="1" opacity="1"/><line transform="translate(0,203)" x2="-5" y2="0" stroke="#888" stroke-width="1" opacity="1"/><line transform="translate(0,175)" x2="-5" y2="0" stroke="#888" stroke-width="1" opacity="1"/><line transform="translate(0,147)" x2="-5" y2="0" stroke="#888" stroke-width="1" opacity="1"/><line transform="translate(0,118)" x2="-5" y2="0" stroke="#888" stroke-width="1" opacity="1"/><line transform="translate(0,90)" x2="-5" y2="0" stroke="#888" stroke-width="1" opacity="1"/><line transform="translate(0,62)" x2="-5" y2="0" stroke="#888" stroke-width="1" opacity="1"/><line transform="translate(0,33)" x2="-5" y2="0" stroke="#888" stroke-width="1" opacity="1"/><line transform="translate(0,5)" x2="-5" y2="0" stroke="#888" stroke-width="1" opacity="1"/></g><g class="mark-text role-axis-label" pointer-events="none"><text text-anchor="end" transform="translate(-7,603)" font-family="sans-serif" font-size="10px" fill="#000" opacity="1">0.0</text><text text-anchor="end" transform="translate(-7,574.669712207499)" font-family="sans-serif" font-size="10px" fill="#000" opacity="1">0.5</text><text text-anchor="end" transform="translate(-7,546.3394244149977)" font-family="sans-serif" font-size="10px" fill="#000" opacity="1">1.0</text><text text-anchor="end" transform="translate(-7,518.0091366224966)" font-family="sans-serif" font-size="10px" fill="#000" opacity="1">1.5</text><text text-anchor="end" transform="translate(-7,489.67884882999545)" font-family="sans-serif" font-size="10px" fill="#000" opacity="1">2.0</text><text text-anchor="end" transform="translate(-7,461.34856103749433)" font-family="sans-serif" font-size="10px" fill="#000" opacity="1">2.5</text><text text-anchor="end" transform="translate(-7,433.0182732449932)" font-family="sans-serif" font-size="10px" fill="#000" opacity="1">3.0</text><text text-anchor="end" transform="translate(-7,404.68798545249206)" font-family="sans-serif" font-size="10px" fill="#000" opacity="1">3.5</text><text text-anchor="end" transform="translate(-7,376.35769765999095)" font-family="sans-serif" font-size="10px" fill="#000" opacity="1">4.0</text><text text-anchor="end" transform="translate(-7,348.02740986748984)" font-family="sans-serif" font-size="10px" fill="#000" opacity="1">4.5</text><text text-anchor="end" transform="translate(-7,319.69712207498867)" font-family="sans-serif" font-size="10px" fill="#000" opacity="1">5.0</text><text text-anchor="end" transform="translate(-7,291.36683428248756)" font-family="sans-serif" font-size="10px" fill="#000" opacity="1">5.5</text><text text-anchor="end" transform="translate(-7,263.03654648998645)" font-family="sans-serif" font-size="10px" fill="#000" opacity="1">6.0</text><text text-anchor="end" transform="translate(-7,234.70625869748528)" font-family="sans-serif" font-size="10px" fill="#000" opacity="1">6.5</text><text text-anchor="end" transform="translate(-7,206.37597090498417)" font-family="sans-serif" font-size="10px" fill="#000" opacity="1">7.0</text><text text-anchor="end" transform="translate(-7,178.04568311248306)" font-family="sans-serif" font-size="10px" fill="#000" opacity="1">7.5</text><text text-anchor="end" transform="translate(-7,149.71539531998187)" font-family="sans-serif" font-size="10px" fill="#000" opacity="1">8.0</text><text text-anchor="end" transform="translate(-7,121.38510752748077)" font-family="sans-serif" font-size="10px" fill="#000" opacity="1">8.5</text><text text-anchor="end" transform="translate(-7,93.05481973497966)" font-family="sans-serif" font-size="10px" fill="#000" opacity="1">9.0</text><text text-anchor="end" transform="translate(-7,64.72453194247849)" font-family="sans-serif" font-size="10px" fill="#000" opacity="1">9.5</text><text text-anchor="end" transform="translate(-7,36.39424414997738)" font-family="sans-serif" font-size="10px" fill="#000" opacity="1">10.0</text><text text-anchor="end" transform="translate(-7,8.063956357476208)" font-family="sans-serif" font-size="10px" fill="#000" opacity="1">10.5</text></g><g class="mark-rule role-axis-domain" pointer-events="none"><line transform="translate(0,600)" x2="0" y2="-600" stroke="#888" stroke-width="1" opacity="1"/></g><g class="mark-text role-axis-title" pointer-events="none"><text text-anchor="middle" transform="translate(-30.462890625,300) rotate(-90) translate(0,-2)" font-family="sans-serif" font-size="11px" font-weight="bold" fill="#000" opacity="1">Execution Time (seconds, lower=better)</text></g></g><path class="foreground" aria-hidden="true" d="" pointer-events="none" display="none"/></g></g><g class="mark-group role-scope" role="graphics-object" aria-roledescription="group mark container"><g transform="translate(5.714285714285666,597.2360506990644)"><path class="background" aria-hidden="true" d="M1.3819746504677823,0L101.47516820667508,0C102.2379007797381,0,102.85714285714286,0.6192420774047692,102.85714285714286,1.3819746504677823L102.85714285714286,2.7639493009355647C102.85714285714286,2.7639493009355647,102.85714285714286,2.7639493009355647,102.85714285714286,2.7639493009355647L0,2.7639493009355647C0,2.7639493009355647,0,2.7639493009355647,0,2.7639493009355647L0,1.3819746504677823C0,0.6192420774047692,0.6192420774047692,0,1.3819746504677823,0Z"/><g clip-path="url(#clip9)"><g class="mark-group role-scope" role="graphics-object" aria-roledescription="group mark container"><g transform="translate(0,-597.2360506990644)"><path class="background" aria-hidden="true" d="M0,0h102.85714285714286v0h-102.85714285714286Z"/><g><g class="mark-rect role-mark layer_0_marks" role="graphics-object" aria-roledescription="rect mark container"><path aria-label="Parser: yamlrocks&#xA;v0.2.1; Execution Time (seconds, lower=better): 0.0487808193333; parser: yamlrocks; Execution Time (s): 0.0488; Slowdown: 1.00" role="graphics-symbol" aria-roledescription="bar" d="M0,597.2360506990644h102.85714285714286v2.7639493009355647h-102.85714285714286Z" fill="#a6761d"/></g></g><path class="foreground" aria-hidden="true" d="" display="none"/></g></g></g><path class="foreground" aria-hidden="true" d="" display="none"/></g><g transform="translate(119.99999999999996,595.7841517611014)"><path class="background" aria-hidden="true" d="M2.107924119449308,0L100.74921873769355,0C101.91261372971091,0,102.85714285714286,0.9445291274319498,102.85714285714286,2.107924119449308L102.85714285714286,4.215848238898616C102.85714285714286,4.215848238898616,102.85714285714286,4.215848238898616,102.85714285714286,4.215848238898616L0,4.215848238898616C0,4.215848238898616,0,4.215848238898616,0,4.215848238898616L0,2.107924119449308C0,0.9445291274319498,0.9445291274319498,0,2.107924119449308,0Z"/><g clip-path="url(#clip10)"><g class="mark-group role-scope" role="graphics-object" aria-roledescription="group mark container"><g transform="translate(0,-595.7841517611014)"><path class="background" aria-hidden="true" d="M0,0h102.85714285714286v0h-102.85714285714286Z"/><g><g class="mark-rect role-mark layer_0_marks" role="graphics-object" aria-roledescription="rect mark container"><path aria-label="Parser: yaml_rs&#xA;v0.1.4; Execution Time (seconds, lower=better): 0.0744053196667; parser: yaml_rs; Execution Time (s): 0.0744; Slowdown: 1.53" role="graphics-symbol" aria-roledescription="bar" d="M0,595.7841517611014h102.85714285714286v4.215848238898616h-102.85714285714286Z" fill="#e6ab02"/></g></g><path class="foreground" aria-hidden="true" d="" display="none"/></g></g></g><path class="foreground" aria-hidden="true" d="" display="none"/></g><g transform="translate(234.28571428571425,588.3402923218266)"><path class="background" aria-hidden="true" d="M5.829853839086695,0L97.02728901805617,0C100.24487294245213,0,102.85714285714286,2.612269914690722,102.85714285714286,5.829853839086695L102.85714285714286,11.65970767817339C102.85714285714286,11.65970767817339,102.85714285714286,11.65970767817339,102.85714285714286,11.65970767817339L0,11.65970767817339C0,11.65970767817339,0,11.65970767817339,0,11.65970767817339L0,5.829853839086695C0,2.612269914690722,2.612269914690722,0,5.829853839086695,0Z"/><g clip-path="url(#clip11)"><g class="mark-group role-scope" role="graphics-object" aria-roledescription="group mark container"><g transform="translate(0,-588.3402923218266)"><path class="background" aria-hidden="true" d="M0,0h102.85714285714286v0h-102.85714285714286Z"/><g><g class="mark-rect role-mark layer_0_marks" role="graphics-object" aria-roledescription="rect mark container"><path aria-label="Parser: ryaml&#xA;v0.5.1; Execution Time (seconds, lower=better): 0.205781666667; parser: ryaml; Execution Time (s): 0.2058; Slowdown: 4.22" role="graphics-symbol" aria-roledescription="bar" d="M0,588.3402923218266h102.85714285714286v11.65970767817339h-102.85714285714286Z" fill="#66a61e"/></g></g><path class="foreground" aria-hidden="true" d="" display="none"/></g></g></g><path class="foreground" aria-hidden="true" d="" display="none"/></g><g transform="translate(348.57142857142856,586.2423353547828)"><path class="background" aria-hidden="true" d="M6,0L96.85714285714286,0C100.16863300410687,0,102.85714285714286,2.688509853036,102.85714285714286,6L102.85714285714286,13.757664645217233C102.85714285714286,13.757664645217233,102.85714285714286,13.757664645217233,102.85714285714286,13.757664645217233L0,13.757664645217233C0,13.757664645217233,0,13.757664645217233,0,13.757664645217233L0,6C0,2.688509853036,2.688509853036,0,6,0Z"/><g clip-path="url(#clip12)"><g class="mark-group role-scope" role="graphics-object" aria-roledescription="group mark container"><g transform="translate(0,-586.2423353547828)"><path class="background" aria-hidden="true" d="M0,0h102.85714285714286v0h-102.85714285714286Z"/><g><g class="mark-rect role-mark layer_0_marks" role="graphics-object" aria-roledescription="rect mark container"><path aria-label="Parser: PyYAML (CDumper)&#xA;v6.0.3; Execution Time (seconds, lower=better): 0.242808416667; parser: PyYAML (CDumper); Execution Time (s): 0.2428; Slowdown: 4.98" role="graphics-symbol" aria-roledescription="bar" d="M0,586.2423353547828h102.85714285714286v13.757664645217233h-102.85714285714286Z" fill="#d95f02"/></g></g><path class="foreground" aria-hidden="true" d="" display="none"/></g></g></g><path class="foreground" aria-hidden="true" d="" display="none"/></g><g transform="translate(462.85714285714283,57.554027122438846)"><path class="background" aria-hidden="true" d="M6,0L96.85714285714286,0C100.16863300410687,0,102.85714285714286,2.688509853036,102.85714285714286,6L102.85714285714286,542.4459728775612C102.85714285714286,542.4459728775612,102.85714285714286,542.4459728775612,102.85714285714286,542.4459728775612L0,542.4459728775612C0,542.4459728775612,0,542.4459728775612,0,542.4459728775612L0,6C0,2.688509853036,2.688509853036,0,6,0Z"/><g clip-path="url(#clip13)"><g class="mark-group role-scope" role="graphics-object" aria-roledescription="group mark container"><g transform="translate(0,-57.554027122438846)"><path class="background" aria-hidden="true" d="M0,0h102.85714285714286v0h-102.85714285714286Z"/><g><g class="mark-rect role-mark layer_0_marks" role="graphics-object" aria-roledescription="rect mark container"><path aria-label="Parser: oyaml&#xA;v1.0; Execution Time (seconds, lower=better): 9.57360505567; parser: oyaml; Execution Time (s): 9.5736; Slowdown: 196.26" role="graphics-symbol" aria-roledescription="bar" d="M0,57.554027122438846h102.85714285714286v542.4459728775612h-102.85714285714286Z" fill="#7570b3"/></g></g><path class="foreground" aria-hidden="true" d="" display="none"/></g></g></g><path class="foreground" aria-hidden="true" d="" display="none"/></g><g transform="translate(577.1428571428571,36.95249839881796)"><path class="background" aria-hidden="true" d="M6,0L96.85714285714286,0C100.16863300410687,0,102.85714285714286,2.688509853036,102.85714285714286,6L102.85714285714286,563.047501601182C102.85714285714286,563.047501601182,102.85714285714286,563.047501601182,102.85714285714286,563.047501601182L0,563.047501601182C0,563.047501601182,0,563.047501601182,0,563.047501601182L0,6C0,2.688509853036,2.688509853036,0,6,0Z"/><g clip-path="url(#clip14)"><g class="mark-group role-scope" role="graphics-object" aria-roledescription="group mark container"><g transform="translate(0,-36.95249839881796)"><path class="background" aria-hidden="true" d="M0,0h102.85714285714286v0h-102.85714285714286Z"/><g><g class="mark-rect role-mark layer_0_marks" role="graphics-object" aria-roledescription="rect mark container"><path aria-label="Parser: PyYAML&#xA;v6.0.3; Execution Time (seconds, lower=better): 9.93720052767; parser: PyYAML; Execution Time (s): 9.9372; Slowdown: 203.71" role="graphics-symbol" aria-roledescription="bar" d="M0,36.95249839881796h102.85714285714286v563.047501601182h-102.85714285714286Z" fill="#1b9e77"/></g></g><path class="foreground" aria-hidden="true" d="" display="none"/></g></g></g><path class="foreground" aria-hidden="true" d="" display="none"/></g><g transform="translate(691.4285714285714,23.076923076923062)"><path class="background" aria-hidden="true" d="M6,0L96.85714285714286,0C100.16863300410687,0,102.85714285714286,2.688509853036,102.85714285714286,6L102.85714285714286,576.9230769230769C102.85714285714286,576.9230769230769,102.85714285714286,576.9230769230769,102.85714285714286,576.9230769230769L0,576.9230769230769C0,576.9230769230769,0,576.9230769230769,0,576.9230769230769L0,6C0,2.688509853036,2.688509853036,0,6,0Z"/><g clip-path="url(#clip15)"><g class="mark-group role-scope" role="graphics-object" aria-roledescription="group mark container"><g transform="translate(0,-23.076923076923062)"><path class="background" aria-hidden="true" d="M0,0h102.85714285714286v0h-102.85714285714286Z"/><g><g class="mark-rect role-mark layer_0_marks" role="graphics-object" aria-roledescription="rect mark container"><path aria-label="Parser: ruamel.yaml&#xA;v0.19.1; Execution Time (seconds, lower=better): 10.1820899447; parser: ruamel.yaml; Execution Time (s): 10.1821; Slowdown: 208.73" role="graphics-symbol" aria-roledescription="bar" d="M0,23.076923076923062h102.85714285714286v576.9230769230769h-102.85714285714286Z" fill="#e7298a"/></g></g><path class="foreground" aria-hidden="true" d="" display="none"/></g></g></g><path class="foreground" aria-hidden="true" d="" display="none"/></g></g><g class="mark-text role-mark layer_1_marks" role="graphics-object" aria-roledescription="text mark container"><text aria-label="Parser: yamlrocks&#xA;v0.2.1; Execution Time (seconds, lower=better): 0.0487808193333; parser: yamlrocks; label: 0.0488s (x1.00); Execution Time (s): 0.0488; Slowdown: 1.00" role="graphics-symbol" aria-roledescription="text mark" text-anchor="middle" transform="translate(57.142857142857096,593.2360506990644)" font-family="sans-serif" font-size="9px" font-weight="bold" fill="#a6761d">0.0488s (x1.00)</text><text aria-label="Parser: yaml_rs&#xA;v0.1.4; Execution Time (seconds, lower=better): 0.0744053196667; parser: yaml_rs; label: 0.0744s (x1.53); Execution Time (s): 0.0744; Slowdown: 1.53" role="graphics-symbol" aria-roledescription="text mark" text-anchor="middle" transform="translate(171.4285714285714,591.7841517611014)" font-family="sans-serif" font-size="9px" font-weight="bold" fill="#e6ab02">0.0744s (x1.53)</text><text aria-label="Parser: ryaml&#xA;v0.5.1; Execution Time (seconds, lower=better): 0.205781666667; parser: ryaml; label: 0.2058s (x4.22); Execution Time (s): 0.2058; Slowdown: 4.22" role="graphics-symbol" aria-roledescription="text mark" text-anchor="middle" transform="translate(285.71428571428567,584.3402923218266)" font-family="sans-serif" font-size="9px" font-weight="bold" fill="#66a61e">0.2058s (x4.22)</text><text aria-label="Parser: PyYAML (CDumper)&#xA;v6.0.3; Execution Time (seconds, lower=better): 0.242808416667; parser: PyYAML (CDumper); label: 0.2428s (x4.98); Execution Time (s): 0.2428; Slowdown: 4.98" role="graphics-symbol" aria-roledescription="text mark" text-anchor="middle" transform="translate(400,582.2423353547828)" font-family="sans-serif" font-size="9px" font-weight="bold" fill="#d95f02">0.2428s (x4.98)</text><text aria-label="Parser: oyaml&#xA;v1.0; Execution Time (seconds, lower=better): 9.57360505567; parser: oyaml; label: 9.5736s (x196.26); Execution Time (s): 9.5736; Slowdown: 196.26" role="graphics-symbol" aria-roledescription="text mark" text-anchor="middle" transform="translate(514.2857142857142,53.554027122438846)" font-family="sans-serif" font-size="9px" font-weight="bold" fill="#7570b3">9.5736s (x196.26)</text><text aria-label="Parser: PyYAML&#xA;v6.0.3; Execution Time (seconds, lower=better): 9.93720052767; parser: PyYAML; label: 9.9372s (x203.71); Execution Time (s): 9.9372; Slowdown: 203.71" role="graphics-symbol" aria-roledescription="text mark" text-anchor="middle" transform="translate(628.5714285714286,32.95249839881796)" font-family="sans-serif" font-size="9px" font-weight="bold" fill="#1b9e77">9.9372s (x203.71)</text><text aria-label="Parser: ruamel.yaml&#xA;v0.19.1; Execution Time (seconds, lower=better): 10.1820899447; parser: ruamel.yaml; label: 10.1821s (x208.73); Execution Time (s): 10.1821; Slowdown: 208.73" role="graphics-symbol" aria-roledescription="text mark" text-anchor="middle" transform="translate(742.8571428571429,19.076923076923062)" font-family="sans-serif" font-size="9px" font-weight="bold" fill="#e7298a">10.1821s (x208.73)</text></g><g class="mark-group role-title"><g transform="translate(400,-31)"><path class="background" aria-hidden="true" d="M0,0h0v0h0Z" pointer-events="none"/><g><g class="mark-text role-title-text" role="graphics-symbol" aria-roledescription="title" aria-label="Title text 'YAML parsers benchmark (dumps)'" pointer-events="none"><text text-anchor="middle" transform="translate(0,10)" font-family="sans-serif" font-size="13px" font-weight="bold" fill="#000" opacity="1">YAML parsers benchmark (dumps)</text></g><g class="mark-text role-title-subtitle" role="graphics-symbol" aria-roledescription="subtitle" aria-label="Subtitle text 'Python: 3.14.6 (Darwin 24.6.0) | CPU: Apple M1 (Virtual)'" pointer-events="none"><text text-anchor="middle" transform="translate(0,25)" font-family="sans-serif" font-size="12px" fill="#000" opacity="1">Python: 3.14.6 (Darwin 24.6.0) | CPU: Apple M1 (Virtual)</text></g></g><path class="foreground" aria-hidden="true" d="" pointer-events="none" display="none"/></g></g></g><path class="foreground" aria-hidden="true" d="" display="none"/></g></g></g><defs><clipPath id="clip9"><path d="M1.3819746504677823,0L101.47516820667508,0C102.2379007797381,0,102.85714285714286,0.6192420774047692,102.85714285714286,1.3819746504677823L102.85714285714286,2.7639493009355647C102.85714285714286,2.7639493009355647,102.85714285714286,2.7639493009355647,102.85714285714286,2.7639493009355647L0,2.7639493009355647C0,2.7639493009355647,0,2.7639493009355647,0,2.7639493009355647L0,1.3819746504677823C0,0.6192420774047692,0.6192420774047692,0,1.3819746504677823,0Z"/></clipPath><clipPath id="clip10"><path d="M2.107924119449308,0L100.74921873769355,0C101.91261372971091,0,102.85714285714286,0.9445291274319498,102.85714285714286,2.107924119449308L102.85714285714286,4.215848238898616C102.85714285714286,4.215848238898616,102.85714285714286,4.215848238898616,102.85714285714286,4.215848238898616L0,4.215848238898616C0,4.215848238898616,0,4.215848238898616,0,4.215848238898616L0,2.107924119449308C0,0.9445291274319498,0.9445291274319498,0,2.107924119449308,0Z"/></clipPath><clipPath id="clip11"><path d="M5.829853839086695,0L97.02728901805617,0C100.24487294245213,0,102.85714285714286,2.612269914690722,102.85714285714286,5.829853839086695L102.85714285714286,11.65970767817339C102.85714285714286,11.65970767817339,102.85714285714286,11.65970767817339,102.85714285714286,11.65970767817339L0,11.65970767817339C0,11.65970767817339,0,11.65970767817339,0,11.65970767817339L0,5.829853839086695C0,2.612269914690722,2.612269914690722,0,5.829853839086695,0Z"/></clipPath><clipPath id="clip12"><path d="M6,0L96.85714285714286,0C100.16863300410687,0,102.85714285714286,2.688509853036,102.85714285714286,6L102.85714285714286,13.757664645217233C102.85714285714286,13.757664645217233,102.85714285714286,13.757664645217233,102.85714285714286,13.757664645217233L0,13.757664645217233C0,13.757664645217233,0,13.757664645217233,0,13.757664645217233L0,6C0,2.688509853036,2.688509853036,0,6,0Z"/></clipPath><clipPath id="clip13"><path d="M6,0L96.85714285714286,0C100.16863300410687,0,102.85714285714286,2.688509853036,102.85714285714286,6L102.85714285714286,542.4459728775612C102.85714285714286,542.4459728775612,102.85714285714286,542.4459728775612,102.85714285714286,542.4459728775612L0,542.4459728775612C0,542.4459728775612,0,542.4459728775612,0,542.4459728775612L0,6C0,2.688509853036,2.688509853036,0,6,0Z"/></clipPath><clipPath id="clip14"><path d="M6,0L96.85714285714286,0C100.16863300410687,0,102.85714285714286,2.688509853036,102.85714285714286,6L102.85714285714286,563.047501601182C102.85714285714286,563.047501601182,102.85714285714286,563.047501601182,102.85714285714286,563.047501601182L0,563.047501601182C0,563.047501601182,0,563.047501601182,0,563.047501601182L0,6C0,2.688509853036,2.688509853036,0,6,0Z"/></clipPath><clipPath id="clip15"><path d="M6,0L96.85714285714286,0C100.16863300410687,0,102.85714285714286,2.688509853036,102.85714285714286,6L102.85714285714286,576.9230769230769C102.85714285714286,576.9230769230769,102.85714285714286,576.9230769230769,102.85714285714286,576.9230769230769L0,576.9230769230769C0,576.9230769230769,0,576.9230769230769,0,576.9230769230769L0,6C0,2.688509853036,2.688509853036,0,6,0Z"/></clipPath></defs></svg>