<svg xmlns="http://www.w3.org/2000/svg" xmlns:xlink="http://www.w3.org/1999/xlink" version="1.1" class="marks" width="844" height="687" viewBox="0 0 844 687"><rect width="844" height="687" fill="white"/><g fill="none" stroke-miterlimit="10" transform="translate(39,36)"><g class="mark-group role-frame root" role="graphics-object" aria-roledescription="group mark container"><g transform="translate(0,0)"><path class="background" aria-hidden="true" d="M0.5,0.5h800v600h-800Z" stroke="#ddd"/><g><g class="mark-group role-axis" role="graphics-symbol" aria-roledescription="axis" aria-label="X-axis titled 'Parser' for a discrete scale with 8 values: yaml_rs (parse_dt=False)&#xA;0.1.4, yaml_rs&#xA;0.1.4, yamlrocks&#xA;0.5.0, ryaml&#xA;0.5.1, PyYAML (CLoader)&#xA;6.0.3, ending with ruamel.yaml&#xA;0.19.1"><g transform="translate(0.5,600.5)"><path class="background" aria-hidden="true" d="M0,0h0v0h0Z" pointer-events="none"/><g><g class="mark-rule role-axis-tick" pointer-events="none"><line transform="translate(50,0)" x2="0" y2="5" stroke="#888" stroke-width="1" opacity="1"/><line transform="translate(150,0)" x2="0" y2="5" stroke="#888" stroke-width="1" opacity="1"/><line transform="translate(250,0)" x2="0" y2="5" stroke="#888" stroke-width="1" opacity="1"/><line transform="translate(350,0)" x2="0" y2="5" stroke="#888" stroke-width="1" opacity="1"/><line transform="translate(450,0)" x2="0" y2="5" stroke="#888" stroke-width="1" opacity="1"/><line transform="translate(550,0)" x2="0" y2="5" stroke="#888" stroke-width="1" opacity="1"/><line transform="translate(650,0)" x2="0" y2="5" stroke="#888" stroke-width="1" opacity="1"/><line transform="translate(750,0)" x2="0" y2="5" stroke="#888" stroke-width="1" opacity="1"/></g><g class="mark-text role-axis-label" pointer-events="none"><text text-anchor="middle" transform="translate(49.5,15)" font-family="sans-serif" font-size="10px" fill="#000" opacity="1"><tspan>yaml_rs (parse_dt=False)</tspan><tspan x="0" dy="14">0.1.4</tspan></text><text text-anchor="middle" transform="translate(149.5,15)" font-family="sans-serif" font-size="10px" fill="#000" opacity="1"><tspan>yaml_rs</tspan><tspan x="0" dy="14">0.1.4</tspan></text><text text-anchor="middle" transform="translate(249.5,15)" font-family="sans-serif" font-size="10px" fill="#000" opacity="1"><tspan>yamlrocks</tspan><tspan x="0" dy="14">0.5.0</tspan></text><text text-anchor="middle" transform="translate(349.5,15)" font-family="sans-serif" font-size="10px" fill="#000" opacity="1"><tspan>ryaml</tspan><tspan x="0" dy="14">0.5.1</tspan></text><text text-anchor="middle" transform="translate(449.5,15)" font-family="sans-serif" font-size="10px" fill="#000" opacity="1"><tspan>PyYAML (CLoader)</tspan><tspan x="0" dy="14">6.0.3</tspan></text><text text-anchor="middle" transform="translate(549.5,15)" font-family="sans-serif" font-size="10px" fill="#000" opacity="1"><tspan>oyaml</tspan><tspan x="0" dy="14">1.0</tspan></text><text text-anchor="middle" transform="translate(649.5,15)" font-family="sans-serif" font-size="10px" fill="#000" opacity="1"><tspan>PyYAML</tspan><tspan x="0" dy="14">6.0.3</tspan></text><text text-anchor="middle" transform="translate(749.5,15)" font-family="sans-serif" font-size="10px" fill="#000" opacity="1"><tspan>ruamel.yaml</tspan><tspan x="0" dy="14">0.19.1</tspan></text></g><g class="mark-rule role-axis-domain" pointer-events="none"><line transform="translate(0,0)" x2="800" y2="0" stroke="#888" stroke-width="1" opacity="1"/></g><g class="mark-text role-axis-title" pointer-events="none"><text text-anchor="middle" transform="translate(400,44)" font-family="sans-serif" font-size="11px" font-weight="bold" fill="#000" opacity="1">Parser</text></g></g><path class="foreground" aria-hidden="true" d="" pointer-events="none" display="none"/></g></g><g class="mark-group role-axis" role="graphics-symbol" aria-roledescription="axis" aria-label="Y-axis titled 'Execution Time (seconds, lower=better)' for a linear scale with values from 0 to 28"><g transform="translate(0.5,0.5)"><path class="background" aria-hidden="true" d="M0,0h0v0h0Z" pointer-events="none"/><g><g class="mark-rule role-axis-tick" pointer-events="none"><line transform="translate(0,600)" x2="-5" y2="0" stroke="#888" stroke-width="1" opacity="1"/><line transform="translate(0,557)" x2="-5" y2="0" stroke="#888" stroke-width="1" opacity="1"/><line transform="translate(0,514)" x2="-5" y2="0" stroke="#888" stroke-width="1" opacity="1"/><line transform="translate(0,471)" x2="-5" y2="0" stroke="#888" stroke-width="1" opacity="1"/><line transform="translate(0,429)" x2="-5" y2="0" stroke="#888" stroke-width="1" opacity="1"/><line transform="translate(0,386)" x2="-5" y2="0" stroke="#888" stroke-width="1" opacity="1"/><line transform="translate(0,343)" x2="-5" y2="0" stroke="#888" stroke-width="1" opacity="1"/><line transform="translate(0,300)" x2="-5" y2="0" stroke="#888" stroke-width="1" opacity="1"/><line transform="translate(0,257)" x2="-5" y2="0" stroke="#888" stroke-width="1" opacity="1"/><line transform="translate(0,214)" x2="-5" y2="0" stroke="#888" stroke-width="1" opacity="1"/><line transform="translate(0,171)" x2="-5" y2="0" stroke="#888" stroke-width="1" opacity="1"/><line transform="translate(0,128)" x2="-5" y2="0" stroke="#888" stroke-width="1" opacity="1"/><line transform="translate(0,86)" x2="-5" y2="0" stroke="#888" stroke-width="1" opacity="1"/><line transform="translate(0,43)" x2="-5" y2="0" stroke="#888" stroke-width="1" opacity="1"/></g><g class="mark-text role-axis-label" pointer-events="none"><text text-anchor="end" transform="translate(-7,603)" font-family="sans-serif" font-size="10px" fill="#000" opacity="1">0</text><text text-anchor="end" transform="translate(-7,560.1327153461293)" font-family="sans-serif" font-size="10px" fill="#000" opacity="1">2</text><text text-anchor="end" transform="translate(-7,517.2654306922585)" font-family="sans-serif" font-size="10px" fill="#000" opacity="1">4</text><text text-anchor="end" transform="translate(-7,474.39814603838784)" font-family="sans-serif" font-size="10px" fill="#000" opacity="1">6</text><text text-anchor="end" transform="translate(-7,431.5308613845171)" font-family="sans-serif" font-size="10px" fill="#000" opacity="1">8</text><text text-anchor="end" transform="translate(-7,388.66357673064635)" font-family="sans-serif" font-size="10px" fill="#000" opacity="1">10</text><text text-anchor="end" transform="translate(-7,345.7962920767756)" font-family="sans-serif" font-size="10px" fill="#000" opacity="1">12</text><text text-anchor="end" transform="translate(-7,302.9290074229049)" font-family="sans-serif" font-size="10px" fill="#000" opacity="1">14</text><text text-anchor="end" transform="translate(-7,260.06172276903425)" font-family="sans-serif" font-size="10px" fill="#000" opacity="1">16</text><text text-anchor="end" transform="translate(-7,217.1944381151635)" font-family="sans-serif" font-size="10px" fill="#000" opacity="1">18</text><text text-anchor="end" transform="translate(-7,174.32715346129277)" font-family="sans-serif" font-size="10px" fill="#000" opacity="1">20</text><text text-anchor="end" transform="translate(-7,131.45986880742203)" font-family="sans-serif" font-size="10px" fill="#000" opacity="1">22</text><text text-anchor="end" transform="translate(-7,88.59258415355131)" font-family="sans-serif" font-size="10px" fill="#000" opacity="1">24</text><text text-anchor="end" transform="translate(-7,45.72529949968058)" font-family="sans-serif" font-size="10px" fill="#000" opacity="1">26</text></g><g class="mark-rule role-axis-domain" pointer-events="none"><line transform="translate(0,600)" x2="0" y2="-600" stroke="#888" stroke-width="1" opacity="1"/></g><g class="mark-text role-axis-title" pointer-events="none"><text text-anchor="middle" transform="translate(-22.123046875,300) rotate(-90) translate(0,-2)" font-family="sans-serif" font-size="11px" font-weight="bold" fill="#000" opacity="1">Execution Time (seconds, lower=better)</text></g></g><path class="foreground" aria-hidden="true" d="" pointer-events="none" display="none"/></g></g><g class="mark-group role-scope" role="graphics-object" aria-roledescription="group mark container"><g transform="translate(5,592.3370352645903)"><path class="background" aria-hidden="true" d="M3.8314823677048366,0L86.16851763229516,0C88.2831703171153,0,90,1.7168296828846927,90,3.8314823677048366L90,7.662964735409673C90,7.662964735409673,90,7.662964735409673,90,7.662964735409673L0,7.662964735409673C0,7.662964735409673,0,7.662964735409673,0,7.662964735409673L0,3.8314823677048366C0,1.7168296828846927,1.7168296828846927,0,3.8314823677048366,0Z"/><g clip-path="url(#clip1)"><g class="mark-group role-scope" role="graphics-object" aria-roledescription="group mark container"><g transform="translate(0,-592.3370352645903)"><path class="background" aria-hidden="true" d="M0,0h90v0h-90Z"/><g><g class="mark-rect role-mark layer_0_marks" role="graphics-object" aria-roledescription="rect mark container"><path aria-label="Parser: yaml_rs (parse_dt=False)&#xA;0.1.4; Execution Time (seconds, lower=better): 0.357520416667; parser: yaml_rs (parse_dt=False); Execution Time (s): 0.3575; Slowdown: 1.00" role="graphics-symbol" aria-roledescription="bar" d="M0,592.3370352645903h90v7.662964735409673h-90Z" fill="#a6761d"/></g></g><path class="foreground" aria-hidden="true" d="" display="none"/></g></g></g><path class="foreground" aria-hidden="true" d="" display="none"/></g><g transform="translate(105,591.9256054832321)"><path class="background" aria-hidden="true" d="M4.037197258383969,0L85.96280274161603,0C88.19099256536413,0,90,1.8090074346358713,90,4.037197258383969L90,8.074394516767939C90,8.074394516767939,90,8.074394516767939,90,8.074394516767939L0,8.074394516767939C0,8.074394516767939,0,8.074394516767939,0,8.074394516767939L0,4.037197258383969C0,1.8090074346358713,1.8090074346358713,0,4.037197258383969,0Z"/><g clip-path="url(#clip2)"><g class="mark-group role-scope" role="graphics-object" aria-roledescription="group mark container"><g transform="translate(0,-591.9256054832321)"><path class="background" aria-hidden="true" d="M0,0h90v0h-90Z"/><g><g class="mark-rect role-mark layer_0_marks" role="graphics-object" aria-roledescription="rect mark container"><path aria-label="Parser: yaml_rs&#xA;0.1.4; Execution Time (seconds, lower=better): 0.376715930667; parser: yaml_rs; Execution Time (s): 0.3767; Slowdown: 1.05" role="graphics-symbol" aria-roledescription="bar" d="M0,591.9256054832321h90v8.074394516767939h-90Z" fill="#e6ab02"/></g></g><path class="foreground" aria-hidden="true" d="" display="none"/></g></g></g><path class="foreground" aria-hidden="true" d="" display="none"/></g><g transform="translate(205,591.8750872884804)"><path class="background" aria-hidden="true" d="M4.062456355759821,0L85.93754364424018,0C88.17967434333517,0,90,1.8203256566648334,90,4.062456355759821L90,8.124912711519642C90,8.124912711519642,90,8.124912711519642,90,8.124912711519642L0,8.124912711519642C0,8.124912711519642,0,8.124912711519642,0,8.124912711519642L0,4.062456355759821C0,1.8203256566648334,1.8203256566648334,0,4.062456355759821,0Z"/><g clip-path="url(#clip3)"><g class="mark-group role-scope" role="graphics-object" aria-roledescription="group mark container"><g transform="translate(0,-591.8750872884804)"><path class="background" aria-hidden="true" d="M0,0h90v0h-90Z"/><g><g class="mark-rect role-mark layer_0_marks" role="graphics-object" aria-roledescription="rect mark container"><path aria-label="Parser: yamlrocks&#xA;0.5.0; Execution Time (seconds, lower=better): 0.379072888667; parser: yamlrocks; Execution Time (s): 0.3791; Slowdown: 1.06" role="graphics-symbol" aria-roledescription="bar" d="M0,591.8750872884804h90v8.124912711519642h-90Z" fill="#666666"/></g></g><path class="foreground" aria-hidden="true" d="" display="none"/></g></g></g><path class="foreground" aria-hidden="true" d="" display="none"/></g><g transform="translate(305,581.9725105495077)"><path class="background" aria-hidden="true" d="M6,0L84,0C87.311490146964,0,90,2.688509853036,90,6L90,18.02748945049234C90,18.02748945049234,90,18.02748945049234,90,18.02748945049234L0,18.02748945049234C0,18.02748945049234,0,18.02748945049234,0,18.02748945049234L0,6C0,2.688509853036,2.688509853036,0,6,0Z"/><g clip-path="url(#clip4)"><g class="mark-group role-scope" role="graphics-object" aria-roledescription="group mark container"><g transform="translate(0,-581.9725105495077)"><path class="background" aria-hidden="true" d="M0,0h90v0h-90Z"/><g><g class="mark-rect role-mark layer_0_marks" role="graphics-object" aria-roledescription="rect mark container"><path aria-label="Parser: ryaml&#xA;0.5.1; Execution Time (seconds, lower=better): 0.841083805333; parser: ryaml; Execution Time (s): 0.8411; Slowdown: 2.35" role="graphics-symbol" aria-roledescription="bar" d="M0,581.9725105495077h90v18.02748945049234h-90Z" fill="#66a61e"/></g></g><path class="foreground" aria-hidden="true" d="" display="none"/></g></g></g><path class="foreground" aria-hidden="true" d="" display="none"/></g><g transform="translate(405,552.4988946350264)"><path class="background" aria-hidden="true" d="M6,0L84,0C87.311490146964,0,90,2.688509853036,90,6L90,47.50110536497357C90,47.50110536497357,90,47.50110536497357,90,47.50110536497357L0,47.50110536497357C0,47.50110536497357,0,47.50110536497357,0,47.50110536497357L0,6C0,2.688509853036,2.688509853036,0,6,0Z"/><g clip-path="url(#clip5)"><g class="mark-group role-scope" role="graphics-object" aria-roledescription="group mark container"><g transform="translate(0,-552.4988946350264)"><path class="background" aria-hidden="true" d="M0,0h90v0h-90Z"/><g><g class="mark-rect role-mark layer_0_marks" role="graphics-object" aria-roledescription="rect mark container"><path aria-label="Parser: PyYAML (CLoader)&#xA;6.0.3; Execution Time (seconds, lower=better): 2.216193806; parser: PyYAML (CLoader); Execution Time (s): 2.2162; Slowdown: 6.20" role="graphics-symbol" aria-roledescription="bar" d="M0,552.4988946350264h90v47.50110536497357h-90Z" fill="#d95f02"/></g></g><path class="foreground" aria-hidden="true" d="" display="none"/></g></g></g><path class="foreground" aria-hidden="true" d="" display="none"/></g><g transform="translate(505,169.86537370332925)"><path class="background" aria-hidden="true" d="M6,0L84,0C87.311490146964,0,90,2.688509853036,90,6L90,430.1346262966707C90,430.1346262966707,90,430.1346262966707,90,430.1346262966707L0,430.1346262966707C0,430.1346262966707,0,430.1346262966707,0,430.1346262966707L0,6C0,2.688509853036,2.688509853036,0,6,0Z"/><g clip-path="url(#clip6)"><g class="mark-group role-scope" role="graphics-object" aria-roledescription="group mark container"><g transform="translate(0,-169.86537370332925)"><path class="background" aria-hidden="true" d="M0,0h90v0h-90Z"/><g><g class="mark-rect role-mark layer_0_marks" role="graphics-object" aria-roledescription="rect mark container"><path aria-label="Parser: oyaml&#xA;1.0; Execution Time (seconds, lower=better): 20.0682002497; parser: oyaml; Execution Time (s): 20.0682; Slowdown: 56.13" role="graphics-symbol" aria-roledescription="bar" d="M0,169.86537370332925h90v430.1346262966707h-90Z" fill="#7570b3"/></g></g><path class="foreground" aria-hidden="true" d="" display="none"/></g></g></g><path class="foreground" aria-hidden="true" d="" display="none"/></g><g transform="translate(605,104.38688687127922)"><path class="background" aria-hidden="true" d="M6,0L84,0C87.311490146964,0,90,2.688509853036,90,6L90,495.6131131287208C90,495.6131131287208,90,495.6131131287208,90,495.6131131287208L0,495.6131131287208C0,495.6131131287208,0,495.6131131287208,0,495.6131131287208L0,6C0,2.688509853036,2.688509853036,0,6,0Z"/><g clip-path="url(#clip7)"><g class="mark-group role-scope" role="graphics-object" aria-roledescription="group mark container"><g transform="translate(0,-104.38688687127922)"><path class="background" aria-hidden="true" d="M0,0h90v0h-90Z"/><g><g class="mark-rect role-mark layer_0_marks" role="graphics-object" aria-roledescription="rect mark container"><path aria-label="Parser: PyYAML&#xA;6.0.3; Execution Time (seconds, lower=better): 23.1231400417; parser: PyYAML; Execution Time (s): 23.1231; Slowdown: 64.68" role="graphics-symbol" aria-roledescription="bar" d="M0,104.38688687127922h90v495.6131131287208h-90Z" fill="#1b9e77"/></g></g><path class="foreground" aria-hidden="true" d="" display="none"/></g></g></g><path class="foreground" aria-hidden="true" d="" display="none"/></g><g transform="translate(705,28.571428571428605)"><path class="background" aria-hidden="true" d="M6,0L84,0C87.311490146964,0,90,2.688509853036,90,6L90,571.4285714285714C90,571.4285714285714,90,571.4285714285714,90,571.4285714285714L0,571.4285714285714C0,571.4285714285714,0,571.4285714285714,0,571.4285714285714L0,6C0,2.688509853036,2.688509853036,0,6,0Z"/><g clip-path="url(#clip8)"><g class="mark-group role-scope" role="graphics-object" aria-roledescription="group mark container"><g transform="translate(0,-28.571428571428605)"><path class="background" aria-hidden="true" d="M0,0h90v0h-90Z"/><g><g class="mark-rect role-mark layer_0_marks" role="graphics-object" aria-roledescription="rect mark container"><path aria-label="Parser: ruamel.yaml&#xA;0.19.1; Execution Time (seconds, lower=better): 26.6603577083; parser: ruamel.yaml; Execution Time (s): 26.6604; Slowdown: 74.57" role="graphics-symbol" aria-roledescription="bar" d="M0,28.571428571428605h90v571.4285714285714h-90Z" fill="#e7298a"/></g></g><path class="foreground" aria-hidden="true" d="" display="none"/></g></g></g><path class="foreground" aria-hidden="true" d="" display="none"/></g></g><g class="mark-text role-mark layer_1_marks" role="graphics-object" aria-roledescription="text mark container"><text aria-label="Parser: yaml_rs (parse_dt=False)&#xA;0.1.4; Execution Time (seconds, lower=better): 0.357520416667; parser: yaml_rs (parse_dt=False); label: 0.3575s (x1.00); Execution Time (s): 0.3575; Slowdown: 1.00" role="graphics-symbol" aria-roledescription="text mark" text-anchor="middle" transform="translate(50,588.3370352645903)" font-family="sans-serif" font-size="9px" font-weight="bold" fill="#a6761d">0.3575s (x1.00)</text><text aria-label="Parser: yaml_rs&#xA;0.1.4; Execution Time (seconds, lower=better): 0.376715930667; parser: yaml_rs; label: 0.3767s (x1.05); Execution Time (s): 0.3767; Slowdown: 1.05" role="graphics-symbol" aria-roledescription="text mark" text-anchor="middle" transform="translate(150,587.9256054832321)" font-family="sans-serif" font-size="9px" font-weight="bold" fill="#e6ab02">0.3767s (x1.05)</text><text aria-label="Parser: yamlrocks&#xA;0.5.0; Execution Time (seconds, lower=better): 0.379072888667; parser: yamlrocks; label: 0.3791s (x1.06); Execution Time (s): 0.3791; Slowdown: 1.06" role="graphics-symbol" aria-roledescription="text mark" text-anchor="middle" transform="translate(250,587.8750872884804)" font-family="sans-serif" font-size="9px" font-weight="bold" fill="#666666">0.3791s (x1.06)</text><text aria-label="Parser: ryaml&#xA;0.5.1; Execution Time (seconds, lower=better): 0.841083805333; parser: ryaml; label: 0.8411s (x2.35); Execution Time (s): 0.8411; Slowdown: 2.35" role="graphics-symbol" aria-roledescription="text mark" text-anchor="middle" transform="translate(350,577.9725105495077)" font-family="sans-serif" font-size="9px" font-weight="bold" fill="#66a61e">0.8411s (x2.35)</text><text aria-label="Parser: PyYAML (CLoader)&#xA;6.0.3; Execution Time (seconds, lower=better): 2.216193806; parser: PyYAML (CLoader); label: 2.2162s (x6.20); Execution Time (s): 2.2162; Slowdown: 6.20" role="graphics-symbol" aria-roledescription="text mark" text-anchor="middle" transform="translate(450,548.4988946350264)" font-family="sans-serif" font-size="9px" font-weight="bold" fill="#d95f02">2.2162s (x6.20)</text><text aria-label="Parser: oyaml&#xA;1.0; Execution Time (seconds, lower=better): 20.0682002497; parser: oyaml; label: 20.0682s (x56.13); Execution Time (s): 20.0682; Slowdown: 56.13" role="graphics-symbol" aria-roledescription="text mark" text-anchor="middle" transform="translate(550,165.86537370332925)" font-family="sans-serif" font-size="9px" font-weight="bold" fill="#7570b3">20.0682s (x56.13)</text><text aria-label="Parser: PyYAML&#xA;6.0.3; Execution Time (seconds, lower=better): 23.1231400417; parser: PyYAML; label: 23.1231s (x64.68); Execution Time (s): 23.1231; Slowdown: 64.68" role="graphics-symbol" aria-roledescription="text mark" text-anchor="middle" transform="translate(650,100.38688687127922)" font-family="sans-serif" font-size="9px" font-weight="bold" fill="#1b9e77">23.1231s (x64.68)</text><text aria-label="Parser: ruamel.yaml&#xA;0.19.1; Execution Time (seconds, lower=better): 26.6603577083; parser: ruamel.yaml; label: 26.6604s (x74.57); Execution Time (s): 26.6604; Slowdown: 74.57" role="graphics-symbol" aria-roledescription="text mark" text-anchor="middle" transform="translate(750,24.571428571428605)" font-family="sans-serif" font-size="9px" font-weight="bold" fill="#e7298a">26.6604s (x74.57)</text></g><g class="mark-group role-title"><g transform="translate(400,-31)"><path class="background" aria-hidden="true" d="M0,0h0v0h0Z" pointer-events="none"/><g><g class="mark-text role-title-text" role="graphics-symbol" aria-roledescription="title" aria-label="Title text 'YAML parsers benchmark (loads)'" pointer-events="none"><text text-anchor="middle" transform="translate(0,10)" font-family="sans-serif" font-size="13px" font-weight="bold" fill="#000" opacity="1">YAML parsers benchmark (loads)</text></g><g class="mark-text role-title-subtitle" role="graphics-symbol" aria-roledescription="subtitle" aria-label="Subtitle text 'Python: 3.14.6 (Darwin 24.6.0) | CPU: Unknown'" pointer-events="none"><text text-anchor="middle" transform="translate(0,25)" font-family="sans-serif" font-size="12px" fill="#000" opacity="1">Python: 3.14.6 (Darwin 24.6.0) | CPU: Unknown</text></g></g><path class="foreground" aria-hidden="true" d="" pointer-events="none" display="none"/></g></g></g><path class="foreground" aria-hidden="true" d="" display="none"/></g></g></g><defs><clipPath id="clip1"><path d="M3.8314823677048366,0L86.16851763229516,0C88.2831703171153,0,90,1.7168296828846927,90,3.8314823677048366L90,7.662964735409673C90,7.662964735409673,90,7.662964735409673,90,7.662964735409673L0,7.662964735409673C0,7.662964735409673,0,7.662964735409673,0,7.662964735409673L0,3.8314823677048366C0,1.7168296828846927,1.7168296828846927,0,3.8314823677048366,0Z"/></clipPath><clipPath id="clip2"><path d="M4.037197258383969,0L85.96280274161603,0C88.19099256536413,0,90,1.8090074346358713,90,4.037197258383969L90,8.074394516767939C90,8.074394516767939,90,8.074394516767939,90,8.074394516767939L0,8.074394516767939C0,8.074394516767939,0,8.074394516767939,0,8.074394516767939L0,4.037197258383969C0,1.8090074346358713,1.8090074346358713,0,4.037197258383969,0Z"/></clipPath><clipPath id="clip3"><path d="M4.062456355759821,0L85.93754364424018,0C88.17967434333517,0,90,1.8203256566648334,90,4.062456355759821L90,8.124912711519642C90,8.124912711519642,90,8.124912711519642,90,8.124912711519642L0,8.124912711519642C0,8.124912711519642,0,8.124912711519642,0,8.124912711519642L0,4.062456355759821C0,1.8203256566648334,1.8203256566648334,0,4.062456355759821,0Z"/></clipPath><clipPath id="clip4"><path d="M6,0L84,0C87.311490146964,0,90,2.688509853036,90,6L90,18.02748945049234C90,18.02748945049234,90,18.02748945049234,90,18.02748945049234L0,18.02748945049234C0,18.02748945049234,0,18.02748945049234,0,18.02748945049234L0,6C0,2.688509853036,2.688509853036,0,6,0Z"/></clipPath><clipPath id="clip5"><path d="M6,0L84,0C87.311490146964,0,90,2.688509853036,90,6L90,47.50110536497357C90,47.50110536497357,90,47.50110536497357,90,47.50110536497357L0,47.50110536497357C0,47.50110536497357,0,47.50110536497357,0,47.50110536497357L0,6C0,2.688509853036,2.688509853036,0,6,0Z"/></clipPath><clipPath id="clip6"><path d="M6,0L84,0C87.311490146964,0,90,2.688509853036,90,6L90,430.1346262966707C90,430.1346262966707,90,430.1346262966707,90,430.1346262966707L0,430.1346262966707C0,430.1346262966707,0,430.1346262966707,0,430.1346262966707L0,6C0,2.688509853036,2.688509853036,0,6,0Z"/></clipPath><clipPath id="clip7"><path d="M6,0L84,0C87.311490146964,0,90,2.688509853036,90,6L90,495.6131131287208C90,495.6131131287208,90,495.6131131287208,90,495.6131131287208L0,495.6131131287208C0,495.6131131287208,0,495.6131131287208,0,495.6131131287208L0,6C0,2.688509853036,2.688509853036,0,6,0Z"/></clipPath><clipPath id="clip8"><path d="M6,0L84,0C87.311490146964,0,90,2.688509853036,90,6L90,571.4285714285714C90,571.4285714285714,90,571.4285714285714,90,571.4285714285714L0,571.4285714285714C0,571.4285714285714,0,571.4285714285714,0,571.4285714285714L0,6C0,2.688509853036,2.688509853036,0,6,0Z"/></clipPath></defs></svg>