<svg xmlns="http://www.w3.org/2000/svg" xmlns:xlink="http://www.w3.org/1999/xlink" version="1.1" class="marks" width="846" height="687" viewBox="0 0 846 687"><rect width="846" height="687" fill="white"/><g fill="none" stroke-miterlimit="10" transform="translate(41,36)"><g class="mark-group role-frame root" role="graphics-object" aria-roledescription="group mark container"><g transform="translate(0,0)"><path class="background" aria-hidden="true" d="M0.5,0.5h800v600h-800Z" stroke="#ddd"/><g><g class="mark-group role-axis" role="graphics-symbol" aria-roledescription="axis" aria-label="X-axis titled 'Parser' for a discrete scale with 7 values: yamlrocks&#xA;0.6.1, yaml_rs&#xA;0.1.6, ryaml&#xA;0.5.1, PyYAML (CDumper)&#xA;6.0.3, oyaml&#xA;1.0, PyYAML&#xA;6.0.3, ruamel.yaml&#xA;0.19.1"><g transform="translate(0.5,600.5)"><path class="background" aria-hidden="true" d="M0,0h0v0h0Z" pointer-events="none"/><g><g class="mark-rule role-axis-tick" pointer-events="none"><line transform="translate(57,0)" x2="0" y2="5" stroke="#888" stroke-width="1" opacity="1"/><line transform="translate(171,0)" x2="0" y2="5" stroke="#888" stroke-width="1" opacity="1"/><line transform="translate(285,0)" x2="0" y2="5" stroke="#888" stroke-width="1" opacity="1"/><line transform="translate(400,0)" x2="0" y2="5" stroke="#888" stroke-width="1" opacity="1"/><line transform="translate(514,0)" x2="0" y2="5" stroke="#888" stroke-width="1" opacity="1"/><line transform="translate(628,0)" x2="0" y2="5" stroke="#888" stroke-width="1" opacity="1"/><line transform="translate(742,0)" x2="0" y2="5" stroke="#888" stroke-width="1" opacity="1"/></g><g class="mark-text role-axis-label" pointer-events="none"><text text-anchor="middle" transform="translate(56.642857142857096,15)" font-family="sans-serif" font-size="10px" fill="#000" opacity="1"><tspan>yamlrocks</tspan><tspan x="0" dy="14">0.6.1</tspan></text><text text-anchor="middle" transform="translate(170.9285714285714,15)" font-family="sans-serif" font-size="10px" fill="#000" opacity="1"><tspan>yaml_rs</tspan><tspan x="0" dy="14">0.1.6</tspan></text><text text-anchor="middle" transform="translate(285.21428571428567,15)" font-family="sans-serif" font-size="10px" fill="#000" opacity="1"><tspan>ryaml</tspan><tspan x="0" dy="14">0.5.1</tspan></text><text text-anchor="middle" transform="translate(399.5,15)" font-family="sans-serif" font-size="10px" fill="#000" opacity="1"><tspan>PyYAML (CDumper)</tspan><tspan x="0" dy="14">6.0.3</tspan></text><text text-anchor="middle" transform="translate(513.7857142857142,15)" font-family="sans-serif" font-size="10px" fill="#000" opacity="1"><tspan>oyaml</tspan><tspan x="0" dy="14">1.0</tspan></text><text text-anchor="middle" transform="translate(628.0714285714286,15)" font-family="sans-serif" font-size="10px" fill="#000" opacity="1"><tspan>PyYAML</tspan><tspan x="0" dy="14">6.0.3</tspan></text><text text-anchor="middle" transform="translate(742.3571428571429,15)" font-family="sans-serif" font-size="10px" fill="#000" opacity="1"><tspan>ruamel.yaml</tspan><tspan x="0" dy="14">0.19.1</tspan></text></g><g class="mark-rule role-axis-domain" pointer-events="none"><line transform="translate(0,0)" x2="800" y2="0" stroke="#888" stroke-width="1" opacity="1"/></g><g class="mark-text role-axis-title" pointer-events="none"><text text-anchor="middle" transform="translate(400,44)" font-family="sans-serif" font-size="11px" font-weight="bold" fill="#000" opacity="1">Parser</text></g></g><path class="foreground" aria-hidden="true" d="" pointer-events="none" display="none"/></g></g><g class="mark-group role-axis" role="graphics-symbol" aria-roledescription="axis" aria-label="Y-axis titled 'Execution Time (seconds, lower=better)' for a linear scale with values from 0 to 10"><g transform="translate(0.5,0.5)"><path class="background" aria-hidden="true" d="M0,0h0v0h0Z" pointer-events="none"/><g><g class="mark-rule role-axis-tick" pointer-events="none"><line transform="translate(0,600)" x2="-5" y2="0" stroke="#888" stroke-width="1" opacity="1"/><line transform="translate(0,570)" x2="-5" y2="0" stroke="#888" stroke-width="1" opacity="1"/><line transform="translate(0,540)" x2="-5" y2="0" stroke="#888" stroke-width="1" opacity="1"/><line transform="translate(0,510)" x2="-5" y2="0" stroke="#888" stroke-width="1" opacity="1"/><line transform="translate(0,479)" x2="-5" y2="0" stroke="#888" stroke-width="1" opacity="1"/><line transform="translate(0,449)" x2="-5" y2="0" stroke="#888" stroke-width="1" opacity="1"/><line transform="translate(0,419)" x2="-5" y2="0" stroke="#888" stroke-width="1" opacity="1"/><line transform="translate(0,389)" x2="-5" y2="0" stroke="#888" stroke-width="1" opacity="1"/><line transform="translate(0,359)" x2="-5" y2="0" stroke="#888" stroke-width="1" opacity="1"/><line transform="translate(0,329)" x2="-5" y2="0" stroke="#888" stroke-width="1" opacity="1"/><line transform="translate(0,299)" x2="-5" y2="0" stroke="#888" stroke-width="1" opacity="1"/><line transform="translate(0,269)" x2="-5" y2="0" stroke="#888" stroke-width="1" opacity="1"/><line transform="translate(0,238)" x2="-5" y2="0" stroke="#888" stroke-width="1" opacity="1"/><line transform="translate(0,208)" x2="-5" y2="0" stroke="#888" stroke-width="1" opacity="1"/><line transform="translate(0,178)" x2="-5" y2="0" stroke="#888" stroke-width="1" opacity="1"/><line transform="translate(0,148)" x2="-5" y2="0" stroke="#888" stroke-width="1" opacity="1"/><line transform="translate(0,118)" x2="-5" y2="0" stroke="#888" stroke-width="1" opacity="1"/><line transform="translate(0,88)" x2="-5" y2="0" stroke="#888" stroke-width="1" opacity="1"/><line transform="translate(0,58)" x2="-5" y2="0" stroke="#888" stroke-width="1" opacity="1"/><line transform="translate(0,28)" x2="-5" y2="0" stroke="#888" stroke-width="1" opacity="1"/></g><g class="mark-text role-axis-label" pointer-events="none"><text text-anchor="end" transform="translate(-7,603)" font-family="sans-serif" font-size="10px" fill="#000" opacity="1">0.0</text><text text-anchor="end" transform="translate(-7,572.8747885435442)" font-family="sans-serif" font-size="10px" fill="#000" opacity="1">0.5</text><text text-anchor="end" transform="translate(-7,542.7495770870884)" font-family="sans-serif" font-size="10px" fill="#000" opacity="1">1.0</text><text text-anchor="end" transform="translate(-7,512.6243656306326)" font-family="sans-serif" font-size="10px" fill="#000" opacity="1">1.5</text><text text-anchor="end" transform="translate(-7,482.4991541741768)" font-family="sans-serif" font-size="10px" fill="#000" opacity="1">2.0</text><text text-anchor="end" transform="translate(-7,452.373942717721)" font-family="sans-serif" font-size="10px" fill="#000" opacity="1">2.5</text><text text-anchor="end" transform="translate(-7,422.2487312612651)" font-family="sans-serif" font-size="10px" fill="#000" opacity="1">3.0</text><text text-anchor="end" transform="translate(-7,392.12351980480935)" font-family="sans-serif" font-size="10px" fill="#000" opacity="1">3.5</text><text text-anchor="end" transform="translate(-7,361.99830834835353)" font-family="sans-serif" font-size="10px" fill="#000" opacity="1">4.0</text><text text-anchor="end" transform="translate(-7,331.87309689189766)" font-family="sans-serif" font-size="10px" fill="#000" opacity="1">4.5</text><text text-anchor="end" transform="translate(-7,301.7478854354419)" font-family="sans-serif" font-size="10px" fill="#000" opacity="1">5.0</text><text text-anchor="end" transform="translate(-7,271.6226739789861)" font-family="sans-serif" font-size="10px" fill="#000" opacity="1">5.5</text><text text-anchor="end" transform="translate(-7,241.49746252253024)" font-family="sans-serif" font-size="10px" fill="#000" opacity="1">6.0</text><text text-anchor="end" transform="translate(-7,211.37225106607445)" font-family="sans-serif" font-size="10px" fill="#000" opacity="1">6.5</text><text text-anchor="end" transform="translate(-7,181.24703960961864)" font-family="sans-serif" font-size="10px" fill="#000" opacity="1">7.0</text><text text-anchor="end" transform="translate(-7,151.12182815316285)" font-family="sans-serif" font-size="10px" fill="#000" opacity="1">7.5</text><text text-anchor="end" transform="translate(-7,120.99661669670701)" font-family="sans-serif" font-size="10px" fill="#000" opacity="1">8.0</text><text text-anchor="end" transform="translate(-7,90.8714052402512)" font-family="sans-serif" font-size="10px" fill="#000" opacity="1">8.5</text><text text-anchor="end" transform="translate(-7,60.74619378379542)" font-family="sans-serif" font-size="10px" fill="#000" opacity="1">9.0</text><text text-anchor="end" transform="translate(-7,30.62098232733956)" font-family="sans-serif" font-size="10px" fill="#000" opacity="1">9.5</text></g><g class="mark-rule role-axis-domain" pointer-events="none"><line transform="translate(0,600)" x2="0" y2="-600" stroke="#888" stroke-width="1" opacity="1"/></g><g class="mark-text role-axis-title" pointer-events="none"><text text-anchor="middle" transform="translate(-24.9013671875,300) rotate(-90) translate(0,-2)" font-family="sans-serif" font-size="11px" font-weight="bold" fill="#000" opacity="1">Execution Time (seconds, lower=better)</text></g></g><path class="foreground" aria-hidden="true" d="" pointer-events="none" display="none"/></g></g><g class="mark-group role-scope" role="graphics-object" aria-roledescription="group mark container"><g transform="translate(5.714285714285666,597.413319645272)"><path class="background" aria-hidden="true" d="M1.293340177363973,0L101.56380267977889,0C102.27761655544779,0,102.85714285714286,0.5795263016950616,102.85714285714286,1.293340177363973L102.85714285714286,2.586680354727946C102.85714285714286,2.586680354727946,102.85714285714286,2.586680354727946,102.85714285714286,2.586680354727946L0,2.586680354727946C0,2.586680354727946,0,2.586680354727946,0,2.586680354727946L0,1.293340177363973C0,0.5795263016950616,0.5795263016950616,0,1.293340177363973,0Z"/><g clip-path="url(#clip9)"><g class="mark-group role-scope" role="graphics-object" aria-roledescription="group mark container"><g transform="translate(0,-597.413319645272)"><path class="background" aria-hidden="true" d="M0,0h102.85714285714286v0h-102.85714285714286Z"/><g><g class="mark-rect role-mark layer_0_marks" role="graphics-object" aria-roledescription="rect mark container"><path aria-label="Parser: yamlrocks&#xA;0.6.1; Execution Time (seconds, lower=better): 0.0429321526667; parser: yamlrocks; Execution Time (s): 0.0429; Slowdown: 1.00" role="graphics-symbol" aria-roledescription="bar" d="M0,597.413319645272h102.85714285714286v2.586680354727946h-102.85714285714286Z" fill="#a6761d"/></g></g><path class="foreground" aria-hidden="true" d="" display="none"/></g></g></g><path class="foreground" aria-hidden="true" d="" display="none"/></g><g transform="translate(119.99999999999996,596.738422002495)"><path class="background" aria-hidden="true" d="M1.6307889987525073,0L101.22635385839035,0C102.12641080858138,0,102.85714285714286,0.7307320485614716,102.85714285714286,1.6307889987525073L102.85714285714286,3.2615779975050145C102.85714285714286,3.2615779975050145,102.85714285714286,3.2615779975050145,102.85714285714286,3.2615779975050145L0,3.2615779975050145C0,3.2615779975050145,0,3.2615779975050145,0,3.2615779975050145L0,1.6307889987525073C0,0.7307320485614716,0.7307320485614716,0,1.6307889987525073,0Z"/><g clip-path="url(#clip10)"><g class="mark-group role-scope" role="graphics-object" aria-roledescription="group mark container"><g transform="translate(0,-596.738422002495)"><path class="background" aria-hidden="true" d="M0,0h102.85714285714286v0h-102.85714285714286Z"/><g><g class="mark-rect role-mark layer_0_marks" role="graphics-object" aria-roledescription="rect mark container"><path aria-label="Parser: yaml_rs&#xA;0.1.6; Execution Time (seconds, lower=better): 0.0541336946667; parser: yaml_rs; Execution Time (s): 0.0541; Slowdown: 1.26" role="graphics-symbol" aria-roledescription="bar" d="M0,596.738422002495h102.85714285714286v3.2615779975050145h-102.85714285714286Z" fill="#e6ab02"/></g></g><path class="foreground" aria-hidden="true" d="" display="none"/></g></g></g><path class="foreground" aria-hidden="true" d="" display="none"/></g><g transform="translate(234.28571428571425,589.4123027770332)"><path class="background" aria-hidden="true" d="M5.293848611483384,0L97.56329424565948,0C100.48504883173386,0,102.85714285714286,2.372094025409004,102.85714285714286,5.293848611483384L102.85714285714286,10.587697222966767C102.85714285714286,10.587697222966767,102.85714285714286,10.587697222966767,102.85714285714286,10.587697222966767L0,10.587697222966767C0,10.587697222966767,0,10.587697222966767,0,10.587697222966767L0,5.293848611483384C0,2.372094025409004,2.372094025409004,0,5.293848611483384,0Z"/><g clip-path="url(#clip11)"><g class="mark-group role-scope" role="graphics-object" aria-roledescription="group mark container"><g transform="translate(0,-589.4123027770332)"><path class="background" aria-hidden="true" d="M0,0h102.85714285714286v0h-102.85714285714286Z"/><g><g class="mark-rect role-mark layer_0_marks" role="graphics-object" aria-roledescription="rect mark container"><path aria-label="Parser: ryaml&#xA;0.5.1; Execution Time (seconds, lower=better): 0.175728181; parser: ryaml; Execution Time (s): 0.1757; Slowdown: 4.09" role="graphics-symbol" aria-roledescription="bar" d="M0,589.4123027770332h102.85714285714286v10.587697222966767h-102.85714285714286Z" fill="#66a61e"/></g></g><path class="foreground" aria-hidden="true" d="" display="none"/></g></g></g><path class="foreground" aria-hidden="true" d="" display="none"/></g><g transform="translate(348.57142857142856,585.6607733813521)"><path class="background" aria-hidden="true" d="M6,0L96.85714285714286,0C100.16863300410687,0,102.85714285714286,2.688509853036,102.85714285714286,6L102.85714285714286,14.3392266186479C102.85714285714286,14.3392266186479,102.85714285714286,14.3392266186479,102.85714285714286,14.3392266186479L0,14.3392266186479C0,14.3392266186479,0,14.3392266186479,0,14.3392266186479L0,6C0,2.688509853036,2.688509853036,0,6,0Z"/><g clip-path="url(#clip12)"><g class="mark-group role-scope" role="graphics-object" aria-roledescription="group mark container"><g transform="translate(0,-585.6607733813521)"><path class="background" aria-hidden="true" d="M0,0h102.85714285714286v0h-102.85714285714286Z"/><g><g class="mark-rect role-mark layer_0_marks" role="graphics-object" aria-roledescription="rect mark container"><path aria-label="Parser: PyYAML (CDumper)&#xA;6.0.3; Execution Time (seconds, lower=better): 0.237993792; parser: PyYAML (CDumper); Execution Time (s): 0.2380; Slowdown: 5.54" role="graphics-symbol" aria-roledescription="bar" d="M0,585.6607733813521h102.85714285714286v14.3392266186479h-102.85714285714286Z" fill="#d95f02"/></g></g><path class="foreground" aria-hidden="true" d="" display="none"/></g></g></g><path class="foreground" aria-hidden="true" d="" display="none"/></g><g transform="translate(462.85714285714283,81.24180351765553)"><path class="background" aria-hidden="true" d="M6,0L96.85714285714286,0C100.16863300410687,0,102.85714285714286,2.688509853036,102.85714285714286,6L102.85714285714286,518.7581964823445C102.85714285714286,518.7581964823445,102.85714285714286,518.7581964823445,102.85714285714286,518.7581964823445L0,518.7581964823445C0,518.7581964823445,0,518.7581964823445,0,518.7581964823445L0,6C0,2.688509853036,2.688509853036,0,6,0Z"/><g clip-path="url(#clip13)"><g class="mark-group role-scope" role="graphics-object" aria-roledescription="group mark container"><g transform="translate(0,-81.24180351765553)"><path class="background" aria-hidden="true" d="M0,0h102.85714285714286v0h-102.85714285714286Z"/><g><g class="mark-rect role-mark layer_0_marks" role="graphics-object" aria-roledescription="rect mark container"><path aria-label="Parser: oyaml&#xA;1.0; Execution Time (seconds, lower=better): 8.610034111; parser: oyaml; Execution Time (s): 8.6100; Slowdown: 200.55" role="graphics-symbol" aria-roledescription="bar" d="M0,81.24180351765553h102.85714285714286v518.7581964823445h-102.85714285714286Z" fill="#7570b3"/></g></g><path class="foreground" aria-hidden="true" d="" display="none"/></g></g></g><path class="foreground" aria-hidden="true" d="" display="none"/></g><g transform="translate(577.1428571428571,33.49506636060022)"><path class="background" aria-hidden="true" d="M6,0L96.85714285714286,0C100.16863300410687,0,102.85714285714286,2.688509853036,102.85714285714286,6L102.85714285714286,566.5049336393997C102.85714285714286,566.5049336393997,102.85714285714286,566.5049336393997,102.85714285714286,566.5049336393997L0,566.5049336393997C0,566.5049336393997,0,566.5049336393997,0,566.5049336393997L0,6C0,2.688509853036,2.688509853036,0,6,0Z"/><g clip-path="url(#clip14)"><g class="mark-group role-scope" role="graphics-object" aria-roledescription="group mark container"><g transform="translate(0,-33.49506636060022)"><path class="background" aria-hidden="true" d="M0,0h102.85714285714286v0h-102.85714285714286Z"/><g><g class="mark-rect role-mark layer_0_marks" role="graphics-object" aria-roledescription="rect mark container"><path aria-label="Parser: PyYAML&#xA;6.0.3; Execution Time (seconds, lower=better): 9.40250551367; parser: PyYAML; Execution Time (s): 9.4025; Slowdown: 219.01" role="graphics-symbol" aria-roledescription="bar" d="M0,33.49506636060022h102.85714285714286v566.5049336393997h-102.85714285714286Z" fill="#1b9e77"/></g></g><path class="foreground" aria-hidden="true" d="" display="none"/></g></g></g><path class="foreground" aria-hidden="true" d="" display="none"/></g><g transform="translate(691.4285714285714,28.571428571428605)"><path class="background" aria-hidden="true" d="M6,0L96.85714285714286,0C100.16863300410687,0,102.85714285714286,2.688509853036,102.85714285714286,6L102.85714285714286,571.4285714285714C102.85714285714286,571.4285714285714,102.85714285714286,571.4285714285714,102.85714285714286,571.4285714285714L0,571.4285714285714C0,571.4285714285714,0,571.4285714285714,0,571.4285714285714L0,6C0,2.688509853036,2.688509853036,0,6,0Z"/><g clip-path="url(#clip15)"><g class="mark-group role-scope" role="graphics-object" aria-roledescription="group mark container"><g transform="translate(0,-28.571428571428605)"><path class="background" aria-hidden="true" d="M0,0h102.85714285714286v0h-102.85714285714286Z"/><g><g class="mark-rect role-mark layer_0_marks" role="graphics-object" aria-roledescription="rect mark container"><path aria-label="Parser: ruamel.yaml&#xA;0.19.1; Execution Time (seconds, lower=better): 9.48422506933; parser: ruamel.yaml; Execution Time (s): 9.4842; Slowdown: 220.91" role="graphics-symbol" aria-roledescription="bar" d="M0,28.571428571428605h102.85714285714286v571.4285714285714h-102.85714285714286Z" fill="#e7298a"/></g></g><path class="foreground" aria-hidden="true" d="" display="none"/></g></g></g><path class="foreground" aria-hidden="true" d="" display="none"/></g></g><g class="mark-text role-mark layer_1_marks" role="graphics-object" aria-roledescription="text mark container"><text aria-label="Parser: yamlrocks&#xA;0.6.1; Execution Time (seconds, lower=better): 0.0429321526667; parser: yamlrocks; label: 0.0429s (x1.00); Execution Time (s): 0.0429; Slowdown: 1.00" role="graphics-symbol" aria-roledescription="text mark" text-anchor="middle" transform="translate(57.142857142857096,593.413319645272)" font-family="sans-serif" font-size="9px" font-weight="bold" fill="#a6761d">0.0429s (x1.00)</text><text aria-label="Parser: yaml_rs&#xA;0.1.6; Execution Time (seconds, lower=better): 0.0541336946667; parser: yaml_rs; label: 0.0541s (x1.26); Execution Time (s): 0.0541; Slowdown: 1.26" role="graphics-symbol" aria-roledescription="text mark" text-anchor="middle" transform="translate(171.4285714285714,592.738422002495)" font-family="sans-serif" font-size="9px" font-weight="bold" fill="#e6ab02">0.0541s (x1.26)</text><text aria-label="Parser: ryaml&#xA;0.5.1; Execution Time (seconds, lower=better): 0.175728181; parser: ryaml; label: 0.1757s (x4.09); Execution Time (s): 0.1757; Slowdown: 4.09" role="graphics-symbol" aria-roledescription="text mark" text-anchor="middle" transform="translate(285.71428571428567,585.4123027770332)" font-family="sans-serif" font-size="9px" font-weight="bold" fill="#66a61e">0.1757s (x4.09)</text><text aria-label="Parser: PyYAML (CDumper)&#xA;6.0.3; Execution Time (seconds, lower=better): 0.237993792; parser: PyYAML (CDumper); label: 0.2380s (x5.54); Execution Time (s): 0.2380; Slowdown: 5.54" role="graphics-symbol" aria-roledescription="text mark" text-anchor="middle" transform="translate(400,581.6607733813521)" font-family="sans-serif" font-size="9px" font-weight="bold" fill="#d95f02">0.2380s (x5.54)</text><text aria-label="Parser: oyaml&#xA;1.0; Execution Time (seconds, lower=better): 8.610034111; parser: oyaml; label: 8.6100s (x200.55); Execution Time (s): 8.6100; Slowdown: 200.55" role="graphics-symbol" aria-roledescription="text mark" text-anchor="middle" transform="translate(514.2857142857142,77.24180351765553)" font-family="sans-serif" font-size="9px" font-weight="bold" fill="#7570b3">8.6100s (x200.55)</text><text aria-label="Parser: PyYAML&#xA;6.0.3; Execution Time (seconds, lower=better): 9.40250551367; parser: PyYAML; label: 9.4025s (x219.01); Execution Time (s): 9.4025; Slowdown: 219.01" role="graphics-symbol" aria-roledescription="text mark" text-anchor="middle" transform="translate(628.5714285714286,29.49506636060022)" font-family="sans-serif" font-size="9px" font-weight="bold" fill="#1b9e77">9.4025s (x219.01)</text><text aria-label="Parser: ruamel.yaml&#xA;0.19.1; Execution Time (seconds, lower=better): 9.48422506933; parser: ruamel.yaml; label: 9.4842s (x220.91); Execution Time (s): 9.4842; Slowdown: 220.91" role="graphics-symbol" aria-roledescription="text mark" text-anchor="middle" transform="translate(742.8571428571429,24.571428571428605)" font-family="sans-serif" font-size="9px" font-weight="bold" fill="#e7298a">9.4842s (x220.91)</text></g><g class="mark-group role-title"><g transform="translate(400,-31)"><path class="background" aria-hidden="true" d="M0,0h0v0h0Z" pointer-events="none"/><g><g class="mark-text role-title-text" role="graphics-symbol" aria-roledescription="title" aria-label="Title text 'YAML parsers benchmark (dumps)'" pointer-events="none"><text text-anchor="middle" transform="translate(0,10)" font-family="sans-serif" font-size="13px" font-weight="bold" fill="#000" opacity="1">YAML parsers benchmark (dumps)</text></g><g class="mark-text role-title-subtitle" role="graphics-symbol" aria-roledescription="subtitle" aria-label="Subtitle text 'Python: 3.14.6 (Darwin 25.4.0) | CPU: Apple M1 (Virtual)'" pointer-events="none"><text text-anchor="middle" transform="translate(0,25)" font-family="sans-serif" font-size="12px" fill="#000" opacity="1">Python: 3.14.6 (Darwin 25.4.0) | CPU: Apple M1 (Virtual)</text></g></g><path class="foreground" aria-hidden="true" d="" pointer-events="none" display="none"/></g></g></g><path class="foreground" aria-hidden="true" d="" display="none"/></g></g></g><defs><clipPath id="clip9"><path d="M1.293340177363973,0L101.56380267977889,0C102.27761655544779,0,102.85714285714286,0.5795263016950616,102.85714285714286,1.293340177363973L102.85714285714286,2.586680354727946C102.85714285714286,2.586680354727946,102.85714285714286,2.586680354727946,102.85714285714286,2.586680354727946L0,2.586680354727946C0,2.586680354727946,0,2.586680354727946,0,2.586680354727946L0,1.293340177363973C0,0.5795263016950616,0.5795263016950616,0,1.293340177363973,0Z"/></clipPath><clipPath id="clip10"><path d="M1.6307889987525073,0L101.22635385839035,0C102.12641080858138,0,102.85714285714286,0.7307320485614716,102.85714285714286,1.6307889987525073L102.85714285714286,3.2615779975050145C102.85714285714286,3.2615779975050145,102.85714285714286,3.2615779975050145,102.85714285714286,3.2615779975050145L0,3.2615779975050145C0,3.2615779975050145,0,3.2615779975050145,0,3.2615779975050145L0,1.6307889987525073C0,0.7307320485614716,0.7307320485614716,0,1.6307889987525073,0Z"/></clipPath><clipPath id="clip11"><path d="M5.293848611483384,0L97.56329424565948,0C100.48504883173386,0,102.85714285714286,2.372094025409004,102.85714285714286,5.293848611483384L102.85714285714286,10.587697222966767C102.85714285714286,10.587697222966767,102.85714285714286,10.587697222966767,102.85714285714286,10.587697222966767L0,10.587697222966767C0,10.587697222966767,0,10.587697222966767,0,10.587697222966767L0,5.293848611483384C0,2.372094025409004,2.372094025409004,0,5.293848611483384,0Z"/></clipPath><clipPath id="clip12"><path d="M6,0L96.85714285714286,0C100.16863300410687,0,102.85714285714286,2.688509853036,102.85714285714286,6L102.85714285714286,14.3392266186479C102.85714285714286,14.3392266186479,102.85714285714286,14.3392266186479,102.85714285714286,14.3392266186479L0,14.3392266186479C0,14.3392266186479,0,14.3392266186479,0,14.3392266186479L0,6C0,2.688509853036,2.688509853036,0,6,0Z"/></clipPath><clipPath id="clip13"><path d="M6,0L96.85714285714286,0C100.16863300410687,0,102.85714285714286,2.688509853036,102.85714285714286,6L102.85714285714286,518.7581964823445C102.85714285714286,518.7581964823445,102.85714285714286,518.7581964823445,102.85714285714286,518.7581964823445L0,518.7581964823445C0,518.7581964823445,0,518.7581964823445,0,518.7581964823445L0,6C0,2.688509853036,2.688509853036,0,6,0Z"/></clipPath><clipPath id="clip14"><path d="M6,0L96.85714285714286,0C100.16863300410687,0,102.85714285714286,2.688509853036,102.85714285714286,6L102.85714285714286,566.5049336393997C102.85714285714286,566.5049336393997,102.85714285714286,566.5049336393997,102.85714285714286,566.5049336393997L0,566.5049336393997C0,566.5049336393997,0,566.5049336393997,0,566.5049336393997L0,6C0,2.688509853036,2.688509853036,0,6,0Z"/></clipPath><clipPath id="clip15"><path d="M6,0L96.85714285714286,0C100.16863300410687,0,102.85714285714286,2.688509853036,102.85714285714286,6L102.85714285714286,571.4285714285714C102.85714285714286,571.4285714285714,102.85714285714286,571.4285714285714,102.85714285714286,571.4285714285714L0,571.4285714285714C0,571.4285714285714,0,571.4285714285714,0,571.4285714285714L0,6C0,2.688509853036,2.688509853036,0,6,0Z"/></clipPath></defs></svg>