<svg xmlns="http://www.w3.org/2000/svg" xmlns:xlink="http://www.w3.org/1999/xlink" version="1.1" class="marks" width="844" height="691" viewBox="0 0 844 691"><rect width="844" height="691" fill="white"/><g fill="none" stroke-miterlimit="10" transform="translate(39,40)"><g class="mark-group role-frame root" role="graphics-object" aria-roledescription="group mark container"><g transform="translate(0,0)"><path class="background" aria-hidden="true" d="M0.5,0.5h800v600h-800Z" stroke="#ddd"/><g><g class="mark-group role-axis" role="graphics-symbol" aria-roledescription="axis" aria-label="X-axis titled 'Parser' for a discrete scale with 8 values: yamlrocks&#xA;0.6.1, yaml_rs&#xA;0.1.6, yaml_rs (parse_dt=False)&#xA;0.1.6, ryaml&#xA;0.5.1, PyYAML (CLoader)&#xA;6.0.3, ending with ruamel.yaml&#xA;0.19.1"><g transform="translate(0.5,600.5)"><path class="background" aria-hidden="true" d="M0,0h0v0h0Z" pointer-events="none"/><g><g class="mark-rule role-axis-tick" pointer-events="none"><line transform="translate(50,0)" x2="0" y2="5" stroke="#888" stroke-width="1" opacity="1"/><line transform="translate(150,0)" x2="0" y2="5" stroke="#888" stroke-width="1" opacity="1"/><line transform="translate(250,0)" x2="0" y2="5" stroke="#888" stroke-width="1" opacity="1"/><line transform="translate(350,0)" x2="0" y2="5" stroke="#888" stroke-width="1" opacity="1"/><line transform="translate(450,0)" x2="0" y2="5" stroke="#888" stroke-width="1" opacity="1"/><line transform="translate(550,0)" x2="0" y2="5" stroke="#888" stroke-width="1" opacity="1"/><line transform="translate(650,0)" x2="0" y2="5" stroke="#888" stroke-width="1" opacity="1"/><line transform="translate(750,0)" x2="0" y2="5" stroke="#888" stroke-width="1" opacity="1"/></g><g class="mark-text role-axis-label" pointer-events="none"><text text-anchor="middle" transform="translate(49.5,15)" font-family="sans-serif" font-size="10px" fill="#000" opacity="1"><tspan>yamlrocks</tspan><tspan x="0" dy="14">0.6.1</tspan></text><text text-anchor="middle" transform="translate(149.5,15)" font-family="sans-serif" font-size="10px" fill="#000" opacity="1"><tspan>yaml_rs</tspan><tspan x="0" dy="14">0.1.6</tspan></text><text text-anchor="middle" transform="translate(249.5,15)" font-family="sans-serif" font-size="10px" fill="#000" opacity="1"><tspan>yaml_rs (parse_dt=False)</tspan><tspan x="0" dy="14">0.1.6</tspan></text><text text-anchor="middle" transform="translate(349.5,15)" font-family="sans-serif" font-size="10px" fill="#000" opacity="1"><tspan>ryaml</tspan><tspan x="0" dy="14">0.5.1</tspan></text><text text-anchor="middle" transform="translate(449.5,15)" font-family="sans-serif" font-size="10px" fill="#000" opacity="1"><tspan>PyYAML (CLoader)</tspan><tspan x="0" dy="14">6.0.3</tspan></text><text text-anchor="middle" transform="translate(549.5,15)" font-family="sans-serif" font-size="10px" fill="#000" opacity="1"><tspan>PyYAML</tspan><tspan x="0" dy="14">6.0.3</tspan></text><text text-anchor="middle" transform="translate(649.5,15)" font-family="sans-serif" font-size="10px" fill="#000" opacity="1"><tspan>oyaml</tspan><tspan x="0" dy="14">1.0</tspan></text><text text-anchor="middle" transform="translate(749.5,15)" font-family="sans-serif" font-size="10px" fill="#000" opacity="1"><tspan>ruamel.yaml</tspan><tspan x="0" dy="14">0.19.1</tspan></text></g><g class="mark-rule role-axis-domain" pointer-events="none"><line transform="translate(0,0)" x2="800" y2="0" stroke="#888" stroke-width="1" opacity="1"/></g><g class="mark-text role-axis-title" pointer-events="none"><text text-anchor="middle" transform="translate(400,44)" font-family="sans-serif" font-size="11px" font-weight="bold" fill="#000" opacity="1">Parser</text></g></g><path class="foreground" aria-hidden="true" d="" pointer-events="none" display="none"/></g></g><g class="mark-group role-axis" role="graphics-symbol" aria-roledescription="axis" aria-label="Y-axis titled 'Execution Time (seconds, lower=better)' for a linear scale with values from 0 to 21"><g transform="translate(0.5,0.5)"><path class="background" aria-hidden="true" d="M0,0h0v0h0Z" pointer-events="none"/><g><g class="mark-rule role-axis-tick" pointer-events="none"><line transform="translate(0,600)" x2="-5" y2="0" stroke="#888" stroke-width="1" opacity="1"/><line transform="translate(0,572)" x2="-5" y2="0" stroke="#888" stroke-width="1" opacity="1"/><line transform="translate(0,543)" x2="-5" y2="0" stroke="#888" stroke-width="1" opacity="1"/><line transform="translate(0,515)" x2="-5" y2="0" stroke="#888" stroke-width="1" opacity="1"/><line transform="translate(0,486)" x2="-5" y2="0" stroke="#888" stroke-width="1" opacity="1"/><line transform="translate(0,458)" x2="-5" y2="0" stroke="#888" stroke-width="1" opacity="1"/><line transform="translate(0,429)" x2="-5" y2="0" stroke="#888" stroke-width="1" opacity="1"/><line transform="translate(0,401)" x2="-5" y2="0" stroke="#888" stroke-width="1" opacity="1"/><line transform="translate(0,372)" x2="-5" y2="0" stroke="#888" stroke-width="1" opacity="1"/><line transform="translate(0,344)" x2="-5" y2="0" stroke="#888" stroke-width="1" opacity="1"/><line transform="translate(0,315)" x2="-5" y2="0" stroke="#888" stroke-width="1" opacity="1"/><line transform="translate(0,287)" x2="-5" y2="0" stroke="#888" stroke-width="1" opacity="1"/><line transform="translate(0,258)" x2="-5" y2="0" stroke="#888" stroke-width="1" opacity="1"/><line transform="translate(0,230)" x2="-5" y2="0" stroke="#888" stroke-width="1" opacity="1"/><line transform="translate(0,201)" x2="-5" y2="0" stroke="#888" stroke-width="1" opacity="1"/><line transform="translate(0,173)" x2="-5" y2="0" stroke="#888" stroke-width="1" opacity="1"/><line transform="translate(0,144)" x2="-5" y2="0" stroke="#888" stroke-width="1" opacity="1"/><line transform="translate(0,116)" x2="-5" y2="0" stroke="#888" stroke-width="1" opacity="1"/><line transform="translate(0,87)" x2="-5" y2="0" stroke="#888" stroke-width="1" opacity="1"/><line transform="translate(0,59)" x2="-5" y2="0" stroke="#888" stroke-width="1" opacity="1"/><line transform="translate(0,30)" x2="-5" y2="0" stroke="#888" stroke-width="1" opacity="1"/><line transform="translate(0,2)" x2="-5" y2="0" stroke="#888" stroke-width="1" opacity="1"/></g><g class="mark-text role-axis-label" pointer-events="none"><text text-anchor="end" transform="translate(-7,603)" font-family="sans-serif" font-size="10px" fill="#000" opacity="1">0</text><text text-anchor="end" transform="translate(-7,574.5042206581454)" font-family="sans-serif" font-size="10px" fill="#000" opacity="1">1</text><text text-anchor="end" transform="translate(-7,546.0084413162908)" font-family="sans-serif" font-size="10px" fill="#000" opacity="1">2</text><text text-anchor="end" transform="translate(-7,517.5126619744362)" font-family="sans-serif" font-size="10px" fill="#000" opacity="1">3</text><text text-anchor="end" transform="translate(-7,489.0168826325816)" font-family="sans-serif" font-size="10px" fill="#000" opacity="1">4</text><text text-anchor="end" transform="translate(-7,460.521103290727)" font-family="sans-serif" font-size="10px" fill="#000" opacity="1">5</text><text text-anchor="end" transform="translate(-7,432.0253239488725)" font-family="sans-serif" font-size="10px" fill="#000" opacity="1">6</text><text text-anchor="end" transform="translate(-7,403.52954460701784)" font-family="sans-serif" font-size="10px" fill="#000" opacity="1">7</text><text text-anchor="end" transform="translate(-7,375.03376526516325)" font-family="sans-serif" font-size="10px" fill="#000" opacity="1">8</text><text text-anchor="end" transform="translate(-7,346.5379859233087)" font-family="sans-serif" font-size="10px" fill="#000" opacity="1">9</text><text text-anchor="end" transform="translate(-7,318.0422065814541)" font-family="sans-serif" font-size="10px" fill="#000" opacity="1">10</text><text text-anchor="end" transform="translate(-7,289.5464272395995)" font-family="sans-serif" font-size="10px" fill="#000" opacity="1">11</text><text text-anchor="end" transform="translate(-7,261.05064789774485)" font-family="sans-serif" font-size="10px" fill="#000" opacity="1">12</text><text text-anchor="end" transform="translate(-7,232.55486855589032)" font-family="sans-serif" font-size="10px" fill="#000" opacity="1">13</text><text text-anchor="end" transform="translate(-7,204.05908921403574)" font-family="sans-serif" font-size="10px" fill="#000" opacity="1">14</text><text text-anchor="end" transform="translate(-7,175.56330987218112)" font-family="sans-serif" font-size="10px" fill="#000" opacity="1">15</text><text text-anchor="end" transform="translate(-7,147.06753053032656)" font-family="sans-serif" font-size="10px" fill="#000" opacity="1">16</text><text text-anchor="end" transform="translate(-7,118.57175118847196)" font-family="sans-serif" font-size="10px" fill="#000" opacity="1">17</text><text text-anchor="end" transform="translate(-7,90.07597184661735)" font-family="sans-serif" font-size="10px" fill="#000" opacity="1">18</text><text text-anchor="end" transform="translate(-7,61.58019250476274)" font-family="sans-serif" font-size="10px" fill="#000" opacity="1">19</text><text text-anchor="end" transform="translate(-7,33.0844131629082)" font-family="sans-serif" font-size="10px" fill="#000" opacity="1">20</text><text text-anchor="end" transform="translate(-7,4.588633821053587)" font-family="sans-serif" font-size="10px" fill="#000" opacity="1">21</text></g><g class="mark-rule role-axis-domain" pointer-events="none"><line transform="translate(0,600)" x2="0" y2="-600" stroke="#888" stroke-width="1" opacity="1"/></g><g class="mark-text role-axis-title" pointer-events="none"><text text-anchor="middle" transform="translate(-22.123046875,300) rotate(-90) translate(0,-2)" font-family="sans-serif" font-size="11px" font-weight="bold" fill="#000" opacity="1">Execution Time (seconds, lower=better)</text></g></g><path class="foreground" aria-hidden="true" d="" pointer-events="none" display="none"/></g></g><g class="mark-group role-scope" role="graphics-object" aria-roledescription="group mark container"><g transform="translate(5,594.1253299259514)"><path class="background" aria-hidden="true" d="M2.9373350370242974,0L87.0626649629757,0C88.68382430188205,0,90,1.316175698117948,90,2.9373350370242974L90,5.874670074048595C90,5.874670074048595,90,5.874670074048595,90,5.874670074048595L0,5.874670074048595C0,5.874670074048595,0,5.874670074048595,0,5.874670074048595L0,2.9373350370242974C0,1.316175698117948,1.316175698117948,0,2.9373350370242974,0Z"/><g clip-path="url(#clip1)"><g class="mark-group role-scope" role="graphics-object" aria-roledescription="group mark container"><g transform="translate(0,-594.1253299259514)"><path class="background" aria-hidden="true" d="M0,0h90v0h-90Z"/><g><g class="mark-rect role-mark layer_0_marks" role="graphics-object" aria-roledescription="rect mark container"><path aria-label="Parser: yamlrocks&#xA;0.6.1; Execution Time (seconds, lower=better): 0.206159305333; parser: yamlrocks; Execution Time (s): 0.2062; Slowdown: 1.00" role="graphics-symbol" aria-roledescription="bar" d="M0,594.1253299259514h90v5.874670074048595h-90Z" fill="#666666"/></g></g><path class="foreground" aria-hidden="true" d="" display="none"/></g></g></g><path class="foreground" aria-hidden="true" d="" display="none"/></g><g transform="translate(105,591.9668189612413)"><path class="background" aria-hidden="true" d="M4.016590519379349,0L85.98340948062065,0C88.20022613550627,0,90,1.7997738644937276,90,4.016590519379349L90,8.033181038758698C90,8.033181038758698,90,8.033181038758698,90,8.033181038758698L0,8.033181038758698C0,8.033181038758698,0,8.033181038758698,0,8.033181038758698L0,4.016590519379349C0,1.7997738644937276,1.7997738644937276,0,4.016590519379349,0Z"/><g clip-path="url(#clip2)"><g class="mark-group role-scope" role="graphics-object" aria-roledescription="group mark container"><g transform="translate(0,-591.9668189612413)"><path class="background" aria-hidden="true" d="M0,0h90v0h-90Z"/><g><g class="mark-rect role-mark layer_0_marks" role="graphics-object" aria-roledescription="rect mark container"><path aria-label="Parser: yaml_rs&#xA;0.1.6; Execution Time (seconds, lower=better): 0.28190775; parser: yaml_rs; Execution Time (s): 0.2819; Slowdown: 1.37" role="graphics-symbol" aria-roledescription="bar" d="M0,591.9668189612413h90v8.033181038758698h-90Z" fill="#e6ab02"/></g></g><path class="foreground" aria-hidden="true" d="" display="none"/></g></g></g><path class="foreground" aria-hidden="true" d="" display="none"/></g><g transform="translate(205,591.4327447292546)"><path class="background" aria-hidden="true" d="M4.283627635372682,0L85.71637236462732,0C88.0805708159272,0,90,1.9194291840727928,90,4.283627635372682L90,8.567255270745363C90,8.567255270745363,90,8.567255270745363,90,8.567255270745363L0,8.567255270745363C0,8.567255270745363,0,8.567255270745363,0,8.567255270745363L0,4.283627635372682C0,1.9194291840727928,1.9194291840727928,0,4.283627635372682,0Z"/><g clip-path="url(#clip3)"><g class="mark-group role-scope" role="graphics-object" aria-roledescription="group mark container"><g transform="translate(0,-591.4327447292546)"><path class="background" aria-hidden="true" d="M0,0h90v0h-90Z"/><g><g class="mark-rect role-mark layer_0_marks" role="graphics-object" aria-roledescription="rect mark container"><path aria-label="Parser: yaml_rs (parse_dt=False)&#xA;0.1.6; Execution Time (seconds, lower=better): 0.300649972333; parser: yaml_rs (parse_dt=False); Execution Time (s): 0.3006; Slowdown: 1.46" role="graphics-symbol" aria-roledescription="bar" d="M0,591.4327447292546h90v8.567255270745363h-90Z" fill="#a6761d"/></g></g><path class="foreground" aria-hidden="true" d="" display="none"/></g></g></g><path class="foreground" aria-hidden="true" d="" display="none"/></g><g transform="translate(305,582.5803163604804)"><path class="background" aria-hidden="true" d="M6,0L84,0C87.311490146964,0,90,2.688509853036,90,6L90,17.419683639519576C90,17.419683639519576,90,17.419683639519576,90,17.419683639519576L0,17.419683639519576C0,17.419683639519576,0,17.419683639519576,0,17.419683639519576L0,6C0,2.688509853036,2.688509853036,0,6,0Z"/><g clip-path="url(#clip4)"><g class="mark-group role-scope" role="graphics-object" aria-roledescription="group mark container"><g transform="translate(0,-582.5803163604804)"><path class="background" aria-hidden="true" d="M0,0h90v0h-90Z"/><g><g class="mark-rect role-mark layer_0_marks" role="graphics-object" aria-roledescription="rect mark container"><path aria-label="Parser: ryaml&#xA;0.5.1; Execution Time (seconds, lower=better): 0.611307500333; parser: ryaml; Execution Time (s): 0.6113; Slowdown: 2.97" role="graphics-symbol" aria-roledescription="bar" d="M0,582.5803163604804h90v17.419683639519576h-90Z" fill="#66a61e"/></g></g><path class="foreground" aria-hidden="true" d="" display="none"/></g></g></g><path class="foreground" aria-hidden="true" d="" display="none"/></g><g transform="translate(405,550.6661144639768)"><path class="background" aria-hidden="true" d="M6,0L84,0C87.311490146964,0,90,2.688509853036,90,6L90,49.33388553602322C90,49.33388553602322,90,49.33388553602322,90,49.33388553602322L0,49.33388553602322C0,49.33388553602322,0,49.33388553602322,0,49.33388553602322L0,6C0,2.688509853036,2.688509853036,0,6,0Z"/><g clip-path="url(#clip5)"><g class="mark-group role-scope" role="graphics-object" aria-roledescription="group mark container"><g transform="translate(0,-550.6661144639768)"><path class="background" aria-hidden="true" d="M0,0h90v0h-90Z"/><g><g class="mark-rect role-mark layer_0_marks" role="graphics-object" aria-roledescription="rect mark container"><path aria-label="Parser: PyYAML (CLoader)&#xA;6.0.3; Execution Time (seconds, lower=better): 1.731269917; parser: PyYAML (CLoader); Execution Time (s): 1.7313; Slowdown: 8.40" role="graphics-symbol" aria-roledescription="bar" d="M0,550.6661144639768h90v49.33388553602322h-90Z" fill="#d95f02"/></g></g><path class="foreground" aria-hidden="true" d="" display="none"/></g></g></g><path class="foreground" aria-hidden="true" d="" display="none"/></g><g transform="translate(505,152.86459792590256)"><path class="background" aria-hidden="true" d="M6,0L84,0C87.311490146964,0,90,2.688509853036,90,6L90,447.13540207409744C90,447.13540207409744,90,447.13540207409744,90,447.13540207409744L0,447.13540207409744C0,447.13540207409744,0,447.13540207409744,0,447.13540207409744L0,6C0,2.688509853036,2.688509853036,0,6,0Z"/><g clip-path="url(#clip6)"><g class="mark-group role-scope" role="graphics-object" aria-roledescription="group mark container"><g transform="translate(0,-152.86459792590256)"><path class="background" aria-hidden="true" d="M0,0h90v0h-90Z"/><g><g class="mark-rect role-mark layer_0_marks" role="graphics-object" aria-roledescription="rect mark container"><path aria-label="Parser: PyYAML&#xA;6.0.3; Execution Time (seconds, lower=better): 15.69128525; parser: PyYAML; Execution Time (s): 15.6913; Slowdown: 76.11" role="graphics-symbol" aria-roledescription="bar" d="M0,152.86459792590256h90v447.13540207409744h-90Z" fill="#1b9e77"/></g></g><path class="foreground" aria-hidden="true" d="" display="none"/></g></g></g><path class="foreground" aria-hidden="true" d="" display="none"/></g><g transform="translate(605,90.71573971765956)"><path class="background" aria-hidden="true" d="M6,0L84,0C87.311490146964,0,90,2.688509853036,90,6L90,509.2842602823404C90,509.2842602823404,90,509.2842602823404,90,509.2842602823404L0,509.2842602823404C0,509.2842602823404,0,509.2842602823404,0,509.2842602823404L0,6C0,2.688509853036,2.688509853036,0,6,0Z"/><g clip-path="url(#clip7)"><g class="mark-group role-scope" role="graphics-object" aria-roledescription="group mark container"><g transform="translate(0,-90.71573971765956)"><path class="background" aria-hidden="true" d="M0,0h90v0h-90Z"/><g><g class="mark-rect role-mark layer_0_marks" role="graphics-object" aria-roledescription="rect mark container"><path aria-label="Parser: oyaml&#xA;1.0; Execution Time (seconds, lower=better): 17.8722699307; parser: oyaml; Execution Time (s): 17.8723; Slowdown: 86.69" role="graphics-symbol" aria-roledescription="bar" d="M0,90.71573971765956h90v509.2842602823404h-90Z" fill="#7570b3"/></g></g><path class="foreground" aria-hidden="true" d="" display="none"/></g></g></g><path class="foreground" aria-hidden="true" d="" display="none"/></g><g transform="translate(705,28.571428571428605)"><path class="background" aria-hidden="true" d="M6,0L84,0C87.311490146964,0,90,2.688509853036,90,6L90,571.4285714285714C90,571.4285714285714,90,571.4285714285714,90,571.4285714285714L0,571.4285714285714C0,571.4285714285714,0,571.4285714285714,0,571.4285714285714L0,6C0,2.688509853036,2.688509853036,0,6,0Z"/><g clip-path="url(#clip8)"><g class="mark-group role-scope" role="graphics-object" aria-roledescription="group mark container"><g transform="translate(0,-28.571428571428605)"><path class="background" aria-hidden="true" d="M0,0h90v0h-90Z"/><g><g class="mark-rect role-mark layer_0_marks" role="graphics-object" aria-roledescription="rect mark container"><path aria-label="Parser: ruamel.yaml&#xA;0.19.1; Execution Time (seconds, lower=better): 20.0530950417; parser: ruamel.yaml; Execution Time (s): 20.0531; Slowdown: 97.27" role="graphics-symbol" aria-roledescription="bar" d="M0,28.571428571428605h90v571.4285714285714h-90Z" fill="#e7298a"/></g></g><path class="foreground" aria-hidden="true" d="" display="none"/></g></g></g><path class="foreground" aria-hidden="true" d="" display="none"/></g></g><g class="mark-text role-mark layer_1_marks" role="graphics-object" aria-roledescription="text mark container"><text aria-label="Parser: yamlrocks&#xA;0.6.1; Execution Time (seconds, lower=better): 0.206159305333; parser: yamlrocks; label: 0.2062s (x1.00); Execution Time (s): 0.2062; Slowdown: 1.00" role="graphics-symbol" aria-roledescription="text mark" text-anchor="middle" transform="translate(50,590.1253299259514)" font-family="sans-serif" font-size="9px" font-weight="bold" fill="#666666">0.2062s (x1.00)</text><text aria-label="Parser: yaml_rs&#xA;0.1.6; Execution Time (seconds, lower=better): 0.28190775; parser: yaml_rs; label: 0.2819s (x1.37); Execution Time (s): 0.2819; Slowdown: 1.37" role="graphics-symbol" aria-roledescription="text mark" text-anchor="middle" transform="translate(150,587.9668189612413)" font-family="sans-serif" font-size="9px" font-weight="bold" fill="#e6ab02">0.2819s (x1.37)</text><text aria-label="Parser: yaml_rs (parse_dt=False)&#xA;0.1.6; Execution Time (seconds, lower=better): 0.300649972333; parser: yaml_rs (parse_dt=False); label: 0.3006s (x1.46); Execution Time (s): 0.3006; Slowdown: 1.46" role="graphics-symbol" aria-roledescription="text mark" text-anchor="middle" transform="translate(250,587.4327447292546)" font-family="sans-serif" font-size="9px" font-weight="bold" fill="#a6761d">0.3006s (x1.46)</text><text aria-label="Parser: ryaml&#xA;0.5.1; Execution Time (seconds, lower=better): 0.611307500333; parser: ryaml; label: 0.6113s (x2.97); Execution Time (s): 0.6113; Slowdown: 2.97" role="graphics-symbol" aria-roledescription="text mark" text-anchor="middle" transform="translate(350,578.5803163604804)" font-family="sans-serif" font-size="9px" font-weight="bold" fill="#66a61e">0.6113s (x2.97)</text><text aria-label="Parser: PyYAML (CLoader)&#xA;6.0.3; Execution Time (seconds, lower=better): 1.731269917; parser: PyYAML (CLoader); label: 1.7313s (x8.40); Execution Time (s): 1.7313; Slowdown: 8.40" role="graphics-symbol" aria-roledescription="text mark" text-anchor="middle" transform="translate(450,546.6661144639768)" font-family="sans-serif" font-size="9px" font-weight="bold" fill="#d95f02">1.7313s (x8.40)</text><text aria-label="Parser: PyYAML&#xA;6.0.3; Execution Time (seconds, lower=better): 15.69128525; parser: PyYAML; label: 15.6913s (x76.11); Execution Time (s): 15.6913; Slowdown: 76.11" role="graphics-symbol" aria-roledescription="text mark" text-anchor="middle" transform="translate(550,148.86459792590256)" font-family="sans-serif" font-size="9px" font-weight="bold" fill="#1b9e77">15.6913s (x76.11)</text><text aria-label="Parser: oyaml&#xA;1.0; Execution Time (seconds, lower=better): 17.8722699307; parser: oyaml; label: 17.8723s (x86.69); Execution Time (s): 17.8723; Slowdown: 86.69" role="graphics-symbol" aria-roledescription="text mark" text-anchor="middle" transform="translate(650,86.71573971765956)" font-family="sans-serif" font-size="9px" font-weight="bold" fill="#7570b3">17.8723s (x86.69)</text><text aria-label="Parser: ruamel.yaml&#xA;0.19.1; Execution Time (seconds, lower=better): 20.0530950417; parser: ruamel.yaml; label: 20.0531s (x97.27); Execution Time (s): 20.0531; Slowdown: 97.27" role="graphics-symbol" aria-roledescription="text mark" text-anchor="middle" transform="translate(750,24.571428571428605)" font-family="sans-serif" font-size="9px" font-weight="bold" fill="#e7298a">20.0531s (x97.27)</text></g><g class="mark-group role-title"><g transform="translate(400,-34.41136617894641)"><path class="background" aria-hidden="true" d="M0,0h0v0h0Z" pointer-events="none"/><g><g class="mark-text role-title-text" role="graphics-symbol" aria-roledescription="title" aria-label="Title text 'YAML parsers benchmark (loads)'" pointer-events="none"><text text-anchor="middle" transform="translate(0,10)" font-family="sans-serif" font-size="13px" font-weight="bold" fill="#000" opacity="1">YAML parsers benchmark (loads)</text></g><g class="mark-text role-title-subtitle" role="graphics-symbol" aria-roledescription="subtitle" aria-label="Subtitle text 'Python: 3.14.6 (Darwin 25.5.0) | CPU: Apple M1 (Virtual)'" pointer-events="none"><text text-anchor="middle" transform="translate(0,25)" font-family="sans-serif" font-size="12px" fill="#000" opacity="1">Python: 3.14.6 (Darwin 25.5.0) | CPU: Apple M1 (Virtual)</text></g></g><path class="foreground" aria-hidden="true" d="" pointer-events="none" display="none"/></g></g></g><path class="foreground" aria-hidden="true" d="" display="none"/></g></g></g><defs><clipPath id="clip1"><path d="M2.9373350370242974,0L87.0626649629757,0C88.68382430188205,0,90,1.316175698117948,90,2.9373350370242974L90,5.874670074048595C90,5.874670074048595,90,5.874670074048595,90,5.874670074048595L0,5.874670074048595C0,5.874670074048595,0,5.874670074048595,0,5.874670074048595L0,2.9373350370242974C0,1.316175698117948,1.316175698117948,0,2.9373350370242974,0Z"/></clipPath><clipPath id="clip2"><path d="M4.016590519379349,0L85.98340948062065,0C88.20022613550627,0,90,1.7997738644937276,90,4.016590519379349L90,8.033181038758698C90,8.033181038758698,90,8.033181038758698,90,8.033181038758698L0,8.033181038758698C0,8.033181038758698,0,8.033181038758698,0,8.033181038758698L0,4.016590519379349C0,1.7997738644937276,1.7997738644937276,0,4.016590519379349,0Z"/></clipPath><clipPath id="clip3"><path d="M4.283627635372682,0L85.71637236462732,0C88.0805708159272,0,90,1.9194291840727928,90,4.283627635372682L90,8.567255270745363C90,8.567255270745363,90,8.567255270745363,90,8.567255270745363L0,8.567255270745363C0,8.567255270745363,0,8.567255270745363,0,8.567255270745363L0,4.283627635372682C0,1.9194291840727928,1.9194291840727928,0,4.283627635372682,0Z"/></clipPath><clipPath id="clip4"><path d="M6,0L84,0C87.311490146964,0,90,2.688509853036,90,6L90,17.419683639519576C90,17.419683639519576,90,17.419683639519576,90,17.419683639519576L0,17.419683639519576C0,17.419683639519576,0,17.419683639519576,0,17.419683639519576L0,6C0,2.688509853036,2.688509853036,0,6,0Z"/></clipPath><clipPath id="clip5"><path d="M6,0L84,0C87.311490146964,0,90,2.688509853036,90,6L90,49.33388553602322C90,49.33388553602322,90,49.33388553602322,90,49.33388553602322L0,49.33388553602322C0,49.33388553602322,0,49.33388553602322,0,49.33388553602322L0,6C0,2.688509853036,2.688509853036,0,6,0Z"/></clipPath><clipPath id="clip6"><path d="M6,0L84,0C87.311490146964,0,90,2.688509853036,90,6L90,447.13540207409744C90,447.13540207409744,90,447.13540207409744,90,447.13540207409744L0,447.13540207409744C0,447.13540207409744,0,447.13540207409744,0,447.13540207409744L0,6C0,2.688509853036,2.688509853036,0,6,0Z"/></clipPath><clipPath id="clip7"><path d="M6,0L84,0C87.311490146964,0,90,2.688509853036,90,6L90,509.2842602823404C90,509.2842602823404,90,509.2842602823404,90,509.2842602823404L0,509.2842602823404C0,509.2842602823404,0,509.2842602823404,0,509.2842602823404L0,6C0,2.688509853036,2.688509853036,0,6,0Z"/></clipPath><clipPath id="clip8"><path d="M6,0L84,0C87.311490146964,0,90,2.688509853036,90,6L90,571.4285714285714C90,571.4285714285714,90,571.4285714285714,90,571.4285714285714L0,571.4285714285714C0,571.4285714285714,0,571.4285714285714,0,571.4285714285714L0,6C0,2.688509853036,2.688509853036,0,6,0Z"/></clipPath></defs></svg>