<svg xmlns="http://www.w3.org/2000/svg" xmlns:xlink="http://www.w3.org/1999/xlink" version="1.1" class="marks" width="846" height="687" viewBox="0 0 846 687"><rect width="846" height="687" fill="white"/><g fill="none" stroke-miterlimit="10" transform="translate(41,36)"><g class="mark-group role-frame root" role="graphics-object" aria-roledescription="group mark container"><g transform="translate(0,0)"><path class="background" aria-hidden="true" d="M0.5,0.5h800v600h-800Z" stroke="#ddd"/><g><g class="mark-group role-axis" role="graphics-symbol" aria-roledescription="axis" aria-label="X-axis titled 'Parser' for a discrete scale with 7 values: yamlrocks&#xA;0.5.0, yaml_rs&#xA;0.1.4, ryaml&#xA;0.5.1, PyYAML (CDumper)&#xA;6.0.3, PyYAML&#xA;6.0.3, oyaml&#xA;1.0, ruamel.yaml&#xA;0.19.1"><g transform="translate(0.5,600.5)"><path class="background" aria-hidden="true" d="M0,0h0v0h0Z" pointer-events="none"/><g><g class="mark-rule role-axis-tick" pointer-events="none"><line transform="translate(57,0)" x2="0" y2="5" stroke="#888" stroke-width="1" opacity="1"/><line transform="translate(171,0)" x2="0" y2="5" stroke="#888" stroke-width="1" opacity="1"/><line transform="translate(285,0)" x2="0" y2="5" stroke="#888" stroke-width="1" opacity="1"/><line transform="translate(400,0)" x2="0" y2="5" stroke="#888" stroke-width="1" opacity="1"/><line transform="translate(514,0)" x2="0" y2="5" stroke="#888" stroke-width="1" opacity="1"/><line transform="translate(628,0)" x2="0" y2="5" stroke="#888" stroke-width="1" opacity="1"/><line transform="translate(742,0)" x2="0" y2="5" stroke="#888" stroke-width="1" opacity="1"/></g><g class="mark-text role-axis-label" pointer-events="none"><text text-anchor="middle" transform="translate(56.642857142857096,15)" font-family="sans-serif" font-size="10px" fill="#000" opacity="1"><tspan>yamlrocks</tspan><tspan x="0" dy="14">0.5.0</tspan></text><text text-anchor="middle" transform="translate(170.9285714285714,15)" font-family="sans-serif" font-size="10px" fill="#000" opacity="1"><tspan>yaml_rs</tspan><tspan x="0" dy="14">0.1.4</tspan></text><text text-anchor="middle" transform="translate(285.21428571428567,15)" font-family="sans-serif" font-size="10px" fill="#000" opacity="1"><tspan>ryaml</tspan><tspan x="0" dy="14">0.5.1</tspan></text><text text-anchor="middle" transform="translate(399.5,15)" font-family="sans-serif" font-size="10px" fill="#000" opacity="1"><tspan>PyYAML (CDumper)</tspan><tspan x="0" dy="14">6.0.3</tspan></text><text text-anchor="middle" transform="translate(513.7857142857142,15)" font-family="sans-serif" font-size="10px" fill="#000" opacity="1"><tspan>PyYAML</tspan><tspan x="0" dy="14">6.0.3</tspan></text><text text-anchor="middle" transform="translate(628.0714285714286,15)" font-family="sans-serif" font-size="10px" fill="#000" opacity="1"><tspan>oyaml</tspan><tspan x="0" dy="14">1.0</tspan></text><text text-anchor="middle" transform="translate(742.3571428571429,15)" font-family="sans-serif" font-size="10px" fill="#000" opacity="1"><tspan>ruamel.yaml</tspan><tspan x="0" dy="14">0.19.1</tspan></text></g><g class="mark-rule role-axis-domain" pointer-events="none"><line transform="translate(0,0)" x2="800" y2="0" stroke="#888" stroke-width="1" opacity="1"/></g><g class="mark-text role-axis-title" pointer-events="none"><text text-anchor="middle" transform="translate(400,44)" font-family="sans-serif" font-size="11px" font-weight="bold" fill="#000" opacity="1">Parser</text></g></g><path class="foreground" aria-hidden="true" d="" pointer-events="none" display="none"/></g></g><g class="mark-group role-axis" role="graphics-symbol" aria-roledescription="axis" aria-label="Y-axis titled 'Execution Time (seconds, lower=better)' for a linear scale with values from 0 to 8"><g transform="translate(0.5,0.5)"><path class="background" aria-hidden="true" d="M0,0h0v0h0Z" pointer-events="none"/><g><g class="mark-rule role-axis-tick" pointer-events="none"><line transform="translate(0,600)" x2="-5" y2="0" stroke="#888" stroke-width="1" opacity="1"/><line transform="translate(0,564)" x2="-5" y2="0" stroke="#888" stroke-width="1" opacity="1"/><line transform="translate(0,528)" x2="-5" y2="0" stroke="#888" stroke-width="1" opacity="1"/><line transform="translate(0,492)" x2="-5" y2="0" stroke="#888" stroke-width="1" opacity="1"/><line transform="translate(0,455)" x2="-5" y2="0" stroke="#888" stroke-width="1" opacity="1"/><line transform="translate(0,419)" x2="-5" y2="0" stroke="#888" stroke-width="1" opacity="1"/><line transform="translate(0,383)" x2="-5" y2="0" stroke="#888" stroke-width="1" opacity="1"/><line transform="translate(0,347)" x2="-5" y2="0" stroke="#888" stroke-width="1" opacity="1"/><line transform="translate(0,311)" x2="-5" y2="0" stroke="#888" stroke-width="1" opacity="1"/><line transform="translate(0,275)" x2="-5" y2="0" stroke="#888" stroke-width="1" opacity="1"/><line transform="translate(0,239)" x2="-5" y2="0" stroke="#888" stroke-width="1" opacity="1"/><line transform="translate(0,202)" x2="-5" y2="0" stroke="#888" stroke-width="1" opacity="1"/><line transform="translate(0,166)" x2="-5" y2="0" stroke="#888" stroke-width="1" opacity="1"/><line transform="translate(0,130)" x2="-5" y2="0" stroke="#888" stroke-width="1" opacity="1"/><line transform="translate(0,94)" x2="-5" y2="0" stroke="#888" stroke-width="1" opacity="1"/><line transform="translate(0,58)" x2="-5" y2="0" stroke="#888" stroke-width="1" opacity="1"/><line transform="translate(0,22)" x2="-5" y2="0" stroke="#888" stroke-width="1" opacity="1"/></g><g class="mark-text role-axis-label" pointer-events="none"><text text-anchor="end" transform="translate(-7,603)" font-family="sans-serif" font-size="10px" fill="#000" opacity="1">0.0</text><text text-anchor="end" transform="translate(-7,566.8526733915686)" font-family="sans-serif" font-size="10px" fill="#000" opacity="1">0.5</text><text text-anchor="end" transform="translate(-7,530.7053467831373)" font-family="sans-serif" font-size="10px" fill="#000" opacity="1">1.0</text><text text-anchor="end" transform="translate(-7,494.558020174706)" font-family="sans-serif" font-size="10px" fill="#000" opacity="1">1.5</text><text text-anchor="end" transform="translate(-7,458.41069356627463)" font-family="sans-serif" font-size="10px" fill="#000" opacity="1">2.0</text><text text-anchor="end" transform="translate(-7,422.26336695784323)" font-family="sans-serif" font-size="10px" fill="#000" opacity="1">2.5</text><text text-anchor="end" transform="translate(-7,386.11604034941195)" font-family="sans-serif" font-size="10px" fill="#000" opacity="1">3.0</text><text text-anchor="end" transform="translate(-7,349.96871374098055)" font-family="sans-serif" font-size="10px" fill="#000" opacity="1">3.5</text><text text-anchor="end" transform="translate(-7,313.8213871325492)" font-family="sans-serif" font-size="10px" fill="#000" opacity="1">4.0</text><text text-anchor="end" transform="translate(-7,277.67406052411786)" font-family="sans-serif" font-size="10px" fill="#000" opacity="1">4.5</text><text text-anchor="end" transform="translate(-7,241.52673391568652)" font-family="sans-serif" font-size="10px" fill="#000" opacity="1">5.0</text><text text-anchor="end" transform="translate(-7,205.37940730725515)" font-family="sans-serif" font-size="10px" fill="#000" opacity="1">5.5</text><text text-anchor="end" transform="translate(-7,169.23208069882384)" font-family="sans-serif" font-size="10px" fill="#000" opacity="1">6.0</text><text text-anchor="end" transform="translate(-7,133.0847540903925)" font-family="sans-serif" font-size="10px" fill="#000" opacity="1">6.5</text><text text-anchor="end" transform="translate(-7,96.93742748196112)" font-family="sans-serif" font-size="10px" fill="#000" opacity="1">7.0</text><text text-anchor="end" transform="translate(-7,60.79010087352976)" font-family="sans-serif" font-size="10px" fill="#000" opacity="1">7.5</text><text text-anchor="end" transform="translate(-7,24.642774265098463)" font-family="sans-serif" font-size="10px" fill="#000" opacity="1">8.0</text></g><g class="mark-rule role-axis-domain" pointer-events="none"><line transform="translate(0,600)" x2="0" y2="-600" stroke="#888" stroke-width="1" opacity="1"/></g><g class="mark-text role-axis-title" pointer-events="none"><text text-anchor="middle" transform="translate(-24.9013671875,300) rotate(-90) translate(0,-2)" font-family="sans-serif" font-size="11px" font-weight="bold" fill="#000" opacity="1">Execution Time (seconds, lower=better)</text></g></g><path class="foreground" aria-hidden="true" d="" pointer-events="none" display="none"/></g></g><g class="mark-group role-scope" role="graphics-object" aria-roledescription="group mark container"><g transform="translate(5.714285714285666,597.8405697453952)"><path class="background" aria-hidden="true" d="M1.0797151273023928,0L101.77742772984047,0C102.3733387307721,0,102.85714285714286,0.4838041263707504,102.85714285714286,1.0797151273023928L102.85714285714286,2.1594302546047857C102.85714285714286,2.1594302546047857,102.85714285714286,2.1594302546047857,102.85714285714286,2.1594302546047857L0,2.1594302546047857C0,2.1594302546047857,0,2.1594302546047857,0,2.1594302546047857L0,1.0797151273023928C0,0.4838041263707504,0.4838041263707504,0,1.0797151273023928,0Z"/><g clip-path="url(#clip9)"><g class="mark-group role-scope" role="graphics-object" aria-roledescription="group mark container"><g transform="translate(0,-597.8405697453952)"><path class="background" aria-hidden="true" d="M0,0h102.85714285714286v0h-102.85714285714286Z"/><g><g class="mark-rect role-mark layer_0_marks" role="graphics-object" aria-roledescription="rect mark container"><path aria-label="Parser: yamlrocks&#xA;0.5.0; Execution Time (seconds, lower=better): 0.0298698473333; parser: yamlrocks; Execution Time (s): 0.0299; Slowdown: 1.00" role="graphics-symbol" aria-roledescription="bar" d="M0,597.8405697453952h102.85714285714286v2.1594302546047857h-102.85714285714286Z" fill="#a6761d"/></g></g><path class="foreground" aria-hidden="true" d="" display="none"/></g></g></g><path class="foreground" aria-hidden="true" d="" display="none"/></g><g transform="translate(119.99999999999996,596.3888047406381)"><path class="background" aria-hidden="true" d="M1.8055976296809604,0L101.0515452274619,0C102.04808168747357,0,102.85714285714286,0.8090611696692849,102.85714285714286,1.8055976296809604L102.85714285714286,3.6111952593619208C102.85714285714286,3.6111952593619208,102.85714285714286,3.6111952593619208,102.85714285714286,3.6111952593619208L0,3.6111952593619208C0,3.6111952593619208,0,3.6111952593619208,0,3.6111952593619208L0,1.8055976296809604C0,0.8090611696692849,0.8090611696692849,0,1.8055976296809604,0Z"/><g clip-path="url(#clip10)"><g class="mark-group role-scope" role="graphics-object" aria-roledescription="group mark container"><g transform="translate(0,-596.3888047406381)"><path class="background" aria-hidden="true" d="M0,0h102.85714285714286v0h-102.85714285714286Z"/><g><g class="mark-rect role-mark layer_0_marks" role="graphics-object" aria-roledescription="rect mark container"><path aria-label="Parser: yaml_rs&#xA;0.1.4; Execution Time (seconds, lower=better): 0.0499510696667; parser: yaml_rs; Execution Time (s): 0.0500; Slowdown: 1.67" role="graphics-symbol" aria-roledescription="bar" d="M0,596.3888047406381h102.85714285714286v3.6111952593619208h-102.85714285714286Z" fill="#e6ab02"/></g></g><path class="foreground" aria-hidden="true" d="" display="none"/></g></g></g><path class="foreground" aria-hidden="true" d="" display="none"/></g><g transform="translate(234.28571428571425,587.4682982219311)"><path class="background" aria-hidden="true" d="M6,0L96.85714285714286,0C100.16863300410687,0,102.85714285714286,2.688509853036,102.85714285714286,6L102.85714285714286,12.53170177806885C102.85714285714286,12.53170177806885,102.85714285714286,12.53170177806885,102.85714285714286,12.53170177806885L0,12.53170177806885C0,12.53170177806885,0,12.53170177806885,0,12.53170177806885L0,6C0,2.688509853036,2.688509853036,0,6,0Z"/><g clip-path="url(#clip11)"><g class="mark-group role-scope" role="graphics-object" aria-roledescription="group mark container"><g transform="translate(0,-587.4682982219311)"><path class="background" aria-hidden="true" d="M0,0h102.85714285714286v0h-102.85714285714286Z"/><g><g class="mark-rect role-mark layer_0_marks" role="graphics-object" aria-roledescription="rect mark container"><path aria-label="Parser: ryaml&#xA;0.5.1; Execution Time (seconds, lower=better): 0.173342027667; parser: ryaml; Execution Time (s): 0.1733; Slowdown: 5.80" role="graphics-symbol" aria-roledescription="bar" d="M0,587.4682982219311h102.85714285714286v12.53170177806885h-102.85714285714286Z" fill="#66a61e"/></g></g><path class="foreground" aria-hidden="true" d="" display="none"/></g></g></g><path class="foreground" aria-hidden="true" d="" display="none"/></g><g transform="translate(348.57142857142856,586.2050003415807)"><path class="background" aria-hidden="true" d="M6,0L96.85714285714286,0C100.16863300410687,0,102.85714285714286,2.688509853036,102.85714285714286,6L102.85714285714286,13.794999658419329C102.85714285714286,13.794999658419329,102.85714285714286,13.794999658419329,102.85714285714286,13.794999658419329L0,13.794999658419329C0,13.794999658419329,0,13.794999658419329,0,13.794999658419329L0,6C0,2.688509853036,2.688509853036,0,6,0Z"/><g clip-path="url(#clip12)"><g class="mark-group role-scope" role="graphics-object" aria-roledescription="group mark container"><g transform="translate(0,-586.2050003415807)"><path class="background" aria-hidden="true" d="M0,0h102.85714285714286v0h-102.85714285714286Z"/><g><g class="mark-rect role-mark layer_0_marks" role="graphics-object" aria-roledescription="rect mark container"><path aria-label="Parser: PyYAML (CDumper)&#xA;6.0.3; Execution Time (seconds, lower=better): 0.190816319667; parser: PyYAML (CDumper); Execution Time (s): 0.1908; Slowdown: 6.39" role="graphics-symbol" aria-roledescription="bar" d="M0,586.2050003415807h102.85714285714286v13.794999658419329h-102.85714285714286Z" fill="#d95f02"/></g></g><path class="foreground" aria-hidden="true" d="" display="none"/></g></g></g><path class="foreground" aria-hidden="true" d="" display="none"/></g><g transform="translate(462.85714285714283,67.0437110796831)"><path class="background" aria-hidden="true" d="M6,0L96.85714285714286,0C100.16863300410687,0,102.85714285714286,2.688509853036,102.85714285714286,6L102.85714285714286,532.9562889203169C102.85714285714286,532.9562889203169,102.85714285714286,532.9562889203169,102.85714285714286,532.9562889203169L0,532.9562889203169C0,532.9562889203169,0,532.9562889203169,0,532.9562889203169L0,6C0,2.688509853036,2.688509853036,0,6,0Z"/><g clip-path="url(#clip13)"><g class="mark-group role-scope" role="graphics-object" aria-roledescription="group mark container"><g transform="translate(0,-67.0437110796831)"><path class="background" aria-hidden="true" d="M0,0h102.85714285714286v0h-102.85714285714286Z"/><g><g class="mark-rect role-mark layer_0_marks" role="graphics-object" aria-roledescription="rect mark container"><path aria-label="Parser: PyYAML&#xA;6.0.3; Execution Time (seconds, lower=better): 7.372001458; parser: PyYAML; Execution Time (s): 7.3720; Slowdown: 246.80" role="graphics-symbol" aria-roledescription="bar" d="M0,67.0437110796831h102.85714285714286v532.9562889203169h-102.85714285714286Z" fill="#1b9e77"/></g></g><path class="foreground" aria-hidden="true" d="" display="none"/></g></g></g><path class="foreground" aria-hidden="true" d="" display="none"/></g><g transform="translate(577.1428571428571,57.11722542539257)"><path class="background" aria-hidden="true" d="M6,0L96.85714285714286,0C100.16863300410687,0,102.85714285714286,2.688509853036,102.85714285714286,6L102.85714285714286,542.8827745746074C102.85714285714286,542.8827745746074,102.85714285714286,542.8827745746074,102.85714285714286,542.8827745746074L0,542.8827745746074C0,542.8827745746074,0,542.8827745746074,0,542.8827745746074L0,6C0,2.688509853036,2.688509853036,0,6,0Z"/><g clip-path="url(#clip14)"><g class="mark-group role-scope" role="graphics-object" aria-roledescription="group mark container"><g transform="translate(0,-57.11722542539257)"><path class="background" aria-hidden="true" d="M0,0h102.85714285714286v0h-102.85714285714286Z"/><g><g class="mark-rect role-mark layer_0_marks" role="graphics-object" aria-roledescription="rect mark container"><path aria-label="Parser: oyaml&#xA;1.0; Execution Time (seconds, lower=better): 7.50930740267; parser: oyaml; Execution Time (s): 7.5093; Slowdown: 251.40" role="graphics-symbol" aria-roledescription="bar" d="M0,57.11722542539257h102.85714285714286v542.8827745746074h-102.85714285714286Z" fill="#7570b3"/></g></g><path class="foreground" aria-hidden="true" d="" display="none"/></g></g></g><path class="foreground" aria-hidden="true" d="" display="none"/></g><g transform="translate(691.4285714285714,28.57142857142867)"><path class="background" aria-hidden="true" d="M6,0L96.85714285714286,0C100.16863300410687,0,102.85714285714286,2.688509853036,102.85714285714286,6L102.85714285714286,571.4285714285713C102.85714285714286,571.4285714285713,102.85714285714286,571.4285714285713,102.85714285714286,571.4285714285713L0,571.4285714285713C0,571.4285714285713,0,571.4285714285713,0,571.4285714285713L0,6C0,2.688509853036,2.688509853036,0,6,0Z"/><g clip-path="url(#clip15)"><g class="mark-group role-scope" role="graphics-object" aria-roledescription="group mark container"><g transform="translate(0,-28.57142857142867)"><path class="background" aria-hidden="true" d="M0,0h102.85714285714286v0h-102.85714285714286Z"/><g><g class="mark-rect role-mark layer_0_marks" role="graphics-object" aria-roledescription="rect mark container"><path aria-label="Parser: ruamel.yaml&#xA;0.19.1; Execution Time (seconds, lower=better): 7.90416090267; parser: ruamel.yaml; Execution Time (s): 7.9042; Slowdown: 264.62" role="graphics-symbol" aria-roledescription="bar" d="M0,28.57142857142867h102.85714285714286v571.4285714285713h-102.85714285714286Z" fill="#e7298a"/></g></g><path class="foreground" aria-hidden="true" d="" display="none"/></g></g></g><path class="foreground" aria-hidden="true" d="" display="none"/></g></g><g class="mark-text role-mark layer_1_marks" role="graphics-object" aria-roledescription="text mark container"><text aria-label="Parser: yamlrocks&#xA;0.5.0; Execution Time (seconds, lower=better): 0.0298698473333; parser: yamlrocks; label: 0.0299s (x1.00); Execution Time (s): 0.0299; Slowdown: 1.00" role="graphics-symbol" aria-roledescription="text mark" text-anchor="middle" transform="translate(57.142857142857096,593.8405697453952)" font-family="sans-serif" font-size="9px" font-weight="bold" fill="#a6761d">0.0299s (x1.00)</text><text aria-label="Parser: yaml_rs&#xA;0.1.4; Execution Time (seconds, lower=better): 0.0499510696667; parser: yaml_rs; label: 0.0500s (x1.67); Execution Time (s): 0.0500; Slowdown: 1.67" role="graphics-symbol" aria-roledescription="text mark" text-anchor="middle" transform="translate(171.4285714285714,592.3888047406381)" font-family="sans-serif" font-size="9px" font-weight="bold" fill="#e6ab02">0.0500s (x1.67)</text><text aria-label="Parser: ryaml&#xA;0.5.1; Execution Time (seconds, lower=better): 0.173342027667; parser: ryaml; label: 0.1733s (x5.80); Execution Time (s): 0.1733; Slowdown: 5.80" role="graphics-symbol" aria-roledescription="text mark" text-anchor="middle" transform="translate(285.71428571428567,583.4682982219311)" font-family="sans-serif" font-size="9px" font-weight="bold" fill="#66a61e">0.1733s (x5.80)</text><text aria-label="Parser: PyYAML (CDumper)&#xA;6.0.3; Execution Time (seconds, lower=better): 0.190816319667; parser: PyYAML (CDumper); label: 0.1908s (x6.39); Execution Time (s): 0.1908; Slowdown: 6.39" role="graphics-symbol" aria-roledescription="text mark" text-anchor="middle" transform="translate(400,582.2050003415807)" font-family="sans-serif" font-size="9px" font-weight="bold" fill="#d95f02">0.1908s (x6.39)</text><text aria-label="Parser: PyYAML&#xA;6.0.3; Execution Time (seconds, lower=better): 7.372001458; parser: PyYAML; label: 7.3720s (x246.80); Execution Time (s): 7.3720; Slowdown: 246.80" role="graphics-symbol" aria-roledescription="text mark" text-anchor="middle" transform="translate(514.2857142857142,63.043711079683106)" font-family="sans-serif" font-size="9px" font-weight="bold" fill="#1b9e77">7.3720s (x246.80)</text><text aria-label="Parser: oyaml&#xA;1.0; Execution Time (seconds, lower=better): 7.50930740267; parser: oyaml; label: 7.5093s (x251.40); Execution Time (s): 7.5093; Slowdown: 251.40" role="graphics-symbol" aria-roledescription="text mark" text-anchor="middle" transform="translate(628.5714285714286,53.11722542539257)" font-family="sans-serif" font-size="9px" font-weight="bold" fill="#7570b3">7.5093s (x251.40)</text><text aria-label="Parser: ruamel.yaml&#xA;0.19.1; Execution Time (seconds, lower=better): 7.90416090267; parser: ruamel.yaml; label: 7.9042s (x264.62); Execution Time (s): 7.9042; Slowdown: 264.62" role="graphics-symbol" aria-roledescription="text mark" text-anchor="middle" transform="translate(742.8571428571429,24.57142857142867)" font-family="sans-serif" font-size="9px" font-weight="bold" fill="#e7298a">7.9042s (x264.62)</text></g><g class="mark-group role-title"><g transform="translate(400,-31)"><path class="background" aria-hidden="true" d="M0,0h0v0h0Z" pointer-events="none"/><g><g class="mark-text role-title-text" role="graphics-symbol" aria-roledescription="title" aria-label="Title text 'YAML parsers benchmark (dumps)'" pointer-events="none"><text text-anchor="middle" transform="translate(0,10)" font-family="sans-serif" font-size="13px" font-weight="bold" fill="#000" opacity="1">YAML parsers benchmark (dumps)</text></g><g class="mark-text role-title-subtitle" role="graphics-symbol" aria-roledescription="subtitle" aria-label="Subtitle text 'Python: 3.14.6 (Darwin 25.4.0) | CPU: Unknown'" pointer-events="none"><text text-anchor="middle" transform="translate(0,25)" font-family="sans-serif" font-size="12px" fill="#000" opacity="1">Python: 3.14.6 (Darwin 25.4.0) | CPU: Unknown</text></g></g><path class="foreground" aria-hidden="true" d="" pointer-events="none" display="none"/></g></g></g><path class="foreground" aria-hidden="true" d="" display="none"/></g></g></g><defs><clipPath id="clip9"><path d="M1.0797151273023928,0L101.77742772984047,0C102.3733387307721,0,102.85714285714286,0.4838041263707504,102.85714285714286,1.0797151273023928L102.85714285714286,2.1594302546047857C102.85714285714286,2.1594302546047857,102.85714285714286,2.1594302546047857,102.85714285714286,2.1594302546047857L0,2.1594302546047857C0,2.1594302546047857,0,2.1594302546047857,0,2.1594302546047857L0,1.0797151273023928C0,0.4838041263707504,0.4838041263707504,0,1.0797151273023928,0Z"/></clipPath><clipPath id="clip10"><path d="M1.8055976296809604,0L101.0515452274619,0C102.04808168747357,0,102.85714285714286,0.8090611696692849,102.85714285714286,1.8055976296809604L102.85714285714286,3.6111952593619208C102.85714285714286,3.6111952593619208,102.85714285714286,3.6111952593619208,102.85714285714286,3.6111952593619208L0,3.6111952593619208C0,3.6111952593619208,0,3.6111952593619208,0,3.6111952593619208L0,1.8055976296809604C0,0.8090611696692849,0.8090611696692849,0,1.8055976296809604,0Z"/></clipPath><clipPath id="clip11"><path d="M6,0L96.85714285714286,0C100.16863300410687,0,102.85714285714286,2.688509853036,102.85714285714286,6L102.85714285714286,12.53170177806885C102.85714285714286,12.53170177806885,102.85714285714286,12.53170177806885,102.85714285714286,12.53170177806885L0,12.53170177806885C0,12.53170177806885,0,12.53170177806885,0,12.53170177806885L0,6C0,2.688509853036,2.688509853036,0,6,0Z"/></clipPath><clipPath id="clip12"><path d="M6,0L96.85714285714286,0C100.16863300410687,0,102.85714285714286,2.688509853036,102.85714285714286,6L102.85714285714286,13.794999658419329C102.85714285714286,13.794999658419329,102.85714285714286,13.794999658419329,102.85714285714286,13.794999658419329L0,13.794999658419329C0,13.794999658419329,0,13.794999658419329,0,13.794999658419329L0,6C0,2.688509853036,2.688509853036,0,6,0Z"/></clipPath><clipPath id="clip13"><path d="M6,0L96.85714285714286,0C100.16863300410687,0,102.85714285714286,2.688509853036,102.85714285714286,6L102.85714285714286,532.9562889203169C102.85714285714286,532.9562889203169,102.85714285714286,532.9562889203169,102.85714285714286,532.9562889203169L0,532.9562889203169C0,532.9562889203169,0,532.9562889203169,0,532.9562889203169L0,6C0,2.688509853036,2.688509853036,0,6,0Z"/></clipPath><clipPath id="clip14"><path d="M6,0L96.85714285714286,0C100.16863300410687,0,102.85714285714286,2.688509853036,102.85714285714286,6L102.85714285714286,542.8827745746074C102.85714285714286,542.8827745746074,102.85714285714286,542.8827745746074,102.85714285714286,542.8827745746074L0,542.8827745746074C0,542.8827745746074,0,542.8827745746074,0,542.8827745746074L0,6C0,2.688509853036,2.688509853036,0,6,0Z"/></clipPath><clipPath id="clip15"><path d="M6,0L96.85714285714286,0C100.16863300410687,0,102.85714285714286,2.688509853036,102.85714285714286,6L102.85714285714286,571.4285714285713C102.85714285714286,571.4285714285713,102.85714285714286,571.4285714285713,102.85714285714286,571.4285714285713L0,571.4285714285713C0,571.4285714285713,0,571.4285714285713,0,571.4285714285713L0,6C0,2.688509853036,2.688509853036,0,6,0Z"/></clipPath></defs></svg>