<svg xmlns="http://www.w3.org/2000/svg" xmlns:xlink="http://www.w3.org/1999/xlink" version="1.1" class="marks" width="846" height="687" viewBox="0 0 846 687"><rect width="846" height="687" fill="white"/><g fill="none" stroke-miterlimit="10" transform="translate(41,36)"><g class="mark-group role-frame root" role="graphics-object" aria-roledescription="group mark container"><g transform="translate(0,0)"><path class="background" aria-hidden="true" d="M0.5,0.5h800v600h-800Z" stroke="#ddd"/><g><g class="mark-group role-axis" role="graphics-symbol" aria-roledescription="axis" aria-label="X-axis titled 'Parser' for a discrete scale with 8 values: toml_rs&#xA;0.4.1, rtoml&#xA;0.13.0, pytomlpp&#xA;1.1.0, tomledit&#xA;1.2.2, toml&#xA;0.10.2, ending with tomlkit&#xA;0.15.1"><g transform="translate(0.5,600.5)"><path class="background" aria-hidden="true" d="M0,0h0v0h0Z" pointer-events="none"/><g><g class="mark-rule role-axis-tick" pointer-events="none"><line transform="translate(50,0)" x2="0" y2="5" stroke="#888" stroke-width="1" opacity="1"/><line transform="translate(150,0)" x2="0" y2="5" stroke="#888" stroke-width="1" opacity="1"/><line transform="translate(250,0)" x2="0" y2="5" stroke="#888" stroke-width="1" opacity="1"/><line transform="translate(350,0)" x2="0" y2="5" stroke="#888" stroke-width="1" opacity="1"/><line transform="translate(450,0)" x2="0" y2="5" stroke="#888" stroke-width="1" opacity="1"/><line transform="translate(550,0)" x2="0" y2="5" stroke="#888" stroke-width="1" opacity="1"/><line transform="translate(650,0)" x2="0" y2="5" stroke="#888" stroke-width="1" opacity="1"/><line transform="translate(750,0)" x2="0" y2="5" stroke="#888" stroke-width="1" opacity="1"/></g><g class="mark-text role-axis-label" pointer-events="none"><text text-anchor="middle" transform="translate(49.5,15)" font-family="sans-serif" font-size="10px" fill="#000" opacity="1"><tspan>toml_rs</tspan><tspan x="0" dy="14">0.4.1</tspan></text><text text-anchor="middle" transform="translate(149.5,15)" font-family="sans-serif" font-size="10px" fill="#000" opacity="1"><tspan>rtoml</tspan><tspan x="0" dy="14">0.13.0</tspan></text><text text-anchor="middle" transform="translate(249.5,15)" font-family="sans-serif" font-size="10px" fill="#000" opacity="1"><tspan>pytomlpp</tspan><tspan x="0" dy="14">1.1.0</tspan></text><text text-anchor="middle" transform="translate(349.5,15)" font-family="sans-serif" font-size="10px" fill="#000" opacity="1"><tspan>tomledit</tspan><tspan x="0" dy="14">1.2.2</tspan></text><text text-anchor="middle" transform="translate(449.5,15)" font-family="sans-serif" font-size="10px" fill="#000" opacity="1"><tspan>toml</tspan><tspan x="0" dy="14">0.10.2</tspan></text><text text-anchor="middle" transform="translate(549.5,15)" font-family="sans-serif" font-size="10px" fill="#000" opacity="1"><tspan>tomli-w</tspan><tspan x="0" dy="14">1.2.0</tspan></text><text text-anchor="middle" transform="translate(649.5,15)" font-family="sans-serif" font-size="10px" fill="#000" opacity="1"><tspan>tomlrt</tspan><tspan x="0" dy="14">2.2.5</tspan></text><text text-anchor="middle" transform="translate(749.5,15)" font-family="sans-serif" font-size="10px" fill="#000" opacity="1"><tspan>tomlkit</tspan><tspan x="0" dy="14">0.15.1</tspan></text></g><g class="mark-rule role-axis-domain" pointer-events="none"><line transform="translate(0,0)" x2="800" y2="0" stroke="#888" stroke-width="1" opacity="1"/></g><g class="mark-text role-axis-title" pointer-events="none"><text text-anchor="middle" transform="translate(400,44)" font-family="sans-serif" font-size="11px" font-weight="bold" fill="#000" opacity="1">Parser</text></g></g><path class="foreground" aria-hidden="true" d="" pointer-events="none" display="none"/></g></g><g class="mark-group role-axis" role="graphics-symbol" aria-roledescription="axis" aria-label="Y-axis titled 'Execution Time (seconds, lower=better)' for a linear scale with values from 0.0 to 2.6"><g transform="translate(0.5,0.5)"><path class="background" aria-hidden="true" d="M0,0h0v0h0Z" pointer-events="none"/><g><g class="mark-rule role-axis-tick" pointer-events="none"><line transform="translate(0,600)" x2="-5" y2="0" stroke="#888" stroke-width="1" opacity="1"/><line transform="translate(0,554)" x2="-5" y2="0" stroke="#888" stroke-width="1" opacity="1"/><line transform="translate(0,509)" x2="-5" y2="0" stroke="#888" stroke-width="1" opacity="1"/><line transform="translate(0,463)" x2="-5" y2="0" stroke="#888" stroke-width="1" opacity="1"/><line transform="translate(0,418)" x2="-5" y2="0" stroke="#888" stroke-width="1" opacity="1"/><line transform="translate(0,372)" x2="-5" y2="0" stroke="#888" stroke-width="1" opacity="1"/><line transform="translate(0,327)" x2="-5" y2="0" stroke="#888" stroke-width="1" opacity="1"/><line transform="translate(0,281)" x2="-5" y2="0" stroke="#888" stroke-width="1" opacity="1"/><line transform="translate(0,236)" x2="-5" y2="0" stroke="#888" stroke-width="1" opacity="1"/><line transform="translate(0,190)" x2="-5" y2="0" stroke="#888" stroke-width="1" opacity="1"/><line transform="translate(0,145)" x2="-5" y2="0" stroke="#888" stroke-width="1" opacity="1"/><line transform="translate(0,99)" x2="-5" y2="0" stroke="#888" stroke-width="1" opacity="1"/><line transform="translate(0,54)" x2="-5" y2="0" stroke="#888" stroke-width="1" opacity="1"/><line transform="translate(0,8)" x2="-5" y2="0" stroke="#888" stroke-width="1" opacity="1"/></g><g class="mark-text role-axis-label" pointer-events="none"><text text-anchor="end" transform="translate(-7,603)" font-family="sans-serif" font-size="10px" fill="#000" opacity="1">0.0</text><text text-anchor="end" transform="translate(-7,557.4889520622698)" font-family="sans-serif" font-size="10px" fill="#000" opacity="1">0.2</text><text text-anchor="end" transform="translate(-7,511.97790412453963)" font-family="sans-serif" font-size="10px" fill="#000" opacity="1">0.4</text><text text-anchor="end" transform="translate(-7,466.4668561868095)" font-family="sans-serif" font-size="10px" fill="#000" opacity="1">0.6</text><text text-anchor="end" transform="translate(-7,420.9558082490792)" font-family="sans-serif" font-size="10px" fill="#000" opacity="1">0.8</text><text text-anchor="end" transform="translate(-7,375.44476031134906)" font-family="sans-serif" font-size="10px" fill="#000" opacity="1">1.0</text><text text-anchor="end" transform="translate(-7,329.9337123736189)" font-family="sans-serif" font-size="10px" fill="#000" opacity="1">1.2</text><text text-anchor="end" transform="translate(-7,284.4226644358887)" font-family="sans-serif" font-size="10px" fill="#000" opacity="1">1.4</text><text text-anchor="end" transform="translate(-7,238.91161649815845)" font-family="sans-serif" font-size="10px" fill="#000" opacity="1">1.6</text><text text-anchor="end" transform="translate(-7,193.4005685604283)" font-family="sans-serif" font-size="10px" fill="#000" opacity="1">1.8</text><text text-anchor="end" transform="translate(-7,147.88952062269811)" font-family="sans-serif" font-size="10px" fill="#000" opacity="1">2.0</text><text text-anchor="end" transform="translate(-7,102.37847268496786)" font-family="sans-serif" font-size="10px" fill="#000" opacity="1">2.2</text><text text-anchor="end" transform="translate(-7,56.867424747237756)" font-family="sans-serif" font-size="10px" fill="#000" opacity="1">2.4</text><text text-anchor="end" transform="translate(-7,11.356376809507516)" font-family="sans-serif" font-size="10px" fill="#000" opacity="1">2.6</text></g><g class="mark-rule role-axis-domain" pointer-events="none"><line transform="translate(0,600)" x2="0" y2="-600" stroke="#888" stroke-width="1" opacity="1"/></g><g class="mark-text role-axis-title" pointer-events="none"><text text-anchor="middle" transform="translate(-24.9013671875,300) rotate(-90) translate(0,-2)" font-family="sans-serif" font-size="11px" font-weight="bold" fill="#000" opacity="1">Execution Time (seconds, lower=better)</text></g></g><path class="foreground" aria-hidden="true" d="" pointer-events="none" display="none"/></g></g><g class="mark-group role-scope" role="graphics-object" aria-roledescription="group mark container"><g transform="translate(5,591.866925422765)"><path class="background" aria-hidden="true" d="M4.066537288617496,0L85.9334627113825,0C88.1778457386356,0,90,1.8221542613644066,90,4.066537288617496L90,8.133074577234993C90,8.133074577234993,90,8.133074577234993,90,8.133074577234993L0,8.133074577234993C0,8.133074577234993,0,8.133074577234993,0,8.133074577234993L0,4.066537288617496C0,1.8221542613644066,1.8221542613644066,0,4.066537288617496,0Z"/><g clip-path="url(#clip9)"><g class="mark-group role-scope" role="graphics-object" aria-roledescription="group mark container"><g transform="translate(0,-591.866925422765)"><path class="background" aria-hidden="true" d="M0,0h90v0h-90Z"/><g><g class="mark-rect role-mark layer_0_marks" role="graphics-object" aria-roledescription="rect mark container"><path aria-label="Parser: toml_rs&#xA;0.4.1; Execution Time (seconds, lower=better): 0.0357411; parser: toml_rs; Execution Time (s): 0.0357; Slowdown: 1.00" role="graphics-symbol" aria-roledescription="bar" d="M0,591.866925422765h90v8.133074577234993h-90Z" fill="#e7298a"/></g></g><path class="foreground" aria-hidden="true" d="" display="none"/></g></g></g><path class="foreground" aria-hidden="true" d="" display="none"/></g><g transform="translate(105,590.8013752574194)"><path class="background" aria-hidden="true" d="M4.599312371290296,0L85.4006876287097,0C87.93911722876595,0,90,2.060882771234055,90,4.599312371290296L90,9.198624742580591C90,9.198624742580591,90,9.198624742580591,90,9.198624742580591L0,9.198624742580591C0,9.198624742580591,0,9.198624742580591,0,9.198624742580591L0,4.599312371290296C0,2.060882771234055,2.060882771234055,0,4.599312371290296,0Z"/><g clip-path="url(#clip10)"><g class="mark-group role-scope" role="graphics-object" aria-roledescription="group mark container"><g transform="translate(0,-590.8013752574194)"><path class="background" aria-hidden="true" d="M0,0h90v0h-90Z"/><g><g class="mark-rect role-mark layer_0_marks" role="graphics-object" aria-roledescription="rect mark container"><path aria-label="Parser: rtoml&#xA;0.13.0; Execution Time (seconds, lower=better): 0.0404236999999; parser: rtoml; Execution Time (s): 0.0404; Slowdown: 1.13" role="graphics-symbol" aria-roledescription="bar" d="M0,590.8013752574194h90v9.198624742580591h-90Z" fill="#d95f02"/></g></g><path class="foreground" aria-hidden="true" d="" display="none"/></g></g></g><path class="foreground" aria-hidden="true" d="" display="none"/></g><g transform="translate(205,585.0275478942115)"><path class="background" aria-hidden="true" d="M6,0L84,0C87.311490146964,0,90,2.688509853036,90,6L90,14.972452105788534C90,14.972452105788534,90,14.972452105788534,90,14.972452105788534L0,14.972452105788534C0,14.972452105788534,0,14.972452105788534,0,14.972452105788534L0,6C0,2.688509853036,2.688509853036,0,6,0Z"/><g clip-path="url(#clip11)"><g class="mark-group role-scope" role="graphics-object" aria-roledescription="group mark container"><g transform="translate(0,-585.0275478942115)"><path class="background" aria-hidden="true" d="M0,0h90v0h-90Z"/><g><g class="mark-rect role-mark layer_0_marks" role="graphics-object" aria-roledescription="rect mark container"><path aria-label="Parser: pytomlpp&#xA;1.1.0; Execution Time (seconds, lower=better): 0.065797; parser: pytomlpp; Execution Time (s): 0.0658; Slowdown: 1.84" role="graphics-symbol" aria-roledescription="bar" d="M0,585.0275478942115h90v14.972452105788534h-90Z" fill="#1b9e77"/></g></g><path class="foreground" aria-hidden="true" d="" display="none"/></g></g></g><path class="foreground" aria-hidden="true" d="" display="none"/></g><g transform="translate(305,577.813000041976)"><path class="background" aria-hidden="true" d="M6,0L84,0C87.311490146964,0,90,2.688509853036,90,6L90,22.18699995802399C90,22.18699995802399,90,22.18699995802399,90,22.18699995802399L0,22.18699995802399C0,22.18699995802399,0,22.18699995802399,0,22.18699995802399L0,6C0,2.688509853036,2.688509853036,0,6,0Z"/><g clip-path="url(#clip12)"><g class="mark-group role-scope" role="graphics-object" aria-roledescription="group mark container"><g transform="translate(0,-577.813000041976)"><path class="background" aria-hidden="true" d="M0,0h90v0h-90Z"/><g><g class="mark-rect role-mark layer_0_marks" role="graphics-object" aria-roledescription="rect mark container"><path aria-label="Parser: tomledit&#xA;1.2.2; Execution Time (seconds, lower=better): 0.0975016; parser: tomledit; Execution Time (s): 0.0975; Slowdown: 2.73" role="graphics-symbol" aria-roledescription="bar" d="M0,577.813000041976h90v22.18699995802399h-90Z" fill="#66a61e"/></g></g><path class="foreground" aria-hidden="true" d="" display="none"/></g></g></g><path class="foreground" aria-hidden="true" d="" display="none"/></g><g transform="translate(405,569.5281006088314)"><path class="background" aria-hidden="true" d="M6,0L84,0C87.311490146964,0,90,2.688509853036,90,6L90,30.471899391168563C90,30.471899391168563,90,30.471899391168563,90,30.471899391168563L0,30.471899391168563C0,30.471899391168563,0,30.471899391168563,0,30.471899391168563L0,6C0,2.688509853036,2.688509853036,0,6,0Z"/><g clip-path="url(#clip13)"><g class="mark-group role-scope" role="graphics-object" aria-roledescription="group mark container"><g transform="translate(0,-569.5281006088314)"><path class="background" aria-hidden="true" d="M0,0h90v0h-90Z"/><g><g class="mark-rect role-mark layer_0_marks" role="graphics-object" aria-roledescription="rect mark container"><path aria-label="Parser: toml&#xA;0.10.2; Execution Time (seconds, lower=better): 0.1339099; parser: toml; Execution Time (s): 0.1339; Slowdown: 3.75" role="graphics-symbol" aria-roledescription="bar" d="M0,569.5281006088314h90v30.471899391168563h-90Z" fill="#7570b3"/></g></g><path class="foreground" aria-hidden="true" d="" display="none"/></g></g></g><path class="foreground" aria-hidden="true" d="" display="none"/></g><g transform="translate(505,567.6340445712661)"><path class="background" aria-hidden="true" d="M6,0L84,0C87.311490146964,0,90,2.688509853036,90,6L90,32.365955428733855C90,32.365955428733855,90,32.365955428733855,90,32.365955428733855L0,32.365955428733855C0,32.365955428733855,0,32.365955428733855,0,32.365955428733855L0,6C0,2.688509853036,2.688509853036,0,6,0Z"/><g clip-path="url(#clip14)"><g class="mark-group role-scope" role="graphics-object" aria-roledescription="group mark container"><g transform="translate(0,-567.6340445712661)"><path class="background" aria-hidden="true" d="M0,0h90v0h-90Z"/><g><g class="mark-rect role-mark layer_0_marks" role="graphics-object" aria-roledescription="rect mark container"><path aria-label="Parser: tomli-w&#xA;1.2.0; Execution Time (seconds, lower=better): 0.1422334; parser: tomli-w; Execution Time (s): 0.1422; Slowdown: 3.98" role="graphics-symbol" aria-roledescription="bar" d="M0,567.6340445712661h90v32.365955428733855h-90Z" fill="#e6ab02"/></g></g><path class="foreground" aria-hidden="true" d="" display="none"/></g></g></g><path class="foreground" aria-hidden="true" d="" display="none"/></g><g transform="translate(605,527.9001690587459)"><path class="background" aria-hidden="true" d="M6,0L84,0C87.311490146964,0,90,2.688509853036,90,6L90,72.09983094125414C90,72.09983094125414,90,72.09983094125414,90,72.09983094125414L0,72.09983094125414C0,72.09983094125414,0,72.09983094125414,0,72.09983094125414L0,6C0,2.688509853036,2.688509853036,0,6,0Z"/><g clip-path="url(#clip15)"><g class="mark-group role-scope" role="graphics-object" aria-roledescription="group mark container"><g transform="translate(0,-527.9001690587459)"><path class="background" aria-hidden="true" d="M0,0h90v0h-90Z"/><g><g class="mark-rect role-mark layer_0_marks" role="graphics-object" aria-roledescription="rect mark container"><path aria-label="Parser: tomlrt&#xA;2.2.5; Execution Time (seconds, lower=better): 0.3168454; parser: tomlrt; Execution Time (s): 0.3168; Slowdown: 8.87" role="graphics-symbol" aria-roledescription="bar" d="M0,527.9001690587459h90v72.09983094125414h-90Z" fill="#666666"/></g></g><path class="foreground" aria-hidden="true" d="" display="none"/></g></g></g><path class="foreground" aria-hidden="true" d="" display="none"/></g><g transform="translate(705,28.571428571428537)"><path class="background" aria-hidden="true" d="M6,0L84,0C87.311490146964,0,90,2.688509853036,90,6L90,571.4285714285714C90,571.4285714285714,90,571.4285714285714,90,571.4285714285714L0,571.4285714285714C0,571.4285714285714,0,571.4285714285714,0,571.4285714285714L0,6C0,2.688509853036,2.688509853036,0,6,0Z"/><g clip-path="url(#clip16)"><g class="mark-group role-scope" role="graphics-object" aria-roledescription="group mark container"><g transform="translate(0,-28.571428571428537)"><path class="background" aria-hidden="true" d="M0,0h90v0h-90Z"/><g><g class="mark-rect role-mark layer_0_marks" role="graphics-object" aria-roledescription="rect mark container"><path aria-label="Parser: tomlkit&#xA;0.15.1; Execution Time (seconds, lower=better): 2.5111642; parser: tomlkit; Execution Time (s): 2.5112; Slowdown: 70.26" role="graphics-symbol" aria-roledescription="bar" d="M0,28.571428571428537h90v571.4285714285714h-90Z" fill="#a6761d"/></g></g><path class="foreground" aria-hidden="true" d="" display="none"/></g></g></g><path class="foreground" aria-hidden="true" d="" display="none"/></g></g><g class="mark-text role-mark layer_1_marks" role="graphics-object" aria-roledescription="text mark container"><text aria-label="Parser: toml_rs&#xA;0.4.1; Execution Time (seconds, lower=better): 0.0357411; parser: toml_rs; label: 0.0357s (x1.00); Execution Time (s): 0.0357; Slowdown: 1.00" role="graphics-symbol" aria-roledescription="text mark" text-anchor="middle" transform="translate(50,587.866925422765)" font-family="sans-serif" font-size="9px" font-weight="bold" fill="#e7298a">0.0357s (x1.00)</text><text aria-label="Parser: rtoml&#xA;0.13.0; Execution Time (seconds, lower=better): 0.0404236999999; parser: rtoml; label: 0.0404s (x1.13); Execution Time (s): 0.0404; Slowdown: 1.13" role="graphics-symbol" aria-roledescription="text mark" text-anchor="middle" transform="translate(150,586.8013752574194)" font-family="sans-serif" font-size="9px" font-weight="bold" fill="#d95f02">0.0404s (x1.13)</text><text aria-label="Parser: pytomlpp&#xA;1.1.0; Execution Time (seconds, lower=better): 0.065797; parser: pytomlpp; label: 0.0658s (x1.84); Execution Time (s): 0.0658; Slowdown: 1.84" role="graphics-symbol" aria-roledescription="text mark" text-anchor="middle" transform="translate(250,581.0275478942115)" font-family="sans-serif" font-size="9px" font-weight="bold" fill="#1b9e77">0.0658s (x1.84)</text><text aria-label="Parser: tomledit&#xA;1.2.2; Execution Time (seconds, lower=better): 0.0975016; parser: tomledit; label: 0.0975s (x2.73); Execution Time (s): 0.0975; Slowdown: 2.73" role="graphics-symbol" aria-roledescription="text mark" text-anchor="middle" transform="translate(350,573.813000041976)" font-family="sans-serif" font-size="9px" font-weight="bold" fill="#66a61e">0.0975s (x2.73)</text><text aria-label="Parser: toml&#xA;0.10.2; Execution Time (seconds, lower=better): 0.1339099; parser: toml; label: 0.1339s (x3.75); Execution Time (s): 0.1339; Slowdown: 3.75" role="graphics-symbol" aria-roledescription="text mark" text-anchor="middle" transform="translate(450,565.5281006088314)" font-family="sans-serif" font-size="9px" font-weight="bold" fill="#7570b3">0.1339s (x3.75)</text><text aria-label="Parser: tomli-w&#xA;1.2.0; Execution Time (seconds, lower=better): 0.1422334; parser: tomli-w; label: 0.1422s (x3.98); Execution Time (s): 0.1422; Slowdown: 3.98" role="graphics-symbol" aria-roledescription="text mark" text-anchor="middle" transform="translate(550,563.6340445712661)" font-family="sans-serif" font-size="9px" font-weight="bold" fill="#e6ab02">0.1422s (x3.98)</text><text aria-label="Parser: tomlrt&#xA;2.2.5; Execution Time (seconds, lower=better): 0.3168454; parser: tomlrt; label: 0.3168s (x8.87); Execution Time (s): 0.3168; Slowdown: 8.87" role="graphics-symbol" aria-roledescription="text mark" text-anchor="middle" transform="translate(650,523.9001690587459)" font-family="sans-serif" font-size="9px" font-weight="bold" fill="#666666">0.3168s (x8.87)</text><text aria-label="Parser: tomlkit&#xA;0.15.1; Execution Time (seconds, lower=better): 2.5111642; parser: tomlkit; label: 2.5112s (x70.26); Execution Time (s): 2.5112; Slowdown: 70.26" role="graphics-symbol" aria-roledescription="text mark" text-anchor="middle" transform="translate(750,24.571428571428537)" font-family="sans-serif" font-size="9px" font-weight="bold" fill="#a6761d">2.5112s (x70.26)</text></g><g class="mark-group role-title"><g transform="translate(400,-31)"><path class="background" aria-hidden="true" d="M0,0h0v0h0Z" pointer-events="none"/><g><g class="mark-text role-title-text" role="graphics-symbol" aria-roledescription="title" aria-label="Title text 'TOML parsers benchmark (dumps)'" pointer-events="none"><text text-anchor="middle" transform="translate(0,10)" font-family="sans-serif" font-size="13px" font-weight="bold" fill="#000" opacity="1">TOML parsers benchmark (dumps)</text></g><g class="mark-text role-title-subtitle" role="graphics-symbol" aria-roledescription="subtitle" aria-label="Subtitle text 'Python: 3.14.7 (Windows 2025Server) | CPU: AMD EPYC 7763 64-Core Processor'" pointer-events="none"><text text-anchor="middle" transform="translate(0,25)" font-family="sans-serif" font-size="12px" fill="#000" opacity="1">Python: 3.14.7 (Windows 2025Server) | CPU: AMD EPYC 7763 64-Core Processor</text></g></g><path class="foreground" aria-hidden="true" d="" pointer-events="none" display="none"/></g></g></g><path class="foreground" aria-hidden="true" d="" display="none"/></g></g></g><defs><clipPath id="clip9"><path d="M4.066537288617496,0L85.9334627113825,0C88.1778457386356,0,90,1.8221542613644066,90,4.066537288617496L90,8.133074577234993C90,8.133074577234993,90,8.133074577234993,90,8.133074577234993L0,8.133074577234993C0,8.133074577234993,0,8.133074577234993,0,8.133074577234993L0,4.066537288617496C0,1.8221542613644066,1.8221542613644066,0,4.066537288617496,0Z"/></clipPath><clipPath id="clip10"><path d="M4.599312371290296,0L85.4006876287097,0C87.93911722876595,0,90,2.060882771234055,90,4.599312371290296L90,9.198624742580591C90,9.198624742580591,90,9.198624742580591,90,9.198624742580591L0,9.198624742580591C0,9.198624742580591,0,9.198624742580591,0,9.198624742580591L0,4.599312371290296C0,2.060882771234055,2.060882771234055,0,4.599312371290296,0Z"/></clipPath><clipPath id="clip11"><path d="M6,0L84,0C87.311490146964,0,90,2.688509853036,90,6L90,14.972452105788534C90,14.972452105788534,90,14.972452105788534,90,14.972452105788534L0,14.972452105788534C0,14.972452105788534,0,14.972452105788534,0,14.972452105788534L0,6C0,2.688509853036,2.688509853036,0,6,0Z"/></clipPath><clipPath id="clip12"><path d="M6,0L84,0C87.311490146964,0,90,2.688509853036,90,6L90,22.18699995802399C90,22.18699995802399,90,22.18699995802399,90,22.18699995802399L0,22.18699995802399C0,22.18699995802399,0,22.18699995802399,0,22.18699995802399L0,6C0,2.688509853036,2.688509853036,0,6,0Z"/></clipPath><clipPath id="clip13"><path d="M6,0L84,0C87.311490146964,0,90,2.688509853036,90,6L90,30.471899391168563C90,30.471899391168563,90,30.471899391168563,90,30.471899391168563L0,30.471899391168563C0,30.471899391168563,0,30.471899391168563,0,30.471899391168563L0,6C0,2.688509853036,2.688509853036,0,6,0Z"/></clipPath><clipPath id="clip14"><path d="M6,0L84,0C87.311490146964,0,90,2.688509853036,90,6L90,32.365955428733855C90,32.365955428733855,90,32.365955428733855,90,32.365955428733855L0,32.365955428733855C0,32.365955428733855,0,32.365955428733855,0,32.365955428733855L0,6C0,2.688509853036,2.688509853036,0,6,0Z"/></clipPath><clipPath id="clip15"><path d="M6,0L84,0C87.311490146964,0,90,2.688509853036,90,6L90,72.09983094125414C90,72.09983094125414,90,72.09983094125414,90,72.09983094125414L0,72.09983094125414C0,72.09983094125414,0,72.09983094125414,0,72.09983094125414L0,6C0,2.688509853036,2.688509853036,0,6,0Z"/></clipPath><clipPath id="clip16"><path d="M6,0L84,0C87.311490146964,0,90,2.688509853036,90,6L90,571.4285714285714C90,571.4285714285714,90,571.4285714285714,90,571.4285714285714L0,571.4285714285714C0,571.4285714285714,0,571.4285714285714,0,571.4285714285714L0,6C0,2.688509853036,2.688509853036,0,6,0Z"/></clipPath></defs></svg>