<svg xmlns="http://www.w3.org/2000/svg" xmlns:xlink="http://www.w3.org/1999/xlink" version="1.1" class="marks" width="846" height="687" viewBox="0 0 846 687"><rect width="846" height="687" fill="white"/><g fill="none" stroke-miterlimit="10" transform="translate(41,36)"><g class="mark-group role-frame root" role="graphics-object" aria-roledescription="group mark container"><g transform="translate(0,0)"><path class="background" aria-hidden="true" d="M0.5,0.5h800v600h-800Z" stroke="#ddd"/><g><g class="mark-group role-axis" role="graphics-symbol" aria-roledescription="axis" aria-label="X-axis titled 'Parser' for a discrete scale with 7 values: toml_rs&#xA;0.3.16, rtoml&#xA;0.13.0, pytomlpp&#xA;1.1.0, tomllib&#xA;built-in, toml&#xA;0.10.2, qtoml&#xA;0.3.1, tomlkit&#xA;0.15.0"><g transform="translate(0.5,600.5)"><path class="background" aria-hidden="true" d="M0,0h0v0h0Z" pointer-events="none"/><g><g class="mark-rule role-axis-tick" pointer-events="none"><line transform="translate(57,0)" x2="0" y2="5" stroke="#888" stroke-width="1" opacity="1"/><line transform="translate(171,0)" x2="0" y2="5" stroke="#888" stroke-width="1" opacity="1"/><line transform="translate(285,0)" x2="0" y2="5" stroke="#888" stroke-width="1" opacity="1"/><line transform="translate(400,0)" x2="0" y2="5" stroke="#888" stroke-width="1" opacity="1"/><line transform="translate(514,0)" x2="0" y2="5" stroke="#888" stroke-width="1" opacity="1"/><line transform="translate(628,0)" x2="0" y2="5" stroke="#888" stroke-width="1" opacity="1"/><line transform="translate(742,0)" x2="0" y2="5" stroke="#888" stroke-width="1" opacity="1"/></g><g class="mark-text role-axis-label" pointer-events="none"><text text-anchor="middle" transform="translate(56.642857142857096,15)" font-family="sans-serif" font-size="10px" fill="#000" opacity="1"><tspan>toml_rs</tspan><tspan x="0" dy="14">0.3.16</tspan></text><text text-anchor="middle" transform="translate(170.9285714285714,15)" font-family="sans-serif" font-size="10px" fill="#000" opacity="1"><tspan>rtoml</tspan><tspan x="0" dy="14">0.13.0</tspan></text><text text-anchor="middle" transform="translate(285.21428571428567,15)" font-family="sans-serif" font-size="10px" fill="#000" opacity="1"><tspan>pytomlpp</tspan><tspan x="0" dy="14">1.1.0</tspan></text><text text-anchor="middle" transform="translate(399.5,15)" font-family="sans-serif" font-size="10px" fill="#000" opacity="1"><tspan>tomllib</tspan><tspan x="0" dy="14">built-in</tspan></text><text text-anchor="middle" transform="translate(513.7857142857142,15)" font-family="sans-serif" font-size="10px" fill="#000" opacity="1"><tspan>toml</tspan><tspan x="0" dy="14">0.10.2</tspan></text><text text-anchor="middle" transform="translate(628.0714285714286,15)" font-family="sans-serif" font-size="10px" fill="#000" opacity="1"><tspan>qtoml</tspan><tspan x="0" dy="14">0.3.1</tspan></text><text text-anchor="middle" transform="translate(742.3571428571429,15)" font-family="sans-serif" font-size="10px" fill="#000" opacity="1"><tspan>tomlkit</tspan><tspan x="0" dy="14">0.15.0</tspan></text></g><g class="mark-rule role-axis-domain" pointer-events="none"><line transform="translate(0,0)" x2="800" y2="0" stroke="#888" stroke-width="1" opacity="1"/></g><g class="mark-text role-axis-title" pointer-events="none"><text text-anchor="middle" transform="translate(400,44)" font-family="sans-serif" font-size="11px" font-weight="bold" fill="#000" opacity="1">Parser</text></g></g><path class="foreground" aria-hidden="true" d="" pointer-events="none" display="none"/></g></g><g class="mark-group role-axis" role="graphics-symbol" aria-roledescription="axis" aria-label="Y-axis titled 'Execution Time (seconds, lower=better)' for a linear scale with values from 0 to 4"><g transform="translate(0.5,0.5)"><path class="background" aria-hidden="true" d="M0,0h0v0h0Z" pointer-events="none"/><g><g class="mark-rule role-axis-tick" pointer-events="none"><line transform="translate(0,600)" x2="-5" y2="0" stroke="#888" stroke-width="1" opacity="1"/><line transform="translate(0,572)" x2="-5" y2="0" stroke="#888" stroke-width="1" opacity="1"/><line transform="translate(0,544)" x2="-5" y2="0" stroke="#888" stroke-width="1" opacity="1"/><line transform="translate(0,516)" x2="-5" y2="0" stroke="#888" stroke-width="1" opacity="1"/><line transform="translate(0,489)" x2="-5" y2="0" stroke="#888" stroke-width="1" opacity="1"/><line transform="translate(0,461)" x2="-5" y2="0" stroke="#888" stroke-width="1" opacity="1"/><line transform="translate(0,433)" x2="-5" y2="0" stroke="#888" stroke-width="1" opacity="1"/><line transform="translate(0,405)" x2="-5" y2="0" stroke="#888" stroke-width="1" opacity="1"/><line transform="translate(0,377)" x2="-5" y2="0" stroke="#888" stroke-width="1" opacity="1"/><line transform="translate(0,349)" x2="-5" y2="0" stroke="#888" stroke-width="1" opacity="1"/><line transform="translate(0,321)" x2="-5" y2="0" stroke="#888" stroke-width="1" opacity="1"/><line transform="translate(0,294)" x2="-5" y2="0" stroke="#888" stroke-width="1" opacity="1"/><line transform="translate(0,266)" x2="-5" y2="0" stroke="#888" stroke-width="1" opacity="1"/><line transform="translate(0,238)" x2="-5" y2="0" stroke="#888" stroke-width="1" opacity="1"/><line transform="translate(0,210)" x2="-5" y2="0" stroke="#888" stroke-width="1" opacity="1"/><line transform="translate(0,182)" x2="-5" y2="0" stroke="#888" stroke-width="1" opacity="1"/><line transform="translate(0,154)" x2="-5" y2="0" stroke="#888" stroke-width="1" opacity="1"/><line transform="translate(0,126)" x2="-5" y2="0" stroke="#888" stroke-width="1" opacity="1"/><line transform="translate(0,99)" x2="-5" y2="0" stroke="#888" stroke-width="1" opacity="1"/><line transform="translate(0,71)" x2="-5" y2="0" stroke="#888" stroke-width="1" opacity="1"/><line transform="translate(0,43)" x2="-5" y2="0" stroke="#888" stroke-width="1" opacity="1"/><line transform="translate(0,15)" x2="-5" y2="0" stroke="#888" stroke-width="1" opacity="1"/></g><g class="mark-text role-axis-label" pointer-events="none"><text text-anchor="end" transform="translate(-7,603)" font-family="sans-serif" font-size="10px" fill="#000" opacity="1">0.0</text><text text-anchor="end" transform="translate(-7,575.1393115219896)" font-family="sans-serif" font-size="10px" fill="#000" opacity="1">0.2</text><text text-anchor="end" transform="translate(-7,547.2786230439792)" font-family="sans-serif" font-size="10px" fill="#000" opacity="1">0.4</text><text text-anchor="end" transform="translate(-7,519.4179345659688)" font-family="sans-serif" font-size="10px" fill="#000" opacity="1">0.6</text><text text-anchor="end" transform="translate(-7,491.5572460879584)" font-family="sans-serif" font-size="10px" fill="#000" opacity="1">0.8</text><text text-anchor="end" transform="translate(-7,463.696557609948)" font-family="sans-serif" font-size="10px" fill="#000" opacity="1">1.0</text><text text-anchor="end" transform="translate(-7,435.8358691319376)" font-family="sans-serif" font-size="10px" fill="#000" opacity="1">1.2</text><text text-anchor="end" transform="translate(-7,407.97518065392717)" font-family="sans-serif" font-size="10px" fill="#000" opacity="1">1.4</text><text text-anchor="end" transform="translate(-7,380.11449217591684)" font-family="sans-serif" font-size="10px" fill="#000" opacity="1">1.6</text><text text-anchor="end" transform="translate(-7,352.25380369790633)" font-family="sans-serif" font-size="10px" fill="#000" opacity="1">1.8</text><text text-anchor="end" transform="translate(-7,324.393115219896)" font-family="sans-serif" font-size="10px" fill="#000" opacity="1">2.0</text><text text-anchor="end" transform="translate(-7,296.53242674188556)" font-family="sans-serif" font-size="10px" fill="#000" opacity="1">2.2</text><text text-anchor="end" transform="translate(-7,268.67173826387517)" font-family="sans-serif" font-size="10px" fill="#000" opacity="1">2.4</text><text text-anchor="end" transform="translate(-7,240.81104978586475)" font-family="sans-serif" font-size="10px" fill="#000" opacity="1">2.6</text><text text-anchor="end" transform="translate(-7,212.95036130785437)" font-family="sans-serif" font-size="10px" fill="#000" opacity="1">2.8</text><text text-anchor="end" transform="translate(-7,185.08967282984395)" font-family="sans-serif" font-size="10px" fill="#000" opacity="1">3.0</text><text text-anchor="end" transform="translate(-7,157.22898435183356)" font-family="sans-serif" font-size="10px" fill="#000" opacity="1">3.2</text><text text-anchor="end" transform="translate(-7,129.36829587382317)" font-family="sans-serif" font-size="10px" fill="#000" opacity="1">3.4</text><text text-anchor="end" transform="translate(-7,101.50760739581277)" font-family="sans-serif" font-size="10px" fill="#000" opacity="1">3.6</text><text text-anchor="end" transform="translate(-7,73.64691891780237)" font-family="sans-serif" font-size="10px" fill="#000" opacity="1">3.8</text><text text-anchor="end" transform="translate(-7,45.78623043979197)" font-family="sans-serif" font-size="10px" fill="#000" opacity="1">4.0</text><text text-anchor="end" transform="translate(-7,17.92554196178151)" font-family="sans-serif" font-size="10px" fill="#000" opacity="1">4.2</text></g><g class="mark-rule role-axis-domain" pointer-events="none"><line transform="translate(0,600)" x2="0" y2="-600" stroke="#888" stroke-width="1" opacity="1"/></g><g class="mark-text role-axis-title" pointer-events="none"><text text-anchor="middle" transform="translate(-24.9013671875,300) rotate(-90) translate(0,-2)" font-family="sans-serif" font-size="11px" font-weight="bold" fill="#000" opacity="1">Execution Time (seconds, lower=better)</text></g></g><path class="foreground" aria-hidden="true" d="" pointer-events="none" display="none"/></g></g><g class="mark-group role-scope" role="graphics-object" aria-roledescription="group mark container"><g transform="translate(5.714285714285666,597.8854155355511)"><path class="background" aria-hidden="true" d="M1.0572922322244267,0L101.79985062491843,0C102.38338609316389,0,102.85714285714286,0.4737567639789663,102.85714285714286,1.0572922322244267L102.85714285714286,2.1145844644488534C102.85714285714286,2.1145844644488534,102.85714285714286,2.1145844644488534,102.85714285714286,2.1145844644488534L0,2.1145844644488534C0,2.1145844644488534,0,2.1145844644488534,0,2.1145844644488534L0,1.0572922322244267C0,0.4737567639789663,0.4737567639789663,0,1.0572922322244267,0Z"/><g clip-path="url(#clip1)"><g class="mark-group role-scope" role="graphics-object" aria-roledescription="group mark container"><g transform="translate(0,-597.8854155355511)"><path class="background" aria-hidden="true" d="M0,0h102.85714285714286v0h-102.85714285714286Z"/><g><g class="mark-rect role-mark layer_0_marks" role="graphics-object" aria-roledescription="rect mark container"><path aria-label="Parser: toml_rs&#xA;0.3.16; Execution Time (seconds, lower=better): 0.0151797; parser: toml_rs; Execution Time (s): 0.0152; Slowdown: 1.00" role="graphics-symbol" aria-roledescription="bar" d="M0,597.8854155355511h102.85714285714286v2.1145844644488534h-102.85714285714286Z" fill="#66a61e"/></g></g><path class="foreground" aria-hidden="true" d="" display="none"/></g></g></g><path class="foreground" aria-hidden="true" d="" display="none"/></g><g transform="translate(119.99999999999996,592.0523903530419)"><path class="background" aria-hidden="true" d="M3.9738048234790426,0L98.88333803366382,0C101.07654062014863,0,102.85714285714286,1.7806022369942316,102.85714285714286,3.9738048234790426L102.85714285714286,7.947609646958085C102.85714285714286,7.947609646958085,102.85714285714286,7.947609646958085,102.85714285714286,7.947609646958085L0,7.947609646958085C0,7.947609646958085,0,7.947609646958085,0,7.947609646958085L0,3.9738048234790426C0,1.7806022369942316,1.7806022369942316,0,3.9738048234790426,0Z"/><g clip-path="url(#clip2)"><g class="mark-group role-scope" role="graphics-object" aria-roledescription="group mark container"><g transform="translate(0,-592.0523903530419)"><path class="background" aria-hidden="true" d="M0,0h102.85714285714286v0h-102.85714285714286Z"/><g><g class="mark-rect role-mark layer_0_marks" role="graphics-object" aria-roledescription="rect mark container"><path aria-label="Parser: rtoml&#xA;0.13.0; Execution Time (seconds, lower=better): 0.0570525; parser: rtoml; Execution Time (s): 0.0571; Slowdown: 3.76" role="graphics-symbol" aria-roledescription="bar" d="M0,592.0523903530419h102.85714285714286v7.947609646958085h-102.85714285714286Z" fill="#7570b3"/></g></g><path class="foreground" aria-hidden="true" d="" display="none"/></g></g></g><path class="foreground" aria-hidden="true" d="" display="none"/></g><g transform="translate(234.28571428571425,591.2536104840315)"><path class="background" aria-hidden="true" d="M4.373194757984265,0L98.4839480991586,0C100.89757999112851,0,102.85714285714286,1.9595628660143471,102.85714285714286,4.373194757984265L102.85714285714286,8.74638951596853C102.85714285714286,8.74638951596853,102.85714285714286,8.74638951596853,102.85714285714286,8.74638951596853L0,8.74638951596853C0,8.74638951596853,0,8.74638951596853,0,8.74638951596853L0,4.373194757984265C0,1.9595628660143471,1.9595628660143471,0,4.373194757984265,0Z"/><g clip-path="url(#clip3)"><g class="mark-group role-scope" role="graphics-object" aria-roledescription="group mark container"><g transform="translate(0,-591.2536104840315)"><path class="background" aria-hidden="true" d="M0,0h102.85714285714286v0h-102.85714285714286Z"/><g><g class="mark-rect role-mark layer_0_marks" role="graphics-object" aria-roledescription="rect mark container"><path aria-label="Parser: pytomlpp&#xA;1.1.0; Execution Time (seconds, lower=better): 0.0627866; parser: pytomlpp; Execution Time (s): 0.0628; Slowdown: 4.14" role="graphics-symbol" aria-roledescription="bar" d="M0,591.2536104840315h102.85714285714286v8.74638951596853h-102.85714285714286Z" fill="#1b9e77"/></g></g><path class="foreground" aria-hidden="true" d="" display="none"/></g></g></g><path class="foreground" aria-hidden="true" d="" display="none"/></g><g transform="translate(348.57142857142856,579.5672357467673)"><path class="background" aria-hidden="true" d="M6,0L96.85714285714286,0C100.16863300410687,0,102.85714285714286,2.688509853036,102.85714285714286,6L102.85714285714286,20.432764253232676C102.85714285714286,20.432764253232676,102.85714285714286,20.432764253232676,102.85714285714286,20.432764253232676L0,20.432764253232676C0,20.432764253232676,0,20.432764253232676,0,20.432764253232676L0,6C0,2.688509853036,2.688509853036,0,6,0Z"/><g clip-path="url(#clip4)"><g class="mark-group role-scope" role="graphics-object" aria-roledescription="group mark container"><g transform="translate(0,-579.5672357467673)"><path class="background" aria-hidden="true" d="M0,0h102.85714285714286v0h-102.85714285714286Z"/><g><g class="mark-rect role-mark layer_0_marks" role="graphics-object" aria-roledescription="rect mark container"><path aria-label="Parser: tomllib&#xA;built-in; Execution Time (seconds, lower=better): 0.1466781; parser: tomllib; Execution Time (s): 0.1467; Slowdown: 9.66" role="graphics-symbol" aria-roledescription="bar" d="M0,579.5672357467673h102.85714285714286v20.432764253232676h-102.85714285714286Z" fill="#a6761d"/></g></g><path class="foreground" aria-hidden="true" d="" display="none"/></g></g></g><path class="foreground" aria-hidden="true" d="" display="none"/></g><g transform="translate(462.85714285714283,515.8991964071992)"><path class="background" aria-hidden="true" d="M6,0L96.85714285714286,0C100.16863300410687,0,102.85714285714286,2.688509853036,102.85714285714286,6L102.85714285714286,84.10080359280084C102.85714285714286,84.10080359280084,102.85714285714286,84.10080359280084,102.85714285714286,84.10080359280084L0,84.10080359280084C0,84.10080359280084,0,84.10080359280084,0,84.10080359280084L0,6C0,2.688509853036,2.688509853036,0,6,0Z"/><g clip-path="url(#clip5)"><g class="mark-group role-scope" role="graphics-object" aria-roledescription="group mark container"><g transform="translate(0,-515.8991964071992)"><path class="background" aria-hidden="true" d="M0,0h102.85714285714286v0h-102.85714285714286Z"/><g><g class="mark-rect role-mark layer_0_marks" role="graphics-object" aria-roledescription="rect mark container"><path aria-label="Parser: toml&#xA;0.10.2; Execution Time (seconds, lower=better): 0.6037238; parser: toml; Execution Time (s): 0.6037; Slowdown: 39.77" role="graphics-symbol" aria-roledescription="bar" d="M0,515.8991964071992h102.85714285714286v84.10080359280084h-102.85714285714286Z" fill="#e7298a"/></g></g><path class="foreground" aria-hidden="true" d="" display="none"/></g></g></g><path class="foreground" aria-hidden="true" d="" display="none"/></g><g transform="translate(577.1428571428571,510.8395700064913)"><path class="background" aria-hidden="true" d="M6,0L96.85714285714286,0C100.16863300410687,0,102.85714285714286,2.688509853036,102.85714285714286,6L102.85714285714286,89.16042999350873C102.85714285714286,89.16042999350873,102.85714285714286,89.16042999350873,102.85714285714286,89.16042999350873L0,89.16042999350873C0,89.16042999350873,0,89.16042999350873,0,89.16042999350873L0,6C0,2.688509853036,2.688509853036,0,6,0Z"/><g clip-path="url(#clip6)"><g class="mark-group role-scope" role="graphics-object" aria-roledescription="group mark container"><g transform="translate(0,-510.8395700064913)"><path class="background" aria-hidden="true" d="M0,0h102.85714285714286v0h-102.85714285714286Z"/><g><g class="mark-rect role-mark layer_0_marks" role="graphics-object" aria-roledescription="rect mark container"><path aria-label="Parser: qtoml&#xA;0.3.1; Execution Time (seconds, lower=better): 0.6400447; parser: qtoml; Execution Time (s): 0.6400; Slowdown: 42.16" role="graphics-symbol" aria-roledescription="bar" d="M0,510.8395700064913h102.85714285714286v89.16042999350873h-102.85714285714286Z" fill="#d95f02"/></g></g><path class="foreground" aria-hidden="true" d="" display="none"/></g></g></g><path class="foreground" aria-hidden="true" d="" display="none"/></g><g transform="translate(691.4285714285714,28.571428571428605)"><path class="background" aria-hidden="true" d="M6,0L96.85714285714286,0C100.16863300410687,0,102.85714285714286,2.688509853036,102.85714285714286,6L102.85714285714286,571.4285714285714C102.85714285714286,571.4285714285714,102.85714285714286,571.4285714285714,102.85714285714286,571.4285714285714L0,571.4285714285714C0,571.4285714285714,0,571.4285714285714,0,571.4285714285714L0,6C0,2.688509853036,2.688509853036,0,6,0Z"/><g clip-path="url(#clip7)"><g class="mark-group role-scope" role="graphics-object" aria-roledescription="group mark container"><g transform="translate(0,-28.571428571428605)"><path class="background" aria-hidden="true" d="M0,0h102.85714285714286v0h-102.85714285714286Z"/><g><g class="mark-rect role-mark layer_0_marks" role="graphics-object" aria-roledescription="rect mark container"><path aria-label="Parser: tomlkit&#xA;0.15.0; Execution Time (seconds, lower=better): 4.102042; parser: tomlkit; Execution Time (s): 4.1020; Slowdown: 270.23" role="graphics-symbol" aria-roledescription="bar" d="M0,28.571428571428605h102.85714285714286v571.4285714285714h-102.85714285714286Z" fill="#e6ab02"/></g></g><path class="foreground" aria-hidden="true" d="" display="none"/></g></g></g><path class="foreground" aria-hidden="true" d="" display="none"/></g></g><g class="mark-text role-mark layer_1_marks" role="graphics-object" aria-roledescription="text mark container"><text aria-label="Parser: toml_rs&#xA;0.3.16; Execution Time (seconds, lower=better): 0.0151797; parser: toml_rs; label: 0.0152s (x1.00); Execution Time (s): 0.0152; Slowdown: 1.00" role="graphics-symbol" aria-roledescription="text mark" text-anchor="middle" transform="translate(57.142857142857096,593.8854155355511)" font-family="sans-serif" font-size="9px" font-weight="bold" fill="#66a61e">0.0152s (x1.00)</text><text aria-label="Parser: rtoml&#xA;0.13.0; Execution Time (seconds, lower=better): 0.0570525; parser: rtoml; label: 0.0571s (x3.76); Execution Time (s): 0.0571; Slowdown: 3.76" role="graphics-symbol" aria-roledescription="text mark" text-anchor="middle" transform="translate(171.4285714285714,588.0523903530419)" font-family="sans-serif" font-size="9px" font-weight="bold" fill="#7570b3">0.0571s (x3.76)</text><text aria-label="Parser: pytomlpp&#xA;1.1.0; Execution Time (seconds, lower=better): 0.0627866; parser: pytomlpp; label: 0.0628s (x4.14); Execution Time (s): 0.0628; Slowdown: 4.14" role="graphics-symbol" aria-roledescription="text mark" text-anchor="middle" transform="translate(285.71428571428567,587.2536104840315)" font-family="sans-serif" font-size="9px" font-weight="bold" fill="#1b9e77">0.0628s (x4.14)</text><text aria-label="Parser: tomllib&#xA;built-in; Execution Time (seconds, lower=better): 0.1466781; parser: tomllib; label: 0.1467s (x9.66); Execution Time (s): 0.1467; Slowdown: 9.66" role="graphics-symbol" aria-roledescription="text mark" text-anchor="middle" transform="translate(400,575.5672357467673)" font-family="sans-serif" font-size="9px" font-weight="bold" fill="#a6761d">0.1467s (x9.66)</text><text aria-label="Parser: toml&#xA;0.10.2; Execution Time (seconds, lower=better): 0.6037238; parser: toml; label: 0.6037s (x39.77); Execution Time (s): 0.6037; Slowdown: 39.77" role="graphics-symbol" aria-roledescription="text mark" text-anchor="middle" transform="translate(514.2857142857142,511.89919640719916)" font-family="sans-serif" font-size="9px" font-weight="bold" fill="#e7298a">0.6037s (x39.77)</text><text aria-label="Parser: qtoml&#xA;0.3.1; Execution Time (seconds, lower=better): 0.6400447; parser: qtoml; label: 0.6400s (x42.16); Execution Time (s): 0.6400; Slowdown: 42.16" role="graphics-symbol" aria-roledescription="text mark" text-anchor="middle" transform="translate(628.5714285714286,506.8395700064913)" font-family="sans-serif" font-size="9px" font-weight="bold" fill="#d95f02">0.6400s (x42.16)</text><text aria-label="Parser: tomlkit&#xA;0.15.0; Execution Time (seconds, lower=better): 4.102042; parser: tomlkit; label: 4.1020s (x270.23); Execution Time (s): 4.1020; Slowdown: 270.23" role="graphics-symbol" aria-roledescription="text mark" text-anchor="middle" transform="translate(742.8571428571429,24.571428571428605)" font-family="sans-serif" font-size="9px" font-weight="bold" fill="#e6ab02">4.1020s (x270.23)</text></g><g class="mark-group role-title"><g transform="translate(400,-31)"><path class="background" aria-hidden="true" d="M0,0h0v0h0Z" pointer-events="none"/><g><g class="mark-text role-title-text" role="graphics-symbol" aria-roledescription="title" aria-label="Title text 'TOML parsers benchmark (loads)'" pointer-events="none"><text text-anchor="middle" transform="translate(0,10)" font-family="sans-serif" font-size="13px" font-weight="bold" fill="#000" opacity="1">TOML parsers benchmark (loads)</text></g><g class="mark-text role-title-subtitle" role="graphics-symbol" aria-roledescription="subtitle" aria-label="Subtitle text 'Python: 3.14.6 (Windows 2025Server) | CPU: AMD EPYC 9V74 80-Core Processor'" pointer-events="none"><text text-anchor="middle" transform="translate(0,25)" font-family="sans-serif" font-size="12px" fill="#000" opacity="1">Python: 3.14.6 (Windows 2025Server) | CPU: AMD EPYC 9V74 80-Core Processor</text></g></g><path class="foreground" aria-hidden="true" d="" pointer-events="none" display="none"/></g></g></g><path class="foreground" aria-hidden="true" d="" display="none"/></g></g></g><defs><clipPath id="clip1"><path d="M1.0572922322244267,0L101.79985062491843,0C102.38338609316389,0,102.85714285714286,0.4737567639789663,102.85714285714286,1.0572922322244267L102.85714285714286,2.1145844644488534C102.85714285714286,2.1145844644488534,102.85714285714286,2.1145844644488534,102.85714285714286,2.1145844644488534L0,2.1145844644488534C0,2.1145844644488534,0,2.1145844644488534,0,2.1145844644488534L0,1.0572922322244267C0,0.4737567639789663,0.4737567639789663,0,1.0572922322244267,0Z"/></clipPath><clipPath id="clip2"><path d="M3.9738048234790426,0L98.88333803366382,0C101.07654062014863,0,102.85714285714286,1.7806022369942316,102.85714285714286,3.9738048234790426L102.85714285714286,7.947609646958085C102.85714285714286,7.947609646958085,102.85714285714286,7.947609646958085,102.85714285714286,7.947609646958085L0,7.947609646958085C0,7.947609646958085,0,7.947609646958085,0,7.947609646958085L0,3.9738048234790426C0,1.7806022369942316,1.7806022369942316,0,3.9738048234790426,0Z"/></clipPath><clipPath id="clip3"><path d="M4.373194757984265,0L98.4839480991586,0C100.89757999112851,0,102.85714285714286,1.9595628660143471,102.85714285714286,4.373194757984265L102.85714285714286,8.74638951596853C102.85714285714286,8.74638951596853,102.85714285714286,8.74638951596853,102.85714285714286,8.74638951596853L0,8.74638951596853C0,8.74638951596853,0,8.74638951596853,0,8.74638951596853L0,4.373194757984265C0,1.9595628660143471,1.9595628660143471,0,4.373194757984265,0Z"/></clipPath><clipPath id="clip4"><path d="M6,0L96.85714285714286,0C100.16863300410687,0,102.85714285714286,2.688509853036,102.85714285714286,6L102.85714285714286,20.432764253232676C102.85714285714286,20.432764253232676,102.85714285714286,20.432764253232676,102.85714285714286,20.432764253232676L0,20.432764253232676C0,20.432764253232676,0,20.432764253232676,0,20.432764253232676L0,6C0,2.688509853036,2.688509853036,0,6,0Z"/></clipPath><clipPath id="clip5"><path d="M6,0L96.85714285714286,0C100.16863300410687,0,102.85714285714286,2.688509853036,102.85714285714286,6L102.85714285714286,84.10080359280084C102.85714285714286,84.10080359280084,102.85714285714286,84.10080359280084,102.85714285714286,84.10080359280084L0,84.10080359280084C0,84.10080359280084,0,84.10080359280084,0,84.10080359280084L0,6C0,2.688509853036,2.688509853036,0,6,0Z"/></clipPath><clipPath id="clip6"><path d="M6,0L96.85714285714286,0C100.16863300410687,0,102.85714285714286,2.688509853036,102.85714285714286,6L102.85714285714286,89.16042999350873C102.85714285714286,89.16042999350873,102.85714285714286,89.16042999350873,102.85714285714286,89.16042999350873L0,89.16042999350873C0,89.16042999350873,0,89.16042999350873,0,89.16042999350873L0,6C0,2.688509853036,2.688509853036,0,6,0Z"/></clipPath><clipPath id="clip7"><path d="M6,0L96.85714285714286,0C100.16863300410687,0,102.85714285714286,2.688509853036,102.85714285714286,6L102.85714285714286,571.4285714285714C102.85714285714286,571.4285714285714,102.85714285714286,571.4285714285714,102.85714285714286,571.4285714285714L0,571.4285714285714C0,571.4285714285714,0,571.4285714285714,0,571.4285714285714L0,6C0,2.688509853036,2.688509853036,0,6,0Z"/></clipPath></defs></svg>