<svg xmlns="http://www.w3.org/2000/svg" xmlns:xlink="http://www.w3.org/1999/xlink" version="1.1" class="marks" width="846" height="688" viewBox="0 0 846 688"><rect width="846" height="688" fill="white"/><g fill="none" stroke-miterlimit="10" transform="translate(41,37)"><g class="mark-group role-frame root" role="graphics-object" aria-roledescription="group mark container"><g transform="translate(0,0)"><path class="background" aria-hidden="true" d="M0.5,0.5h800v600h-800Z" stroke="#ddd"/><g><g class="mark-group role-axis" role="graphics-symbol" aria-roledescription="axis" aria-label="X-axis titled 'Parser' for a discrete scale with 7 values: toml_rs&#xA;0.3.14, rtoml&#xA;0.13.0, pytomlpp&#xA;1.1.0, tomllib&#xA;built-in, toml&#xA;0.10.2, qtoml&#xA;0.3.1, tomlkit&#xA;0.15.0"><g transform="translate(0.5,600.5)"><path class="background" aria-hidden="true" d="M0,0h0v0h0Z" pointer-events="none"/><g><g class="mark-rule role-axis-tick" pointer-events="none"><line transform="translate(57,0)" x2="0" y2="5" stroke="#888" stroke-width="1" opacity="1"/><line transform="translate(171,0)" x2="0" y2="5" stroke="#888" stroke-width="1" opacity="1"/><line transform="translate(285,0)" x2="0" y2="5" stroke="#888" stroke-width="1" opacity="1"/><line transform="translate(400,0)" x2="0" y2="5" stroke="#888" stroke-width="1" opacity="1"/><line transform="translate(514,0)" x2="0" y2="5" stroke="#888" stroke-width="1" opacity="1"/><line transform="translate(628,0)" x2="0" y2="5" stroke="#888" stroke-width="1" opacity="1"/><line transform="translate(742,0)" x2="0" y2="5" stroke="#888" stroke-width="1" opacity="1"/></g><g class="mark-text role-axis-label" pointer-events="none"><text text-anchor="middle" transform="translate(56.642857142857096,15)" font-family="sans-serif" font-size="10px" fill="#000" opacity="1"><tspan>toml_rs</tspan><tspan x="0" dy="14">0.3.14</tspan></text><text text-anchor="middle" transform="translate(170.9285714285714,15)" font-family="sans-serif" font-size="10px" fill="#000" opacity="1"><tspan>rtoml</tspan><tspan x="0" dy="14">0.13.0</tspan></text><text text-anchor="middle" transform="translate(285.21428571428567,15)" font-family="sans-serif" font-size="10px" fill="#000" opacity="1"><tspan>pytomlpp</tspan><tspan x="0" dy="14">1.1.0</tspan></text><text text-anchor="middle" transform="translate(399.5,15)" font-family="sans-serif" font-size="10px" fill="#000" opacity="1"><tspan>tomllib</tspan><tspan x="0" dy="14">built-in</tspan></text><text text-anchor="middle" transform="translate(513.7857142857142,15)" font-family="sans-serif" font-size="10px" fill="#000" opacity="1"><tspan>toml</tspan><tspan x="0" dy="14">0.10.2</tspan></text><text text-anchor="middle" transform="translate(628.0714285714286,15)" font-family="sans-serif" font-size="10px" fill="#000" opacity="1"><tspan>qtoml</tspan><tspan x="0" dy="14">0.3.1</tspan></text><text text-anchor="middle" transform="translate(742.3571428571429,15)" font-family="sans-serif" font-size="10px" fill="#000" opacity="1"><tspan>tomlkit</tspan><tspan x="0" dy="14">0.15.0</tspan></text></g><g class="mark-rule role-axis-domain" pointer-events="none"><line transform="translate(0,0)" x2="800" y2="0" stroke="#888" stroke-width="1" opacity="1"/></g><g class="mark-text role-axis-title" pointer-events="none"><text text-anchor="middle" transform="translate(400,44)" font-family="sans-serif" font-size="11px" font-weight="bold" fill="#000" opacity="1">Parser</text></g></g><path class="foreground" aria-hidden="true" d="" pointer-events="none" display="none"/></g></g><g class="mark-group role-axis" role="graphics-symbol" aria-roledescription="axis" aria-label="Y-axis titled 'Execution Time (seconds, lower=better)' for a linear scale with values from 0 to 6"><g transform="translate(0.5,0.5)"><path class="background" aria-hidden="true" d="M0,0h0v0h0Z" pointer-events="none"/><g><g class="mark-rule role-axis-tick" pointer-events="none"><line transform="translate(0,600)" x2="-5" y2="0" stroke="#888" stroke-width="1" opacity="1"/><line transform="translate(0,550)" x2="-5" y2="0" stroke="#888" stroke-width="1" opacity="1"/><line transform="translate(0,501)" x2="-5" y2="0" stroke="#888" stroke-width="1" opacity="1"/><line transform="translate(0,451)" x2="-5" y2="0" stroke="#888" stroke-width="1" opacity="1"/><line transform="translate(0,402)" x2="-5" y2="0" stroke="#888" stroke-width="1" opacity="1"/><line transform="translate(0,352)" x2="-5" y2="0" stroke="#888" stroke-width="1" opacity="1"/><line transform="translate(0,302)" x2="-5" y2="0" stroke="#888" stroke-width="1" opacity="1"/><line transform="translate(0,253)" x2="-5" y2="0" stroke="#888" stroke-width="1" opacity="1"/><line transform="translate(0,203)" x2="-5" y2="0" stroke="#888" stroke-width="1" opacity="1"/><line transform="translate(0,153)" x2="-5" y2="0" stroke="#888" stroke-width="1" opacity="1"/><line transform="translate(0,104)" x2="-5" y2="0" stroke="#888" stroke-width="1" opacity="1"/><line transform="translate(0,54)" x2="-5" y2="0" stroke="#888" stroke-width="1" opacity="1"/><line transform="translate(0,5)" x2="-5" y2="0" stroke="#888" stroke-width="1" opacity="1"/></g><g class="mark-text role-axis-label" pointer-events="none"><text text-anchor="end" transform="translate(-7,603)" font-family="sans-serif" font-size="10px" fill="#000" opacity="1">0.0</text><text text-anchor="end" transform="translate(-7,553.3855001981553)" font-family="sans-serif" font-size="10px" fill="#000" opacity="1">0.5</text><text text-anchor="end" transform="translate(-7,503.77100039631074)" font-family="sans-serif" font-size="10px" fill="#000" opacity="1">1.0</text><text text-anchor="end" transform="translate(-7,454.15650059446614)" font-family="sans-serif" font-size="10px" fill="#000" opacity="1">1.5</text><text text-anchor="end" transform="translate(-7,404.5420007926215)" font-family="sans-serif" font-size="10px" fill="#000" opacity="1">2.0</text><text text-anchor="end" transform="translate(-7,354.9275009907769)" font-family="sans-serif" font-size="10px" fill="#000" opacity="1">2.5</text><text text-anchor="end" transform="translate(-7,305.3130011889323)" font-family="sans-serif" font-size="10px" fill="#000" opacity="1">3.0</text><text text-anchor="end" transform="translate(-7,255.6985013870876)" font-family="sans-serif" font-size="10px" fill="#000" opacity="1">3.5</text><text text-anchor="end" transform="translate(-7,206.084001585243)" font-family="sans-serif" font-size="10px" fill="#000" opacity="1">4.0</text><text text-anchor="end" transform="translate(-7,156.4695017833983)" font-family="sans-serif" font-size="10px" fill="#000" opacity="1">4.5</text><text text-anchor="end" transform="translate(-7,106.85500198155371)" font-family="sans-serif" font-size="10px" fill="#000" opacity="1">5.0</text><text text-anchor="end" transform="translate(-7,57.24050217970904)" font-family="sans-serif" font-size="10px" fill="#000" opacity="1">5.5</text><text text-anchor="end" transform="translate(-7,7.6260023778644355)" font-family="sans-serif" font-size="10px" fill="#000" opacity="1">6.0</text></g><g class="mark-rule role-axis-domain" pointer-events="none"><line transform="translate(0,600)" x2="0" y2="-600" stroke="#888" stroke-width="1" opacity="1"/></g><g class="mark-text role-axis-title" pointer-events="none"><text text-anchor="middle" transform="translate(-24.9013671875,300) rotate(-90) translate(0,-2)" font-family="sans-serif" font-size="11px" font-weight="bold" fill="#000" opacity="1">Execution Time (seconds, lower=better)</text></g></g><path class="foreground" aria-hidden="true" d="" pointer-events="none" display="none"/></g></g><g class="mark-group role-scope" role="graphics-object" aria-roledescription="group mark container"><g transform="translate(5.714285714285666,597.5305275784626)"><path class="background" aria-hidden="true" d="M1.2347362107686877,0L101.62240664637417,0C102.3038761123842,0,102.85714285714286,0.5532667447586587,102.85714285714286,1.2347362107686877L102.85714285714286,2.4694724215373753C102.85714285714286,2.4694724215373753,102.85714285714286,2.4694724215373753,102.85714285714286,2.4694724215373753L0,2.4694724215373753C0,2.4694724215373753,0,2.4694724215373753,0,2.4694724215373753L0,1.2347362107686877C0,0.5532667447586587,0.5532667447586587,0,1.2347362107686877,0Z"/><g clip-path="url(#clip1)"><g class="mark-group role-scope" role="graphics-object" aria-roledescription="group mark container"><g transform="translate(0,-597.5305275784626)"><path class="background" aria-hidden="true" d="M0,0h102.85714285714286v0h-102.85714285714286Z"/><g><g class="mark-rect role-mark layer_0_marks" role="graphics-object" aria-roledescription="rect mark container"><path aria-label="Parser: toml_rs&#xA;0.3.14; Execution Time (seconds, lower=better): 0.0248866; parser: toml_rs; Execution Time (s): 0.0249; Slowdown: 1.00" role="graphics-symbol" aria-roledescription="bar" d="M0,597.5305275784626h102.85714285714286v2.4694724215373753h-102.85714285714286Z" fill="#66a61e"/></g></g><path class="foreground" aria-hidden="true" d="" display="none"/></g></g></g><path class="foreground" aria-hidden="true" d="" display="none"/></g><g transform="translate(119.99999999999996,592.7079188145206)"><path class="background" aria-hidden="true" d="M3.6460405927397233,0L99.21110226440314,0C101.2234068474512,0,102.85714285714286,1.6337360096916607,102.85714285714286,3.6460405927397233L102.85714285714286,7.2920811854794465C102.85714285714286,7.2920811854794465,102.85714285714286,7.2920811854794465,102.85714285714286,7.2920811854794465L0,7.2920811854794465C0,7.2920811854794465,0,7.2920811854794465,0,7.2920811854794465L0,3.6460405927397233C0,1.6337360096916607,1.6337360096916607,0,3.6460405927397233,0Z"/><g clip-path="url(#clip2)"><g class="mark-group role-scope" role="graphics-object" aria-roledescription="group mark container"><g transform="translate(0,-592.7079188145206)"><path class="background" aria-hidden="true" d="M0,0h102.85714285714286v0h-102.85714285714286Z"/><g><g class="mark-rect role-mark layer_0_marks" role="graphics-object" aria-roledescription="rect mark container"><path aria-label="Parser: rtoml&#xA;0.13.0; Execution Time (seconds, lower=better): 0.0734874; parser: rtoml; Execution Time (s): 0.0735; Slowdown: 2.95" role="graphics-symbol" aria-roledescription="bar" d="M0,592.7079188145206h102.85714285714286v7.2920811854794465h-102.85714285714286Z" fill="#7570b3"/></g></g><path class="foreground" aria-hidden="true" d="" display="none"/></g></g></g><path class="foreground" aria-hidden="true" d="" display="none"/></g><g transform="translate(234.28571428571425,591.558172241915)"><path class="background" aria-hidden="true" d="M4.2209138790424845,0L98.63622897810038,0C100.96581476503917,0,102.85714285714286,1.8913280921036872,102.85714285714286,4.2209138790424845L102.85714285714286,8.441827758084969C102.85714285714286,8.441827758084969,102.85714285714286,8.441827758084969,102.85714285714286,8.441827758084969L0,8.441827758084969C0,8.441827758084969,0,8.441827758084969,0,8.441827758084969L0,4.2209138790424845C0,1.8913280921036872,1.8913280921036872,0,4.2209138790424845,0Z"/><g clip-path="url(#clip3)"><g class="mark-group role-scope" role="graphics-object" aria-roledescription="group mark container"><g transform="translate(0,-591.558172241915)"><path class="background" aria-hidden="true" d="M0,0h102.85714285714286v0h-102.85714285714286Z"/><g><g class="mark-rect role-mark layer_0_marks" role="graphics-object" aria-roledescription="rect mark container"><path aria-label="Parser: pytomlpp&#xA;1.1.0; Execution Time (seconds, lower=better): 0.0850742; parser: pytomlpp; Execution Time (s): 0.0851; Slowdown: 3.42" role="graphics-symbol" aria-roledescription="bar" d="M0,591.558172241915h102.85714285714286v8.441827758084969h-102.85714285714286Z" fill="#1b9e77"/></g></g><path class="foreground" aria-hidden="true" d="" display="none"/></g></g></g><path class="foreground" aria-hidden="true" d="" display="none"/></g><g transform="translate(348.57142857142856,580.0415057044114)"><path class="background" aria-hidden="true" d="M6,0L96.85714285714286,0C100.16863300410687,0,102.85714285714286,2.688509853036,102.85714285714286,6L102.85714285714286,19.958494295588594C102.85714285714286,19.958494295588594,102.85714285714286,19.958494295588594,102.85714285714286,19.958494295588594L0,19.958494295588594C0,19.958494295588594,0,19.958494295588594,0,19.958494295588594L0,6C0,2.688509853036,2.688509853036,0,6,0Z"/><g clip-path="url(#clip4)"><g class="mark-group role-scope" role="graphics-object" aria-roledescription="group mark container"><g transform="translate(0,-580.0415057044114)"><path class="background" aria-hidden="true" d="M0,0h102.85714285714286v0h-102.85714285714286Z"/><g><g class="mark-rect role-mark layer_0_marks" role="graphics-object" aria-roledescription="rect mark container"><path aria-label="Parser: tomllib&#xA;built-in; Execution Time (seconds, lower=better): 0.2011357; parser: tomllib; Execution Time (s): 0.2011; Slowdown: 8.08" role="graphics-symbol" aria-roledescription="bar" d="M0,580.0415057044114h102.85714285714286v19.958494295588594h-102.85714285714286Z" fill="#a6761d"/></g></g><path class="foreground" aria-hidden="true" d="" display="none"/></g></g></g><path class="foreground" aria-hidden="true" d="" display="none"/></g><g transform="translate(462.85714285714283,519.94208281134)"><path class="background" aria-hidden="true" d="M6,0L96.85714285714286,0C100.16863300410687,0,102.85714285714286,2.688509853036,102.85714285714286,6L102.85714285714286,80.05791718865999C102.85714285714286,80.05791718865999,102.85714285714286,80.05791718865999,102.85714285714286,80.05791718865999L0,80.05791718865999C0,80.05791718865999,0,80.05791718865999,0,80.05791718865999L0,6C0,2.688509853036,2.688509853036,0,6,0Z"/><g clip-path="url(#clip5)"><g class="mark-group role-scope" role="graphics-object" aria-roledescription="group mark container"><g transform="translate(0,-519.94208281134)"><path class="background" aria-hidden="true" d="M0,0h102.85714285714286v0h-102.85714285714286Z"/><g><g class="mark-rect role-mark layer_0_marks" role="graphics-object" aria-roledescription="rect mark container"><path aria-label="Parser: toml&#xA;0.10.2; Execution Time (seconds, lower=better): 0.8067996; parser: toml; Execution Time (s): 0.8068; Slowdown: 32.42" role="graphics-symbol" aria-roledescription="bar" d="M0,519.94208281134h102.85714285714286v80.05791718865999h-102.85714285714286Z" fill="#e7298a"/></g></g><path class="foreground" aria-hidden="true" d="" display="none"/></g></g></g><path class="foreground" aria-hidden="true" d="" display="none"/></g><g transform="translate(577.1428571428571,510.679174773135)"><path class="background" aria-hidden="true" d="M6,0L96.85714285714286,0C100.16863300410687,0,102.85714285714286,2.688509853036,102.85714285714286,6L102.85714285714286,89.320825226865C102.85714285714286,89.320825226865,102.85714285714286,89.320825226865,102.85714285714286,89.320825226865L0,89.320825226865C0,89.320825226865,0,89.320825226865,0,89.320825226865L0,6C0,2.688509853036,2.688509853036,0,6,0Z"/><g clip-path="url(#clip6)"><g class="mark-group role-scope" role="graphics-object" aria-roledescription="group mark container"><g transform="translate(0,-510.679174773135)"><path class="background" aria-hidden="true" d="M0,0h102.85714285714286v0h-102.85714285714286Z"/><g><g class="mark-rect role-mark layer_0_marks" role="graphics-object" aria-roledescription="rect mark container"><path aria-label="Parser: qtoml&#xA;0.3.1; Execution Time (seconds, lower=better): 0.9001484; parser: qtoml; Execution Time (s): 0.9001; Slowdown: 36.17" role="graphics-symbol" aria-roledescription="bar" d="M0,510.679174773135h102.85714285714286v89.320825226865h-102.85714285714286Z" fill="#d95f02"/></g></g><path class="foreground" aria-hidden="true" d="" display="none"/></g></g></g><path class="foreground" aria-hidden="true" d="" display="none"/></g><g transform="translate(691.4285714285714,28.571428571428605)"><path class="background" aria-hidden="true" d="M6,0L96.85714285714286,0C100.16863300410687,0,102.85714285714286,2.688509853036,102.85714285714286,6L102.85714285714286,571.4285714285714C102.85714285714286,571.4285714285714,102.85714285714286,571.4285714285714,102.85714285714286,571.4285714285714L0,571.4285714285714C0,571.4285714285714,0,571.4285714285714,0,571.4285714285714L0,6C0,2.688509853036,2.688509853036,0,6,0Z"/><g clip-path="url(#clip7)"><g class="mark-group role-scope" role="graphics-object" aria-roledescription="group mark container"><g transform="translate(0,-28.571428571428605)"><path class="background" aria-hidden="true" d="M0,0h102.85714285714286v0h-102.85714285714286Z"/><g><g class="mark-rect role-mark layer_0_marks" role="graphics-object" aria-roledescription="rect mark container"><path aria-label="Parser: tomlkit&#xA;0.15.0; Execution Time (seconds, lower=better): 5.7586852; parser: tomlkit; Execution Time (s): 5.7587; Slowdown: 231.40" role="graphics-symbol" aria-roledescription="bar" d="M0,28.571428571428605h102.85714285714286v571.4285714285714h-102.85714285714286Z" fill="#e6ab02"/></g></g><path class="foreground" aria-hidden="true" d="" display="none"/></g></g></g><path class="foreground" aria-hidden="true" d="" display="none"/></g></g><g class="mark-text role-mark layer_1_marks" role="graphics-object" aria-roledescription="text mark container"><text aria-label="Parser: toml_rs&#xA;0.3.14; Execution Time (seconds, lower=better): 0.0248866; parser: toml_rs; label: 0.0249s (x1.00); Execution Time (s): 0.0249; Slowdown: 1.00" role="graphics-symbol" aria-roledescription="text mark" text-anchor="middle" transform="translate(57.142857142857096,593.5305275784626)" font-family="sans-serif" font-size="9px" font-weight="bold" fill="#66a61e">0.0249s (x1.00)</text><text aria-label="Parser: rtoml&#xA;0.13.0; Execution Time (seconds, lower=better): 0.0734874; parser: rtoml; label: 0.0735s (x2.95); Execution Time (s): 0.0735; Slowdown: 2.95" role="graphics-symbol" aria-roledescription="text mark" text-anchor="middle" transform="translate(171.4285714285714,588.7079188145206)" font-family="sans-serif" font-size="9px" font-weight="bold" fill="#7570b3">0.0735s (x2.95)</text><text aria-label="Parser: pytomlpp&#xA;1.1.0; Execution Time (seconds, lower=better): 0.0850742; parser: pytomlpp; label: 0.0851s (x3.42); Execution Time (s): 0.0851; Slowdown: 3.42" role="graphics-symbol" aria-roledescription="text mark" text-anchor="middle" transform="translate(285.71428571428567,587.558172241915)" font-family="sans-serif" font-size="9px" font-weight="bold" fill="#1b9e77">0.0851s (x3.42)</text><text aria-label="Parser: tomllib&#xA;built-in; Execution Time (seconds, lower=better): 0.2011357; parser: tomllib; label: 0.2011s (x8.08); Execution Time (s): 0.2011; Slowdown: 8.08" role="graphics-symbol" aria-roledescription="text mark" text-anchor="middle" transform="translate(400,576.0415057044114)" font-family="sans-serif" font-size="9px" font-weight="bold" fill="#a6761d">0.2011s (x8.08)</text><text aria-label="Parser: toml&#xA;0.10.2; Execution Time (seconds, lower=better): 0.8067996; parser: toml; label: 0.8068s (x32.42); Execution Time (s): 0.8068; Slowdown: 32.42" role="graphics-symbol" aria-roledescription="text mark" text-anchor="middle" transform="translate(514.2857142857142,515.94208281134)" font-family="sans-serif" font-size="9px" font-weight="bold" fill="#e7298a">0.8068s (x32.42)</text><text aria-label="Parser: qtoml&#xA;0.3.1; Execution Time (seconds, lower=better): 0.9001484; parser: qtoml; label: 0.9001s (x36.17); Execution Time (s): 0.9001; Slowdown: 36.17" role="graphics-symbol" aria-roledescription="text mark" text-anchor="middle" transform="translate(628.5714285714286,506.679174773135)" font-family="sans-serif" font-size="9px" font-weight="bold" fill="#d95f02">0.9001s (x36.17)</text><text aria-label="Parser: tomlkit&#xA;0.15.0; Execution Time (seconds, lower=better): 5.7586852; parser: tomlkit; label: 5.7587s (x231.40); Execution Time (s): 5.7587; Slowdown: 231.40" role="graphics-symbol" aria-roledescription="text mark" text-anchor="middle" transform="translate(742.8571428571429,24.571428571428605)" font-family="sans-serif" font-size="9px" font-weight="bold" fill="#e6ab02">5.7587s (x231.40)</text></g><g class="mark-group role-title"><g transform="translate(400,-31.373997622135565)"><path class="background" aria-hidden="true" d="M0,0h0v0h0Z" pointer-events="none"/><g><g class="mark-text role-title-text" role="graphics-symbol" aria-roledescription="title" aria-label="Title text 'TOML parsers benchmark (loads)'" pointer-events="none"><text text-anchor="middle" transform="translate(0,10)" font-family="sans-serif" font-size="13px" font-weight="bold" fill="#000" opacity="1">TOML parsers benchmark (loads)</text></g><g class="mark-text role-title-subtitle" role="graphics-symbol" aria-roledescription="subtitle" aria-label="Subtitle text 'Python: 3.14.6 (Windows 2025Server) | CPU: AMD EPYC 7763 64-Core Processor'" pointer-events="none"><text text-anchor="middle" transform="translate(0,25)" font-family="sans-serif" font-size="12px" fill="#000" opacity="1">Python: 3.14.6 (Windows 2025Server) | CPU: AMD EPYC 7763 64-Core Processor</text></g></g><path class="foreground" aria-hidden="true" d="" pointer-events="none" display="none"/></g></g></g><path class="foreground" aria-hidden="true" d="" display="none"/></g></g></g><defs><clipPath id="clip1"><path d="M1.2347362107686877,0L101.62240664637417,0C102.3038761123842,0,102.85714285714286,0.5532667447586587,102.85714285714286,1.2347362107686877L102.85714285714286,2.4694724215373753C102.85714285714286,2.4694724215373753,102.85714285714286,2.4694724215373753,102.85714285714286,2.4694724215373753L0,2.4694724215373753C0,2.4694724215373753,0,2.4694724215373753,0,2.4694724215373753L0,1.2347362107686877C0,0.5532667447586587,0.5532667447586587,0,1.2347362107686877,0Z"/></clipPath><clipPath id="clip2"><path d="M3.6460405927397233,0L99.21110226440314,0C101.2234068474512,0,102.85714285714286,1.6337360096916607,102.85714285714286,3.6460405927397233L102.85714285714286,7.2920811854794465C102.85714285714286,7.2920811854794465,102.85714285714286,7.2920811854794465,102.85714285714286,7.2920811854794465L0,7.2920811854794465C0,7.2920811854794465,0,7.2920811854794465,0,7.2920811854794465L0,3.6460405927397233C0,1.6337360096916607,1.6337360096916607,0,3.6460405927397233,0Z"/></clipPath><clipPath id="clip3"><path d="M4.2209138790424845,0L98.63622897810038,0C100.96581476503917,0,102.85714285714286,1.8913280921036872,102.85714285714286,4.2209138790424845L102.85714285714286,8.441827758084969C102.85714285714286,8.441827758084969,102.85714285714286,8.441827758084969,102.85714285714286,8.441827758084969L0,8.441827758084969C0,8.441827758084969,0,8.441827758084969,0,8.441827758084969L0,4.2209138790424845C0,1.8913280921036872,1.8913280921036872,0,4.2209138790424845,0Z"/></clipPath><clipPath id="clip4"><path d="M6,0L96.85714285714286,0C100.16863300410687,0,102.85714285714286,2.688509853036,102.85714285714286,6L102.85714285714286,19.958494295588594C102.85714285714286,19.958494295588594,102.85714285714286,19.958494295588594,102.85714285714286,19.958494295588594L0,19.958494295588594C0,19.958494295588594,0,19.958494295588594,0,19.958494295588594L0,6C0,2.688509853036,2.688509853036,0,6,0Z"/></clipPath><clipPath id="clip5"><path d="M6,0L96.85714285714286,0C100.16863300410687,0,102.85714285714286,2.688509853036,102.85714285714286,6L102.85714285714286,80.05791718865999C102.85714285714286,80.05791718865999,102.85714285714286,80.05791718865999,102.85714285714286,80.05791718865999L0,80.05791718865999C0,80.05791718865999,0,80.05791718865999,0,80.05791718865999L0,6C0,2.688509853036,2.688509853036,0,6,0Z"/></clipPath><clipPath id="clip6"><path d="M6,0L96.85714285714286,0C100.16863300410687,0,102.85714285714286,2.688509853036,102.85714285714286,6L102.85714285714286,89.320825226865C102.85714285714286,89.320825226865,102.85714285714286,89.320825226865,102.85714285714286,89.320825226865L0,89.320825226865C0,89.320825226865,0,89.320825226865,0,89.320825226865L0,6C0,2.688509853036,2.688509853036,0,6,0Z"/></clipPath><clipPath id="clip7"><path d="M6,0L96.85714285714286,0C100.16863300410687,0,102.85714285714286,2.688509853036,102.85714285714286,6L102.85714285714286,571.4285714285714C102.85714285714286,571.4285714285714,102.85714285714286,571.4285714285714,102.85714285714286,571.4285714285714L0,571.4285714285714C0,571.4285714285714,0,571.4285714285714,0,571.4285714285714L0,6C0,2.688509853036,2.688509853036,0,6,0Z"/></clipPath></defs></svg>