<svg xmlns="http://www.w3.org/2000/svg" xmlns:xlink="http://www.w3.org/1999/xlink" version="1.1" class="marks" width="846" height="692" viewBox="0 0 846 692"><rect width="846" height="692" fill="white"/><g fill="none" stroke-miterlimit="10" transform="translate(41,41)"><g class="mark-group role-frame root" role="graphics-object" aria-roledescription="group mark container"><g transform="translate(0,0)"><path class="background" aria-hidden="true" d="M0.5,0.5h800v600h-800Z" stroke="#ddd"/><g><g class="mark-group role-axis" role="graphics-symbol" aria-roledescription="axis" aria-label="X-axis titled 'Parser' for a discrete scale with 7 values: toml_rs&#xA;0.3.14, rtoml&#xA;0.13.0, pytomlpp&#xA;1.1.0, toml&#xA;0.10.2, tomli-w&#xA;1.2.0, qtoml&#xA;0.3.1, tomlkit&#xA;0.15.0"><g transform="translate(0.5,600.5)"><path class="background" aria-hidden="true" d="M0,0h0v0h0Z" pointer-events="none"/><g><g class="mark-rule role-axis-tick" pointer-events="none"><line transform="translate(57,0)" x2="0" y2="5" stroke="#888" stroke-width="1" opacity="1"/><line transform="translate(171,0)" x2="0" y2="5" stroke="#888" stroke-width="1" opacity="1"/><line transform="translate(285,0)" x2="0" y2="5" stroke="#888" stroke-width="1" opacity="1"/><line transform="translate(400,0)" x2="0" y2="5" stroke="#888" stroke-width="1" opacity="1"/><line transform="translate(514,0)" x2="0" y2="5" stroke="#888" stroke-width="1" opacity="1"/><line transform="translate(628,0)" x2="0" y2="5" stroke="#888" stroke-width="1" opacity="1"/><line transform="translate(742,0)" x2="0" y2="5" stroke="#888" stroke-width="1" opacity="1"/></g><g class="mark-text role-axis-label" pointer-events="none"><text text-anchor="middle" transform="translate(56.642857142857096,15)" font-family="sans-serif" font-size="10px" fill="#000" opacity="1"><tspan>toml_rs</tspan><tspan x="0" dy="14">0.3.14</tspan></text><text text-anchor="middle" transform="translate(170.9285714285714,15)" font-family="sans-serif" font-size="10px" fill="#000" opacity="1"><tspan>rtoml</tspan><tspan x="0" dy="14">0.13.0</tspan></text><text text-anchor="middle" transform="translate(285.21428571428567,15)" font-family="sans-serif" font-size="10px" fill="#000" opacity="1"><tspan>pytomlpp</tspan><tspan x="0" dy="14">1.1.0</tspan></text><text text-anchor="middle" transform="translate(399.5,15)" font-family="sans-serif" font-size="10px" fill="#000" opacity="1"><tspan>toml</tspan><tspan x="0" dy="14">0.10.2</tspan></text><text text-anchor="middle" transform="translate(513.7857142857142,15)" font-family="sans-serif" font-size="10px" fill="#000" opacity="1"><tspan>tomli-w</tspan><tspan x="0" dy="14">1.2.0</tspan></text><text text-anchor="middle" transform="translate(628.0714285714286,15)" font-family="sans-serif" font-size="10px" fill="#000" opacity="1"><tspan>qtoml</tspan><tspan x="0" dy="14">0.3.1</tspan></text><text text-anchor="middle" transform="translate(742.3571428571429,15)" font-family="sans-serif" font-size="10px" fill="#000" opacity="1"><tspan>tomlkit</tspan><tspan x="0" dy="14">0.15.0</tspan></text></g><g class="mark-rule role-axis-domain" pointer-events="none"><line transform="translate(0,0)" x2="800" y2="0" stroke="#888" stroke-width="1" opacity="1"/></g><g class="mark-text role-axis-title" pointer-events="none"><text text-anchor="middle" transform="translate(400,44)" font-family="sans-serif" font-size="11px" font-weight="bold" fill="#000" opacity="1">Parser</text></g></g><path class="foreground" aria-hidden="true" d="" pointer-events="none" display="none"/></g></g><g class="mark-group role-axis" role="graphics-symbol" aria-roledescription="axis" aria-label="Y-axis titled 'Execution Time (seconds, lower=better)' for a linear scale with values from 0.0 to 2.4"><g transform="translate(0.5,0.5)"><path class="background" aria-hidden="true" d="M0,0h0v0h0Z" pointer-events="none"/><g><g class="mark-rule role-axis-tick" pointer-events="none"><line transform="translate(0,600)" x2="-5" y2="0" stroke="#888" stroke-width="1" opacity="1"/><line transform="translate(0,550)" x2="-5" y2="0" stroke="#888" stroke-width="1" opacity="1"/><line transform="translate(0,500)" x2="-5" y2="0" stroke="#888" stroke-width="1" opacity="1"/><line transform="translate(0,450)" x2="-5" y2="0" stroke="#888" stroke-width="1" opacity="1"/><line transform="translate(0,400)" x2="-5" y2="0" stroke="#888" stroke-width="1" opacity="1"/><line transform="translate(0,350)" x2="-5" y2="0" stroke="#888" stroke-width="1" opacity="1"/><line transform="translate(0,300)" x2="-5" y2="0" stroke="#888" stroke-width="1" opacity="1"/><line transform="translate(0,250)" x2="-5" y2="0" stroke="#888" stroke-width="1" opacity="1"/><line transform="translate(0,200)" x2="-5" y2="0" stroke="#888" stroke-width="1" opacity="1"/><line transform="translate(0,150)" x2="-5" y2="0" stroke="#888" stroke-width="1" opacity="1"/><line transform="translate(0,100)" x2="-5" y2="0" stroke="#888" stroke-width="1" opacity="1"/><line transform="translate(0,51)" x2="-5" y2="0" stroke="#888" stroke-width="1" opacity="1"/><line transform="translate(0,1)" x2="-5" y2="0" stroke="#888" stroke-width="1" opacity="1"/></g><g class="mark-text role-axis-label" pointer-events="none"><text text-anchor="end" transform="translate(-7,603)" font-family="sans-serif" font-size="10px" fill="#000" opacity="1">0.0</text><text text-anchor="end" transform="translate(-7,553.0484720261552)" font-family="sans-serif" font-size="10px" fill="#000" opacity="1">0.2</text><text text-anchor="end" transform="translate(-7,503.09694405231033)" font-family="sans-serif" font-size="10px" fill="#000" opacity="1">0.4</text><text text-anchor="end" transform="translate(-7,453.1454160784655)" font-family="sans-serif" font-size="10px" fill="#000" opacity="1">0.6</text><text text-anchor="end" transform="translate(-7,403.1938881046206)" font-family="sans-serif" font-size="10px" fill="#000" opacity="1">0.8</text><text text-anchor="end" transform="translate(-7,353.2423601307758)" font-family="sans-serif" font-size="10px" fill="#000" opacity="1">1.0</text><text text-anchor="end" transform="translate(-7,303.290832156931)" font-family="sans-serif" font-size="10px" fill="#000" opacity="1">1.2</text><text text-anchor="end" transform="translate(-7,253.3393041830862)" font-family="sans-serif" font-size="10px" fill="#000" opacity="1">1.4</text><text text-anchor="end" transform="translate(-7,203.3877762092413)" font-family="sans-serif" font-size="10px" fill="#000" opacity="1">1.6</text><text text-anchor="end" transform="translate(-7,153.4362482353965)" font-family="sans-serif" font-size="10px" fill="#000" opacity="1">1.8</text><text text-anchor="end" transform="translate(-7,103.48472026155169)" font-family="sans-serif" font-size="10px" fill="#000" opacity="1">2.0</text><text text-anchor="end" transform="translate(-7,53.53319228770681)" font-family="sans-serif" font-size="10px" fill="#000" opacity="1">2.2</text><text text-anchor="end" transform="translate(-7,3.5816643138620625)" font-family="sans-serif" font-size="10px" fill="#000" opacity="1">2.4</text></g><g class="mark-rule role-axis-domain" pointer-events="none"><line transform="translate(0,600)" x2="0" y2="-600" stroke="#888" stroke-width="1" opacity="1"/></g><g class="mark-text role-axis-title" pointer-events="none"><text text-anchor="middle" transform="translate(-24.9013671875,300) rotate(-90) translate(0,-2)" font-family="sans-serif" font-size="11px" font-weight="bold" fill="#000" opacity="1">Execution Time (seconds, lower=better)</text></g></g><path class="foreground" aria-hidden="true" d="" pointer-events="none" display="none"/></g></g><g class="mark-group role-scope" role="graphics-object" aria-roledescription="group mark container"><g transform="translate(5.714285714285666,591.4707516227078)"><path class="background" aria-hidden="true" d="M4.26462418864611,0L98.59251866849675,0C100.94622883203107,0,102.85714285714286,1.9109140251117873,102.85714285714286,4.26462418864611L102.85714285714286,8.52924837729222C102.85714285714286,8.52924837729222,102.85714285714286,8.52924837729222,102.85714285714286,8.52924837729222L0,8.52924837729222C0,8.52924837729222,0,8.52924837729222,0,8.52924837729222L0,4.26462418864611C0,1.9109140251117873,1.9109140251117873,0,4.26462418864611,0Z"/><g clip-path="url(#clip8)"><g class="mark-group role-scope" role="graphics-object" aria-roledescription="group mark container"><g transform="translate(0,-591.4707516227078)"><path class="background" aria-hidden="true" d="M0,0h102.85714285714286v0h-102.85714285714286Z"/><g><g class="mark-rect role-mark layer_0_marks" role="graphics-object" aria-roledescription="rect mark container"><path aria-label="Parser: toml_rs&#xA;0.3.14; Execution Time (seconds, lower=better): 0.0341501; parser: toml_rs; Execution Time (s): 0.0342; Slowdown: 1.00" role="graphics-symbol" aria-roledescription="bar" d="M0,591.4707516227078h102.85714285714286v8.52924837729222h-102.85714285714286Z" fill="#66a61e"/></g></g><path class="foreground" aria-hidden="true" d="" display="none"/></g></g></g><path class="foreground" aria-hidden="true" d="" display="none"/></g><g transform="translate(119.99999999999996,590.1509073748149)"><path class="background" aria-hidden="true" d="M4.924546312592554,0L97.93259654455031,0C100.65052764328667,0,102.85714285714286,2.2066152138561974,102.85714285714286,4.924546312592554L102.85714285714286,9.849092625185108C102.85714285714286,9.849092625185108,102.85714285714286,9.849092625185108,102.85714285714286,9.849092625185108L0,9.849092625185108C0,9.849092625185108,0,9.849092625185108,0,9.849092625185108L0,4.924546312592554C0,2.2066152138561974,2.2066152138561974,0,4.924546312592554,0Z"/><g clip-path="url(#clip9)"><g class="mark-group role-scope" role="graphics-object" aria-roledescription="group mark container"><g transform="translate(0,-590.1509073748149)"><path class="background" aria-hidden="true" d="M0,0h102.85714285714286v0h-102.85714285714286Z"/><g><g class="mark-rect role-mark layer_0_marks" role="graphics-object" aria-roledescription="rect mark container"><path aria-label="Parser: rtoml&#xA;0.13.0; Execution Time (seconds, lower=better): 0.0394346; parser: rtoml; Execution Time (s): 0.0394; Slowdown: 1.15" role="graphics-symbol" aria-roledescription="bar" d="M0,590.1509073748149h102.85714285714286v9.849092625185108h-102.85714285714286Z" fill="#7570b3"/></g></g><path class="foreground" aria-hidden="true" d="" display="none"/></g></g></g><path class="foreground" aria-hidden="true" d="" display="none"/></g><g transform="translate(234.28571428571425,586.0706667638052)"><path class="background" aria-hidden="true" d="M6,0L96.85714285714286,0C100.16863300410687,0,102.85714285714286,2.688509853036,102.85714285714286,6L102.85714285714286,13.929333236194793C102.85714285714286,13.929333236194793,102.85714285714286,13.929333236194793,102.85714285714286,13.929333236194793L0,13.929333236194793C0,13.929333236194793,0,13.929333236194793,0,13.929333236194793L0,6C0,2.688509853036,2.688509853036,0,6,0Z"/><g clip-path="url(#clip10)"><g class="mark-group role-scope" role="graphics-object" aria-roledescription="group mark container"><g transform="translate(0,-586.0706667638052)"><path class="background" aria-hidden="true" d="M0,0h102.85714285714286v0h-102.85714285714286Z"/><g><g class="mark-rect role-mark layer_0_marks" role="graphics-object" aria-roledescription="rect mark container"><path aria-label="Parser: pytomlpp&#xA;1.1.0; Execution Time (seconds, lower=better): 0.0557714; parser: pytomlpp; Execution Time (s): 0.0558; Slowdown: 1.63" role="graphics-symbol" aria-roledescription="bar" d="M0,586.0706667638052h102.85714285714286v13.929333236194793h-102.85714285714286Z" fill="#1b9e77"/></g></g><path class="foreground" aria-hidden="true" d="" display="none"/></g></g></g><path class="foreground" aria-hidden="true" d="" display="none"/></g><g transform="translate(348.57142857142856,571.5639438157392)"><path class="background" aria-hidden="true" d="M6,0L96.85714285714286,0C100.16863300410687,0,102.85714285714286,2.688509853036,102.85714285714286,6L102.85714285714286,28.436056184260792C102.85714285714286,28.436056184260792,102.85714285714286,28.436056184260792,102.85714285714286,28.436056184260792L0,28.436056184260792C0,28.436056184260792,0,28.436056184260792,0,28.436056184260792L0,6C0,2.688509853036,2.688509853036,0,6,0Z"/><g clip-path="url(#clip11)"><g class="mark-group role-scope" role="graphics-object" aria-roledescription="group mark container"><g transform="translate(0,-571.5639438157392)"><path class="background" aria-hidden="true" d="M0,0h102.85714285714286v0h-102.85714285714286Z"/><g><g class="mark-rect role-mark layer_0_marks" role="graphics-object" aria-roledescription="rect mark container"><path aria-label="Parser: toml&#xA;0.10.2; Execution Time (seconds, lower=better): 0.1138546; parser: toml; Execution Time (s): 0.1139; Slowdown: 3.33" role="graphics-symbol" aria-roledescription="bar" d="M0,571.5639438157392h102.85714285714286v28.436056184260792h-102.85714285714286Z" fill="#e7298a"/></g></g><path class="foreground" aria-hidden="true" d="" display="none"/></g></g></g><path class="foreground" aria-hidden="true" d="" display="none"/></g><g transform="translate(462.85714285714283,569.5871120961822)"><path class="background" aria-hidden="true" d="M6,0L96.85714285714286,0C100.16863300410687,0,102.85714285714286,2.688509853036,102.85714285714286,6L102.85714285714286,30.41288790381782C102.85714285714286,30.41288790381782,102.85714285714286,30.41288790381782,102.85714285714286,30.41288790381782L0,30.41288790381782C0,30.41288790381782,0,30.41288790381782,0,30.41288790381782L0,6C0,2.688509853036,2.688509853036,0,6,0Z"/><g clip-path="url(#clip12)"><g class="mark-group role-scope" role="graphics-object" aria-roledescription="group mark container"><g transform="translate(0,-569.5871120961822)"><path class="background" aria-hidden="true" d="M0,0h102.85714285714286v0h-102.85714285714286Z"/><g><g class="mark-rect role-mark layer_0_marks" role="graphics-object" aria-roledescription="rect mark container"><path aria-label="Parser: tomli-w&#xA;1.2.0; Execution Time (seconds, lower=better): 0.1217696; parser: tomli-w; Execution Time (s): 0.1218; Slowdown: 3.57" role="graphics-symbol" aria-roledescription="bar" d="M0,569.5871120961822h102.85714285714286v30.41288790381782h-102.85714285714286Z" fill="#e6ab02"/></g></g><path class="foreground" aria-hidden="true" d="" display="none"/></g></g></g><path class="foreground" aria-hidden="true" d="" display="none"/></g><g transform="translate(577.1428571428571,523.9316153341915)"><path class="background" aria-hidden="true" d="M6,0L96.85714285714286,0C100.16863300410687,0,102.85714285714286,2.688509853036,102.85714285714286,6L102.85714285714286,76.06838466580848C102.85714285714286,76.06838466580848,102.85714285714286,76.06838466580848,102.85714285714286,76.06838466580848L0,76.06838466580848C0,76.06838466580848,0,76.06838466580848,0,76.06838466580848L0,6C0,2.688509853036,2.688509853036,0,6,0Z"/><g clip-path="url(#clip13)"><g class="mark-group role-scope" role="graphics-object" aria-roledescription="group mark container"><g transform="translate(0,-523.9316153341915)"><path class="background" aria-hidden="true" d="M0,0h102.85714285714286v0h-102.85714285714286Z"/><g><g class="mark-rect role-mark layer_0_marks" role="graphics-object" aria-roledescription="rect mark container"><path aria-label="Parser: qtoml&#xA;0.3.1; Execution Time (seconds, lower=better): 0.3045688; parser: qtoml; Execution Time (s): 0.3046; Slowdown: 8.92" role="graphics-symbol" aria-roledescription="bar" d="M0,523.9316153341915h102.85714285714286v76.06838466580848h-102.85714285714286Z" fill="#d95f02"/></g></g><path class="foreground" aria-hidden="true" d="" display="none"/></g></g></g><path class="foreground" aria-hidden="true" d="" display="none"/></g><g transform="translate(691.4285714285714,28.571428571428605)"><path class="background" aria-hidden="true" d="M6,0L96.85714285714286,0C100.16863300410687,0,102.85714285714286,2.688509853036,102.85714285714286,6L102.85714285714286,571.4285714285714C102.85714285714286,571.4285714285714,102.85714285714286,571.4285714285714,102.85714285714286,571.4285714285714L0,571.4285714285714C0,571.4285714285714,0,571.4285714285714,0,571.4285714285714L0,6C0,2.688509853036,2.688509853036,0,6,0Z"/><g clip-path="url(#clip14)"><g class="mark-group role-scope" role="graphics-object" aria-roledescription="group mark container"><g transform="translate(0,-28.571428571428605)"><path class="background" aria-hidden="true" d="M0,0h102.85714285714286v0h-102.85714285714286Z"/><g><g class="mark-rect role-mark layer_0_marks" role="graphics-object" aria-roledescription="rect mark container"><path aria-label="Parser: tomlkit&#xA;0.15.0; Execution Time (seconds, lower=better): 2.2879323; parser: tomlkit; Execution Time (s): 2.2879; Slowdown: 67.00" role="graphics-symbol" aria-roledescription="bar" d="M0,28.571428571428605h102.85714285714286v571.4285714285714h-102.85714285714286Z" fill="#a6761d"/></g></g><path class="foreground" aria-hidden="true" d="" display="none"/></g></g></g><path class="foreground" aria-hidden="true" d="" display="none"/></g></g><g class="mark-text role-mark layer_1_marks" role="graphics-object" aria-roledescription="text mark container"><text aria-label="Parser: toml_rs&#xA;0.3.14; Execution Time (seconds, lower=better): 0.0341501; parser: toml_rs; label: 0.0342s (x1.00); Execution Time (s): 0.0342; Slowdown: 1.00" role="graphics-symbol" aria-roledescription="text mark" text-anchor="middle" transform="translate(57.142857142857096,587.4707516227078)" font-family="sans-serif" font-size="9px" font-weight="bold" fill="#66a61e">0.0342s (x1.00)</text><text aria-label="Parser: rtoml&#xA;0.13.0; Execution Time (seconds, lower=better): 0.0394346; parser: rtoml; label: 0.0394s (x1.15); Execution Time (s): 0.0394; Slowdown: 1.15" role="graphics-symbol" aria-roledescription="text mark" text-anchor="middle" transform="translate(171.4285714285714,586.1509073748149)" font-family="sans-serif" font-size="9px" font-weight="bold" fill="#7570b3">0.0394s (x1.15)</text><text aria-label="Parser: pytomlpp&#xA;1.1.0; Execution Time (seconds, lower=better): 0.0557714; parser: pytomlpp; label: 0.0558s (x1.63); Execution Time (s): 0.0558; Slowdown: 1.63" role="graphics-symbol" aria-roledescription="text mark" text-anchor="middle" transform="translate(285.71428571428567,582.0706667638052)" font-family="sans-serif" font-size="9px" font-weight="bold" fill="#1b9e77">0.0558s (x1.63)</text><text aria-label="Parser: toml&#xA;0.10.2; Execution Time (seconds, lower=better): 0.1138546; parser: toml; label: 0.1139s (x3.33); Execution Time (s): 0.1139; Slowdown: 3.33" role="graphics-symbol" aria-roledescription="text mark" text-anchor="middle" transform="translate(400,567.5639438157392)" font-family="sans-serif" font-size="9px" font-weight="bold" fill="#e7298a">0.1139s (x3.33)</text><text aria-label="Parser: tomli-w&#xA;1.2.0; Execution Time (seconds, lower=better): 0.1217696; parser: tomli-w; label: 0.1218s (x3.57); Execution Time (s): 0.1218; Slowdown: 3.57" role="graphics-symbol" aria-roledescription="text mark" text-anchor="middle" transform="translate(514.2857142857142,565.5871120961822)" font-family="sans-serif" font-size="9px" font-weight="bold" fill="#e6ab02">0.1218s (x3.57)</text><text aria-label="Parser: qtoml&#xA;0.3.1; Execution Time (seconds, lower=better): 0.3045688; parser: qtoml; label: 0.3046s (x8.92); Execution Time (s): 0.3046; Slowdown: 8.92" role="graphics-symbol" aria-roledescription="text mark" text-anchor="middle" transform="translate(628.5714285714286,519.9316153341915)" font-family="sans-serif" font-size="9px" font-weight="bold" fill="#d95f02">0.3046s (x8.92)</text><text aria-label="Parser: tomlkit&#xA;0.15.0; Execution Time (seconds, lower=better): 2.2879323; parser: tomlkit; label: 2.2879s (x67.00); Execution Time (s): 2.2879; Slowdown: 67.00" role="graphics-symbol" aria-roledescription="text mark" text-anchor="middle" transform="translate(742.8571428571429,24.571428571428605)" font-family="sans-serif" font-size="9px" font-weight="bold" fill="#a6761d">2.2879s (x67.00)</text></g><g class="mark-group role-title"><g transform="translate(400,-35.41833568613794)"><path class="background" aria-hidden="true" d="M0,0h0v0h0Z" pointer-events="none"/><g><g class="mark-text role-title-text" role="graphics-symbol" aria-roledescription="title" aria-label="Title text 'TOML parsers benchmark (dumps)'" pointer-events="none"><text text-anchor="middle" transform="translate(0,10)" font-family="sans-serif" font-size="13px" font-weight="bold" fill="#000" opacity="1">TOML parsers benchmark (dumps)</text></g><g class="mark-text role-title-subtitle" role="graphics-symbol" aria-roledescription="subtitle" aria-label="Subtitle text 'Python: 3.14.6 (Windows 2025Server) | CPU: Intel(R) Xeon(R) Platinum 8370C CPU @ 2.80GHz'" pointer-events="none"><text text-anchor="middle" transform="translate(0,25)" font-family="sans-serif" font-size="12px" fill="#000" opacity="1">Python: 3.14.6 (Windows 2025Server) | CPU: Intel(R) Xeon(R) Platinum 8370C CPU @ 2.80GHz</text></g></g><path class="foreground" aria-hidden="true" d="" pointer-events="none" display="none"/></g></g></g><path class="foreground" aria-hidden="true" d="" display="none"/></g></g></g><defs><clipPath id="clip8"><path d="M4.26462418864611,0L98.59251866849675,0C100.94622883203107,0,102.85714285714286,1.9109140251117873,102.85714285714286,4.26462418864611L102.85714285714286,8.52924837729222C102.85714285714286,8.52924837729222,102.85714285714286,8.52924837729222,102.85714285714286,8.52924837729222L0,8.52924837729222C0,8.52924837729222,0,8.52924837729222,0,8.52924837729222L0,4.26462418864611C0,1.9109140251117873,1.9109140251117873,0,4.26462418864611,0Z"/></clipPath><clipPath id="clip9"><path d="M4.924546312592554,0L97.93259654455031,0C100.65052764328667,0,102.85714285714286,2.2066152138561974,102.85714285714286,4.924546312592554L102.85714285714286,9.849092625185108C102.85714285714286,9.849092625185108,102.85714285714286,9.849092625185108,102.85714285714286,9.849092625185108L0,9.849092625185108C0,9.849092625185108,0,9.849092625185108,0,9.849092625185108L0,4.924546312592554C0,2.2066152138561974,2.2066152138561974,0,4.924546312592554,0Z"/></clipPath><clipPath id="clip10"><path d="M6,0L96.85714285714286,0C100.16863300410687,0,102.85714285714286,2.688509853036,102.85714285714286,6L102.85714285714286,13.929333236194793C102.85714285714286,13.929333236194793,102.85714285714286,13.929333236194793,102.85714285714286,13.929333236194793L0,13.929333236194793C0,13.929333236194793,0,13.929333236194793,0,13.929333236194793L0,6C0,2.688509853036,2.688509853036,0,6,0Z"/></clipPath><clipPath id="clip11"><path d="M6,0L96.85714285714286,0C100.16863300410687,0,102.85714285714286,2.688509853036,102.85714285714286,6L102.85714285714286,28.436056184260792C102.85714285714286,28.436056184260792,102.85714285714286,28.436056184260792,102.85714285714286,28.436056184260792L0,28.436056184260792C0,28.436056184260792,0,28.436056184260792,0,28.436056184260792L0,6C0,2.688509853036,2.688509853036,0,6,0Z"/></clipPath><clipPath id="clip12"><path d="M6,0L96.85714285714286,0C100.16863300410687,0,102.85714285714286,2.688509853036,102.85714285714286,6L102.85714285714286,30.41288790381782C102.85714285714286,30.41288790381782,102.85714285714286,30.41288790381782,102.85714285714286,30.41288790381782L0,30.41288790381782C0,30.41288790381782,0,30.41288790381782,0,30.41288790381782L0,6C0,2.688509853036,2.688509853036,0,6,0Z"/></clipPath><clipPath id="clip13"><path d="M6,0L96.85714285714286,0C100.16863300410687,0,102.85714285714286,2.688509853036,102.85714285714286,6L102.85714285714286,76.06838466580848C102.85714285714286,76.06838466580848,102.85714285714286,76.06838466580848,102.85714285714286,76.06838466580848L0,76.06838466580848C0,76.06838466580848,0,76.06838466580848,0,76.06838466580848L0,6C0,2.688509853036,2.688509853036,0,6,0Z"/></clipPath><clipPath id="clip14"><path d="M6,0L96.85714285714286,0C100.16863300410687,0,102.85714285714286,2.688509853036,102.85714285714286,6L102.85714285714286,571.4285714285714C102.85714285714286,571.4285714285714,102.85714285714286,571.4285714285714,102.85714285714286,571.4285714285714L0,571.4285714285714C0,571.4285714285714,0,571.4285714285714,0,571.4285714285714L0,6C0,2.688509853036,2.688509853036,0,6,0Z"/></clipPath></defs></svg>