<svg xmlns="http://www.w3.org/2000/svg" xmlns:xlink="http://www.w3.org/1999/xlink" version="1.1" class="marks" width="846" height="691" viewBox="0 0 846 691"><rect width="846" height="691" fill="white"/><g fill="none" stroke-miterlimit="10" transform="translate(41,40)"><g class="mark-group role-frame root" role="graphics-object" aria-roledescription="group mark container"><g transform="translate(0,0)"><path class="background" aria-hidden="true" d="M0.5,0.5h800v600h-800Z" stroke="#ddd"/><g><g class="mark-group role-axis" role="graphics-symbol" aria-roledescription="axis" aria-label="X-axis titled 'Parser' for a discrete scale with 7 values: toml_rs&#xA;0.3.14, rtoml&#xA;0.13.0, pytomlpp&#xA;1.1.0, tomllib&#xA;built-in, toml&#xA;0.10.2, qtoml&#xA;0.3.1, tomlkit&#xA;0.15.0"><g transform="translate(0.5,600.5)"><path class="background" aria-hidden="true" d="M0,0h0v0h0Z" pointer-events="none"/><g><g class="mark-rule role-axis-tick" pointer-events="none"><line transform="translate(57,0)" x2="0" y2="5" stroke="#888" stroke-width="1" opacity="1"/><line transform="translate(171,0)" x2="0" y2="5" stroke="#888" stroke-width="1" opacity="1"/><line transform="translate(285,0)" x2="0" y2="5" stroke="#888" stroke-width="1" opacity="1"/><line transform="translate(400,0)" x2="0" y2="5" stroke="#888" stroke-width="1" opacity="1"/><line transform="translate(514,0)" x2="0" y2="5" stroke="#888" stroke-width="1" opacity="1"/><line transform="translate(628,0)" x2="0" y2="5" stroke="#888" stroke-width="1" opacity="1"/><line transform="translate(742,0)" x2="0" y2="5" stroke="#888" stroke-width="1" opacity="1"/></g><g class="mark-text role-axis-label" pointer-events="none"><text text-anchor="middle" transform="translate(56.642857142857096,15)" font-family="sans-serif" font-size="10px" fill="#000" opacity="1"><tspan>toml_rs</tspan><tspan x="0" dy="14">0.3.14</tspan></text><text text-anchor="middle" transform="translate(170.9285714285714,15)" font-family="sans-serif" font-size="10px" fill="#000" opacity="1"><tspan>rtoml</tspan><tspan x="0" dy="14">0.13.0</tspan></text><text text-anchor="middle" transform="translate(285.21428571428567,15)" font-family="sans-serif" font-size="10px" fill="#000" opacity="1"><tspan>pytomlpp</tspan><tspan x="0" dy="14">1.1.0</tspan></text><text text-anchor="middle" transform="translate(399.5,15)" font-family="sans-serif" font-size="10px" fill="#000" opacity="1"><tspan>tomllib</tspan><tspan x="0" dy="14">built-in</tspan></text><text text-anchor="middle" transform="translate(513.7857142857142,15)" font-family="sans-serif" font-size="10px" fill="#000" opacity="1"><tspan>toml</tspan><tspan x="0" dy="14">0.10.2</tspan></text><text text-anchor="middle" transform="translate(628.0714285714286,15)" font-family="sans-serif" font-size="10px" fill="#000" opacity="1"><tspan>qtoml</tspan><tspan x="0" dy="14">0.3.1</tspan></text><text text-anchor="middle" transform="translate(742.3571428571429,15)" font-family="sans-serif" font-size="10px" fill="#000" opacity="1"><tspan>tomlkit</tspan><tspan x="0" dy="14">0.15.0</tspan></text></g><g class="mark-rule role-axis-domain" pointer-events="none"><line transform="translate(0,0)" x2="800" y2="0" stroke="#888" stroke-width="1" opacity="1"/></g><g class="mark-text role-axis-title" pointer-events="none"><text text-anchor="middle" transform="translate(400,44)" font-family="sans-serif" font-size="11px" font-weight="bold" fill="#000" opacity="1">Parser</text></g></g><path class="foreground" aria-hidden="true" d="" pointer-events="none" display="none"/></g></g><g class="mark-group role-axis" role="graphics-symbol" aria-roledescription="axis" aria-label="Y-axis titled 'Execution Time (seconds, lower=better)' for a linear scale with values from 0 to 6"><g transform="translate(0.5,0.5)"><path class="background" aria-hidden="true" d="M0,0h0v0h0Z" pointer-events="none"/><g><g class="mark-rule role-axis-tick" pointer-events="none"><line transform="translate(0,600)" x2="-5" y2="0" stroke="#888" stroke-width="1" opacity="1"/><line transform="translate(0,546)" x2="-5" y2="0" stroke="#888" stroke-width="1" opacity="1"/><line transform="translate(0,491)" x2="-5" y2="0" stroke="#888" stroke-width="1" opacity="1"/><line transform="translate(0,437)" x2="-5" y2="0" stroke="#888" stroke-width="1" opacity="1"/><line transform="translate(0,382)" x2="-5" y2="0" stroke="#888" stroke-width="1" opacity="1"/><line transform="translate(0,328)" x2="-5" y2="0" stroke="#888" stroke-width="1" opacity="1"/><line transform="translate(0,274)" x2="-5" y2="0" stroke="#888" stroke-width="1" opacity="1"/><line transform="translate(0,219)" x2="-5" y2="0" stroke="#888" stroke-width="1" opacity="1"/><line transform="translate(0,165)" x2="-5" y2="0" stroke="#888" stroke-width="1" opacity="1"/><line transform="translate(0,110)" x2="-5" y2="0" stroke="#888" stroke-width="1" opacity="1"/><line transform="translate(0,56)" x2="-5" y2="0" stroke="#888" stroke-width="1" opacity="1"/><line transform="translate(0,2)" x2="-5" y2="0" stroke="#888" stroke-width="1" opacity="1"/></g><g class="mark-text role-axis-label" pointer-events="none"><text text-anchor="end" transform="translate(-7,603)" font-family="sans-serif" font-size="10px" fill="#000" opacity="1">0.0</text><text text-anchor="end" transform="translate(-7,548.6047350930139)" font-family="sans-serif" font-size="10px" fill="#000" opacity="1">0.5</text><text text-anchor="end" transform="translate(-7,494.20947018602783)" font-family="sans-serif" font-size="10px" fill="#000" opacity="1">1.0</text><text text-anchor="end" transform="translate(-7,439.8142052790417)" font-family="sans-serif" font-size="10px" fill="#000" opacity="1">1.5</text><text text-anchor="end" transform="translate(-7,385.41894037205566)" font-family="sans-serif" font-size="10px" fill="#000" opacity="1">2.0</text><text text-anchor="end" transform="translate(-7,331.02367546506946)" font-family="sans-serif" font-size="10px" fill="#000" opacity="1">2.5</text><text text-anchor="end" transform="translate(-7,276.62841055808343)" font-family="sans-serif" font-size="10px" fill="#000" opacity="1">3.0</text><text text-anchor="end" transform="translate(-7,222.23314565109732)" font-family="sans-serif" font-size="10px" fill="#000" opacity="1">3.5</text><text text-anchor="end" transform="translate(-7,167.83788074411126)" font-family="sans-serif" font-size="10px" fill="#000" opacity="1">4.0</text><text text-anchor="end" transform="translate(-7,113.44261583712513)" font-family="sans-serif" font-size="10px" fill="#000" opacity="1">4.5</text><text text-anchor="end" transform="translate(-7,59.04735093013902)" font-family="sans-serif" font-size="10px" fill="#000" opacity="1">5.0</text><text text-anchor="end" transform="translate(-7,4.6520860231529655)" font-family="sans-serif" font-size="10px" fill="#000" opacity="1">5.5</text></g><g class="mark-rule role-axis-domain" pointer-events="none"><line transform="translate(0,600)" x2="0" y2="-600" stroke="#888" stroke-width="1" opacity="1"/></g><g class="mark-text role-axis-title" pointer-events="none"><text text-anchor="middle" transform="translate(-24.9013671875,300) rotate(-90) translate(0,-2)" font-family="sans-serif" font-size="11px" font-weight="bold" fill="#000" opacity="1">Execution Time (seconds, lower=better)</text></g></g><path class="foreground" aria-hidden="true" d="" pointer-events="none" display="none"/></g></g><g class="mark-group role-scope" role="graphics-object" aria-roledescription="group mark container"><g transform="translate(5.714285714285666,597.0576948468562)"><path class="background" aria-hidden="true" d="M1.4711525765719102,0L101.38599028057095,0C102.19794149090404,0,102.85714285714286,0.6592013662388132,102.85714285714286,1.4711525765719102L102.85714285714286,2.9423051531438205C102.85714285714286,2.9423051531438205,102.85714285714286,2.9423051531438205,102.85714285714286,2.9423051531438205L0,2.9423051531438205C0,2.9423051531438205,0,2.9423051531438205,0,2.9423051531438205L0,1.4711525765719102C0,0.6592013662388132,0.6592013662388132,0,1.4711525765719102,0Z"/><g clip-path="url(#clip1)"><g class="mark-group role-scope" role="graphics-object" aria-roledescription="group mark container"><g transform="translate(0,-597.0576948468562)"><path class="background" aria-hidden="true" d="M0,0h102.85714285714286v0h-102.85714285714286Z"/><g><g class="mark-rect role-mark layer_0_marks" role="graphics-object" aria-roledescription="rect mark container"><path aria-label="Parser: toml_rs&#xA;0.3.14; Execution Time (seconds, lower=better): 0.0270456000001; parser: toml_rs; Execution Time (s): 0.0270; Slowdown: 1.00" role="graphics-symbol" aria-roledescription="bar" d="M0,597.0576948468562h102.85714285714286v2.9423051531438205h-102.85714285714286Z" fill="#66a61e"/></g></g><path class="foreground" aria-hidden="true" d="" display="none"/></g></g></g><path class="foreground" aria-hidden="true" d="" display="none"/></g><g transform="translate(119.99999999999996,591.9367287855437)"><path class="background" aria-hidden="true" d="M4.031635607228168,0L98.8255072499147,0C101.0506275148289,0,102.85714285714286,1.806515342313951,102.85714285714286,4.031635607228168L102.85714285714286,8.063271214456336C102.85714285714286,8.063271214456336,102.85714285714286,8.063271214456336,102.85714285714286,8.063271214456336L0,8.063271214456336C0,8.063271214456336,0,8.063271214456336,0,8.063271214456336L0,4.031635607228168C0,1.806515342313951,1.806515342313951,0,4.031635607228168,0Z"/><g clip-path="url(#clip2)"><g class="mark-group role-scope" role="graphics-object" aria-roledescription="group mark container"><g transform="translate(0,-591.9367287855437)"><path class="background" aria-hidden="true" d="M0,0h102.85714285714286v0h-102.85714285714286Z"/><g><g class="mark-rect role-mark layer_0_marks" role="graphics-object" aria-roledescription="rect mark container"><path aria-label="Parser: rtoml&#xA;0.13.0; Execution Time (seconds, lower=better): 0.0741174000002; parser: rtoml; Execution Time (s): 0.0741; Slowdown: 2.74" role="graphics-symbol" aria-roledescription="bar" d="M0,591.9367287855437h102.85714285714286v8.063271214456336h-102.85714285714286Z" fill="#7570b3"/></g></g><path class="foreground" aria-hidden="true" d="" display="none"/></g></g></g><path class="foreground" aria-hidden="true" d="" display="none"/></g><g transform="translate(234.28571428571425,590.8597134194699)"><path class="background" aria-hidden="true" d="M4.570143290265037,0L98.28699956687782,0C100.80933031286554,0,102.85714285714286,2.047812544277319,102.85714285714286,4.570143290265037L102.85714285714286,9.140286580530073C102.85714285714286,9.140286580530073,102.85714285714286,9.140286580530073,102.85714285714286,9.140286580530073L0,9.140286580530073C0,9.140286580530073,0,9.140286580530073,0,9.140286580530073L0,4.570143290265037C0,2.047812544277319,2.047812544277319,0,4.570143290265037,0Z"/><g clip-path="url(#clip3)"><g class="mark-group role-scope" role="graphics-object" aria-roledescription="group mark container"><g transform="translate(0,-590.8597134194699)"><path class="background" aria-hidden="true" d="M0,0h102.85714285714286v0h-102.85714285714286Z"/><g><g class="mark-rect role-mark layer_0_marks" role="graphics-object" aria-roledescription="rect mark container"><path aria-label="Parser: pytomlpp&#xA;1.1.0; Execution Time (seconds, lower=better): 0.0840172999999; parser: pytomlpp; Execution Time (s): 0.0840; Slowdown: 3.11" role="graphics-symbol" aria-roledescription="bar" d="M0,590.8597134194699h102.85714285714286v9.140286580530073h-102.85714285714286Z" fill="#1b9e77"/></g></g><path class="foreground" aria-hidden="true" d="" display="none"/></g></g></g><path class="foreground" aria-hidden="true" d="" display="none"/></g><g transform="translate(348.57142857142856,566.7879375010097)"><path class="background" aria-hidden="true" d="M6,0L96.85714285714286,0C100.16863300410687,0,102.85714285714286,2.688509853036,102.85714285714286,6L102.85714285714286,33.21206249899035C102.85714285714286,33.21206249899035,102.85714285714286,33.21206249899035,102.85714285714286,33.21206249899035L0,33.21206249899035C0,33.21206249899035,0,33.21206249899035,0,33.21206249899035L0,6C0,2.688509853036,2.688509853036,0,6,0Z"/><g clip-path="url(#clip4)"><g class="mark-group role-scope" role="graphics-object" aria-roledescription="group mark container"><g transform="translate(0,-566.7879375010097)"><path class="background" aria-hidden="true" d="M0,0h102.85714285714286v0h-102.85714285714286Z"/><g><g class="mark-rect role-mark layer_0_marks" role="graphics-object" aria-roledescription="rect mark container"><path aria-label="Parser: tomllib&#xA;built-in; Execution Time (seconds, lower=better): 0.3052845; parser: tomllib; Execution Time (s): 0.3053; Slowdown: 11.29" role="graphics-symbol" aria-roledescription="bar" d="M0,566.7879375010097h102.85714285714286v33.21206249899035h-102.85714285714286Z" fill="#a6761d"/></g></g><path class="foreground" aria-hidden="true" d="" display="none"/></g></g></g><path class="foreground" aria-hidden="true" d="" display="none"/></g><g transform="translate(462.85714285714283,516.967575469959)"><path class="background" aria-hidden="true" d="M6,0L96.85714285714286,0C100.16863300410687,0,102.85714285714286,2.688509853036,102.85714285714286,6L102.85714285714286,83.032424530041C102.85714285714286,83.032424530041,102.85714285714286,83.032424530041,102.85714285714286,83.032424530041L0,83.032424530041C0,83.032424530041,0,83.032424530041,0,83.032424530041L0,6C0,2.688509853036,2.688509853036,0,6,0Z"/><g clip-path="url(#clip5)"><g class="mark-group role-scope" role="graphics-object" aria-roledescription="group mark container"><g transform="translate(0,-516.967575469959)"><path class="background" aria-hidden="true" d="M0,0h102.85714285714286v0h-102.85714285714286Z"/><g><g class="mark-rect role-mark layer_0_marks" role="graphics-object" aria-roledescription="rect mark container"><path aria-label="Parser: toml&#xA;0.10.2; Execution Time (seconds, lower=better): 0.7632321; parser: toml; Execution Time (s): 0.7632; Slowdown: 28.22" role="graphics-symbol" aria-roledescription="bar" d="M0,516.967575469959h102.85714285714286v83.032424530041h-102.85714285714286Z" fill="#e7298a"/></g></g><path class="foreground" aria-hidden="true" d="" display="none"/></g></g></g><path class="foreground" aria-hidden="true" d="" display="none"/></g><g transform="translate(577.1428571428571,511.3372303899834)"><path class="background" aria-hidden="true" d="M6,0L96.85714285714286,0C100.16863300410687,0,102.85714285714286,2.688509853036,102.85714285714286,6L102.85714285714286,88.6627696100166C102.85714285714286,88.6627696100166,102.85714285714286,88.6627696100166,102.85714285714286,88.6627696100166L0,88.6627696100166C0,88.6627696100166,0,88.6627696100166,0,88.6627696100166L0,6C0,2.688509853036,2.688509853036,0,6,0Z"/><g clip-path="url(#clip6)"><g class="mark-group role-scope" role="graphics-object" aria-roledescription="group mark container"><g transform="translate(0,-511.3372303899834)"><path class="background" aria-hidden="true" d="M0,0h102.85714285714286v0h-102.85714285714286Z"/><g><g class="mark-rect role-mark layer_0_marks" role="graphics-object" aria-roledescription="rect mark container"><path aria-label="Parser: qtoml&#xA;0.3.1; Execution Time (seconds, lower=better): 0.8149861; parser: qtoml; Execution Time (s): 0.8150; Slowdown: 30.13" role="graphics-symbol" aria-roledescription="bar" d="M0,511.3372303899834h102.85714285714286v88.6627696100166h-102.85714285714286Z" fill="#d95f02"/></g></g><path class="foreground" aria-hidden="true" d="" display="none"/></g></g></g><path class="foreground" aria-hidden="true" d="" display="none"/></g><g transform="translate(691.4285714285714,23.076923076923062)"><path class="background" aria-hidden="true" d="M6,0L96.85714285714286,0C100.16863300410687,0,102.85714285714286,2.688509853036,102.85714285714286,6L102.85714285714286,576.9230769230769C102.85714285714286,576.9230769230769,102.85714285714286,576.9230769230769,102.85714285714286,576.9230769230769L0,576.9230769230769C0,576.9230769230769,0,576.9230769230769,0,576.9230769230769L0,6C0,2.688509853036,2.688509853036,0,6,0Z"/><g clip-path="url(#clip7)"><g class="mark-group role-scope" role="graphics-object" aria-roledescription="group mark container"><g transform="translate(0,-23.076923076923062)"><path class="background" aria-hidden="true" d="M0,0h102.85714285714286v0h-102.85714285714286Z"/><g><g class="mark-rect role-mark layer_0_marks" role="graphics-object" aria-roledescription="rect mark container"><path aria-label="Parser: tomlkit&#xA;0.15.0; Execution Time (seconds, lower=better): 5.3030634; parser: tomlkit; Execution Time (s): 5.3031; Slowdown: 196.08" role="graphics-symbol" aria-roledescription="bar" d="M0,23.076923076923062h102.85714285714286v576.9230769230769h-102.85714285714286Z" fill="#e6ab02"/></g></g><path class="foreground" aria-hidden="true" d="" display="none"/></g></g></g><path class="foreground" aria-hidden="true" d="" display="none"/></g></g><g class="mark-text role-mark layer_1_marks" role="graphics-object" aria-roledescription="text mark container"><text aria-label="Parser: toml_rs&#xA;0.3.14; Execution Time (seconds, lower=better): 0.0270456000001; parser: toml_rs; label: 0.0270s (x1.00); Execution Time (s): 0.0270; Slowdown: 1.00" role="graphics-symbol" aria-roledescription="text mark" text-anchor="middle" transform="translate(57.142857142857096,593.0576948468562)" font-family="sans-serif" font-size="9px" font-weight="bold" fill="#66a61e">0.0270s (x1.00)</text><text aria-label="Parser: rtoml&#xA;0.13.0; Execution Time (seconds, lower=better): 0.0741174000002; parser: rtoml; label: 0.0741s (x2.74); Execution Time (s): 0.0741; Slowdown: 2.74" role="graphics-symbol" aria-roledescription="text mark" text-anchor="middle" transform="translate(171.4285714285714,587.9367287855437)" font-family="sans-serif" font-size="9px" font-weight="bold" fill="#7570b3">0.0741s (x2.74)</text><text aria-label="Parser: pytomlpp&#xA;1.1.0; Execution Time (seconds, lower=better): 0.0840172999999; parser: pytomlpp; label: 0.0840s (x3.11); Execution Time (s): 0.0840; Slowdown: 3.11" role="graphics-symbol" aria-roledescription="text mark" text-anchor="middle" transform="translate(285.71428571428567,586.8597134194699)" font-family="sans-serif" font-size="9px" font-weight="bold" fill="#1b9e77">0.0840s (x3.11)</text><text aria-label="Parser: tomllib&#xA;built-in; Execution Time (seconds, lower=better): 0.3052845; parser: tomllib; label: 0.3053s (x11.29); Execution Time (s): 0.3053; Slowdown: 11.29" role="graphics-symbol" aria-roledescription="text mark" text-anchor="middle" transform="translate(400,562.7879375010097)" font-family="sans-serif" font-size="9px" font-weight="bold" fill="#a6761d">0.3053s (x11.29)</text><text aria-label="Parser: toml&#xA;0.10.2; Execution Time (seconds, lower=better): 0.7632321; parser: toml; label: 0.7632s (x28.22); Execution Time (s): 0.7632; Slowdown: 28.22" role="graphics-symbol" aria-roledescription="text mark" text-anchor="middle" transform="translate(514.2857142857142,512.967575469959)" font-family="sans-serif" font-size="9px" font-weight="bold" fill="#e7298a">0.7632s (x28.22)</text><text aria-label="Parser: qtoml&#xA;0.3.1; Execution Time (seconds, lower=better): 0.8149861; parser: qtoml; label: 0.8150s (x30.13); Execution Time (s): 0.8150; Slowdown: 30.13" role="graphics-symbol" aria-roledescription="text mark" text-anchor="middle" transform="translate(628.5714285714286,507.3372303899834)" font-family="sans-serif" font-size="9px" font-weight="bold" fill="#d95f02">0.8150s (x30.13)</text><text aria-label="Parser: tomlkit&#xA;0.15.0; Execution Time (seconds, lower=better): 5.3030634; parser: tomlkit; label: 5.3031s (x196.08); Execution Time (s): 5.3031; Slowdown: 196.08" role="graphics-symbol" aria-roledescription="text mark" text-anchor="middle" transform="translate(742.8571428571429,19.076923076923062)" font-family="sans-serif" font-size="9px" font-weight="bold" fill="#e6ab02">5.3031s (x196.08)</text></g><g class="mark-group role-title"><g transform="translate(400,-34.34791397684704)"><path class="background" aria-hidden="true" d="M0,0h0v0h0Z" pointer-events="none"/><g><g class="mark-text role-title-text" role="graphics-symbol" aria-roledescription="title" aria-label="Title text 'TOML parsers benchmark (loads)'" pointer-events="none"><text text-anchor="middle" transform="translate(0,10)" font-family="sans-serif" font-size="13px" font-weight="bold" fill="#000" opacity="1">TOML parsers benchmark (loads)</text></g><g class="mark-text role-title-subtitle" role="graphics-symbol" aria-roledescription="subtitle" aria-label="Subtitle text 'Python: 3.14.6 (Windows 2025Server) | CPU: AMD EPYC 9V74 80-Core Processor'" pointer-events="none"><text text-anchor="middle" transform="translate(0,25)" font-family="sans-serif" font-size="12px" fill="#000" opacity="1">Python: 3.14.6 (Windows 2025Server) | CPU: AMD EPYC 9V74 80-Core Processor</text></g></g><path class="foreground" aria-hidden="true" d="" pointer-events="none" display="none"/></g></g></g><path class="foreground" aria-hidden="true" d="" display="none"/></g></g></g><defs><clipPath id="clip1"><path d="M1.4711525765719102,0L101.38599028057095,0C102.19794149090404,0,102.85714285714286,0.6592013662388132,102.85714285714286,1.4711525765719102L102.85714285714286,2.9423051531438205C102.85714285714286,2.9423051531438205,102.85714285714286,2.9423051531438205,102.85714285714286,2.9423051531438205L0,2.9423051531438205C0,2.9423051531438205,0,2.9423051531438205,0,2.9423051531438205L0,1.4711525765719102C0,0.6592013662388132,0.6592013662388132,0,1.4711525765719102,0Z"/></clipPath><clipPath id="clip2"><path d="M4.031635607228168,0L98.8255072499147,0C101.0506275148289,0,102.85714285714286,1.806515342313951,102.85714285714286,4.031635607228168L102.85714285714286,8.063271214456336C102.85714285714286,8.063271214456336,102.85714285714286,8.063271214456336,102.85714285714286,8.063271214456336L0,8.063271214456336C0,8.063271214456336,0,8.063271214456336,0,8.063271214456336L0,4.031635607228168C0,1.806515342313951,1.806515342313951,0,4.031635607228168,0Z"/></clipPath><clipPath id="clip3"><path d="M4.570143290265037,0L98.28699956687782,0C100.80933031286554,0,102.85714285714286,2.047812544277319,102.85714285714286,4.570143290265037L102.85714285714286,9.140286580530073C102.85714285714286,9.140286580530073,102.85714285714286,9.140286580530073,102.85714285714286,9.140286580530073L0,9.140286580530073C0,9.140286580530073,0,9.140286580530073,0,9.140286580530073L0,4.570143290265037C0,2.047812544277319,2.047812544277319,0,4.570143290265037,0Z"/></clipPath><clipPath id="clip4"><path d="M6,0L96.85714285714286,0C100.16863300410687,0,102.85714285714286,2.688509853036,102.85714285714286,6L102.85714285714286,33.21206249899035C102.85714285714286,33.21206249899035,102.85714285714286,33.21206249899035,102.85714285714286,33.21206249899035L0,33.21206249899035C0,33.21206249899035,0,33.21206249899035,0,33.21206249899035L0,6C0,2.688509853036,2.688509853036,0,6,0Z"/></clipPath><clipPath id="clip5"><path d="M6,0L96.85714285714286,0C100.16863300410687,0,102.85714285714286,2.688509853036,102.85714285714286,6L102.85714285714286,83.032424530041C102.85714285714286,83.032424530041,102.85714285714286,83.032424530041,102.85714285714286,83.032424530041L0,83.032424530041C0,83.032424530041,0,83.032424530041,0,83.032424530041L0,6C0,2.688509853036,2.688509853036,0,6,0Z"/></clipPath><clipPath id="clip6"><path d="M6,0L96.85714285714286,0C100.16863300410687,0,102.85714285714286,2.688509853036,102.85714285714286,6L102.85714285714286,88.6627696100166C102.85714285714286,88.6627696100166,102.85714285714286,88.6627696100166,102.85714285714286,88.6627696100166L0,88.6627696100166C0,88.6627696100166,0,88.6627696100166,0,88.6627696100166L0,6C0,2.688509853036,2.688509853036,0,6,0Z"/></clipPath><clipPath id="clip7"><path d="M6,0L96.85714285714286,0C100.16863300410687,0,102.85714285714286,2.688509853036,102.85714285714286,6L102.85714285714286,576.9230769230769C102.85714285714286,576.9230769230769,102.85714285714286,576.9230769230769,102.85714285714286,576.9230769230769L0,576.9230769230769C0,576.9230769230769,0,576.9230769230769,0,576.9230769230769L0,6C0,2.688509853036,2.688509853036,0,6,0Z"/></clipPath></defs></svg>