<svg xmlns="http://www.w3.org/2000/svg" xmlns:xlink="http://www.w3.org/1999/xlink" version="1.1" class="marks" width="846" height="687" viewBox="0 0 846 687"><rect width="846" height="687" fill="white"/><g fill="none" stroke-miterlimit="10" transform="translate(41,36)"><g class="mark-group role-frame root" role="graphics-object" aria-roledescription="group mark container"><g transform="translate(0,0)"><path class="background" aria-hidden="true" d="M0.5,0.5h800v600h-800Z" stroke="#ddd"/><g><g class="mark-group role-axis" role="graphics-symbol" aria-roledescription="axis" aria-label="X-axis titled 'Implementation' for a discrete scale with 7 values: fastuuid7&#xA;0.2.0, uuid7_rs.compat&#xA;0.0.11, uuid_utils.compat&#xA;0.16.2, lastuuid&#xA;0.5.0, uuid&#xA;stdlib, uuid6&#xA;2025.0.1, uuid_v7&#xA;1.0.0"><g transform="translate(0.5,600.5)"><path class="background" aria-hidden="true" d="M0,0h0v0h0Z" pointer-events="none"/><g><g class="mark-rule role-axis-tick" pointer-events="none"><line transform="translate(57,0)" x2="0" y2="5" stroke="#888" stroke-width="1" opacity="1"/><line transform="translate(171,0)" x2="0" y2="5" stroke="#888" stroke-width="1" opacity="1"/><line transform="translate(285,0)" x2="0" y2="5" stroke="#888" stroke-width="1" opacity="1"/><line transform="translate(400,0)" x2="0" y2="5" stroke="#888" stroke-width="1" opacity="1"/><line transform="translate(514,0)" x2="0" y2="5" stroke="#888" stroke-width="1" opacity="1"/><line transform="translate(628,0)" x2="0" y2="5" stroke="#888" stroke-width="1" opacity="1"/><line transform="translate(742,0)" x2="0" y2="5" stroke="#888" stroke-width="1" opacity="1"/></g><g class="mark-text role-axis-label" pointer-events="none"><text text-anchor="middle" transform="translate(56.642857142857096,15)" font-family="sans-serif" font-size="10px" fill="#000" opacity="1"><tspan>fastuuid7</tspan><tspan x="0" dy="14">0.2.0</tspan></text><text text-anchor="middle" transform="translate(170.9285714285714,15)" font-family="sans-serif" font-size="10px" fill="#000" opacity="1"><tspan>uuid7_rs.compat</tspan><tspan x="0" dy="14">0.0.11</tspan></text><text text-anchor="middle" transform="translate(285.21428571428567,15)" font-family="sans-serif" font-size="10px" fill="#000" opacity="1"><tspan>uuid_utils.compat</tspan><tspan x="0" dy="14">0.16.2</tspan></text><text text-anchor="middle" transform="translate(399.5,15)" font-family="sans-serif" font-size="10px" fill="#000" opacity="1"><tspan>lastuuid</tspan><tspan x="0" dy="14">0.5.0</tspan></text><text text-anchor="middle" transform="translate(513.7857142857142,15)" font-family="sans-serif" font-size="10px" fill="#000" opacity="1"><tspan>uuid</tspan><tspan x="0" dy="14">stdlib</tspan></text><text text-anchor="middle" transform="translate(628.0714285714286,15)" font-family="sans-serif" font-size="10px" fill="#000" opacity="1"><tspan>uuid6</tspan><tspan x="0" dy="14">2025.0.1</tspan></text><text text-anchor="middle" transform="translate(742.3571428571429,15)" font-family="sans-serif" font-size="10px" fill="#000" opacity="1"><tspan>uuid_v7</tspan><tspan x="0" dy="14">1.0.0</tspan></text></g><g class="mark-rule role-axis-domain" pointer-events="none"><line transform="translate(0,0)" x2="800" y2="0" stroke="#888" stroke-width="1" opacity="1"/></g><g class="mark-text role-axis-title" pointer-events="none"><text text-anchor="middle" transform="translate(400,44)" font-family="sans-serif" font-size="11px" font-weight="bold" fill="#000" opacity="1">Implementation</text></g></g><path class="foreground" aria-hidden="true" d="" pointer-events="none" display="none"/></g></g><g class="mark-group role-axis" role="graphics-symbol" aria-roledescription="axis" aria-label="Y-axis titled 'Execution Time (seconds, lower=better)' for a linear scale with values from 0.0 to 2.3"><g transform="translate(0.5,0.5)"><path class="background" aria-hidden="true" d="M0,0h0v0h0Z" pointer-events="none"/><g><g class="mark-rule role-axis-tick" pointer-events="none"><line transform="translate(0,600)" x2="-5" y2="0" stroke="#888" stroke-width="1" opacity="1"/><line transform="translate(0,547)" x2="-5" y2="0" stroke="#888" stroke-width="1" opacity="1"/><line transform="translate(0,494)" x2="-5" y2="0" stroke="#888" stroke-width="1" opacity="1"/><line transform="translate(0,442)" x2="-5" y2="0" stroke="#888" stroke-width="1" opacity="1"/><line transform="translate(0,389)" x2="-5" y2="0" stroke="#888" stroke-width="1" opacity="1"/><line transform="translate(0,336)" x2="-5" y2="0" stroke="#888" stroke-width="1" opacity="1"/><line transform="translate(0,283)" x2="-5" y2="0" stroke="#888" stroke-width="1" opacity="1"/><line transform="translate(0,230)" x2="-5" y2="0" stroke="#888" stroke-width="1" opacity="1"/><line transform="translate(0,177)" x2="-5" y2="0" stroke="#888" stroke-width="1" opacity="1"/><line transform="translate(0,125)" x2="-5" y2="0" stroke="#888" stroke-width="1" opacity="1"/><line transform="translate(0,72)" x2="-5" y2="0" stroke="#888" stroke-width="1" opacity="1"/><line transform="translate(0,19)" x2="-5" y2="0" stroke="#888" stroke-width="1" opacity="1"/></g><g class="mark-text role-axis-label" pointer-events="none"><text text-anchor="end" transform="translate(-7,603)" font-family="sans-serif" font-size="10px" fill="#000" opacity="1">0.0</text><text text-anchor="end" transform="translate(-7,550.1730567402263)" font-family="sans-serif" font-size="10px" fill="#000" opacity="1">0.2</text><text text-anchor="end" transform="translate(-7,497.3461134804525)" font-family="sans-serif" font-size="10px" fill="#000" opacity="1">0.4</text><text text-anchor="end" transform="translate(-7,444.5191702206788)" font-family="sans-serif" font-size="10px" fill="#000" opacity="1">0.6</text><text text-anchor="end" transform="translate(-7,391.69222696090503)" font-family="sans-serif" font-size="10px" fill="#000" opacity="1">0.8</text><text text-anchor="end" transform="translate(-7,338.8652837011313)" font-family="sans-serif" font-size="10px" fill="#000" opacity="1">1.0</text><text text-anchor="end" transform="translate(-7,286.0383404413576)" font-family="sans-serif" font-size="10px" fill="#000" opacity="1">1.2</text><text text-anchor="end" transform="translate(-7,233.21139718158392)" font-family="sans-serif" font-size="10px" fill="#000" opacity="1">1.4</text><text text-anchor="end" transform="translate(-7,180.38445392181015)" font-family="sans-serif" font-size="10px" fill="#000" opacity="1">1.6</text><text text-anchor="end" transform="translate(-7,127.55751066203644)" font-family="sans-serif" font-size="10px" fill="#000" opacity="1">1.8</text><text text-anchor="end" transform="translate(-7,74.73056740226274)" font-family="sans-serif" font-size="10px" fill="#000" opacity="1">2.0</text><text text-anchor="end" transform="translate(-7,21.90362414248896)" font-family="sans-serif" font-size="10px" fill="#000" opacity="1">2.2</text></g><g class="mark-rule role-axis-domain" pointer-events="none"><line transform="translate(0,600)" x2="0" y2="-600" stroke="#888" stroke-width="1" opacity="1"/></g><g class="mark-text role-axis-title" pointer-events="none"><text text-anchor="middle" transform="translate(-24.9013671875,300) rotate(-90) translate(0,-2)" font-family="sans-serif" font-size="11px" font-weight="bold" fill="#000" opacity="1">Execution Time (seconds, lower=better)</text></g></g><path class="foreground" aria-hidden="true" d="" pointer-events="none" display="none"/></g></g><g class="mark-group role-scope" role="graphics-object" aria-roledescription="group mark container"><g transform="translate(5.714285714285666,532.0599772111849)"><path class="background" aria-hidden="true" d="M6,0L96.85714285714286,0C100.16863300410687,0,102.85714285714286,2.688509853036,102.85714285714286,6L102.85714285714286,67.9400227888151C102.85714285714286,67.9400227888151,102.85714285714286,67.9400227888151,102.85714285714286,67.9400227888151L0,67.9400227888151C0,67.9400227888151,0,67.9400227888151,0,67.9400227888151L0,6C0,2.688509853036,2.688509853036,0,6,0Z"/><g clip-path="url(#clip10)"><g class="mark-group role-scope" role="graphics-object" aria-roledescription="group mark container"><g transform="translate(0,-532.0599772111849)"><path class="background" aria-hidden="true" d="M0,0h102.85714285714286v0h-102.85714285714286Z"/><g><g class="mark-rect role-mark layer_0_marks" role="graphics-object" aria-roledescription="rect mark container"><path aria-label="Implementation: fastuuid7&#xA;0.2.0; Execution Time (seconds, lower=better): 0.257217316; implementation: fastuuid7; Execution Time (s): 0.2572; Slowdown: 1.00" role="graphics-symbol" aria-roledescription="bar" d="M0,532.0599772111849h102.85714285714286v67.9400227888151h-102.85714285714286Z" fill="#1b9e77"/></g></g><path class="foreground" aria-hidden="true" d="" display="none"/></g></g></g><path class="foreground" aria-hidden="true" d="" display="none"/></g><g transform="translate(119.99999999999996,523.3367459524599)"><path class="background" aria-hidden="true" d="M6,0L96.85714285714286,0C100.16863300410687,0,102.85714285714286,2.688509853036,102.85714285714286,6L102.85714285714286,76.66325404754014C102.85714285714286,76.66325404754014,102.85714285714286,76.66325404754014,102.85714285714286,76.66325404754014L0,76.66325404754014C0,76.66325404754014,0,76.66325404754014,0,76.66325404754014L0,6C0,2.688509853036,2.688509853036,0,6,0Z"/><g clip-path="url(#clip11)"><g class="mark-group role-scope" role="graphics-object" aria-roledescription="group mark container"><g transform="translate(0,-523.3367459524599)"><path class="background" aria-hidden="true" d="M0,0h102.85714285714286v0h-102.85714285714286Z"/><g><g class="mark-rect role-mark layer_0_marks" role="graphics-object" aria-roledescription="rect mark container"><path aria-label="Implementation: uuid7_rs.compat&#xA;0.0.11; Execution Time (seconds, lower=better): 0.290243006; implementation: uuid7_rs.compat; Execution Time (s): 0.2902; Slowdown: 1.13" role="graphics-symbol" aria-roledescription="bar" d="M0,523.3367459524599h102.85714285714286v76.66325404754014h-102.85714285714286Z" fill="#66a61e"/></g></g><path class="foreground" aria-hidden="true" d="" display="none"/></g></g></g><path class="foreground" aria-hidden="true" d="" display="none"/></g><g transform="translate(234.28571428571425,513.3217387708756)"><path class="background" aria-hidden="true" d="M6,0L96.85714285714286,0C100.16863300410687,0,102.85714285714286,2.688509853036,102.85714285714286,6L102.85714285714286,86.67826122912436C102.85714285714286,86.67826122912436,102.85714285714286,86.67826122912436,102.85714285714286,86.67826122912436L0,86.67826122912436C0,86.67826122912436,0,86.67826122912436,0,86.67826122912436L0,6C0,2.688509853036,2.688509853036,0,6,0Z"/><g clip-path="url(#clip12)"><g class="mark-group role-scope" role="graphics-object" aria-roledescription="group mark container"><g transform="translate(0,-513.3217387708756)"><path class="background" aria-hidden="true" d="M0,0h102.85714285714286v0h-102.85714285714286Z"/><g><g class="mark-rect role-mark layer_0_marks" role="graphics-object" aria-roledescription="rect mark container"><path aria-label="Implementation: uuid_utils.compat&#xA;0.16.2; Execution Time (seconds, lower=better): 0.328159291; implementation: uuid_utils.compat; Execution Time (s): 0.3282; Slowdown: 1.28" role="graphics-symbol" aria-roledescription="bar" d="M0,513.3217387708756h102.85714285714286v86.67826122912436h-102.85714285714286Z" fill="#e6ab02"/></g></g><path class="foreground" aria-hidden="true" d="" display="none"/></g></g></g><path class="foreground" aria-hidden="true" d="" display="none"/></g><g transform="translate(348.57142857142856,303.70593269157433)"><path class="background" aria-hidden="true" d="M6,0L96.85714285714286,0C100.16863300410687,0,102.85714285714286,2.688509853036,102.85714285714286,6L102.85714285714286,296.29406730842567C102.85714285714286,296.29406730842567,102.85714285714286,296.29406730842567,102.85714285714286,296.29406730842567L0,296.29406730842567C0,296.29406730842567,0,296.29406730842567,0,296.29406730842567L0,6C0,2.688509853036,2.688509853036,0,6,0Z"/><g clip-path="url(#clip13)"><g class="mark-group role-scope" role="graphics-object" aria-roledescription="group mark container"><g transform="translate(0,-303.70593269157433)"><path class="background" aria-hidden="true" d="M0,0h102.85714285714286v0h-102.85714285714286Z"/><g><g class="mark-rect role-mark layer_0_marks" role="graphics-object" aria-roledescription="rect mark container"><path aria-label="Implementation: lastuuid&#xA;0.5.0; Execution Time (seconds, lower=better): 1.121753594; implementation: lastuuid; Execution Time (s): 1.1218; Slowdown: 4.36" role="graphics-symbol" aria-roledescription="bar" d="M0,303.70593269157433h102.85714285714286v296.29406730842567h-102.85714285714286Z" fill="#d95f02"/></g></g><path class="foreground" aria-hidden="true" d="" display="none"/></g></g></g><path class="foreground" aria-hidden="true" d="" display="none"/></g><g transform="translate(462.85714285714283,276.07202185060254)"><path class="background" aria-hidden="true" d="M6,0L96.85714285714286,0C100.16863300410687,0,102.85714285714286,2.688509853036,102.85714285714286,6L102.85714285714286,323.92797814939746C102.85714285714286,323.92797814939746,102.85714285714286,323.92797814939746,102.85714285714286,323.92797814939746L0,323.92797814939746C0,323.92797814939746,0,323.92797814939746,0,323.92797814939746L0,6C0,2.688509853036,2.688509853036,0,6,0Z"/><g clip-path="url(#clip14)"><g class="mark-group role-scope" role="graphics-object" aria-roledescription="group mark container"><g transform="translate(0,-276.07202185060254)"><path class="background" aria-hidden="true" d="M0,0h102.85714285714286v0h-102.85714285714286Z"/><g><g class="mark-rect role-mark layer_0_marks" role="graphics-object" aria-roledescription="rect mark container"><path aria-label="Implementation: uuid&#xA;stdlib; Execution Time (seconds, lower=better): 1.226374112; implementation: uuid; Execution Time (s): 1.2264; Slowdown: 4.77" role="graphics-symbol" aria-roledescription="bar" d="M0,276.07202185060254h102.85714285714286v323.92797814939746h-102.85714285714286Z" fill="#7570b3"/></g></g><path class="foreground" aria-hidden="true" d="" display="none"/></g></g></g><path class="foreground" aria-hidden="true" d="" display="none"/></g><g transform="translate(577.1428571428571,178.27076826360582)"><path class="background" aria-hidden="true" d="M6,0L96.85714285714286,0C100.16863300410687,0,102.85714285714286,2.688509853036,102.85714285714286,6L102.85714285714286,421.7292317363942C102.85714285714286,421.7292317363942,102.85714285714286,421.7292317363942,102.85714285714286,421.7292317363942L0,421.7292317363942C0,421.7292317363942,0,421.7292317363942,0,421.7292317363942L0,6C0,2.688509853036,2.688509853036,0,6,0Z"/><g clip-path="url(#clip15)"><g class="mark-group role-scope" role="graphics-object" aria-roledescription="group mark container"><g transform="translate(0,-178.27076826360582)"><path class="background" aria-hidden="true" d="M0,0h102.85714285714286v0h-102.85714285714286Z"/><g><g class="mark-rect role-mark layer_0_marks" role="graphics-object" aria-roledescription="rect mark container"><path aria-label="Implementation: uuid6&#xA;2025.0.1; Execution Time (seconds, lower=better): 1.596644461; implementation: uuid6; Execution Time (s): 1.5966; Slowdown: 6.21" role="graphics-symbol" aria-roledescription="bar" d="M0,178.27076826360582h102.85714285714286v421.7292317363942h-102.85714285714286Z" fill="#e7298a"/></g></g><path class="foreground" aria-hidden="true" d="" display="none"/></g></g></g><path class="foreground" aria-hidden="true" d="" display="none"/></g><g transform="translate(691.4285714285714,23.07692307692313)"><path class="background" aria-hidden="true" d="M6,0L96.85714285714286,0C100.16863300410687,0,102.85714285714286,2.688509853036,102.85714285714286,6L102.85714285714286,576.9230769230769C102.85714285714286,576.9230769230769,102.85714285714286,576.9230769230769,102.85714285714286,576.9230769230769L0,576.9230769230769C0,576.9230769230769,0,576.9230769230769,0,576.9230769230769L0,6C0,2.688509853036,2.688509853036,0,6,0Z"/><g clip-path="url(#clip16)"><g class="mark-group role-scope" role="graphics-object" aria-roledescription="group mark container"><g transform="translate(0,-23.07692307692313)"><path class="background" aria-hidden="true" d="M0,0h102.85714285714286v0h-102.85714285714286Z"/><g><g class="mark-rect role-mark layer_0_marks" role="graphics-object" aria-roledescription="rect mark container"><path aria-label="Implementation: uuid_v7&#xA;1.0.0; Execution Time (seconds, lower=better): 2.184200112; implementation: uuid_v7; Execution Time (s): 2.1842; Slowdown: 8.49" role="graphics-symbol" aria-roledescription="bar" d="M0,23.07692307692313h102.85714285714286v576.9230769230769h-102.85714285714286Z" fill="#a6761d"/></g></g><path class="foreground" aria-hidden="true" d="" display="none"/></g></g></g><path class="foreground" aria-hidden="true" d="" display="none"/></g></g><g class="mark-text role-mark layer_1_marks" role="graphics-object" aria-roledescription="text mark container"><text aria-label="Implementation: fastuuid7&#xA;0.2.0; Execution Time (seconds, lower=better): 0.257217316; implementation: fastuuid7; label: 0.2572s (x1.00); Execution Time (s): 0.2572; Slowdown: 1.00" role="graphics-symbol" aria-roledescription="text mark" text-anchor="middle" transform="translate(57.142857142857096,528.0599772111849)" font-family="sans-serif" font-size="9px" font-weight="bold" fill="#1b9e77">0.2572s (x1.00)</text><text aria-label="Implementation: uuid7_rs.compat&#xA;0.0.11; Execution Time (seconds, lower=better): 0.290243006; implementation: uuid7_rs.compat; label: 0.2902s (x1.13); Execution Time (s): 0.2902; Slowdown: 1.13" role="graphics-symbol" aria-roledescription="text mark" text-anchor="middle" transform="translate(171.4285714285714,519.3367459524599)" font-family="sans-serif" font-size="9px" font-weight="bold" fill="#66a61e">0.2902s (x1.13)</text><text aria-label="Implementation: uuid_utils.compat&#xA;0.16.2; Execution Time (seconds, lower=better): 0.328159291; implementation: uuid_utils.compat; label: 0.3282s (x1.28); Execution Time (s): 0.3282; Slowdown: 1.28" role="graphics-symbol" aria-roledescription="text mark" text-anchor="middle" transform="translate(285.71428571428567,509.32173877087564)" font-family="sans-serif" font-size="9px" font-weight="bold" fill="#e6ab02">0.3282s (x1.28)</text><text aria-label="Implementation: lastuuid&#xA;0.5.0; Execution Time (seconds, lower=better): 1.121753594; implementation: lastuuid; label: 1.1218s (x4.36); Execution Time (s): 1.1218; Slowdown: 4.36" role="graphics-symbol" aria-roledescription="text mark" text-anchor="middle" transform="translate(400,299.70593269157433)" font-family="sans-serif" font-size="9px" font-weight="bold" fill="#d95f02">1.1218s (x4.36)</text><text aria-label="Implementation: uuid&#xA;stdlib; Execution Time (seconds, lower=better): 1.226374112; implementation: uuid; label: 1.2264s (x4.77); Execution Time (s): 1.2264; Slowdown: 4.77" role="graphics-symbol" aria-roledescription="text mark" text-anchor="middle" transform="translate(514.2857142857142,272.07202185060254)" font-family="sans-serif" font-size="9px" font-weight="bold" fill="#7570b3">1.2264s (x4.77)</text><text aria-label="Implementation: uuid6&#xA;2025.0.1; Execution Time (seconds, lower=better): 1.596644461; implementation: uuid6; label: 1.5966s (x6.21); Execution Time (s): 1.5966; Slowdown: 6.21" role="graphics-symbol" aria-roledescription="text mark" text-anchor="middle" transform="translate(628.5714285714286,174.27076826360582)" font-family="sans-serif" font-size="9px" font-weight="bold" fill="#e7298a">1.5966s (x6.21)</text><text aria-label="Implementation: uuid_v7&#xA;1.0.0; Execution Time (seconds, lower=better): 2.184200112; implementation: uuid_v7; label: 2.1842s (x8.49); Execution Time (s): 2.1842; Slowdown: 8.49" role="graphics-symbol" aria-roledescription="text mark" text-anchor="middle" transform="translate(742.8571428571429,19.07692307692313)" font-family="sans-serif" font-size="9px" font-weight="bold" fill="#a6761d">2.1842s (x8.49)</text></g><g class="mark-group role-title"><g transform="translate(400,-31)"><path class="background" aria-hidden="true" d="M0,0h0v0h0Z" pointer-events="none"/><g><g class="mark-text role-title-text" role="graphics-symbol" aria-roledescription="title" aria-label="Title text 'UUID v7 benchmark (uuid7() stdlib-compatible APIs)'" pointer-events="none"><text text-anchor="middle" transform="translate(0,10)" font-family="sans-serif" font-size="13px" font-weight="bold" fill="#000" opacity="1">UUID v7 benchmark (uuid7() stdlib-compatible APIs)</text></g><g class="mark-text role-title-subtitle" role="graphics-symbol" aria-roledescription="subtitle" aria-label="Subtitle text 'Python: 3.14.6 (Linux 6.17.0-1018-azure) | CPU: AMD EPYC 7763 64-Core Processor'" pointer-events="none"><text text-anchor="middle" transform="translate(0,25)" font-family="sans-serif" font-size="12px" fill="#000" opacity="1">Python: 3.14.6 (Linux 6.17.0-1018-azure) | CPU: AMD EPYC 7763 64-Core Processor</text></g></g><path class="foreground" aria-hidden="true" d="" pointer-events="none" display="none"/></g></g></g><path class="foreground" aria-hidden="true" d="" display="none"/></g></g></g><defs><clipPath id="clip10"><path d="M6,0L96.85714285714286,0C100.16863300410687,0,102.85714285714286,2.688509853036,102.85714285714286,6L102.85714285714286,67.9400227888151C102.85714285714286,67.9400227888151,102.85714285714286,67.9400227888151,102.85714285714286,67.9400227888151L0,67.9400227888151C0,67.9400227888151,0,67.9400227888151,0,67.9400227888151L0,6C0,2.688509853036,2.688509853036,0,6,0Z"/></clipPath><clipPath id="clip11"><path d="M6,0L96.85714285714286,0C100.16863300410687,0,102.85714285714286,2.688509853036,102.85714285714286,6L102.85714285714286,76.66325404754014C102.85714285714286,76.66325404754014,102.85714285714286,76.66325404754014,102.85714285714286,76.66325404754014L0,76.66325404754014C0,76.66325404754014,0,76.66325404754014,0,76.66325404754014L0,6C0,2.688509853036,2.688509853036,0,6,0Z"/></clipPath><clipPath id="clip12"><path d="M6,0L96.85714285714286,0C100.16863300410687,0,102.85714285714286,2.688509853036,102.85714285714286,6L102.85714285714286,86.67826122912436C102.85714285714286,86.67826122912436,102.85714285714286,86.67826122912436,102.85714285714286,86.67826122912436L0,86.67826122912436C0,86.67826122912436,0,86.67826122912436,0,86.67826122912436L0,6C0,2.688509853036,2.688509853036,0,6,0Z"/></clipPath><clipPath id="clip13"><path d="M6,0L96.85714285714286,0C100.16863300410687,0,102.85714285714286,2.688509853036,102.85714285714286,6L102.85714285714286,296.29406730842567C102.85714285714286,296.29406730842567,102.85714285714286,296.29406730842567,102.85714285714286,296.29406730842567L0,296.29406730842567C0,296.29406730842567,0,296.29406730842567,0,296.29406730842567L0,6C0,2.688509853036,2.688509853036,0,6,0Z"/></clipPath><clipPath id="clip14"><path d="M6,0L96.85714285714286,0C100.16863300410687,0,102.85714285714286,2.688509853036,102.85714285714286,6L102.85714285714286,323.92797814939746C102.85714285714286,323.92797814939746,102.85714285714286,323.92797814939746,102.85714285714286,323.92797814939746L0,323.92797814939746C0,323.92797814939746,0,323.92797814939746,0,323.92797814939746L0,6C0,2.688509853036,2.688509853036,0,6,0Z"/></clipPath><clipPath id="clip15"><path d="M6,0L96.85714285714286,0C100.16863300410687,0,102.85714285714286,2.688509853036,102.85714285714286,6L102.85714285714286,421.7292317363942C102.85714285714286,421.7292317363942,102.85714285714286,421.7292317363942,102.85714285714286,421.7292317363942L0,421.7292317363942C0,421.7292317363942,0,421.7292317363942,0,421.7292317363942L0,6C0,2.688509853036,2.688509853036,0,6,0Z"/></clipPath><clipPath id="clip16"><path d="M6,0L96.85714285714286,0C100.16863300410687,0,102.85714285714286,2.688509853036,102.85714285714286,6L102.85714285714286,576.9230769230769C102.85714285714286,576.9230769230769,102.85714285714286,576.9230769230769,102.85714285714286,576.9230769230769L0,576.9230769230769C0,576.9230769230769,0,576.9230769230769,0,576.9230769230769L0,6C0,2.688509853036,2.688509853036,0,6,0Z"/></clipPath></defs></svg>