<svg xmlns="http://www.w3.org/2000/svg" xmlns:xlink="http://www.w3.org/1999/xlink" version="1.1" class="marks" width="846" height="687" viewBox="0 0 846 687"><rect width="846" height="687" fill="white"/><g fill="none" stroke-miterlimit="10" transform="translate(41,36)"><g class="mark-group role-frame root" role="graphics-object" aria-roledescription="group mark container"><g transform="translate(0,0)"><path class="background" aria-hidden="true" d="M0.5,0.5h800v600h-800Z" stroke="#ddd"/><g><g class="mark-group role-axis" role="graphics-symbol" aria-roledescription="axis" aria-label="X-axis titled 'Implementation' for a discrete scale with 7 values: uuid7_rs.compat&#xA;0.0.11, uuid_utils.compat&#xA;0.17.0, fastuuid7&#xA;0.3.0, lastuuid&#xA;0.5.0, uuid&#xA;stdlib, uuid6&#xA;2025.0.1, uuid_v7&#xA;1.0.0"><g transform="translate(0.5,600.5)"><path class="background" aria-hidden="true" d="M0,0h0v0h0Z" pointer-events="none"/><g><g class="mark-rule role-axis-tick" pointer-events="none"><line transform="translate(57,0)" x2="0" y2="5" stroke="#888" stroke-width="1" opacity="1"/><line transform="translate(171,0)" x2="0" y2="5" stroke="#888" stroke-width="1" opacity="1"/><line transform="translate(285,0)" x2="0" y2="5" stroke="#888" stroke-width="1" opacity="1"/><line transform="translate(400,0)" x2="0" y2="5" stroke="#888" stroke-width="1" opacity="1"/><line transform="translate(514,0)" x2="0" y2="5" stroke="#888" stroke-width="1" opacity="1"/><line transform="translate(628,0)" x2="0" y2="5" stroke="#888" stroke-width="1" opacity="1"/><line transform="translate(742,0)" x2="0" y2="5" stroke="#888" stroke-width="1" opacity="1"/></g><g class="mark-text role-axis-label" pointer-events="none"><text text-anchor="middle" transform="translate(56.642857142857096,15)" font-family="sans-serif" font-size="10px" fill="#000" opacity="1"><tspan>uuid7_rs.compat</tspan><tspan x="0" dy="14">0.0.11</tspan></text><text text-anchor="middle" transform="translate(170.9285714285714,15)" font-family="sans-serif" font-size="10px" fill="#000" opacity="1"><tspan>uuid_utils.compat</tspan><tspan x="0" dy="14">0.17.0</tspan></text><text text-anchor="middle" transform="translate(285.21428571428567,15)" font-family="sans-serif" font-size="10px" fill="#000" opacity="1"><tspan>fastuuid7</tspan><tspan x="0" dy="14">0.3.0</tspan></text><text text-anchor="middle" transform="translate(399.5,15)" font-family="sans-serif" font-size="10px" fill="#000" opacity="1"><tspan>lastuuid</tspan><tspan x="0" dy="14">0.5.0</tspan></text><text text-anchor="middle" transform="translate(513.7857142857142,15)" font-family="sans-serif" font-size="10px" fill="#000" opacity="1"><tspan>uuid</tspan><tspan x="0" dy="14">stdlib</tspan></text><text text-anchor="middle" transform="translate(628.0714285714286,15)" font-family="sans-serif" font-size="10px" fill="#000" opacity="1"><tspan>uuid6</tspan><tspan x="0" dy="14">2025.0.1</tspan></text><text text-anchor="middle" transform="translate(742.3571428571429,15)" font-family="sans-serif" font-size="10px" fill="#000" opacity="1"><tspan>uuid_v7</tspan><tspan x="0" dy="14">1.0.0</tspan></text></g><g class="mark-rule role-axis-domain" pointer-events="none"><line transform="translate(0,0)" x2="800" y2="0" stroke="#888" stroke-width="1" opacity="1"/></g><g class="mark-text role-axis-title" pointer-events="none"><text text-anchor="middle" transform="translate(400,44)" font-family="sans-serif" font-size="11px" font-weight="bold" fill="#000" opacity="1">Implementation</text></g></g><path class="foreground" aria-hidden="true" d="" pointer-events="none" display="none"/></g></g><g class="mark-group role-axis" role="graphics-symbol" aria-roledescription="axis" aria-label="Y-axis titled 'Execution Time (seconds, lower=better)' for a linear scale with values from 0.0 to 2.3"><g transform="translate(0.5,0.5)"><path class="background" aria-hidden="true" d="M0,0h0v0h0Z" pointer-events="none"/><g><g class="mark-rule role-axis-tick" pointer-events="none"><line transform="translate(0,600)" x2="-5" y2="0" stroke="#888" stroke-width="1" opacity="1"/><line transform="translate(0,549)" x2="-5" y2="0" stroke="#888" stroke-width="1" opacity="1"/><line transform="translate(0,498)" x2="-5" y2="0" stroke="#888" stroke-width="1" opacity="1"/><line transform="translate(0,447)" x2="-5" y2="0" stroke="#888" stroke-width="1" opacity="1"/><line transform="translate(0,396)" x2="-5" y2="0" stroke="#888" stroke-width="1" opacity="1"/><line transform="translate(0,345)" x2="-5" y2="0" stroke="#888" stroke-width="1" opacity="1"/><line transform="translate(0,294)" x2="-5" y2="0" stroke="#888" stroke-width="1" opacity="1"/><line transform="translate(0,242)" x2="-5" y2="0" stroke="#888" stroke-width="1" opacity="1"/><line transform="translate(0,191)" x2="-5" y2="0" stroke="#888" stroke-width="1" opacity="1"/><line transform="translate(0,140)" x2="-5" y2="0" stroke="#888" stroke-width="1" opacity="1"/><line transform="translate(0,89)" x2="-5" y2="0" stroke="#888" stroke-width="1" opacity="1"/><line transform="translate(0,38)" x2="-5" y2="0" stroke="#888" stroke-width="1" opacity="1"/></g><g class="mark-text role-axis-label" pointer-events="none"><text text-anchor="end" transform="translate(-7,603)" font-family="sans-serif" font-size="10px" fill="#000" opacity="1">0.0</text><text text-anchor="end" transform="translate(-7,551.9175742517064)" font-family="sans-serif" font-size="10px" fill="#000" opacity="1">0.2</text><text text-anchor="end" transform="translate(-7,500.8351485034129)" font-family="sans-serif" font-size="10px" fill="#000" opacity="1">0.4</text><text text-anchor="end" transform="translate(-7,449.75272275511924)" font-family="sans-serif" font-size="10px" fill="#000" opacity="1">0.6</text><text text-anchor="end" transform="translate(-7,398.6702970068257)" font-family="sans-serif" font-size="10px" fill="#000" opacity="1">0.8</text><text text-anchor="end" transform="translate(-7,347.5878712585322)" font-family="sans-serif" font-size="10px" fill="#000" opacity="1">1.0</text><text text-anchor="end" transform="translate(-7,296.5054455102386)" font-family="sans-serif" font-size="10px" fill="#000" opacity="1">1.2</text><text text-anchor="end" transform="translate(-7,245.42301976194506)" font-family="sans-serif" font-size="10px" fill="#000" opacity="1">1.4</text><text text-anchor="end" transform="translate(-7,194.34059401365138)" font-family="sans-serif" font-size="10px" fill="#000" opacity="1">1.6</text><text text-anchor="end" transform="translate(-7,143.25816826535785)" font-family="sans-serif" font-size="10px" fill="#000" opacity="1">1.8</text><text text-anchor="end" transform="translate(-7,92.17574251706431)" font-family="sans-serif" font-size="10px" fill="#000" opacity="1">2.0</text><text text-anchor="end" transform="translate(-7,41.093316768770634)" font-family="sans-serif" font-size="10px" fill="#000" opacity="1">2.2</text></g><g class="mark-rule role-axis-domain" pointer-events="none"><line transform="translate(0,600)" x2="0" y2="-600" stroke="#888" stroke-width="1" opacity="1"/></g><g class="mark-text role-axis-title" pointer-events="none"><text text-anchor="middle" transform="translate(-24.9013671875,300) rotate(-90) translate(0,-2)" font-family="sans-serif" font-size="11px" font-weight="bold" fill="#000" opacity="1">Execution Time (seconds, lower=better)</text></g></g><path class="foreground" aria-hidden="true" d="" pointer-events="none" display="none"/></g></g><g class="mark-group role-scope" role="graphics-object" aria-roledescription="group mark container"><g transform="translate(5.714285714285666,523.7422734772069)"><path class="background" aria-hidden="true" d="M6,0L96.85714285714286,0C100.16863300410687,0,102.85714285714286,2.688509853036,102.85714285714286,6L102.85714285714286,76.25772652279306C102.85714285714286,76.25772652279306,102.85714285714286,76.25772652279306,102.85714285714286,76.25772652279306L0,76.25772652279306C0,76.25772652279306,0,76.25772652279306,0,76.25772652279306L0,6C0,2.688509853036,2.688509853036,0,6,0Z"/><g clip-path="url(#clip10)"><g class="mark-group role-scope" role="graphics-object" aria-roledescription="group mark container"><g transform="translate(0,-523.7422734772069)"><path class="background" aria-hidden="true" d="M0,0h102.85714285714286v0h-102.85714285714286Z"/><g><g class="mark-rect role-mark layer_0_marks" role="graphics-object" aria-roledescription="rect mark container"><path aria-label="Implementation: uuid7_rs.compat&#xA;0.0.11; Execution Time (seconds, lower=better): 0.298567366; implementation: uuid7_rs.compat; Execution Time (s): 0.2986; Slowdown: 1.00" role="graphics-symbol" aria-roledescription="bar" d="M0,523.7422734772069h102.85714285714286v76.25772652279306h-102.85714285714286Z" fill="#66a61e"/></g></g><path class="foreground" aria-hidden="true" d="" display="none"/></g></g></g><path class="foreground" aria-hidden="true" d="" display="none"/></g><g transform="translate(119.99999999999996,513.0129708338125)"><path class="background" aria-hidden="true" d="M6,0L96.85714285714286,0C100.16863300410687,0,102.85714285714286,2.688509853036,102.85714285714286,6L102.85714285714286,86.98702916618754C102.85714285714286,86.98702916618754,102.85714285714286,86.98702916618754,102.85714285714286,86.98702916618754L0,86.98702916618754C0,86.98702916618754,0,86.98702916618754,0,86.98702916618754L0,6C0,2.688509853036,2.688509853036,0,6,0Z"/><g clip-path="url(#clip11)"><g class="mark-group role-scope" role="graphics-object" aria-roledescription="group mark container"><g transform="translate(0,-513.0129708338125)"><path class="background" aria-hidden="true" d="M0,0h102.85714285714286v0h-102.85714285714286Z"/><g><g class="mark-rect role-mark layer_0_marks" role="graphics-object" aria-roledescription="rect mark container"><path aria-label="Implementation: uuid_utils.compat&#xA;0.17.0; Execution Time (seconds, lower=better): 0.34057517; implementation: uuid_utils.compat; Execution Time (s): 0.3406; Slowdown: 1.14" role="graphics-symbol" aria-roledescription="bar" d="M0,513.0129708338125h102.85714285714286v86.98702916618754h-102.85714285714286Z" fill="#e6ab02"/></g></g><path class="foreground" aria-hidden="true" d="" display="none"/></g></g></g><path class="foreground" aria-hidden="true" d="" display="none"/></g><g transform="translate(234.28571428571425,487.56499411396675)"><path class="background" aria-hidden="true" d="M6,0L96.85714285714286,0C100.16863300410687,0,102.85714285714286,2.688509853036,102.85714285714286,6L102.85714285714286,112.43500588603325C102.85714285714286,112.43500588603325,102.85714285714286,112.43500588603325,102.85714285714286,112.43500588603325L0,112.43500588603325C0,112.43500588603325,0,112.43500588603325,0,112.43500588603325L0,6C0,2.688509853036,2.688509853036,0,6,0Z"/><g clip-path="url(#clip12)"><g class="mark-group role-scope" role="graphics-object" aria-roledescription="group mark container"><g transform="translate(0,-487.56499411396675)"><path class="background" aria-hidden="true" d="M0,0h102.85714285714286v0h-102.85714285714286Z"/><g><g class="mark-rect role-mark layer_0_marks" role="graphics-object" aria-roledescription="rect mark container"><path aria-label="Implementation: fastuuid7&#xA;0.3.0; Execution Time (seconds, lower=better): 0.440210128; implementation: fastuuid7; Execution Time (s): 0.4402; Slowdown: 1.47" role="graphics-symbol" aria-roledescription="bar" d="M0,487.56499411396675h102.85714285714286v112.43500588603325h-102.85714285714286Z" fill="#1b9e77"/></g></g><path class="foreground" aria-hidden="true" d="" display="none"/></g></g></g><path class="foreground" aria-hidden="true" d="" display="none"/></g><g transform="translate(348.57142857142856,298.1020837989441)"><path class="background" aria-hidden="true" d="M6,0L96.85714285714286,0C100.16863300410687,0,102.85714285714286,2.688509853036,102.85714285714286,6L102.85714285714286,301.8979162010559C102.85714285714286,301.8979162010559,102.85714285714286,301.8979162010559,102.85714285714286,301.8979162010559L0,301.8979162010559C0,301.8979162010559,0,301.8979162010559,0,301.8979162010559L0,6C0,2.688509853036,2.688509853036,0,6,0Z"/><g clip-path="url(#clip13)"><g class="mark-group role-scope" role="graphics-object" aria-roledescription="group mark container"><g transform="translate(0,-298.1020837989441)"><path class="background" aria-hidden="true" d="M0,0h102.85714285714286v0h-102.85714285714286Z"/><g><g class="mark-rect role-mark layer_0_marks" role="graphics-object" aria-roledescription="rect mark container"><path aria-label="Implementation: lastuuid&#xA;0.5.0; Execution Time (seconds, lower=better): 1.182003054; implementation: lastuuid; Execution Time (s): 1.1820; Slowdown: 3.96" role="graphics-symbol" aria-roledescription="bar" d="M0,298.1020837989441h102.85714285714286v301.8979162010559h-102.85714285714286Z" fill="#d95f02"/></g></g><path class="foreground" aria-hidden="true" d="" display="none"/></g></g></g><path class="foreground" aria-hidden="true" d="" display="none"/></g><g transform="translate(462.85714285714283,275.1701683835581)"><path class="background" aria-hidden="true" d="M6,0L96.85714285714286,0C100.16863300410687,0,102.85714285714286,2.688509853036,102.85714285714286,6L102.85714285714286,324.8298316164419C102.85714285714286,324.8298316164419,102.85714285714286,324.8298316164419,102.85714285714286,324.8298316164419L0,324.8298316164419C0,324.8298316164419,0,324.8298316164419,0,324.8298316164419L0,6C0,2.688509853036,2.688509853036,0,6,0Z"/><g clip-path="url(#clip14)"><g class="mark-group role-scope" role="graphics-object" aria-roledescription="group mark container"><g transform="translate(0,-275.1701683835581)"><path class="background" aria-hidden="true" d="M0,0h102.85714285714286v0h-102.85714285714286Z"/><g><g class="mark-rect role-mark layer_0_marks" role="graphics-object" aria-roledescription="rect mark container"><path aria-label="Implementation: uuid&#xA;stdlib; Execution Time (seconds, lower=better): 1.271787026; implementation: uuid; Execution Time (s): 1.2718; Slowdown: 4.26" role="graphics-symbol" aria-roledescription="bar" d="M0,275.1701683835581h102.85714285714286v324.8298316164419h-102.85714285714286Z" fill="#7570b3"/></g></g><path class="foreground" aria-hidden="true" d="" display="none"/></g></g></g><path class="foreground" aria-hidden="true" d="" display="none"/></g><g transform="translate(577.1428571428571,187.0629721144592)"><path class="background" aria-hidden="true" d="M6,0L96.85714285714286,0C100.16863300410687,0,102.85714285714286,2.688509853036,102.85714285714286,6L102.85714285714286,412.93702788554083C102.85714285714286,412.93702788554083,102.85714285714286,412.93702788554083,102.85714285714286,412.93702788554083L0,412.93702788554083C0,412.93702788554083,0,412.93702788554083,0,412.93702788554083L0,6C0,2.688509853036,2.688509853036,0,6,0Z"/><g clip-path="url(#clip15)"><g class="mark-group role-scope" role="graphics-object" aria-roledescription="group mark container"><g transform="translate(0,-187.0629721144592)"><path class="background" aria-hidden="true" d="M0,0h102.85714285714286v0h-102.85714285714286Z"/><g><g class="mark-rect role-mark layer_0_marks" role="graphics-object" aria-roledescription="rect mark container"><path aria-label="Implementation: uuid6&#xA;2025.0.1; Execution Time (seconds, lower=better): 1.61674792; implementation: uuid6; Execution Time (s): 1.6167; Slowdown: 5.42" role="graphics-symbol" aria-roledescription="bar" d="M0,187.0629721144592h102.85714285714286v412.93702788554083h-102.85714285714286Z" fill="#e7298a"/></g></g><path class="foreground" aria-hidden="true" d="" display="none"/></g></g></g><path class="foreground" aria-hidden="true" d="" display="none"/></g><g transform="translate(691.4285714285714,23.07692307692313)"><path class="background" aria-hidden="true" d="M6,0L96.85714285714286,0C100.16863300410687,0,102.85714285714286,2.688509853036,102.85714285714286,6L102.85714285714286,576.9230769230769C102.85714285714286,576.9230769230769,102.85714285714286,576.9230769230769,102.85714285714286,576.9230769230769L0,576.9230769230769C0,576.9230769230769,0,576.9230769230769,0,576.9230769230769L0,6C0,2.688509853036,2.688509853036,0,6,0Z"/><g clip-path="url(#clip16)"><g class="mark-group role-scope" role="graphics-object" aria-roledescription="group mark container"><g transform="translate(0,-23.07692307692313)"><path class="background" aria-hidden="true" d="M0,0h102.85714285714286v0h-102.85714285714286Z"/><g><g class="mark-rect role-mark layer_0_marks" role="graphics-object" aria-roledescription="rect mark container"><path aria-label="Implementation: uuid_v7&#xA;1.0.0; Execution Time (seconds, lower=better): 2.258792798; implementation: uuid_v7; Execution Time (s): 2.2588; Slowdown: 7.57" role="graphics-symbol" aria-roledescription="bar" d="M0,23.07692307692313h102.85714285714286v576.9230769230769h-102.85714285714286Z" fill="#a6761d"/></g></g><path class="foreground" aria-hidden="true" d="" display="none"/></g></g></g><path class="foreground" aria-hidden="true" d="" display="none"/></g></g><g class="mark-text role-mark layer_1_marks" role="graphics-object" aria-roledescription="text mark container"><text aria-label="Implementation: uuid7_rs.compat&#xA;0.0.11; Execution Time (seconds, lower=better): 0.298567366; implementation: uuid7_rs.compat; label: 0.2986s (x1.00); Execution Time (s): 0.2986; Slowdown: 1.00" role="graphics-symbol" aria-roledescription="text mark" text-anchor="middle" transform="translate(57.142857142857096,519.7422734772069)" font-family="sans-serif" font-size="9px" font-weight="bold" fill="#66a61e">0.2986s (x1.00)</text><text aria-label="Implementation: uuid_utils.compat&#xA;0.17.0; Execution Time (seconds, lower=better): 0.34057517; implementation: uuid_utils.compat; label: 0.3406s (x1.14); Execution Time (s): 0.3406; Slowdown: 1.14" role="graphics-symbol" aria-roledescription="text mark" text-anchor="middle" transform="translate(171.4285714285714,509.01297083381246)" font-family="sans-serif" font-size="9px" font-weight="bold" fill="#e6ab02">0.3406s (x1.14)</text><text aria-label="Implementation: fastuuid7&#xA;0.3.0; Execution Time (seconds, lower=better): 0.440210128; implementation: fastuuid7; label: 0.4402s (x1.47); Execution Time (s): 0.4402; Slowdown: 1.47" role="graphics-symbol" aria-roledescription="text mark" text-anchor="middle" transform="translate(285.71428571428567,483.56499411396675)" font-family="sans-serif" font-size="9px" font-weight="bold" fill="#1b9e77">0.4402s (x1.47)</text><text aria-label="Implementation: lastuuid&#xA;0.5.0; Execution Time (seconds, lower=better): 1.182003054; implementation: lastuuid; label: 1.1820s (x3.96); Execution Time (s): 1.1820; Slowdown: 3.96" role="graphics-symbol" aria-roledescription="text mark" text-anchor="middle" transform="translate(400,294.1020837989441)" font-family="sans-serif" font-size="9px" font-weight="bold" fill="#d95f02">1.1820s (x3.96)</text><text aria-label="Implementation: uuid&#xA;stdlib; Execution Time (seconds, lower=better): 1.271787026; implementation: uuid; label: 1.2718s (x4.26); Execution Time (s): 1.2718; Slowdown: 4.26" role="graphics-symbol" aria-roledescription="text mark" text-anchor="middle" transform="translate(514.2857142857142,271.1701683835581)" font-family="sans-serif" font-size="9px" font-weight="bold" fill="#7570b3">1.2718s (x4.26)</text><text aria-label="Implementation: uuid6&#xA;2025.0.1; Execution Time (seconds, lower=better): 1.61674792; implementation: uuid6; label: 1.6167s (x5.42); Execution Time (s): 1.6167; Slowdown: 5.42" role="graphics-symbol" aria-roledescription="text mark" text-anchor="middle" transform="translate(628.5714285714286,183.0629721144592)" font-family="sans-serif" font-size="9px" font-weight="bold" fill="#e7298a">1.6167s (x5.42)</text><text aria-label="Implementation: uuid_v7&#xA;1.0.0; Execution Time (seconds, lower=better): 2.258792798; implementation: uuid_v7; label: 2.2588s (x7.57); Execution Time (s): 2.2588; Slowdown: 7.57" role="graphics-symbol" aria-roledescription="text mark" text-anchor="middle" transform="translate(742.8571428571429,19.07692307692313)" font-family="sans-serif" font-size="9px" font-weight="bold" fill="#a6761d">2.2588s (x7.57)</text></g><g class="mark-group role-title"><g transform="translate(400,-31)"><path class="background" aria-hidden="true" d="M0,0h0v0h0Z" pointer-events="none"/><g><g class="mark-text role-title-text" role="graphics-symbol" aria-roledescription="title" aria-label="Title text 'UUID v7 benchmark (uuid7() stdlib-compatible APIs)'" pointer-events="none"><text text-anchor="middle" transform="translate(0,10)" font-family="sans-serif" font-size="13px" font-weight="bold" fill="#000" opacity="1">UUID v7 benchmark (uuid7() stdlib-compatible APIs)</text></g><g class="mark-text role-title-subtitle" role="graphics-symbol" aria-roledescription="subtitle" aria-label="Subtitle text 'Python: 3.14.6 (Linux 6.17.0-1020-azure) | CPU: AMD EPYC 7763 64-Core Processor'" pointer-events="none"><text text-anchor="middle" transform="translate(0,25)" font-family="sans-serif" font-size="12px" fill="#000" opacity="1">Python: 3.14.6 (Linux 6.17.0-1020-azure) | CPU: AMD EPYC 7763 64-Core Processor</text></g></g><path class="foreground" aria-hidden="true" d="" pointer-events="none" display="none"/></g></g></g><path class="foreground" aria-hidden="true" d="" display="none"/></g></g></g><defs><clipPath id="clip10"><path d="M6,0L96.85714285714286,0C100.16863300410687,0,102.85714285714286,2.688509853036,102.85714285714286,6L102.85714285714286,76.25772652279306C102.85714285714286,76.25772652279306,102.85714285714286,76.25772652279306,102.85714285714286,76.25772652279306L0,76.25772652279306C0,76.25772652279306,0,76.25772652279306,0,76.25772652279306L0,6C0,2.688509853036,2.688509853036,0,6,0Z"/></clipPath><clipPath id="clip11"><path d="M6,0L96.85714285714286,0C100.16863300410687,0,102.85714285714286,2.688509853036,102.85714285714286,6L102.85714285714286,86.98702916618754C102.85714285714286,86.98702916618754,102.85714285714286,86.98702916618754,102.85714285714286,86.98702916618754L0,86.98702916618754C0,86.98702916618754,0,86.98702916618754,0,86.98702916618754L0,6C0,2.688509853036,2.688509853036,0,6,0Z"/></clipPath><clipPath id="clip12"><path d="M6,0L96.85714285714286,0C100.16863300410687,0,102.85714285714286,2.688509853036,102.85714285714286,6L102.85714285714286,112.43500588603325C102.85714285714286,112.43500588603325,102.85714285714286,112.43500588603325,102.85714285714286,112.43500588603325L0,112.43500588603325C0,112.43500588603325,0,112.43500588603325,0,112.43500588603325L0,6C0,2.688509853036,2.688509853036,0,6,0Z"/></clipPath><clipPath id="clip13"><path d="M6,0L96.85714285714286,0C100.16863300410687,0,102.85714285714286,2.688509853036,102.85714285714286,6L102.85714285714286,301.8979162010559C102.85714285714286,301.8979162010559,102.85714285714286,301.8979162010559,102.85714285714286,301.8979162010559L0,301.8979162010559C0,301.8979162010559,0,301.8979162010559,0,301.8979162010559L0,6C0,2.688509853036,2.688509853036,0,6,0Z"/></clipPath><clipPath id="clip14"><path d="M6,0L96.85714285714286,0C100.16863300410687,0,102.85714285714286,2.688509853036,102.85714285714286,6L102.85714285714286,324.8298316164419C102.85714285714286,324.8298316164419,102.85714285714286,324.8298316164419,102.85714285714286,324.8298316164419L0,324.8298316164419C0,324.8298316164419,0,324.8298316164419,0,324.8298316164419L0,6C0,2.688509853036,2.688509853036,0,6,0Z"/></clipPath><clipPath id="clip15"><path d="M6,0L96.85714285714286,0C100.16863300410687,0,102.85714285714286,2.688509853036,102.85714285714286,6L102.85714285714286,412.93702788554083C102.85714285714286,412.93702788554083,102.85714285714286,412.93702788554083,102.85714285714286,412.93702788554083L0,412.93702788554083C0,412.93702788554083,0,412.93702788554083,0,412.93702788554083L0,6C0,2.688509853036,2.688509853036,0,6,0Z"/></clipPath><clipPath id="clip16"><path d="M6,0L96.85714285714286,0C100.16863300410687,0,102.85714285714286,2.688509853036,102.85714285714286,6L102.85714285714286,576.9230769230769C102.85714285714286,576.9230769230769,102.85714285714286,576.9230769230769,102.85714285714286,576.9230769230769L0,576.9230769230769C0,576.9230769230769,0,576.9230769230769,0,576.9230769230769L0,6C0,2.688509853036,2.688509853036,0,6,0Z"/></clipPath></defs></svg>