<svg xmlns="http://www.w3.org/2000/svg" xmlns:xlink="http://www.w3.org/1999/xlink" version="1.1" class="marks" width="846" height="687" viewBox="0 0 846 687"><rect width="846" height="687" fill="white"/><g fill="none" stroke-miterlimit="10" transform="translate(41,36)"><g class="mark-group role-frame root" role="graphics-object" aria-roledescription="group mark container"><g transform="translate(0,0)"><path class="background" aria-hidden="true" d="M0.5,0.5h800v600h-800Z" stroke="#ddd"/><g><g class="mark-group role-axis" role="graphics-symbol" aria-roledescription="axis" aria-label="X-axis titled 'Parser' for a discrete scale with 7 values: toml_rs&#xA;0.3.14, pytomlpp&#xA;1.1.0, rtoml&#xA;0.13.0, tomllib&#xA;built-in, qtoml&#xA;0.3.1, toml&#xA;0.10.2, tomlkit&#xA;0.15.0"><g transform="translate(0.5,600.5)"><path class="background" aria-hidden="true" d="M0,0h0v0h0Z" pointer-events="none"/><g><g class="mark-rule role-axis-tick" pointer-events="none"><line transform="translate(57,0)" x2="0" y2="5" stroke="#888" stroke-width="1" opacity="1"/><line transform="translate(171,0)" x2="0" y2="5" stroke="#888" stroke-width="1" opacity="1"/><line transform="translate(285,0)" x2="0" y2="5" stroke="#888" stroke-width="1" opacity="1"/><line transform="translate(400,0)" x2="0" y2="5" stroke="#888" stroke-width="1" opacity="1"/><line transform="translate(514,0)" x2="0" y2="5" stroke="#888" stroke-width="1" opacity="1"/><line transform="translate(628,0)" x2="0" y2="5" stroke="#888" stroke-width="1" opacity="1"/><line transform="translate(742,0)" x2="0" y2="5" stroke="#888" stroke-width="1" opacity="1"/></g><g class="mark-text role-axis-label" pointer-events="none"><text text-anchor="middle" transform="translate(56.642857142857096,15)" font-family="sans-serif" font-size="10px" fill="#000" opacity="1"><tspan>toml_rs</tspan><tspan x="0" dy="14">0.3.14</tspan></text><text text-anchor="middle" transform="translate(170.9285714285714,15)" font-family="sans-serif" font-size="10px" fill="#000" opacity="1"><tspan>pytomlpp</tspan><tspan x="0" dy="14">1.1.0</tspan></text><text text-anchor="middle" transform="translate(285.21428571428567,15)" font-family="sans-serif" font-size="10px" fill="#000" opacity="1"><tspan>rtoml</tspan><tspan x="0" dy="14">0.13.0</tspan></text><text text-anchor="middle" transform="translate(399.5,15)" font-family="sans-serif" font-size="10px" fill="#000" opacity="1"><tspan>tomllib</tspan><tspan x="0" dy="14">built-in</tspan></text><text text-anchor="middle" transform="translate(513.7857142857142,15)" font-family="sans-serif" font-size="10px" fill="#000" opacity="1"><tspan>qtoml</tspan><tspan x="0" dy="14">0.3.1</tspan></text><text text-anchor="middle" transform="translate(628.0714285714286,15)" font-family="sans-serif" font-size="10px" fill="#000" opacity="1"><tspan>toml</tspan><tspan x="0" dy="14">0.10.2</tspan></text><text text-anchor="middle" transform="translate(742.3571428571429,15)" font-family="sans-serif" font-size="10px" fill="#000" opacity="1"><tspan>tomlkit</tspan><tspan x="0" dy="14">0.15.0</tspan></text></g><g class="mark-rule role-axis-domain" pointer-events="none"><line transform="translate(0,0)" x2="800" y2="0" stroke="#888" stroke-width="1" opacity="1"/></g><g class="mark-text role-axis-title" pointer-events="none"><text text-anchor="middle" transform="translate(400,44)" font-family="sans-serif" font-size="11px" font-weight="bold" fill="#000" opacity="1">Parser</text></g></g><path class="foreground" aria-hidden="true" d="" pointer-events="none" display="none"/></g></g><g class="mark-group role-axis" role="graphics-symbol" aria-roledescription="axis" aria-label="Y-axis titled 'Execution Time (seconds, lower=better)' for a linear scale with values from 0.0 to 3.0"><g transform="translate(0.5,0.5)"><path class="background" aria-hidden="true" d="M0,0h0v0h0Z" pointer-events="none"/><g><g class="mark-rule role-axis-tick" pointer-events="none"><line transform="translate(0,600)" x2="-5" y2="0" stroke="#888" stroke-width="1" opacity="1"/><line transform="translate(0,560)" x2="-5" y2="0" stroke="#888" stroke-width="1" opacity="1"/><line transform="translate(0,519)" x2="-5" y2="0" stroke="#888" stroke-width="1" opacity="1"/><line transform="translate(0,479)" x2="-5" y2="0" stroke="#888" stroke-width="1" opacity="1"/><line transform="translate(0,439)" x2="-5" y2="0" stroke="#888" stroke-width="1" opacity="1"/><line transform="translate(0,398)" x2="-5" y2="0" stroke="#888" stroke-width="1" opacity="1"/><line transform="translate(0,358)" x2="-5" y2="0" stroke="#888" stroke-width="1" opacity="1"/><line transform="translate(0,318)" x2="-5" y2="0" stroke="#888" stroke-width="1" opacity="1"/><line transform="translate(0,277)" x2="-5" y2="0" stroke="#888" stroke-width="1" opacity="1"/><line transform="translate(0,237)" x2="-5" y2="0" stroke="#888" stroke-width="1" opacity="1"/><line transform="translate(0,197)" x2="-5" y2="0" stroke="#888" stroke-width="1" opacity="1"/><line transform="translate(0,156)" x2="-5" y2="0" stroke="#888" stroke-width="1" opacity="1"/><line transform="translate(0,116)" x2="-5" y2="0" stroke="#888" stroke-width="1" opacity="1"/><line transform="translate(0,75)" x2="-5" y2="0" stroke="#888" stroke-width="1" opacity="1"/><line transform="translate(0,35)" x2="-5" y2="0" stroke="#888" stroke-width="1" opacity="1"/></g><g class="mark-text role-axis-label" pointer-events="none"><text text-anchor="end" transform="translate(-7,603)" font-family="sans-serif" font-size="10px" fill="#000" opacity="1">0.0</text><text text-anchor="end" transform="translate(-7,562.6536062889588)" font-family="sans-serif" font-size="10px" fill="#000" opacity="1">0.2</text><text text-anchor="end" transform="translate(-7,522.3072125779174)" font-family="sans-serif" font-size="10px" fill="#000" opacity="1">0.4</text><text text-anchor="end" transform="translate(-7,481.96081886687625)" font-family="sans-serif" font-size="10px" fill="#000" opacity="1">0.6</text><text text-anchor="end" transform="translate(-7,441.61442515583497)" font-family="sans-serif" font-size="10px" fill="#000" opacity="1">0.8</text><text text-anchor="end" transform="translate(-7,401.26803144479373)" font-family="sans-serif" font-size="10px" fill="#000" opacity="1">1.0</text><text text-anchor="end" transform="translate(-7,360.9216377337525)" font-family="sans-serif" font-size="10px" fill="#000" opacity="1">1.2</text><text text-anchor="end" transform="translate(-7,320.5752440227113)" font-family="sans-serif" font-size="10px" fill="#000" opacity="1">1.4</text><text text-anchor="end" transform="translate(-7,280.22885031167)" font-family="sans-serif" font-size="10px" fill="#000" opacity="1">1.6</text><text text-anchor="end" transform="translate(-7,239.88245660062876)" font-family="sans-serif" font-size="10px" fill="#000" opacity="1">1.8</text><text text-anchor="end" transform="translate(-7,199.53606288958744)" font-family="sans-serif" font-size="10px" fill="#000" opacity="1">2.0</text><text text-anchor="end" transform="translate(-7,159.1896691785462)" font-family="sans-serif" font-size="10px" fill="#000" opacity="1">2.2</text><text text-anchor="end" transform="translate(-7,118.843275467505)" font-family="sans-serif" font-size="10px" fill="#000" opacity="1">2.4</text><text text-anchor="end" transform="translate(-7,78.4968817564637)" font-family="sans-serif" font-size="10px" fill="#000" opacity="1">2.6</text><text text-anchor="end" transform="translate(-7,38.150488045422534)" font-family="sans-serif" font-size="10px" fill="#000" opacity="1">2.8</text></g><g class="mark-rule role-axis-domain" pointer-events="none"><line transform="translate(0,600)" x2="0" y2="-600" stroke="#888" stroke-width="1" opacity="1"/></g><g class="mark-text role-axis-title" pointer-events="none"><text text-anchor="middle" transform="translate(-24.9013671875,300) rotate(-90) translate(0,-2)" font-family="sans-serif" font-size="11px" font-weight="bold" fill="#000" opacity="1">Execution Time (seconds, lower=better)</text></g></g><path class="foreground" aria-hidden="true" d="" pointer-events="none" display="none"/></g></g><g class="mark-group role-scope" role="graphics-object" aria-roledescription="group mark container"><g transform="translate(5.714285714285666,596.221661094944)"><path class="background" aria-hidden="true" d="M1.8891694525279945,0L100.96797340461487,0C102.01063440928017,0,102.85714285714286,0.8465084478626899,102.85714285714286,1.8891694525279945L102.85714285714286,3.778338905055989C102.85714285714286,3.778338905055989,102.85714285714286,3.778338905055989,102.85714285714286,3.778338905055989L0,3.778338905055989C0,3.778338905055989,0,3.778338905055989,0,3.778338905055989L0,1.8891694525279945C0,0.8465084478626899,0.8465084478626899,0,1.8891694525279945,0Z"/><g clip-path="url(#clip1)"><g class="mark-group role-scope" role="graphics-object" aria-roledescription="group mark container"><g transform="translate(0,-596.221661094944)"><path class="background" aria-hidden="true" d="M0,0h102.85714285714286v0h-102.85714285714286Z"/><g><g class="mark-rect role-mark layer_0_marks" role="graphics-object" aria-roledescription="rect mark container"><path aria-label="Parser: toml_rs&#xA;0.3.14; Execution Time (seconds, lower=better): 0.0187295; parser: toml_rs; Execution Time (s): 0.0187; Slowdown: 1.00" role="graphics-symbol" aria-roledescription="bar" d="M0,596.221661094944h102.85714285714286v3.778338905055989h-102.85714285714286Z" fill="#66a61e"/></g></g><path class="foreground" aria-hidden="true" d="" display="none"/></g></g></g><path class="foreground" aria-hidden="true" d="" display="none"/></g><g transform="translate(119.99999999999996,589.839710699716)"><path class="background" aria-hidden="true" d="M5.080144650142017,0L97.77699820700084,0C100.58080636601704,0,102.85714285714286,2.276336491125823,102.85714285714286,5.080144650142017L102.85714285714286,10.160289300284035C102.85714285714286,10.160289300284035,102.85714285714286,10.160289300284035,102.85714285714286,10.160289300284035L0,10.160289300284035C0,10.160289300284035,0,10.160289300284035,0,10.160289300284035L0,5.080144650142017C0,2.276336491125823,2.276336491125823,0,5.080144650142017,0Z"/><g clip-path="url(#clip2)"><g class="mark-group role-scope" role="graphics-object" aria-roledescription="group mark container"><g transform="translate(0,-589.839710699716)"><path class="background" aria-hidden="true" d="M0,0h102.85714285714286v0h-102.85714285714286Z"/><g><g class="mark-rect role-mark layer_0_marks" role="graphics-object" aria-roledescription="rect mark container"><path aria-label="Parser: pytomlpp&#xA;1.1.0; Execution Time (seconds, lower=better): 0.050365291; parser: pytomlpp; Execution Time (s): 0.0504; Slowdown: 2.69" role="graphics-symbol" aria-roledescription="bar" d="M0,589.839710699716h102.85714285714286v10.160289300284035h-102.85714285714286Z" fill="#1b9e77"/></g></g><path class="foreground" aria-hidden="true" d="" display="none"/></g></g></g><path class="foreground" aria-hidden="true" d="" display="none"/></g><g transform="translate(234.28571428571425,589.7576897090092)"><path class="background" aria-hidden="true" d="M5.121155145495379,0L97.73598771164748,0C100.56243017921113,0,102.85714285714286,2.294712677931723,102.85714285714286,5.121155145495379L102.85714285714286,10.242310290990758C102.85714285714286,10.242310290990758,102.85714285714286,10.242310290990758,102.85714285714286,10.242310290990758L0,10.242310290990758C0,10.242310290990758,0,10.242310290990758,0,10.242310290990758L0,5.121155145495379C0,2.294712677931723,2.294712677931723,0,5.121155145495379,0Z"/><g clip-path="url(#clip3)"><g class="mark-group role-scope" role="graphics-object" aria-roledescription="group mark container"><g transform="translate(0,-589.7576897090092)"><path class="background" aria-hidden="true" d="M0,0h102.85714285714286v0h-102.85714285714286Z"/><g><g class="mark-rect role-mark layer_0_marks" role="graphics-object" aria-roledescription="rect mark container"><path aria-label="Parser: rtoml&#xA;0.13.0; Execution Time (seconds, lower=better): 0.050771875; parser: rtoml; Execution Time (s): 0.0508; Slowdown: 2.71" role="graphics-symbol" aria-roledescription="bar" d="M0,589.7576897090092h102.85714285714286v10.242310290990758h-102.85714285714286Z" fill="#7570b3"/></g></g><path class="foreground" aria-hidden="true" d="" display="none"/></g></g></g><path class="foreground" aria-hidden="true" d="" display="none"/></g><g transform="translate(348.57142857142856,572.3169271510756)"><path class="background" aria-hidden="true" d="M6,0L96.85714285714286,0C100.16863300410687,0,102.85714285714286,2.688509853036,102.85714285714286,6L102.85714285714286,27.68307284892444C102.85714285714286,27.68307284892444,102.85714285714286,27.68307284892444,102.85714285714286,27.68307284892444L0,27.68307284892444C0,27.68307284892444,0,27.68307284892444,0,27.68307284892444L0,6C0,2.688509853036,2.688509853036,0,6,0Z"/><g clip-path="url(#clip4)"><g class="mark-group role-scope" role="graphics-object" aria-roledescription="group mark container"><g transform="translate(0,-572.3169271510756)"><path class="background" aria-hidden="true" d="M0,0h102.85714285714286v0h-102.85714285714286Z"/><g><g class="mark-rect role-mark layer_0_marks" role="graphics-object" aria-roledescription="rect mark container"><path aria-label="Parser: tomllib&#xA;built-in; Execution Time (seconds, lower=better): 0.137227; parser: tomllib; Execution Time (s): 0.1372; Slowdown: 7.33" role="graphics-symbol" aria-roledescription="bar" d="M0,572.3169271510756h102.85714285714286v27.68307284892444h-102.85714285714286Z" fill="#a6761d"/></g></g><path class="foreground" aria-hidden="true" d="" display="none"/></g></g></g><path class="foreground" aria-hidden="true" d="" display="none"/></g><g transform="translate(462.85714285714283,514.6907697367532)"><path class="background" aria-hidden="true" d="M6,0L96.85714285714286,0C100.16863300410687,0,102.85714285714286,2.688509853036,102.85714285714286,6L102.85714285714286,85.30923026324683C102.85714285714286,85.30923026324683,102.85714285714286,85.30923026324683,102.85714285714286,85.30923026324683L0,85.30923026324683C0,85.30923026324683,0,85.30923026324683,0,85.30923026324683L0,6C0,2.688509853036,2.688509853036,0,6,0Z"/><g clip-path="url(#clip5)"><g class="mark-group role-scope" role="graphics-object" aria-roledescription="group mark container"><g transform="translate(0,-514.6907697367532)"><path class="background" aria-hidden="true" d="M0,0h102.85714285714286v0h-102.85714285714286Z"/><g><g class="mark-rect role-mark layer_0_marks" role="graphics-object" aria-roledescription="rect mark container"><path aria-label="Parser: qtoml&#xA;0.3.1; Execution Time (seconds, lower=better): 0.422884042; parser: qtoml; Execution Time (s): 0.4229; Slowdown: 22.58" role="graphics-symbol" aria-roledescription="bar" d="M0,514.6907697367532h102.85714285714286v85.30923026324683h-102.85714285714286Z" fill="#d95f02"/></g></g><path class="foreground" aria-hidden="true" d="" display="none"/></g></g></g><path class="foreground" aria-hidden="true" d="" display="none"/></g><g transform="translate(577.1428571428571,511.3105151824069)"><path class="background" aria-hidden="true" d="M6,0L96.85714285714286,0C100.16863300410687,0,102.85714285714286,2.688509853036,102.85714285714286,6L102.85714285714286,88.6894848175931C102.85714285714286,88.6894848175931,102.85714285714286,88.6894848175931,102.85714285714286,88.6894848175931L0,88.6894848175931C0,88.6894848175931,0,88.6894848175931,0,88.6894848175931L0,6C0,2.688509853036,2.688509853036,0,6,0Z"/><g clip-path="url(#clip6)"><g class="mark-group role-scope" role="graphics-object" aria-roledescription="group mark container"><g transform="translate(0,-511.3105151824069)"><path class="background" aria-hidden="true" d="M0,0h102.85714285714286v0h-102.85714285714286Z"/><g><g class="mark-rect role-mark layer_0_marks" role="graphics-object" aria-roledescription="rect mark container"><path aria-label="Parser: toml&#xA;0.10.2; Execution Time (seconds, lower=better): 0.439640209; parser: toml; Execution Time (s): 0.4396; Slowdown: 23.47" role="graphics-symbol" aria-roledescription="bar" d="M0,511.3105151824069h102.85714285714286v88.6894848175931h-102.85714285714286Z" fill="#e7298a"/></g></g><path class="foreground" aria-hidden="true" d="" display="none"/></g></g></g><path class="foreground" aria-hidden="true" d="" display="none"/></g><g transform="translate(691.4285714285714,28.571428571428537)"><path class="background" aria-hidden="true" d="M6,0L96.85714285714286,0C100.16863300410687,0,102.85714285714286,2.688509853036,102.85714285714286,6L102.85714285714286,571.4285714285714C102.85714285714286,571.4285714285714,102.85714285714286,571.4285714285714,102.85714285714286,571.4285714285714L0,571.4285714285714C0,571.4285714285714,0,571.4285714285714,0,571.4285714285714L0,6C0,2.688509853036,2.688509853036,0,6,0Z"/><g clip-path="url(#clip7)"><g class="mark-group role-scope" role="graphics-object" aria-roledescription="group mark container"><g transform="translate(0,-28.571428571428537)"><path class="background" aria-hidden="true" d="M0,0h102.85714285714286v0h-102.85714285714286Z"/><g><g class="mark-rect role-mark layer_0_marks" role="graphics-object" aria-roledescription="rect mark container"><path aria-label="Parser: tomlkit&#xA;0.15.0; Execution Time (seconds, lower=better): 2.832612875; parser: tomlkit; Execution Time (s): 2.8326; Slowdown: 151.24" role="graphics-symbol" aria-roledescription="bar" d="M0,28.571428571428537h102.85714285714286v571.4285714285714h-102.85714285714286Z" fill="#e6ab02"/></g></g><path class="foreground" aria-hidden="true" d="" display="none"/></g></g></g><path class="foreground" aria-hidden="true" d="" display="none"/></g></g><g class="mark-text role-mark layer_1_marks" role="graphics-object" aria-roledescription="text mark container"><text aria-label="Parser: toml_rs&#xA;0.3.14; Execution Time (seconds, lower=better): 0.0187295; parser: toml_rs; label: 0.0187s (x1.00); Execution Time (s): 0.0187; Slowdown: 1.00" role="graphics-symbol" aria-roledescription="text mark" text-anchor="middle" transform="translate(57.142857142857096,592.221661094944)" font-family="sans-serif" font-size="9px" font-weight="bold" fill="#66a61e">0.0187s (x1.00)</text><text aria-label="Parser: pytomlpp&#xA;1.1.0; Execution Time (seconds, lower=better): 0.050365291; parser: pytomlpp; label: 0.0504s (x2.69); Execution Time (s): 0.0504; Slowdown: 2.69" role="graphics-symbol" aria-roledescription="text mark" text-anchor="middle" transform="translate(171.4285714285714,585.839710699716)" font-family="sans-serif" font-size="9px" font-weight="bold" fill="#1b9e77">0.0504s (x2.69)</text><text aria-label="Parser: rtoml&#xA;0.13.0; Execution Time (seconds, lower=better): 0.050771875; parser: rtoml; label: 0.0508s (x2.71); Execution Time (s): 0.0508; Slowdown: 2.71" role="graphics-symbol" aria-roledescription="text mark" text-anchor="middle" transform="translate(285.71428571428567,585.7576897090092)" font-family="sans-serif" font-size="9px" font-weight="bold" fill="#7570b3">0.0508s (x2.71)</text><text aria-label="Parser: tomllib&#xA;built-in; Execution Time (seconds, lower=better): 0.137227; parser: tomllib; label: 0.1372s (x7.33); Execution Time (s): 0.1372; Slowdown: 7.33" role="graphics-symbol" aria-roledescription="text mark" text-anchor="middle" transform="translate(400,568.3169271510756)" font-family="sans-serif" font-size="9px" font-weight="bold" fill="#a6761d">0.1372s (x7.33)</text><text aria-label="Parser: qtoml&#xA;0.3.1; Execution Time (seconds, lower=better): 0.422884042; parser: qtoml; label: 0.4229s (x22.58); Execution Time (s): 0.4229; Slowdown: 22.58" role="graphics-symbol" aria-roledescription="text mark" text-anchor="middle" transform="translate(514.2857142857142,510.69076973675317)" font-family="sans-serif" font-size="9px" font-weight="bold" fill="#d95f02">0.4229s (x22.58)</text><text aria-label="Parser: toml&#xA;0.10.2; Execution Time (seconds, lower=better): 0.439640209; parser: toml; label: 0.4396s (x23.47); Execution Time (s): 0.4396; Slowdown: 23.47" role="graphics-symbol" aria-roledescription="text mark" text-anchor="middle" transform="translate(628.5714285714286,507.3105151824069)" font-family="sans-serif" font-size="9px" font-weight="bold" fill="#e7298a">0.4396s (x23.47)</text><text aria-label="Parser: tomlkit&#xA;0.15.0; Execution Time (seconds, lower=better): 2.832612875; parser: tomlkit; label: 2.8326s (x151.24); Execution Time (s): 2.8326; Slowdown: 151.24" role="graphics-symbol" aria-roledescription="text mark" text-anchor="middle" transform="translate(742.8571428571429,24.571428571428537)" font-family="sans-serif" font-size="9px" font-weight="bold" fill="#e6ab02">2.8326s (x151.24)</text></g><g class="mark-group role-title"><g transform="translate(400,-31)"><path class="background" aria-hidden="true" d="M0,0h0v0h0Z" pointer-events="none"/><g><g class="mark-text role-title-text" role="graphics-symbol" aria-roledescription="title" aria-label="Title text 'TOML parsers benchmark (loads)'" pointer-events="none"><text text-anchor="middle" transform="translate(0,10)" font-family="sans-serif" font-size="13px" font-weight="bold" fill="#000" opacity="1">TOML parsers benchmark (loads)</text></g><g class="mark-text role-title-subtitle" role="graphics-symbol" aria-roledescription="subtitle" aria-label="Subtitle text 'Python: 3.14.6 (Darwin 25.4.0) | CPU: Unknown'" pointer-events="none"><text text-anchor="middle" transform="translate(0,25)" font-family="sans-serif" font-size="12px" fill="#000" opacity="1">Python: 3.14.6 (Darwin 25.4.0) | CPU: Unknown</text></g></g><path class="foreground" aria-hidden="true" d="" pointer-events="none" display="none"/></g></g></g><path class="foreground" aria-hidden="true" d="" display="none"/></g></g></g><defs><clipPath id="clip1"><path d="M1.8891694525279945,0L100.96797340461487,0C102.01063440928017,0,102.85714285714286,0.8465084478626899,102.85714285714286,1.8891694525279945L102.85714285714286,3.778338905055989C102.85714285714286,3.778338905055989,102.85714285714286,3.778338905055989,102.85714285714286,3.778338905055989L0,3.778338905055989C0,3.778338905055989,0,3.778338905055989,0,3.778338905055989L0,1.8891694525279945C0,0.8465084478626899,0.8465084478626899,0,1.8891694525279945,0Z"/></clipPath><clipPath id="clip2"><path d="M5.080144650142017,0L97.77699820700084,0C100.58080636601704,0,102.85714285714286,2.276336491125823,102.85714285714286,5.080144650142017L102.85714285714286,10.160289300284035C102.85714285714286,10.160289300284035,102.85714285714286,10.160289300284035,102.85714285714286,10.160289300284035L0,10.160289300284035C0,10.160289300284035,0,10.160289300284035,0,10.160289300284035L0,5.080144650142017C0,2.276336491125823,2.276336491125823,0,5.080144650142017,0Z"/></clipPath><clipPath id="clip3"><path d="M5.121155145495379,0L97.73598771164748,0C100.56243017921113,0,102.85714285714286,2.294712677931723,102.85714285714286,5.121155145495379L102.85714285714286,10.242310290990758C102.85714285714286,10.242310290990758,102.85714285714286,10.242310290990758,102.85714285714286,10.242310290990758L0,10.242310290990758C0,10.242310290990758,0,10.242310290990758,0,10.242310290990758L0,5.121155145495379C0,2.294712677931723,2.294712677931723,0,5.121155145495379,0Z"/></clipPath><clipPath id="clip4"><path d="M6,0L96.85714285714286,0C100.16863300410687,0,102.85714285714286,2.688509853036,102.85714285714286,6L102.85714285714286,27.68307284892444C102.85714285714286,27.68307284892444,102.85714285714286,27.68307284892444,102.85714285714286,27.68307284892444L0,27.68307284892444C0,27.68307284892444,0,27.68307284892444,0,27.68307284892444L0,6C0,2.688509853036,2.688509853036,0,6,0Z"/></clipPath><clipPath id="clip5"><path d="M6,0L96.85714285714286,0C100.16863300410687,0,102.85714285714286,2.688509853036,102.85714285714286,6L102.85714285714286,85.30923026324683C102.85714285714286,85.30923026324683,102.85714285714286,85.30923026324683,102.85714285714286,85.30923026324683L0,85.30923026324683C0,85.30923026324683,0,85.30923026324683,0,85.30923026324683L0,6C0,2.688509853036,2.688509853036,0,6,0Z"/></clipPath><clipPath id="clip6"><path d="M6,0L96.85714285714286,0C100.16863300410687,0,102.85714285714286,2.688509853036,102.85714285714286,6L102.85714285714286,88.6894848175931C102.85714285714286,88.6894848175931,102.85714285714286,88.6894848175931,102.85714285714286,88.6894848175931L0,88.6894848175931C0,88.6894848175931,0,88.6894848175931,0,88.6894848175931L0,6C0,2.688509853036,2.688509853036,0,6,0Z"/></clipPath><clipPath id="clip7"><path d="M6,0L96.85714285714286,0C100.16863300410687,0,102.85714285714286,2.688509853036,102.85714285714286,6L102.85714285714286,571.4285714285714C102.85714285714286,571.4285714285714,102.85714285714286,571.4285714285714,102.85714285714286,571.4285714285714L0,571.4285714285714C0,571.4285714285714,0,571.4285714285714,0,571.4285714285714L0,6C0,2.688509853036,2.688509853036,0,6,0Z"/></clipPath></defs></svg>