<svg xmlns="http://www.w3.org/2000/svg" xmlns:xlink="http://www.w3.org/1999/xlink" version="1.1" class="marks" width="846" height="687" viewBox="0 0 846 687"><rect width="846" height="687" fill="white"/><g fill="none" stroke-miterlimit="10" transform="translate(41,36)"><g class="mark-group role-frame root" role="graphics-object" aria-roledescription="group mark container"><g transform="translate(0,0)"><path class="background" aria-hidden="true" d="M0.5,0.5h800v600h-800Z" stroke="#ddd"/><g><g class="mark-group role-axis" role="graphics-symbol" aria-roledescription="axis" aria-label="X-axis titled 'Parser' for a discrete scale with 7 values: toml_rs&#xA;0.3.16, pytomlpp&#xA;1.1.0, rtoml&#xA;0.13.0, tomllib&#xA;built-in, toml&#xA;0.10.2, qtoml&#xA;0.3.1, tomlkit&#xA;0.15.1"><g transform="translate(0.5,600.5)"><path class="background" aria-hidden="true" d="M0,0h0v0h0Z" pointer-events="none"/><g><g class="mark-rule role-axis-tick" pointer-events="none"><line transform="translate(57,0)" x2="0" y2="5" stroke="#888" stroke-width="1" opacity="1"/><line transform="translate(171,0)" x2="0" y2="5" stroke="#888" stroke-width="1" opacity="1"/><line transform="translate(285,0)" x2="0" y2="5" stroke="#888" stroke-width="1" opacity="1"/><line transform="translate(400,0)" x2="0" y2="5" stroke="#888" stroke-width="1" opacity="1"/><line transform="translate(514,0)" x2="0" y2="5" stroke="#888" stroke-width="1" opacity="1"/><line transform="translate(628,0)" x2="0" y2="5" stroke="#888" stroke-width="1" opacity="1"/><line transform="translate(742,0)" x2="0" y2="5" stroke="#888" stroke-width="1" opacity="1"/></g><g class="mark-text role-axis-label" pointer-events="none"><text text-anchor="middle" transform="translate(56.642857142857096,15)" font-family="sans-serif" font-size="10px" fill="#000" opacity="1"><tspan>toml_rs</tspan><tspan x="0" dy="14">0.3.16</tspan></text><text text-anchor="middle" transform="translate(170.9285714285714,15)" font-family="sans-serif" font-size="10px" fill="#000" opacity="1"><tspan>pytomlpp</tspan><tspan x="0" dy="14">1.1.0</tspan></text><text text-anchor="middle" transform="translate(285.21428571428567,15)" font-family="sans-serif" font-size="10px" fill="#000" opacity="1"><tspan>rtoml</tspan><tspan x="0" dy="14">0.13.0</tspan></text><text text-anchor="middle" transform="translate(399.5,15)" font-family="sans-serif" font-size="10px" fill="#000" opacity="1"><tspan>tomllib</tspan><tspan x="0" dy="14">built-in</tspan></text><text text-anchor="middle" transform="translate(513.7857142857142,15)" font-family="sans-serif" font-size="10px" fill="#000" opacity="1"><tspan>toml</tspan><tspan x="0" dy="14">0.10.2</tspan></text><text text-anchor="middle" transform="translate(628.0714285714286,15)" font-family="sans-serif" font-size="10px" fill="#000" opacity="1"><tspan>qtoml</tspan><tspan x="0" dy="14">0.3.1</tspan></text><text text-anchor="middle" transform="translate(742.3571428571429,15)" font-family="sans-serif" font-size="10px" fill="#000" opacity="1"><tspan>tomlkit</tspan><tspan x="0" dy="14">0.15.1</tspan></text></g><g class="mark-rule role-axis-domain" pointer-events="none"><line transform="translate(0,0)" x2="800" y2="0" stroke="#888" stroke-width="1" opacity="1"/></g><g class="mark-text role-axis-title" pointer-events="none"><text text-anchor="middle" transform="translate(400,44)" font-family="sans-serif" font-size="11px" font-weight="bold" fill="#000" opacity="1">Parser</text></g></g><path class="foreground" aria-hidden="true" d="" pointer-events="none" display="none"/></g></g><g class="mark-group role-axis" role="graphics-symbol" aria-roledescription="axis" aria-label="Y-axis titled 'Execution Time (seconds, lower=better)' for a linear scale with values from 0.0 to 1.2"><g transform="translate(0.5,0.5)"><path class="background" aria-hidden="true" d="M0,0h0v0h0Z" pointer-events="none"/><g><g class="mark-rule role-axis-tick" pointer-events="none"><line transform="translate(0,600)" x2="-5" y2="0" stroke="#888" stroke-width="1" opacity="1"/><line transform="translate(0,548)" x2="-5" y2="0" stroke="#888" stroke-width="1" opacity="1"/><line transform="translate(0,496)" x2="-5" y2="0" stroke="#888" stroke-width="1" opacity="1"/><line transform="translate(0,444)" x2="-5" y2="0" stroke="#888" stroke-width="1" opacity="1"/><line transform="translate(0,392)" x2="-5" y2="0" stroke="#888" stroke-width="1" opacity="1"/><line transform="translate(0,341)" x2="-5" y2="0" stroke="#888" stroke-width="1" opacity="1"/><line transform="translate(0,289)" x2="-5" y2="0" stroke="#888" stroke-width="1" opacity="1"/><line transform="translate(0,237)" x2="-5" y2="0" stroke="#888" stroke-width="1" opacity="1"/><line transform="translate(0,185)" x2="-5" y2="0" stroke="#888" stroke-width="1" opacity="1"/><line transform="translate(0,133)" x2="-5" y2="0" stroke="#888" stroke-width="1" opacity="1"/><line transform="translate(0,81)" x2="-5" y2="0" stroke="#888" stroke-width="1" opacity="1"/><line transform="translate(0,29)" x2="-5" y2="0" stroke="#888" stroke-width="1" opacity="1"/></g><g class="mark-text role-axis-label" pointer-events="none"><text text-anchor="end" transform="translate(-7,603)" font-family="sans-serif" font-size="10px" fill="#000" opacity="1">0.0</text><text text-anchor="end" transform="translate(-7,551.1134375435307)" font-family="sans-serif" font-size="10px" fill="#000" opacity="1">0.1</text><text text-anchor="end" transform="translate(-7,499.2268750870615)" font-family="sans-serif" font-size="10px" fill="#000" opacity="1">0.2</text><text text-anchor="end" transform="translate(-7,447.3403126305923)" font-family="sans-serif" font-size="10px" fill="#000" opacity="1">0.3</text><text text-anchor="end" transform="translate(-7,395.453750174123)" font-family="sans-serif" font-size="10px" fill="#000" opacity="1">0.4</text><text text-anchor="end" transform="translate(-7,343.5671877176538)" font-family="sans-serif" font-size="10px" fill="#000" opacity="1">0.5</text><text text-anchor="end" transform="translate(-7,291.68062526118456)" font-family="sans-serif" font-size="10px" fill="#000" opacity="1">0.6</text><text text-anchor="end" transform="translate(-7,239.79406280471537)" font-family="sans-serif" font-size="10px" fill="#000" opacity="1">0.7</text><text text-anchor="end" transform="translate(-7,187.90750034824603)" font-family="sans-serif" font-size="10px" fill="#000" opacity="1">0.8</text><text text-anchor="end" transform="translate(-7,136.02093789177684)" font-family="sans-serif" font-size="10px" fill="#000" opacity="1">0.9</text><text text-anchor="end" transform="translate(-7,84.13437543530759)" font-family="sans-serif" font-size="10px" fill="#000" opacity="1">1.0</text><text text-anchor="end" transform="translate(-7,32.24781297883827)" font-family="sans-serif" font-size="10px" fill="#000" opacity="1">1.1</text></g><g class="mark-rule role-axis-domain" pointer-events="none"><line transform="translate(0,600)" x2="0" y2="-600" stroke="#888" stroke-width="1" opacity="1"/></g><g class="mark-text role-axis-title" pointer-events="none"><text text-anchor="middle" transform="translate(-24.9013671875,300) rotate(-90) translate(0,-2)" font-family="sans-serif" font-size="11px" font-weight="bold" fill="#000" opacity="1">Execution Time (seconds, lower=better)</text></g></g><path class="foreground" aria-hidden="true" d="" pointer-events="none" display="none"/></g></g><g class="mark-group role-scope" role="graphics-object" aria-roledescription="group mark container"><g transform="translate(5.714285714285666,592.2812688372707)"><path class="background" aria-hidden="true" d="M3.8593655813646706,0L98.99777727577819,0C101.12781912514838,0,102.85714285714286,1.7293237319944879,102.85714285714286,3.8593655813646706L102.85714285714286,7.718731162729341C102.85714285714286,7.718731162729341,102.85714285714286,7.718731162729341,102.85714285714286,7.718731162729341L0,7.718731162729341C0,7.718731162729341,0,7.718731162729341,0,7.718731162729341L0,3.8593655813646706C0,1.7293237319944879,1.7293237319944879,0,3.8593655813646706,0Z"/><g clip-path="url(#clip1)"><g class="mark-group role-scope" role="graphics-object" aria-roledescription="group mark container"><g transform="translate(0,-592.2812688372707)"><path class="background" aria-hidden="true" d="M0,0h102.85714285714286v0h-102.85714285714286Z"/><g><g class="mark-rect role-mark layer_0_marks" role="graphics-object" aria-roledescription="rect mark container"><path aria-label="Parser: toml_rs&#xA;0.3.16; Execution Time (seconds, lower=better): 0.014876166; parser: toml_rs; Execution Time (s): 0.0149; Slowdown: 1.00" role="graphics-symbol" aria-roledescription="bar" d="M0,592.2812688372707h102.85714285714286v7.718731162729341h-102.85714285714286Z" fill="#66a61e"/></g></g><path class="foreground" aria-hidden="true" d="" display="none"/></g></g></g><path class="foreground" aria-hidden="true" d="" display="none"/></g><g transform="translate(119.99999999999996,578.0660795843736)"><path class="background" aria-hidden="true" d="M6,0L96.85714285714286,0C100.16863300410687,0,102.85714285714286,2.688509853036,102.85714285714286,6L102.85714285714286,21.933920415626403C102.85714285714286,21.933920415626403,102.85714285714286,21.933920415626403,102.85714285714286,21.933920415626403L0,21.933920415626403C0,21.933920415626403,0,21.933920415626403,0,21.933920415626403L0,6C0,2.688509853036,2.688509853036,0,6,0Z"/><g clip-path="url(#clip2)"><g class="mark-group role-scope" role="graphics-object" aria-roledescription="group mark container"><g transform="translate(0,-578.0660795843736)"><path class="background" aria-hidden="true" d="M0,0h102.85714285714286v0h-102.85714285714286Z"/><g><g class="mark-rect role-mark layer_0_marks" role="graphics-object" aria-roledescription="rect mark container"><path aria-label="Parser: pytomlpp&#xA;1.1.0; Execution Time (seconds, lower=better): 0.0422728340002; parser: pytomlpp; Execution Time (s): 0.0423; Slowdown: 2.84" role="graphics-symbol" aria-roledescription="bar" d="M0,578.0660795843736h102.85714285714286v21.933920415626403h-102.85714285714286Z" fill="#1b9e77"/></g></g><path class="foreground" aria-hidden="true" d="" display="none"/></g></g></g><path class="foreground" aria-hidden="true" d="" display="none"/></g><g transform="translate(234.28571428571425,574.7129322779871)"><path class="background" aria-hidden="true" d="M6,0L96.85714285714286,0C100.16863300410687,0,102.85714285714286,2.688509853036,102.85714285714286,6L102.85714285714286,25.28706772201292C102.85714285714286,25.28706772201292,102.85714285714286,25.28706772201292,102.85714285714286,25.28706772201292L0,25.28706772201292C0,25.28706772201292,0,25.28706772201292,0,25.28706772201292L0,6C0,2.688509853036,2.688509853036,0,6,0Z"/><g clip-path="url(#clip3)"><g class="mark-group role-scope" role="graphics-object" aria-roledescription="group mark container"><g transform="translate(0,-574.7129322779871)"><path class="background" aria-hidden="true" d="M0,0h102.85714285714286v0h-102.85714285714286Z"/><g><g class="mark-rect role-mark layer_0_marks" role="graphics-object" aria-roledescription="rect mark container"><path aria-label="Parser: rtoml&#xA;0.13.0; Execution Time (seconds, lower=better): 0.0487352920002; parser: rtoml; Execution Time (s): 0.0487; Slowdown: 3.28" role="graphics-symbol" aria-roledescription="bar" d="M0,574.7129322779871h102.85714285714286v25.28706772201292h-102.85714285714286Z" fill="#7570b3"/></g></g><path class="foreground" aria-hidden="true" d="" display="none"/></g></g></g><path class="foreground" aria-hidden="true" d="" display="none"/></g><g transform="translate(348.57142857142856,546.9735982092275)"><path class="background" aria-hidden="true" d="M6,0L96.85714285714286,0C100.16863300410687,0,102.85714285714286,2.688509853036,102.85714285714286,6L102.85714285714286,53.026401790772525C102.85714285714286,53.026401790772525,102.85714285714286,53.026401790772525,102.85714285714286,53.026401790772525L0,53.026401790772525C0,53.026401790772525,0,53.026401790772525,0,53.026401790772525L0,6C0,2.688509853036,2.688509853036,0,6,0Z"/><g clip-path="url(#clip4)"><g class="mark-group role-scope" role="graphics-object" aria-roledescription="group mark container"><g transform="translate(0,-546.9735982092275)"><path class="background" aria-hidden="true" d="M0,0h102.85714285714286v0h-102.85714285714286Z"/><g><g class="mark-rect role-mark layer_0_marks" role="graphics-object" aria-roledescription="rect mark container"><path aria-label="Parser: tomllib&#xA;built-in; Execution Time (seconds, lower=better): 0.102196791; parser: tomllib; Execution Time (s): 0.1022; Slowdown: 6.87" role="graphics-symbol" aria-roledescription="bar" d="M0,546.9735982092275h102.85714285714286v53.026401790772525h-102.85714285714286Z" fill="#a6761d"/></g></g><path class="foreground" aria-hidden="true" d="" display="none"/></g></g></g><path class="foreground" aria-hidden="true" d="" display="none"/></g><g transform="translate(462.85714285714283,418.99024580109335)"><path class="background" aria-hidden="true" d="M6,0L96.85714285714286,0C100.16863300410687,0,102.85714285714286,2.688509853036,102.85714285714286,6L102.85714285714286,181.00975419890665C102.85714285714286,181.00975419890665,102.85714285714286,181.00975419890665,102.85714285714286,181.00975419890665L0,181.00975419890665C0,181.00975419890665,0,181.00975419890665,0,181.00975419890665L0,6C0,2.688509853036,2.688509853036,0,6,0Z"/><g clip-path="url(#clip5)"><g class="mark-group role-scope" role="graphics-object" aria-roledescription="group mark container"><g transform="translate(0,-418.99024580109335)"><path class="background" aria-hidden="true" d="M0,0h102.85714285714286v0h-102.85714285714286Z"/><g><g class="mark-rect role-mark layer_0_marks" role="graphics-object" aria-roledescription="rect mark container"><path aria-label="Parser: toml&#xA;0.10.2; Execution Time (seconds, lower=better): 0.348856709; parser: toml; Execution Time (s): 0.3489; Slowdown: 23.45" role="graphics-symbol" aria-roledescription="bar" d="M0,418.99024580109335h102.85714285714286v181.00975419890665h-102.85714285714286Z" fill="#e7298a"/></g></g><path class="foreground" aria-hidden="true" d="" display="none"/></g></g></g><path class="foreground" aria-hidden="true" d="" display="none"/></g><g transform="translate(577.1428571428571,371.0362961484798)"><path class="background" aria-hidden="true" d="M6,0L96.85714285714286,0C100.16863300410687,0,102.85714285714286,2.688509853036,102.85714285714286,6L102.85714285714286,228.96370385152022C102.85714285714286,228.96370385152022,102.85714285714286,228.96370385152022,102.85714285714286,228.96370385152022L0,228.96370385152022C0,228.96370385152022,0,228.96370385152022,0,228.96370385152022L0,6C0,2.688509853036,2.688509853036,0,6,0Z"/><g clip-path="url(#clip6)"><g class="mark-group role-scope" role="graphics-object" aria-roledescription="group mark container"><g transform="translate(0,-371.0362961484798)"><path class="background" aria-hidden="true" d="M0,0h102.85714285714286v0h-102.85714285714286Z"/><g><g class="mark-rect role-mark layer_0_marks" role="graphics-object" aria-roledescription="rect mark container"><path aria-label="Parser: qtoml&#xA;0.3.1; Execution Time (seconds, lower=better): 0.441277458; parser: qtoml; Execution Time (s): 0.4413; Slowdown: 29.66" role="graphics-symbol" aria-roledescription="bar" d="M0,371.0362961484798h102.85714285714286v228.96370385152022h-102.85714285714286Z" fill="#d95f02"/></g></g><path class="foreground" aria-hidden="true" d="" display="none"/></g></g></g><path class="foreground" aria-hidden="true" d="" display="none"/></g><g transform="translate(691.4285714285714,28.571428571428605)"><path class="background" aria-hidden="true" d="M6,0L96.85714285714286,0C100.16863300410687,0,102.85714285714286,2.688509853036,102.85714285714286,6L102.85714285714286,571.4285714285714C102.85714285714286,571.4285714285714,102.85714285714286,571.4285714285714,102.85714285714286,571.4285714285714L0,571.4285714285714C0,571.4285714285714,0,571.4285714285714,0,571.4285714285714L0,6C0,2.688509853036,2.688509853036,0,6,0Z"/><g clip-path="url(#clip7)"><g class="mark-group role-scope" role="graphics-object" aria-roledescription="group mark container"><g transform="translate(0,-28.571428571428605)"><path class="background" aria-hidden="true" d="M0,0h102.85714285714286v0h-102.85714285714286Z"/><g><g class="mark-rect role-mark layer_0_marks" role="graphics-object" aria-roledescription="rect mark container"><path aria-label="Parser: tomlkit&#xA;0.15.1; Execution Time (seconds, lower=better): 1.101303583; parser: tomlkit; Execution Time (s): 1.1013; Slowdown: 74.03" role="graphics-symbol" aria-roledescription="bar" d="M0,28.571428571428605h102.85714285714286v571.4285714285714h-102.85714285714286Z" fill="#e6ab02"/></g></g><path class="foreground" aria-hidden="true" d="" display="none"/></g></g></g><path class="foreground" aria-hidden="true" d="" display="none"/></g></g><g class="mark-text role-mark layer_1_marks" role="graphics-object" aria-roledescription="text mark container"><text aria-label="Parser: toml_rs&#xA;0.3.16; Execution Time (seconds, lower=better): 0.014876166; parser: toml_rs; label: 0.0149s (x1.00); Execution Time (s): 0.0149; Slowdown: 1.00" role="graphics-symbol" aria-roledescription="text mark" text-anchor="middle" transform="translate(57.142857142857096,588.2812688372707)" font-family="sans-serif" font-size="9px" font-weight="bold" fill="#66a61e">0.0149s (x1.00)</text><text aria-label="Parser: pytomlpp&#xA;1.1.0; Execution Time (seconds, lower=better): 0.0422728340002; parser: pytomlpp; label: 0.0423s (x2.84); Execution Time (s): 0.0423; Slowdown: 2.84" role="graphics-symbol" aria-roledescription="text mark" text-anchor="middle" transform="translate(171.4285714285714,574.0660795843736)" font-family="sans-serif" font-size="9px" font-weight="bold" fill="#1b9e77">0.0423s (x2.84)</text><text aria-label="Parser: rtoml&#xA;0.13.0; Execution Time (seconds, lower=better): 0.0487352920002; parser: rtoml; label: 0.0487s (x3.28); Execution Time (s): 0.0487; Slowdown: 3.28" role="graphics-symbol" aria-roledescription="text mark" text-anchor="middle" transform="translate(285.71428571428567,570.7129322779871)" font-family="sans-serif" font-size="9px" font-weight="bold" fill="#7570b3">0.0487s (x3.28)</text><text aria-label="Parser: tomllib&#xA;built-in; Execution Time (seconds, lower=better): 0.102196791; parser: tomllib; label: 0.1022s (x6.87); Execution Time (s): 0.1022; Slowdown: 6.87" role="graphics-symbol" aria-roledescription="text mark" text-anchor="middle" transform="translate(400,542.9735982092275)" font-family="sans-serif" font-size="9px" font-weight="bold" fill="#a6761d">0.1022s (x6.87)</text><text aria-label="Parser: toml&#xA;0.10.2; Execution Time (seconds, lower=better): 0.348856709; parser: toml; label: 0.3489s (x23.45); Execution Time (s): 0.3489; Slowdown: 23.45" role="graphics-symbol" aria-roledescription="text mark" text-anchor="middle" transform="translate(514.2857142857142,414.99024580109335)" font-family="sans-serif" font-size="9px" font-weight="bold" fill="#e7298a">0.3489s (x23.45)</text><text aria-label="Parser: qtoml&#xA;0.3.1; Execution Time (seconds, lower=better): 0.441277458; parser: qtoml; label: 0.4413s (x29.66); Execution Time (s): 0.4413; Slowdown: 29.66" role="graphics-symbol" aria-roledescription="text mark" text-anchor="middle" transform="translate(628.5714285714286,367.0362961484798)" font-family="sans-serif" font-size="9px" font-weight="bold" fill="#d95f02">0.4413s (x29.66)</text><text aria-label="Parser: tomlkit&#xA;0.15.1; Execution Time (seconds, lower=better): 1.101303583; parser: tomlkit; label: 1.1013s (x74.03); Execution Time (s): 1.1013; Slowdown: 74.03" role="graphics-symbol" aria-roledescription="text mark" text-anchor="middle" transform="translate(742.8571428571429,24.571428571428605)" font-family="sans-serif" font-size="9px" font-weight="bold" fill="#e6ab02">1.1013s (x74.03)</text></g><g class="mark-group role-title"><g transform="translate(400,-31)"><path class="background" aria-hidden="true" d="M0,0h0v0h0Z" pointer-events="none"/><g><g class="mark-text role-title-text" role="graphics-symbol" aria-roledescription="title" aria-label="Title text 'TOML parsers benchmark (loads)'" pointer-events="none"><text text-anchor="middle" transform="translate(0,10)" font-family="sans-serif" font-size="13px" font-weight="bold" fill="#000" opacity="1">TOML parsers benchmark (loads)</text></g><g class="mark-text role-title-subtitle" role="graphics-symbol" aria-roledescription="subtitle" aria-label="Subtitle text 'Python: 3.14.6 (Darwin 25.4.0) | CPU: Apple M1 (Virtual)'" pointer-events="none"><text text-anchor="middle" transform="translate(0,25)" font-family="sans-serif" font-size="12px" fill="#000" opacity="1">Python: 3.14.6 (Darwin 25.4.0) | CPU: Apple M1 (Virtual)</text></g></g><path class="foreground" aria-hidden="true" d="" pointer-events="none" display="none"/></g></g></g><path class="foreground" aria-hidden="true" d="" display="none"/></g></g></g><defs><clipPath id="clip1"><path d="M3.8593655813646706,0L98.99777727577819,0C101.12781912514838,0,102.85714285714286,1.7293237319944879,102.85714285714286,3.8593655813646706L102.85714285714286,7.718731162729341C102.85714285714286,7.718731162729341,102.85714285714286,7.718731162729341,102.85714285714286,7.718731162729341L0,7.718731162729341C0,7.718731162729341,0,7.718731162729341,0,7.718731162729341L0,3.8593655813646706C0,1.7293237319944879,1.7293237319944879,0,3.8593655813646706,0Z"/></clipPath><clipPath id="clip2"><path d="M6,0L96.85714285714286,0C100.16863300410687,0,102.85714285714286,2.688509853036,102.85714285714286,6L102.85714285714286,21.933920415626403C102.85714285714286,21.933920415626403,102.85714285714286,21.933920415626403,102.85714285714286,21.933920415626403L0,21.933920415626403C0,21.933920415626403,0,21.933920415626403,0,21.933920415626403L0,6C0,2.688509853036,2.688509853036,0,6,0Z"/></clipPath><clipPath id="clip3"><path d="M6,0L96.85714285714286,0C100.16863300410687,0,102.85714285714286,2.688509853036,102.85714285714286,6L102.85714285714286,25.28706772201292C102.85714285714286,25.28706772201292,102.85714285714286,25.28706772201292,102.85714285714286,25.28706772201292L0,25.28706772201292C0,25.28706772201292,0,25.28706772201292,0,25.28706772201292L0,6C0,2.688509853036,2.688509853036,0,6,0Z"/></clipPath><clipPath id="clip4"><path d="M6,0L96.85714285714286,0C100.16863300410687,0,102.85714285714286,2.688509853036,102.85714285714286,6L102.85714285714286,53.026401790772525C102.85714285714286,53.026401790772525,102.85714285714286,53.026401790772525,102.85714285714286,53.026401790772525L0,53.026401790772525C0,53.026401790772525,0,53.026401790772525,0,53.026401790772525L0,6C0,2.688509853036,2.688509853036,0,6,0Z"/></clipPath><clipPath id="clip5"><path d="M6,0L96.85714285714286,0C100.16863300410687,0,102.85714285714286,2.688509853036,102.85714285714286,6L102.85714285714286,181.00975419890665C102.85714285714286,181.00975419890665,102.85714285714286,181.00975419890665,102.85714285714286,181.00975419890665L0,181.00975419890665C0,181.00975419890665,0,181.00975419890665,0,181.00975419890665L0,6C0,2.688509853036,2.688509853036,0,6,0Z"/></clipPath><clipPath id="clip6"><path d="M6,0L96.85714285714286,0C100.16863300410687,0,102.85714285714286,2.688509853036,102.85714285714286,6L102.85714285714286,228.96370385152022C102.85714285714286,228.96370385152022,102.85714285714286,228.96370385152022,102.85714285714286,228.96370385152022L0,228.96370385152022C0,228.96370385152022,0,228.96370385152022,0,228.96370385152022L0,6C0,2.688509853036,2.688509853036,0,6,0Z"/></clipPath><clipPath id="clip7"><path d="M6,0L96.85714285714286,0C100.16863300410687,0,102.85714285714286,2.688509853036,102.85714285714286,6L102.85714285714286,571.4285714285714C102.85714285714286,571.4285714285714,102.85714285714286,571.4285714285714,102.85714285714286,571.4285714285714L0,571.4285714285714C0,571.4285714285714,0,571.4285714285714,0,571.4285714285714L0,6C0,2.688509853036,2.688509853036,0,6,0Z"/></clipPath></defs></svg>