<svg xmlns="http://www.w3.org/2000/svg" xmlns:xlink="http://www.w3.org/1999/xlink" version="1.1" class="marks" width="846" height="687" viewBox="0 0 846 687"><rect width="846" height="687" fill="white"/><g fill="none" stroke-miterlimit="10" transform="translate(41,36)"><g class="mark-group role-frame root" role="graphics-object" aria-roledescription="group mark container"><g transform="translate(0,0)"><path class="background" aria-hidden="true" d="M0.5,0.5h800v600h-800Z" stroke="#ddd"/><g><g class="mark-group role-axis" role="graphics-symbol" aria-roledescription="axis" aria-label="X-axis titled 'Parser' for a discrete scale with 7 values: toml_rs&#xA;0.3.14, pytomlpp&#xA;1.1.0, rtoml&#xA;0.13.0, tomllib&#xA;built-in, toml&#xA;0.10.2, qtoml&#xA;0.3.1, tomlkit&#xA;0.15.0"><g transform="translate(0.5,600.5)"><path class="background" aria-hidden="true" d="M0,0h0v0h0Z" pointer-events="none"/><g><g class="mark-rule role-axis-tick" pointer-events="none"><line transform="translate(57,0)" x2="0" y2="5" stroke="#888" stroke-width="1" opacity="1"/><line transform="translate(171,0)" x2="0" y2="5" stroke="#888" stroke-width="1" opacity="1"/><line transform="translate(285,0)" x2="0" y2="5" stroke="#888" stroke-width="1" opacity="1"/><line transform="translate(400,0)" x2="0" y2="5" stroke="#888" stroke-width="1" opacity="1"/><line transform="translate(514,0)" x2="0" y2="5" stroke="#888" stroke-width="1" opacity="1"/><line transform="translate(628,0)" x2="0" y2="5" stroke="#888" stroke-width="1" opacity="1"/><line transform="translate(742,0)" x2="0" y2="5" stroke="#888" stroke-width="1" opacity="1"/></g><g class="mark-text role-axis-label" pointer-events="none"><text text-anchor="middle" transform="translate(56.642857142857096,15)" font-family="sans-serif" font-size="10px" fill="#000" opacity="1"><tspan>toml_rs</tspan><tspan x="0" dy="14">0.3.14</tspan></text><text text-anchor="middle" transform="translate(170.9285714285714,15)" font-family="sans-serif" font-size="10px" fill="#000" opacity="1"><tspan>pytomlpp</tspan><tspan x="0" dy="14">1.1.0</tspan></text><text text-anchor="middle" transform="translate(285.21428571428567,15)" font-family="sans-serif" font-size="10px" fill="#000" opacity="1"><tspan>rtoml</tspan><tspan x="0" dy="14">0.13.0</tspan></text><text text-anchor="middle" transform="translate(399.5,15)" font-family="sans-serif" font-size="10px" fill="#000" opacity="1"><tspan>tomllib</tspan><tspan x="0" dy="14">built-in</tspan></text><text text-anchor="middle" transform="translate(513.7857142857142,15)" font-family="sans-serif" font-size="10px" fill="#000" opacity="1"><tspan>toml</tspan><tspan x="0" dy="14">0.10.2</tspan></text><text text-anchor="middle" transform="translate(628.0714285714286,15)" font-family="sans-serif" font-size="10px" fill="#000" opacity="1"><tspan>qtoml</tspan><tspan x="0" dy="14">0.3.1</tspan></text><text text-anchor="middle" transform="translate(742.3571428571429,15)" font-family="sans-serif" font-size="10px" fill="#000" opacity="1"><tspan>tomlkit</tspan><tspan x="0" dy="14">0.15.0</tspan></text></g><g class="mark-rule role-axis-domain" pointer-events="none"><line transform="translate(0,0)" x2="800" y2="0" stroke="#888" stroke-width="1" opacity="1"/></g><g class="mark-text role-axis-title" pointer-events="none"><text text-anchor="middle" transform="translate(400,44)" font-family="sans-serif" font-size="11px" font-weight="bold" fill="#000" opacity="1">Parser</text></g></g><path class="foreground" aria-hidden="true" d="" pointer-events="none" display="none"/></g></g><g class="mark-group role-axis" role="graphics-symbol" aria-roledescription="axis" aria-label="Y-axis titled 'Execution Time (seconds, lower=better)' for a linear scale with values from 0.0 to 3.4"><g transform="translate(0.5,0.5)"><path class="background" aria-hidden="true" d="M0,0h0v0h0Z" pointer-events="none"/><g><g class="mark-rule role-axis-tick" pointer-events="none"><line transform="translate(0,600)" x2="-5" y2="0" stroke="#888" stroke-width="1" opacity="1"/><line transform="translate(0,565)" x2="-5" y2="0" stroke="#888" stroke-width="1" opacity="1"/><line transform="translate(0,529)" x2="-5" y2="0" stroke="#888" stroke-width="1" opacity="1"/><line transform="translate(0,494)" x2="-5" y2="0" stroke="#888" stroke-width="1" opacity="1"/><line transform="translate(0,458)" x2="-5" y2="0" stroke="#888" stroke-width="1" opacity="1"/><line transform="translate(0,423)" x2="-5" y2="0" stroke="#888" stroke-width="1" opacity="1"/><line transform="translate(0,388)" x2="-5" y2="0" stroke="#888" stroke-width="1" opacity="1"/><line transform="translate(0,352)" x2="-5" y2="0" stroke="#888" stroke-width="1" opacity="1"/><line transform="translate(0,317)" x2="-5" y2="0" stroke="#888" stroke-width="1" opacity="1"/><line transform="translate(0,281)" x2="-5" y2="0" stroke="#888" stroke-width="1" opacity="1"/><line transform="translate(0,246)" x2="-5" y2="0" stroke="#888" stroke-width="1" opacity="1"/><line transform="translate(0,211)" x2="-5" y2="0" stroke="#888" stroke-width="1" opacity="1"/><line transform="translate(0,175)" x2="-5" y2="0" stroke="#888" stroke-width="1" opacity="1"/><line transform="translate(0,140)" x2="-5" y2="0" stroke="#888" stroke-width="1" opacity="1"/><line transform="translate(0,104)" x2="-5" y2="0" stroke="#888" stroke-width="1" opacity="1"/><line transform="translate(0,69)" x2="-5" y2="0" stroke="#888" stroke-width="1" opacity="1"/><line transform="translate(0,33)" x2="-5" y2="0" stroke="#888" stroke-width="1" opacity="1"/></g><g class="mark-text role-axis-label" pointer-events="none"><text text-anchor="end" transform="translate(-7,603)" font-family="sans-serif" font-size="10px" fill="#000" opacity="1">0.0</text><text text-anchor="end" transform="translate(-7,567.5917695634154)" font-family="sans-serif" font-size="10px" fill="#000" opacity="1">0.2</text><text text-anchor="end" transform="translate(-7,532.1835391268307)" font-family="sans-serif" font-size="10px" fill="#000" opacity="1">0.4</text><text text-anchor="end" transform="translate(-7,496.77530869024616)" font-family="sans-serif" font-size="10px" fill="#000" opacity="1">0.6</text><text text-anchor="end" transform="translate(-7,461.36707825366153)" font-family="sans-serif" font-size="10px" fill="#000" opacity="1">0.8</text><text text-anchor="end" transform="translate(-7,425.9588478170769)" font-family="sans-serif" font-size="10px" fill="#000" opacity="1">1.0</text><text text-anchor="end" transform="translate(-7,390.5506173804923)" font-family="sans-serif" font-size="10px" fill="#000" opacity="1">1.2</text><text text-anchor="end" transform="translate(-7,355.1423869439077)" font-family="sans-serif" font-size="10px" fill="#000" opacity="1">1.4</text><text text-anchor="end" transform="translate(-7,319.73415650732306)" font-family="sans-serif" font-size="10px" fill="#000" opacity="1">1.6</text><text text-anchor="end" transform="translate(-7,284.32592607073843)" font-family="sans-serif" font-size="10px" fill="#000" opacity="1">1.8</text><text text-anchor="end" transform="translate(-7,248.91769563415383)" font-family="sans-serif" font-size="10px" fill="#000" opacity="1">2.0</text><text text-anchor="end" transform="translate(-7,213.5094651975692)" font-family="sans-serif" font-size="10px" fill="#000" opacity="1">2.2</text><text text-anchor="end" transform="translate(-7,178.10123476098462)" font-family="sans-serif" font-size="10px" fill="#000" opacity="1">2.4</text><text text-anchor="end" transform="translate(-7,142.6930043244)" font-family="sans-serif" font-size="10px" fill="#000" opacity="1">2.6</text><text text-anchor="end" transform="translate(-7,107.28477388781543)" font-family="sans-serif" font-size="10px" fill="#000" opacity="1">2.8</text><text text-anchor="end" transform="translate(-7,71.8765434512308)" font-family="sans-serif" font-size="10px" fill="#000" opacity="1">3.0</text><text text-anchor="end" transform="translate(-7,36.4683130146461)" font-family="sans-serif" font-size="10px" fill="#000" opacity="1">3.2</text></g><g class="mark-rule role-axis-domain" pointer-events="none"><line transform="translate(0,600)" x2="0" y2="-600" stroke="#888" stroke-width="1" opacity="1"/></g><g class="mark-text role-axis-title" pointer-events="none"><text text-anchor="middle" transform="translate(-24.9013671875,300) rotate(-90) translate(0,-2)" font-family="sans-serif" font-size="11px" font-weight="bold" fill="#000" opacity="1">Execution Time (seconds, lower=better)</text></g></g><path class="foreground" aria-hidden="true" d="" pointer-events="none" display="none"/></g></g><g class="mark-group role-scope" role="graphics-object" aria-roledescription="group mark container"><g transform="translate(5.714285714285666,597.050818921074)"><path class="background" aria-hidden="true" d="M1.4745905394630086,0L101.38255231767985,0C102.1964009913862,0,102.85714285714286,0.6607418657566615,102.85714285714286,1.4745905394630086L102.85714285714286,2.949181078926017C102.85714285714286,2.949181078926017,102.85714285714286,2.949181078926017,102.85714285714286,2.949181078926017L0,2.949181078926017C0,2.949181078926017,0,2.949181078926017,0,2.949181078926017L0,1.4745905394630086C0,0.6607418657566615,0.6607418657566615,0,1.4745905394630086,0Z"/><g clip-path="url(#clip1)"><g class="mark-group role-scope" role="graphics-object" aria-roledescription="group mark container"><g transform="translate(0,-597.050818921074)"><path class="background" aria-hidden="true" d="M0,0h102.85714285714286v0h-102.85714285714286Z"/><g><g class="mark-rect role-mark layer_0_marks" role="graphics-object" aria-roledescription="rect mark container"><path aria-label="Parser: toml_rs&#xA;0.3.14; Execution Time (seconds, lower=better): 0.0166581669999; parser: toml_rs; Execution Time (s): 0.0167; Slowdown: 1.00" role="graphics-symbol" aria-roledescription="bar" d="M0,597.050818921074h102.85714285714286v2.949181078926017h-102.85714285714286Z" fill="#66a61e"/></g></g><path class="foreground" aria-hidden="true" d="" display="none"/></g></g></g><path class="foreground" aria-hidden="true" d="" display="none"/></g><g transform="translate(119.99999999999996,592.0943528714433)"><path class="background" aria-hidden="true" d="M3.952823564278333,0L98.90431929286453,0C101.08594200716367,0,102.85714285714286,1.7712008499791965,102.85714285714286,3.952823564278333L102.85714285714286,7.905647128556666C102.85714285714286,7.905647128556666,102.85714285714286,7.905647128556666,102.85714285714286,7.905647128556666L0,7.905647128556666C0,7.905647128556666,0,7.905647128556666,0,7.905647128556666L0,3.952823564278333C0,1.7712008499791965,1.7712008499791965,0,3.952823564278333,0Z"/><g clip-path="url(#clip2)"><g class="mark-group role-scope" role="graphics-object" aria-roledescription="group mark container"><g transform="translate(0,-592.0943528714433)"><path class="background" aria-hidden="true" d="M0,0h102.85714285714286v0h-102.85714285714286Z"/><g><g class="mark-rect role-mark layer_0_marks" role="graphics-object" aria-roledescription="rect mark container"><path aria-label="Parser: pytomlpp&#xA;1.1.0; Execution Time (seconds, lower=better): 0.044654291; parser: pytomlpp; Execution Time (s): 0.0447; Slowdown: 2.68" role="graphics-symbol" aria-roledescription="bar" d="M0,592.0943528714433h102.85714285714286v7.905647128556666h-102.85714285714286Z" fill="#1b9e77"/></g></g><path class="foreground" aria-hidden="true" d="" display="none"/></g></g></g><path class="foreground" aria-hidden="true" d="" display="none"/></g><g transform="translate(234.28571428571425,591.6918421991857)"><path class="background" aria-hidden="true" d="M4.154078900407171,0L98.70306395673569,0C100.99576251480393,0,102.85714285714286,1.8613803423389388,102.85714285714286,4.154078900407171L102.85714285714286,8.308157800814342C102.85714285714286,8.308157800814342,102.85714285714286,8.308157800814342,102.85714285714286,8.308157800814342L0,8.308157800814342C0,8.308157800814342,0,8.308157800814342,0,8.308157800814342L0,4.154078900407171C0,1.8613803423389388,1.8613803423389388,0,4.154078900407171,0Z"/><g clip-path="url(#clip3)"><g class="mark-group role-scope" role="graphics-object" aria-roledescription="group mark container"><g transform="translate(0,-591.6918421991857)"><path class="background" aria-hidden="true" d="M0,0h102.85714285714286v0h-102.85714285714286Z"/><g><g class="mark-rect role-mark layer_0_marks" role="graphics-object" aria-roledescription="rect mark container"><path aria-label="Parser: rtoml&#xA;0.13.0; Execution Time (seconds, lower=better): 0.046927834; parser: rtoml; Execution Time (s): 0.0469; Slowdown: 2.82" role="graphics-symbol" aria-roledescription="bar" d="M0,591.6918421991857h102.85714285714286v8.308157800814342h-102.85714285714286Z" fill="#7570b3"/></g></g><path class="foreground" aria-hidden="true" d="" display="none"/></g></g></g><path class="foreground" aria-hidden="true" d="" display="none"/></g><g transform="translate(348.57142857142856,576.0226749856868)"><path class="background" aria-hidden="true" d="M6,0L96.85714285714286,0C100.16863300410687,0,102.85714285714286,2.688509853036,102.85714285714286,6L102.85714285714286,23.977325014313237C102.85714285714286,23.977325014313237,102.85714285714286,23.977325014313237,102.85714285714286,23.977325014313237L0,23.977325014313237C0,23.977325014313237,0,23.977325014313237,0,23.977325014313237L0,6C0,2.688509853036,2.688509853036,0,6,0Z"/><g clip-path="url(#clip4)"><g class="mark-group role-scope" role="graphics-object" aria-roledescription="group mark container"><g transform="translate(0,-576.0226749856868)"><path class="background" aria-hidden="true" d="M0,0h102.85714285714286v0h-102.85714285714286Z"/><g><g class="mark-rect role-mark layer_0_marks" role="graphics-object" aria-roledescription="rect mark container"><path aria-label="Parser: tomllib&#xA;built-in; Execution Time (seconds, lower=better): 0.135433625; parser: tomllib; Execution Time (s): 0.1354; Slowdown: 8.13" role="graphics-symbol" aria-roledescription="bar" d="M0,576.0226749856868h102.85714285714286v23.977325014313237h-102.85714285714286Z" fill="#a6761d"/></g></g><path class="foreground" aria-hidden="true" d="" display="none"/></g></g></g><path class="foreground" aria-hidden="true" d="" display="none"/></g><g transform="translate(462.85714285714283,522.8720810062119)"><path class="background" aria-hidden="true" d="M6,0L96.85714285714286,0C100.16863300410687,0,102.85714285714286,2.688509853036,102.85714285714286,6L102.85714285714286,77.12791899378806C102.85714285714286,77.12791899378806,102.85714285714286,77.12791899378806,102.85714285714286,77.12791899378806L0,77.12791899378806C0,77.12791899378806,0,77.12791899378806,0,77.12791899378806L0,6C0,2.688509853036,2.688509853036,0,6,0Z"/><g clip-path="url(#clip5)"><g class="mark-group role-scope" role="graphics-object" aria-roledescription="group mark container"><g transform="translate(0,-522.8720810062119)"><path class="background" aria-hidden="true" d="M0,0h102.85714285714286v0h-102.85714285714286Z"/><g><g class="mark-rect role-mark layer_0_marks" role="graphics-object" aria-roledescription="rect mark container"><path aria-label="Parser: toml&#xA;0.10.2; Execution Time (seconds, lower=better): 0.435649667; parser: toml; Execution Time (s): 0.4356; Slowdown: 26.15" role="graphics-symbol" aria-roledescription="bar" d="M0,522.8720810062119h102.85714285714286v77.12791899378806h-102.85714285714286Z" fill="#e7298a"/></g></g><path class="foreground" aria-hidden="true" d="" display="none"/></g></g></g><path class="foreground" aria-hidden="true" d="" display="none"/></g><g transform="translate(577.1428571428571,519.5760543570375)"><path class="background" aria-hidden="true" d="M6,0L96.85714285714286,0C100.16863300410687,0,102.85714285714286,2.688509853036,102.85714285714286,6L102.85714285714286,80.42394564296251C102.85714285714286,80.42394564296251,102.85714285714286,80.42394564296251,102.85714285714286,80.42394564296251L0,80.42394564296251C0,80.42394564296251,0,80.42394564296251,0,80.42394564296251L0,6C0,2.688509853036,2.688509853036,0,6,0Z"/><g clip-path="url(#clip6)"><g class="mark-group role-scope" role="graphics-object" aria-roledescription="group mark container"><g transform="translate(0,-519.5760543570375)"><path class="background" aria-hidden="true" d="M0,0h102.85714285714286v0h-102.85714285714286Z"/><g><g class="mark-rect role-mark layer_0_marks" role="graphics-object" aria-roledescription="rect mark container"><path aria-label="Parser: qtoml&#xA;0.3.1; Execution Time (seconds, lower=better): 0.454266958; parser: qtoml; Execution Time (s): 0.4543; Slowdown: 27.27" role="graphics-symbol" aria-roledescription="bar" d="M0,519.5760543570375h102.85714285714286v80.42394564296251h-102.85714285714286Z" fill="#d95f02"/></g></g><path class="foreground" aria-hidden="true" d="" display="none"/></g></g></g><path class="foreground" aria-hidden="true" d="" display="none"/></g><g transform="translate(691.4285714285714,28.571428571428605)"><path class="background" aria-hidden="true" d="M6,0L96.85714285714286,0C100.16863300410687,0,102.85714285714286,2.688509853036,102.85714285714286,6L102.85714285714286,571.4285714285714C102.85714285714286,571.4285714285714,102.85714285714286,571.4285714285714,102.85714285714286,571.4285714285714L0,571.4285714285714C0,571.4285714285714,0,571.4285714285714,0,571.4285714285714L0,6C0,2.688509853036,2.688509853036,0,6,0Z"/><g clip-path="url(#clip7)"><g class="mark-group role-scope" role="graphics-object" aria-roledescription="group mark container"><g transform="translate(0,-28.571428571428605)"><path class="background" aria-hidden="true" d="M0,0h102.85714285714286v0h-102.85714285714286Z"/><g><g class="mark-rect role-mark layer_0_marks" role="graphics-object" aria-roledescription="rect mark container"><path aria-label="Parser: tomlkit&#xA;0.15.0; Execution Time (seconds, lower=better): 3.227659583; parser: tomlkit; Execution Time (s): 3.2277; Slowdown: 193.76" role="graphics-symbol" aria-roledescription="bar" d="M0,28.571428571428605h102.85714285714286v571.4285714285714h-102.85714285714286Z" fill="#e6ab02"/></g></g><path class="foreground" aria-hidden="true" d="" display="none"/></g></g></g><path class="foreground" aria-hidden="true" d="" display="none"/></g></g><g class="mark-text role-mark layer_1_marks" role="graphics-object" aria-roledescription="text mark container"><text aria-label="Parser: toml_rs&#xA;0.3.14; Execution Time (seconds, lower=better): 0.0166581669999; parser: toml_rs; label: 0.0167s (x1.00); Execution Time (s): 0.0167; Slowdown: 1.00" role="graphics-symbol" aria-roledescription="text mark" text-anchor="middle" transform="translate(57.142857142857096,593.050818921074)" font-family="sans-serif" font-size="9px" font-weight="bold" fill="#66a61e">0.0167s (x1.00)</text><text aria-label="Parser: pytomlpp&#xA;1.1.0; Execution Time (seconds, lower=better): 0.044654291; parser: pytomlpp; label: 0.0447s (x2.68); Execution Time (s): 0.0447; Slowdown: 2.68" role="graphics-symbol" aria-roledescription="text mark" text-anchor="middle" transform="translate(171.4285714285714,588.0943528714433)" font-family="sans-serif" font-size="9px" font-weight="bold" fill="#1b9e77">0.0447s (x2.68)</text><text aria-label="Parser: rtoml&#xA;0.13.0; Execution Time (seconds, lower=better): 0.046927834; parser: rtoml; label: 0.0469s (x2.82); Execution Time (s): 0.0469; Slowdown: 2.82" role="graphics-symbol" aria-roledescription="text mark" text-anchor="middle" transform="translate(285.71428571428567,587.6918421991857)" font-family="sans-serif" font-size="9px" font-weight="bold" fill="#7570b3">0.0469s (x2.82)</text><text aria-label="Parser: tomllib&#xA;built-in; Execution Time (seconds, lower=better): 0.135433625; parser: tomllib; label: 0.1354s (x8.13); Execution Time (s): 0.1354; Slowdown: 8.13" role="graphics-symbol" aria-roledescription="text mark" text-anchor="middle" transform="translate(400,572.0226749856868)" font-family="sans-serif" font-size="9px" font-weight="bold" fill="#a6761d">0.1354s (x8.13)</text><text aria-label="Parser: toml&#xA;0.10.2; Execution Time (seconds, lower=better): 0.435649667; parser: toml; label: 0.4356s (x26.15); Execution Time (s): 0.4356; Slowdown: 26.15" role="graphics-symbol" aria-roledescription="text mark" text-anchor="middle" transform="translate(514.2857142857142,518.8720810062119)" font-family="sans-serif" font-size="9px" font-weight="bold" fill="#e7298a">0.4356s (x26.15)</text><text aria-label="Parser: qtoml&#xA;0.3.1; Execution Time (seconds, lower=better): 0.454266958; parser: qtoml; label: 0.4543s (x27.27); Execution Time (s): 0.4543; Slowdown: 27.27" role="graphics-symbol" aria-roledescription="text mark" text-anchor="middle" transform="translate(628.5714285714286,515.5760543570375)" font-family="sans-serif" font-size="9px" font-weight="bold" fill="#d95f02">0.4543s (x27.27)</text><text aria-label="Parser: tomlkit&#xA;0.15.0; Execution Time (seconds, lower=better): 3.227659583; parser: tomlkit; label: 3.2277s (x193.76); Execution Time (s): 3.2277; Slowdown: 193.76" role="graphics-symbol" aria-roledescription="text mark" text-anchor="middle" transform="translate(742.8571428571429,24.571428571428605)" font-family="sans-serif" font-size="9px" font-weight="bold" fill="#e6ab02">3.2277s (x193.76)</text></g><g class="mark-group role-title"><g transform="translate(400,-31)"><path class="background" aria-hidden="true" d="M0,0h0v0h0Z" pointer-events="none"/><g><g class="mark-text role-title-text" role="graphics-symbol" aria-roledescription="title" aria-label="Title text 'TOML parsers benchmark (loads)'" pointer-events="none"><text text-anchor="middle" transform="translate(0,10)" font-family="sans-serif" font-size="13px" font-weight="bold" fill="#000" opacity="1">TOML parsers benchmark (loads)</text></g><g class="mark-text role-title-subtitle" role="graphics-symbol" aria-roledescription="subtitle" aria-label="Subtitle text 'Python: 3.14.6 (Darwin 24.6.0) | CPU: Unknown'" pointer-events="none"><text text-anchor="middle" transform="translate(0,25)" font-family="sans-serif" font-size="12px" fill="#000" opacity="1">Python: 3.14.6 (Darwin 24.6.0) | CPU: Unknown</text></g></g><path class="foreground" aria-hidden="true" d="" pointer-events="none" display="none"/></g></g></g><path class="foreground" aria-hidden="true" d="" display="none"/></g></g></g><defs><clipPath id="clip1"><path d="M1.4745905394630086,0L101.38255231767985,0C102.1964009913862,0,102.85714285714286,0.6607418657566615,102.85714285714286,1.4745905394630086L102.85714285714286,2.949181078926017C102.85714285714286,2.949181078926017,102.85714285714286,2.949181078926017,102.85714285714286,2.949181078926017L0,2.949181078926017C0,2.949181078926017,0,2.949181078926017,0,2.949181078926017L0,1.4745905394630086C0,0.6607418657566615,0.6607418657566615,0,1.4745905394630086,0Z"/></clipPath><clipPath id="clip2"><path d="M3.952823564278333,0L98.90431929286453,0C101.08594200716367,0,102.85714285714286,1.7712008499791965,102.85714285714286,3.952823564278333L102.85714285714286,7.905647128556666C102.85714285714286,7.905647128556666,102.85714285714286,7.905647128556666,102.85714285714286,7.905647128556666L0,7.905647128556666C0,7.905647128556666,0,7.905647128556666,0,7.905647128556666L0,3.952823564278333C0,1.7712008499791965,1.7712008499791965,0,3.952823564278333,0Z"/></clipPath><clipPath id="clip3"><path d="M4.154078900407171,0L98.70306395673569,0C100.99576251480393,0,102.85714285714286,1.8613803423389388,102.85714285714286,4.154078900407171L102.85714285714286,8.308157800814342C102.85714285714286,8.308157800814342,102.85714285714286,8.308157800814342,102.85714285714286,8.308157800814342L0,8.308157800814342C0,8.308157800814342,0,8.308157800814342,0,8.308157800814342L0,4.154078900407171C0,1.8613803423389388,1.8613803423389388,0,4.154078900407171,0Z"/></clipPath><clipPath id="clip4"><path d="M6,0L96.85714285714286,0C100.16863300410687,0,102.85714285714286,2.688509853036,102.85714285714286,6L102.85714285714286,23.977325014313237C102.85714285714286,23.977325014313237,102.85714285714286,23.977325014313237,102.85714285714286,23.977325014313237L0,23.977325014313237C0,23.977325014313237,0,23.977325014313237,0,23.977325014313237L0,6C0,2.688509853036,2.688509853036,0,6,0Z"/></clipPath><clipPath id="clip5"><path d="M6,0L96.85714285714286,0C100.16863300410687,0,102.85714285714286,2.688509853036,102.85714285714286,6L102.85714285714286,77.12791899378806C102.85714285714286,77.12791899378806,102.85714285714286,77.12791899378806,102.85714285714286,77.12791899378806L0,77.12791899378806C0,77.12791899378806,0,77.12791899378806,0,77.12791899378806L0,6C0,2.688509853036,2.688509853036,0,6,0Z"/></clipPath><clipPath id="clip6"><path d="M6,0L96.85714285714286,0C100.16863300410687,0,102.85714285714286,2.688509853036,102.85714285714286,6L102.85714285714286,80.42394564296251C102.85714285714286,80.42394564296251,102.85714285714286,80.42394564296251,102.85714285714286,80.42394564296251L0,80.42394564296251C0,80.42394564296251,0,80.42394564296251,0,80.42394564296251L0,6C0,2.688509853036,2.688509853036,0,6,0Z"/></clipPath><clipPath id="clip7"><path d="M6,0L96.85714285714286,0C100.16863300410687,0,102.85714285714286,2.688509853036,102.85714285714286,6L102.85714285714286,571.4285714285714C102.85714285714286,571.4285714285714,102.85714285714286,571.4285714285714,102.85714285714286,571.4285714285714L0,571.4285714285714C0,571.4285714285714,0,571.4285714285714,0,571.4285714285714L0,6C0,2.688509853036,2.688509853036,0,6,0Z"/></clipPath></defs></svg>