<svg xmlns="http://www.w3.org/2000/svg" xmlns:xlink="http://www.w3.org/1999/xlink" version="1.1" class="marks" width="846" height="687" viewBox="0 0 846 687"><rect width="846" height="687" fill="white"/><g fill="none" stroke-miterlimit="10" transform="translate(41,36)"><g class="mark-group role-frame root" role="graphics-object" aria-roledescription="group mark container"><g transform="translate(0,0)"><path class="background" aria-hidden="true" d="M0.5,0.5h800v600h-800Z" stroke="#ddd"/><g><g class="mark-group role-axis" role="graphics-symbol" aria-roledescription="axis" aria-label="X-axis titled 'Parser' for a discrete scale with 7 values: toml_rs&#xA;0.3.14, rtoml&#xA;0.13.0, pytomlpp&#xA;1.1.0, tomllib&#xA;built-in, toml&#xA;0.10.2, qtoml&#xA;0.3.1, tomlkit&#xA;0.15.0"><g transform="translate(0.5,600.5)"><path class="background" aria-hidden="true" d="M0,0h0v0h0Z" pointer-events="none"/><g><g class="mark-rule role-axis-tick" pointer-events="none"><line transform="translate(57,0)" x2="0" y2="5" stroke="#888" stroke-width="1" opacity="1"/><line transform="translate(171,0)" x2="0" y2="5" stroke="#888" stroke-width="1" opacity="1"/><line transform="translate(285,0)" x2="0" y2="5" stroke="#888" stroke-width="1" opacity="1"/><line transform="translate(400,0)" x2="0" y2="5" stroke="#888" stroke-width="1" opacity="1"/><line transform="translate(514,0)" x2="0" y2="5" stroke="#888" stroke-width="1" opacity="1"/><line transform="translate(628,0)" x2="0" y2="5" stroke="#888" stroke-width="1" opacity="1"/><line transform="translate(742,0)" x2="0" y2="5" stroke="#888" stroke-width="1" opacity="1"/></g><g class="mark-text role-axis-label" pointer-events="none"><text text-anchor="middle" transform="translate(56.642857142857096,15)" font-family="sans-serif" font-size="10px" fill="#000" opacity="1"><tspan>toml_rs</tspan><tspan x="0" dy="14">0.3.14</tspan></text><text text-anchor="middle" transform="translate(170.9285714285714,15)" font-family="sans-serif" font-size="10px" fill="#000" opacity="1"><tspan>rtoml</tspan><tspan x="0" dy="14">0.13.0</tspan></text><text text-anchor="middle" transform="translate(285.21428571428567,15)" font-family="sans-serif" font-size="10px" fill="#000" opacity="1"><tspan>pytomlpp</tspan><tspan x="0" dy="14">1.1.0</tspan></text><text text-anchor="middle" transform="translate(399.5,15)" font-family="sans-serif" font-size="10px" fill="#000" opacity="1"><tspan>tomllib</tspan><tspan x="0" dy="14">built-in</tspan></text><text text-anchor="middle" transform="translate(513.7857142857142,15)" font-family="sans-serif" font-size="10px" fill="#000" opacity="1"><tspan>toml</tspan><tspan x="0" dy="14">0.10.2</tspan></text><text text-anchor="middle" transform="translate(628.0714285714286,15)" font-family="sans-serif" font-size="10px" fill="#000" opacity="1"><tspan>qtoml</tspan><tspan x="0" dy="14">0.3.1</tspan></text><text text-anchor="middle" transform="translate(742.3571428571429,15)" font-family="sans-serif" font-size="10px" fill="#000" opacity="1"><tspan>tomlkit</tspan><tspan x="0" dy="14">0.15.0</tspan></text></g><g class="mark-rule role-axis-domain" pointer-events="none"><line transform="translate(0,0)" x2="800" y2="0" stroke="#888" stroke-width="1" opacity="1"/></g><g class="mark-text role-axis-title" pointer-events="none"><text text-anchor="middle" transform="translate(400,44)" font-family="sans-serif" font-size="11px" font-weight="bold" fill="#000" opacity="1">Parser</text></g></g><path class="foreground" aria-hidden="true" d="" pointer-events="none" display="none"/></g></g><g class="mark-group role-axis" role="graphics-symbol" aria-roledescription="axis" aria-label="Y-axis titled 'Execution Time (seconds, lower=better)' for a linear scale with values from 0 to 5"><g transform="translate(0.5,0.5)"><path class="background" aria-hidden="true" d="M0,0h0v0h0Z" pointer-events="none"/><g><g class="mark-rule role-axis-tick" pointer-events="none"><line transform="translate(0,600)" x2="-5" y2="0" stroke="#888" stroke-width="1" opacity="1"/><line transform="translate(0,574)" x2="-5" y2="0" stroke="#888" stroke-width="1" opacity="1"/><line transform="translate(0,547)" x2="-5" y2="0" stroke="#888" stroke-width="1" opacity="1"/><line transform="translate(0,521)" x2="-5" y2="0" stroke="#888" stroke-width="1" opacity="1"/><line transform="translate(0,495)" x2="-5" y2="0" stroke="#888" stroke-width="1" opacity="1"/><line transform="translate(0,469)" x2="-5" y2="0" stroke="#888" stroke-width="1" opacity="1"/><line transform="translate(0,442)" x2="-5" y2="0" stroke="#888" stroke-width="1" opacity="1"/><line transform="translate(0,416)" x2="-5" y2="0" stroke="#888" stroke-width="1" opacity="1"/><line transform="translate(0,390)" x2="-5" y2="0" stroke="#888" stroke-width="1" opacity="1"/><line transform="translate(0,364)" x2="-5" y2="0" stroke="#888" stroke-width="1" opacity="1"/><line transform="translate(0,337)" x2="-5" y2="0" stroke="#888" stroke-width="1" opacity="1"/><line transform="translate(0,311)" x2="-5" y2="0" stroke="#888" stroke-width="1" opacity="1"/><line transform="translate(0,285)" x2="-5" y2="0" stroke="#888" stroke-width="1" opacity="1"/><line transform="translate(0,259)" x2="-5" y2="0" stroke="#888" stroke-width="1" opacity="1"/><line transform="translate(0,232)" x2="-5" y2="0" stroke="#888" stroke-width="1" opacity="1"/><line transform="translate(0,206)" x2="-5" y2="0" stroke="#888" stroke-width="1" opacity="1"/><line transform="translate(0,180)" x2="-5" y2="0" stroke="#888" stroke-width="1" opacity="1"/><line transform="translate(0,154)" x2="-5" y2="0" stroke="#888" stroke-width="1" opacity="1"/><line transform="translate(0,127)" x2="-5" y2="0" stroke="#888" stroke-width="1" opacity="1"/><line transform="translate(0,101)" x2="-5" y2="0" stroke="#888" stroke-width="1" opacity="1"/><line transform="translate(0,75)" x2="-5" y2="0" stroke="#888" stroke-width="1" opacity="1"/><line transform="translate(0,49)" x2="-5" y2="0" stroke="#888" stroke-width="1" opacity="1"/><line transform="translate(0,22)" x2="-5" y2="0" stroke="#888" stroke-width="1" opacity="1"/></g><g class="mark-text role-axis-label" pointer-events="none"><text text-anchor="end" transform="translate(-7,603)" font-family="sans-serif" font-size="10px" fill="#000" opacity="1">0.0</text><text text-anchor="end" transform="translate(-7,576.7391835287306)" font-family="sans-serif" font-size="10px" fill="#000" opacity="1">0.2</text><text text-anchor="end" transform="translate(-7,550.4783670574611)" font-family="sans-serif" font-size="10px" fill="#000" opacity="1">0.4</text><text text-anchor="end" transform="translate(-7,524.2175505861917)" font-family="sans-serif" font-size="10px" fill="#000" opacity="1">0.6</text><text text-anchor="end" transform="translate(-7,497.9567341149222)" font-family="sans-serif" font-size="10px" fill="#000" opacity="1">0.8</text><text text-anchor="end" transform="translate(-7,471.69591764365276)" font-family="sans-serif" font-size="10px" fill="#000" opacity="1">1.0</text><text text-anchor="end" transform="translate(-7,445.4351011723833)" font-family="sans-serif" font-size="10px" fill="#000" opacity="1">1.2</text><text text-anchor="end" transform="translate(-7,419.1742847011139)" font-family="sans-serif" font-size="10px" fill="#000" opacity="1">1.4</text><text text-anchor="end" transform="translate(-7,392.9134682298444)" font-family="sans-serif" font-size="10px" fill="#000" opacity="1">1.6</text><text text-anchor="end" transform="translate(-7,366.65265175857496)" font-family="sans-serif" font-size="10px" fill="#000" opacity="1">1.8</text><text text-anchor="end" transform="translate(-7,340.3918352873055)" font-family="sans-serif" font-size="10px" fill="#000" opacity="1">2.0</text><text text-anchor="end" transform="translate(-7,314.1310188160361)" font-family="sans-serif" font-size="10px" fill="#000" opacity="1">2.2</text><text text-anchor="end" transform="translate(-7,287.87020234476665)" font-family="sans-serif" font-size="10px" fill="#000" opacity="1">2.4</text><text text-anchor="end" transform="translate(-7,261.6093858734972)" font-family="sans-serif" font-size="10px" fill="#000" opacity="1">2.6</text><text text-anchor="end" transform="translate(-7,235.3485694022278)" font-family="sans-serif" font-size="10px" fill="#000" opacity="1">2.8</text><text text-anchor="end" transform="translate(-7,209.08775293095832)" font-family="sans-serif" font-size="10px" fill="#000" opacity="1">3.0</text><text text-anchor="end" transform="translate(-7,182.82693645968888)" font-family="sans-serif" font-size="10px" fill="#000" opacity="1">3.2</text><text text-anchor="end" transform="translate(-7,156.56611998841944)" font-family="sans-serif" font-size="10px" fill="#000" opacity="1">3.4</text><text text-anchor="end" transform="translate(-7,130.30530351715)" font-family="sans-serif" font-size="10px" fill="#000" opacity="1">3.6</text><text text-anchor="end" transform="translate(-7,104.04448704588059)" font-family="sans-serif" font-size="10px" fill="#000" opacity="1">3.8</text><text text-anchor="end" transform="translate(-7,77.78367057461115)" font-family="sans-serif" font-size="10px" fill="#000" opacity="1">4.0</text><text text-anchor="end" transform="translate(-7,51.52285410334165)" font-family="sans-serif" font-size="10px" fill="#000" opacity="1">4.2</text><text text-anchor="end" transform="translate(-7,25.26203763207215)" font-family="sans-serif" font-size="10px" fill="#000" opacity="1">4.4</text></g><g class="mark-rule role-axis-domain" pointer-events="none"><line transform="translate(0,600)" x2="0" y2="-600" stroke="#888" stroke-width="1" opacity="1"/></g><g class="mark-text role-axis-title" pointer-events="none"><text text-anchor="middle" transform="translate(-24.9013671875,300) rotate(-90) translate(0,-2)" font-family="sans-serif" font-size="11px" font-weight="bold" fill="#000" opacity="1">Execution Time (seconds, lower=better)</text></g></g><path class="foreground" aria-hidden="true" d="" pointer-events="none" display="none"/></g></g><g class="mark-group role-scope" role="graphics-object" aria-roledescription="group mark container"><g transform="translate(5.714285714285666,597.8075993238923)"><path class="background" aria-hidden="true" d="M1.0962003380538476,0L101.76094251908901,0C102.36595195551634,0,102.85714285714286,0.49119090162652723,102.85714285714286,1.0962003380538476L102.85714285714286,2.1924006761076953C102.85714285714286,2.1924006761076953,102.85714285714286,2.1924006761076953,102.85714285714286,2.1924006761076953L0,2.1924006761076953C0,2.1924006761076953,0,2.1924006761076953,0,2.1924006761076953L0,1.0962003380538476C0,0.49119090162652723,0.49119090162652723,0,1.0962003380538476,0Z"/><g clip-path="url(#clip1)"><g class="mark-group role-scope" role="graphics-object" aria-roledescription="group mark container"><g transform="translate(0,-597.8075993238923)"><path class="background" aria-hidden="true" d="M0,0h102.85714285714286v0h-102.85714285714286Z"/><g><g class="mark-rect role-mark layer_0_marks" role="graphics-object" aria-roledescription="rect mark container"><path aria-label="Parser: toml_rs&#xA;0.3.14; Execution Time (seconds, lower=better): 0.016697125; parser: toml_rs; Execution Time (s): 0.0167; Slowdown: 1.00" role="graphics-symbol" aria-roledescription="bar" d="M0,597.8075993238923h102.85714285714286v2.1924006761076953h-102.85714285714286Z" fill="#66a61e"/></g></g><path class="foreground" aria-hidden="true" d="" display="none"/></g></g></g><path class="foreground" aria-hidden="true" d="" display="none"/></g><g transform="translate(119.99999999999996,592.6180243526585)"><path class="background" aria-hidden="true" d="M3.6909878236707527,0L99.16615503347211,0C101.20326666858041,0,102.85714285714286,1.6538761885624536,102.85714285714286,3.6909878236707527L102.85714285714286,7.3819756473415055C102.85714285714286,7.3819756473415055,102.85714285714286,7.3819756473415055,102.85714285714286,7.3819756473415055L0,7.3819756473415055C0,7.3819756473415055,0,7.3819756473415055,0,7.3819756473415055L0,3.6909878236707527C0,1.6538761885624536,1.6538761885624536,0,3.6909878236707527,0Z"/><g clip-path="url(#clip2)"><g class="mark-group role-scope" role="graphics-object" aria-roledescription="group mark container"><g transform="translate(0,-592.6180243526585)"><path class="background" aria-hidden="true" d="M0,0h102.85714285714286v0h-102.85714285714286Z"/><g><g class="mark-rect role-mark layer_0_marks" role="graphics-object" aria-roledescription="rect mark container"><path aria-label="Parser: rtoml&#xA;0.13.0; Execution Time (seconds, lower=better): 0.056220458; parser: rtoml; Execution Time (s): 0.0562; Slowdown: 3.37" role="graphics-symbol" aria-roledescription="bar" d="M0,592.6180243526585h102.85714285714286v7.3819756473415055h-102.85714285714286Z" fill="#7570b3"/></g></g><path class="foreground" aria-hidden="true" d="" display="none"/></g></g></g><path class="foreground" aria-hidden="true" d="" display="none"/></g><g transform="translate(234.28571428571425,590.8759365417548)"><path class="background" aria-hidden="true" d="M4.562031729122623,0L98.29511112802024,0C100.81296498154136,0,102.85714285714286,2.0441778756015054,102.85714285714286,4.562031729122623L102.85714285714286,9.124063458245246C102.85714285714286,9.124063458245246,102.85714285714286,9.124063458245246,102.85714285714286,9.124063458245246L0,9.124063458245246C0,9.124063458245246,0,9.124063458245246,0,9.124063458245246L0,4.562031729122623C0,2.0441778756015054,2.0441778756015054,0,4.562031729122623,0Z"/><g clip-path="url(#clip3)"><g class="mark-group role-scope" role="graphics-object" aria-roledescription="group mark container"><g transform="translate(0,-590.8759365417548)"><path class="background" aria-hidden="true" d="M0,0h102.85714285714286v0h-102.85714285714286Z"/><g><g class="mark-rect role-mark layer_0_marks" role="graphics-object" aria-roledescription="rect mark container"><path aria-label="Parser: pytomlpp&#xA;1.1.0; Execution Time (seconds, lower=better): 0.069488041; parser: pytomlpp; Execution Time (s): 0.0695; Slowdown: 4.16" role="graphics-symbol" aria-roledescription="bar" d="M0,590.8759365417548h102.85714285714286v9.124063458245246h-102.85714285714286Z" fill="#1b9e77"/></g></g><path class="foreground" aria-hidden="true" d="" display="none"/></g></g></g><path class="foreground" aria-hidden="true" d="" display="none"/></g><g transform="translate(348.57142857142856,577.7366323232386)"><path class="background" aria-hidden="true" d="M6,0L96.85714285714286,0C100.16863300410687,0,102.85714285714286,2.688509853036,102.85714285714286,6L102.85714285714286,22.26336767676139C102.85714285714286,22.26336767676139,102.85714285714286,22.26336767676139,102.85714285714286,22.26336767676139L0,22.26336767676139C0,22.26336767676139,0,22.26336767676139,0,22.26336767676139L0,6C0,2.688509853036,2.688509853036,0,6,0Z"/><g clip-path="url(#clip4)"><g class="mark-group role-scope" role="graphics-object" aria-roledescription="group mark container"><g transform="translate(0,-577.7366323232386)"><path class="background" aria-hidden="true" d="M0,0h102.85714285714286v0h-102.85714285714286Z"/><g><g class="mark-rect role-mark layer_0_marks" role="graphics-object" aria-roledescription="rect mark container"><path aria-label="Parser: tomllib&#xA;built-in; Execution Time (seconds, lower=better): 0.169555792; parser: tomllib; Execution Time (s): 0.1696; Slowdown: 10.15" role="graphics-symbol" aria-roledescription="bar" d="M0,577.7366323232386h102.85714285714286v22.26336767676139h-102.85714285714286Z" fill="#a6761d"/></g></g><path class="foreground" aria-hidden="true" d="" display="none"/></g></g></g><path class="foreground" aria-hidden="true" d="" display="none"/></g><g transform="translate(462.85714285714283,515.3632103572353)"><path class="background" aria-hidden="true" d="M6,0L96.85714285714286,0C100.16863300410687,0,102.85714285714286,2.688509853036,102.85714285714286,6L102.85714285714286,84.63678964276471C102.85714285714286,84.63678964276471,102.85714285714286,84.63678964276471,102.85714285714286,84.63678964276471L0,84.63678964276471C0,84.63678964276471,0,84.63678964276471,0,84.63678964276471L0,6C0,2.688509853036,2.688509853036,0,6,0Z"/><g clip-path="url(#clip5)"><g class="mark-group role-scope" role="graphics-object" aria-roledescription="group mark container"><g transform="translate(0,-515.3632103572353)"><path class="background" aria-hidden="true" d="M0,0h102.85714285714286v0h-102.85714285714286Z"/><g><g class="mark-rect role-mark layer_0_marks" role="graphics-object" aria-roledescription="rect mark container"><path aria-label="Parser: toml&#xA;0.10.2; Execution Time (seconds, lower=better): 0.644586125; parser: toml; Execution Time (s): 0.6446; Slowdown: 38.60" role="graphics-symbol" aria-roledescription="bar" d="M0,515.3632103572353h102.85714285714286v84.63678964276471h-102.85714285714286Z" fill="#e7298a"/></g></g><path class="foreground" aria-hidden="true" d="" display="none"/></g></g></g><path class="foreground" aria-hidden="true" d="" display="none"/></g><g transform="translate(577.1428571428571,507.11648781996985)"><path class="background" aria-hidden="true" d="M6,0L96.85714285714286,0C100.16863300410687,0,102.85714285714286,2.688509853036,102.85714285714286,6L102.85714285714286,92.88351218003015C102.85714285714286,92.88351218003015,102.85714285714286,92.88351218003015,102.85714285714286,92.88351218003015L0,92.88351218003015C0,92.88351218003015,0,92.88351218003015,0,92.88351218003015L0,6C0,2.688509853036,2.688509853036,0,6,0Z"/><g clip-path="url(#clip6)"><g class="mark-group role-scope" role="graphics-object" aria-roledescription="group mark container"><g transform="translate(0,-507.11648781996985)"><path class="background" aria-hidden="true" d="M0,0h102.85714285714286v0h-102.85714285714286Z"/><g><g class="mark-rect role-mark layer_0_marks" role="graphics-object" aria-roledescription="rect mark container"><path aria-label="Parser: qtoml&#xA;0.3.1; Execution Time (seconds, lower=better): 0.707392417; parser: qtoml; Execution Time (s): 0.7074; Slowdown: 42.37" role="graphics-symbol" aria-roledescription="bar" d="M0,507.11648781996985h102.85714285714286v92.88351218003015h-102.85714285714286Z" fill="#d95f02"/></g></g><path class="foreground" aria-hidden="true" d="" display="none"/></g></g></g><path class="foreground" aria-hidden="true" d="" display="none"/></g><g transform="translate(691.4285714285714,28.57142857142867)"><path class="background" aria-hidden="true" d="M6,0L96.85714285714286,0C100.16863300410687,0,102.85714285714286,2.688509853036,102.85714285714286,6L102.85714285714286,571.4285714285713C102.85714285714286,571.4285714285713,102.85714285714286,571.4285714285713,102.85714285714286,571.4285714285713L0,571.4285714285713C0,571.4285714285713,0,571.4285714285713,0,571.4285714285713L0,6C0,2.688509853036,2.688509853036,0,6,0Z"/><g clip-path="url(#clip7)"><g class="mark-group role-scope" role="graphics-object" aria-roledescription="group mark container"><g transform="translate(0,-28.57142857142867)"><path class="background" aria-hidden="true" d="M0,0h102.85714285714286v0h-102.85714285714286Z"/><g><g class="mark-rect role-mark layer_0_marks" role="graphics-object" aria-roledescription="rect mark container"><path aria-label="Parser: tomlkit&#xA;0.15.0; Execution Time (seconds, lower=better): 4.35194825; parser: tomlkit; Execution Time (s): 4.3519; Slowdown: 260.64" role="graphics-symbol" aria-roledescription="bar" d="M0,28.57142857142867h102.85714285714286v571.4285714285713h-102.85714285714286Z" fill="#e6ab02"/></g></g><path class="foreground" aria-hidden="true" d="" display="none"/></g></g></g><path class="foreground" aria-hidden="true" d="" display="none"/></g></g><g class="mark-text role-mark layer_1_marks" role="graphics-object" aria-roledescription="text mark container"><text aria-label="Parser: toml_rs&#xA;0.3.14; Execution Time (seconds, lower=better): 0.016697125; parser: toml_rs; label: 0.0167s (x1.00); Execution Time (s): 0.0167; Slowdown: 1.00" role="graphics-symbol" aria-roledescription="text mark" text-anchor="middle" transform="translate(57.142857142857096,593.8075993238923)" font-family="sans-serif" font-size="9px" font-weight="bold" fill="#66a61e">0.0167s (x1.00)</text><text aria-label="Parser: rtoml&#xA;0.13.0; Execution Time (seconds, lower=better): 0.056220458; parser: rtoml; label: 0.0562s (x3.37); Execution Time (s): 0.0562; Slowdown: 3.37" role="graphics-symbol" aria-roledescription="text mark" text-anchor="middle" transform="translate(171.4285714285714,588.6180243526585)" font-family="sans-serif" font-size="9px" font-weight="bold" fill="#7570b3">0.0562s (x3.37)</text><text aria-label="Parser: pytomlpp&#xA;1.1.0; Execution Time (seconds, lower=better): 0.069488041; parser: pytomlpp; label: 0.0695s (x4.16); Execution Time (s): 0.0695; Slowdown: 4.16" role="graphics-symbol" aria-roledescription="text mark" text-anchor="middle" transform="translate(285.71428571428567,586.8759365417548)" font-family="sans-serif" font-size="9px" font-weight="bold" fill="#1b9e77">0.0695s (x4.16)</text><text aria-label="Parser: tomllib&#xA;built-in; Execution Time (seconds, lower=better): 0.169555792; parser: tomllib; label: 0.1696s (x10.15); Execution Time (s): 0.1696; Slowdown: 10.15" role="graphics-symbol" aria-roledescription="text mark" text-anchor="middle" transform="translate(400,573.7366323232386)" font-family="sans-serif" font-size="9px" font-weight="bold" fill="#a6761d">0.1696s (x10.15)</text><text aria-label="Parser: toml&#xA;0.10.2; Execution Time (seconds, lower=better): 0.644586125; parser: toml; label: 0.6446s (x38.60); Execution Time (s): 0.6446; Slowdown: 38.60" role="graphics-symbol" aria-roledescription="text mark" text-anchor="middle" transform="translate(514.2857142857142,511.3632103572353)" font-family="sans-serif" font-size="9px" font-weight="bold" fill="#e7298a">0.6446s (x38.60)</text><text aria-label="Parser: qtoml&#xA;0.3.1; Execution Time (seconds, lower=better): 0.707392417; parser: qtoml; label: 0.7074s (x42.37); Execution Time (s): 0.7074; Slowdown: 42.37" role="graphics-symbol" aria-roledescription="text mark" text-anchor="middle" transform="translate(628.5714285714286,503.11648781996985)" font-family="sans-serif" font-size="9px" font-weight="bold" fill="#d95f02">0.7074s (x42.37)</text><text aria-label="Parser: tomlkit&#xA;0.15.0; Execution Time (seconds, lower=better): 4.35194825; parser: tomlkit; label: 4.3519s (x260.64); Execution Time (s): 4.3519; Slowdown: 260.64" role="graphics-symbol" aria-roledescription="text mark" text-anchor="middle" transform="translate(742.8571428571429,24.57142857142867)" font-family="sans-serif" font-size="9px" font-weight="bold" fill="#e6ab02">4.3519s (x260.64)</text></g><g class="mark-group role-title"><g transform="translate(400,-31)"><path class="background" aria-hidden="true" d="M0,0h0v0h0Z" pointer-events="none"/><g><g class="mark-text role-title-text" role="graphics-symbol" aria-roledescription="title" aria-label="Title text 'TOML parsers benchmark (loads)'" pointer-events="none"><text text-anchor="middle" transform="translate(0,10)" font-family="sans-serif" font-size="13px" font-weight="bold" fill="#000" opacity="1">TOML parsers benchmark (loads)</text></g><g class="mark-text role-title-subtitle" role="graphics-symbol" aria-roledescription="subtitle" aria-label="Subtitle text 'Python: 3.14.6 (Darwin 24.6.0) | CPU: Unknown'" pointer-events="none"><text text-anchor="middle" transform="translate(0,25)" font-family="sans-serif" font-size="12px" fill="#000" opacity="1">Python: 3.14.6 (Darwin 24.6.0) | CPU: Unknown</text></g></g><path class="foreground" aria-hidden="true" d="" pointer-events="none" display="none"/></g></g></g><path class="foreground" aria-hidden="true" d="" display="none"/></g></g></g><defs><clipPath id="clip1"><path d="M1.0962003380538476,0L101.76094251908901,0C102.36595195551634,0,102.85714285714286,0.49119090162652723,102.85714285714286,1.0962003380538476L102.85714285714286,2.1924006761076953C102.85714285714286,2.1924006761076953,102.85714285714286,2.1924006761076953,102.85714285714286,2.1924006761076953L0,2.1924006761076953C0,2.1924006761076953,0,2.1924006761076953,0,2.1924006761076953L0,1.0962003380538476C0,0.49119090162652723,0.49119090162652723,0,1.0962003380538476,0Z"/></clipPath><clipPath id="clip2"><path d="M3.6909878236707527,0L99.16615503347211,0C101.20326666858041,0,102.85714285714286,1.6538761885624536,102.85714285714286,3.6909878236707527L102.85714285714286,7.3819756473415055C102.85714285714286,7.3819756473415055,102.85714285714286,7.3819756473415055,102.85714285714286,7.3819756473415055L0,7.3819756473415055C0,7.3819756473415055,0,7.3819756473415055,0,7.3819756473415055L0,3.6909878236707527C0,1.6538761885624536,1.6538761885624536,0,3.6909878236707527,0Z"/></clipPath><clipPath id="clip3"><path d="M4.562031729122623,0L98.29511112802024,0C100.81296498154136,0,102.85714285714286,2.0441778756015054,102.85714285714286,4.562031729122623L102.85714285714286,9.124063458245246C102.85714285714286,9.124063458245246,102.85714285714286,9.124063458245246,102.85714285714286,9.124063458245246L0,9.124063458245246C0,9.124063458245246,0,9.124063458245246,0,9.124063458245246L0,4.562031729122623C0,2.0441778756015054,2.0441778756015054,0,4.562031729122623,0Z"/></clipPath><clipPath id="clip4"><path d="M6,0L96.85714285714286,0C100.16863300410687,0,102.85714285714286,2.688509853036,102.85714285714286,6L102.85714285714286,22.26336767676139C102.85714285714286,22.26336767676139,102.85714285714286,22.26336767676139,102.85714285714286,22.26336767676139L0,22.26336767676139C0,22.26336767676139,0,22.26336767676139,0,22.26336767676139L0,6C0,2.688509853036,2.688509853036,0,6,0Z"/></clipPath><clipPath id="clip5"><path d="M6,0L96.85714285714286,0C100.16863300410687,0,102.85714285714286,2.688509853036,102.85714285714286,6L102.85714285714286,84.63678964276471C102.85714285714286,84.63678964276471,102.85714285714286,84.63678964276471,102.85714285714286,84.63678964276471L0,84.63678964276471C0,84.63678964276471,0,84.63678964276471,0,84.63678964276471L0,6C0,2.688509853036,2.688509853036,0,6,0Z"/></clipPath><clipPath id="clip6"><path d="M6,0L96.85714285714286,0C100.16863300410687,0,102.85714285714286,2.688509853036,102.85714285714286,6L102.85714285714286,92.88351218003015C102.85714285714286,92.88351218003015,102.85714285714286,92.88351218003015,102.85714285714286,92.88351218003015L0,92.88351218003015C0,92.88351218003015,0,92.88351218003015,0,92.88351218003015L0,6C0,2.688509853036,2.688509853036,0,6,0Z"/></clipPath><clipPath id="clip7"><path d="M6,0L96.85714285714286,0C100.16863300410687,0,102.85714285714286,2.688509853036,102.85714285714286,6L102.85714285714286,571.4285714285713C102.85714285714286,571.4285714285713,102.85714285714286,571.4285714285713,102.85714285714286,571.4285714285713L0,571.4285714285713C0,571.4285714285713,0,571.4285714285713,0,571.4285714285713L0,6C0,2.688509853036,2.688509853036,0,6,0Z"/></clipPath></defs></svg>