<svg xmlns="http://www.w3.org/2000/svg" xmlns:xlink="http://www.w3.org/1999/xlink" version="1.1" class="marks" width="846" height="687" viewBox="0 0 846 687"><rect width="846" height="687" fill="white"/><g fill="none" stroke-miterlimit="10" transform="translate(41,36)"><g class="mark-group role-frame root" role="graphics-object" aria-roledescription="group mark container"><g transform="translate(0,0)"><path class="background" aria-hidden="true" d="M0.5,0.5h800v600h-800Z" stroke="#ddd"/><g><g class="mark-group role-axis" role="graphics-symbol" aria-roledescription="axis" aria-label="X-axis titled 'Parser' for a discrete scale with 8 values: rtoml&#xA;0.13.0, toml_rs&#xA;0.4.2, tomledit&#xA;1.2.6, pytomlpp&#xA;1.1.0, toml&#xA;0.10.2, ending with tomlkit&#xA;0.15.1"><g transform="translate(0.5,600.5)"><path class="background" aria-hidden="true" d="M0,0h0v0h0Z" pointer-events="none"/><g><g class="mark-rule role-axis-tick" pointer-events="none"><line transform="translate(50,0)" x2="0" y2="5" stroke="#888" stroke-width="1" opacity="1"/><line transform="translate(150,0)" x2="0" y2="5" stroke="#888" stroke-width="1" opacity="1"/><line transform="translate(250,0)" x2="0" y2="5" stroke="#888" stroke-width="1" opacity="1"/><line transform="translate(350,0)" x2="0" y2="5" stroke="#888" stroke-width="1" opacity="1"/><line transform="translate(450,0)" x2="0" y2="5" stroke="#888" stroke-width="1" opacity="1"/><line transform="translate(550,0)" x2="0" y2="5" stroke="#888" stroke-width="1" opacity="1"/><line transform="translate(650,0)" x2="0" y2="5" stroke="#888" stroke-width="1" opacity="1"/><line transform="translate(750,0)" x2="0" y2="5" stroke="#888" stroke-width="1" opacity="1"/></g><g class="mark-text role-axis-label" pointer-events="none"><text text-anchor="middle" transform="translate(49.5,15)" font-family="sans-serif" font-size="10px" fill="#000" opacity="1"><tspan>rtoml</tspan><tspan x="0" dy="14">0.13.0</tspan></text><text text-anchor="middle" transform="translate(149.5,15)" font-family="sans-serif" font-size="10px" fill="#000" opacity="1"><tspan>toml_rs</tspan><tspan x="0" dy="14">0.4.2</tspan></text><text text-anchor="middle" transform="translate(249.5,15)" font-family="sans-serif" font-size="10px" fill="#000" opacity="1"><tspan>tomledit</tspan><tspan x="0" dy="14">1.2.6</tspan></text><text text-anchor="middle" transform="translate(349.5,15)" font-family="sans-serif" font-size="10px" fill="#000" opacity="1"><tspan>pytomlpp</tspan><tspan x="0" dy="14">1.1.0</tspan></text><text text-anchor="middle" transform="translate(449.5,15)" font-family="sans-serif" font-size="10px" fill="#000" opacity="1"><tspan>toml</tspan><tspan x="0" dy="14">0.10.2</tspan></text><text text-anchor="middle" transform="translate(549.5,15)" font-family="sans-serif" font-size="10px" fill="#000" opacity="1"><tspan>tomli-w</tspan><tspan x="0" dy="14">1.2.0</tspan></text><text text-anchor="middle" transform="translate(649.5,15)" font-family="sans-serif" font-size="10px" fill="#000" opacity="1"><tspan>tomlrt</tspan><tspan x="0" dy="14">2.2.14</tspan></text><text text-anchor="middle" transform="translate(749.5,15)" font-family="sans-serif" font-size="10px" fill="#000" opacity="1"><tspan>tomlkit</tspan><tspan x="0" dy="14">0.15.1</tspan></text></g><g class="mark-rule role-axis-domain" pointer-events="none"><line transform="translate(0,0)" x2="800" y2="0" stroke="#888" stroke-width="1" opacity="1"/></g><g class="mark-text role-axis-title" pointer-events="none"><text text-anchor="middle" transform="translate(400,44)" font-family="sans-serif" font-size="11px" font-weight="bold" fill="#000" opacity="1">Parser</text></g></g><path class="foreground" aria-hidden="true" d="" pointer-events="none" display="none"/></g></g><g class="mark-group role-axis" role="graphics-symbol" aria-roledescription="axis" aria-label="Y-axis titled 'Execution Time (seconds, lower=better)' for a linear scale with values from 0.0 to 1.3"><g transform="translate(0.5,0.5)"><path class="background" aria-hidden="true" d="M0,0h0v0h0Z" pointer-events="none"/><g><g class="mark-rule role-axis-tick" pointer-events="none"><line transform="translate(0,600)" x2="-5" y2="0" stroke="#888" stroke-width="1" opacity="1"/><line transform="translate(0,552)" x2="-5" y2="0" stroke="#888" stroke-width="1" opacity="1"/><line transform="translate(0,505)" x2="-5" y2="0" stroke="#888" stroke-width="1" opacity="1"/><line transform="translate(0,457)" x2="-5" y2="0" stroke="#888" stroke-width="1" opacity="1"/><line transform="translate(0,410)" x2="-5" y2="0" stroke="#888" stroke-width="1" opacity="1"/><line transform="translate(0,362)" x2="-5" y2="0" stroke="#888" stroke-width="1" opacity="1"/><line transform="translate(0,314)" x2="-5" y2="0" stroke="#888" stroke-width="1" opacity="1"/><line transform="translate(0,267)" x2="-5" y2="0" stroke="#888" stroke-width="1" opacity="1"/><line transform="translate(0,219)" x2="-5" y2="0" stroke="#888" stroke-width="1" opacity="1"/><line transform="translate(0,171)" x2="-5" y2="0" stroke="#888" stroke-width="1" opacity="1"/><line transform="translate(0,124)" x2="-5" y2="0" stroke="#888" stroke-width="1" opacity="1"/><line transform="translate(0,76)" x2="-5" y2="0" stroke="#888" stroke-width="1" opacity="1"/><line transform="translate(0,29)" x2="-5" y2="0" stroke="#888" stroke-width="1" opacity="1"/></g><g class="mark-text role-axis-label" pointer-events="none"><text text-anchor="end" transform="translate(-7,603)" font-family="sans-serif" font-size="10px" fill="#000" opacity="1">0.0</text><text text-anchor="end" transform="translate(-7,555.3778189208076)" font-family="sans-serif" font-size="10px" fill="#000" opacity="1">0.1</text><text text-anchor="end" transform="translate(-7,507.75563784161534)" font-family="sans-serif" font-size="10px" fill="#000" opacity="1">0.2</text><text text-anchor="end" transform="translate(-7,460.133456762423)" font-family="sans-serif" font-size="10px" fill="#000" opacity="1">0.3</text><text text-anchor="end" transform="translate(-7,412.5112756832306)" font-family="sans-serif" font-size="10px" fill="#000" opacity="1">0.4</text><text text-anchor="end" transform="translate(-7,364.8890946040383)" font-family="sans-serif" font-size="10px" fill="#000" opacity="1">0.5</text><text text-anchor="end" transform="translate(-7,317.26691352484596)" font-family="sans-serif" font-size="10px" fill="#000" opacity="1">0.6</text><text text-anchor="end" transform="translate(-7,269.64473244565363)" font-family="sans-serif" font-size="10px" fill="#000" opacity="1">0.7</text><text text-anchor="end" transform="translate(-7,222.0225513664613)" font-family="sans-serif" font-size="10px" fill="#000" opacity="1">0.8</text><text text-anchor="end" transform="translate(-7,174.40037028726894)" font-family="sans-serif" font-size="10px" fill="#000" opacity="1">0.9</text><text text-anchor="end" transform="translate(-7,126.77818920807661)" font-family="sans-serif" font-size="10px" fill="#000" opacity="1">1.0</text><text text-anchor="end" transform="translate(-7,79.15600812888421)" font-family="sans-serif" font-size="10px" fill="#000" opacity="1">1.1</text><text text-anchor="end" transform="translate(-7,31.53382704969194)" font-family="sans-serif" font-size="10px" fill="#000" opacity="1">1.2</text></g><g class="mark-rule role-axis-domain" pointer-events="none"><line transform="translate(0,600)" x2="0" y2="-600" stroke="#888" stroke-width="1" opacity="1"/></g><g class="mark-text role-axis-title" pointer-events="none"><text text-anchor="middle" transform="translate(-24.9013671875,300) rotate(-90) translate(0,-2)" font-family="sans-serif" font-size="11px" font-weight="bold" fill="#000" opacity="1">Execution Time (seconds, lower=better)</text></g></g><path class="foreground" aria-hidden="true" d="" pointer-events="none" display="none"/></g></g><g class="mark-group role-scope" role="graphics-object" aria-roledescription="group mark container"><g transform="translate(5,588.2430954628963)"><path class="background" aria-hidden="true" d="M5.8784522685518255,0L84.12154773144817,0C87.36595385923276,0,90,2.634046140767235,90,5.8784522685518255L90,11.756904537103651C90,11.756904537103651,90,11.756904537103651,90,11.756904537103651L0,11.756904537103651C0,11.756904537103651,0,11.756904537103651,0,11.756904537103651L0,5.8784522685518255C0,2.634046140767235,2.634046140767235,0,5.8784522685518255,0Z"/><g clip-path="url(#clip9)"><g class="mark-group role-scope" role="graphics-object" aria-roledescription="group mark container"><g transform="translate(0,-588.2430954628963)"><path class="background" aria-hidden="true" d="M0,0h90v0h-90Z"/><g><g class="mark-rect role-mark layer_0_marks" role="graphics-object" aria-roledescription="rect mark container"><path aria-label="Parser: rtoml&#xA;0.13.0; Execution Time (seconds, lower=better): 0.024687875; parser: rtoml; Execution Time (s): 0.0247; Slowdown: 1.00" role="graphics-symbol" aria-roledescription="bar" d="M0,588.2430954628963h90v11.756904537103651h-90Z" fill="#d95f02"/></g></g><path class="foreground" aria-hidden="true" d="" display="none"/></g></g></g><path class="foreground" aria-hidden="true" d="" display="none"/></g><g transform="translate(105,587.9918094048847)"><path class="background" aria-hidden="true" d="M6,0L84,0C87.311490146964,0,90,2.688509853036,90,6L90,12.008190595115252C90,12.008190595115252,90,12.008190595115252,90,12.008190595115252L0,12.008190595115252C0,12.008190595115252,0,12.008190595115252,0,12.008190595115252L0,6C0,2.688509853036,2.688509853036,0,6,0Z"/><g clip-path="url(#clip10)"><g class="mark-group role-scope" role="graphics-object" aria-roledescription="group mark container"><g transform="translate(0,-587.9918094048847)"><path class="background" aria-hidden="true" d="M0,0h90v0h-90Z"/><g><g class="mark-rect role-mark layer_0_marks" role="graphics-object" aria-roledescription="rect mark container"><path aria-label="Parser: toml_rs&#xA;0.4.2; Execution Time (seconds, lower=better): 0.025215541; parser: toml_rs; Execution Time (s): 0.0252; Slowdown: 1.02" role="graphics-symbol" aria-roledescription="bar" d="M0,587.9918094048847h90v12.008190595115252h-90Z" fill="#e7298a"/></g></g><path class="foreground" aria-hidden="true" d="" display="none"/></g></g></g><path class="foreground" aria-hidden="true" d="" display="none"/></g><g transform="translate(205,587.4075242932313)"><path class="background" aria-hidden="true" d="M6,0L84,0C87.311490146964,0,90,2.688509853036,90,6L90,12.59247570676871C90,12.59247570676871,90,12.59247570676871,90,12.59247570676871L0,12.59247570676871C0,12.59247570676871,0,12.59247570676871,0,12.59247570676871L0,6C0,2.688509853036,2.688509853036,0,6,0Z"/><g clip-path="url(#clip11)"><g class="mark-group role-scope" role="graphics-object" aria-roledescription="group mark container"><g transform="translate(0,-587.4075242932313)"><path class="background" aria-hidden="true" d="M0,0h90v0h-90Z"/><g><g class="mark-rect role-mark layer_0_marks" role="graphics-object" aria-roledescription="rect mark container"><path aria-label="Parser: tomledit&#xA;1.2.6; Execution Time (seconds, lower=better): 0.026442459; parser: tomledit; Execution Time (s): 0.0264; Slowdown: 1.07" role="graphics-symbol" aria-roledescription="bar" d="M0,587.4075242932313h90v12.59247570676871h-90Z" fill="#66a61e"/></g></g><path class="foreground" aria-hidden="true" d="" display="none"/></g></g></g><path class="foreground" aria-hidden="true" d="" display="none"/></g><g transform="translate(305,580.3819434502946)"><path class="background" aria-hidden="true" d="M6,0L84,0C87.311490146964,0,90,2.688509853036,90,6L90,19.618056549705443C90,19.618056549705443,90,19.618056549705443,90,19.618056549705443L0,19.618056549705443C0,19.618056549705443,0,19.618056549705443,0,19.618056549705443L0,6C0,2.688509853036,2.688509853036,0,6,0Z"/><g clip-path="url(#clip12)"><g class="mark-group role-scope" role="graphics-object" aria-roledescription="group mark container"><g transform="translate(0,-580.3819434502946)"><path class="background" aria-hidden="true" d="M0,0h90v0h-90Z"/><g><g class="mark-rect role-mark layer_0_marks" role="graphics-object" aria-roledescription="rect mark container"><path aria-label="Parser: pytomlpp&#xA;1.1.0; Execution Time (seconds, lower=better): 0.041195208; parser: pytomlpp; Execution Time (s): 0.0412; Slowdown: 1.67" role="graphics-symbol" aria-roledescription="bar" d="M0,580.3819434502946h90v19.618056549705443h-90Z" fill="#1b9e77"/></g></g><path class="foreground" aria-hidden="true" d="" display="none"/></g></g></g><path class="foreground" aria-hidden="true" d="" display="none"/></g><g transform="translate(405,570.1455556273146)"><path class="background" aria-hidden="true" d="M6,0L84,0C87.311490146964,0,90,2.688509853036,90,6L90,29.854444372685407C90,29.854444372685407,90,29.854444372685407,90,29.854444372685407L0,29.854444372685407C0,29.854444372685407,0,29.854444372685407,0,29.854444372685407L0,6C0,2.688509853036,2.688509853036,0,6,0Z"/><g clip-path="url(#clip13)"><g class="mark-group role-scope" role="graphics-object" aria-roledescription="group mark container"><g transform="translate(0,-570.1455556273146)"><path class="background" aria-hidden="true" d="M0,0h90v0h-90Z"/><g><g class="mark-rect role-mark layer_0_marks" role="graphics-object" aria-roledescription="rect mark container"><path aria-label="Parser: toml&#xA;0.10.2; Execution Time (seconds, lower=better): 0.062690208; parser: toml; Execution Time (s): 0.0627; Slowdown: 2.54" role="graphics-symbol" aria-roledescription="bar" d="M0,570.1455556273146h90v29.854444372685407h-90Z" fill="#7570b3"/></g></g><path class="foreground" aria-hidden="true" d="" display="none"/></g></g></g><path class="foreground" aria-hidden="true" d="" display="none"/></g><g transform="translate(505,569.8055927821412)"><path class="background" aria-hidden="true" d="M6,0L84,0C87.311490146964,0,90,2.688509853036,90,6L90,30.19440721785884C90,30.19440721785884,90,30.19440721785884,90,30.19440721785884L0,30.19440721785884C0,30.19440721785884,0,30.19440721785884,0,30.19440721785884L0,6C0,2.688509853036,2.688509853036,0,6,0Z"/><g clip-path="url(#clip14)"><g class="mark-group role-scope" role="graphics-object" aria-roledescription="group mark container"><g transform="translate(0,-569.8055927821412)"><path class="background" aria-hidden="true" d="M0,0h90v0h-90Z"/><g><g class="mark-rect role-mark layer_0_marks" role="graphics-object" aria-roledescription="rect mark container"><path aria-label="Parser: tomli-w&#xA;1.2.0; Execution Time (seconds, lower=better): 0.063404083; parser: tomli-w; Execution Time (s): 0.0634; Slowdown: 2.57" role="graphics-symbol" aria-roledescription="bar" d="M0,569.8055927821412h90v30.19440721785884h-90Z" fill="#e6ab02"/></g></g><path class="foreground" aria-hidden="true" d="" display="none"/></g></g></g><path class="foreground" aria-hidden="true" d="" display="none"/></g><g transform="translate(605,532.3066573194443)"><path class="background" aria-hidden="true" d="M6,0L84,0C87.311490146964,0,90,2.688509853036,90,6L90,67.6933426805557C90,67.6933426805557,90,67.6933426805557,90,67.6933426805557L0,67.6933426805557C0,67.6933426805557,0,67.6933426805557,0,67.6933426805557L0,6C0,2.688509853036,2.688509853036,0,6,0Z"/><g clip-path="url(#clip15)"><g class="mark-group role-scope" role="graphics-object" aria-roledescription="group mark container"><g transform="translate(0,-532.3066573194443)"><path class="background" aria-hidden="true" d="M0,0h90v0h-90Z"/><g><g class="mark-rect role-mark layer_0_marks" role="graphics-object" aria-roledescription="rect mark container"><path aria-label="Parser: tomlrt&#xA;2.2.14; Execution Time (seconds, lower=better): 0.142146666; parser: tomlrt; Execution Time (s): 0.1421; Slowdown: 5.76" role="graphics-symbol" aria-roledescription="bar" d="M0,532.3066573194443h90v67.6933426805557h-90Z" fill="#666666"/></g></g><path class="foreground" aria-hidden="true" d="" display="none"/></g></g></g><path class="foreground" aria-hidden="true" d="" display="none"/></g><g transform="translate(705,28.571428571428605)"><path class="background" aria-hidden="true" d="M6,0L84,0C87.311490146964,0,90,2.688509853036,90,6L90,571.4285714285714C90,571.4285714285714,90,571.4285714285714,90,571.4285714285714L0,571.4285714285714C0,571.4285714285714,0,571.4285714285714,0,571.4285714285714L0,6C0,2.688509853036,2.688509853036,0,6,0Z"/><g clip-path="url(#clip16)"><g class="mark-group role-scope" role="graphics-object" aria-roledescription="group mark container"><g transform="translate(0,-28.571428571428605)"><path class="background" aria-hidden="true" d="M0,0h90v0h-90Z"/><g><g class="mark-rect role-mark layer_0_marks" role="graphics-object" aria-roledescription="rect mark container"><path aria-label="Parser: tomlkit&#xA;0.15.1; Execution Time (seconds, lower=better): 1.199921042; parser: tomlkit; Execution Time (s): 1.1999; Slowdown: 48.60" role="graphics-symbol" aria-roledescription="bar" d="M0,28.571428571428605h90v571.4285714285714h-90Z" fill="#a6761d"/></g></g><path class="foreground" aria-hidden="true" d="" display="none"/></g></g></g><path class="foreground" aria-hidden="true" d="" display="none"/></g></g><g class="mark-text role-mark layer_1_marks" role="graphics-object" aria-roledescription="text mark container"><text aria-label="Parser: rtoml&#xA;0.13.0; Execution Time (seconds, lower=better): 0.024687875; parser: rtoml; label: 0.0247s (x1.00); Execution Time (s): 0.0247; Slowdown: 1.00" role="graphics-symbol" aria-roledescription="text mark" text-anchor="middle" transform="translate(50,584.2430954628963)" font-family="sans-serif" font-size="9px" font-weight="bold" fill="#d95f02">0.0247s (x1.00)</text><text aria-label="Parser: toml_rs&#xA;0.4.2; Execution Time (seconds, lower=better): 0.025215541; parser: toml_rs; label: 0.0252s (x1.02); Execution Time (s): 0.0252; Slowdown: 1.02" role="graphics-symbol" aria-roledescription="text mark" text-anchor="middle" transform="translate(150,583.9918094048847)" font-family="sans-serif" font-size="9px" font-weight="bold" fill="#e7298a">0.0252s (x1.02)</text><text aria-label="Parser: tomledit&#xA;1.2.6; Execution Time (seconds, lower=better): 0.026442459; parser: tomledit; label: 0.0264s (x1.07); Execution Time (s): 0.0264; Slowdown: 1.07" role="graphics-symbol" aria-roledescription="text mark" text-anchor="middle" transform="translate(250,583.4075242932313)" font-family="sans-serif" font-size="9px" font-weight="bold" fill="#66a61e">0.0264s (x1.07)</text><text aria-label="Parser: pytomlpp&#xA;1.1.0; Execution Time (seconds, lower=better): 0.041195208; parser: pytomlpp; label: 0.0412s (x1.67); Execution Time (s): 0.0412; Slowdown: 1.67" role="graphics-symbol" aria-roledescription="text mark" text-anchor="middle" transform="translate(350,576.3819434502946)" font-family="sans-serif" font-size="9px" font-weight="bold" fill="#1b9e77">0.0412s (x1.67)</text><text aria-label="Parser: toml&#xA;0.10.2; Execution Time (seconds, lower=better): 0.062690208; parser: toml; label: 0.0627s (x2.54); Execution Time (s): 0.0627; Slowdown: 2.54" role="graphics-symbol" aria-roledescription="text mark" text-anchor="middle" transform="translate(450,566.1455556273146)" font-family="sans-serif" font-size="9px" font-weight="bold" fill="#7570b3">0.0627s (x2.54)</text><text aria-label="Parser: tomli-w&#xA;1.2.0; Execution Time (seconds, lower=better): 0.063404083; parser: tomli-w; label: 0.0634s (x2.57); Execution Time (s): 0.0634; Slowdown: 2.57" role="graphics-symbol" aria-roledescription="text mark" text-anchor="middle" transform="translate(550,565.8055927821412)" font-family="sans-serif" font-size="9px" font-weight="bold" fill="#e6ab02">0.0634s (x2.57)</text><text aria-label="Parser: tomlrt&#xA;2.2.14; Execution Time (seconds, lower=better): 0.142146666; parser: tomlrt; label: 0.1421s (x5.76); Execution Time (s): 0.1421; Slowdown: 5.76" role="graphics-symbol" aria-roledescription="text mark" text-anchor="middle" transform="translate(650,528.3066573194443)" font-family="sans-serif" font-size="9px" font-weight="bold" fill="#666666">0.1421s (x5.76)</text><text aria-label="Parser: tomlkit&#xA;0.15.1; Execution Time (seconds, lower=better): 1.199921042; parser: tomlkit; label: 1.1999s (x48.60); Execution Time (s): 1.1999; Slowdown: 48.60" role="graphics-symbol" aria-roledescription="text mark" text-anchor="middle" transform="translate(750,24.571428571428605)" font-family="sans-serif" font-size="9px" font-weight="bold" fill="#a6761d">1.1999s (x48.60)</text></g><g class="mark-group role-title"><g transform="translate(400,-31)"><path class="background" aria-hidden="true" d="M0,0h0v0h0Z" pointer-events="none"/><g><g class="mark-text role-title-text" role="graphics-symbol" aria-roledescription="title" aria-label="Title text 'TOML parsers benchmark (dumps)'" pointer-events="none"><text text-anchor="middle" transform="translate(0,10)" font-family="sans-serif" font-size="13px" font-weight="bold" fill="#000" opacity="1">TOML parsers benchmark (dumps)</text></g><g class="mark-text role-title-subtitle" role="graphics-symbol" aria-roledescription="subtitle" aria-label="Subtitle text 'Python: 3.14.7 (Darwin 25.6.0) | CPU: Apple M1 (Virtual)'" pointer-events="none"><text text-anchor="middle" transform="translate(0,25)" font-family="sans-serif" font-size="12px" fill="#000" opacity="1">Python: 3.14.7 (Darwin 25.6.0) | CPU: Apple M1 (Virtual)</text></g></g><path class="foreground" aria-hidden="true" d="" pointer-events="none" display="none"/></g></g></g><path class="foreground" aria-hidden="true" d="" display="none"/></g></g></g><defs><clipPath id="clip9"><path d="M5.8784522685518255,0L84.12154773144817,0C87.36595385923276,0,90,2.634046140767235,90,5.8784522685518255L90,11.756904537103651C90,11.756904537103651,90,11.756904537103651,90,11.756904537103651L0,11.756904537103651C0,11.756904537103651,0,11.756904537103651,0,11.756904537103651L0,5.8784522685518255C0,2.634046140767235,2.634046140767235,0,5.8784522685518255,0Z"/></clipPath><clipPath id="clip10"><path d="M6,0L84,0C87.311490146964,0,90,2.688509853036,90,6L90,12.008190595115252C90,12.008190595115252,90,12.008190595115252,90,12.008190595115252L0,12.008190595115252C0,12.008190595115252,0,12.008190595115252,0,12.008190595115252L0,6C0,2.688509853036,2.688509853036,0,6,0Z"/></clipPath><clipPath id="clip11"><path d="M6,0L84,0C87.311490146964,0,90,2.688509853036,90,6L90,12.59247570676871C90,12.59247570676871,90,12.59247570676871,90,12.59247570676871L0,12.59247570676871C0,12.59247570676871,0,12.59247570676871,0,12.59247570676871L0,6C0,2.688509853036,2.688509853036,0,6,0Z"/></clipPath><clipPath id="clip12"><path d="M6,0L84,0C87.311490146964,0,90,2.688509853036,90,6L90,19.618056549705443C90,19.618056549705443,90,19.618056549705443,90,19.618056549705443L0,19.618056549705443C0,19.618056549705443,0,19.618056549705443,0,19.618056549705443L0,6C0,2.688509853036,2.688509853036,0,6,0Z"/></clipPath><clipPath id="clip13"><path d="M6,0L84,0C87.311490146964,0,90,2.688509853036,90,6L90,29.854444372685407C90,29.854444372685407,90,29.854444372685407,90,29.854444372685407L0,29.854444372685407C0,29.854444372685407,0,29.854444372685407,0,29.854444372685407L0,6C0,2.688509853036,2.688509853036,0,6,0Z"/></clipPath><clipPath id="clip14"><path d="M6,0L84,0C87.311490146964,0,90,2.688509853036,90,6L90,30.19440721785884C90,30.19440721785884,90,30.19440721785884,90,30.19440721785884L0,30.19440721785884C0,30.19440721785884,0,30.19440721785884,0,30.19440721785884L0,6C0,2.688509853036,2.688509853036,0,6,0Z"/></clipPath><clipPath id="clip15"><path d="M6,0L84,0C87.311490146964,0,90,2.688509853036,90,6L90,67.6933426805557C90,67.6933426805557,90,67.6933426805557,90,67.6933426805557L0,67.6933426805557C0,67.6933426805557,0,67.6933426805557,0,67.6933426805557L0,6C0,2.688509853036,2.688509853036,0,6,0Z"/></clipPath><clipPath id="clip16"><path d="M6,0L84,0C87.311490146964,0,90,2.688509853036,90,6L90,571.4285714285714C90,571.4285714285714,90,571.4285714285714,90,571.4285714285714L0,571.4285714285714C0,571.4285714285714,0,571.4285714285714,0,571.4285714285714L0,6C0,2.688509853036,2.688509853036,0,6,0Z"/></clipPath></defs></svg>