<svg xmlns="http://www.w3.org/2000/svg" xmlns:xlink="http://www.w3.org/1999/xlink" version="1.1" class="marks" width="844" height="687" viewBox="0 0 844 687"><rect width="844" height="687" fill="white"/><g fill="none" stroke-miterlimit="10" transform="translate(39,36)"><g class="mark-group role-frame root" role="graphics-object" aria-roledescription="group mark container"><g transform="translate(0,0)"><path class="background" aria-hidden="true" d="M0.5,0.5h800v600h-800Z" stroke="#ddd"/><g><g class="mark-group role-axis" role="graphics-symbol" aria-roledescription="axis" aria-label="X-axis titled 'Parser' for a discrete scale with 8 values: yaml_rs (parse_dt=False)&#xA;v0.1.4, yamlrocks&#xA;v0.2.1, yaml_rs&#xA;v0.1.4, ryaml&#xA;v0.5.1, PyYAML (CLoader)&#xA;v6.0.3, ending with ruamel.yaml&#xA;v0.19.1"><g transform="translate(0.5,600.5)"><path class="background" aria-hidden="true" d="M0,0h0v0h0Z" pointer-events="none"/><g><g class="mark-rule role-axis-tick" pointer-events="none"><line transform="translate(50,0)" x2="0" y2="5" stroke="#888" stroke-width="1" opacity="1"/><line transform="translate(150,0)" x2="0" y2="5" stroke="#888" stroke-width="1" opacity="1"/><line transform="translate(250,0)" x2="0" y2="5" stroke="#888" stroke-width="1" opacity="1"/><line transform="translate(350,0)" x2="0" y2="5" stroke="#888" stroke-width="1" opacity="1"/><line transform="translate(450,0)" x2="0" y2="5" stroke="#888" stroke-width="1" opacity="1"/><line transform="translate(550,0)" x2="0" y2="5" stroke="#888" stroke-width="1" opacity="1"/><line transform="translate(650,0)" x2="0" y2="5" stroke="#888" stroke-width="1" opacity="1"/><line transform="translate(750,0)" x2="0" y2="5" stroke="#888" stroke-width="1" opacity="1"/></g><g class="mark-text role-axis-label" pointer-events="none"><text text-anchor="middle" transform="translate(49.5,15)" font-family="sans-serif" font-size="10px" fill="#000" opacity="1"><tspan>yaml_rs (parse_dt=False)</tspan><tspan x="0" dy="14">v0.1.4</tspan></text><text text-anchor="middle" transform="translate(149.5,15)" font-family="sans-serif" font-size="10px" fill="#000" opacity="1"><tspan>yamlrocks</tspan><tspan x="0" dy="14">v0.2.1</tspan></text><text text-anchor="middle" transform="translate(249.5,15)" font-family="sans-serif" font-size="10px" fill="#000" opacity="1"><tspan>yaml_rs</tspan><tspan x="0" dy="14">v0.1.4</tspan></text><text text-anchor="middle" transform="translate(349.5,15)" font-family="sans-serif" font-size="10px" fill="#000" opacity="1"><tspan>ryaml</tspan><tspan x="0" dy="14">v0.5.1</tspan></text><text text-anchor="middle" transform="translate(449.5,15)" font-family="sans-serif" font-size="10px" fill="#000" opacity="1"><tspan>PyYAML (CLoader)</tspan><tspan x="0" dy="14">v6.0.3</tspan></text><text text-anchor="middle" transform="translate(549.5,15)" font-family="sans-serif" font-size="10px" fill="#000" opacity="1"><tspan>oyaml</tspan><tspan x="0" dy="14">v1.0</tspan></text><text text-anchor="middle" transform="translate(649.5,15)" font-family="sans-serif" font-size="10px" fill="#000" opacity="1"><tspan>PyYAML</tspan><tspan x="0" dy="14">v6.0.3</tspan></text><text text-anchor="middle" transform="translate(749.5,15)" font-family="sans-serif" font-size="10px" fill="#000" opacity="1"><tspan>ruamel.yaml</tspan><tspan x="0" dy="14">v0.19.1</tspan></text></g><g class="mark-rule role-axis-domain" pointer-events="none"><line transform="translate(0,0)" x2="800" y2="0" stroke="#888" stroke-width="1" opacity="1"/></g><g class="mark-text role-axis-title" pointer-events="none"><text text-anchor="middle" transform="translate(400,44)" font-family="sans-serif" font-size="11px" font-weight="bold" fill="#000" opacity="1">Parser</text></g></g><path class="foreground" aria-hidden="true" d="" pointer-events="none" display="none"/></g></g><g class="mark-group role-axis" role="graphics-symbol" aria-roledescription="axis" aria-label="Y-axis titled 'Execution Time (seconds, lower=better)' for a linear scale with values from 0 to 22"><g transform="translate(0.5,0.5)"><path class="background" aria-hidden="true" d="M0,0h0v0h0Z" pointer-events="none"/><g><g class="mark-rule role-axis-tick" pointer-events="none"><line transform="translate(0,600)" x2="-5" y2="0" stroke="#888" stroke-width="1" opacity="1"/><line transform="translate(0,545)" x2="-5" y2="0" stroke="#888" stroke-width="1" opacity="1"/><line transform="translate(0,490)" x2="-5" y2="0" stroke="#888" stroke-width="1" opacity="1"/><line transform="translate(0,436)" x2="-5" y2="0" stroke="#888" stroke-width="1" opacity="1"/><line transform="translate(0,381)" x2="-5" y2="0" stroke="#888" stroke-width="1" opacity="1"/><line transform="translate(0,326)" x2="-5" y2="0" stroke="#888" stroke-width="1" opacity="1"/><line transform="translate(0,271)" x2="-5" y2="0" stroke="#888" stroke-width="1" opacity="1"/><line transform="translate(0,217)" x2="-5" y2="0" stroke="#888" stroke-width="1" opacity="1"/><line transform="translate(0,162)" x2="-5" y2="0" stroke="#888" stroke-width="1" opacity="1"/><line transform="translate(0,107)" x2="-5" y2="0" stroke="#888" stroke-width="1" opacity="1"/><line transform="translate(0,52)" x2="-5" y2="0" stroke="#888" stroke-width="1" opacity="1"/></g><g class="mark-text role-axis-label" pointer-events="none"><text text-anchor="end" transform="translate(-7,603)" font-family="sans-serif" font-size="10px" fill="#000" opacity="1">0</text><text text-anchor="end" transform="translate(-7,548.2341190955234)" font-family="sans-serif" font-size="10px" fill="#000" opacity="1">2</text><text text-anchor="end" transform="translate(-7,493.4682381910467)" font-family="sans-serif" font-size="10px" fill="#000" opacity="1">4</text><text text-anchor="end" transform="translate(-7,438.7023572865701)" font-family="sans-serif" font-size="10px" fill="#000" opacity="1">6</text><text text-anchor="end" transform="translate(-7,383.93647638209336)" font-family="sans-serif" font-size="10px" fill="#000" opacity="1">8</text><text text-anchor="end" transform="translate(-7,329.17059547761676)" font-family="sans-serif" font-size="10px" fill="#000" opacity="1">10</text><text text-anchor="end" transform="translate(-7,274.4047145731401)" font-family="sans-serif" font-size="10px" fill="#000" opacity="1">12</text><text text-anchor="end" transform="translate(-7,219.6388336686634)" font-family="sans-serif" font-size="10px" fill="#000" opacity="1">14</text><text text-anchor="end" transform="translate(-7,164.87295276418678)" font-family="sans-serif" font-size="10px" fill="#000" opacity="1">16</text><text text-anchor="end" transform="translate(-7,110.10707185971009)" font-family="sans-serif" font-size="10px" fill="#000" opacity="1">18</text><text text-anchor="end" transform="translate(-7,55.341190955233465)" font-family="sans-serif" font-size="10px" fill="#000" opacity="1">20</text></g><g class="mark-rule role-axis-domain" pointer-events="none"><line transform="translate(0,600)" x2="0" y2="-600" stroke="#888" stroke-width="1" opacity="1"/></g><g class="mark-text role-axis-title" pointer-events="none"><text text-anchor="middle" transform="translate(-22.123046875,300) rotate(-90) translate(0,-2)" font-family="sans-serif" font-size="11px" font-weight="bold" fill="#000" opacity="1">Execution Time (seconds, lower=better)</text></g></g><path class="foreground" aria-hidden="true" d="" pointer-events="none" display="none"/></g></g><g class="mark-group role-scope" role="graphics-object" aria-roledescription="group mark container"><g transform="translate(5,592.5229268513796)"><path class="background" aria-hidden="true" d="M3.738536574310217,0L86.26146342568978,0C88.32481793067193,0,90,1.6751820693280788,90,3.738536574310217L90,7.477073148620434C90,7.477073148620434,90,7.477073148620434,90,7.477073148620434L0,7.477073148620434C0,7.477073148620434,0,7.477073148620434,0,7.477073148620434L0,3.738536574310217C0,1.6751820693280788,1.6751820693280788,0,3.738536574310217,0Z"/><g clip-path="url(#clip1)"><g class="mark-group role-scope" role="graphics-object" aria-roledescription="group mark container"><g transform="translate(0,-592.5229268513796)"><path class="background" aria-hidden="true" d="M0,0h90v0h-90Z"/><g><g class="mark-rect role-mark layer_0_marks" role="graphics-object" aria-roledescription="rect mark container"><path aria-label="Parser: yaml_rs (parse_dt=False)&#xA;v0.1.4; Execution Time (seconds, lower=better): 0.273055889; parser: yaml_rs (parse_dt=False); Execution Time (s): 0.2731; Slowdown: 1.00" role="graphics-symbol" aria-roledescription="bar" d="M0,592.5229268513796h90v7.477073148620434h-90Z" fill="#a6761d"/></g></g><path class="foreground" aria-hidden="true" d="" display="none"/></g></g></g><path class="foreground" aria-hidden="true" d="" display="none"/></g><g transform="translate(105,592.3215024961094)"><path class="background" aria-hidden="true" d="M3.83924875194532,0L86.16075124805468,0C88.27969031702314,0,90,1.7203096829768598,90,3.83924875194532L90,7.67849750389064C90,7.67849750389064,90,7.67849750389064,90,7.67849750389064L0,7.67849750389064C0,7.67849750389064,0,7.67849750389064,0,7.67849750389064L0,3.83924875194532C0,1.7203096829768598,1.7203096829768598,0,3.83924875194532,0Z"/><g clip-path="url(#clip2)"><g class="mark-group role-scope" role="graphics-object" aria-roledescription="group mark container"><g transform="translate(0,-592.3215024961094)"><path class="background" aria-hidden="true" d="M0,0h90v0h-90Z"/><g><g class="mark-rect role-mark layer_0_marks" role="graphics-object" aria-roledescription="rect mark container"><path aria-label="Parser: yamlrocks&#xA;v0.2.1; Execution Time (seconds, lower=better): 0.280411722667; parser: yamlrocks; Execution Time (s): 0.2804; Slowdown: 1.03" role="graphics-symbol" aria-roledescription="bar" d="M0,592.3215024961094h90v7.67849750389064h-90Z" fill="#666666"/></g></g><path class="foreground" aria-hidden="true" d="" display="none"/></g></g></g><path class="foreground" aria-hidden="true" d="" display="none"/></g><g transform="translate(205,591.5495390138786)"><path class="background" aria-hidden="true" d="M4.225230493060678,0L85.77476950693932,0C88.1067376980097,0,90,1.8932623019902983,90,4.225230493060678L90,8.450460986121357C90,8.450460986121357,90,8.450460986121357,90,8.450460986121357L0,8.450460986121357C0,8.450460986121357,0,8.450460986121357,0,8.450460986121357L0,4.225230493060678C0,1.8932623019902983,1.8932623019902983,0,4.225230493060678,0Z"/><g clip-path="url(#clip3)"><g class="mark-group role-scope" role="graphics-object" aria-roledescription="group mark container"><g transform="translate(0,-591.5495390138786)"><path class="background" aria-hidden="true" d="M0,0h90v0h-90Z"/><g><g class="mark-rect role-mark layer_0_marks" role="graphics-object" aria-roledescription="rect mark container"><path aria-label="Parser: yaml_rs&#xA;v0.1.4; Execution Time (seconds, lower=better): 0.308603124667; parser: yaml_rs; Execution Time (s): 0.3086; Slowdown: 1.13" role="graphics-symbol" aria-roledescription="bar" d="M0,591.5495390138786h90v8.450460986121357h-90Z" fill="#e6ab02"/></g></g><path class="foreground" aria-hidden="true" d="" display="none"/></g></g></g><path class="foreground" aria-hidden="true" d="" display="none"/></g><g transform="translate(305,586.478825038148)"><path class="background" aria-hidden="true" d="M6,0L84,0C87.311490146964,0,90,2.688509853036,90,6L90,13.521174961852012C90,13.521174961852012,90,13.521174961852012,90,13.521174961852012L0,13.521174961852012C0,13.521174961852012,0,13.521174961852012,0,13.521174961852012L0,6C0,2.688509853036,2.688509853036,0,6,0Z"/><g clip-path="url(#clip4)"><g class="mark-group role-scope" role="graphics-object" aria-roledescription="group mark container"><g transform="translate(0,-586.478825038148)"><path class="background" aria-hidden="true" d="M0,0h90v0h-90Z"/><g><g class="mark-rect role-mark layer_0_marks" role="graphics-object" aria-roledescription="rect mark container"><path aria-label="Parser: ryaml&#xA;v0.5.1; Execution Time (seconds, lower=better): 0.493780972333; parser: ryaml; Execution Time (s): 0.4938; Slowdown: 1.81" role="graphics-symbol" aria-roledescription="bar" d="M0,586.478825038148h90v13.521174961852012h-90Z" fill="#66a61e"/></g></g><path class="foreground" aria-hidden="true" d="" display="none"/></g></g></g><path class="foreground" aria-hidden="true" d="" display="none"/></g><g transform="translate(405,549.7158712678712)"><path class="background" aria-hidden="true" d="M6,0L84,0C87.311490146964,0,90,2.688509853036,90,6L90,50.284128732128806C90,50.284128732128806,90,50.284128732128806,90,50.284128732128806L0,50.284128732128806C0,50.284128732128806,0,50.284128732128806,0,50.284128732128806L0,6C0,2.688509853036,2.688509853036,0,6,0Z"/><g clip-path="url(#clip5)"><g class="mark-group role-scope" role="graphics-object" aria-roledescription="group mark container"><g transform="translate(0,-549.7158712678712)"><path class="background" aria-hidden="true" d="M0,0h90v0h-90Z"/><g><g class="mark-rect role-mark layer_0_marks" role="graphics-object" aria-roledescription="rect mark container"><path aria-label="Parser: PyYAML (CLoader)&#xA;v6.0.3; Execution Time (seconds, lower=better): 1.8363305; parser: PyYAML (CLoader); Execution Time (s): 1.8363; Slowdown: 6.73" role="graphics-symbol" aria-roledescription="bar" d="M0,549.7158712678712h90v50.284128732128806h-90Z" fill="#d95f02"/></g></g><path class="foreground" aria-hidden="true" d="" display="none"/></g></g></g><path class="foreground" aria-hidden="true" d="" display="none"/></g><g transform="translate(505,191.0703503700843)"><path class="background" aria-hidden="true" d="M6,0L84,0C87.311490146964,0,90,2.688509853036,90,6L90,408.92964962991573C90,408.92964962991573,90,408.92964962991573,90,408.92964962991573L0,408.92964962991573C0,408.92964962991573,0,408.92964962991573,0,408.92964962991573L0,6C0,2.688509853036,2.688509853036,0,6,0Z"/><g clip-path="url(#clip6)"><g class="mark-group role-scope" role="graphics-object" aria-roledescription="group mark container"><g transform="translate(0,-191.0703503700843)"><path class="background" aria-hidden="true" d="M0,0h90v0h-90Z"/><g><g class="mark-rect role-mark layer_0_marks" role="graphics-object" aria-roledescription="rect mark container"><path aria-label="Parser: oyaml&#xA;v1.0; Execution Time (seconds, lower=better): 14.9337376803; parser: oyaml; Execution Time (s): 14.9337; Slowdown: 54.69" role="graphics-symbol" aria-roledescription="bar" d="M0,191.0703503700843h90v408.92964962991573h-90Z" fill="#7570b3"/></g></g><path class="foreground" aria-hidden="true" d="" display="none"/></g></g></g><path class="foreground" aria-hidden="true" d="" display="none"/></g><g transform="translate(605,169.27588621817083)"><path class="background" aria-hidden="true" d="M6,0L84,0C87.311490146964,0,90,2.688509853036,90,6L90,430.72411378182915C90,430.72411378182915,90,430.72411378182915,90,430.72411378182915L0,430.72411378182915C0,430.72411378182915,0,430.72411378182915,0,430.72411378182915L0,6C0,2.688509853036,2.688509853036,0,6,0Z"/><g clip-path="url(#clip7)"><g class="mark-group role-scope" role="graphics-object" aria-roledescription="group mark container"><g transform="translate(0,-169.27588621817083)"><path class="background" aria-hidden="true" d="M0,0h90v0h-90Z"/><g><g class="mark-rect role-mark layer_0_marks" role="graphics-object" aria-roledescription="rect mark container"><path aria-label="Parser: PyYAML&#xA;v6.0.3; Execution Time (seconds, lower=better): 15.729651625; parser: PyYAML; Execution Time (s): 15.7297; Slowdown: 57.61" role="graphics-symbol" aria-roledescription="bar" d="M0,169.27588621817083h90v430.72411378182915h-90Z" fill="#1b9e77"/></g></g><path class="foreground" aria-hidden="true" d="" display="none"/></g></g></g><path class="foreground" aria-hidden="true" d="" display="none"/></g><g transform="translate(705,23.076923076923062)"><path class="background" aria-hidden="true" d="M6,0L84,0C87.311490146964,0,90,2.688509853036,90,6L90,576.9230769230769C90,576.9230769230769,90,576.9230769230769,90,576.9230769230769L0,576.9230769230769C0,576.9230769230769,0,576.9230769230769,0,576.9230769230769L0,6C0,2.688509853036,2.688509853036,0,6,0Z"/><g clip-path="url(#clip8)"><g class="mark-group role-scope" role="graphics-object" aria-roledescription="group mark container"><g transform="translate(0,-23.076923076923062)"><path class="background" aria-hidden="true" d="M0,0h90v0h-90Z"/><g><g class="mark-rect role-mark layer_0_marks" role="graphics-object" aria-roledescription="rect mark container"><path aria-label="Parser: ruamel.yaml&#xA;v0.19.1; Execution Time (seconds, lower=better): 21.068704361; parser: ruamel.yaml; Execution Time (s): 21.0687; Slowdown: 77.16" role="graphics-symbol" aria-roledescription="bar" d="M0,23.076923076923062h90v576.9230769230769h-90Z" fill="#e7298a"/></g></g><path class="foreground" aria-hidden="true" d="" display="none"/></g></g></g><path class="foreground" aria-hidden="true" d="" display="none"/></g></g><g class="mark-text role-mark layer_1_marks" role="graphics-object" aria-roledescription="text mark container"><text aria-label="Parser: yaml_rs (parse_dt=False)&#xA;v0.1.4; Execution Time (seconds, lower=better): 0.273055889; parser: yaml_rs (parse_dt=False); label: 0.2731s (x1.00); Execution Time (s): 0.2731; Slowdown: 1.00" role="graphics-symbol" aria-roledescription="text mark" text-anchor="middle" transform="translate(50,588.5229268513796)" font-family="sans-serif" font-size="9px" font-weight="bold" fill="#a6761d">0.2731s (x1.00)</text><text aria-label="Parser: yamlrocks&#xA;v0.2.1; Execution Time (seconds, lower=better): 0.280411722667; parser: yamlrocks; label: 0.2804s (x1.03); Execution Time (s): 0.2804; Slowdown: 1.03" role="graphics-symbol" aria-roledescription="text mark" text-anchor="middle" transform="translate(150,588.3215024961094)" font-family="sans-serif" font-size="9px" font-weight="bold" fill="#666666">0.2804s (x1.03)</text><text aria-label="Parser: yaml_rs&#xA;v0.1.4; Execution Time (seconds, lower=better): 0.308603124667; parser: yaml_rs; label: 0.3086s (x1.13); Execution Time (s): 0.3086; Slowdown: 1.13" role="graphics-symbol" aria-roledescription="text mark" text-anchor="middle" transform="translate(250,587.5495390138786)" font-family="sans-serif" font-size="9px" font-weight="bold" fill="#e6ab02">0.3086s (x1.13)</text><text aria-label="Parser: ryaml&#xA;v0.5.1; Execution Time (seconds, lower=better): 0.493780972333; parser: ryaml; label: 0.4938s (x1.81); Execution Time (s): 0.4938; Slowdown: 1.81" role="graphics-symbol" aria-roledescription="text mark" text-anchor="middle" transform="translate(350,582.478825038148)" font-family="sans-serif" font-size="9px" font-weight="bold" fill="#66a61e">0.4938s (x1.81)</text><text aria-label="Parser: PyYAML (CLoader)&#xA;v6.0.3; Execution Time (seconds, lower=better): 1.8363305; parser: PyYAML (CLoader); label: 1.8363s (x6.73); Execution Time (s): 1.8363; Slowdown: 6.73" role="graphics-symbol" aria-roledescription="text mark" text-anchor="middle" transform="translate(450,545.7158712678712)" font-family="sans-serif" font-size="9px" font-weight="bold" fill="#d95f02">1.8363s (x6.73)</text><text aria-label="Parser: oyaml&#xA;v1.0; Execution Time (seconds, lower=better): 14.9337376803; parser: oyaml; label: 14.9337s (x54.69); Execution Time (s): 14.9337; Slowdown: 54.69" role="graphics-symbol" aria-roledescription="text mark" text-anchor="middle" transform="translate(550,187.0703503700843)" font-family="sans-serif" font-size="9px" font-weight="bold" fill="#7570b3">14.9337s (x54.69)</text><text aria-label="Parser: PyYAML&#xA;v6.0.3; Execution Time (seconds, lower=better): 15.729651625; parser: PyYAML; label: 15.7297s (x57.61); Execution Time (s): 15.7297; Slowdown: 57.61" role="graphics-symbol" aria-roledescription="text mark" text-anchor="middle" transform="translate(650,165.27588621817083)" font-family="sans-serif" font-size="9px" font-weight="bold" fill="#1b9e77">15.7297s (x57.61)</text><text aria-label="Parser: ruamel.yaml&#xA;v0.19.1; Execution Time (seconds, lower=better): 21.068704361; parser: ruamel.yaml; label: 21.0687s (x77.16); Execution Time (s): 21.0687; Slowdown: 77.16" role="graphics-symbol" aria-roledescription="text mark" text-anchor="middle" transform="translate(750,19.076923076923062)" font-family="sans-serif" font-size="9px" font-weight="bold" fill="#e7298a">21.0687s (x77.16)</text></g><g class="mark-group role-title"><g transform="translate(400,-31)"><path class="background" aria-hidden="true" d="M0,0h0v0h0Z" pointer-events="none"/><g><g class="mark-text role-title-text" role="graphics-symbol" aria-roledescription="title" aria-label="Title text 'YAML parsers benchmark (loads)'" pointer-events="none"><text text-anchor="middle" transform="translate(0,10)" font-family="sans-serif" font-size="13px" font-weight="bold" fill="#000" opacity="1">YAML parsers benchmark (loads)</text></g><g class="mark-text role-title-subtitle" role="graphics-symbol" aria-roledescription="subtitle" aria-label="Subtitle text 'Python: 3.14.5 (Darwin 24.6.0) | CPU: Apple M1 (Virtual)'" pointer-events="none"><text text-anchor="middle" transform="translate(0,25)" font-family="sans-serif" font-size="12px" fill="#000" opacity="1">Python: 3.14.5 (Darwin 24.6.0) | CPU: Apple M1 (Virtual)</text></g></g><path class="foreground" aria-hidden="true" d="" pointer-events="none" display="none"/></g></g></g><path class="foreground" aria-hidden="true" d="" display="none"/></g></g></g><defs><clipPath id="clip1"><path d="M3.738536574310217,0L86.26146342568978,0C88.32481793067193,0,90,1.6751820693280788,90,3.738536574310217L90,7.477073148620434C90,7.477073148620434,90,7.477073148620434,90,7.477073148620434L0,7.477073148620434C0,7.477073148620434,0,7.477073148620434,0,7.477073148620434L0,3.738536574310217C0,1.6751820693280788,1.6751820693280788,0,3.738536574310217,0Z"/></clipPath><clipPath id="clip2"><path d="M3.83924875194532,0L86.16075124805468,0C88.27969031702314,0,90,1.7203096829768598,90,3.83924875194532L90,7.67849750389064C90,7.67849750389064,90,7.67849750389064,90,7.67849750389064L0,7.67849750389064C0,7.67849750389064,0,7.67849750389064,0,7.67849750389064L0,3.83924875194532C0,1.7203096829768598,1.7203096829768598,0,3.83924875194532,0Z"/></clipPath><clipPath id="clip3"><path d="M4.225230493060678,0L85.77476950693932,0C88.1067376980097,0,90,1.8932623019902983,90,4.225230493060678L90,8.450460986121357C90,8.450460986121357,90,8.450460986121357,90,8.450460986121357L0,8.450460986121357C0,8.450460986121357,0,8.450460986121357,0,8.450460986121357L0,4.225230493060678C0,1.8932623019902983,1.8932623019902983,0,4.225230493060678,0Z"/></clipPath><clipPath id="clip4"><path d="M6,0L84,0C87.311490146964,0,90,2.688509853036,90,6L90,13.521174961852012C90,13.521174961852012,90,13.521174961852012,90,13.521174961852012L0,13.521174961852012C0,13.521174961852012,0,13.521174961852012,0,13.521174961852012L0,6C0,2.688509853036,2.688509853036,0,6,0Z"/></clipPath><clipPath id="clip5"><path d="M6,0L84,0C87.311490146964,0,90,2.688509853036,90,6L90,50.284128732128806C90,50.284128732128806,90,50.284128732128806,90,50.284128732128806L0,50.284128732128806C0,50.284128732128806,0,50.284128732128806,0,50.284128732128806L0,6C0,2.688509853036,2.688509853036,0,6,0Z"/></clipPath><clipPath id="clip6"><path d="M6,0L84,0C87.311490146964,0,90,2.688509853036,90,6L90,408.92964962991573C90,408.92964962991573,90,408.92964962991573,90,408.92964962991573L0,408.92964962991573C0,408.92964962991573,0,408.92964962991573,0,408.92964962991573L0,6C0,2.688509853036,2.688509853036,0,6,0Z"/></clipPath><clipPath id="clip7"><path d="M6,0L84,0C87.311490146964,0,90,2.688509853036,90,6L90,430.72411378182915C90,430.72411378182915,90,430.72411378182915,90,430.72411378182915L0,430.72411378182915C0,430.72411378182915,0,430.72411378182915,0,430.72411378182915L0,6C0,2.688509853036,2.688509853036,0,6,0Z"/></clipPath><clipPath id="clip8"><path d="M6,0L84,0C87.311490146964,0,90,2.688509853036,90,6L90,576.9230769230769C90,576.9230769230769,90,576.9230769230769,90,576.9230769230769L0,576.9230769230769C0,576.9230769230769,0,576.9230769230769,0,576.9230769230769L0,6C0,2.688509853036,2.688509853036,0,6,0Z"/></clipPath></defs></svg>