<svg xmlns="http://www.w3.org/2000/svg" xmlns:xlink="http://www.w3.org/1999/xlink" version="1.1" class="marks" width="846" height="687" viewBox="0 0 846 687"><rect width="846" height="687" fill="white"/><g fill="none" stroke-miterlimit="10" transform="translate(41,36)"><g class="mark-group role-frame root" role="graphics-object" aria-roledescription="group mark container"><g transform="translate(0,0)"><path class="background" aria-hidden="true" d="M0.5,0.5h800v600h-800Z" stroke="#ddd"/><g><g class="mark-group role-axis" role="graphics-symbol" aria-roledescription="axis" aria-label="X-axis titled 'Implementation' for a discrete scale with 9 values: uuid7_rs&#xA;0.0.11, uuid_utils&#xA;0.16.2, fastuuid7&#xA;0.2.0, fastuuid&#xA;0.14.0, lastuuid&#xA;0.5.0, ending with uuid_v7&#xA;1.0.0"><g transform="translate(0.5,600.5)"><path class="background" aria-hidden="true" d="M0,0h0v0h0Z" pointer-events="none"/><g><g class="mark-rule role-axis-tick" pointer-events="none"><line transform="translate(44,0)" x2="0" y2="5" stroke="#888" stroke-width="1" opacity="1"/><line transform="translate(133,0)" x2="0" y2="5" stroke="#888" stroke-width="1" opacity="1"/><line transform="translate(222,0)" x2="0" y2="5" stroke="#888" stroke-width="1" opacity="1"/><line transform="translate(311,0)" x2="0" y2="5" stroke="#888" stroke-width="1" opacity="1"/><line transform="translate(400,0)" x2="0" y2="5" stroke="#888" stroke-width="1" opacity="1"/><line transform="translate(488,0)" x2="0" y2="5" stroke="#888" stroke-width="1" opacity="1"/><line transform="translate(577,0)" x2="0" y2="5" stroke="#888" stroke-width="1" opacity="1"/><line transform="translate(666,0)" x2="0" y2="5" stroke="#888" stroke-width="1" opacity="1"/><line transform="translate(755,0)" x2="0" y2="5" stroke="#888" stroke-width="1" opacity="1"/></g><g class="mark-text role-axis-label" pointer-events="none"><text text-anchor="middle" transform="translate(43.94444444444446,15)" font-family="sans-serif" font-size="10px" fill="#000" opacity="1"><tspan>uuid7_rs</tspan><tspan x="0" dy="14">0.0.11</tspan></text><text text-anchor="middle" transform="translate(132.83333333333334,15)" font-family="sans-serif" font-size="10px" fill="#000" opacity="1"><tspan>uuid_utils</tspan><tspan x="0" dy="14">0.16.2</tspan></text><text text-anchor="middle" transform="translate(221.72222222222223,15)" font-family="sans-serif" font-size="10px" fill="#000" opacity="1"><tspan>fastuuid7</tspan><tspan x="0" dy="14">0.2.0</tspan></text><text text-anchor="middle" transform="translate(310.6111111111111,15)" font-family="sans-serif" font-size="10px" fill="#000" opacity="1"><tspan>fastuuid</tspan><tspan x="0" dy="14">0.14.0</tspan></text><text text-anchor="middle" transform="translate(399.5,15)" font-family="sans-serif" font-size="10px" fill="#000" opacity="1"><tspan>lastuuid</tspan><tspan x="0" dy="14">0.5.0</tspan></text><text text-anchor="middle" transform="translate(488.3888888888889,15)" font-family="sans-serif" font-size="10px" fill="#000" opacity="1"><tspan>UUIDv7gen</tspan><tspan x="0" dy="14">1.0.3</tspan></text><text text-anchor="middle" transform="translate(577.2777777777777,15)" font-family="sans-serif" font-size="10px" fill="#000" opacity="1"><tspan>uuid</tspan><tspan x="0" dy="14">stdlib</tspan></text><text text-anchor="middle" transform="translate(666.1666666666666,15)" font-family="sans-serif" font-size="10px" fill="#000" opacity="1"><tspan>uuid6</tspan><tspan x="0" dy="14">2025.0.1</tspan></text><text text-anchor="middle" transform="translate(755.0555555555555,15)" font-family="sans-serif" font-size="10px" fill="#000" opacity="1"><tspan>uuid_v7</tspan><tspan x="0" dy="14">1.0.0</tspan></text></g><g class="mark-rule role-axis-domain" pointer-events="none"><line transform="translate(0,0)" x2="800" y2="0" stroke="#888" stroke-width="1" opacity="1"/></g><g class="mark-text role-axis-title" pointer-events="none"><text text-anchor="middle" transform="translate(400,44)" font-family="sans-serif" font-size="11px" font-weight="bold" fill="#000" opacity="1">Implementation</text></g></g><path class="foreground" aria-hidden="true" d="" pointer-events="none" display="none"/></g></g><g class="mark-group role-axis" role="graphics-symbol" aria-roledescription="axis" aria-label="Y-axis titled 'Execution Time (seconds, lower=better)' for a linear scale with values from 0.0 to 1.1"><g transform="translate(0.5,0.5)"><path class="background" aria-hidden="true" d="M0,0h0v0h0Z" pointer-events="none"/><g><g class="mark-rule role-axis-tick" pointer-events="none"><line transform="translate(0,600)" x2="-5" y2="0" stroke="#888" stroke-width="1" opacity="1"/><line transform="translate(0,544)" x2="-5" y2="0" stroke="#888" stroke-width="1" opacity="1"/><line transform="translate(0,487)" x2="-5" y2="0" stroke="#888" stroke-width="1" opacity="1"/><line transform="translate(0,431)" x2="-5" y2="0" stroke="#888" stroke-width="1" opacity="1"/><line transform="translate(0,375)" x2="-5" y2="0" stroke="#888" stroke-width="1" opacity="1"/><line transform="translate(0,318)" x2="-5" y2="0" stroke="#888" stroke-width="1" opacity="1"/><line transform="translate(0,262)" x2="-5" y2="0" stroke="#888" stroke-width="1" opacity="1"/><line transform="translate(0,206)" x2="-5" y2="0" stroke="#888" stroke-width="1" opacity="1"/><line transform="translate(0,149)" x2="-5" y2="0" stroke="#888" stroke-width="1" opacity="1"/><line transform="translate(0,93)" x2="-5" y2="0" stroke="#888" stroke-width="1" opacity="1"/><line transform="translate(0,37)" x2="-5" y2="0" stroke="#888" stroke-width="1" opacity="1"/></g><g class="mark-text role-axis-label" pointer-events="none"><text text-anchor="end" transform="translate(-7,603)" font-family="sans-serif" font-size="10px" fill="#000" opacity="1">0.0</text><text text-anchor="end" transform="translate(-7,546.6597938720295)" font-family="sans-serif" font-size="10px" fill="#000" opacity="1">0.1</text><text text-anchor="end" transform="translate(-7,490.31958774405905)" font-family="sans-serif" font-size="10px" fill="#000" opacity="1">0.2</text><text text-anchor="end" transform="translate(-7,433.9793816160886)" font-family="sans-serif" font-size="10px" fill="#000" opacity="1">0.3</text><text text-anchor="end" transform="translate(-7,377.6391754881181)" font-family="sans-serif" font-size="10px" fill="#000" opacity="1">0.4</text><text text-anchor="end" transform="translate(-7,321.29896936014757)" font-family="sans-serif" font-size="10px" fill="#000" opacity="1">0.5</text><text text-anchor="end" transform="translate(-7,264.9587632321771)" font-family="sans-serif" font-size="10px" fill="#000" opacity="1">0.6</text><text text-anchor="end" transform="translate(-7,208.61855710420662)" font-family="sans-serif" font-size="10px" fill="#000" opacity="1">0.7</text><text text-anchor="end" transform="translate(-7,152.27835097623608)" font-family="sans-serif" font-size="10px" fill="#000" opacity="1">0.8</text><text text-anchor="end" transform="translate(-7,95.9381448482656)" font-family="sans-serif" font-size="10px" fill="#000" opacity="1">0.9</text><text text-anchor="end" transform="translate(-7,39.59793872029511)" font-family="sans-serif" font-size="10px" fill="#000" opacity="1">1.0</text></g><g class="mark-rule role-axis-domain" pointer-events="none"><line transform="translate(0,600)" x2="0" y2="-600" stroke="#888" stroke-width="1" opacity="1"/></g><g class="mark-text role-axis-title" pointer-events="none"><text text-anchor="middle" transform="translate(-24.9013671875,300) rotate(-90) translate(0,-2)" font-family="sans-serif" font-size="11px" font-weight="bold" fill="#000" opacity="1">Execution Time (seconds, lower=better)</text></g></g><path class="foreground" aria-hidden="true" d="" pointer-events="none" display="none"/></g></g><g class="mark-group role-scope" role="graphics-object" aria-roledescription="group mark container"><g transform="translate(4.444444444444457,586.7708029616382)"><path class="background" aria-hidden="true" d="M6,0L74,0C77.311490146964,0,80,2.688509853036,80,6L80,13.229197038361804C80,13.229197038361804,80,13.229197038361804,80,13.229197038361804L0,13.229197038361804C0,13.229197038361804,0,13.229197038361804,0,13.229197038361804L0,6C0,2.688509853036,2.688509853036,0,6,0Z"/><g clip-path="url(#clip1)"><g class="mark-group role-scope" role="graphics-object" aria-roledescription="group mark container"><g transform="translate(0,-586.7708029616382)"><path class="background" aria-hidden="true" d="M0,0h80v0h-80Z"/><g><g class="mark-rect role-mark layer_0_marks" role="graphics-object" aria-roledescription="rect mark container"><path aria-label="Implementation: uuid7_rs&#xA;0.0.11; Execution Time (seconds, lower=better): 0.0234809169997; implementation: uuid7_rs; Execution Time (s): 0.0235; Slowdown: 1.00" role="graphics-symbol" aria-roledescription="bar" d="M0,586.7708029616382h80v13.229197038361804h-80Z" fill="#a6761d"/></g></g><path class="foreground" aria-hidden="true" d="" display="none"/></g></g></g><path class="foreground" aria-hidden="true" d="" display="none"/></g><g transform="translate(93.33333333333334,569.0651889332934)"><path class="background" aria-hidden="true" d="M6,0L74,0C77.311490146964,0,80,2.688509853036,80,6L80,30.93481106670663C80,30.93481106670663,80,30.93481106670663,80,30.93481106670663L0,30.93481106670663C0,30.93481106670663,0,30.93481106670663,0,30.93481106670663L0,6C0,2.688509853036,2.688509853036,0,6,0Z"/><g clip-path="url(#clip2)"><g class="mark-group role-scope" role="graphics-object" aria-roledescription="group mark container"><g transform="translate(0,-569.0651889332934)"><path class="background" aria-hidden="true" d="M0,0h80v0h-80Z"/><g><g class="mark-rect role-mark layer_0_marks" role="graphics-object" aria-roledescription="rect mark container"><path aria-label="Implementation: uuid_utils&#xA;0.16.2; Execution Time (seconds, lower=better): 0.0549071669998; implementation: uuid_utils; Execution Time (s): 0.0549; Slowdown: 2.34" role="graphics-symbol" aria-roledescription="bar" d="M0,569.0651889332934h80v30.93481106670663h-80Z" fill="#666666"/></g></g><path class="foreground" aria-hidden="true" d="" display="none"/></g></g></g><path class="foreground" aria-hidden="true" d="" display="none"/></g><g transform="translate(182.22222222222223,565.2995273067944)"><path class="background" aria-hidden="true" d="M6,0L74,0C77.311490146964,0,80,2.688509853036,80,6L80,34.7004726932056C80,34.7004726932056,80,34.7004726932056,80,34.7004726932056L0,34.7004726932056C0,34.7004726932056,0,34.7004726932056,0,34.7004726932056L0,6C0,2.688509853036,2.688509853036,0,6,0Z"/><g clip-path="url(#clip3)"><g class="mark-group role-scope" role="graphics-object" aria-roledescription="group mark container"><g transform="translate(0,-565.2995273067944)"><path class="background" aria-hidden="true" d="M0,0h80v0h-80Z"/><g><g class="mark-rect role-mark layer_0_marks" role="graphics-object" aria-roledescription="rect mark container"><path aria-label="Implementation: fastuuid7&#xA;0.2.0; Execution Time (seconds, lower=better): 0.0615909579997; implementation: fastuuid7; Execution Time (s): 0.0616; Slowdown: 2.62" role="graphics-symbol" aria-roledescription="bar" d="M0,565.2995273067944h80v34.7004726932056h-80Z" fill="#7570b3"/></g></g><path class="foreground" aria-hidden="true" d="" display="none"/></g></g></g><path class="foreground" aria-hidden="true" d="" display="none"/></g><g transform="translate(271.1111111111111,407.78437679135345)"><path class="background" aria-hidden="true" d="M6,0L74,0C77.311490146964,0,80,2.688509853036,80,6L80,192.21562320864655C80,192.21562320864655,80,192.21562320864655,80,192.21562320864655L0,192.21562320864655C0,192.21562320864655,0,192.21562320864655,0,192.21562320864655L0,6C0,2.688509853036,2.688509853036,0,6,0Z"/><g clip-path="url(#clip4)"><g class="mark-group role-scope" role="graphics-object" aria-roledescription="group mark container"><g transform="translate(0,-407.78437679135345)"><path class="background" aria-hidden="true" d="M0,0h80v0h-80Z"/><g><g class="mark-rect role-mark layer_0_marks" role="graphics-object" aria-roledescription="rect mark container"><path aria-label="Implementation: fastuuid&#xA;0.14.0; Execution Time (seconds, lower=better): 0.341169542; implementation: fastuuid; Execution Time (s): 0.3412; Slowdown: 14.53" role="graphics-symbol" aria-roledescription="bar" d="M0,407.78437679135345h80v192.21562320864655h-80Z" fill="#d95f02"/></g></g><path class="foreground" aria-hidden="true" d="" display="none"/></g></g></g><path class="foreground" aria-hidden="true" d="" display="none"/></g><g transform="translate(360,371.5538212871468)"><path class="background" aria-hidden="true" d="M6,0L74,0C77.311490146964,0,80,2.688509853036,80,6L80,228.44617871285323C80,228.44617871285323,80,228.44617871285323,80,228.44617871285323L0,228.44617871285323C0,228.44617871285323,0,228.44617871285323,0,228.44617871285323L0,6C0,2.688509853036,2.688509853036,0,6,0Z"/><g clip-path="url(#clip5)"><g class="mark-group role-scope" role="graphics-object" aria-roledescription="group mark container"><g transform="translate(0,-371.5538212871468)"><path class="background" aria-hidden="true" d="M0,0h80v0h-80Z"/><g><g class="mark-rect role-mark layer_0_marks" role="graphics-object" aria-roledescription="rect mark container"><path aria-label="Implementation: lastuuid&#xA;0.5.0; Execution Time (seconds, lower=better): 0.405476292; implementation: lastuuid; Execution Time (s): 0.4055; Slowdown: 17.27" role="graphics-symbol" aria-roledescription="bar" d="M0,371.5538212871468h80v228.44617871285323h-80Z" fill="#e7298a"/></g></g><path class="foreground" aria-hidden="true" d="" display="none"/></g></g></g><path class="foreground" aria-hidden="true" d="" display="none"/></g><g transform="translate(448.8888888888889,345.95294937347984)"><path class="background" aria-hidden="true" d="M6,0L74,0C77.311490146964,0,80,2.688509853036,80,6L80,254.04705062652016C80,254.04705062652016,80,254.04705062652016,80,254.04705062652016L0,254.04705062652016C0,254.04705062652016,0,254.04705062652016,0,254.04705062652016L0,6C0,2.688509853036,2.688509853036,0,6,0Z"/><g clip-path="url(#clip6)"><g class="mark-group role-scope" role="graphics-object" aria-roledescription="group mark container"><g transform="translate(0,-345.95294937347984)"><path class="background" aria-hidden="true" d="M0,0h80v0h-80Z"/><g><g class="mark-rect role-mark layer_0_marks" role="graphics-object" aria-roledescription="rect mark container"><path aria-label="Implementation: UUIDv7gen&#xA;1.0.3; Execution Time (seconds, lower=better): 0.450916083; implementation: UUIDv7gen; Execution Time (s): 0.4509; Slowdown: 19.20" role="graphics-symbol" aria-roledescription="bar" d="M0,345.95294937347984h80v254.04705062652016h-80Z" fill="#1b9e77"/></g></g><path class="foreground" aria-hidden="true" d="" display="none"/></g></g></g><path class="foreground" aria-hidden="true" d="" display="none"/></g><g transform="translate(537.7777777777777,261.71856634113664)"><path class="background" aria-hidden="true" d="M6,0L74,0C77.311490146964,0,80,2.688509853036,80,6L80,338.28143365886336C80,338.28143365886336,80,338.28143365886336,80,338.28143365886336L0,338.28143365886336C0,338.28143365886336,0,338.28143365886336,0,338.28143365886336L0,6C0,2.688509853036,2.688509853036,0,6,0Z"/><g clip-path="url(#clip7)"><g class="mark-group role-scope" role="graphics-object" aria-roledescription="group mark container"><g transform="translate(0,-261.71856634113664)"><path class="background" aria-hidden="true" d="M0,0h80v0h-80Z"/><g><g class="mark-rect role-mark layer_0_marks" role="graphics-object" aria-roledescription="rect mark container"><path aria-label="Implementation: uuid&#xA;stdlib; Execution Time (seconds, lower=better): 0.600426333; implementation: uuid; Execution Time (s): 0.6004; Slowdown: 25.57" role="graphics-symbol" aria-roledescription="bar" d="M0,261.71856634113664h80v338.28143365886336h-80Z" fill="#66a61e"/></g></g><path class="foreground" aria-hidden="true" d="" display="none"/></g></g></g><path class="foreground" aria-hidden="true" d="" display="none"/></g><g transform="translate(626.6666666666666,171.567170347729)"><path class="background" aria-hidden="true" d="M6,0L74,0C77.311490146964,0,80,2.688509853036,80,6L80,428.43282965227104C80,428.43282965227104,80,428.43282965227104,80,428.43282965227104L0,428.43282965227104C0,428.43282965227104,0,428.43282965227104,0,428.43282965227104L0,6C0,2.688509853036,2.688509853036,0,6,0Z"/><g clip-path="url(#clip8)"><g class="mark-group role-scope" role="graphics-object" aria-roledescription="group mark container"><g transform="translate(0,-171.567170347729)"><path class="background" aria-hidden="true" d="M0,0h80v0h-80Z"/><g><g class="mark-rect role-mark layer_0_marks" role="graphics-object" aria-roledescription="rect mark container"><path aria-label="Implementation: uuid6&#xA;2025.0.1; Execution Time (seconds, lower=better): 0.760438875; implementation: uuid6; Execution Time (s): 0.7604; Slowdown: 32.39" role="graphics-symbol" aria-roledescription="bar" d="M0,171.567170347729h80v428.43282965227104h-80Z" fill="#e6ab02"/></g></g><path class="foreground" aria-hidden="true" d="" display="none"/></g></g></g><path class="foreground" aria-hidden="true" d="" display="none"/></g><g transform="translate(715.5555555555555,23.076923076923062)"><path class="background" aria-hidden="true" d="M6,0L74,0C77.311490146964,0,80,2.688509853036,80,6L80,576.9230769230769C80,576.9230769230769,80,576.9230769230769,80,576.9230769230769L0,576.9230769230769C0,576.9230769230769,0,576.9230769230769,0,576.9230769230769L0,6C0,2.688509853036,2.688509853036,0,6,0Z"/><g clip-path="url(#clip9)"><g class="mark-group role-scope" role="graphics-object" aria-roledescription="group mark container"><g transform="translate(0,-23.076923076923062)"><path class="background" aria-hidden="true" d="M0,0h80v0h-80Z"/><g><g class="mark-rect role-mark layer_0_marks" role="graphics-object" aria-roledescription="rect mark container"><path aria-label="Implementation: uuid_v7&#xA;1.0.0; Execution Time (seconds, lower=better): 1.023998875; implementation: uuid_v7; Execution Time (s): 1.0240; Slowdown: 43.61" role="graphics-symbol" aria-roledescription="bar" d="M0,23.076923076923062h80v576.9230769230769h-80Z" fill="#1b9e77"/></g></g><path class="foreground" aria-hidden="true" d="" display="none"/></g></g></g><path class="foreground" aria-hidden="true" d="" display="none"/></g></g><g class="mark-text role-mark layer_1_marks" role="graphics-object" aria-roledescription="text mark container"><text aria-label="Implementation: uuid7_rs&#xA;0.0.11; Execution Time (seconds, lower=better): 0.0234809169997; implementation: uuid7_rs; label: 0.0235s (x1.00); Execution Time (s): 0.0235; Slowdown: 1.00" role="graphics-symbol" aria-roledescription="text mark" text-anchor="middle" transform="translate(44.44444444444446,582.7708029616382)" font-family="sans-serif" font-size="9px" font-weight="bold" fill="#a6761d">0.0235s (x1.00)</text><text aria-label="Implementation: uuid_utils&#xA;0.16.2; Execution Time (seconds, lower=better): 0.0549071669998; implementation: uuid_utils; label: 0.0549s (x2.34); Execution Time (s): 0.0549; Slowdown: 2.34" role="graphics-symbol" aria-roledescription="text mark" text-anchor="middle" transform="translate(133.33333333333334,565.0651889332934)" font-family="sans-serif" font-size="9px" font-weight="bold" fill="#666666">0.0549s (x2.34)</text><text aria-label="Implementation: fastuuid7&#xA;0.2.0; Execution Time (seconds, lower=better): 0.0615909579997; implementation: fastuuid7; label: 0.0616s (x2.62); Execution Time (s): 0.0616; Slowdown: 2.62" role="graphics-symbol" aria-roledescription="text mark" text-anchor="middle" transform="translate(222.22222222222223,561.2995273067944)" font-family="sans-serif" font-size="9px" font-weight="bold" fill="#7570b3">0.0616s (x2.62)</text><text aria-label="Implementation: fastuuid&#xA;0.14.0; Execution Time (seconds, lower=better): 0.341169542; implementation: fastuuid; label: 0.3412s (x14.53); Execution Time (s): 0.3412; Slowdown: 14.53" role="graphics-symbol" aria-roledescription="text mark" text-anchor="middle" transform="translate(311.1111111111111,403.78437679135345)" font-family="sans-serif" font-size="9px" font-weight="bold" fill="#d95f02">0.3412s (x14.53)</text><text aria-label="Implementation: lastuuid&#xA;0.5.0; Execution Time (seconds, lower=better): 0.405476292; implementation: lastuuid; label: 0.4055s (x17.27); Execution Time (s): 0.4055; Slowdown: 17.27" role="graphics-symbol" aria-roledescription="text mark" text-anchor="middle" transform="translate(400,367.5538212871468)" font-family="sans-serif" font-size="9px" font-weight="bold" fill="#e7298a">0.4055s (x17.27)</text><text aria-label="Implementation: UUIDv7gen&#xA;1.0.3; Execution Time (seconds, lower=better): 0.450916083; implementation: UUIDv7gen; label: 0.4509s (x19.20); Execution Time (s): 0.4509; Slowdown: 19.20" role="graphics-symbol" aria-roledescription="text mark" text-anchor="middle" transform="translate(488.8888888888889,341.95294937347984)" font-family="sans-serif" font-size="9px" font-weight="bold" fill="#1b9e77">0.4509s (x19.20)</text><text aria-label="Implementation: uuid&#xA;stdlib; Execution Time (seconds, lower=better): 0.600426333; implementation: uuid; label: 0.6004s (x25.57); Execution Time (s): 0.6004; Slowdown: 25.57" role="graphics-symbol" aria-roledescription="text mark" text-anchor="middle" transform="translate(577.7777777777777,257.71856634113664)" font-family="sans-serif" font-size="9px" font-weight="bold" fill="#66a61e">0.6004s (x25.57)</text><text aria-label="Implementation: uuid6&#xA;2025.0.1; Execution Time (seconds, lower=better): 0.760438875; implementation: uuid6; label: 0.7604s (x32.39); Execution Time (s): 0.7604; Slowdown: 32.39" role="graphics-symbol" aria-roledescription="text mark" text-anchor="middle" transform="translate(666.6666666666666,167.567170347729)" font-family="sans-serif" font-size="9px" font-weight="bold" fill="#e6ab02">0.7604s (x32.39)</text><text aria-label="Implementation: uuid_v7&#xA;1.0.0; Execution Time (seconds, lower=better): 1.023998875; implementation: uuid_v7; label: 1.0240s (x43.61); Execution Time (s): 1.0240; Slowdown: 43.61" role="graphics-symbol" aria-roledescription="text mark" text-anchor="middle" transform="translate(755.5555555555555,19.076923076923062)" font-family="sans-serif" font-size="9px" font-weight="bold" fill="#1b9e77">1.0240s (x43.61)</text></g><g class="mark-group role-title"><g transform="translate(400,-31)"><path class="background" aria-hidden="true" d="M0,0h0v0h0Z" pointer-events="none"/><g><g class="mark-text role-title-text" role="graphics-symbol" aria-roledescription="title" aria-label="Title text 'UUID v7 benchmark (uuid7() default APIs)'" pointer-events="none"><text text-anchor="middle" transform="translate(0,10)" font-family="sans-serif" font-size="13px" font-weight="bold" fill="#000" opacity="1">UUID v7 benchmark (uuid7() default APIs)</text></g><g class="mark-text role-title-subtitle" role="graphics-symbol" aria-roledescription="subtitle" aria-label="Subtitle text 'Python: 3.14.6 (Darwin 25.4.0) | CPU: Apple M1 (Virtual)'" pointer-events="none"><text text-anchor="middle" transform="translate(0,25)" font-family="sans-serif" font-size="12px" fill="#000" opacity="1">Python: 3.14.6 (Darwin 25.4.0) | CPU: Apple M1 (Virtual)</text></g></g><path class="foreground" aria-hidden="true" d="" pointer-events="none" display="none"/></g></g></g><path class="foreground" aria-hidden="true" d="" display="none"/></g></g></g><defs><clipPath id="clip1"><path d="M6,0L74,0C77.311490146964,0,80,2.688509853036,80,6L80,13.229197038361804C80,13.229197038361804,80,13.229197038361804,80,13.229197038361804L0,13.229197038361804C0,13.229197038361804,0,13.229197038361804,0,13.229197038361804L0,6C0,2.688509853036,2.688509853036,0,6,0Z"/></clipPath><clipPath id="clip2"><path d="M6,0L74,0C77.311490146964,0,80,2.688509853036,80,6L80,30.93481106670663C80,30.93481106670663,80,30.93481106670663,80,30.93481106670663L0,30.93481106670663C0,30.93481106670663,0,30.93481106670663,0,30.93481106670663L0,6C0,2.688509853036,2.688509853036,0,6,0Z"/></clipPath><clipPath id="clip3"><path d="M6,0L74,0C77.311490146964,0,80,2.688509853036,80,6L80,34.7004726932056C80,34.7004726932056,80,34.7004726932056,80,34.7004726932056L0,34.7004726932056C0,34.7004726932056,0,34.7004726932056,0,34.7004726932056L0,6C0,2.688509853036,2.688509853036,0,6,0Z"/></clipPath><clipPath id="clip4"><path d="M6,0L74,0C77.311490146964,0,80,2.688509853036,80,6L80,192.21562320864655C80,192.21562320864655,80,192.21562320864655,80,192.21562320864655L0,192.21562320864655C0,192.21562320864655,0,192.21562320864655,0,192.21562320864655L0,6C0,2.688509853036,2.688509853036,0,6,0Z"/></clipPath><clipPath id="clip5"><path d="M6,0L74,0C77.311490146964,0,80,2.688509853036,80,6L80,228.44617871285323C80,228.44617871285323,80,228.44617871285323,80,228.44617871285323L0,228.44617871285323C0,228.44617871285323,0,228.44617871285323,0,228.44617871285323L0,6C0,2.688509853036,2.688509853036,0,6,0Z"/></clipPath><clipPath id="clip6"><path d="M6,0L74,0C77.311490146964,0,80,2.688509853036,80,6L80,254.04705062652016C80,254.04705062652016,80,254.04705062652016,80,254.04705062652016L0,254.04705062652016C0,254.04705062652016,0,254.04705062652016,0,254.04705062652016L0,6C0,2.688509853036,2.688509853036,0,6,0Z"/></clipPath><clipPath id="clip7"><path d="M6,0L74,0C77.311490146964,0,80,2.688509853036,80,6L80,338.28143365886336C80,338.28143365886336,80,338.28143365886336,80,338.28143365886336L0,338.28143365886336C0,338.28143365886336,0,338.28143365886336,0,338.28143365886336L0,6C0,2.688509853036,2.688509853036,0,6,0Z"/></clipPath><clipPath id="clip8"><path d="M6,0L74,0C77.311490146964,0,80,2.688509853036,80,6L80,428.43282965227104C80,428.43282965227104,80,428.43282965227104,80,428.43282965227104L0,428.43282965227104C0,428.43282965227104,0,428.43282965227104,0,428.43282965227104L0,6C0,2.688509853036,2.688509853036,0,6,0Z"/></clipPath><clipPath id="clip9"><path d="M6,0L74,0C77.311490146964,0,80,2.688509853036,80,6L80,576.9230769230769C80,576.9230769230769,80,576.9230769230769,80,576.9230769230769L0,576.9230769230769C0,576.9230769230769,0,576.9230769230769,0,576.9230769230769L0,6C0,2.688509853036,2.688509853036,0,6,0Z"/></clipPath></defs></svg>