<svg xmlns="http://www.w3.org/2000/svg" xmlns:xlink="http://www.w3.org/1999/xlink" version="1.1" class="marks" width="846" height="687" viewBox="0 0 846 687"><rect width="846" height="687" fill="white"/><g fill="none" stroke-miterlimit="10" transform="translate(41,36)"><g class="mark-group role-frame root" role="graphics-object" aria-roledescription="group mark container"><g transform="translate(0,0)"><path class="background" aria-hidden="true" d="M0.5,0.5h800v600h-800Z" stroke="#ddd"/><g><g class="mark-group role-axis" role="graphics-symbol" aria-roledescription="axis" aria-label="X-axis titled 'Implementation' for a discrete scale with 9 values: uuid7_rs&#xA;0.0.11, fastuuid7&#xA;0.2.0, uuid_utils&#xA;0.16.2, fastuuid&#xA;0.14.0, UUIDv7gen&#xA;1.0.3, ending with uuid_v7&#xA;1.0.0"><g transform="translate(0.5,600.5)"><path class="background" aria-hidden="true" d="M0,0h0v0h0Z" pointer-events="none"/><g><g class="mark-rule role-axis-tick" pointer-events="none"><line transform="translate(44,0)" x2="0" y2="5" stroke="#888" stroke-width="1" opacity="1"/><line transform="translate(133,0)" x2="0" y2="5" stroke="#888" stroke-width="1" opacity="1"/><line transform="translate(222,0)" x2="0" y2="5" stroke="#888" stroke-width="1" opacity="1"/><line transform="translate(311,0)" x2="0" y2="5" stroke="#888" stroke-width="1" opacity="1"/><line transform="translate(400,0)" x2="0" y2="5" stroke="#888" stroke-width="1" opacity="1"/><line transform="translate(488,0)" x2="0" y2="5" stroke="#888" stroke-width="1" opacity="1"/><line transform="translate(577,0)" x2="0" y2="5" stroke="#888" stroke-width="1" opacity="1"/><line transform="translate(666,0)" x2="0" y2="5" stroke="#888" stroke-width="1" opacity="1"/><line transform="translate(755,0)" x2="0" y2="5" stroke="#888" stroke-width="1" opacity="1"/></g><g class="mark-text role-axis-label" pointer-events="none"><text text-anchor="middle" transform="translate(43.94444444444446,15)" font-family="sans-serif" font-size="10px" fill="#000" opacity="1"><tspan>uuid7_rs</tspan><tspan x="0" dy="14">0.0.11</tspan></text><text text-anchor="middle" transform="translate(132.83333333333334,15)" font-family="sans-serif" font-size="10px" fill="#000" opacity="1"><tspan>fastuuid7</tspan><tspan x="0" dy="14">0.2.0</tspan></text><text text-anchor="middle" transform="translate(221.72222222222223,15)" font-family="sans-serif" font-size="10px" fill="#000" opacity="1"><tspan>uuid_utils</tspan><tspan x="0" dy="14">0.16.2</tspan></text><text text-anchor="middle" transform="translate(310.6111111111111,15)" font-family="sans-serif" font-size="10px" fill="#000" opacity="1"><tspan>fastuuid</tspan><tspan x="0" dy="14">0.14.0</tspan></text><text text-anchor="middle" transform="translate(399.5,15)" font-family="sans-serif" font-size="10px" fill="#000" opacity="1"><tspan>UUIDv7gen</tspan><tspan x="0" dy="14">1.0.3</tspan></text><text text-anchor="middle" transform="translate(488.3888888888889,15)" font-family="sans-serif" font-size="10px" fill="#000" opacity="1"><tspan>lastuuid</tspan><tspan x="0" dy="14">0.5.0</tspan></text><text text-anchor="middle" transform="translate(577.2777777777777,15)" font-family="sans-serif" font-size="10px" fill="#000" opacity="1"><tspan>uuid</tspan><tspan x="0" dy="14">stdlib</tspan></text><text text-anchor="middle" transform="translate(666.1666666666666,15)" font-family="sans-serif" font-size="10px" fill="#000" opacity="1"><tspan>uuid6</tspan><tspan x="0" dy="14">2025.0.1</tspan></text><text text-anchor="middle" transform="translate(755.0555555555555,15)" font-family="sans-serif" font-size="10px" fill="#000" opacity="1"><tspan>uuid_v7</tspan><tspan x="0" dy="14">1.0.0</tspan></text></g><g class="mark-rule role-axis-domain" pointer-events="none"><line transform="translate(0,0)" x2="800" y2="0" stroke="#888" stroke-width="1" opacity="1"/></g><g class="mark-text role-axis-title" pointer-events="none"><text text-anchor="middle" transform="translate(400,44)" font-family="sans-serif" font-size="11px" font-weight="bold" fill="#000" opacity="1">Implementation</text></g></g><path class="foreground" aria-hidden="true" d="" pointer-events="none" display="none"/></g></g><g class="mark-group role-axis" role="graphics-symbol" aria-roledescription="axis" aria-label="Y-axis titled 'Execution Time (seconds, lower=better)' for a linear scale with values from 0.0 to 2.0"><g transform="translate(0.5,0.5)"><path class="background" aria-hidden="true" d="M0,0h0v0h0Z" pointer-events="none"/><g><g class="mark-rule role-axis-tick" pointer-events="none"><line transform="translate(0,600)" x2="-5" y2="0" stroke="#888" stroke-width="1" opacity="1"/><line transform="translate(0,570)" x2="-5" y2="0" stroke="#888" stroke-width="1" opacity="1"/><line transform="translate(0,541)" x2="-5" y2="0" stroke="#888" stroke-width="1" opacity="1"/><line transform="translate(0,511)" x2="-5" y2="0" stroke="#888" stroke-width="1" opacity="1"/><line transform="translate(0,482)" x2="-5" y2="0" stroke="#888" stroke-width="1" opacity="1"/><line transform="translate(0,452)" x2="-5" y2="0" stroke="#888" stroke-width="1" opacity="1"/><line transform="translate(0,423)" x2="-5" y2="0" stroke="#888" stroke-width="1" opacity="1"/><line transform="translate(0,393)" x2="-5" y2="0" stroke="#888" stroke-width="1" opacity="1"/><line transform="translate(0,364)" x2="-5" y2="0" stroke="#888" stroke-width="1" opacity="1"/><line transform="translate(0,334)" x2="-5" y2="0" stroke="#888" stroke-width="1" opacity="1"/><line transform="translate(0,305)" x2="-5" y2="0" stroke="#888" stroke-width="1" opacity="1"/><line transform="translate(0,275)" x2="-5" y2="0" stroke="#888" stroke-width="1" opacity="1"/><line transform="translate(0,246)" x2="-5" y2="0" stroke="#888" stroke-width="1" opacity="1"/><line transform="translate(0,216)" x2="-5" y2="0" stroke="#888" stroke-width="1" opacity="1"/><line transform="translate(0,187)" x2="-5" y2="0" stroke="#888" stroke-width="1" opacity="1"/><line transform="translate(0,157)" x2="-5" y2="0" stroke="#888" stroke-width="1" opacity="1"/><line transform="translate(0,128)" x2="-5" y2="0" stroke="#888" stroke-width="1" opacity="1"/><line transform="translate(0,98)" x2="-5" y2="0" stroke="#888" stroke-width="1" opacity="1"/><line transform="translate(0,69)" x2="-5" y2="0" stroke="#888" stroke-width="1" opacity="1"/><line transform="translate(0,39)" x2="-5" y2="0" stroke="#888" stroke-width="1" opacity="1"/><line transform="translate(0,10)" x2="-5" y2="0" stroke="#888" stroke-width="1" opacity="1"/></g><g class="mark-text role-axis-label" pointer-events="none"><text text-anchor="end" transform="translate(-7,603)" font-family="sans-serif" font-size="10px" fill="#000" opacity="1">0.0</text><text text-anchor="end" transform="translate(-7,573.4795725199704)" font-family="sans-serif" font-size="10px" fill="#000" opacity="1">0.1</text><text text-anchor="end" transform="translate(-7,543.9591450399407)" font-family="sans-serif" font-size="10px" fill="#000" opacity="1">0.2</text><text text-anchor="end" transform="translate(-7,514.4387175599112)" font-family="sans-serif" font-size="10px" fill="#000" opacity="1">0.3</text><text text-anchor="end" transform="translate(-7,484.9182900798815)" font-family="sans-serif" font-size="10px" fill="#000" opacity="1">0.4</text><text text-anchor="end" transform="translate(-7,455.3978625998519)" font-family="sans-serif" font-size="10px" fill="#000" opacity="1">0.5</text><text text-anchor="end" transform="translate(-7,425.87743511982234)" font-family="sans-serif" font-size="10px" fill="#000" opacity="1">0.6</text><text text-anchor="end" transform="translate(-7,396.35700763979276)" font-family="sans-serif" font-size="10px" fill="#000" opacity="1">0.7</text><text text-anchor="end" transform="translate(-7,366.8365801597631)" font-family="sans-serif" font-size="10px" fill="#000" opacity="1">0.8</text><text text-anchor="end" transform="translate(-7,337.31615267973353)" font-family="sans-serif" font-size="10px" fill="#000" opacity="1">0.9</text><text text-anchor="end" transform="translate(-7,307.79572519970384)" font-family="sans-serif" font-size="10px" fill="#000" opacity="1">1.0</text><text text-anchor="end" transform="translate(-7,278.27529771967426)" font-family="sans-serif" font-size="10px" fill="#000" opacity="1">1.1</text><text text-anchor="end" transform="translate(-7,248.75487023964467)" font-family="sans-serif" font-size="10px" fill="#000" opacity="1">1.2</text><text text-anchor="end" transform="translate(-7,219.23444275961504)" font-family="sans-serif" font-size="10px" fill="#000" opacity="1">1.3</text><text text-anchor="end" transform="translate(-7,189.71401527958545)" font-family="sans-serif" font-size="10px" fill="#000" opacity="1">1.4</text><text text-anchor="end" transform="translate(-7,160.19358779955584)" font-family="sans-serif" font-size="10px" fill="#000" opacity="1">1.5</text><text text-anchor="end" transform="translate(-7,130.6731603195262)" font-family="sans-serif" font-size="10px" fill="#000" opacity="1">1.6</text><text text-anchor="end" transform="translate(-7,101.15273283949662)" font-family="sans-serif" font-size="10px" fill="#000" opacity="1">1.7</text><text text-anchor="end" transform="translate(-7,71.63230535946703)" font-family="sans-serif" font-size="10px" fill="#000" opacity="1">1.8</text><text text-anchor="end" transform="translate(-7,42.11187787943744)" font-family="sans-serif" font-size="10px" fill="#000" opacity="1">1.9</text><text text-anchor="end" transform="translate(-7,12.591450399407787)" font-family="sans-serif" font-size="10px" fill="#000" opacity="1">2.0</text></g><g class="mark-rule role-axis-domain" pointer-events="none"><line transform="translate(0,600)" x2="0" y2="-600" stroke="#888" stroke-width="1" opacity="1"/></g><g class="mark-text role-axis-title" pointer-events="none"><text text-anchor="middle" transform="translate(-24.9013671875,300) rotate(-90) translate(0,-2)" font-family="sans-serif" font-size="11px" font-weight="bold" fill="#000" opacity="1">Execution Time (seconds, lower=better)</text></g></g><path class="foreground" aria-hidden="true" d="" pointer-events="none" display="none"/></g></g><g class="mark-group role-scope" role="graphics-object" aria-roledescription="group mark container"><g transform="translate(4.444444444444457,591.397735033733)"><path class="background" aria-hidden="true" d="M4.301132483133472,0L75.69886751686653,0C78.07272715664708,0,80,1.9272728433529227,80,4.301132483133472L80,8.602264966266944C80,8.602264966266944,80,8.602264966266944,80,8.602264966266944L0,8.602264966266944C0,8.602264966266944,0,8.602264966266944,0,8.602264966266944L0,4.301132483133472C0,1.9272728433529227,1.9272728433529227,0,4.301132483133472,0Z"/><g clip-path="url(#clip1)"><g class="mark-group role-scope" role="graphics-object" aria-roledescription="group mark container"><g transform="translate(0,-591.397735033733)"><path class="background" aria-hidden="true" d="M0,0h80v0h-80Z"/><g><g class="mark-rect role-mark layer_0_marks" role="graphics-object" aria-roledescription="rect mark container"><path aria-label="Implementation: uuid7_rs&#xA;0.0.11; Execution Time (seconds, lower=better): 0.029140042; implementation: uuid7_rs; Execution Time (s): 0.0291; Slowdown: 1.00" role="graphics-symbol" aria-roledescription="bar" d="M0,591.397735033733h80v8.602264966266944h-80Z" fill="#a6761d"/></g></g><path class="foreground" aria-hidden="true" d="" display="none"/></g></g></g><path class="foreground" aria-hidden="true" d="" display="none"/></g><g transform="translate(93.33333333333334,579.0194386826387)"><path class="background" aria-hidden="true" d="M6,0L74,0C77.311490146964,0,80,2.688509853036,80,6L80,20.98056131736132C80,20.98056131736132,80,20.98056131736132,80,20.98056131736132L0,20.98056131736132C0,20.98056131736132,0,20.98056131736132,0,20.98056131736132L0,6C0,2.688509853036,2.688509853036,0,6,0Z"/><g clip-path="url(#clip2)"><g class="mark-group role-scope" role="graphics-object" aria-roledescription="group mark container"><g transform="translate(0,-579.0194386826387)"><path class="background" aria-hidden="true" d="M0,0h80v0h-80Z"/><g><g class="mark-rect role-mark layer_0_marks" role="graphics-object" aria-roledescription="rect mark container"><path aria-label="Implementation: fastuuid7&#xA;0.2.0; Execution Time (seconds, lower=better): 0.071071333; implementation: fastuuid7; Execution Time (s): 0.0711; Slowdown: 2.44" role="graphics-symbol" aria-roledescription="bar" d="M0,579.0194386826387h80v20.98056131736132h-80Z" fill="#7570b3"/></g></g><path class="foreground" aria-hidden="true" d="" display="none"/></g></g></g><path class="foreground" aria-hidden="true" d="" display="none"/></g><g transform="translate(182.22222222222223,569.1506490744716)"><path class="background" aria-hidden="true" d="M6,0L74,0C77.311490146964,0,80,2.688509853036,80,6L80,30.84935092552837C80,30.84935092552837,80,30.84935092552837,80,30.84935092552837L0,30.84935092552837C0,30.84935092552837,0,30.84935092552837,0,30.84935092552837L0,6C0,2.688509853036,2.688509853036,0,6,0Z"/><g clip-path="url(#clip3)"><g class="mark-group role-scope" role="graphics-object" aria-roledescription="group mark container"><g transform="translate(0,-569.1506490744716)"><path class="background" aria-hidden="true" d="M0,0h80v0h-80Z"/><g><g class="mark-rect role-mark layer_0_marks" role="graphics-object" aria-roledescription="rect mark container"><path aria-label="Implementation: uuid_utils&#xA;0.16.2; Execution Time (seconds, lower=better): 0.104501708; implementation: uuid_utils; Execution Time (s): 0.1045; Slowdown: 3.59" role="graphics-symbol" aria-roledescription="bar" d="M0,569.1506490744716h80v30.84935092552837h-80Z" fill="#666666"/></g></g><path class="foreground" aria-hidden="true" d="" display="none"/></g></g></g><path class="foreground" aria-hidden="true" d="" display="none"/></g><g transform="translate(271.1111111111111,447.9112618317864)"><path class="background" aria-hidden="true" d="M6,0L74,0C77.311490146964,0,80,2.688509853036,80,6L80,152.08873816821358C80,152.08873816821358,80,152.08873816821358,80,152.08873816821358L0,152.08873816821358C0,152.08873816821358,0,152.08873816821358,0,152.08873816821358L0,6C0,2.688509853036,2.688509853036,0,6,0Z"/><g clip-path="url(#clip4)"><g class="mark-group role-scope" role="graphics-object" aria-roledescription="group mark container"><g transform="translate(0,-447.9112618317864)"><path class="background" aria-hidden="true" d="M0,0h80v0h-80Z"/><g><g class="mark-rect role-mark layer_0_marks" role="graphics-object" aria-roledescription="rect mark container"><path aria-label="Implementation: fastuuid&#xA;0.14.0; Execution Time (seconds, lower=better): 0.515198292; implementation: fastuuid; Execution Time (s): 0.5152; Slowdown: 17.68" role="graphics-symbol" aria-roledescription="bar" d="M0,447.9112618317864h80v152.08873816821358h-80Z" fill="#d95f02"/></g></g><path class="foreground" aria-hidden="true" d="" display="none"/></g></g></g><path class="foreground" aria-hidden="true" d="" display="none"/></g><g transform="translate(360,433.97733725552)"><path class="background" aria-hidden="true" d="M6,0L74,0C77.311490146964,0,80,2.688509853036,80,6L80,166.02266274448C80,166.02266274448,80,166.02266274448,80,166.02266274448L0,166.02266274448C0,166.02266274448,0,166.02266274448,0,166.02266274448L0,6C0,2.688509853036,2.688509853036,0,6,0Z"/><g clip-path="url(#clip5)"><g class="mark-group role-scope" role="graphics-object" aria-roledescription="group mark container"><g transform="translate(0,-433.97733725552)"><path class="background" aria-hidden="true" d="M0,0h80v0h-80Z"/><g><g class="mark-rect role-mark layer_0_marks" role="graphics-object" aria-roledescription="rect mark container"><path aria-label="Implementation: UUIDv7gen&#xA;1.0.3; Execution Time (seconds, lower=better): 0.56239925; implementation: UUIDv7gen; Execution Time (s): 0.5624; Slowdown: 19.30" role="graphics-symbol" aria-roledescription="bar" d="M0,433.97733725552h80v166.02266274448h-80Z" fill="#1b9e77"/></g></g><path class="foreground" aria-hidden="true" d="" display="none"/></g></g></g><path class="foreground" aria-hidden="true" d="" display="none"/></g><g transform="translate(448.8888888888889,405.68021178830764)"><path class="background" aria-hidden="true" d="M6,0L74,0C77.311490146964,0,80,2.688509853036,80,6L80,194.31978821169236C80,194.31978821169236,80,194.31978821169236,80,194.31978821169236L0,194.31978821169236C0,194.31978821169236,0,194.31978821169236,0,194.31978821169236L0,6C0,2.688509853036,2.688509853036,0,6,0Z"/><g clip-path="url(#clip6)"><g class="mark-group role-scope" role="graphics-object" aria-roledescription="group mark container"><g transform="translate(0,-405.68021178830764)"><path class="background" aria-hidden="true" d="M0,0h80v0h-80Z"/><g><g class="mark-rect role-mark layer_0_marks" role="graphics-object" aria-roledescription="rect mark container"><path aria-label="Implementation: lastuuid&#xA;0.5.0; Execution Time (seconds, lower=better): 0.658255333; implementation: lastuuid; Execution Time (s): 0.6583; Slowdown: 22.59" role="graphics-symbol" aria-roledescription="bar" d="M0,405.68021178830764h80v194.31978821169236h-80Z" fill="#e7298a"/></g></g><path class="foreground" aria-hidden="true" d="" display="none"/></g></g></g><path class="foreground" aria-hidden="true" d="" display="none"/></g><g transform="translate(537.7777777777777,322.02241965958854)"><path class="background" aria-hidden="true" d="M6,0L74,0C77.311490146964,0,80,2.688509853036,80,6L80,277.97758034041146C80,277.97758034041146,80,277.97758034041146,80,277.97758034041146L0,277.97758034041146C0,277.97758034041146,0,277.97758034041146,0,277.97758034041146L0,6C0,2.688509853036,2.688509853036,0,6,0Z"/><g clip-path="url(#clip7)"><g class="mark-group role-scope" role="graphics-object" aria-roledescription="group mark container"><g transform="translate(0,-322.02241965958854)"><path class="background" aria-hidden="true" d="M0,0h80v0h-80Z"/><g><g class="mark-rect role-mark layer_0_marks" role="graphics-object" aria-roledescription="rect mark container"><path aria-label="Implementation: uuid&#xA;stdlib; Execution Time (seconds, lower=better): 0.941644834; implementation: uuid; Execution Time (s): 0.9416; Slowdown: 32.31" role="graphics-symbol" aria-roledescription="bar" d="M0,322.02241965958854h80v277.97758034041146h-80Z" fill="#66a61e"/></g></g><path class="foreground" aria-hidden="true" d="" display="none"/></g></g></g><path class="foreground" aria-hidden="true" d="" display="none"/></g><g transform="translate(626.6666666666666,199.2097787252995)"><path class="background" aria-hidden="true" d="M6,0L74,0C77.311490146964,0,80,2.688509853036,80,6L80,400.7902212747005C80,400.7902212747005,80,400.7902212747005,80,400.7902212747005L0,400.7902212747005C0,400.7902212747005,0,400.7902212747005,0,400.7902212747005L0,6C0,2.688509853036,2.688509853036,0,6,0Z"/><g clip-path="url(#clip8)"><g class="mark-group role-scope" role="graphics-object" aria-roledescription="group mark container"><g transform="translate(0,-199.2097787252995)"><path class="background" aria-hidden="true" d="M0,0h80v0h-80Z"/><g><g class="mark-rect role-mark layer_0_marks" role="graphics-object" aria-roledescription="rect mark container"><path aria-label="Implementation: uuid6&#xA;2025.0.1; Execution Time (seconds, lower=better): 1.357670791; implementation: uuid6; Execution Time (s): 1.3577; Slowdown: 46.59" role="graphics-symbol" aria-roledescription="bar" d="M0,199.2097787252995h80v400.7902212747005h-80Z" fill="#e6ab02"/></g></g><path class="foreground" aria-hidden="true" d="" display="none"/></g></g></g><path class="foreground" aria-hidden="true" d="" display="none"/></g><g transform="translate(715.5555555555555,23.07692307692313)"><path class="background" aria-hidden="true" d="M6,0L74,0C77.311490146964,0,80,2.688509853036,80,6L80,576.9230769230769C80,576.9230769230769,80,576.9230769230769,80,576.9230769230769L0,576.9230769230769C0,576.9230769230769,0,576.9230769230769,0,576.9230769230769L0,6C0,2.688509853036,2.688509853036,0,6,0Z"/><g clip-path="url(#clip9)"><g class="mark-group role-scope" role="graphics-object" aria-roledescription="group mark container"><g transform="translate(0,-23.07692307692313)"><path class="background" aria-hidden="true" d="M0,0h80v0h-80Z"/><g><g class="mark-rect role-mark layer_0_marks" role="graphics-object" aria-roledescription="rect mark container"><path aria-label="Implementation: uuid_v7&#xA;1.0.0; Execution Time (seconds, lower=better): 1.954318166; implementation: uuid_v7; Execution Time (s): 1.9543; Slowdown: 67.07" role="graphics-symbol" aria-roledescription="bar" d="M0,23.07692307692313h80v576.9230769230769h-80Z" fill="#1b9e77"/></g></g><path class="foreground" aria-hidden="true" d="" display="none"/></g></g></g><path class="foreground" aria-hidden="true" d="" display="none"/></g></g><g class="mark-text role-mark layer_1_marks" role="graphics-object" aria-roledescription="text mark container"><text aria-label="Implementation: uuid7_rs&#xA;0.0.11; Execution Time (seconds, lower=better): 0.029140042; implementation: uuid7_rs; label: 0.0291s (x1.00); Execution Time (s): 0.0291; Slowdown: 1.00" role="graphics-symbol" aria-roledescription="text mark" text-anchor="middle" transform="translate(44.44444444444446,587.397735033733)" font-family="sans-serif" font-size="9px" font-weight="bold" fill="#a6761d">0.0291s (x1.00)</text><text aria-label="Implementation: fastuuid7&#xA;0.2.0; Execution Time (seconds, lower=better): 0.071071333; implementation: fastuuid7; label: 0.0711s (x2.44); Execution Time (s): 0.0711; Slowdown: 2.44" role="graphics-symbol" aria-roledescription="text mark" text-anchor="middle" transform="translate(133.33333333333334,575.0194386826387)" font-family="sans-serif" font-size="9px" font-weight="bold" fill="#7570b3">0.0711s (x2.44)</text><text aria-label="Implementation: uuid_utils&#xA;0.16.2; Execution Time (seconds, lower=better): 0.104501708; implementation: uuid_utils; label: 0.1045s (x3.59); Execution Time (s): 0.1045; Slowdown: 3.59" role="graphics-symbol" aria-roledescription="text mark" text-anchor="middle" transform="translate(222.22222222222223,565.1506490744716)" font-family="sans-serif" font-size="9px" font-weight="bold" fill="#666666">0.1045s (x3.59)</text><text aria-label="Implementation: fastuuid&#xA;0.14.0; Execution Time (seconds, lower=better): 0.515198292; implementation: fastuuid; label: 0.5152s (x17.68); Execution Time (s): 0.5152; Slowdown: 17.68" role="graphics-symbol" aria-roledescription="text mark" text-anchor="middle" transform="translate(311.1111111111111,443.9112618317864)" font-family="sans-serif" font-size="9px" font-weight="bold" fill="#d95f02">0.5152s (x17.68)</text><text aria-label="Implementation: UUIDv7gen&#xA;1.0.3; Execution Time (seconds, lower=better): 0.56239925; implementation: UUIDv7gen; label: 0.5624s (x19.30); Execution Time (s): 0.5624; Slowdown: 19.30" role="graphics-symbol" aria-roledescription="text mark" text-anchor="middle" transform="translate(400,429.97733725552)" font-family="sans-serif" font-size="9px" font-weight="bold" fill="#1b9e77">0.5624s (x19.30)</text><text aria-label="Implementation: lastuuid&#xA;0.5.0; Execution Time (seconds, lower=better): 0.658255333; implementation: lastuuid; label: 0.6583s (x22.59); Execution Time (s): 0.6583; Slowdown: 22.59" role="graphics-symbol" aria-roledescription="text mark" text-anchor="middle" transform="translate(488.8888888888889,401.68021178830764)" font-family="sans-serif" font-size="9px" font-weight="bold" fill="#e7298a">0.6583s (x22.59)</text><text aria-label="Implementation: uuid&#xA;stdlib; Execution Time (seconds, lower=better): 0.941644834; implementation: uuid; label: 0.9416s (x32.31); Execution Time (s): 0.9416; Slowdown: 32.31" role="graphics-symbol" aria-roledescription="text mark" text-anchor="middle" transform="translate(577.7777777777777,318.02241965958854)" font-family="sans-serif" font-size="9px" font-weight="bold" fill="#66a61e">0.9416s (x32.31)</text><text aria-label="Implementation: uuid6&#xA;2025.0.1; Execution Time (seconds, lower=better): 1.357670791; implementation: uuid6; label: 1.3577s (x46.59); Execution Time (s): 1.3577; Slowdown: 46.59" role="graphics-symbol" aria-roledescription="text mark" text-anchor="middle" transform="translate(666.6666666666666,195.2097787252995)" font-family="sans-serif" font-size="9px" font-weight="bold" fill="#e6ab02">1.3577s (x46.59)</text><text aria-label="Implementation: uuid_v7&#xA;1.0.0; Execution Time (seconds, lower=better): 1.954318166; implementation: uuid_v7; label: 1.9543s (x67.07); Execution Time (s): 1.9543; Slowdown: 67.07" role="graphics-symbol" aria-roledescription="text mark" text-anchor="middle" transform="translate(755.5555555555555,19.07692307692313)" font-family="sans-serif" font-size="9px" font-weight="bold" fill="#1b9e77">1.9543s (x67.07)</text></g><g class="mark-group role-title"><g transform="translate(400,-31)"><path class="background" aria-hidden="true" d="M0,0h0v0h0Z" pointer-events="none"/><g><g class="mark-text role-title-text" role="graphics-symbol" aria-roledescription="title" aria-label="Title text 'UUID v7 benchmark (uuid7() default APIs)'" pointer-events="none"><text text-anchor="middle" transform="translate(0,10)" font-family="sans-serif" font-size="13px" font-weight="bold" fill="#000" opacity="1">UUID v7 benchmark (uuid7() default APIs)</text></g><g class="mark-text role-title-subtitle" role="graphics-symbol" aria-roledescription="subtitle" aria-label="Subtitle text 'Python: 3.14.6 (Darwin 25.4.0) | CPU: Apple M1 (Virtual)'" pointer-events="none"><text text-anchor="middle" transform="translate(0,25)" font-family="sans-serif" font-size="12px" fill="#000" opacity="1">Python: 3.14.6 (Darwin 25.4.0) | CPU: Apple M1 (Virtual)</text></g></g><path class="foreground" aria-hidden="true" d="" pointer-events="none" display="none"/></g></g></g><path class="foreground" aria-hidden="true" d="" display="none"/></g></g></g><defs><clipPath id="clip1"><path d="M4.301132483133472,0L75.69886751686653,0C78.07272715664708,0,80,1.9272728433529227,80,4.301132483133472L80,8.602264966266944C80,8.602264966266944,80,8.602264966266944,80,8.602264966266944L0,8.602264966266944C0,8.602264966266944,0,8.602264966266944,0,8.602264966266944L0,4.301132483133472C0,1.9272728433529227,1.9272728433529227,0,4.301132483133472,0Z"/></clipPath><clipPath id="clip2"><path d="M6,0L74,0C77.311490146964,0,80,2.688509853036,80,6L80,20.98056131736132C80,20.98056131736132,80,20.98056131736132,80,20.98056131736132L0,20.98056131736132C0,20.98056131736132,0,20.98056131736132,0,20.98056131736132L0,6C0,2.688509853036,2.688509853036,0,6,0Z"/></clipPath><clipPath id="clip3"><path d="M6,0L74,0C77.311490146964,0,80,2.688509853036,80,6L80,30.84935092552837C80,30.84935092552837,80,30.84935092552837,80,30.84935092552837L0,30.84935092552837C0,30.84935092552837,0,30.84935092552837,0,30.84935092552837L0,6C0,2.688509853036,2.688509853036,0,6,0Z"/></clipPath><clipPath id="clip4"><path d="M6,0L74,0C77.311490146964,0,80,2.688509853036,80,6L80,152.08873816821358C80,152.08873816821358,80,152.08873816821358,80,152.08873816821358L0,152.08873816821358C0,152.08873816821358,0,152.08873816821358,0,152.08873816821358L0,6C0,2.688509853036,2.688509853036,0,6,0Z"/></clipPath><clipPath id="clip5"><path d="M6,0L74,0C77.311490146964,0,80,2.688509853036,80,6L80,166.02266274448C80,166.02266274448,80,166.02266274448,80,166.02266274448L0,166.02266274448C0,166.02266274448,0,166.02266274448,0,166.02266274448L0,6C0,2.688509853036,2.688509853036,0,6,0Z"/></clipPath><clipPath id="clip6"><path d="M6,0L74,0C77.311490146964,0,80,2.688509853036,80,6L80,194.31978821169236C80,194.31978821169236,80,194.31978821169236,80,194.31978821169236L0,194.31978821169236C0,194.31978821169236,0,194.31978821169236,0,194.31978821169236L0,6C0,2.688509853036,2.688509853036,0,6,0Z"/></clipPath><clipPath id="clip7"><path d="M6,0L74,0C77.311490146964,0,80,2.688509853036,80,6L80,277.97758034041146C80,277.97758034041146,80,277.97758034041146,80,277.97758034041146L0,277.97758034041146C0,277.97758034041146,0,277.97758034041146,0,277.97758034041146L0,6C0,2.688509853036,2.688509853036,0,6,0Z"/></clipPath><clipPath id="clip8"><path d="M6,0L74,0C77.311490146964,0,80,2.688509853036,80,6L80,400.7902212747005C80,400.7902212747005,80,400.7902212747005,80,400.7902212747005L0,400.7902212747005C0,400.7902212747005,0,400.7902212747005,0,400.7902212747005L0,6C0,2.688509853036,2.688509853036,0,6,0Z"/></clipPath><clipPath id="clip9"><path d="M6,0L74,0C77.311490146964,0,80,2.688509853036,80,6L80,576.9230769230769C80,576.9230769230769,80,576.9230769230769,80,576.9230769230769L0,576.9230769230769C0,576.9230769230769,0,576.9230769230769,0,576.9230769230769L0,6C0,2.688509853036,2.688509853036,0,6,0Z"/></clipPath></defs></svg>