<svg xmlns="http://www.w3.org/2000/svg" xmlns:xlink="http://www.w3.org/1999/xlink" version="1.1" class="marks" width="846" height="689" viewBox="0 0 846 689"><rect width="846" height="689" fill="white"/><g fill="none" stroke-miterlimit="10" transform="translate(41,38)"><g class="mark-group role-frame root" role="graphics-object" aria-roledescription="group mark container"><g transform="translate(0,0)"><path class="background" aria-hidden="true" d="M0.5,0.5h800v600h-800Z" stroke="#ddd"/><g><g class="mark-group role-axis" role="graphics-symbol" aria-roledescription="axis" aria-label="X-axis titled 'Implementation' for a discrete scale with 9 values: uuid7_rs&#xA;0.0.10, uuid_utils&#xA;0.16.2, fastuuid7&#xA;0.2.0, fastuuid&#xA;0.14.0, UUIDv7gen&#xA;1.0.3, ending with uuid_v7&#xA;1.0.0"><g transform="translate(0.5,600.5)"><path class="background" aria-hidden="true" d="M0,0h0v0h0Z" pointer-events="none"/><g><g class="mark-rule role-axis-tick" pointer-events="none"><line transform="translate(44,0)" x2="0" y2="5" stroke="#888" stroke-width="1" opacity="1"/><line transform="translate(133,0)" x2="0" y2="5" stroke="#888" stroke-width="1" opacity="1"/><line transform="translate(222,0)" x2="0" y2="5" stroke="#888" stroke-width="1" opacity="1"/><line transform="translate(311,0)" x2="0" y2="5" stroke="#888" stroke-width="1" opacity="1"/><line transform="translate(400,0)" x2="0" y2="5" stroke="#888" stroke-width="1" opacity="1"/><line transform="translate(488,0)" x2="0" y2="5" stroke="#888" stroke-width="1" opacity="1"/><line transform="translate(577,0)" x2="0" y2="5" stroke="#888" stroke-width="1" opacity="1"/><line transform="translate(666,0)" x2="0" y2="5" stroke="#888" stroke-width="1" opacity="1"/><line transform="translate(755,0)" x2="0" y2="5" stroke="#888" stroke-width="1" opacity="1"/></g><g class="mark-text role-axis-label" pointer-events="none"><text text-anchor="middle" transform="translate(43.94444444444446,15)" font-family="sans-serif" font-size="10px" fill="#000" opacity="1"><tspan>uuid7_rs</tspan><tspan x="0" dy="14">0.0.10</tspan></text><text text-anchor="middle" transform="translate(132.83333333333334,15)" font-family="sans-serif" font-size="10px" fill="#000" opacity="1"><tspan>uuid_utils</tspan><tspan x="0" dy="14">0.16.2</tspan></text><text text-anchor="middle" transform="translate(221.72222222222223,15)" font-family="sans-serif" font-size="10px" fill="#000" opacity="1"><tspan>fastuuid7</tspan><tspan x="0" dy="14">0.2.0</tspan></text><text text-anchor="middle" transform="translate(310.6111111111111,15)" font-family="sans-serif" font-size="10px" fill="#000" opacity="1"><tspan>fastuuid</tspan><tspan x="0" dy="14">0.14.0</tspan></text><text text-anchor="middle" transform="translate(399.5,15)" font-family="sans-serif" font-size="10px" fill="#000" opacity="1"><tspan>UUIDv7gen</tspan><tspan x="0" dy="14">1.0.3</tspan></text><text text-anchor="middle" transform="translate(488.3888888888889,15)" font-family="sans-serif" font-size="10px" fill="#000" opacity="1"><tspan>lastuuid</tspan><tspan x="0" dy="14">0.5.0</tspan></text><text text-anchor="middle" transform="translate(577.2777777777777,15)" font-family="sans-serif" font-size="10px" fill="#000" opacity="1"><tspan>uuid</tspan><tspan x="0" dy="14">stdlib</tspan></text><text text-anchor="middle" transform="translate(666.1666666666666,15)" font-family="sans-serif" font-size="10px" fill="#000" opacity="1"><tspan>uuid6</tspan><tspan x="0" dy="14">2025.0.1</tspan></text><text text-anchor="middle" transform="translate(755.0555555555555,15)" font-family="sans-serif" font-size="10px" fill="#000" opacity="1"><tspan>uuid_v7</tspan><tspan x="0" dy="14">1.0.0</tspan></text></g><g class="mark-rule role-axis-domain" pointer-events="none"><line transform="translate(0,0)" x2="800" y2="0" stroke="#888" stroke-width="1" opacity="1"/></g><g class="mark-text role-axis-title" pointer-events="none"><text text-anchor="middle" transform="translate(400,44)" font-family="sans-serif" font-size="11px" font-weight="bold" fill="#000" opacity="1">Implementation</text></g></g><path class="foreground" aria-hidden="true" d="" pointer-events="none" display="none"/></g></g><g class="mark-group role-axis" role="graphics-symbol" aria-roledescription="axis" aria-label="Y-axis titled 'Execution Time (seconds, lower=better)' for a linear scale with values from 0.0 to 1.2"><g transform="translate(0.5,0.5)"><path class="background" aria-hidden="true" d="M0,0h0v0h0Z" pointer-events="none"/><g><g class="mark-rule role-axis-tick" pointer-events="none"><line transform="translate(0,600)" x2="-5" y2="0" stroke="#888" stroke-width="1" opacity="1"/><line transform="translate(0,550)" x2="-5" y2="0" stroke="#888" stroke-width="1" opacity="1"/><line transform="translate(0,501)" x2="-5" y2="0" stroke="#888" stroke-width="1" opacity="1"/><line transform="translate(0,451)" x2="-5" y2="0" stroke="#888" stroke-width="1" opacity="1"/><line transform="translate(0,401)" x2="-5" y2="0" stroke="#888" stroke-width="1" opacity="1"/><line transform="translate(0,351)" x2="-5" y2="0" stroke="#888" stroke-width="1" opacity="1"/><line transform="translate(0,302)" x2="-5" y2="0" stroke="#888" stroke-width="1" opacity="1"/><line transform="translate(0,252)" x2="-5" y2="0" stroke="#888" stroke-width="1" opacity="1"/><line transform="translate(0,202)" x2="-5" y2="0" stroke="#888" stroke-width="1" opacity="1"/><line transform="translate(0,153)" x2="-5" y2="0" stroke="#888" stroke-width="1" opacity="1"/><line transform="translate(0,103)" x2="-5" y2="0" stroke="#888" stroke-width="1" opacity="1"/><line transform="translate(0,53)" x2="-5" y2="0" stroke="#888" stroke-width="1" opacity="1"/><line transform="translate(0,3)" x2="-5" y2="0" stroke="#888" stroke-width="1" opacity="1"/></g><g class="mark-text role-axis-label" pointer-events="none"><text text-anchor="end" transform="translate(-7,603)" font-family="sans-serif" font-size="10px" fill="#000" opacity="1">0.0</text><text text-anchor="end" transform="translate(-7,553.2782003604251)" font-family="sans-serif" font-size="10px" fill="#000" opacity="1">0.1</text><text text-anchor="end" transform="translate(-7,503.5564007208501)" font-family="sans-serif" font-size="10px" fill="#000" opacity="1">0.2</text><text text-anchor="end" transform="translate(-7,453.83460108127514)" font-family="sans-serif" font-size="10px" fill="#000" opacity="1">0.3</text><text text-anchor="end" transform="translate(-7,404.1128014417002)" font-family="sans-serif" font-size="10px" fill="#000" opacity="1">0.4</text><text text-anchor="end" transform="translate(-7,354.39100180212523)" font-family="sans-serif" font-size="10px" fill="#000" opacity="1">0.5</text><text text-anchor="end" transform="translate(-7,304.66920216255033)" font-family="sans-serif" font-size="10px" fill="#000" opacity="1">0.6</text><text text-anchor="end" transform="translate(-7,254.94740252297544)" font-family="sans-serif" font-size="10px" fill="#000" opacity="1">0.7</text><text text-anchor="end" transform="translate(-7,205.22560288340043)" font-family="sans-serif" font-size="10px" fill="#000" opacity="1">0.8</text><text text-anchor="end" transform="translate(-7,155.50380324382553)" font-family="sans-serif" font-size="10px" fill="#000" opacity="1">0.9</text><text text-anchor="end" transform="translate(-7,105.78200360425058)" font-family="sans-serif" font-size="10px" fill="#000" opacity="1">1.0</text><text text-anchor="end" transform="translate(-7,56.060203964675566)" font-family="sans-serif" font-size="10px" fill="#000" opacity="1">1.1</text><text text-anchor="end" transform="translate(-7,6.338404325100686)" font-family="sans-serif" font-size="10px" fill="#000" opacity="1">1.2</text></g><g class="mark-rule role-axis-domain" pointer-events="none"><line transform="translate(0,600)" x2="0" y2="-600" stroke="#888" stroke-width="1" opacity="1"/></g><g class="mark-text role-axis-title" pointer-events="none"><text text-anchor="middle" transform="translate(-24.9013671875,300) rotate(-90) translate(0,-2)" font-family="sans-serif" font-size="11px" font-weight="bold" fill="#000" opacity="1">Execution Time (seconds, lower=better)</text></g></g><path class="foreground" aria-hidden="true" d="" pointer-events="none" display="none"/></g></g><g class="mark-group role-scope" role="graphics-object" aria-roledescription="group mark container"><g transform="translate(4.444444444444457,588.5947514464267)"><path class="background" aria-hidden="true" d="M5.702624276786651,0L74.29737572321335,0C77.44473974061613,0,80,2.5552602593838674,80,5.702624276786651L80,11.405248553573301C80,11.405248553573301,80,11.405248553573301,80,11.405248553573301L0,11.405248553573301C0,11.405248553573301,0,11.405248553573301,0,11.405248553573301L0,5.702624276786651C0,2.5552602593838674,2.5552602593838674,0,5.702624276786651,0Z"/><g clip-path="url(#clip1)"><g class="mark-group role-scope" role="graphics-object" aria-roledescription="group mark container"><g transform="translate(0,-588.5947514464267)"><path class="background" aria-hidden="true" d="M0,0h80v0h-80Z"/><g><g class="mark-rect role-mark layer_0_marks" role="graphics-object" aria-roledescription="rect mark container"><path aria-label="Implementation: uuid7_rs&#xA;0.0.10; Execution Time (seconds, lower=better): 0.022938125; implementation: uuid7_rs; Execution Time (s): 0.0229; Slowdown: 1.00" role="graphics-symbol" aria-roledescription="bar" d="M0,588.5947514464267h80v11.405248553573301h-80Z" fill="#a6761d"/></g></g><path class="foreground" aria-hidden="true" d="" display="none"/></g></g></g><path class="foreground" aria-hidden="true" d="" display="none"/></g><g transform="translate(93.33333333333334,571.9884783460577)"><path class="background" aria-hidden="true" d="M6,0L74,0C77.311490146964,0,80,2.688509853036,80,6L80,28.01152165394228C80,28.01152165394228,80,28.01152165394228,80,28.01152165394228L0,28.01152165394228C0,28.01152165394228,0,28.01152165394228,0,28.01152165394228L0,6C0,2.688509853036,2.688509853036,0,6,0Z"/><g clip-path="url(#clip2)"><g class="mark-group role-scope" role="graphics-object" aria-roledescription="group mark container"><g transform="translate(0,-571.9884783460577)"><path class="background" aria-hidden="true" d="M0,0h80v0h-80Z"/><g><g class="mark-rect role-mark layer_0_marks" role="graphics-object" aria-roledescription="rect mark container"><path aria-label="Implementation: uuid_utils&#xA;0.16.2; Execution Time (seconds, lower=better): 0.0563365; implementation: uuid_utils; Execution Time (s): 0.0563; Slowdown: 2.46" role="graphics-symbol" aria-roledescription="bar" d="M0,571.9884783460577h80v28.01152165394228h-80Z" fill="#666666"/></g></g><path class="foreground" aria-hidden="true" d="" display="none"/></g></g></g><path class="foreground" aria-hidden="true" d="" display="none"/></g><g transform="translate(182.22222222222223,569.0755267141651)"><path class="background" aria-hidden="true" d="M6,0L74,0C77.311490146964,0,80,2.688509853036,80,6L80,30.924473285834893C80,30.924473285834893,80,30.924473285834893,80,30.924473285834893L0,30.924473285834893C0,30.924473285834893,0,30.924473285834893,0,30.924473285834893L0,6C0,2.688509853036,2.688509853036,0,6,0Z"/><g clip-path="url(#clip3)"><g class="mark-group role-scope" role="graphics-object" aria-roledescription="group mark container"><g transform="translate(0,-569.0755267141651)"><path class="background" aria-hidden="true" d="M0,0h80v0h-80Z"/><g><g class="mark-rect role-mark layer_0_marks" role="graphics-object" aria-roledescription="rect mark container"><path aria-label="Implementation: fastuuid7&#xA;0.2.0; Execution Time (seconds, lower=better): 0.062195; implementation: fastuuid7; Execution Time (s): 0.0622; Slowdown: 2.71" role="graphics-symbol" aria-roledescription="bar" d="M0,569.0755267141651h80v30.924473285834893h-80Z" fill="#7570b3"/></g></g><path class="foreground" aria-hidden="true" d="" display="none"/></g></g></g><path class="foreground" aria-hidden="true" d="" display="none"/></g><g transform="translate(271.1111111111111,427.64644602270596)"><path class="background" aria-hidden="true" d="M6,0L74,0C77.311490146964,0,80,2.688509853036,80,6L80,172.35355397729404C80,172.35355397729404,80,172.35355397729404,80,172.35355397729404L0,172.35355397729404C0,172.35355397729404,0,172.35355397729404,0,172.35355397729404L0,6C0,2.688509853036,2.688509853036,0,6,0Z"/><g clip-path="url(#clip4)"><g class="mark-group role-scope" role="graphics-object" aria-roledescription="group mark container"><g transform="translate(0,-427.64644602270596)"><path class="background" aria-hidden="true" d="M0,0h80v0h-80Z"/><g><g class="mark-rect role-mark layer_0_marks" role="graphics-object" aria-roledescription="rect mark container"><path aria-label="Implementation: fastuuid&#xA;0.14.0; Execution Time (seconds, lower=better): 0.346635792; implementation: fastuuid; Execution Time (s): 0.3466; Slowdown: 15.11" role="graphics-symbol" aria-roledescription="bar" d="M0,427.64644602270596h80v172.35355397729404h-80Z" fill="#d95f02"/></g></g><path class="foreground" aria-hidden="true" d="" display="none"/></g></g></g><path class="foreground" aria-hidden="true" d="" display="none"/></g><g transform="translate(360,410.2149362359722)"><path class="background" aria-hidden="true" d="M6,0L74,0C77.311490146964,0,80,2.688509853036,80,6L80,189.78506376402783C80,189.78506376402783,80,189.78506376402783,80,189.78506376402783L0,189.78506376402783C0,189.78506376402783,0,189.78506376402783,0,189.78506376402783L0,6C0,2.688509853036,2.688509853036,0,6,0Z"/><g clip-path="url(#clip5)"><g class="mark-group role-scope" role="graphics-object" aria-roledescription="group mark container"><g transform="translate(0,-410.2149362359722)"><path class="background" aria-hidden="true" d="M0,0h80v0h-80Z"/><g><g class="mark-rect role-mark layer_0_marks" role="graphics-object" aria-roledescription="rect mark container"><path aria-label="Implementation: UUIDv7gen&#xA;1.0.3; Execution Time (seconds, lower=better): 0.381693875; implementation: UUIDv7gen; Execution Time (s): 0.3817; Slowdown: 16.64" role="graphics-symbol" aria-roledescription="bar" d="M0,410.2149362359722h80v189.78506376402783h-80Z" fill="#1b9e77"/></g></g><path class="foreground" aria-hidden="true" d="" display="none"/></g></g></g><path class="foreground" aria-hidden="true" d="" display="none"/></g><g transform="translate(448.8888888888889,394.51496723852057)"><path class="background" aria-hidden="true" d="M6,0L74,0C77.311490146964,0,80,2.688509853036,80,6L80,205.48503276147943C80,205.48503276147943,80,205.48503276147943,80,205.48503276147943L0,205.48503276147943C0,205.48503276147943,0,205.48503276147943,0,205.48503276147943L0,6C0,2.688509853036,2.688509853036,0,6,0Z"/><g clip-path="url(#clip6)"><g class="mark-group role-scope" role="graphics-object" aria-roledescription="group mark container"><g transform="translate(0,-394.51496723852057)"><path class="background" aria-hidden="true" d="M0,0h80v0h-80Z"/><g><g class="mark-rect role-mark layer_0_marks" role="graphics-object" aria-roledescription="rect mark container"><path aria-label="Implementation: lastuuid&#xA;0.5.0; Execution Time (seconds, lower=better): 0.4132695; implementation: lastuuid; Execution Time (s): 0.4133; Slowdown: 18.02" role="graphics-symbol" aria-roledescription="bar" d="M0,394.51496723852057h80v205.48503276147943h-80Z" fill="#e7298a"/></g></g><path class="foreground" aria-hidden="true" d="" display="none"/></g></g></g><path class="foreground" aria-hidden="true" d="" display="none"/></g><g transform="translate(537.7777777777777,266.7645818509751)"><path class="background" aria-hidden="true" d="M6,0L74,0C77.311490146964,0,80,2.688509853036,80,6L80,333.2354181490249C80,333.2354181490249,80,333.2354181490249,80,333.2354181490249L0,333.2354181490249C0,333.2354181490249,0,333.2354181490249,0,333.2354181490249L0,6C0,2.688509853036,2.688509853036,0,6,0Z"/><g clip-path="url(#clip7)"><g class="mark-group role-scope" role="graphics-object" aria-roledescription="group mark container"><g transform="translate(0,-266.7645818509751)"><path class="background" aria-hidden="true" d="M0,0h80v0h-80Z"/><g><g class="mark-rect role-mark layer_0_marks" role="graphics-object" aria-roledescription="rect mark container"><path aria-label="Implementation: uuid&#xA;stdlib; Execution Time (seconds, lower=better): 0.670199833; implementation: uuid; Execution Time (s): 0.6702; Slowdown: 29.22" role="graphics-symbol" aria-roledescription="bar" d="M0,266.7645818509751h80v333.2354181490249h-80Z" fill="#66a61e"/></g></g><path class="foreground" aria-hidden="true" d="" display="none"/></g></g></g><path class="foreground" aria-hidden="true" d="" display="none"/></g><g transform="translate(626.6666666666666,144.37658863597835)"><path class="background" aria-hidden="true" d="M6,0L74,0C77.311490146964,0,80,2.688509853036,80,6L80,455.62341136402165C80,455.62341136402165,80,455.62341136402165,80,455.62341136402165L0,455.62341136402165C0,455.62341136402165,0,455.62341136402165,0,455.62341136402165L0,6C0,2.688509853036,2.688509853036,0,6,0Z"/><g clip-path="url(#clip8)"><g class="mark-group role-scope" role="graphics-object" aria-roledescription="group mark container"><g transform="translate(0,-144.37658863597835)"><path class="background" aria-hidden="true" d="M0,0h80v0h-80Z"/><g><g class="mark-rect role-mark layer_0_marks" role="graphics-object" aria-roledescription="rect mark container"><path aria-label="Implementation: uuid6&#xA;2025.0.1; Execution Time (seconds, lower=better): 0.916345375; implementation: uuid6; Execution Time (s): 0.9163; Slowdown: 39.95" role="graphics-symbol" aria-roledescription="bar" d="M0,144.37658863597835h80v455.62341136402165h-80Z" fill="#e6ab02"/></g></g><path class="foreground" aria-hidden="true" d="" display="none"/></g></g></g><path class="foreground" aria-hidden="true" d="" display="none"/></g><g transform="translate(715.5555555555555,23.076923076923062)"><path class="background" aria-hidden="true" d="M6,0L74,0C77.311490146964,0,80,2.688509853036,80,6L80,576.9230769230769C80,576.9230769230769,80,576.9230769230769,80,576.9230769230769L0,576.9230769230769C0,576.9230769230769,0,576.9230769230769,0,576.9230769230769L0,6C0,2.688509853036,2.688509853036,0,6,0Z"/><g clip-path="url(#clip9)"><g class="mark-group role-scope" role="graphics-object" aria-roledescription="group mark container"><g transform="translate(0,-23.076923076923062)"><path class="background" aria-hidden="true" d="M0,0h80v0h-80Z"/><g><g class="mark-rect role-mark layer_0_marks" role="graphics-object" aria-roledescription="rect mark container"><path aria-label="Implementation: uuid_v7&#xA;1.0.0; Execution Time (seconds, lower=better): 1.160302083; implementation: uuid_v7; Execution Time (s): 1.1603; Slowdown: 50.58" role="graphics-symbol" aria-roledescription="bar" d="M0,23.076923076923062h80v576.9230769230769h-80Z" fill="#1b9e77"/></g></g><path class="foreground" aria-hidden="true" d="" display="none"/></g></g></g><path class="foreground" aria-hidden="true" d="" display="none"/></g></g><g class="mark-text role-mark layer_1_marks" role="graphics-object" aria-roledescription="text mark container"><text aria-label="Implementation: uuid7_rs&#xA;0.0.10; Execution Time (seconds, lower=better): 0.022938125; implementation: uuid7_rs; label: 0.0229s (x1.00); Execution Time (s): 0.0229; Slowdown: 1.00" role="graphics-symbol" aria-roledescription="text mark" text-anchor="middle" transform="translate(44.44444444444446,584.5947514464267)" font-family="sans-serif" font-size="9px" font-weight="bold" fill="#a6761d">0.0229s (x1.00)</text><text aria-label="Implementation: uuid_utils&#xA;0.16.2; Execution Time (seconds, lower=better): 0.0563365; implementation: uuid_utils; label: 0.0563s (x2.46); Execution Time (s): 0.0563; Slowdown: 2.46" role="graphics-symbol" aria-roledescription="text mark" text-anchor="middle" transform="translate(133.33333333333334,567.9884783460577)" font-family="sans-serif" font-size="9px" font-weight="bold" fill="#666666">0.0563s (x2.46)</text><text aria-label="Implementation: fastuuid7&#xA;0.2.0; Execution Time (seconds, lower=better): 0.062195; implementation: fastuuid7; label: 0.0622s (x2.71); Execution Time (s): 0.0622; Slowdown: 2.71" role="graphics-symbol" aria-roledescription="text mark" text-anchor="middle" transform="translate(222.22222222222223,565.0755267141651)" font-family="sans-serif" font-size="9px" font-weight="bold" fill="#7570b3">0.0622s (x2.71)</text><text aria-label="Implementation: fastuuid&#xA;0.14.0; Execution Time (seconds, lower=better): 0.346635792; implementation: fastuuid; label: 0.3466s (x15.11); Execution Time (s): 0.3466; Slowdown: 15.11" role="graphics-symbol" aria-roledescription="text mark" text-anchor="middle" transform="translate(311.1111111111111,423.64644602270596)" font-family="sans-serif" font-size="9px" font-weight="bold" fill="#d95f02">0.3466s (x15.11)</text><text aria-label="Implementation: UUIDv7gen&#xA;1.0.3; Execution Time (seconds, lower=better): 0.381693875; implementation: UUIDv7gen; label: 0.3817s (x16.64); Execution Time (s): 0.3817; Slowdown: 16.64" role="graphics-symbol" aria-roledescription="text mark" text-anchor="middle" transform="translate(400,406.2149362359722)" font-family="sans-serif" font-size="9px" font-weight="bold" fill="#1b9e77">0.3817s (x16.64)</text><text aria-label="Implementation: lastuuid&#xA;0.5.0; Execution Time (seconds, lower=better): 0.4132695; implementation: lastuuid; label: 0.4133s (x18.02); Execution Time (s): 0.4133; Slowdown: 18.02" role="graphics-symbol" aria-roledescription="text mark" text-anchor="middle" transform="translate(488.8888888888889,390.51496723852057)" font-family="sans-serif" font-size="9px" font-weight="bold" fill="#e7298a">0.4133s (x18.02)</text><text aria-label="Implementation: uuid&#xA;stdlib; Execution Time (seconds, lower=better): 0.670199833; implementation: uuid; label: 0.6702s (x29.22); Execution Time (s): 0.6702; Slowdown: 29.22" role="graphics-symbol" aria-roledescription="text mark" text-anchor="middle" transform="translate(577.7777777777777,262.7645818509751)" font-family="sans-serif" font-size="9px" font-weight="bold" fill="#66a61e">0.6702s (x29.22)</text><text aria-label="Implementation: uuid6&#xA;2025.0.1; Execution Time (seconds, lower=better): 0.916345375; implementation: uuid6; label: 0.9163s (x39.95); Execution Time (s): 0.9163; Slowdown: 39.95" role="graphics-symbol" aria-roledescription="text mark" text-anchor="middle" transform="translate(666.6666666666666,140.37658863597835)" font-family="sans-serif" font-size="9px" font-weight="bold" fill="#e6ab02">0.9163s (x39.95)</text><text aria-label="Implementation: uuid_v7&#xA;1.0.0; Execution Time (seconds, lower=better): 1.160302083; implementation: uuid_v7; label: 1.1603s (x50.58); Execution Time (s): 1.1603; Slowdown: 50.58" role="graphics-symbol" aria-roledescription="text mark" text-anchor="middle" transform="translate(755.5555555555555,19.076923076923062)" font-family="sans-serif" font-size="9px" font-weight="bold" fill="#1b9e77">1.1603s (x50.58)</text></g><g class="mark-group role-title"><g transform="translate(400,-32.66159567489932)"><path class="background" aria-hidden="true" d="M0,0h0v0h0Z" pointer-events="none"/><g><g class="mark-text role-title-text" role="graphics-symbol" aria-roledescription="title" aria-label="Title text 'UUID v7 benchmark (uuid7() default APIs)'" pointer-events="none"><text text-anchor="middle" transform="translate(0,10)" font-family="sans-serif" font-size="13px" font-weight="bold" fill="#000" opacity="1">UUID v7 benchmark (uuid7() default APIs)</text></g><g class="mark-text role-title-subtitle" role="graphics-symbol" aria-roledescription="subtitle" aria-label="Subtitle text 'Python: 3.14.6 (Darwin 24.6.0) | CPU: Unknown'" pointer-events="none"><text text-anchor="middle" transform="translate(0,25)" font-family="sans-serif" font-size="12px" fill="#000" opacity="1">Python: 3.14.6 (Darwin 24.6.0) | CPU: Unknown</text></g></g><path class="foreground" aria-hidden="true" d="" pointer-events="none" display="none"/></g></g></g><path class="foreground" aria-hidden="true" d="" display="none"/></g></g></g><defs><clipPath id="clip1"><path d="M5.702624276786651,0L74.29737572321335,0C77.44473974061613,0,80,2.5552602593838674,80,5.702624276786651L80,11.405248553573301C80,11.405248553573301,80,11.405248553573301,80,11.405248553573301L0,11.405248553573301C0,11.405248553573301,0,11.405248553573301,0,11.405248553573301L0,5.702624276786651C0,2.5552602593838674,2.5552602593838674,0,5.702624276786651,0Z"/></clipPath><clipPath id="clip2"><path d="M6,0L74,0C77.311490146964,0,80,2.688509853036,80,6L80,28.01152165394228C80,28.01152165394228,80,28.01152165394228,80,28.01152165394228L0,28.01152165394228C0,28.01152165394228,0,28.01152165394228,0,28.01152165394228L0,6C0,2.688509853036,2.688509853036,0,6,0Z"/></clipPath><clipPath id="clip3"><path d="M6,0L74,0C77.311490146964,0,80,2.688509853036,80,6L80,30.924473285834893C80,30.924473285834893,80,30.924473285834893,80,30.924473285834893L0,30.924473285834893C0,30.924473285834893,0,30.924473285834893,0,30.924473285834893L0,6C0,2.688509853036,2.688509853036,0,6,0Z"/></clipPath><clipPath id="clip4"><path d="M6,0L74,0C77.311490146964,0,80,2.688509853036,80,6L80,172.35355397729404C80,172.35355397729404,80,172.35355397729404,80,172.35355397729404L0,172.35355397729404C0,172.35355397729404,0,172.35355397729404,0,172.35355397729404L0,6C0,2.688509853036,2.688509853036,0,6,0Z"/></clipPath><clipPath id="clip5"><path d="M6,0L74,0C77.311490146964,0,80,2.688509853036,80,6L80,189.78506376402783C80,189.78506376402783,80,189.78506376402783,80,189.78506376402783L0,189.78506376402783C0,189.78506376402783,0,189.78506376402783,0,189.78506376402783L0,6C0,2.688509853036,2.688509853036,0,6,0Z"/></clipPath><clipPath id="clip6"><path d="M6,0L74,0C77.311490146964,0,80,2.688509853036,80,6L80,205.48503276147943C80,205.48503276147943,80,205.48503276147943,80,205.48503276147943L0,205.48503276147943C0,205.48503276147943,0,205.48503276147943,0,205.48503276147943L0,6C0,2.688509853036,2.688509853036,0,6,0Z"/></clipPath><clipPath id="clip7"><path d="M6,0L74,0C77.311490146964,0,80,2.688509853036,80,6L80,333.2354181490249C80,333.2354181490249,80,333.2354181490249,80,333.2354181490249L0,333.2354181490249C0,333.2354181490249,0,333.2354181490249,0,333.2354181490249L0,6C0,2.688509853036,2.688509853036,0,6,0Z"/></clipPath><clipPath id="clip8"><path d="M6,0L74,0C77.311490146964,0,80,2.688509853036,80,6L80,455.62341136402165C80,455.62341136402165,80,455.62341136402165,80,455.62341136402165L0,455.62341136402165C0,455.62341136402165,0,455.62341136402165,0,455.62341136402165L0,6C0,2.688509853036,2.688509853036,0,6,0Z"/></clipPath><clipPath id="clip9"><path d="M6,0L74,0C77.311490146964,0,80,2.688509853036,80,6L80,576.9230769230769C80,576.9230769230769,80,576.9230769230769,80,576.9230769230769L0,576.9230769230769C0,576.9230769230769,0,576.9230769230769,0,576.9230769230769L0,6C0,2.688509853036,2.688509853036,0,6,0Z"/></clipPath></defs></svg>