<svg xmlns="http://www.w3.org/2000/svg" xmlns:xlink="http://www.w3.org/1999/xlink" version="1.1" class="marks" width="846" height="687" viewBox="0 0 846 687"><rect width="846" height="687" fill="white"/><g fill="none" stroke-miterlimit="10" transform="translate(41,36)"><g class="mark-group role-frame root" role="graphics-object" aria-roledescription="group mark container"><g transform="translate(0,0)"><path class="background" aria-hidden="true" d="M0.5,0.5h800v600h-800Z" stroke="#ddd"/><g><g class="mark-group role-axis" role="graphics-symbol" aria-roledescription="axis" aria-label="X-axis titled 'Implementation' for a discrete scale with 9 values: uuid7_rs&#xA;0.0.11, uuid_utils&#xA;0.16.2, fastuuid7&#xA;0.2.0, fastuuid&#xA;0.14.0, UUIDv7gen&#xA;1.0.3, ending with uuid_v7&#xA;1.0.0"><g transform="translate(0.5,600.5)"><path class="background" aria-hidden="true" d="M0,0h0v0h0Z" pointer-events="none"/><g><g class="mark-rule role-axis-tick" pointer-events="none"><line transform="translate(44,0)" x2="0" y2="5" stroke="#888" stroke-width="1" opacity="1"/><line transform="translate(133,0)" x2="0" y2="5" stroke="#888" stroke-width="1" opacity="1"/><line transform="translate(222,0)" x2="0" y2="5" stroke="#888" stroke-width="1" opacity="1"/><line transform="translate(311,0)" x2="0" y2="5" stroke="#888" stroke-width="1" opacity="1"/><line transform="translate(400,0)" x2="0" y2="5" stroke="#888" stroke-width="1" opacity="1"/><line transform="translate(488,0)" x2="0" y2="5" stroke="#888" stroke-width="1" opacity="1"/><line transform="translate(577,0)" x2="0" y2="5" stroke="#888" stroke-width="1" opacity="1"/><line transform="translate(666,0)" x2="0" y2="5" stroke="#888" stroke-width="1" opacity="1"/><line transform="translate(755,0)" x2="0" y2="5" stroke="#888" stroke-width="1" opacity="1"/></g><g class="mark-text role-axis-label" pointer-events="none"><text text-anchor="middle" transform="translate(43.94444444444446,15)" font-family="sans-serif" font-size="10px" fill="#000" opacity="1"><tspan>uuid7_rs</tspan><tspan x="0" dy="14">0.0.11</tspan></text><text text-anchor="middle" transform="translate(132.83333333333334,15)" font-family="sans-serif" font-size="10px" fill="#000" opacity="1"><tspan>uuid_utils</tspan><tspan x="0" dy="14">0.16.2</tspan></text><text text-anchor="middle" transform="translate(221.72222222222223,15)" font-family="sans-serif" font-size="10px" fill="#000" opacity="1"><tspan>fastuuid7</tspan><tspan x="0" dy="14">0.2.0</tspan></text><text text-anchor="middle" transform="translate(310.6111111111111,15)" font-family="sans-serif" font-size="10px" fill="#000" opacity="1"><tspan>fastuuid</tspan><tspan x="0" dy="14">0.14.0</tspan></text><text text-anchor="middle" transform="translate(399.5,15)" font-family="sans-serif" font-size="10px" fill="#000" opacity="1"><tspan>UUIDv7gen</tspan><tspan x="0" dy="14">1.0.3</tspan></text><text text-anchor="middle" transform="translate(488.3888888888889,15)" font-family="sans-serif" font-size="10px" fill="#000" opacity="1"><tspan>lastuuid</tspan><tspan x="0" dy="14">0.5.0</tspan></text><text text-anchor="middle" transform="translate(577.2777777777777,15)" font-family="sans-serif" font-size="10px" fill="#000" opacity="1"><tspan>uuid</tspan><tspan x="0" dy="14">stdlib</tspan></text><text text-anchor="middle" transform="translate(666.1666666666666,15)" font-family="sans-serif" font-size="10px" fill="#000" opacity="1"><tspan>uuid6</tspan><tspan x="0" dy="14">2025.0.1</tspan></text><text text-anchor="middle" transform="translate(755.0555555555555,15)" font-family="sans-serif" font-size="10px" fill="#000" opacity="1"><tspan>uuid_v7</tspan><tspan x="0" dy="14">1.0.0</tspan></text></g><g class="mark-rule role-axis-domain" pointer-events="none"><line transform="translate(0,0)" x2="800" y2="0" stroke="#888" stroke-width="1" opacity="1"/></g><g class="mark-text role-axis-title" pointer-events="none"><text text-anchor="middle" transform="translate(400,44)" font-family="sans-serif" font-size="11px" font-weight="bold" fill="#000" opacity="1">Implementation</text></g></g><path class="foreground" aria-hidden="true" d="" pointer-events="none" display="none"/></g></g><g class="mark-group role-axis" role="graphics-symbol" aria-roledescription="axis" aria-label="Y-axis titled 'Execution Time (seconds, lower=better)' for a linear scale with values from 0.0 to 1.2"><g transform="translate(0.5,0.5)"><path class="background" aria-hidden="true" d="M0,0h0v0h0Z" pointer-events="none"/><g><g class="mark-rule role-axis-tick" pointer-events="none"><line transform="translate(0,600)" x2="-5" y2="0" stroke="#888" stroke-width="1" opacity="1"/><line transform="translate(0,548)" x2="-5" y2="0" stroke="#888" stroke-width="1" opacity="1"/><line transform="translate(0,496)" x2="-5" y2="0" stroke="#888" stroke-width="1" opacity="1"/><line transform="translate(0,445)" x2="-5" y2="0" stroke="#888" stroke-width="1" opacity="1"/><line transform="translate(0,393)" x2="-5" y2="0" stroke="#888" stroke-width="1" opacity="1"/><line transform="translate(0,341)" x2="-5" y2="0" stroke="#888" stroke-width="1" opacity="1"/><line transform="translate(0,289)" x2="-5" y2="0" stroke="#888" stroke-width="1" opacity="1"/><line transform="translate(0,237)" x2="-5" y2="0" stroke="#888" stroke-width="1" opacity="1"/><line transform="translate(0,185)" x2="-5" y2="0" stroke="#888" stroke-width="1" opacity="1"/><line transform="translate(0,134)" x2="-5" y2="0" stroke="#888" stroke-width="1" opacity="1"/><line transform="translate(0,82)" x2="-5" y2="0" stroke="#888" stroke-width="1" opacity="1"/><line transform="translate(0,30)" x2="-5" y2="0" stroke="#888" stroke-width="1" opacity="1"/></g><g class="mark-text role-axis-label" pointer-events="none"><text text-anchor="end" transform="translate(-7,603)" font-family="sans-serif" font-size="10px" fill="#000" opacity="1">0.0</text><text text-anchor="end" transform="translate(-7,551.1709603751488)" font-family="sans-serif" font-size="10px" fill="#000" opacity="1">0.1</text><text text-anchor="end" transform="translate(-7,499.34192075029756)" font-family="sans-serif" font-size="10px" fill="#000" opacity="1">0.2</text><text text-anchor="end" transform="translate(-7,447.51288112544637)" font-family="sans-serif" font-size="10px" fill="#000" opacity="1">0.3</text><text text-anchor="end" transform="translate(-7,395.68384150059507)" font-family="sans-serif" font-size="10px" fill="#000" opacity="1">0.4</text><text text-anchor="end" transform="translate(-7,343.8548018757438)" font-family="sans-serif" font-size="10px" fill="#000" opacity="1">0.5</text><text text-anchor="end" transform="translate(-7,292.0257622508926)" font-family="sans-serif" font-size="10px" fill="#000" opacity="1">0.6</text><text text-anchor="end" transform="translate(-7,240.19672262604143)" font-family="sans-serif" font-size="10px" fill="#000" opacity="1">0.7</text><text text-anchor="end" transform="translate(-7,188.36768300119016)" font-family="sans-serif" font-size="10px" fill="#000" opacity="1">0.8</text><text text-anchor="end" transform="translate(-7,136.53864337633894)" font-family="sans-serif" font-size="10px" fill="#000" opacity="1">0.9</text><text text-anchor="end" transform="translate(-7,84.70960375148766)" font-family="sans-serif" font-size="10px" fill="#000" opacity="1">1.0</text><text text-anchor="end" transform="translate(-7,32.88056412663644)" font-family="sans-serif" font-size="10px" fill="#000" opacity="1">1.1</text></g><g class="mark-rule role-axis-domain" pointer-events="none"><line transform="translate(0,600)" x2="0" y2="-600" stroke="#888" stroke-width="1" opacity="1"/></g><g class="mark-text role-axis-title" pointer-events="none"><text text-anchor="middle" transform="translate(-24.9013671875,300) rotate(-90) translate(0,-2)" font-family="sans-serif" font-size="11px" font-weight="bold" fill="#000" opacity="1">Execution Time (seconds, lower=better)</text></g></g><path class="foreground" aria-hidden="true" d="" pointer-events="none" display="none"/></g></g><g class="mark-group role-scope" role="graphics-object" aria-roledescription="group mark container"><g transform="translate(4.444444444444457,588.0992102803025)"><path class="background" aria-hidden="true" d="M5.950394859848757,0L74.04960514015124,0C77.33371746497365,0,80,2.6662825350263586,80,5.950394859848757L80,11.900789719697514C80,11.900789719697514,80,11.900789719697514,80,11.900789719697514L0,11.900789719697514C0,11.900789719697514,0,11.900789719697514,0,11.900789719697514L0,5.950394859848757C0,2.6662825350263586,2.6662825350263586,0,5.950394859848757,0Z"/><g clip-path="url(#clip1)"><g class="mark-group role-scope" role="graphics-object" aria-roledescription="group mark container"><g transform="translate(0,-588.0992102803025)"><path class="background" aria-hidden="true" d="M0,0h80v0h-80Z"/><g><g class="mark-rect role-mark layer_0_marks" role="graphics-object" aria-roledescription="rect mark container"><path aria-label="Implementation: uuid7_rs&#xA;0.0.11; Execution Time (seconds, lower=better): 0.0229616249999; implementation: uuid7_rs; Execution Time (s): 0.0230; Slowdown: 1.00" role="graphics-symbol" aria-roledescription="bar" d="M0,588.0992102803025h80v11.900789719697514h-80Z" fill="#a6761d"/></g></g><path class="foreground" aria-hidden="true" d="" display="none"/></g></g></g><path class="foreground" aria-hidden="true" d="" display="none"/></g><g transform="translate(93.33333333333334,572.4187018096329)"><path class="background" aria-hidden="true" d="M6,0L74,0C77.311490146964,0,80,2.688509853036,80,6L80,27.58129819036708C80,27.58129819036708,80,27.58129819036708,80,27.58129819036708L0,27.58129819036708C0,27.58129819036708,0,27.58129819036708,0,27.58129819036708L0,6C0,2.688509853036,2.688509853036,0,6,0Z"/><g clip-path="url(#clip2)"><g class="mark-group role-scope" role="graphics-object" aria-roledescription="group mark container"><g transform="translate(0,-572.4187018096329)"><path class="background" aria-hidden="true" d="M0,0h80v0h-80Z"/><g><g class="mark-rect role-mark layer_0_marks" role="graphics-object" aria-roledescription="rect mark container"><path aria-label="Implementation: uuid_utils&#xA;0.16.2; Execution Time (seconds, lower=better): 0.053215916; implementation: uuid_utils; Execution Time (s): 0.0532; Slowdown: 2.32" role="graphics-symbol" aria-roledescription="bar" d="M0,572.4187018096329h80v27.58129819036708h-80Z" fill="#666666"/></g></g><path class="foreground" aria-hidden="true" d="" display="none"/></g></g></g><path class="foreground" aria-hidden="true" d="" display="none"/></g><g transform="translate(182.22222222222223,569.1267803577753)"><path class="background" aria-hidden="true" d="M6,0L74,0C77.311490146964,0,80,2.688509853036,80,6L80,30.87321964222474C80,30.87321964222474,80,30.87321964222474,80,30.87321964222474L0,30.87321964222474C0,30.87321964222474,0,30.87321964222474,0,30.87321964222474L0,6C0,2.688509853036,2.688509853036,0,6,0Z"/><g clip-path="url(#clip3)"><g class="mark-group role-scope" role="graphics-object" aria-roledescription="group mark container"><g transform="translate(0,-569.1267803577753)"><path class="background" aria-hidden="true" d="M0,0h80v0h-80Z"/><g><g class="mark-rect role-mark layer_0_marks" role="graphics-object" aria-roledescription="rect mark container"><path aria-label="Implementation: fastuuid7&#xA;0.2.0; Execution Time (seconds, lower=better): 0.0595674160002; implementation: fastuuid7; Execution Time (s): 0.0596; Slowdown: 2.59" role="graphics-symbol" aria-roledescription="bar" d="M0,569.1267803577753h80v30.87321964222474h-80Z" fill="#7570b3"/></g></g><path class="foreground" aria-hidden="true" d="" display="none"/></g></g></g><path class="foreground" aria-hidden="true" d="" display="none"/></g><g transform="translate(271.1111111111111,431.0260149888086)"><path class="background" aria-hidden="true" d="M6,0L74,0C77.311490146964,0,80,2.688509853036,80,6L80,168.97398501119142C80,168.97398501119142,80,168.97398501119142,80,168.97398501119142L0,168.97398501119142C0,168.97398501119142,0,168.97398501119142,0,168.97398501119142L0,6C0,2.688509853036,2.688509853036,0,6,0Z"/><g clip-path="url(#clip4)"><g class="mark-group role-scope" role="graphics-object" aria-roledescription="group mark container"><g transform="translate(0,-431.0260149888086)"><path class="background" aria-hidden="true" d="M0,0h80v0h-80Z"/><g><g class="mark-rect role-mark layer_0_marks" role="graphics-object" aria-roledescription="rect mark container"><path aria-label="Implementation: fastuuid&#xA;0.14.0; Execution Time (seconds, lower=better): 0.326021833; implementation: fastuuid; Execution Time (s): 0.3260; Slowdown: 14.20" role="graphics-symbol" aria-roledescription="bar" d="M0,431.0260149888086h80v168.97398501119142h-80Z" fill="#d95f02"/></g></g><path class="foreground" aria-hidden="true" d="" display="none"/></g></g></g><path class="foreground" aria-hidden="true" d="" display="none"/></g><g transform="translate(360,395.70011901599617)"><path class="background" aria-hidden="true" d="M6,0L74,0C77.311490146964,0,80,2.688509853036,80,6L80,204.29988098400383C80,204.29988098400383,80,204.29988098400383,80,204.29988098400383L0,204.29988098400383C0,204.29988098400383,0,204.29988098400383,0,204.29988098400383L0,6C0,2.688509853036,2.688509853036,0,6,0Z"/><g clip-path="url(#clip5)"><g class="mark-group role-scope" role="graphics-object" aria-roledescription="group mark container"><g transform="translate(0,-395.70011901599617)"><path class="background" aria-hidden="true" d="M0,0h80v0h-80Z"/><g><g class="mark-rect role-mark layer_0_marks" role="graphics-object" aria-roledescription="rect mark container"><path aria-label="Implementation: UUIDv7gen&#xA;1.0.3; Execution Time (seconds, lower=better): 0.394180333; implementation: UUIDv7gen; Execution Time (s): 0.3942; Slowdown: 17.17" role="graphics-symbol" aria-roledescription="bar" d="M0,395.70011901599617h80v204.29988098400383h-80Z" fill="#1b9e77"/></g></g><path class="foreground" aria-hidden="true" d="" display="none"/></g></g></g><path class="foreground" aria-hidden="true" d="" display="none"/></g><g transform="translate(448.8888888888889,385.445592185397)"><path class="background" aria-hidden="true" d="M6,0L74,0C77.311490146964,0,80,2.688509853036,80,6L80,214.554407814603C80,214.554407814603,80,214.554407814603,80,214.554407814603L0,214.554407814603C0,214.554407814603,0,214.554407814603,0,214.554407814603L0,6C0,2.688509853036,2.688509853036,0,6,0Z"/><g clip-path="url(#clip6)"><g class="mark-group role-scope" role="graphics-object" aria-roledescription="group mark container"><g transform="translate(0,-385.445592185397)"><path class="background" aria-hidden="true" d="M0,0h80v0h-80Z"/><g><g class="mark-rect role-mark layer_0_marks" role="graphics-object" aria-roledescription="rect mark container"><path aria-label="Implementation: lastuuid&#xA;0.5.0; Execution Time (seconds, lower=better): 0.413965625; implementation: lastuuid; Execution Time (s): 0.4140; Slowdown: 18.03" role="graphics-symbol" aria-roledescription="bar" d="M0,385.445592185397h80v214.554407814603h-80Z" fill="#e7298a"/></g></g><path class="foreground" aria-hidden="true" d="" display="none"/></g></g></g><path class="foreground" aria-hidden="true" d="" display="none"/></g><g transform="translate(537.7777777777777,263.1579751286059)"><path class="background" aria-hidden="true" d="M6,0L74,0C77.311490146964,0,80,2.688509853036,80,6L80,336.8420248713941C80,336.8420248713941,80,336.8420248713941,80,336.8420248713941L0,336.8420248713941C0,336.8420248713941,0,336.8420248713941,0,336.8420248713941L0,6C0,2.688509853036,2.688509853036,0,6,0Z"/><g clip-path="url(#clip7)"><g class="mark-group role-scope" role="graphics-object" aria-roledescription="group mark container"><g transform="translate(0,-263.1579751286059)"><path class="background" aria-hidden="true" d="M0,0h80v0h-80Z"/><g><g class="mark-rect role-mark layer_0_marks" role="graphics-object" aria-roledescription="rect mark container"><path aria-label="Implementation: uuid&#xA;stdlib; Execution Time (seconds, lower=better): 0.649909833; implementation: uuid; Execution Time (s): 0.6499; Slowdown: 28.30" role="graphics-symbol" aria-roledescription="bar" d="M0,263.1579751286059h80v336.8420248713941h-80Z" fill="#66a61e"/></g></g><path class="foreground" aria-hidden="true" d="" display="none"/></g></g></g><path class="foreground" aria-hidden="true" d="" display="none"/></g><g transform="translate(626.6666666666666,164.55279498817444)"><path class="background" aria-hidden="true" d="M6,0L74,0C77.311490146964,0,80,2.688509853036,80,6L80,435.44720501182553C80,435.44720501182553,80,435.44720501182553,80,435.44720501182553L0,435.44720501182553C0,435.44720501182553,0,435.44720501182553,0,435.44720501182553L0,6C0,2.688509853036,2.688509853036,0,6,0Z"/><g clip-path="url(#clip8)"><g class="mark-group role-scope" role="graphics-object" aria-roledescription="group mark container"><g transform="translate(0,-164.55279498817444)"><path class="background" aria-hidden="true" d="M0,0h80v0h-80Z"/><g><g class="mark-rect role-mark layer_0_marks" role="graphics-object" aria-roledescription="rect mark container"><path aria-label="Implementation: uuid6&#xA;2025.0.1; Execution Time (seconds, lower=better): 0.840160667; implementation: uuid6; Execution Time (s): 0.8402; Slowdown: 36.59" role="graphics-symbol" aria-roledescription="bar" d="M0,164.55279498817444h80v435.44720501182553h-80Z" fill="#e6ab02"/></g></g><path class="foreground" aria-hidden="true" d="" display="none"/></g></g></g><path class="foreground" aria-hidden="true" d="" display="none"/></g><g transform="translate(715.5555555555555,23.076923076923062)"><path class="background" aria-hidden="true" d="M6,0L74,0C77.311490146964,0,80,2.688509853036,80,6L80,576.9230769230769C80,576.9230769230769,80,576.9230769230769,80,576.9230769230769L0,576.9230769230769C0,576.9230769230769,0,576.9230769230769,0,576.9230769230769L0,6C0,2.688509853036,2.688509853036,0,6,0Z"/><g clip-path="url(#clip9)"><g class="mark-group role-scope" role="graphics-object" aria-roledescription="group mark container"><g transform="translate(0,-23.076923076923062)"><path class="background" aria-hidden="true" d="M0,0h80v0h-80Z"/><g><g class="mark-rect role-mark layer_0_marks" role="graphics-object" aria-roledescription="rect mark container"><path aria-label="Implementation: uuid_v7&#xA;1.0.0; Execution Time (seconds, lower=better): 1.113127083; implementation: uuid_v7; Execution Time (s): 1.1131; Slowdown: 48.48" role="graphics-symbol" aria-roledescription="bar" d="M0,23.076923076923062h80v576.9230769230769h-80Z" fill="#1b9e77"/></g></g><path class="foreground" aria-hidden="true" d="" display="none"/></g></g></g><path class="foreground" aria-hidden="true" d="" display="none"/></g></g><g class="mark-text role-mark layer_1_marks" role="graphics-object" aria-roledescription="text mark container"><text aria-label="Implementation: uuid7_rs&#xA;0.0.11; Execution Time (seconds, lower=better): 0.0229616249999; implementation: uuid7_rs; label: 0.0230s (x1.00); Execution Time (s): 0.0230; Slowdown: 1.00" role="graphics-symbol" aria-roledescription="text mark" text-anchor="middle" transform="translate(44.44444444444446,584.0992102803025)" font-family="sans-serif" font-size="9px" font-weight="bold" fill="#a6761d">0.0230s (x1.00)</text><text aria-label="Implementation: uuid_utils&#xA;0.16.2; Execution Time (seconds, lower=better): 0.053215916; implementation: uuid_utils; label: 0.0532s (x2.32); Execution Time (s): 0.0532; Slowdown: 2.32" role="graphics-symbol" aria-roledescription="text mark" text-anchor="middle" transform="translate(133.33333333333334,568.4187018096329)" font-family="sans-serif" font-size="9px" font-weight="bold" fill="#666666">0.0532s (x2.32)</text><text aria-label="Implementation: fastuuid7&#xA;0.2.0; Execution Time (seconds, lower=better): 0.0595674160002; implementation: fastuuid7; label: 0.0596s (x2.59); Execution Time (s): 0.0596; Slowdown: 2.59" role="graphics-symbol" aria-roledescription="text mark" text-anchor="middle" transform="translate(222.22222222222223,565.1267803577753)" font-family="sans-serif" font-size="9px" font-weight="bold" fill="#7570b3">0.0596s (x2.59)</text><text aria-label="Implementation: fastuuid&#xA;0.14.0; Execution Time (seconds, lower=better): 0.326021833; implementation: fastuuid; label: 0.3260s (x14.20); Execution Time (s): 0.3260; Slowdown: 14.20" role="graphics-symbol" aria-roledescription="text mark" text-anchor="middle" transform="translate(311.1111111111111,427.0260149888086)" font-family="sans-serif" font-size="9px" font-weight="bold" fill="#d95f02">0.3260s (x14.20)</text><text aria-label="Implementation: UUIDv7gen&#xA;1.0.3; Execution Time (seconds, lower=better): 0.394180333; implementation: UUIDv7gen; label: 0.3942s (x17.17); Execution Time (s): 0.3942; Slowdown: 17.17" role="graphics-symbol" aria-roledescription="text mark" text-anchor="middle" transform="translate(400,391.70011901599617)" font-family="sans-serif" font-size="9px" font-weight="bold" fill="#1b9e77">0.3942s (x17.17)</text><text aria-label="Implementation: lastuuid&#xA;0.5.0; Execution Time (seconds, lower=better): 0.413965625; implementation: lastuuid; label: 0.4140s (x18.03); Execution Time (s): 0.4140; Slowdown: 18.03" role="graphics-symbol" aria-roledescription="text mark" text-anchor="middle" transform="translate(488.8888888888889,381.445592185397)" font-family="sans-serif" font-size="9px" font-weight="bold" fill="#e7298a">0.4140s (x18.03)</text><text aria-label="Implementation: uuid&#xA;stdlib; Execution Time (seconds, lower=better): 0.649909833; implementation: uuid; label: 0.6499s (x28.30); Execution Time (s): 0.6499; Slowdown: 28.30" role="graphics-symbol" aria-roledescription="text mark" text-anchor="middle" transform="translate(577.7777777777777,259.1579751286059)" font-family="sans-serif" font-size="9px" font-weight="bold" fill="#66a61e">0.6499s (x28.30)</text><text aria-label="Implementation: uuid6&#xA;2025.0.1; Execution Time (seconds, lower=better): 0.840160667; implementation: uuid6; label: 0.8402s (x36.59); Execution Time (s): 0.8402; Slowdown: 36.59" role="graphics-symbol" aria-roledescription="text mark" text-anchor="middle" transform="translate(666.6666666666666,160.55279498817444)" font-family="sans-serif" font-size="9px" font-weight="bold" fill="#e6ab02">0.8402s (x36.59)</text><text aria-label="Implementation: uuid_v7&#xA;1.0.0; Execution Time (seconds, lower=better): 1.113127083; implementation: uuid_v7; label: 1.1131s (x48.48); Execution Time (s): 1.1131; Slowdown: 48.48" role="graphics-symbol" aria-roledescription="text mark" text-anchor="middle" transform="translate(755.5555555555555,19.076923076923062)" font-family="sans-serif" font-size="9px" font-weight="bold" fill="#1b9e77">1.1131s (x48.48)</text></g><g class="mark-group role-title"><g transform="translate(400,-31)"><path class="background" aria-hidden="true" d="M0,0h0v0h0Z" pointer-events="none"/><g><g class="mark-text role-title-text" role="graphics-symbol" aria-roledescription="title" aria-label="Title text 'UUID v7 benchmark (uuid7() default APIs)'" pointer-events="none"><text text-anchor="middle" transform="translate(0,10)" font-family="sans-serif" font-size="13px" font-weight="bold" fill="#000" opacity="1">UUID v7 benchmark (uuid7() default APIs)</text></g><g class="mark-text role-title-subtitle" role="graphics-symbol" aria-roledescription="subtitle" aria-label="Subtitle text 'Python: 3.14.6 (Darwin 25.4.0) | CPU: Apple M1 (Virtual)'" pointer-events="none"><text text-anchor="middle" transform="translate(0,25)" font-family="sans-serif" font-size="12px" fill="#000" opacity="1">Python: 3.14.6 (Darwin 25.4.0) | CPU: Apple M1 (Virtual)</text></g></g><path class="foreground" aria-hidden="true" d="" pointer-events="none" display="none"/></g></g></g><path class="foreground" aria-hidden="true" d="" display="none"/></g></g></g><defs><clipPath id="clip1"><path d="M5.950394859848757,0L74.04960514015124,0C77.33371746497365,0,80,2.6662825350263586,80,5.950394859848757L80,11.900789719697514C80,11.900789719697514,80,11.900789719697514,80,11.900789719697514L0,11.900789719697514C0,11.900789719697514,0,11.900789719697514,0,11.900789719697514L0,5.950394859848757C0,2.6662825350263586,2.6662825350263586,0,5.950394859848757,0Z"/></clipPath><clipPath id="clip2"><path d="M6,0L74,0C77.311490146964,0,80,2.688509853036,80,6L80,27.58129819036708C80,27.58129819036708,80,27.58129819036708,80,27.58129819036708L0,27.58129819036708C0,27.58129819036708,0,27.58129819036708,0,27.58129819036708L0,6C0,2.688509853036,2.688509853036,0,6,0Z"/></clipPath><clipPath id="clip3"><path d="M6,0L74,0C77.311490146964,0,80,2.688509853036,80,6L80,30.87321964222474C80,30.87321964222474,80,30.87321964222474,80,30.87321964222474L0,30.87321964222474C0,30.87321964222474,0,30.87321964222474,0,30.87321964222474L0,6C0,2.688509853036,2.688509853036,0,6,0Z"/></clipPath><clipPath id="clip4"><path d="M6,0L74,0C77.311490146964,0,80,2.688509853036,80,6L80,168.97398501119142C80,168.97398501119142,80,168.97398501119142,80,168.97398501119142L0,168.97398501119142C0,168.97398501119142,0,168.97398501119142,0,168.97398501119142L0,6C0,2.688509853036,2.688509853036,0,6,0Z"/></clipPath><clipPath id="clip5"><path d="M6,0L74,0C77.311490146964,0,80,2.688509853036,80,6L80,204.29988098400383C80,204.29988098400383,80,204.29988098400383,80,204.29988098400383L0,204.29988098400383C0,204.29988098400383,0,204.29988098400383,0,204.29988098400383L0,6C0,2.688509853036,2.688509853036,0,6,0Z"/></clipPath><clipPath id="clip6"><path d="M6,0L74,0C77.311490146964,0,80,2.688509853036,80,6L80,214.554407814603C80,214.554407814603,80,214.554407814603,80,214.554407814603L0,214.554407814603C0,214.554407814603,0,214.554407814603,0,214.554407814603L0,6C0,2.688509853036,2.688509853036,0,6,0Z"/></clipPath><clipPath id="clip7"><path d="M6,0L74,0C77.311490146964,0,80,2.688509853036,80,6L80,336.8420248713941C80,336.8420248713941,80,336.8420248713941,80,336.8420248713941L0,336.8420248713941C0,336.8420248713941,0,336.8420248713941,0,336.8420248713941L0,6C0,2.688509853036,2.688509853036,0,6,0Z"/></clipPath><clipPath id="clip8"><path d="M6,0L74,0C77.311490146964,0,80,2.688509853036,80,6L80,435.44720501182553C80,435.44720501182553,80,435.44720501182553,80,435.44720501182553L0,435.44720501182553C0,435.44720501182553,0,435.44720501182553,0,435.44720501182553L0,6C0,2.688509853036,2.688509853036,0,6,0Z"/></clipPath><clipPath id="clip9"><path d="M6,0L74,0C77.311490146964,0,80,2.688509853036,80,6L80,576.9230769230769C80,576.9230769230769,80,576.9230769230769,80,576.9230769230769L0,576.9230769230769C0,576.9230769230769,0,576.9230769230769,0,576.9230769230769L0,6C0,2.688509853036,2.688509853036,0,6,0Z"/></clipPath></defs></svg>