<svg xmlns="http://www.w3.org/2000/svg" xmlns:xlink="http://www.w3.org/1999/xlink" version="1.1" class="marks" width="846" height="687" viewBox="0 0 846 687"><rect width="846" height="687" fill="white"/><g fill="none" stroke-miterlimit="10" transform="translate(41,36)"><g class="mark-group role-frame root" role="graphics-object" aria-roledescription="group mark container"><g transform="translate(0,0)"><path class="background" aria-hidden="true" d="M0.5,0.5h800v600h-800Z" stroke="#ddd"/><g><g class="mark-group role-axis" role="graphics-symbol" aria-roledescription="axis" aria-label="X-axis titled 'Implementation' for a discrete scale with 7 values: uuid7_rs.compat&#xA;0.0.11, fastuuid7&#xA;0.2.0, uuid_utils.compat&#xA;0.16.2, lastuuid&#xA;0.5.0, uuid&#xA;stdlib, uuid6&#xA;2025.0.1, uuid_v7&#xA;1.0.0"><g transform="translate(0.5,600.5)"><path class="background" aria-hidden="true" d="M0,0h0v0h0Z" pointer-events="none"/><g><g class="mark-rule role-axis-tick" pointer-events="none"><line transform="translate(57,0)" x2="0" y2="5" stroke="#888" stroke-width="1" opacity="1"/><line transform="translate(171,0)" x2="0" y2="5" stroke="#888" stroke-width="1" opacity="1"/><line transform="translate(285,0)" x2="0" y2="5" stroke="#888" stroke-width="1" opacity="1"/><line transform="translate(400,0)" x2="0" y2="5" stroke="#888" stroke-width="1" opacity="1"/><line transform="translate(514,0)" x2="0" y2="5" stroke="#888" stroke-width="1" opacity="1"/><line transform="translate(628,0)" x2="0" y2="5" stroke="#888" stroke-width="1" opacity="1"/><line transform="translate(742,0)" x2="0" y2="5" stroke="#888" stroke-width="1" opacity="1"/></g><g class="mark-text role-axis-label" pointer-events="none"><text text-anchor="middle" transform="translate(56.642857142857096,15)" font-family="sans-serif" font-size="10px" fill="#000" opacity="1"><tspan>uuid7_rs.compat</tspan><tspan x="0" dy="14">0.0.11</tspan></text><text text-anchor="middle" transform="translate(170.9285714285714,15)" font-family="sans-serif" font-size="10px" fill="#000" opacity="1"><tspan>fastuuid7</tspan><tspan x="0" dy="14">0.2.0</tspan></text><text text-anchor="middle" transform="translate(285.21428571428567,15)" font-family="sans-serif" font-size="10px" fill="#000" opacity="1"><tspan>uuid_utils.compat</tspan><tspan x="0" dy="14">0.16.2</tspan></text><text text-anchor="middle" transform="translate(399.5,15)" font-family="sans-serif" font-size="10px" fill="#000" opacity="1"><tspan>lastuuid</tspan><tspan x="0" dy="14">0.5.0</tspan></text><text text-anchor="middle" transform="translate(513.7857142857142,15)" font-family="sans-serif" font-size="10px" fill="#000" opacity="1"><tspan>uuid</tspan><tspan x="0" dy="14">stdlib</tspan></text><text text-anchor="middle" transform="translate(628.0714285714286,15)" font-family="sans-serif" font-size="10px" fill="#000" opacity="1"><tspan>uuid6</tspan><tspan x="0" dy="14">2025.0.1</tspan></text><text text-anchor="middle" transform="translate(742.3571428571429,15)" font-family="sans-serif" font-size="10px" fill="#000" opacity="1"><tspan>uuid_v7</tspan><tspan x="0" dy="14">1.0.0</tspan></text></g><g class="mark-rule role-axis-domain" pointer-events="none"><line transform="translate(0,0)" x2="800" y2="0" stroke="#888" stroke-width="1" opacity="1"/></g><g class="mark-text role-axis-title" pointer-events="none"><text text-anchor="middle" transform="translate(400,44)" font-family="sans-serif" font-size="11px" font-weight="bold" fill="#000" opacity="1">Implementation</text></g></g><path class="foreground" aria-hidden="true" d="" pointer-events="none" display="none"/></g></g><g class="mark-group role-axis" role="graphics-symbol" aria-roledescription="axis" aria-label="Y-axis titled 'Execution Time (seconds, lower=better)' for a linear scale with values from 0.0 to 1.4"><g transform="translate(0.5,0.5)"><path class="background" aria-hidden="true" d="M0,0h0v0h0Z" pointer-events="none"/><g><g class="mark-rule role-axis-tick" pointer-events="none"><line transform="translate(0,600)" x2="-5" y2="0" stroke="#888" stroke-width="1" opacity="1"/><line transform="translate(0,556)" x2="-5" y2="0" stroke="#888" stroke-width="1" opacity="1"/><line transform="translate(0,513)" x2="-5" y2="0" stroke="#888" stroke-width="1" opacity="1"/><line transform="translate(0,469)" x2="-5" y2="0" stroke="#888" stroke-width="1" opacity="1"/><line transform="translate(0,426)" x2="-5" y2="0" stroke="#888" stroke-width="1" opacity="1"/><line transform="translate(0,382)" x2="-5" y2="0" stroke="#888" stroke-width="1" opacity="1"/><line transform="translate(0,339)" x2="-5" y2="0" stroke="#888" stroke-width="1" opacity="1"/><line transform="translate(0,295)" x2="-5" y2="0" stroke="#888" stroke-width="1" opacity="1"/><line transform="translate(0,252)" x2="-5" y2="0" stroke="#888" stroke-width="1" opacity="1"/><line transform="translate(0,208)" x2="-5" y2="0" stroke="#888" stroke-width="1" opacity="1"/><line transform="translate(0,165)" x2="-5" y2="0" stroke="#888" stroke-width="1" opacity="1"/><line transform="translate(0,121)" x2="-5" y2="0" stroke="#888" stroke-width="1" opacity="1"/><line transform="translate(0,78)" x2="-5" y2="0" stroke="#888" stroke-width="1" opacity="1"/><line transform="translate(0,34)" x2="-5" y2="0" stroke="#888" stroke-width="1" opacity="1"/></g><g class="mark-text role-axis-label" pointer-events="none"><text text-anchor="end" transform="translate(-7,603)" font-family="sans-serif" font-size="10px" fill="#000" opacity="1">0.0</text><text text-anchor="end" transform="translate(-7,559.4907600042227)" font-family="sans-serif" font-size="10px" fill="#000" opacity="1">0.1</text><text text-anchor="end" transform="translate(-7,515.9815200084454)" font-family="sans-serif" font-size="10px" fill="#000" opacity="1">0.2</text><text text-anchor="end" transform="translate(-7,472.4722800126682)" font-family="sans-serif" font-size="10px" fill="#000" opacity="1">0.3</text><text text-anchor="end" transform="translate(-7,428.9630400168909)" font-family="sans-serif" font-size="10px" fill="#000" opacity="1">0.4</text><text text-anchor="end" transform="translate(-7,385.4538000211136)" font-family="sans-serif" font-size="10px" fill="#000" opacity="1">0.5</text><text text-anchor="end" transform="translate(-7,341.94456002533633)" font-family="sans-serif" font-size="10px" fill="#000" opacity="1">0.6</text><text text-anchor="end" transform="translate(-7,298.43532002955897)" font-family="sans-serif" font-size="10px" fill="#000" opacity="1">0.7</text><text text-anchor="end" transform="translate(-7,254.9260800337817)" font-family="sans-serif" font-size="10px" fill="#000" opacity="1">0.8</text><text text-anchor="end" transform="translate(-7,211.41684003800444)" font-family="sans-serif" font-size="10px" fill="#000" opacity="1">0.9</text><text text-anchor="end" transform="translate(-7,167.9076000422271)" font-family="sans-serif" font-size="10px" fill="#000" opacity="1">1.0</text><text text-anchor="end" transform="translate(-7,124.3983600464498)" font-family="sans-serif" font-size="10px" fill="#000" opacity="1">1.1</text><text text-anchor="end" transform="translate(-7,80.88912005067262)" font-family="sans-serif" font-size="10px" fill="#000" opacity="1">1.2</text><text text-anchor="end" transform="translate(-7,37.37988005489523)" font-family="sans-serif" font-size="10px" fill="#000" opacity="1">1.3</text></g><g class="mark-rule role-axis-domain" pointer-events="none"><line transform="translate(0,600)" x2="0" y2="-600" stroke="#888" stroke-width="1" opacity="1"/></g><g class="mark-text role-axis-title" pointer-events="none"><text text-anchor="middle" transform="translate(-24.9013671875,300) rotate(-90) translate(0,-2)" font-family="sans-serif" font-size="11px" font-weight="bold" fill="#000" opacity="1">Execution Time (seconds, lower=better)</text></g></g><path class="foreground" aria-hidden="true" d="" pointer-events="none" display="none"/></g></g><g class="mark-group role-scope" role="graphics-object" aria-roledescription="group mark container"><g transform="translate(5.714285714285666,532.1583263096855)"><path class="background" aria-hidden="true" d="M6,0L96.85714285714286,0C100.16863300410687,0,102.85714285714286,2.688509853036,102.85714285714286,6L102.85714285714286,67.84167369031445C102.85714285714286,67.84167369031445,102.85714285714286,67.84167369031445,102.85714285714286,67.84167369031445L0,67.84167369031445C0,67.84167369031445,0,67.84167369031445,0,67.84167369031445L0,6C0,2.688509853036,2.688509853036,0,6,0Z"/><g clip-path="url(#clip10)"><g class="mark-group role-scope" role="graphics-object" aria-roledescription="group mark container"><g transform="translate(0,-532.1583263096855)"><path class="background" aria-hidden="true" d="M0,0h102.85714285714286v0h-102.85714285714286Z"/><g><g class="mark-rect role-mark layer_0_marks" role="graphics-object" aria-roledescription="rect mark container"><path aria-label="Implementation: uuid7_rs.compat&#xA;0.0.11; Execution Time (seconds, lower=better): 0.15592475; implementation: uuid7_rs.compat; Execution Time (s): 0.1559; Slowdown: 1.00" role="graphics-symbol" aria-roledescription="bar" d="M0,532.1583263096855h102.85714285714286v67.84167369031445h-102.85714285714286Z" fill="#66a61e"/></g></g><path class="foreground" aria-hidden="true" d="" display="none"/></g></g></g><path class="foreground" aria-hidden="true" d="" display="none"/></g><g transform="translate(119.99999999999996,524.8402714147118)"><path class="background" aria-hidden="true" d="M6,0L96.85714285714286,0C100.16863300410687,0,102.85714285714286,2.688509853036,102.85714285714286,6L102.85714285714286,75.15972858528824C102.85714285714286,75.15972858528824,102.85714285714286,75.15972858528824,102.85714285714286,75.15972858528824L0,75.15972858528824C0,75.15972858528824,0,75.15972858528824,0,75.15972858528824L0,6C0,2.688509853036,2.688509853036,0,6,0Z"/><g clip-path="url(#clip11)"><g class="mark-group role-scope" role="graphics-object" aria-roledescription="group mark container"><g transform="translate(0,-524.8402714147118)"><path class="background" aria-hidden="true" d="M0,0h102.85714285714286v0h-102.85714285714286Z"/><g><g class="mark-rect role-mark layer_0_marks" role="graphics-object" aria-roledescription="rect mark container"><path aria-label="Implementation: fastuuid7&#xA;0.2.0; Execution Time (seconds, lower=better): 0.172744292; implementation: fastuuid7; Execution Time (s): 0.1727; Slowdown: 1.11" role="graphics-symbol" aria-roledescription="bar" d="M0,524.8402714147118h102.85714285714286v75.15972858528824h-102.85714285714286Z" fill="#1b9e77"/></g></g><path class="foreground" aria-hidden="true" d="" display="none"/></g></g></g><path class="foreground" aria-hidden="true" d="" display="none"/></g><g transform="translate(234.28571428571425,521.6982516484105)"><path class="background" aria-hidden="true" d="M6,0L96.85714285714286,0C100.16863300410687,0,102.85714285714286,2.688509853036,102.85714285714286,6L102.85714285714286,78.30174835158948C102.85714285714286,78.30174835158948,102.85714285714286,78.30174835158948,102.85714285714286,78.30174835158948L0,78.30174835158948C0,78.30174835158948,0,78.30174835158948,0,78.30174835158948L0,6C0,2.688509853036,2.688509853036,0,6,0Z"/><g clip-path="url(#clip12)"><g class="mark-group role-scope" role="graphics-object" aria-roledescription="group mark container"><g transform="translate(0,-521.6982516484105)"><path class="background" aria-hidden="true" d="M0,0h102.85714285714286v0h-102.85714285714286Z"/><g><g class="mark-rect role-mark layer_0_marks" role="graphics-object" aria-roledescription="rect mark container"><path aria-label="Implementation: uuid_utils.compat&#xA;0.16.2; Execution Time (seconds, lower=better): 0.179965792; implementation: uuid_utils.compat; Execution Time (s): 0.1800; Slowdown: 1.15" role="graphics-symbol" aria-roledescription="bar" d="M0,521.6982516484105h102.85714285714286v78.30174835158948h-102.85714285714286Z" fill="#e6ab02"/></g></g><path class="foreground" aria-hidden="true" d="" display="none"/></g></g></g><path class="foreground" aria-hidden="true" d="" display="none"/></g><g transform="translate(348.57142857142856,397.65552949590017)"><path class="background" aria-hidden="true" d="M6,0L96.85714285714286,0C100.16863300410687,0,102.85714285714286,2.688509853036,102.85714285714286,6L102.85714285714286,202.34447050409983C102.85714285714286,202.34447050409983,102.85714285714286,202.34447050409983,102.85714285714286,202.34447050409983L0,202.34447050409983C0,202.34447050409983,0,202.34447050409983,0,202.34447050409983L0,6C0,2.688509853036,2.688509853036,0,6,0Z"/><g clip-path="url(#clip13)"><g class="mark-group role-scope" role="graphics-object" aria-roledescription="group mark container"><g transform="translate(0,-397.65552949590017)"><path class="background" aria-hidden="true" d="M0,0h102.85714285714286v0h-102.85714285714286Z"/><g><g class="mark-rect role-mark layer_0_marks" role="graphics-object" aria-roledescription="rect mark container"><path aria-label="Implementation: lastuuid&#xA;0.5.0; Execution Time (seconds, lower=better): 0.465060917; implementation: lastuuid; Execution Time (s): 0.4651; Slowdown: 2.98" role="graphics-symbol" aria-roledescription="bar" d="M0,397.65552949590017h102.85714285714286v202.34447050409983h-102.85714285714286Z" fill="#d95f02"/></g></g><path class="foreground" aria-hidden="true" d="" display="none"/></g></g></g><path class="foreground" aria-hidden="true" d="" display="none"/></g><g transform="translate(462.85714285714283,286.2783653800472)"><path class="background" aria-hidden="true" d="M6,0L96.85714285714286,0C100.16863300410687,0,102.85714285714286,2.688509853036,102.85714285714286,6L102.85714285714286,313.7216346199528C102.85714285714286,313.7216346199528,102.85714285714286,313.7216346199528,102.85714285714286,313.7216346199528L0,313.7216346199528C0,313.7216346199528,0,313.7216346199528,0,313.7216346199528L0,6C0,2.688509853036,2.688509853036,0,6,0Z"/><g clip-path="url(#clip14)"><g class="mark-group role-scope" role="graphics-object" aria-roledescription="group mark container"><g transform="translate(0,-286.2783653800472)"><path class="background" aria-hidden="true" d="M0,0h102.85714285714286v0h-102.85714285714286Z"/><g><g class="mark-rect role-mark layer_0_marks" role="graphics-object" aria-roledescription="rect mark container"><path aria-label="Implementation: uuid&#xA;stdlib; Execution Time (seconds, lower=better): 0.721046; implementation: uuid; Execution Time (s): 0.7210; Slowdown: 4.62" role="graphics-symbol" aria-roledescription="bar" d="M0,286.2783653800472h102.85714285714286v313.7216346199528h-102.85714285714286Z" fill="#7570b3"/></g></g><path class="foreground" aria-hidden="true" d="" display="none"/></g></g></g><path class="foreground" aria-hidden="true" d="" display="none"/></g><g transform="translate(577.1428571428571,184.65947144924075)"><path class="background" aria-hidden="true" d="M6,0L96.85714285714286,0C100.16863300410687,0,102.85714285714286,2.688509853036,102.85714285714286,6L102.85714285714286,415.34052855075925C102.85714285714286,415.34052855075925,102.85714285714286,415.34052855075925,102.85714285714286,415.34052855075925L0,415.34052855075925C0,415.34052855075925,0,415.34052855075925,0,415.34052855075925L0,6C0,2.688509853036,2.688509853036,0,6,0Z"/><g clip-path="url(#clip15)"><g class="mark-group role-scope" role="graphics-object" aria-roledescription="group mark container"><g transform="translate(0,-184.65947144924075)"><path class="background" aria-hidden="true" d="M0,0h102.85714285714286v0h-102.85714285714286Z"/><g><g class="mark-rect role-mark layer_0_marks" role="graphics-object" aria-roledescription="rect mark container"><path aria-label="Implementation: uuid6&#xA;2025.0.1; Execution Time (seconds, lower=better): 0.954603042; implementation: uuid6; Execution Time (s): 0.9546; Slowdown: 6.12" role="graphics-symbol" aria-roledescription="bar" d="M0,184.65947144924075h102.85714285714286v415.34052855075925h-102.85714285714286Z" fill="#e7298a"/></g></g><path class="foreground" aria-hidden="true" d="" display="none"/></g></g></g><path class="foreground" aria-hidden="true" d="" display="none"/></g><g transform="translate(691.4285714285714,23.07692307692313)"><path class="background" aria-hidden="true" d="M6,0L96.85714285714286,0C100.16863300410687,0,102.85714285714286,2.688509853036,102.85714285714286,6L102.85714285714286,576.9230769230769C102.85714285714286,576.9230769230769,102.85714285714286,576.9230769230769,102.85714285714286,576.9230769230769L0,576.9230769230769C0,576.9230769230769,0,576.9230769230769,0,576.9230769230769L0,6C0,2.688509853036,2.688509853036,0,6,0Z"/><g clip-path="url(#clip16)"><g class="mark-group role-scope" role="graphics-object" aria-roledescription="group mark container"><g transform="translate(0,-23.07692307692313)"><path class="background" aria-hidden="true" d="M0,0h102.85714285714286v0h-102.85714285714286Z"/><g><g class="mark-rect role-mark layer_0_marks" role="graphics-object" aria-roledescription="rect mark container"><path aria-label="Implementation: uuid_v7&#xA;1.0.0; Execution Time (seconds, lower=better): 1.325978291; implementation: uuid_v7; Execution Time (s): 1.3260; Slowdown: 8.50" role="graphics-symbol" aria-roledescription="bar" d="M0,23.07692307692313h102.85714285714286v576.9230769230769h-102.85714285714286Z" fill="#a6761d"/></g></g><path class="foreground" aria-hidden="true" d="" display="none"/></g></g></g><path class="foreground" aria-hidden="true" d="" display="none"/></g></g><g class="mark-text role-mark layer_1_marks" role="graphics-object" aria-roledescription="text mark container"><text aria-label="Implementation: uuid7_rs.compat&#xA;0.0.11; Execution Time (seconds, lower=better): 0.15592475; implementation: uuid7_rs.compat; label: 0.1559s (x1.00); Execution Time (s): 0.1559; Slowdown: 1.00" role="graphics-symbol" aria-roledescription="text mark" text-anchor="middle" transform="translate(57.142857142857096,528.1583263096855)" font-family="sans-serif" font-size="9px" font-weight="bold" fill="#66a61e">0.1559s (x1.00)</text><text aria-label="Implementation: fastuuid7&#xA;0.2.0; Execution Time (seconds, lower=better): 0.172744292; implementation: fastuuid7; label: 0.1727s (x1.11); Execution Time (s): 0.1727; Slowdown: 1.11" role="graphics-symbol" aria-roledescription="text mark" text-anchor="middle" transform="translate(171.4285714285714,520.8402714147118)" font-family="sans-serif" font-size="9px" font-weight="bold" fill="#1b9e77">0.1727s (x1.11)</text><text aria-label="Implementation: uuid_utils.compat&#xA;0.16.2; Execution Time (seconds, lower=better): 0.179965792; implementation: uuid_utils.compat; label: 0.1800s (x1.15); Execution Time (s): 0.1800; Slowdown: 1.15" role="graphics-symbol" aria-roledescription="text mark" text-anchor="middle" transform="translate(285.71428571428567,517.6982516484105)" font-family="sans-serif" font-size="9px" font-weight="bold" fill="#e6ab02">0.1800s (x1.15)</text><text aria-label="Implementation: lastuuid&#xA;0.5.0; Execution Time (seconds, lower=better): 0.465060917; implementation: lastuuid; label: 0.4651s (x2.98); Execution Time (s): 0.4651; Slowdown: 2.98" role="graphics-symbol" aria-roledescription="text mark" text-anchor="middle" transform="translate(400,393.65552949590017)" font-family="sans-serif" font-size="9px" font-weight="bold" fill="#d95f02">0.4651s (x2.98)</text><text aria-label="Implementation: uuid&#xA;stdlib; Execution Time (seconds, lower=better): 0.721046; implementation: uuid; label: 0.7210s (x4.62); Execution Time (s): 0.7210; Slowdown: 4.62" role="graphics-symbol" aria-roledescription="text mark" text-anchor="middle" transform="translate(514.2857142857142,282.2783653800472)" font-family="sans-serif" font-size="9px" font-weight="bold" fill="#7570b3">0.7210s (x4.62)</text><text aria-label="Implementation: uuid6&#xA;2025.0.1; Execution Time (seconds, lower=better): 0.954603042; implementation: uuid6; label: 0.9546s (x6.12); Execution Time (s): 0.9546; Slowdown: 6.12" role="graphics-symbol" aria-roledescription="text mark" text-anchor="middle" transform="translate(628.5714285714286,180.65947144924075)" font-family="sans-serif" font-size="9px" font-weight="bold" fill="#e7298a">0.9546s (x6.12)</text><text aria-label="Implementation: uuid_v7&#xA;1.0.0; Execution Time (seconds, lower=better): 1.325978291; implementation: uuid_v7; label: 1.3260s (x8.50); Execution Time (s): 1.3260; Slowdown: 8.50" role="graphics-symbol" aria-roledescription="text mark" text-anchor="middle" transform="translate(742.8571428571429,19.07692307692313)" font-family="sans-serif" font-size="9px" font-weight="bold" fill="#a6761d">1.3260s (x8.50)</text></g><g class="mark-group role-title"><g transform="translate(400,-31)"><path class="background" aria-hidden="true" d="M0,0h0v0h0Z" pointer-events="none"/><g><g class="mark-text role-title-text" role="graphics-symbol" aria-roledescription="title" aria-label="Title text 'UUID v7 benchmark (uuid7() stdlib-compatible APIs)'" pointer-events="none"><text text-anchor="middle" transform="translate(0,10)" font-family="sans-serif" font-size="13px" font-weight="bold" fill="#000" opacity="1">UUID v7 benchmark (uuid7() stdlib-compatible APIs)</text></g><g class="mark-text role-title-subtitle" role="graphics-symbol" aria-roledescription="subtitle" aria-label="Subtitle text 'Python: 3.14.6 (Darwin 25.4.0) | CPU: Apple M1 (Virtual)'" pointer-events="none"><text text-anchor="middle" transform="translate(0,25)" font-family="sans-serif" font-size="12px" fill="#000" opacity="1">Python: 3.14.6 (Darwin 25.4.0) | CPU: Apple M1 (Virtual)</text></g></g><path class="foreground" aria-hidden="true" d="" pointer-events="none" display="none"/></g></g></g><path class="foreground" aria-hidden="true" d="" display="none"/></g></g></g><defs><clipPath id="clip10"><path d="M6,0L96.85714285714286,0C100.16863300410687,0,102.85714285714286,2.688509853036,102.85714285714286,6L102.85714285714286,67.84167369031445C102.85714285714286,67.84167369031445,102.85714285714286,67.84167369031445,102.85714285714286,67.84167369031445L0,67.84167369031445C0,67.84167369031445,0,67.84167369031445,0,67.84167369031445L0,6C0,2.688509853036,2.688509853036,0,6,0Z"/></clipPath><clipPath id="clip11"><path d="M6,0L96.85714285714286,0C100.16863300410687,0,102.85714285714286,2.688509853036,102.85714285714286,6L102.85714285714286,75.15972858528824C102.85714285714286,75.15972858528824,102.85714285714286,75.15972858528824,102.85714285714286,75.15972858528824L0,75.15972858528824C0,75.15972858528824,0,75.15972858528824,0,75.15972858528824L0,6C0,2.688509853036,2.688509853036,0,6,0Z"/></clipPath><clipPath id="clip12"><path d="M6,0L96.85714285714286,0C100.16863300410687,0,102.85714285714286,2.688509853036,102.85714285714286,6L102.85714285714286,78.30174835158948C102.85714285714286,78.30174835158948,102.85714285714286,78.30174835158948,102.85714285714286,78.30174835158948L0,78.30174835158948C0,78.30174835158948,0,78.30174835158948,0,78.30174835158948L0,6C0,2.688509853036,2.688509853036,0,6,0Z"/></clipPath><clipPath id="clip13"><path d="M6,0L96.85714285714286,0C100.16863300410687,0,102.85714285714286,2.688509853036,102.85714285714286,6L102.85714285714286,202.34447050409983C102.85714285714286,202.34447050409983,102.85714285714286,202.34447050409983,102.85714285714286,202.34447050409983L0,202.34447050409983C0,202.34447050409983,0,202.34447050409983,0,202.34447050409983L0,6C0,2.688509853036,2.688509853036,0,6,0Z"/></clipPath><clipPath id="clip14"><path d="M6,0L96.85714285714286,0C100.16863300410687,0,102.85714285714286,2.688509853036,102.85714285714286,6L102.85714285714286,313.7216346199528C102.85714285714286,313.7216346199528,102.85714285714286,313.7216346199528,102.85714285714286,313.7216346199528L0,313.7216346199528C0,313.7216346199528,0,313.7216346199528,0,313.7216346199528L0,6C0,2.688509853036,2.688509853036,0,6,0Z"/></clipPath><clipPath id="clip15"><path d="M6,0L96.85714285714286,0C100.16863300410687,0,102.85714285714286,2.688509853036,102.85714285714286,6L102.85714285714286,415.34052855075925C102.85714285714286,415.34052855075925,102.85714285714286,415.34052855075925,102.85714285714286,415.34052855075925L0,415.34052855075925C0,415.34052855075925,0,415.34052855075925,0,415.34052855075925L0,6C0,2.688509853036,2.688509853036,0,6,0Z"/></clipPath><clipPath id="clip16"><path d="M6,0L96.85714285714286,0C100.16863300410687,0,102.85714285714286,2.688509853036,102.85714285714286,6L102.85714285714286,576.9230769230769C102.85714285714286,576.9230769230769,102.85714285714286,576.9230769230769,102.85714285714286,576.9230769230769L0,576.9230769230769C0,576.9230769230769,0,576.9230769230769,0,576.9230769230769L0,6C0,2.688509853036,2.688509853036,0,6,0Z"/></clipPath></defs></svg>