<svg xmlns="http://www.w3.org/2000/svg" xmlns:xlink="http://www.w3.org/1999/xlink" version="1.1" class="marks" width="844" height="687" viewBox="0 0 844 687"><rect width="844" height="687" fill="white"/><g fill="none" stroke-miterlimit="10" transform="translate(39,36)"><g class="mark-group role-frame root" role="graphics-object" aria-roledescription="group mark container"><g transform="translate(0,0)"><path class="background" aria-hidden="true" d="M0.5,0.5h800v600h-800Z" stroke="#ddd"/><g><g class="mark-group role-axis" role="graphics-symbol" aria-roledescription="axis" aria-label="X-axis titled 'Parser' for a discrete scale with 7 values: yamlrocks&#xA;0.3.0, yaml_rs&#xA;0.1.4, ryaml&#xA;0.5.1, PyYAML (CDumper)&#xA;6.0.3, PyYAML&#xA;6.0.3, oyaml&#xA;1.0, ruamel.yaml&#xA;0.19.1"><g transform="translate(0.5,600.5)"><path class="background" aria-hidden="true" d="M0,0h0v0h0Z" pointer-events="none"/><g><g class="mark-rule role-axis-tick" pointer-events="none"><line transform="translate(57,0)" x2="0" y2="5" stroke="#888" stroke-width="1" opacity="1"/><line transform="translate(171,0)" x2="0" y2="5" stroke="#888" stroke-width="1" opacity="1"/><line transform="translate(285,0)" x2="0" y2="5" stroke="#888" stroke-width="1" opacity="1"/><line transform="translate(400,0)" x2="0" y2="5" stroke="#888" stroke-width="1" opacity="1"/><line transform="translate(514,0)" x2="0" y2="5" stroke="#888" stroke-width="1" opacity="1"/><line transform="translate(628,0)" x2="0" y2="5" stroke="#888" stroke-width="1" opacity="1"/><line transform="translate(742,0)" x2="0" y2="5" stroke="#888" stroke-width="1" opacity="1"/></g><g class="mark-text role-axis-label" pointer-events="none"><text text-anchor="middle" transform="translate(56.642857142857096,15)" font-family="sans-serif" font-size="10px" fill="#000" opacity="1"><tspan>yamlrocks</tspan><tspan x="0" dy="14">0.3.0</tspan></text><text text-anchor="middle" transform="translate(170.9285714285714,15)" font-family="sans-serif" font-size="10px" fill="#000" opacity="1"><tspan>yaml_rs</tspan><tspan x="0" dy="14">0.1.4</tspan></text><text text-anchor="middle" transform="translate(285.21428571428567,15)" font-family="sans-serif" font-size="10px" fill="#000" opacity="1"><tspan>ryaml</tspan><tspan x="0" dy="14">0.5.1</tspan></text><text text-anchor="middle" transform="translate(399.5,15)" font-family="sans-serif" font-size="10px" fill="#000" opacity="1"><tspan>PyYAML (CDumper)</tspan><tspan x="0" dy="14">6.0.3</tspan></text><text text-anchor="middle" transform="translate(513.7857142857142,15)" font-family="sans-serif" font-size="10px" fill="#000" opacity="1"><tspan>PyYAML</tspan><tspan x="0" dy="14">6.0.3</tspan></text><text text-anchor="middle" transform="translate(628.0714285714286,15)" font-family="sans-serif" font-size="10px" fill="#000" opacity="1"><tspan>oyaml</tspan><tspan x="0" dy="14">1.0</tspan></text><text text-anchor="middle" transform="translate(742.3571428571429,15)" font-family="sans-serif" font-size="10px" fill="#000" opacity="1"><tspan>ruamel.yaml</tspan><tspan x="0" dy="14">0.19.1</tspan></text></g><g class="mark-rule role-axis-domain" pointer-events="none"><line transform="translate(0,0)" x2="800" y2="0" stroke="#888" stroke-width="1" opacity="1"/></g><g class="mark-text role-axis-title" pointer-events="none"><text text-anchor="middle" transform="translate(400,44)" font-family="sans-serif" font-size="11px" font-weight="bold" fill="#000" opacity="1">Parser</text></g></g><path class="foreground" aria-hidden="true" d="" pointer-events="none" display="none"/></g></g><g class="mark-group role-axis" role="graphics-symbol" aria-roledescription="axis" aria-label="Y-axis titled 'Execution Time (seconds, lower=better)' for a linear scale with values from 0 to 16"><g transform="translate(0.5,0.5)"><path class="background" aria-hidden="true" d="M0,0h0v0h0Z" pointer-events="none"/><g><g class="mark-rule role-axis-tick" pointer-events="none"><line transform="translate(0,600)" x2="-5" y2="0" stroke="#888" stroke-width="1" opacity="1"/><line transform="translate(0,563)" x2="-5" y2="0" stroke="#888" stroke-width="1" opacity="1"/><line transform="translate(0,527)" x2="-5" y2="0" stroke="#888" stroke-width="1" opacity="1"/><line transform="translate(0,490)" x2="-5" y2="0" stroke="#888" stroke-width="1" opacity="1"/><line transform="translate(0,453)" x2="-5" y2="0" stroke="#888" stroke-width="1" opacity="1"/><line transform="translate(0,417)" x2="-5" y2="0" stroke="#888" stroke-width="1" opacity="1"/><line transform="translate(0,380)" x2="-5" y2="0" stroke="#888" stroke-width="1" opacity="1"/><line transform="translate(0,343)" x2="-5" y2="0" stroke="#888" stroke-width="1" opacity="1"/><line transform="translate(0,307)" x2="-5" y2="0" stroke="#888" stroke-width="1" opacity="1"/><line transform="translate(0,270)" x2="-5" y2="0" stroke="#888" stroke-width="1" opacity="1"/><line transform="translate(0,233)" x2="-5" y2="0" stroke="#888" stroke-width="1" opacity="1"/><line transform="translate(0,197)" x2="-5" y2="0" stroke="#888" stroke-width="1" opacity="1"/><line transform="translate(0,160)" x2="-5" y2="0" stroke="#888" stroke-width="1" opacity="1"/><line transform="translate(0,123)" x2="-5" y2="0" stroke="#888" stroke-width="1" opacity="1"/><line transform="translate(0,87)" x2="-5" y2="0" stroke="#888" stroke-width="1" opacity="1"/><line transform="translate(0,50)" x2="-5" y2="0" stroke="#888" stroke-width="1" opacity="1"/><line transform="translate(0,13)" x2="-5" y2="0" stroke="#888" stroke-width="1" opacity="1"/></g><g class="mark-text role-axis-label" pointer-events="none"><text text-anchor="end" transform="translate(-7,603)" font-family="sans-serif" font-size="10px" fill="#000" opacity="1">0</text><text text-anchor="end" transform="translate(-7,566.3389752471134)" font-family="sans-serif" font-size="10px" fill="#000" opacity="1">1</text><text text-anchor="end" transform="translate(-7,529.6779504942268)" font-family="sans-serif" font-size="10px" fill="#000" opacity="1">2</text><text text-anchor="end" transform="translate(-7,493.01692574134023)" font-family="sans-serif" font-size="10px" fill="#000" opacity="1">3</text><text text-anchor="end" transform="translate(-7,456.3559009884536)" font-family="sans-serif" font-size="10px" fill="#000" opacity="1">4</text><text text-anchor="end" transform="translate(-7,419.69487623556694)" font-family="sans-serif" font-size="10px" fill="#000" opacity="1">5</text><text text-anchor="end" transform="translate(-7,383.03385148268035)" font-family="sans-serif" font-size="10px" fill="#000" opacity="1">6</text><text text-anchor="end" transform="translate(-7,346.3728267297938)" font-family="sans-serif" font-size="10px" fill="#000" opacity="1">7</text><text text-anchor="end" transform="translate(-7,309.71180197690717)" font-family="sans-serif" font-size="10px" fill="#000" opacity="1">8</text><text text-anchor="end" transform="translate(-7,273.0507772240206)" font-family="sans-serif" font-size="10px" fill="#000" opacity="1">9</text><text text-anchor="end" transform="translate(-7,236.38975247113393)" font-family="sans-serif" font-size="10px" fill="#000" opacity="1">10</text><text text-anchor="end" transform="translate(-7,199.72872771824737)" font-family="sans-serif" font-size="10px" fill="#000" opacity="1">11</text><text text-anchor="end" transform="translate(-7,163.06770296536072)" font-family="sans-serif" font-size="10px" fill="#000" opacity="1">12</text><text text-anchor="end" transform="translate(-7,126.40667821247415)" font-family="sans-serif" font-size="10px" fill="#000" opacity="1">13</text><text text-anchor="end" transform="translate(-7,89.74565345958752)" font-family="sans-serif" font-size="10px" fill="#000" opacity="1">14</text><text text-anchor="end" transform="translate(-7,53.08462870670094)" font-family="sans-serif" font-size="10px" fill="#000" opacity="1">15</text><text text-anchor="end" transform="translate(-7,16.4236039538143)" font-family="sans-serif" font-size="10px" fill="#000" opacity="1">16</text></g><g class="mark-rule role-axis-domain" pointer-events="none"><line transform="translate(0,600)" x2="0" y2="-600" stroke="#888" stroke-width="1" opacity="1"/></g><g class="mark-text role-axis-title" pointer-events="none"><text text-anchor="middle" transform="translate(-22.123046875,300) rotate(-90) translate(0,-2)" font-family="sans-serif" font-size="11px" font-weight="bold" fill="#000" opacity="1">Execution Time (seconds, lower=better)</text></g></g><path class="foreground" aria-hidden="true" d="" pointer-events="none" display="none"/></g></g><g class="mark-group role-scope" role="graphics-object" aria-roledescription="group mark container"><g transform="translate(5.714285714285666,598.3008812620518)"><path class="background" aria-hidden="true" d="M0.8495593689740986,0L102.00758348816876,0C102.4764680681052,0,102.85714285714286,0.3806747890376518,102.85714285714286,0.8495593689740986L102.85714285714286,1.6991187379481971C102.85714285714286,1.6991187379481971,102.85714285714286,1.6991187379481971,102.85714285714286,1.6991187379481971L0,1.6991187379481971C0,1.6991187379481971,0,1.6991187379481971,0,1.6991187379481971L0,0.8495593689740986C0,0.3806747890376518,0.3806747890376518,0,0.8495593689740986,0Z"/><g clip-path="url(#clip9)"><g class="mark-group role-scope" role="graphics-object" aria-roledescription="group mark container"><g transform="translate(0,-598.3008812620518)"><path class="background" aria-hidden="true" d="M0,0h102.85714285714286v0h-102.85714285714286Z"/><g><g class="mark-rect role-mark layer_0_marks" role="graphics-object" aria-roledescription="rect mark container"><path aria-label="Parser: yamlrocks&#xA;0.3.0; Execution Time (seconds, lower=better): 0.0463467333333; parser: yamlrocks; Execution Time (s): 0.0463; Slowdown: 1.00" role="graphics-symbol" aria-roledescription="bar" d="M0,598.3008812620518h102.85714285714286v1.6991187379481971h-102.85714285714286Z" fill="#a6761d"/></g></g><path class="foreground" aria-hidden="true" d="" display="none"/></g></g></g><path class="foreground" aria-hidden="true" d="" display="none"/></g><g transform="translate(119.99999999999996,597.1343677815422)"><path class="background" aria-hidden="true" d="M1.4328161092288951,0L101.42432674791397,0C102.21511948593442,0,102.85714285714286,0.6420233712084317,102.85714285714286,1.4328161092288951L102.85714285714286,2.8656322184577903C102.85714285714286,2.8656322184577903,102.85714285714286,2.8656322184577903,102.85714285714286,2.8656322184577903L0,2.8656322184577903C0,2.8656322184577903,0,2.8656322184577903,0,2.8656322184577903L0,1.4328161092288951C0,0.6420233712084317,0.6420233712084317,0,1.4328161092288951,0Z"/><g clip-path="url(#clip10)"><g class="mark-group role-scope" role="graphics-object" aria-roledescription="group mark container"><g transform="translate(0,-597.1343677815422)"><path class="background" aria-hidden="true" d="M0,0h102.85714285714286v0h-102.85714285714286Z"/><g><g class="mark-rect role-mark layer_0_marks" role="graphics-object" aria-roledescription="rect mark container"><path aria-label="Parser: yaml_rs&#xA;0.1.4; Execution Time (seconds, lower=better): 0.0781656333333; parser: yaml_rs; Execution Time (s): 0.0782; Slowdown: 1.69" role="graphics-symbol" aria-roledescription="bar" d="M0,597.1343677815422h102.85714285714286v2.8656322184577903h-102.85714285714286Z" fill="#e6ab02"/></g></g><path class="foreground" aria-hidden="true" d="" display="none"/></g></g></g><path class="foreground" aria-hidden="true" d="" display="none"/></g><g transform="translate(234.28571428571425,592.127816037872)"><path class="background" aria-hidden="true" d="M3.93609198106401,0L98.92105087607885,0C101.09343917821843,0,102.85714285714286,1.7637036789244298,102.85714285714286,3.93609198106401L102.85714285714286,7.87218396212802C102.85714285714286,7.87218396212802,102.85714285714286,7.87218396212802,102.85714285714286,7.87218396212802L0,7.87218396212802C0,7.87218396212802,0,7.87218396212802,0,7.87218396212802L0,3.93609198106401C0,1.7637036789244298,1.7637036789244298,0,3.93609198106401,0Z"/><g clip-path="url(#clip11)"><g class="mark-group role-scope" role="graphics-object" aria-roledescription="group mark container"><g transform="translate(0,-592.127816037872)"><path class="background" aria-hidden="true" d="M0,0h102.85714285714286v0h-102.85714285714286Z"/><g><g class="mark-rect role-mark layer_0_marks" role="graphics-object" aria-roledescription="rect mark container"><path aria-label="Parser: ryaml&#xA;0.5.1; Execution Time (seconds, lower=better): 0.214728966667; parser: ryaml; Execution Time (s): 0.2147; Slowdown: 4.63" role="graphics-symbol" aria-roledescription="bar" d="M0,592.127816037872h102.85714285714286v7.87218396212802h-102.85714285714286Z" fill="#66a61e"/></g></g><path class="foreground" aria-hidden="true" d="" display="none"/></g></g></g><path class="foreground" aria-hidden="true" d="" display="none"/></g><g transform="translate(348.57142857142856,586.8084479903263)"><path class="background" aria-hidden="true" d="M6,0L96.85714285714286,0C100.16863300410687,0,102.85714285714286,2.688509853036,102.85714285714286,6L102.85714285714286,13.191552009673728C102.85714285714286,13.191552009673728,102.85714285714286,13.191552009673728,102.85714285714286,13.191552009673728L0,13.191552009673728C0,13.191552009673728,0,13.191552009673728,0,13.191552009673728L0,6C0,2.688509853036,2.688509853036,0,6,0Z"/><g clip-path="url(#clip12)"><g class="mark-group role-scope" role="graphics-object" aria-roledescription="group mark container"><g transform="translate(0,-586.8084479903263)"><path class="background" aria-hidden="true" d="M0,0h102.85714285714286v0h-102.85714285714286Z"/><g><g class="mark-rect role-mark layer_0_marks" role="graphics-object" aria-roledescription="rect mark container"><path aria-label="Parser: PyYAML (CDumper)&#xA;6.0.3; Execution Time (seconds, lower=better): 0.359824966667; parser: PyYAML (CDumper); Execution Time (s): 0.3598; Slowdown: 7.76" role="graphics-symbol" aria-roledescription="bar" d="M0,586.8084479903263h102.85714285714286v13.191552009673728h-102.85714285714286Z" fill="#d95f02"/></g></g><path class="foreground" aria-hidden="true" d="" display="none"/></g></g></g><path class="foreground" aria-hidden="true" d="" display="none"/></g><g transform="translate(462.85714285714283,94.32102243311078)"><path class="background" aria-hidden="true" d="M6,0L96.85714285714286,0C100.16863300410687,0,102.85714285714286,2.688509853036,102.85714285714286,6L102.85714285714286,505.6789775668892C102.85714285714286,505.6789775668892,102.85714285714286,505.6789775668892,102.85714285714286,505.6789775668892L0,505.6789775668892C0,505.6789775668892,0,505.6789775668892,0,505.6789775668892L0,6C0,2.688509853036,2.688509853036,0,6,0Z"/><g clip-path="url(#clip13)"><g class="mark-group role-scope" role="graphics-object" aria-roledescription="group mark container"><g transform="translate(0,-94.32102243311078)"><path class="background" aria-hidden="true" d="M0,0h102.85714285714286v0h-102.85714285714286Z"/><g><g class="mark-rect role-mark layer_0_marks" role="graphics-object" aria-roledescription="rect mark container"><path aria-label="Parser: PyYAML&#xA;6.0.3; Execution Time (seconds, lower=better): 13.7933672333; parser: PyYAML; Execution Time (s): 13.7934; Slowdown: 297.61" role="graphics-symbol" aria-roledescription="bar" d="M0,94.32102243311078h102.85714285714286v505.6789775668892h-102.85714285714286Z" fill="#1b9e77"/></g></g><path class="foreground" aria-hidden="true" d="" display="none"/></g></g></g><path class="foreground" aria-hidden="true" d="" display="none"/></g><g transform="translate(577.1428571428571,85.55498525190266)"><path class="background" aria-hidden="true" d="M6,0L96.85714285714286,0C100.16863300410687,0,102.85714285714286,2.688509853036,102.85714285714286,6L102.85714285714286,514.4450147480974C102.85714285714286,514.4450147480974,102.85714285714286,514.4450147480974,102.85714285714286,514.4450147480974L0,514.4450147480974C0,514.4450147480974,0,514.4450147480974,0,514.4450147480974L0,6C0,2.688509853036,2.688509853036,0,6,0Z"/><g clip-path="url(#clip14)"><g class="mark-group role-scope" role="graphics-object" aria-roledescription="group mark container"><g transform="translate(0,-85.55498525190266)"><path class="background" aria-hidden="true" d="M0,0h102.85714285714286v0h-102.85714285714286Z"/><g><g class="mark-rect role-mark layer_0_marks" role="graphics-object" aria-roledescription="rect mark container"><path aria-label="Parser: oyaml&#xA;1.0; Execution Time (seconds, lower=better): 14.0324777667; parser: oyaml; Execution Time (s): 14.0325; Slowdown: 302.77" role="graphics-symbol" aria-roledescription="bar" d="M0,85.55498525190266h102.85714285714286v514.4450147480974h-102.85714285714286Z" fill="#7570b3"/></g></g><path class="foreground" aria-hidden="true" d="" display="none"/></g></g></g><path class="foreground" aria-hidden="true" d="" display="none"/></g><g transform="translate(691.4285714285714,28.571428571428537)"><path class="background" aria-hidden="true" d="M6,0L96.85714285714286,0C100.16863300410687,0,102.85714285714286,2.688509853036,102.85714285714286,6L102.85714285714286,571.4285714285714C102.85714285714286,571.4285714285714,102.85714285714286,571.4285714285714,102.85714285714286,571.4285714285714L0,571.4285714285714C0,571.4285714285714,0,571.4285714285714,0,571.4285714285714L0,6C0,2.688509853036,2.688509853036,0,6,0Z"/><g clip-path="url(#clip15)"><g class="mark-group role-scope" role="graphics-object" aria-roledescription="group mark container"><g transform="translate(0,-28.571428571428537)"><path class="background" aria-hidden="true" d="M0,0h102.85714285714286v0h-102.85714285714286Z"/><g><g class="mark-rect role-mark layer_0_marks" role="graphics-object" aria-roledescription="rect mark container"><path aria-label="Parser: ruamel.yaml&#xA;0.19.1; Execution Time (seconds, lower=better): 15.5868139333; parser: ruamel.yaml; Execution Time (s): 15.5868; Slowdown: 336.31" role="graphics-symbol" aria-roledescription="bar" d="M0,28.571428571428537h102.85714285714286v571.4285714285714h-102.85714285714286Z" fill="#e7298a"/></g></g><path class="foreground" aria-hidden="true" d="" display="none"/></g></g></g><path class="foreground" aria-hidden="true" d="" display="none"/></g></g><g class="mark-text role-mark layer_1_marks" role="graphics-object" aria-roledescription="text mark container"><text aria-label="Parser: yamlrocks&#xA;0.3.0; Execution Time (seconds, lower=better): 0.0463467333333; parser: yamlrocks; label: 0.0463s (x1.00); Execution Time (s): 0.0463; Slowdown: 1.00" role="graphics-symbol" aria-roledescription="text mark" text-anchor="middle" transform="translate(57.142857142857096,594.3008812620518)" font-family="sans-serif" font-size="9px" font-weight="bold" fill="#a6761d">0.0463s (x1.00)</text><text aria-label="Parser: yaml_rs&#xA;0.1.4; Execution Time (seconds, lower=better): 0.0781656333333; parser: yaml_rs; label: 0.0782s (x1.69); Execution Time (s): 0.0782; Slowdown: 1.69" role="graphics-symbol" aria-roledescription="text mark" text-anchor="middle" transform="translate(171.4285714285714,593.1343677815422)" font-family="sans-serif" font-size="9px" font-weight="bold" fill="#e6ab02">0.0782s (x1.69)</text><text aria-label="Parser: ryaml&#xA;0.5.1; Execution Time (seconds, lower=better): 0.214728966667; parser: ryaml; label: 0.2147s (x4.63); Execution Time (s): 0.2147; Slowdown: 4.63" role="graphics-symbol" aria-roledescription="text mark" text-anchor="middle" transform="translate(285.71428571428567,588.127816037872)" font-family="sans-serif" font-size="9px" font-weight="bold" fill="#66a61e">0.2147s (x4.63)</text><text aria-label="Parser: PyYAML (CDumper)&#xA;6.0.3; Execution Time (seconds, lower=better): 0.359824966667; parser: PyYAML (CDumper); label: 0.3598s (x7.76); Execution Time (s): 0.3598; Slowdown: 7.76" role="graphics-symbol" aria-roledescription="text mark" text-anchor="middle" transform="translate(400,582.8084479903263)" font-family="sans-serif" font-size="9px" font-weight="bold" fill="#d95f02">0.3598s (x7.76)</text><text aria-label="Parser: PyYAML&#xA;6.0.3; Execution Time (seconds, lower=better): 13.7933672333; parser: PyYAML; label: 13.7934s (x297.61); Execution Time (s): 13.7934; Slowdown: 297.61" role="graphics-symbol" aria-roledescription="text mark" text-anchor="middle" transform="translate(514.2857142857142,90.32102243311078)" font-family="sans-serif" font-size="9px" font-weight="bold" fill="#1b9e77">13.7934s (x297.61)</text><text aria-label="Parser: oyaml&#xA;1.0; Execution Time (seconds, lower=better): 14.0324777667; parser: oyaml; label: 14.0325s (x302.77); Execution Time (s): 14.0325; Slowdown: 302.77" role="graphics-symbol" aria-roledescription="text mark" text-anchor="middle" transform="translate(628.5714285714286,81.55498525190266)" font-family="sans-serif" font-size="9px" font-weight="bold" fill="#7570b3">14.0325s (x302.77)</text><text aria-label="Parser: ruamel.yaml&#xA;0.19.1; Execution Time (seconds, lower=better): 15.5868139333; parser: ruamel.yaml; label: 15.5868s (x336.31); Execution Time (s): 15.5868; Slowdown: 336.31" role="graphics-symbol" aria-roledescription="text mark" text-anchor="middle" transform="translate(742.8571428571429,24.571428571428537)" font-family="sans-serif" font-size="9px" font-weight="bold" fill="#e7298a">15.5868s (x336.31)</text></g><g class="mark-group role-title"><g transform="translate(400,-31)"><path class="background" aria-hidden="true" d="M0,0h0v0h0Z" pointer-events="none"/><g><g class="mark-text role-title-text" role="graphics-symbol" aria-roledescription="title" aria-label="Title text 'YAML parsers benchmark (dumps)'" pointer-events="none"><text text-anchor="middle" transform="translate(0,10)" font-family="sans-serif" font-size="13px" font-weight="bold" fill="#000" opacity="1">YAML parsers benchmark (dumps)</text></g><g class="mark-text role-title-subtitle" role="graphics-symbol" aria-roledescription="subtitle" aria-label="Subtitle text 'Python: 3.14.6 (Windows 2025Server) | CPU: AMD EPYC 7763 64-Core Processor'" pointer-events="none"><text text-anchor="middle" transform="translate(0,25)" font-family="sans-serif" font-size="12px" fill="#000" opacity="1">Python: 3.14.6 (Windows 2025Server) | CPU: AMD EPYC 7763 64-Core Processor</text></g></g><path class="foreground" aria-hidden="true" d="" pointer-events="none" display="none"/></g></g></g><path class="foreground" aria-hidden="true" d="" display="none"/></g></g></g><defs><clipPath id="clip9"><path d="M0.8495593689740986,0L102.00758348816876,0C102.4764680681052,0,102.85714285714286,0.3806747890376518,102.85714285714286,0.8495593689740986L102.85714285714286,1.6991187379481971C102.85714285714286,1.6991187379481971,102.85714285714286,1.6991187379481971,102.85714285714286,1.6991187379481971L0,1.6991187379481971C0,1.6991187379481971,0,1.6991187379481971,0,1.6991187379481971L0,0.8495593689740986C0,0.3806747890376518,0.3806747890376518,0,0.8495593689740986,0Z"/></clipPath><clipPath id="clip10"><path d="M1.4328161092288951,0L101.42432674791397,0C102.21511948593442,0,102.85714285714286,0.6420233712084317,102.85714285714286,1.4328161092288951L102.85714285714286,2.8656322184577903C102.85714285714286,2.8656322184577903,102.85714285714286,2.8656322184577903,102.85714285714286,2.8656322184577903L0,2.8656322184577903C0,2.8656322184577903,0,2.8656322184577903,0,2.8656322184577903L0,1.4328161092288951C0,0.6420233712084317,0.6420233712084317,0,1.4328161092288951,0Z"/></clipPath><clipPath id="clip11"><path d="M3.93609198106401,0L98.92105087607885,0C101.09343917821843,0,102.85714285714286,1.7637036789244298,102.85714285714286,3.93609198106401L102.85714285714286,7.87218396212802C102.85714285714286,7.87218396212802,102.85714285714286,7.87218396212802,102.85714285714286,7.87218396212802L0,7.87218396212802C0,7.87218396212802,0,7.87218396212802,0,7.87218396212802L0,3.93609198106401C0,1.7637036789244298,1.7637036789244298,0,3.93609198106401,0Z"/></clipPath><clipPath id="clip12"><path d="M6,0L96.85714285714286,0C100.16863300410687,0,102.85714285714286,2.688509853036,102.85714285714286,6L102.85714285714286,13.191552009673728C102.85714285714286,13.191552009673728,102.85714285714286,13.191552009673728,102.85714285714286,13.191552009673728L0,13.191552009673728C0,13.191552009673728,0,13.191552009673728,0,13.191552009673728L0,6C0,2.688509853036,2.688509853036,0,6,0Z"/></clipPath><clipPath id="clip13"><path d="M6,0L96.85714285714286,0C100.16863300410687,0,102.85714285714286,2.688509853036,102.85714285714286,6L102.85714285714286,505.6789775668892C102.85714285714286,505.6789775668892,102.85714285714286,505.6789775668892,102.85714285714286,505.6789775668892L0,505.6789775668892C0,505.6789775668892,0,505.6789775668892,0,505.6789775668892L0,6C0,2.688509853036,2.688509853036,0,6,0Z"/></clipPath><clipPath id="clip14"><path d="M6,0L96.85714285714286,0C100.16863300410687,0,102.85714285714286,2.688509853036,102.85714285714286,6L102.85714285714286,514.4450147480974C102.85714285714286,514.4450147480974,102.85714285714286,514.4450147480974,102.85714285714286,514.4450147480974L0,514.4450147480974C0,514.4450147480974,0,514.4450147480974,0,514.4450147480974L0,6C0,2.688509853036,2.688509853036,0,6,0Z"/></clipPath><clipPath id="clip15"><path d="M6,0L96.85714285714286,0C100.16863300410687,0,102.85714285714286,2.688509853036,102.85714285714286,6L102.85714285714286,571.4285714285714C102.85714285714286,571.4285714285714,102.85714285714286,571.4285714285714,102.85714285714286,571.4285714285714L0,571.4285714285714C0,571.4285714285714,0,571.4285714285714,0,571.4285714285714L0,6C0,2.688509853036,2.688509853036,0,6,0Z"/></clipPath></defs></svg>