<svg xmlns="http://www.w3.org/2000/svg" xmlns:xlink="http://www.w3.org/1999/xlink" version="1.1" class="marks" width="844" height="687" viewBox="0 0 844 687"><rect width="844" height="687" fill="white"/><g fill="none" stroke-miterlimit="10" transform="translate(39,36)"><g class="mark-group role-frame root" role="graphics-object" aria-roledescription="group mark container"><g transform="translate(0,0)"><path class="background" aria-hidden="true" d="M0.5,0.5h800v600h-800Z" stroke="#ddd"/><g><g class="mark-group role-axis" role="graphics-symbol" aria-roledescription="axis" aria-label="X-axis titled 'Parser' for a discrete scale with 7 values: yamlrocks&#xA;0.6.1, yaml_rs&#xA;0.1.6, ryaml&#xA;0.5.1, PyYAML (CDumper)&#xA;6.0.3, oyaml&#xA;1.0, PyYAML&#xA;6.0.3, ruamel.yaml&#xA;0.19.1"><g transform="translate(0.5,600.5)"><path class="background" aria-hidden="true" d="M0,0h0v0h0Z" pointer-events="none"/><g><g class="mark-rule role-axis-tick" pointer-events="none"><line transform="translate(57,0)" x2="0" y2="5" stroke="#888" stroke-width="1" opacity="1"/><line transform="translate(171,0)" x2="0" y2="5" stroke="#888" stroke-width="1" opacity="1"/><line transform="translate(285,0)" x2="0" y2="5" stroke="#888" stroke-width="1" opacity="1"/><line transform="translate(400,0)" x2="0" y2="5" stroke="#888" stroke-width="1" opacity="1"/><line transform="translate(514,0)" x2="0" y2="5" stroke="#888" stroke-width="1" opacity="1"/><line transform="translate(628,0)" x2="0" y2="5" stroke="#888" stroke-width="1" opacity="1"/><line transform="translate(742,0)" x2="0" y2="5" stroke="#888" stroke-width="1" opacity="1"/></g><g class="mark-text role-axis-label" pointer-events="none"><text text-anchor="middle" transform="translate(56.642857142857096,15)" font-family="sans-serif" font-size="10px" fill="#000" opacity="1"><tspan>yamlrocks</tspan><tspan x="0" dy="14">0.6.1</tspan></text><text text-anchor="middle" transform="translate(170.9285714285714,15)" font-family="sans-serif" font-size="10px" fill="#000" opacity="1"><tspan>yaml_rs</tspan><tspan x="0" dy="14">0.1.6</tspan></text><text text-anchor="middle" transform="translate(285.21428571428567,15)" font-family="sans-serif" font-size="10px" fill="#000" opacity="1"><tspan>ryaml</tspan><tspan x="0" dy="14">0.5.1</tspan></text><text text-anchor="middle" transform="translate(399.5,15)" font-family="sans-serif" font-size="10px" fill="#000" opacity="1"><tspan>PyYAML (CDumper)</tspan><tspan x="0" dy="14">6.0.3</tspan></text><text text-anchor="middle" transform="translate(513.7857142857142,15)" font-family="sans-serif" font-size="10px" fill="#000" opacity="1"><tspan>oyaml</tspan><tspan x="0" dy="14">1.0</tspan></text><text text-anchor="middle" transform="translate(628.0714285714286,15)" font-family="sans-serif" font-size="10px" fill="#000" opacity="1"><tspan>PyYAML</tspan><tspan x="0" dy="14">6.0.3</tspan></text><text text-anchor="middle" transform="translate(742.3571428571429,15)" font-family="sans-serif" font-size="10px" fill="#000" opacity="1"><tspan>ruamel.yaml</tspan><tspan x="0" dy="14">0.19.1</tspan></text></g><g class="mark-rule role-axis-domain" pointer-events="none"><line transform="translate(0,0)" x2="800" y2="0" stroke="#888" stroke-width="1" opacity="1"/></g><g class="mark-text role-axis-title" pointer-events="none"><text text-anchor="middle" transform="translate(400,44)" font-family="sans-serif" font-size="11px" font-weight="bold" fill="#000" opacity="1">Parser</text></g></g><path class="foreground" aria-hidden="true" d="" pointer-events="none" display="none"/></g></g><g class="mark-group role-axis" role="graphics-symbol" aria-roledescription="axis" aria-label="Y-axis titled 'Execution Time (seconds, lower=better)' for a linear scale with values from 0 to 13"><g transform="translate(0.5,0.5)"><path class="background" aria-hidden="true" d="M0,0h0v0h0Z" pointer-events="none"/><g><g class="mark-rule role-axis-tick" pointer-events="none"><line transform="translate(0,600)" x2="-5" y2="0" stroke="#888" stroke-width="1" opacity="1"/><line transform="translate(0,552)" x2="-5" y2="0" stroke="#888" stroke-width="1" opacity="1"/><line transform="translate(0,504)" x2="-5" y2="0" stroke="#888" stroke-width="1" opacity="1"/><line transform="translate(0,456)" x2="-5" y2="0" stroke="#888" stroke-width="1" opacity="1"/><line transform="translate(0,408)" x2="-5" y2="0" stroke="#888" stroke-width="1" opacity="1"/><line transform="translate(0,360)" x2="-5" y2="0" stroke="#888" stroke-width="1" opacity="1"/><line transform="translate(0,312)" x2="-5" y2="0" stroke="#888" stroke-width="1" opacity="1"/><line transform="translate(0,265)" x2="-5" y2="0" stroke="#888" stroke-width="1" opacity="1"/><line transform="translate(0,217)" x2="-5" y2="0" stroke="#888" stroke-width="1" opacity="1"/><line transform="translate(0,169)" x2="-5" y2="0" stroke="#888" stroke-width="1" opacity="1"/><line transform="translate(0,121)" x2="-5" y2="0" stroke="#888" stroke-width="1" opacity="1"/><line transform="translate(0,73)" x2="-5" y2="0" stroke="#888" stroke-width="1" opacity="1"/><line transform="translate(0,25)" x2="-5" y2="0" stroke="#888" stroke-width="1" opacity="1"/></g><g class="mark-text role-axis-label" pointer-events="none"><text text-anchor="end" transform="translate(-7,603)" font-family="sans-serif" font-size="10px" fill="#000" opacity="1">0</text><text text-anchor="end" transform="translate(-7,555.072988716462)" font-family="sans-serif" font-size="10px" fill="#000" opacity="1">1</text><text text-anchor="end" transform="translate(-7,507.1459774329238)" font-family="sans-serif" font-size="10px" fill="#000" opacity="1">2</text><text text-anchor="end" transform="translate(-7,459.2189661493857)" font-family="sans-serif" font-size="10px" fill="#000" opacity="1">3</text><text text-anchor="end" transform="translate(-7,411.2919548658476)" font-family="sans-serif" font-size="10px" fill="#000" opacity="1">4</text><text text-anchor="end" transform="translate(-7,363.36494358230954)" font-family="sans-serif" font-size="10px" fill="#000" opacity="1">5</text><text text-anchor="end" transform="translate(-7,315.43793229877144)" font-family="sans-serif" font-size="10px" fill="#000" opacity="1">6</text><text text-anchor="end" transform="translate(-7,267.51092101523335)" font-family="sans-serif" font-size="10px" fill="#000" opacity="1">7</text><text text-anchor="end" transform="translate(-7,219.58390973169526)" font-family="sans-serif" font-size="10px" fill="#000" opacity="1">8</text><text text-anchor="end" transform="translate(-7,171.6568984481571)" font-family="sans-serif" font-size="10px" fill="#000" opacity="1">9</text><text text-anchor="end" transform="translate(-7,123.72988716461906)" font-family="sans-serif" font-size="10px" fill="#000" opacity="1">10</text><text text-anchor="end" transform="translate(-7,75.80287588108092)" font-family="sans-serif" font-size="10px" fill="#000" opacity="1">11</text><text text-anchor="end" transform="translate(-7,27.87586459754285)" font-family="sans-serif" font-size="10px" fill="#000" opacity="1">12</text></g><g class="mark-rule role-axis-domain" pointer-events="none"><line transform="translate(0,600)" x2="0" y2="-600" stroke="#888" stroke-width="1" opacity="1"/></g><g class="mark-text role-axis-title" pointer-events="none"><text text-anchor="middle" transform="translate(-22.123046875,300) rotate(-90) translate(0,-2)" font-family="sans-serif" font-size="11px" font-weight="bold" fill="#000" opacity="1">Execution Time (seconds, lower=better)</text></g></g><path class="foreground" aria-hidden="true" d="" pointer-events="none" display="none"/></g></g><g class="mark-group role-scope" role="graphics-object" aria-roledescription="group mark container"><g transform="translate(5.714285714285666,596.6644397713706)"><path class="background" aria-hidden="true" d="M1.6677801143147235,0L101.18936274282814,0C102.10983564547075,0,102.85714285714286,0.7473072116721068,102.85714285714286,1.6677801143147235L102.85714285714286,3.335560228629447C102.85714285714286,3.335560228629447,102.85714285714286,3.335560228629447,102.85714285714286,3.335560228629447L0,3.335560228629447C0,3.335560228629447,0,3.335560228629447,0,3.335560228629447L0,1.6677801143147235C0,0.7473072116721068,0.7473072116721068,0,1.6677801143147235,0Z"/><g clip-path="url(#clip9)"><g class="mark-group role-scope" role="graphics-object" aria-roledescription="group mark container"><g transform="translate(0,-596.6644397713706)"><path class="background" aria-hidden="true" d="M0,0h102.85714285714286v0h-102.85714285714286Z"/><g><g class="mark-rect role-mark layer_0_marks" role="graphics-object" aria-roledescription="rect mark container"><path aria-label="Parser: yamlrocks&#xA;0.6.1; Execution Time (seconds, lower=better): 0.0695966666667; parser: yamlrocks; Execution Time (s): 0.0696; Slowdown: 1.00" role="graphics-symbol" aria-roledescription="bar" d="M0,596.6644397713706h102.85714285714286v3.335560228629447h-102.85714285714286Z" fill="#a6761d"/></g></g><path class="foreground" aria-hidden="true" d="" display="none"/></g></g></g><path class="foreground" aria-hidden="true" d="" display="none"/></g><g transform="translate(119.99999999999996,596.295735675999)"><path class="background" aria-hidden="true" d="M1.852132162000487,0L101.00501069514237,0C102.02723026269899,0,102.85714285714286,0.829912594443863,102.85714285714286,1.852132162000487L102.85714285714286,3.704264324000974C102.85714285714286,3.704264324000974,102.85714285714286,3.704264324000974,102.85714285714286,3.704264324000974L0,3.704264324000974C0,3.704264324000974,0,3.704264324000974,0,3.704264324000974L0,1.852132162000487C0,0.829912594443863,0.829912594443863,0,1.852132162000487,0Z"/><g clip-path="url(#clip10)"><g class="mark-group role-scope" role="graphics-object" aria-roledescription="group mark container"><g transform="translate(0,-596.295735675999)"><path class="background" aria-hidden="true" d="M0,0h102.85714285714286v0h-102.85714285714286Z"/><g><g class="mark-rect role-mark layer_0_marks" role="graphics-object" aria-roledescription="rect mark container"><path aria-label="Parser: yaml_rs&#xA;0.1.6; Execution Time (seconds, lower=better): 0.0772897; parser: yaml_rs; Execution Time (s): 0.0773; Slowdown: 1.11" role="graphics-symbol" aria-roledescription="bar" d="M0,596.295735675999h102.85714285714286v3.704264324000974h-102.85714285714286Z" fill="#e6ab02"/></g></g><path class="foreground" aria-hidden="true" d="" display="none"/></g></g></g><path class="foreground" aria-hidden="true" d="" display="none"/></g><g transform="translate(234.28571428571425,588.667891426795)"><path class="background" aria-hidden="true" d="M5.6660542866025025,0L97.19108857054036,0C100.31826906091491,0,102.85714285714286,2.5388737962279486,102.85714285714286,5.6660542866025025L102.85714285714286,11.332108573205005C102.85714285714286,11.332108573205005,102.85714285714286,11.332108573205005,102.85714285714286,11.332108573205005L0,11.332108573205005C0,11.332108573205005,0,11.332108573205005,0,11.332108573205005L0,5.6660542866025025C0,2.5388737962279486,2.5388737962279486,0,5.6660542866025025,0Z"/><g clip-path="url(#clip11)"><g class="mark-group role-scope" role="graphics-object" aria-roledescription="group mark container"><g transform="translate(0,-588.667891426795)"><path class="background" aria-hidden="true" d="M0,0h102.85714285714286v0h-102.85714285714286Z"/><g><g class="mark-rect role-mark layer_0_marks" role="graphics-object" aria-roledescription="rect mark container"><path aria-label="Parser: ryaml&#xA;0.5.1; Execution Time (seconds, lower=better): 0.236445133333; parser: ryaml; Execution Time (s): 0.2364; Slowdown: 3.40" role="graphics-symbol" aria-roledescription="bar" d="M0,588.667891426795h102.85714285714286v11.332108573205005h-102.85714285714286Z" fill="#66a61e"/></g></g><path class="foreground" aria-hidden="true" d="" display="none"/></g></g></g><path class="foreground" aria-hidden="true" d="" display="none"/></g><g transform="translate(348.57142857142856,581.8805879063497)"><path class="background" aria-hidden="true" d="M6,0L96.85714285714286,0C100.16863300410687,0,102.85714285714286,2.688509853036,102.85714285714286,6L102.85714285714286,18.11941209365034C102.85714285714286,18.11941209365034,102.85714285714286,18.11941209365034,102.85714285714286,18.11941209365034L0,18.11941209365034C0,18.11941209365034,0,18.11941209365034,0,18.11941209365034L0,6C0,2.688509853036,2.688509853036,0,6,0Z"/><g clip-path="url(#clip12)"><g class="mark-group role-scope" role="graphics-object" aria-roledescription="group mark container"><g transform="translate(0,-581.8805879063497)"><path class="background" aria-hidden="true" d="M0,0h102.85714285714286v0h-102.85714285714286Z"/><g><g class="mark-rect role-mark layer_0_marks" role="graphics-object" aria-roledescription="rect mark container"><path aria-label="Parser: PyYAML (CDumper)&#xA;6.0.3; Execution Time (seconds, lower=better): 0.378062633333; parser: PyYAML (CDumper); Execution Time (s): 0.3781; Slowdown: 5.43" role="graphics-symbol" aria-roledescription="bar" d="M0,581.8805879063497h102.85714285714286v18.11941209365034h-102.85714285714286Z" fill="#d95f02"/></g></g><path class="foreground" aria-hidden="true" d="" display="none"/></g></g></g><path class="foreground" aria-hidden="true" d="" display="none"/></g><g transform="translate(462.85714285714283,69.04868918456013)"><path class="background" aria-hidden="true" d="M6,0L96.85714285714286,0C100.16863300410687,0,102.85714285714286,2.688509853036,102.85714285714286,6L102.85714285714286,530.9513108154399C102.85714285714286,530.9513108154399,102.85714285714286,530.9513108154399,102.85714285714286,530.9513108154399L0,530.9513108154399C0,530.9513108154399,0,530.9513108154399,0,530.9513108154399L0,6C0,2.688509853036,2.688509853036,0,6,0Z"/><g clip-path="url(#clip13)"><g class="mark-group role-scope" role="graphics-object" aria-roledescription="group mark container"><g transform="translate(0,-69.04868918456013)"><path class="background" aria-hidden="true" d="M0,0h102.85714285714286v0h-102.85714285714286Z"/><g><g class="mark-rect role-mark layer_0_marks" role="graphics-object" aria-roledescription="rect mark container"><path aria-label="Parser: oyaml&#xA;1.0; Execution Time (seconds, lower=better): 11.0783313333; parser: oyaml; Execution Time (s): 11.0783; Slowdown: 159.18" role="graphics-symbol" aria-roledescription="bar" d="M0,69.04868918456013h102.85714285714286v530.9513108154399h-102.85714285714286Z" fill="#7570b3"/></g></g><path class="foreground" aria-hidden="true" d="" display="none"/></g></g></g><path class="foreground" aria-hidden="true" d="" display="none"/></g><g transform="translate(577.1428571428571,48.711516948878206)"><path class="background" aria-hidden="true" d="M6,0L96.85714285714286,0C100.16863300410687,0,102.85714285714286,2.688509853036,102.85714285714286,6L102.85714285714286,551.2884830511218C102.85714285714286,551.2884830511218,102.85714285714286,551.2884830511218,102.85714285714286,551.2884830511218L0,551.2884830511218C0,551.2884830511218,0,551.2884830511218,0,551.2884830511218L0,6C0,2.688509853036,2.688509853036,0,6,0Z"/><g clip-path="url(#clip14)"><g class="mark-group role-scope" role="graphics-object" aria-roledescription="group mark container"><g transform="translate(0,-48.711516948878206)"><path class="background" aria-hidden="true" d="M0,0h102.85714285714286v0h-102.85714285714286Z"/><g><g class="mark-rect role-mark layer_0_marks" role="graphics-object" aria-roledescription="rect mark container"><path aria-label="Parser: PyYAML&#xA;6.0.3; Execution Time (seconds, lower=better): 11.5026676667; parser: PyYAML; Execution Time (s): 11.5027; Slowdown: 165.28" role="graphics-symbol" aria-roledescription="bar" d="M0,48.711516948878206h102.85714285714286v551.2884830511218h-102.85714285714286Z" fill="#1b9e77"/></g></g><path class="foreground" aria-hidden="true" d="" display="none"/></g></g></g><path class="foreground" aria-hidden="true" d="" display="none"/></g><g transform="translate(691.4285714285714,28.571428571428605)"><path class="background" aria-hidden="true" d="M6,0L96.85714285714286,0C100.16863300410687,0,102.85714285714286,2.688509853036,102.85714285714286,6L102.85714285714286,571.4285714285714C102.85714285714286,571.4285714285714,102.85714285714286,571.4285714285714,102.85714285714286,571.4285714285714L0,571.4285714285714C0,571.4285714285714,0,571.4285714285714,0,571.4285714285714L0,6C0,2.688509853036,2.688509853036,0,6,0Z"/><g clip-path="url(#clip15)"><g class="mark-group role-scope" role="graphics-object" aria-roledescription="group mark container"><g transform="translate(0,-28.571428571428605)"><path class="background" aria-hidden="true" d="M0,0h102.85714285714286v0h-102.85714285714286Z"/><g><g class="mark-rect role-mark layer_0_marks" role="graphics-object" aria-roledescription="rect mark container"><path aria-label="Parser: ruamel.yaml&#xA;0.19.1; Execution Time (seconds, lower=better): 11.9228918333; parser: ruamel.yaml; Execution Time (s): 11.9229; Slowdown: 171.31" role="graphics-symbol" aria-roledescription="bar" d="M0,28.571428571428605h102.85714285714286v571.4285714285714h-102.85714285714286Z" fill="#e7298a"/></g></g><path class="foreground" aria-hidden="true" d="" display="none"/></g></g></g><path class="foreground" aria-hidden="true" d="" display="none"/></g></g><g class="mark-text role-mark layer_1_marks" role="graphics-object" aria-roledescription="text mark container"><text aria-label="Parser: yamlrocks&#xA;0.6.1; Execution Time (seconds, lower=better): 0.0695966666667; parser: yamlrocks; label: 0.0696s (x1.00); Execution Time (s): 0.0696; Slowdown: 1.00" role="graphics-symbol" aria-roledescription="text mark" text-anchor="middle" transform="translate(57.142857142857096,592.6644397713706)" font-family="sans-serif" font-size="9px" font-weight="bold" fill="#a6761d">0.0696s (x1.00)</text><text aria-label="Parser: yaml_rs&#xA;0.1.6; Execution Time (seconds, lower=better): 0.0772897; parser: yaml_rs; label: 0.0773s (x1.11); Execution Time (s): 0.0773; Slowdown: 1.11" role="graphics-symbol" aria-roledescription="text mark" text-anchor="middle" transform="translate(171.4285714285714,592.295735675999)" font-family="sans-serif" font-size="9px" font-weight="bold" fill="#e6ab02">0.0773s (x1.11)</text><text aria-label="Parser: ryaml&#xA;0.5.1; Execution Time (seconds, lower=better): 0.236445133333; parser: ryaml; label: 0.2364s (x3.40); Execution Time (s): 0.2364; Slowdown: 3.40" role="graphics-symbol" aria-roledescription="text mark" text-anchor="middle" transform="translate(285.71428571428567,584.667891426795)" font-family="sans-serif" font-size="9px" font-weight="bold" fill="#66a61e">0.2364s (x3.40)</text><text aria-label="Parser: PyYAML (CDumper)&#xA;6.0.3; Execution Time (seconds, lower=better): 0.378062633333; parser: PyYAML (CDumper); label: 0.3781s (x5.43); Execution Time (s): 0.3781; Slowdown: 5.43" role="graphics-symbol" aria-roledescription="text mark" text-anchor="middle" transform="translate(400,577.8805879063497)" font-family="sans-serif" font-size="9px" font-weight="bold" fill="#d95f02">0.3781s (x5.43)</text><text aria-label="Parser: oyaml&#xA;1.0; Execution Time (seconds, lower=better): 11.0783313333; parser: oyaml; label: 11.0783s (x159.18); Execution Time (s): 11.0783; Slowdown: 159.18" role="graphics-symbol" aria-roledescription="text mark" text-anchor="middle" transform="translate(514.2857142857142,65.04868918456013)" font-family="sans-serif" font-size="9px" font-weight="bold" fill="#7570b3">11.0783s (x159.18)</text><text aria-label="Parser: PyYAML&#xA;6.0.3; Execution Time (seconds, lower=better): 11.5026676667; parser: PyYAML; label: 11.5027s (x165.28); Execution Time (s): 11.5027; Slowdown: 165.28" role="graphics-symbol" aria-roledescription="text mark" text-anchor="middle" transform="translate(628.5714285714286,44.711516948878206)" font-family="sans-serif" font-size="9px" font-weight="bold" fill="#1b9e77">11.5027s (x165.28)</text><text aria-label="Parser: ruamel.yaml&#xA;0.19.1; Execution Time (seconds, lower=better): 11.9228918333; parser: ruamel.yaml; label: 11.9229s (x171.31); Execution Time (s): 11.9229; Slowdown: 171.31" role="graphics-symbol" aria-roledescription="text mark" text-anchor="middle" transform="translate(742.8571428571429,24.571428571428605)" font-family="sans-serif" font-size="9px" font-weight="bold" fill="#e7298a">11.9229s (x171.31)</text></g><g class="mark-group role-title"><g transform="translate(400,-31)"><path class="background" aria-hidden="true" d="M0,0h0v0h0Z" pointer-events="none"/><g><g class="mark-text role-title-text" role="graphics-symbol" aria-roledescription="title" aria-label="Title text 'YAML parsers benchmark (dumps)'" pointer-events="none"><text text-anchor="middle" transform="translate(0,10)" font-family="sans-serif" font-size="13px" font-weight="bold" fill="#000" opacity="1">YAML parsers benchmark (dumps)</text></g><g class="mark-text role-title-subtitle" role="graphics-symbol" aria-roledescription="subtitle" aria-label="Subtitle text 'Python: 3.14.6 (Windows 2025Server) | CPU: INTEL(R) XEON(R) PLATINUM 8573C'" pointer-events="none"><text text-anchor="middle" transform="translate(0,25)" font-family="sans-serif" font-size="12px" fill="#000" opacity="1">Python: 3.14.6 (Windows 2025Server) | CPU: INTEL(R) XEON(R) PLATINUM 8573C</text></g></g><path class="foreground" aria-hidden="true" d="" pointer-events="none" display="none"/></g></g></g><path class="foreground" aria-hidden="true" d="" display="none"/></g></g></g><defs><clipPath id="clip9"><path d="M1.6677801143147235,0L101.18936274282814,0C102.10983564547075,0,102.85714285714286,0.7473072116721068,102.85714285714286,1.6677801143147235L102.85714285714286,3.335560228629447C102.85714285714286,3.335560228629447,102.85714285714286,3.335560228629447,102.85714285714286,3.335560228629447L0,3.335560228629447C0,3.335560228629447,0,3.335560228629447,0,3.335560228629447L0,1.6677801143147235C0,0.7473072116721068,0.7473072116721068,0,1.6677801143147235,0Z"/></clipPath><clipPath id="clip10"><path d="M1.852132162000487,0L101.00501069514237,0C102.02723026269899,0,102.85714285714286,0.829912594443863,102.85714285714286,1.852132162000487L102.85714285714286,3.704264324000974C102.85714285714286,3.704264324000974,102.85714285714286,3.704264324000974,102.85714285714286,3.704264324000974L0,3.704264324000974C0,3.704264324000974,0,3.704264324000974,0,3.704264324000974L0,1.852132162000487C0,0.829912594443863,0.829912594443863,0,1.852132162000487,0Z"/></clipPath><clipPath id="clip11"><path d="M5.6660542866025025,0L97.19108857054036,0C100.31826906091491,0,102.85714285714286,2.5388737962279486,102.85714285714286,5.6660542866025025L102.85714285714286,11.332108573205005C102.85714285714286,11.332108573205005,102.85714285714286,11.332108573205005,102.85714285714286,11.332108573205005L0,11.332108573205005C0,11.332108573205005,0,11.332108573205005,0,11.332108573205005L0,5.6660542866025025C0,2.5388737962279486,2.5388737962279486,0,5.6660542866025025,0Z"/></clipPath><clipPath id="clip12"><path d="M6,0L96.85714285714286,0C100.16863300410687,0,102.85714285714286,2.688509853036,102.85714285714286,6L102.85714285714286,18.11941209365034C102.85714285714286,18.11941209365034,102.85714285714286,18.11941209365034,102.85714285714286,18.11941209365034L0,18.11941209365034C0,18.11941209365034,0,18.11941209365034,0,18.11941209365034L0,6C0,2.688509853036,2.688509853036,0,6,0Z"/></clipPath><clipPath id="clip13"><path d="M6,0L96.85714285714286,0C100.16863300410687,0,102.85714285714286,2.688509853036,102.85714285714286,6L102.85714285714286,530.9513108154399C102.85714285714286,530.9513108154399,102.85714285714286,530.9513108154399,102.85714285714286,530.9513108154399L0,530.9513108154399C0,530.9513108154399,0,530.9513108154399,0,530.9513108154399L0,6C0,2.688509853036,2.688509853036,0,6,0Z"/></clipPath><clipPath id="clip14"><path d="M6,0L96.85714285714286,0C100.16863300410687,0,102.85714285714286,2.688509853036,102.85714285714286,6L102.85714285714286,551.2884830511218C102.85714285714286,551.2884830511218,102.85714285714286,551.2884830511218,102.85714285714286,551.2884830511218L0,551.2884830511218C0,551.2884830511218,0,551.2884830511218,0,551.2884830511218L0,6C0,2.688509853036,2.688509853036,0,6,0Z"/></clipPath><clipPath id="clip15"><path d="M6,0L96.85714285714286,0C100.16863300410687,0,102.85714285714286,2.688509853036,102.85714285714286,6L102.85714285714286,571.4285714285714C102.85714285714286,571.4285714285714,102.85714285714286,571.4285714285714,102.85714285714286,571.4285714285714L0,571.4285714285714C0,571.4285714285714,0,571.4285714285714,0,571.4285714285714L0,6C0,2.688509853036,2.688509853036,0,6,0Z"/></clipPath></defs></svg>