<svg xmlns="http://www.w3.org/2000/svg" xmlns:xlink="http://www.w3.org/1999/xlink" version="1.1" class="marks" width="844" height="687" viewBox="0 0 844 687"><rect width="844" height="687" fill="white"/><g fill="none" stroke-miterlimit="10" transform="translate(39,36)"><g class="mark-group role-frame root" role="graphics-object" aria-roledescription="group mark container"><g transform="translate(0,0)"><path class="background" aria-hidden="true" d="M0.5,0.5h800v600h-800Z" stroke="#ddd"/><g><g class="mark-group role-axis" role="graphics-symbol" aria-roledescription="axis" aria-label="X-axis titled 'Parser' for a discrete scale with 7 values: yamlrocks&#xA;v0.2.1, yaml_rs&#xA;v0.1.4, ryaml&#xA;v0.5.1, PyYAML (CDumper)&#xA;v6.0.3, PyYAML&#xA;v6.0.3, oyaml&#xA;v1.0, ruamel.yaml&#xA;v0.19.1"><g transform="translate(0.5,600.5)"><path class="background" aria-hidden="true" d="M0,0h0v0h0Z" pointer-events="none"/><g><g class="mark-rule role-axis-tick" pointer-events="none"><line transform="translate(57,0)" x2="0" y2="5" stroke="#888" stroke-width="1" opacity="1"/><line transform="translate(171,0)" x2="0" y2="5" stroke="#888" stroke-width="1" opacity="1"/><line transform="translate(285,0)" x2="0" y2="5" stroke="#888" stroke-width="1" opacity="1"/><line transform="translate(400,0)" x2="0" y2="5" stroke="#888" stroke-width="1" opacity="1"/><line transform="translate(514,0)" x2="0" y2="5" stroke="#888" stroke-width="1" opacity="1"/><line transform="translate(628,0)" x2="0" y2="5" stroke="#888" stroke-width="1" opacity="1"/><line transform="translate(742,0)" x2="0" y2="5" stroke="#888" stroke-width="1" opacity="1"/></g><g class="mark-text role-axis-label" pointer-events="none"><text text-anchor="middle" transform="translate(56.642857142857096,15)" font-family="sans-serif" font-size="10px" fill="#000" opacity="1"><tspan>yamlrocks</tspan><tspan x="0" dy="14">v0.2.1</tspan></text><text text-anchor="middle" transform="translate(170.9285714285714,15)" font-family="sans-serif" font-size="10px" fill="#000" opacity="1"><tspan>yaml_rs</tspan><tspan x="0" dy="14">v0.1.4</tspan></text><text text-anchor="middle" transform="translate(285.21428571428567,15)" font-family="sans-serif" font-size="10px" fill="#000" opacity="1"><tspan>ryaml</tspan><tspan x="0" dy="14">v0.5.1</tspan></text><text text-anchor="middle" transform="translate(399.5,15)" font-family="sans-serif" font-size="10px" fill="#000" opacity="1"><tspan>PyYAML (CDumper)</tspan><tspan x="0" dy="14">v6.0.3</tspan></text><text text-anchor="middle" transform="translate(513.7857142857142,15)" font-family="sans-serif" font-size="10px" fill="#000" opacity="1"><tspan>PyYAML</tspan><tspan x="0" dy="14">v6.0.3</tspan></text><text text-anchor="middle" transform="translate(628.0714285714286,15)" font-family="sans-serif" font-size="10px" fill="#000" opacity="1"><tspan>oyaml</tspan><tspan x="0" dy="14">v1.0</tspan></text><text text-anchor="middle" transform="translate(742.3571428571429,15)" font-family="sans-serif" font-size="10px" fill="#000" opacity="1"><tspan>ruamel.yaml</tspan><tspan x="0" dy="14">v0.19.1</tspan></text></g><g class="mark-rule role-axis-domain" pointer-events="none"><line transform="translate(0,0)" x2="800" y2="0" stroke="#888" stroke-width="1" opacity="1"/></g><g class="mark-text role-axis-title" pointer-events="none"><text text-anchor="middle" transform="translate(400,44)" font-family="sans-serif" font-size="11px" font-weight="bold" fill="#000" opacity="1">Parser</text></g></g><path class="foreground" aria-hidden="true" d="" pointer-events="none" display="none"/></g></g><g class="mark-group role-axis" role="graphics-symbol" aria-roledescription="axis" aria-label="Y-axis titled 'Execution Time (seconds, lower=better)' for a linear scale with values from 0 to 12"><g transform="translate(0.5,0.5)"><path class="background" aria-hidden="true" d="M0,0h0v0h0Z" pointer-events="none"/><g><g class="mark-rule role-axis-tick" pointer-events="none"><line transform="translate(0,600)" x2="-5" y2="0" stroke="#888" stroke-width="1" opacity="1"/><line transform="translate(0,549)" x2="-5" y2="0" stroke="#888" stroke-width="1" opacity="1"/><line transform="translate(0,498)" x2="-5" y2="0" stroke="#888" stroke-width="1" opacity="1"/><line transform="translate(0,447)" x2="-5" y2="0" stroke="#888" stroke-width="1" opacity="1"/><line transform="translate(0,396)" x2="-5" y2="0" stroke="#888" stroke-width="1" opacity="1"/><line transform="translate(0,345)" x2="-5" y2="0" stroke="#888" stroke-width="1" opacity="1"/><line transform="translate(0,294)" x2="-5" y2="0" stroke="#888" stroke-width="1" opacity="1"/><line transform="translate(0,243)" x2="-5" y2="0" stroke="#888" stroke-width="1" opacity="1"/><line transform="translate(0,192)" x2="-5" y2="0" stroke="#888" stroke-width="1" opacity="1"/><line transform="translate(0,141)" x2="-5" y2="0" stroke="#888" stroke-width="1" opacity="1"/><line transform="translate(0,90)" x2="-5" y2="0" stroke="#888" stroke-width="1" opacity="1"/><line transform="translate(0,39)" x2="-5" y2="0" stroke="#888" stroke-width="1" opacity="1"/></g><g class="mark-text role-axis-label" pointer-events="none"><text text-anchor="end" transform="translate(-7,603)" font-family="sans-serif" font-size="10px" fill="#000" opacity="1">0</text><text text-anchor="end" transform="translate(-7,552.0223553413819)" font-family="sans-serif" font-size="10px" fill="#000" opacity="1">1</text><text text-anchor="end" transform="translate(-7,501.04471068276376)" font-family="sans-serif" font-size="10px" fill="#000" opacity="1">2</text><text text-anchor="end" transform="translate(-7,450.0670660241457)" font-family="sans-serif" font-size="10px" fill="#000" opacity="1">3</text><text text-anchor="end" transform="translate(-7,399.0894213655275)" font-family="sans-serif" font-size="10px" fill="#000" opacity="1">4</text><text text-anchor="end" transform="translate(-7,348.11177670690944)" font-family="sans-serif" font-size="10px" fill="#000" opacity="1">5</text><text text-anchor="end" transform="translate(-7,297.1341320482913)" font-family="sans-serif" font-size="10px" fill="#000" opacity="1">6</text><text text-anchor="end" transform="translate(-7,246.1564873896732)" font-family="sans-serif" font-size="10px" fill="#000" opacity="1">7</text><text text-anchor="end" transform="translate(-7,195.17884273105508)" font-family="sans-serif" font-size="10px" fill="#000" opacity="1">8</text><text text-anchor="end" transform="translate(-7,144.20119807243697)" font-family="sans-serif" font-size="10px" fill="#000" opacity="1">9</text><text text-anchor="end" transform="translate(-7,93.22355341381885)" font-family="sans-serif" font-size="10px" fill="#000" opacity="1">10</text><text text-anchor="end" transform="translate(-7,42.24590875520073)" font-family="sans-serif" font-size="10px" fill="#000" opacity="1">11</text></g><g class="mark-rule role-axis-domain" pointer-events="none"><line transform="translate(0,600)" x2="0" y2="-600" stroke="#888" stroke-width="1" opacity="1"/></g><g class="mark-text role-axis-title" pointer-events="none"><text text-anchor="middle" transform="translate(-22.123046875,300) rotate(-90) translate(0,-2)" font-family="sans-serif" font-size="11px" font-weight="bold" fill="#000" opacity="1">Execution Time (seconds, lower=better)</text></g></g><path class="foreground" aria-hidden="true" d="" pointer-events="none" display="none"/></g></g><g class="mark-group role-scope" role="graphics-object" aria-roledescription="group mark container"><g transform="translate(5.714285714285666,598.0410786501932)"><path class="background" aria-hidden="true" d="M0.9794606749034074,0L101.87768218223945,0C102.41826124461967,0,102.85714285714286,0.43888161252318353,102.85714285714286,0.9794606749034074L102.85714285714286,1.9589213498068148C102.85714285714286,1.9589213498068148,102.85714285714286,1.9589213498068148,102.85714285714286,1.9589213498068148L0,1.9589213498068148C0,1.9589213498068148,0,1.9589213498068148,0,1.9589213498068148L0,0.9794606749034074C0,0.43888161252318353,0.43888161252318353,0,0.9794606749034074,0Z"/><g clip-path="url(#clip9)"><g class="mark-group role-scope" role="graphics-object" aria-roledescription="group mark container"><g transform="translate(0,-598.0410786501932)"><path class="background" aria-hidden="true" d="M0,0h102.85714285714286v0h-102.85714285714286Z"/><g><g class="mark-rect role-mark layer_0_marks" role="graphics-object" aria-roledescription="rect mark container"><path aria-label="Parser: yamlrocks&#xA;v0.2.1; Execution Time (seconds, lower=better): 0.0384270666667; parser: yamlrocks; Execution Time (s): 0.0384; Slowdown: 1.00" role="graphics-symbol" aria-roledescription="bar" d="M0,598.0410786501932h102.85714285714286v1.9589213498068148h-102.85714285714286Z" fill="#a6761d"/></g></g><path class="foreground" aria-hidden="true" d="" display="none"/></g></g></g><path class="foreground" aria-hidden="true" d="" display="none"/></g><g transform="translate(119.99999999999996,597.3731338655232)"><path class="background" aria-hidden="true" d="M1.3134330672384067,0L101.54370978990445,0C102.26861323338056,0,102.85714285714286,0.5885296237622919,102.85714285714286,1.3134330672384067L102.85714285714286,2.6268661344768134C102.85714285714286,2.6268661344768134,102.85714285714286,2.6268661344768134,102.85714285714286,2.6268661344768134L0,2.6268661344768134C0,2.6268661344768134,0,2.6268661344768134,0,2.6268661344768134L0,1.3134330672384067C0,0.5885296237622919,0.5885296237622919,0,1.3134330672384067,0Z"/><g clip-path="url(#clip10)"><g class="mark-group role-scope" role="graphics-object" aria-roledescription="group mark container"><g transform="translate(0,-597.3731338655232)"><path class="background" aria-hidden="true" d="M0,0h102.85714285714286v0h-102.85714285714286Z"/><g><g class="mark-rect role-mark layer_0_marks" role="graphics-object" aria-roledescription="rect mark container"><path aria-label="Parser: yaml_rs&#xA;v0.1.4; Execution Time (seconds, lower=better): 0.0515297666667; parser: yaml_rs; Execution Time (s): 0.0515; Slowdown: 1.34" role="graphics-symbol" aria-roledescription="bar" d="M0,597.3731338655232h102.85714285714286v2.6268661344768134h-102.85714285714286Z" fill="#e6ab02"/></g></g><path class="foreground" aria-hidden="true" d="" display="none"/></g></g></g><path class="foreground" aria-hidden="true" d="" display="none"/></g><g transform="translate(234.28571428571425,591.0163796072918)"><path class="background" aria-hidden="true" d="M4.491810196354095,0L98.36533266078877,0C100.84443019533194,0,102.85714285714286,2.0127126618109257,102.85714285714286,4.491810196354095L102.85714285714286,8.98362039270819C102.85714285714286,8.98362039270819,102.85714285714286,8.98362039270819,102.85714285714286,8.98362039270819L0,8.98362039270819C0,8.98362039270819,0,8.98362039270819,0,8.98362039270819L0,4.491810196354095C0,2.0127126618109257,2.0127126618109257,0,4.491810196354095,0Z"/><g clip-path="url(#clip11)"><g class="mark-group role-scope" role="graphics-object" aria-roledescription="group mark container"><g transform="translate(0,-591.0163796072918)"><path class="background" aria-hidden="true" d="M0,0h102.85714285714286v0h-102.85714285714286Z"/><g><g class="mark-rect role-mark layer_0_marks" role="graphics-object" aria-roledescription="rect mark container"><path aria-label="Parser: ryaml&#xA;v0.5.1; Execution Time (seconds, lower=better): 0.176226666667; parser: ryaml; Execution Time (s): 0.1762; Slowdown: 4.59" role="graphics-symbol" aria-roledescription="bar" d="M0,591.0163796072918h102.85714285714286v8.98362039270819h-102.85714285714286Z" fill="#66a61e"/></g></g><path class="foreground" aria-hidden="true" d="" display="none"/></g></g></g><path class="foreground" aria-hidden="true" d="" display="none"/></g><g transform="translate(348.57142857142856,585.4299213494237)"><path class="background" aria-hidden="true" d="M6,0L96.85714285714286,0C100.16863300410687,0,102.85714285714286,2.688509853036,102.85714285714286,6L102.85714285714286,14.570078650576306C102.85714285714286,14.570078650576306,102.85714285714286,14.570078650576306,102.85714285714286,14.570078650576306L0,14.570078650576306C0,14.570078650576306,0,14.570078650576306,0,14.570078650576306L0,6C0,2.688509853036,2.688509853036,0,6,0Z"/><g clip-path="url(#clip12)"><g class="mark-group role-scope" role="graphics-object" aria-roledescription="group mark container"><g transform="translate(0,-585.4299213494237)"><path class="background" aria-hidden="true" d="M0,0h102.85714285714286v0h-102.85714285714286Z"/><g><g class="mark-rect role-mark layer_0_marks" role="graphics-object" aria-roledescription="rect mark container"><path aria-label="Parser: PyYAML (CDumper)&#xA;v6.0.3; Execution Time (seconds, lower=better): 0.2858131; parser: PyYAML (CDumper); Execution Time (s): 0.2858; Slowdown: 7.44" role="graphics-symbol" aria-roledescription="bar" d="M0,585.4299213494237h102.85714285714286v14.570078650576306h-102.85714285714286Z" fill="#d95f02"/></g></g><path class="foreground" aria-hidden="true" d="" display="none"/></g></g></g><path class="foreground" aria-hidden="true" d="" display="none"/></g><g transform="translate(462.85714285714283,45.56439069707523)"><path class="background" aria-hidden="true" d="M6,0L96.85714285714286,0C100.16863300410687,0,102.85714285714286,2.688509853036,102.85714285714286,6L102.85714285714286,554.4356093029247C102.85714285714286,554.4356093029247,102.85714285714286,554.4356093029247,102.85714285714286,554.4356093029247L0,554.4356093029247C0,554.4356093029247,0,554.4356093029247,0,554.4356093029247L0,6C0,2.688509853036,2.688509853036,0,6,0Z"/><g clip-path="url(#clip13)"><g class="mark-group role-scope" role="graphics-object" aria-roledescription="group mark container"><g transform="translate(0,-45.56439069707523)"><path class="background" aria-hidden="true" d="M0,0h102.85714285714286v0h-102.85714285714286Z"/><g><g class="mark-rect role-mark layer_0_marks" role="graphics-object" aria-roledescription="rect mark container"><path aria-label="Parser: PyYAML&#xA;v6.0.3; Execution Time (seconds, lower=better): 10.8760538667; parser: PyYAML; Execution Time (s): 10.8761; Slowdown: 283.03" role="graphics-symbol" aria-roledescription="bar" d="M0,45.56439069707523h102.85714285714286v554.4356093029247h-102.85714285714286Z" fill="#1b9e77"/></g></g><path class="foreground" aria-hidden="true" d="" display="none"/></g></g></g><path class="foreground" aria-hidden="true" d="" display="none"/></g><g transform="translate(577.1428571428571,41.2153009132179)"><path class="background" aria-hidden="true" d="M6,0L96.85714285714286,0C100.16863300410687,0,102.85714285714286,2.688509853036,102.85714285714286,6L102.85714285714286,558.7846990867821C102.85714285714286,558.7846990867821,102.85714285714286,558.7846990867821,102.85714285714286,558.7846990867821L0,558.7846990867821C0,558.7846990867821,0,558.7846990867821,0,558.7846990867821L0,6C0,2.688509853036,2.688509853036,0,6,0Z"/><g clip-path="url(#clip14)"><g class="mark-group role-scope" role="graphics-object" aria-roledescription="group mark container"><g transform="translate(0,-41.2153009132179)"><path class="background" aria-hidden="true" d="M0,0h102.85714285714286v0h-102.85714285714286Z"/><g><g class="mark-rect role-mark layer_0_marks" role="graphics-object" aria-roledescription="rect mark container"><path aria-label="Parser: oyaml&#xA;v1.0; Execution Time (seconds, lower=better): 10.9613675333; parser: oyaml; Execution Time (s): 10.9614; Slowdown: 285.25" role="graphics-symbol" aria-roledescription="bar" d="M0,41.2153009132179h102.85714285714286v558.7846990867821h-102.85714285714286Z" fill="#7570b3"/></g></g><path class="foreground" aria-hidden="true" d="" display="none"/></g></g></g><path class="foreground" aria-hidden="true" d="" display="none"/></g><g transform="translate(691.4285714285714,23.07692307692313)"><path class="background" aria-hidden="true" d="M6,0L96.85714285714286,0C100.16863300410687,0,102.85714285714286,2.688509853036,102.85714285714286,6L102.85714285714286,576.9230769230769C102.85714285714286,576.9230769230769,102.85714285714286,576.9230769230769,102.85714285714286,576.9230769230769L0,576.9230769230769C0,576.9230769230769,0,576.9230769230769,0,576.9230769230769L0,6C0,2.688509853036,2.688509853036,0,6,0Z"/><g clip-path="url(#clip15)"><g class="mark-group role-scope" role="graphics-object" aria-roledescription="group mark container"><g transform="translate(0,-23.07692307692313)"><path class="background" aria-hidden="true" d="M0,0h102.85714285714286v0h-102.85714285714286Z"/><g><g class="mark-rect role-mark layer_0_marks" role="graphics-object" aria-roledescription="rect mark container"><path aria-label="Parser: ruamel.yaml&#xA;v0.19.1; Execution Time (seconds, lower=better): 11.3171779667; parser: ruamel.yaml; Execution Time (s): 11.3172; Slowdown: 294.51" role="graphics-symbol" aria-roledescription="bar" d="M0,23.07692307692313h102.85714285714286v576.9230769230769h-102.85714285714286Z" fill="#e7298a"/></g></g><path class="foreground" aria-hidden="true" d="" display="none"/></g></g></g><path class="foreground" aria-hidden="true" d="" display="none"/></g></g><g class="mark-text role-mark layer_1_marks" role="graphics-object" aria-roledescription="text mark container"><text aria-label="Parser: yamlrocks&#xA;v0.2.1; Execution Time (seconds, lower=better): 0.0384270666667; parser: yamlrocks; label: 0.0384s (x1.00); Execution Time (s): 0.0384; Slowdown: 1.00" role="graphics-symbol" aria-roledescription="text mark" text-anchor="middle" transform="translate(57.142857142857096,594.0410786501932)" font-family="sans-serif" font-size="9px" font-weight="bold" fill="#a6761d">0.0384s (x1.00)</text><text aria-label="Parser: yaml_rs&#xA;v0.1.4; Execution Time (seconds, lower=better): 0.0515297666667; parser: yaml_rs; label: 0.0515s (x1.34); Execution Time (s): 0.0515; Slowdown: 1.34" role="graphics-symbol" aria-roledescription="text mark" text-anchor="middle" transform="translate(171.4285714285714,593.3731338655232)" font-family="sans-serif" font-size="9px" font-weight="bold" fill="#e6ab02">0.0515s (x1.34)</text><text aria-label="Parser: ryaml&#xA;v0.5.1; Execution Time (seconds, lower=better): 0.176226666667; parser: ryaml; label: 0.1762s (x4.59); Execution Time (s): 0.1762; Slowdown: 4.59" role="graphics-symbol" aria-roledescription="text mark" text-anchor="middle" transform="translate(285.71428571428567,587.0163796072918)" font-family="sans-serif" font-size="9px" font-weight="bold" fill="#66a61e">0.1762s (x4.59)</text><text aria-label="Parser: PyYAML (CDumper)&#xA;v6.0.3; Execution Time (seconds, lower=better): 0.2858131; parser: PyYAML (CDumper); label: 0.2858s (x7.44); Execution Time (s): 0.2858; Slowdown: 7.44" role="graphics-symbol" aria-roledescription="text mark" text-anchor="middle" transform="translate(400,581.4299213494237)" font-family="sans-serif" font-size="9px" font-weight="bold" fill="#d95f02">0.2858s (x7.44)</text><text aria-label="Parser: PyYAML&#xA;v6.0.3; Execution Time (seconds, lower=better): 10.8760538667; parser: PyYAML; label: 10.8761s (x283.03); Execution Time (s): 10.8761; Slowdown: 283.03" role="graphics-symbol" aria-roledescription="text mark" text-anchor="middle" transform="translate(514.2857142857142,41.56439069707523)" font-family="sans-serif" font-size="9px" font-weight="bold" fill="#1b9e77">10.8761s (x283.03)</text><text aria-label="Parser: oyaml&#xA;v1.0; Execution Time (seconds, lower=better): 10.9613675333; parser: oyaml; label: 10.9614s (x285.25); Execution Time (s): 10.9614; Slowdown: 285.25" role="graphics-symbol" aria-roledescription="text mark" text-anchor="middle" transform="translate(628.5714285714286,37.2153009132179)" font-family="sans-serif" font-size="9px" font-weight="bold" fill="#7570b3">10.9614s (x285.25)</text><text aria-label="Parser: ruamel.yaml&#xA;v0.19.1; Execution Time (seconds, lower=better): 11.3171779667; parser: ruamel.yaml; label: 11.3172s (x294.51); Execution Time (s): 11.3172; Slowdown: 294.51" role="graphics-symbol" aria-roledescription="text mark" text-anchor="middle" transform="translate(742.8571428571429,19.07692307692313)" font-family="sans-serif" font-size="9px" font-weight="bold" fill="#e7298a">11.3172s (x294.51)</text></g><g class="mark-group role-title"><g transform="translate(400,-31)"><path class="background" aria-hidden="true" d="M0,0h0v0h0Z" pointer-events="none"/><g><g class="mark-text role-title-text" role="graphics-symbol" aria-roledescription="title" aria-label="Title text 'YAML parsers benchmark (dumps)'" pointer-events="none"><text text-anchor="middle" transform="translate(0,10)" font-family="sans-serif" font-size="13px" font-weight="bold" fill="#000" opacity="1">YAML parsers benchmark (dumps)</text></g><g class="mark-text role-title-subtitle" role="graphics-symbol" aria-roledescription="subtitle" aria-label="Subtitle text 'Python: 3.14.6 (Windows 2025Server) | CPU: AMD EPYC 9V74 80-Core Processor'" pointer-events="none"><text text-anchor="middle" transform="translate(0,25)" font-family="sans-serif" font-size="12px" fill="#000" opacity="1">Python: 3.14.6 (Windows 2025Server) | CPU: AMD EPYC 9V74 80-Core Processor</text></g></g><path class="foreground" aria-hidden="true" d="" pointer-events="none" display="none"/></g></g></g><path class="foreground" aria-hidden="true" d="" display="none"/></g></g></g><defs><clipPath id="clip9"><path d="M0.9794606749034074,0L101.87768218223945,0C102.41826124461967,0,102.85714285714286,0.43888161252318353,102.85714285714286,0.9794606749034074L102.85714285714286,1.9589213498068148C102.85714285714286,1.9589213498068148,102.85714285714286,1.9589213498068148,102.85714285714286,1.9589213498068148L0,1.9589213498068148C0,1.9589213498068148,0,1.9589213498068148,0,1.9589213498068148L0,0.9794606749034074C0,0.43888161252318353,0.43888161252318353,0,0.9794606749034074,0Z"/></clipPath><clipPath id="clip10"><path d="M1.3134330672384067,0L101.54370978990445,0C102.26861323338056,0,102.85714285714286,0.5885296237622919,102.85714285714286,1.3134330672384067L102.85714285714286,2.6268661344768134C102.85714285714286,2.6268661344768134,102.85714285714286,2.6268661344768134,102.85714285714286,2.6268661344768134L0,2.6268661344768134C0,2.6268661344768134,0,2.6268661344768134,0,2.6268661344768134L0,1.3134330672384067C0,0.5885296237622919,0.5885296237622919,0,1.3134330672384067,0Z"/></clipPath><clipPath id="clip11"><path d="M4.491810196354095,0L98.36533266078877,0C100.84443019533194,0,102.85714285714286,2.0127126618109257,102.85714285714286,4.491810196354095L102.85714285714286,8.98362039270819C102.85714285714286,8.98362039270819,102.85714285714286,8.98362039270819,102.85714285714286,8.98362039270819L0,8.98362039270819C0,8.98362039270819,0,8.98362039270819,0,8.98362039270819L0,4.491810196354095C0,2.0127126618109257,2.0127126618109257,0,4.491810196354095,0Z"/></clipPath><clipPath id="clip12"><path d="M6,0L96.85714285714286,0C100.16863300410687,0,102.85714285714286,2.688509853036,102.85714285714286,6L102.85714285714286,14.570078650576306C102.85714285714286,14.570078650576306,102.85714285714286,14.570078650576306,102.85714285714286,14.570078650576306L0,14.570078650576306C0,14.570078650576306,0,14.570078650576306,0,14.570078650576306L0,6C0,2.688509853036,2.688509853036,0,6,0Z"/></clipPath><clipPath id="clip13"><path d="M6,0L96.85714285714286,0C100.16863300410687,0,102.85714285714286,2.688509853036,102.85714285714286,6L102.85714285714286,554.4356093029247C102.85714285714286,554.4356093029247,102.85714285714286,554.4356093029247,102.85714285714286,554.4356093029247L0,554.4356093029247C0,554.4356093029247,0,554.4356093029247,0,554.4356093029247L0,6C0,2.688509853036,2.688509853036,0,6,0Z"/></clipPath><clipPath id="clip14"><path d="M6,0L96.85714285714286,0C100.16863300410687,0,102.85714285714286,2.688509853036,102.85714285714286,6L102.85714285714286,558.7846990867821C102.85714285714286,558.7846990867821,102.85714285714286,558.7846990867821,102.85714285714286,558.7846990867821L0,558.7846990867821C0,558.7846990867821,0,558.7846990867821,0,558.7846990867821L0,6C0,2.688509853036,2.688509853036,0,6,0Z"/></clipPath><clipPath id="clip15"><path d="M6,0L96.85714285714286,0C100.16863300410687,0,102.85714285714286,2.688509853036,102.85714285714286,6L102.85714285714286,576.9230769230769C102.85714285714286,576.9230769230769,102.85714285714286,576.9230769230769,102.85714285714286,576.9230769230769L0,576.9230769230769C0,576.9230769230769,0,576.9230769230769,0,576.9230769230769L0,6C0,2.688509853036,2.688509853036,0,6,0Z"/></clipPath></defs></svg>