<svg xmlns="http://www.w3.org/2000/svg" xmlns:xlink="http://www.w3.org/1999/xlink" version="1.1" class="marks" width="844" height="687" viewBox="0 0 844 687"><rect width="844" height="687" fill="white"/><g fill="none" stroke-miterlimit="10" transform="translate(39,36)"><g class="mark-group role-frame root" role="graphics-object" aria-roledescription="group mark container"><g transform="translate(0,0)"><path class="background" aria-hidden="true" d="M0.5,0.5h800v600h-800Z" stroke="#ddd"/><g><g class="mark-group role-axis" role="graphics-symbol" aria-roledescription="axis" aria-label="X-axis titled 'Parser' for a discrete scale with 8 values: yaml_rs&#xA;0.1.6, yaml_rs (parse_dt=False)&#xA;0.1.6, yamlrocks&#xA;0.6.1, ryaml&#xA;0.5.1, PyYAML (CLoader)&#xA;6.0.3, ending with ruamel.yaml&#xA;0.19.1"><g transform="translate(0.5,600.5)"><path class="background" aria-hidden="true" d="M0,0h0v0h0Z" pointer-events="none"/><g><g class="mark-rule role-axis-tick" pointer-events="none"><line transform="translate(50,0)" x2="0" y2="5" stroke="#888" stroke-width="1" opacity="1"/><line transform="translate(150,0)" x2="0" y2="5" stroke="#888" stroke-width="1" opacity="1"/><line transform="translate(250,0)" x2="0" y2="5" stroke="#888" stroke-width="1" opacity="1"/><line transform="translate(350,0)" x2="0" y2="5" stroke="#888" stroke-width="1" opacity="1"/><line transform="translate(450,0)" x2="0" y2="5" stroke="#888" stroke-width="1" opacity="1"/><line transform="translate(550,0)" x2="0" y2="5" stroke="#888" stroke-width="1" opacity="1"/><line transform="translate(650,0)" x2="0" y2="5" stroke="#888" stroke-width="1" opacity="1"/><line transform="translate(750,0)" x2="0" y2="5" stroke="#888" stroke-width="1" opacity="1"/></g><g class="mark-text role-axis-label" pointer-events="none"><text text-anchor="middle" transform="translate(49.5,15)" font-family="sans-serif" font-size="10px" fill="#000" opacity="1"><tspan>yaml_rs</tspan><tspan x="0" dy="14">0.1.6</tspan></text><text text-anchor="middle" transform="translate(149.5,15)" font-family="sans-serif" font-size="10px" fill="#000" opacity="1"><tspan>yaml_rs (parse_dt=False)</tspan><tspan x="0" dy="14">0.1.6</tspan></text><text text-anchor="middle" transform="translate(249.5,15)" font-family="sans-serif" font-size="10px" fill="#000" opacity="1"><tspan>yamlrocks</tspan><tspan x="0" dy="14">0.6.1</tspan></text><text text-anchor="middle" transform="translate(349.5,15)" font-family="sans-serif" font-size="10px" fill="#000" opacity="1"><tspan>ryaml</tspan><tspan x="0" dy="14">0.5.1</tspan></text><text text-anchor="middle" transform="translate(449.5,15)" font-family="sans-serif" font-size="10px" fill="#000" opacity="1"><tspan>PyYAML (CLoader)</tspan><tspan x="0" dy="14">6.0.3</tspan></text><text text-anchor="middle" transform="translate(549.5,15)" font-family="sans-serif" font-size="10px" fill="#000" opacity="1"><tspan>oyaml</tspan><tspan x="0" dy="14">1.0</tspan></text><text text-anchor="middle" transform="translate(649.5,15)" font-family="sans-serif" font-size="10px" fill="#000" opacity="1"><tspan>PyYAML</tspan><tspan x="0" dy="14">6.0.3</tspan></text><text text-anchor="middle" transform="translate(749.5,15)" font-family="sans-serif" font-size="10px" fill="#000" opacity="1"><tspan>ruamel.yaml</tspan><tspan x="0" dy="14">0.19.1</tspan></text></g><g class="mark-rule role-axis-domain" pointer-events="none"><line transform="translate(0,0)" x2="800" y2="0" stroke="#888" stroke-width="1" opacity="1"/></g><g class="mark-text role-axis-title" pointer-events="none"><text text-anchor="middle" transform="translate(400,44)" font-family="sans-serif" font-size="11px" font-weight="bold" fill="#000" opacity="1">Parser</text></g></g><path class="foreground" aria-hidden="true" d="" pointer-events="none" display="none"/></g></g><g class="mark-group role-axis" role="graphics-symbol" aria-roledescription="axis" aria-label="Y-axis titled 'Execution Time (seconds, lower=better)' for a linear scale with values from 0 to 29"><g transform="translate(0.5,0.5)"><path class="background" aria-hidden="true" d="M0,0h0v0h0Z" pointer-events="none"/><g><g class="mark-rule role-axis-tick" pointer-events="none"><line transform="translate(0,600)" x2="-5" y2="0" stroke="#888" stroke-width="1" opacity="1"/><line transform="translate(0,558)" x2="-5" y2="0" stroke="#888" stroke-width="1" opacity="1"/><line transform="translate(0,516)" x2="-5" y2="0" stroke="#888" stroke-width="1" opacity="1"/><line transform="translate(0,474)" x2="-5" y2="0" stroke="#888" stroke-width="1" opacity="1"/><line transform="translate(0,432)" x2="-5" y2="0" stroke="#888" stroke-width="1" opacity="1"/><line transform="translate(0,391)" x2="-5" y2="0" stroke="#888" stroke-width="1" opacity="1"/><line transform="translate(0,349)" x2="-5" y2="0" stroke="#888" stroke-width="1" opacity="1"/><line transform="translate(0,307)" x2="-5" y2="0" stroke="#888" stroke-width="1" opacity="1"/><line transform="translate(0,265)" x2="-5" y2="0" stroke="#888" stroke-width="1" opacity="1"/><line transform="translate(0,223)" x2="-5" y2="0" stroke="#888" stroke-width="1" opacity="1"/><line transform="translate(0,181)" x2="-5" y2="0" stroke="#888" stroke-width="1" opacity="1"/><line transform="translate(0,139)" x2="-5" y2="0" stroke="#888" stroke-width="1" opacity="1"/><line transform="translate(0,97)" x2="-5" y2="0" stroke="#888" stroke-width="1" opacity="1"/><line transform="translate(0,56)" x2="-5" y2="0" stroke="#888" stroke-width="1" opacity="1"/><line transform="translate(0,14)" x2="-5" y2="0" stroke="#888" stroke-width="1" opacity="1"/></g><g class="mark-text role-axis-label" pointer-events="none"><text text-anchor="end" transform="translate(-7,603)" font-family="sans-serif" font-size="10px" fill="#000" opacity="1">0</text><text text-anchor="end" transform="translate(-7,561.12123656187)" font-family="sans-serif" font-size="10px" fill="#000" opacity="1">2</text><text text-anchor="end" transform="translate(-7,519.24247312374)" font-family="sans-serif" font-size="10px" fill="#000" opacity="1">4</text><text text-anchor="end" transform="translate(-7,477.3637096856099)" font-family="sans-serif" font-size="10px" fill="#000" opacity="1">6</text><text text-anchor="end" transform="translate(-7,435.48494624747985)" font-family="sans-serif" font-size="10px" fill="#000" opacity="1">8</text><text text-anchor="end" transform="translate(-7,393.60618280934983)" font-family="sans-serif" font-size="10px" fill="#000" opacity="1">10</text><text text-anchor="end" transform="translate(-7,351.72741937121975)" font-family="sans-serif" font-size="10px" fill="#000" opacity="1">12</text><text text-anchor="end" transform="translate(-7,309.8486559330898)" font-family="sans-serif" font-size="10px" fill="#000" opacity="1">14</text><text text-anchor="end" transform="translate(-7,267.9698924949597)" font-family="sans-serif" font-size="10px" fill="#000" opacity="1">16</text><text text-anchor="end" transform="translate(-7,226.09112905682971)" font-family="sans-serif" font-size="10px" fill="#000" opacity="1">18</text><text text-anchor="end" transform="translate(-7,184.2123656186997)" font-family="sans-serif" font-size="10px" fill="#000" opacity="1">20</text><text text-anchor="end" transform="translate(-7,142.33360218056967)" font-family="sans-serif" font-size="10px" fill="#000" opacity="1">22</text><text text-anchor="end" transform="translate(-7,100.45483874243959)" font-family="sans-serif" font-size="10px" fill="#000" opacity="1">24</text><text text-anchor="end" transform="translate(-7,58.57607530430957)" font-family="sans-serif" font-size="10px" fill="#000" opacity="1">26</text><text text-anchor="end" transform="translate(-7,16.69731186617955)" font-family="sans-serif" font-size="10px" fill="#000" opacity="1">28</text></g><g class="mark-rule role-axis-domain" pointer-events="none"><line transform="translate(0,600)" x2="0" y2="-600" stroke="#888" stroke-width="1" opacity="1"/></g><g class="mark-text role-axis-title" pointer-events="none"><text text-anchor="middle" transform="translate(-22.123046875,300) rotate(-90) translate(0,-2)" font-family="sans-serif" font-size="11px" font-weight="bold" fill="#000" opacity="1">Execution Time (seconds, lower=better)</text></g></g><path class="foreground" aria-hidden="true" d="" pointer-events="none" display="none"/></g></g><g class="mark-group role-scope" role="graphics-object" aria-roledescription="group mark container"><g transform="translate(5,594.7672485084059)"><path class="background" aria-hidden="true" d="M2.616375745797029,0L87.38362425420297,0C88.82764133803005,0,90,1.1723586619699544,90,2.616375745797029L90,5.232751491594058C90,5.232751491594058,90,5.232751491594058,90,5.232751491594058L0,5.232751491594058C0,5.232751491594058,0,5.232751491594058,0,5.232751491594058L0,2.616375745797029C0,1.1723586619699544,1.1723586619699544,0,2.616375745797029,0Z"/><g clip-path="url(#clip1)"><g class="mark-group role-scope" role="graphics-object" aria-roledescription="group mark container"><g transform="translate(0,-594.7672485084059)"><path class="background" aria-hidden="true" d="M0,0h90v0h-90Z"/><g><g class="mark-rect role-mark layer_0_marks" role="graphics-object" aria-roledescription="rect mark container"><path aria-label="Parser: yaml_rs&#xA;0.1.6; Execution Time (seconds, lower=better): 0.2499; parser: yaml_rs; Execution Time (s): 0.2499; Slowdown: 1.00" role="graphics-symbol" aria-roledescription="bar" d="M0,594.7672485084059h90v5.232751491594058h-90Z" fill="#e6ab02"/></g></g><path class="foreground" aria-hidden="true" d="" display="none"/></g></g></g><path class="foreground" aria-hidden="true" d="" display="none"/></g><g transform="translate(105,594.7566894761835)"><path class="background" aria-hidden="true" d="M2.621655261908245,0L87.37834473809176,0C88.82527566618266,0,90,1.174724333817332,90,2.621655261908245L90,5.24331052381649C90,5.24331052381649,90,5.24331052381649,90,5.24331052381649L0,5.24331052381649C0,5.24331052381649,0,5.24331052381649,0,5.24331052381649L0,2.621655261908245C0,1.174724333817332,1.174724333817332,0,2.621655261908245,0Z"/><g clip-path="url(#clip2)"><g class="mark-group role-scope" role="graphics-object" aria-roledescription="group mark container"><g transform="translate(0,-594.7566894761835)"><path class="background" aria-hidden="true" d="M0,0h90v0h-90Z"/><g><g class="mark-rect role-mark layer_0_marks" role="graphics-object" aria-roledescription="rect mark container"><path aria-label="Parser: yaml_rs (parse_dt=False)&#xA;0.1.6; Execution Time (seconds, lower=better): 0.250404266667; parser: yaml_rs (parse_dt=False); Execution Time (s): 0.2504; Slowdown: 1.00" role="graphics-symbol" aria-roledescription="bar" d="M0,594.7566894761835h90v5.24331052381649h-90Z" fill="#a6761d"/></g></g><path class="foreground" aria-hidden="true" d="" display="none"/></g></g></g><path class="foreground" aria-hidden="true" d="" display="none"/></g><g transform="translate(205,594.1201511173681)"><path class="background" aria-hidden="true" d="M2.939924441315952,0L87.06007555868405,0C88.68266402872345,0,90,1.3173359712765493,90,2.939924441315952L90,5.879848882631904C90,5.879848882631904,90,5.879848882631904,90,5.879848882631904L0,5.879848882631904C0,5.879848882631904,0,5.879848882631904,0,5.879848882631904L0,2.939924441315952C0,1.3173359712765493,1.3173359712765493,0,2.939924441315952,0Z"/><g clip-path="url(#clip3)"><g class="mark-group role-scope" role="graphics-object" aria-roledescription="group mark container"><g transform="translate(0,-594.1201511173681)"><path class="background" aria-hidden="true" d="M0,0h90v0h-90Z"/><g><g class="mark-rect role-mark layer_0_marks" role="graphics-object" aria-roledescription="rect mark container"><path aria-label="Parser: yamlrocks&#xA;0.6.1; Execution Time (seconds, lower=better): 0.280803366667; parser: yamlrocks; Execution Time (s): 0.2808; Slowdown: 1.12" role="graphics-symbol" aria-roledescription="bar" d="M0,594.1201511173681h90v5.879848882631904h-90Z" fill="#666666"/></g></g><path class="foreground" aria-hidden="true" d="" display="none"/></g></g></g><path class="foreground" aria-hidden="true" d="" display="none"/></g><g transform="translate(305,585.1490987872631)"><path class="background" aria-hidden="true" d="M6,0L84,0C87.311490146964,0,90,2.688509853036,90,6L90,14.850901212736858C90,14.850901212736858,90,14.850901212736858,90,14.850901212736858L0,14.850901212736858C0,14.850901212736858,0,14.850901212736858,0,14.850901212736858L0,6C0,2.688509853036,2.688509853036,0,6,0Z"/><g clip-path="url(#clip4)"><g class="mark-group role-scope" role="graphics-object" aria-roledescription="group mark container"><g transform="translate(0,-585.1490987872631)"><path class="background" aria-hidden="true" d="M0,0h90v0h-90Z"/><g><g class="mark-rect role-mark layer_0_marks" role="graphics-object" aria-roledescription="rect mark container"><path aria-label="Parser: ryaml&#xA;0.5.1; Execution Time (seconds, lower=better): 0.709233033333; parser: ryaml; Execution Time (s): 0.7092; Slowdown: 2.84" role="graphics-symbol" aria-roledescription="bar" d="M0,585.1490987872631h90v14.850901212736858h-90Z" fill="#66a61e"/></g></g><path class="foreground" aria-hidden="true" d="" display="none"/></g></g></g><path class="foreground" aria-hidden="true" d="" display="none"/></g><g transform="translate(405,558.5486756507981)"><path class="background" aria-hidden="true" d="M6,0L84,0C87.311490146964,0,90,2.688509853036,90,6L90,41.451324349201855C90,41.451324349201855,90,41.451324349201855,90,41.451324349201855L0,41.451324349201855C0,41.451324349201855,0,41.451324349201855,0,41.451324349201855L0,6C0,2.688509853036,2.688509853036,0,6,0Z"/><g clip-path="url(#clip5)"><g class="mark-group role-scope" role="graphics-object" aria-roledescription="group mark container"><g transform="translate(0,-558.5486756507981)"><path class="background" aria-hidden="true" d="M0,0h90v0h-90Z"/><g><g class="mark-rect role-mark layer_0_marks" role="graphics-object" aria-roledescription="rect mark container"><path aria-label="Parser: PyYAML (CLoader)&#xA;6.0.3; Execution Time (seconds, lower=better): 1.97958683333; parser: PyYAML (CLoader); Execution Time (s): 1.9796; Slowdown: 7.92" role="graphics-symbol" aria-roledescription="bar" d="M0,558.5486756507981h90v41.451324349201855h-90Z" fill="#d95f02"/></g></g><path class="foreground" aria-hidden="true" d="" display="none"/></g></g></g><path class="foreground" aria-hidden="true" d="" display="none"/></g><g transform="translate(505,188.2287301552271)"><path class="background" aria-hidden="true" d="M6,0L84,0C87.311490146964,0,90,2.688509853036,90,6L90,411.77126984477286C90,411.77126984477286,90,411.77126984477286,90,411.77126984477286L0,411.77126984477286C0,411.77126984477286,0,411.77126984477286,0,411.77126984477286L0,6C0,2.688509853036,2.688509853036,0,6,0Z"/><g clip-path="url(#clip6)"><g class="mark-group role-scope" role="graphics-object" aria-roledescription="group mark container"><g transform="translate(0,-188.2287301552271)"><path class="background" aria-hidden="true" d="M0,0h90v0h-90Z"/><g><g class="mark-rect role-mark layer_0_marks" role="graphics-object" aria-roledescription="rect mark container"><path aria-label="Parser: oyaml&#xA;1.0; Execution Time (seconds, lower=better): 19.6649201667; parser: oyaml; Execution Time (s): 19.6649; Slowdown: 78.69" role="graphics-symbol" aria-roledescription="bar" d="M0,188.2287301552271h90v411.77126984477286h-90Z" fill="#7570b3"/></g></g><path class="foreground" aria-hidden="true" d="" display="none"/></g></g></g><path class="foreground" aria-hidden="true" d="" display="none"/></g><g transform="translate(605,186.57425935108787)"><path class="background" aria-hidden="true" d="M6,0L84,0C87.311490146964,0,90,2.688509853036,90,6L90,413.4257406489121C90,413.4257406489121,90,413.4257406489121,90,413.4257406489121L0,413.4257406489121C0,413.4257406489121,0,413.4257406489121,0,413.4257406489121L0,6C0,2.688509853036,2.688509853036,0,6,0Z"/><g clip-path="url(#clip7)"><g class="mark-group role-scope" role="graphics-object" aria-roledescription="group mark container"><g transform="translate(0,-186.57425935108787)"><path class="background" aria-hidden="true" d="M0,0h90v0h-90Z"/><g><g class="mark-rect role-mark layer_0_marks" role="graphics-object" aria-roledescription="rect mark container"><path aria-label="Parser: PyYAML&#xA;6.0.3; Execution Time (seconds, lower=better): 19.7439325667; parser: PyYAML; Execution Time (s): 19.7439; Slowdown: 79.01" role="graphics-symbol" aria-roledescription="bar" d="M0,186.57425935108787h90v413.4257406489121h-90Z" fill="#1b9e77"/></g></g><path class="foreground" aria-hidden="true" d="" display="none"/></g></g></g><path class="foreground" aria-hidden="true" d="" display="none"/></g><g transform="translate(705,28.571428571428605)"><path class="background" aria-hidden="true" d="M6,0L84,0C87.311490146964,0,90,2.688509853036,90,6L90,571.4285714285714C90,571.4285714285714,90,571.4285714285714,90,571.4285714285714L0,571.4285714285714C0,571.4285714285714,0,571.4285714285714,0,571.4285714285714L0,6C0,2.688509853036,2.688509853036,0,6,0Z"/><g clip-path="url(#clip8)"><g class="mark-group role-scope" role="graphics-object" aria-roledescription="group mark container"><g transform="translate(0,-28.571428571428605)"><path class="background" aria-hidden="true" d="M0,0h90v0h-90Z"/><g><g class="mark-rect role-mark layer_0_marks" role="graphics-object" aria-roledescription="rect mark container"><path aria-label="Parser: ruamel.yaml&#xA;0.19.1; Execution Time (seconds, lower=better): 27.2896582667; parser: ruamel.yaml; Execution Time (s): 27.2897; Slowdown: 109.20" role="graphics-symbol" aria-roledescription="bar" d="M0,28.571428571428605h90v571.4285714285714h-90Z" fill="#e7298a"/></g></g><path class="foreground" aria-hidden="true" d="" display="none"/></g></g></g><path class="foreground" aria-hidden="true" d="" display="none"/></g></g><g class="mark-text role-mark layer_1_marks" role="graphics-object" aria-roledescription="text mark container"><text aria-label="Parser: yaml_rs&#xA;0.1.6; Execution Time (seconds, lower=better): 0.2499; parser: yaml_rs; label: 0.2499s (x1.00); Execution Time (s): 0.2499; Slowdown: 1.00" role="graphics-symbol" aria-roledescription="text mark" text-anchor="middle" transform="translate(50,590.7672485084059)" font-family="sans-serif" font-size="9px" font-weight="bold" fill="#e6ab02">0.2499s (x1.00)</text><text aria-label="Parser: yaml_rs (parse_dt=False)&#xA;0.1.6; Execution Time (seconds, lower=better): 0.250404266667; parser: yaml_rs (parse_dt=False); label: 0.2504s (x1.00); Execution Time (s): 0.2504; Slowdown: 1.00" role="graphics-symbol" aria-roledescription="text mark" text-anchor="middle" transform="translate(150,590.7566894761835)" font-family="sans-serif" font-size="9px" font-weight="bold" fill="#a6761d">0.2504s (x1.00)</text><text aria-label="Parser: yamlrocks&#xA;0.6.1; Execution Time (seconds, lower=better): 0.280803366667; parser: yamlrocks; label: 0.2808s (x1.12); Execution Time (s): 0.2808; Slowdown: 1.12" role="graphics-symbol" aria-roledescription="text mark" text-anchor="middle" transform="translate(250,590.1201511173681)" font-family="sans-serif" font-size="9px" font-weight="bold" fill="#666666">0.2808s (x1.12)</text><text aria-label="Parser: ryaml&#xA;0.5.1; Execution Time (seconds, lower=better): 0.709233033333; parser: ryaml; label: 0.7092s (x2.84); Execution Time (s): 0.7092; Slowdown: 2.84" role="graphics-symbol" aria-roledescription="text mark" text-anchor="middle" transform="translate(350,581.1490987872631)" font-family="sans-serif" font-size="9px" font-weight="bold" fill="#66a61e">0.7092s (x2.84)</text><text aria-label="Parser: PyYAML (CLoader)&#xA;6.0.3; Execution Time (seconds, lower=better): 1.97958683333; parser: PyYAML (CLoader); label: 1.9796s (x7.92); Execution Time (s): 1.9796; Slowdown: 7.92" role="graphics-symbol" aria-roledescription="text mark" text-anchor="middle" transform="translate(450,554.5486756507981)" font-family="sans-serif" font-size="9px" font-weight="bold" fill="#d95f02">1.9796s (x7.92)</text><text aria-label="Parser: oyaml&#xA;1.0; Execution Time (seconds, lower=better): 19.6649201667; parser: oyaml; label: 19.6649s (x78.69); Execution Time (s): 19.6649; Slowdown: 78.69" role="graphics-symbol" aria-roledescription="text mark" text-anchor="middle" transform="translate(550,184.2287301552271)" font-family="sans-serif" font-size="9px" font-weight="bold" fill="#7570b3">19.6649s (x78.69)</text><text aria-label="Parser: PyYAML&#xA;6.0.3; Execution Time (seconds, lower=better): 19.7439325667; parser: PyYAML; label: 19.7439s (x79.01); Execution Time (s): 19.7439; Slowdown: 79.01" role="graphics-symbol" aria-roledescription="text mark" text-anchor="middle" transform="translate(650,182.57425935108787)" font-family="sans-serif" font-size="9px" font-weight="bold" fill="#1b9e77">19.7439s (x79.01)</text><text aria-label="Parser: ruamel.yaml&#xA;0.19.1; Execution Time (seconds, lower=better): 27.2896582667; parser: ruamel.yaml; label: 27.2897s (x109.20); Execution Time (s): 27.2897; Slowdown: 109.20" role="graphics-symbol" aria-roledescription="text mark" text-anchor="middle" transform="translate(750,24.571428571428605)" font-family="sans-serif" font-size="9px" font-weight="bold" fill="#e7298a">27.2897s (x109.20)</text></g><g class="mark-group role-title"><g transform="translate(400,-31)"><path class="background" aria-hidden="true" d="M0,0h0v0h0Z" pointer-events="none"/><g><g class="mark-text role-title-text" role="graphics-symbol" aria-roledescription="title" aria-label="Title text 'YAML parsers benchmark (loads)'" pointer-events="none"><text text-anchor="middle" transform="translate(0,10)" font-family="sans-serif" font-size="13px" font-weight="bold" fill="#000" opacity="1">YAML parsers benchmark (loads)</text></g><g class="mark-text role-title-subtitle" role="graphics-symbol" aria-roledescription="subtitle" aria-label="Subtitle text 'Python: 3.14.6 (Windows 2025Server) | CPU: AMD EPYC 9V74 80-Core Processor'" pointer-events="none"><text text-anchor="middle" transform="translate(0,25)" font-family="sans-serif" font-size="12px" fill="#000" opacity="1">Python: 3.14.6 (Windows 2025Server) | CPU: AMD EPYC 9V74 80-Core Processor</text></g></g><path class="foreground" aria-hidden="true" d="" pointer-events="none" display="none"/></g></g></g><path class="foreground" aria-hidden="true" d="" display="none"/></g></g></g><defs><clipPath id="clip1"><path d="M2.616375745797029,0L87.38362425420297,0C88.82764133803005,0,90,1.1723586619699544,90,2.616375745797029L90,5.232751491594058C90,5.232751491594058,90,5.232751491594058,90,5.232751491594058L0,5.232751491594058C0,5.232751491594058,0,5.232751491594058,0,5.232751491594058L0,2.616375745797029C0,1.1723586619699544,1.1723586619699544,0,2.616375745797029,0Z"/></clipPath><clipPath id="clip2"><path d="M2.621655261908245,0L87.37834473809176,0C88.82527566618266,0,90,1.174724333817332,90,2.621655261908245L90,5.24331052381649C90,5.24331052381649,90,5.24331052381649,90,5.24331052381649L0,5.24331052381649C0,5.24331052381649,0,5.24331052381649,0,5.24331052381649L0,2.621655261908245C0,1.174724333817332,1.174724333817332,0,2.621655261908245,0Z"/></clipPath><clipPath id="clip3"><path d="M2.939924441315952,0L87.06007555868405,0C88.68266402872345,0,90,1.3173359712765493,90,2.939924441315952L90,5.879848882631904C90,5.879848882631904,90,5.879848882631904,90,5.879848882631904L0,5.879848882631904C0,5.879848882631904,0,5.879848882631904,0,5.879848882631904L0,2.939924441315952C0,1.3173359712765493,1.3173359712765493,0,2.939924441315952,0Z"/></clipPath><clipPath id="clip4"><path d="M6,0L84,0C87.311490146964,0,90,2.688509853036,90,6L90,14.850901212736858C90,14.850901212736858,90,14.850901212736858,90,14.850901212736858L0,14.850901212736858C0,14.850901212736858,0,14.850901212736858,0,14.850901212736858L0,6C0,2.688509853036,2.688509853036,0,6,0Z"/></clipPath><clipPath id="clip5"><path d="M6,0L84,0C87.311490146964,0,90,2.688509853036,90,6L90,41.451324349201855C90,41.451324349201855,90,41.451324349201855,90,41.451324349201855L0,41.451324349201855C0,41.451324349201855,0,41.451324349201855,0,41.451324349201855L0,6C0,2.688509853036,2.688509853036,0,6,0Z"/></clipPath><clipPath id="clip6"><path d="M6,0L84,0C87.311490146964,0,90,2.688509853036,90,6L90,411.77126984477286C90,411.77126984477286,90,411.77126984477286,90,411.77126984477286L0,411.77126984477286C0,411.77126984477286,0,411.77126984477286,0,411.77126984477286L0,6C0,2.688509853036,2.688509853036,0,6,0Z"/></clipPath><clipPath id="clip7"><path d="M6,0L84,0C87.311490146964,0,90,2.688509853036,90,6L90,413.4257406489121C90,413.4257406489121,90,413.4257406489121,90,413.4257406489121L0,413.4257406489121C0,413.4257406489121,0,413.4257406489121,0,413.4257406489121L0,6C0,2.688509853036,2.688509853036,0,6,0Z"/></clipPath><clipPath id="clip8"><path d="M6,0L84,0C87.311490146964,0,90,2.688509853036,90,6L90,571.4285714285714C90,571.4285714285714,90,571.4285714285714,90,571.4285714285714L0,571.4285714285714C0,571.4285714285714,0,571.4285714285714,0,571.4285714285714L0,6C0,2.688509853036,2.688509853036,0,6,0Z"/></clipPath></defs></svg>