<svg xmlns="http://www.w3.org/2000/svg" xmlns:xlink="http://www.w3.org/1999/xlink" version="1.1" class="marks" width="844" height="687" viewBox="0 0 844 687"><rect width="844" height="687" fill="white"/><g fill="none" stroke-miterlimit="10" transform="translate(39,36)"><g class="mark-group role-frame root" role="graphics-object" aria-roledescription="group mark container"><g transform="translate(0,0)"><path class="background" aria-hidden="true" d="M0.5,0.5h800v600h-800Z" stroke="#ddd"/><g><g class="mark-group role-axis" role="graphics-symbol" aria-roledescription="axis" aria-label="X-axis titled 'Parser' for a discrete scale with 8 values: yaml_rs (parse_dt=False)&#xA;0.1.4, yaml_rs&#xA;0.1.4, yamlrocks&#xA;0.5.0, ryaml&#xA;0.5.1, PyYAML (CLoader)&#xA;6.0.3, ending with ruamel.yaml&#xA;0.19.1"><g transform="translate(0.5,600.5)"><path class="background" aria-hidden="true" d="M0,0h0v0h0Z" pointer-events="none"/><g><g class="mark-rule role-axis-tick" pointer-events="none"><line transform="translate(50,0)" x2="0" y2="5" stroke="#888" stroke-width="1" opacity="1"/><line transform="translate(150,0)" x2="0" y2="5" stroke="#888" stroke-width="1" opacity="1"/><line transform="translate(250,0)" x2="0" y2="5" stroke="#888" stroke-width="1" opacity="1"/><line transform="translate(350,0)" x2="0" y2="5" stroke="#888" stroke-width="1" opacity="1"/><line transform="translate(450,0)" x2="0" y2="5" stroke="#888" stroke-width="1" opacity="1"/><line transform="translate(550,0)" x2="0" y2="5" stroke="#888" stroke-width="1" opacity="1"/><line transform="translate(650,0)" x2="0" y2="5" stroke="#888" stroke-width="1" opacity="1"/><line transform="translate(750,0)" x2="0" y2="5" stroke="#888" stroke-width="1" opacity="1"/></g><g class="mark-text role-axis-label" pointer-events="none"><text text-anchor="middle" transform="translate(49.5,15)" font-family="sans-serif" font-size="10px" fill="#000" opacity="1"><tspan>yaml_rs (parse_dt=False)</tspan><tspan x="0" dy="14">0.1.4</tspan></text><text text-anchor="middle" transform="translate(149.5,15)" font-family="sans-serif" font-size="10px" fill="#000" opacity="1"><tspan>yaml_rs</tspan><tspan x="0" dy="14">0.1.4</tspan></text><text text-anchor="middle" transform="translate(249.5,15)" font-family="sans-serif" font-size="10px" fill="#000" opacity="1"><tspan>yamlrocks</tspan><tspan x="0" dy="14">0.5.0</tspan></text><text text-anchor="middle" transform="translate(349.5,15)" font-family="sans-serif" font-size="10px" fill="#000" opacity="1"><tspan>ryaml</tspan><tspan x="0" dy="14">0.5.1</tspan></text><text text-anchor="middle" transform="translate(449.5,15)" font-family="sans-serif" font-size="10px" fill="#000" opacity="1"><tspan>PyYAML (CLoader)</tspan><tspan x="0" dy="14">6.0.3</tspan></text><text text-anchor="middle" transform="translate(549.5,15)" font-family="sans-serif" font-size="10px" fill="#000" opacity="1"><tspan>oyaml</tspan><tspan x="0" dy="14">1.0</tspan></text><text text-anchor="middle" transform="translate(649.5,15)" font-family="sans-serif" font-size="10px" fill="#000" opacity="1"><tspan>PyYAML</tspan><tspan x="0" dy="14">6.0.3</tspan></text><text text-anchor="middle" transform="translate(749.5,15)" font-family="sans-serif" font-size="10px" fill="#000" opacity="1"><tspan>ruamel.yaml</tspan><tspan x="0" dy="14">0.19.1</tspan></text></g><g class="mark-rule role-axis-domain" pointer-events="none"><line transform="translate(0,0)" x2="800" y2="0" stroke="#888" stroke-width="1" opacity="1"/></g><g class="mark-text role-axis-title" pointer-events="none"><text text-anchor="middle" transform="translate(400,44)" font-family="sans-serif" font-size="11px" font-weight="bold" fill="#000" opacity="1">Parser</text></g></g><path class="foreground" aria-hidden="true" d="" pointer-events="none" display="none"/></g></g><g class="mark-group role-axis" role="graphics-symbol" aria-roledescription="axis" aria-label="Y-axis titled 'Execution Time (seconds, lower=better)' for a linear scale with values from 0 to 43"><g transform="translate(0.5,0.5)"><path class="background" aria-hidden="true" d="M0,0h0v0h0Z" pointer-events="none"/><g><g class="mark-rule role-axis-tick" pointer-events="none"><line transform="translate(0,600)" x2="-5" y2="0" stroke="#888" stroke-width="1" opacity="1"/><line transform="translate(0,572)" x2="-5" y2="0" stroke="#888" stroke-width="1" opacity="1"/><line transform="translate(0,544)" x2="-5" y2="0" stroke="#888" stroke-width="1" opacity="1"/><line transform="translate(0,515)" x2="-5" y2="0" stroke="#888" stroke-width="1" opacity="1"/><line transform="translate(0,487)" x2="-5" y2="0" stroke="#888" stroke-width="1" opacity="1"/><line transform="translate(0,459)" x2="-5" y2="0" stroke="#888" stroke-width="1" opacity="1"/><line transform="translate(0,431)" x2="-5" y2="0" stroke="#888" stroke-width="1" opacity="1"/><line transform="translate(0,403)" x2="-5" y2="0" stroke="#888" stroke-width="1" opacity="1"/><line transform="translate(0,375)" x2="-5" y2="0" stroke="#888" stroke-width="1" opacity="1"/><line transform="translate(0,346)" x2="-5" y2="0" stroke="#888" stroke-width="1" opacity="1"/><line transform="translate(0,318)" x2="-5" y2="0" stroke="#888" stroke-width="1" opacity="1"/><line transform="translate(0,290)" x2="-5" y2="0" stroke="#888" stroke-width="1" opacity="1"/><line transform="translate(0,262)" x2="-5" y2="0" stroke="#888" stroke-width="1" opacity="1"/><line transform="translate(0,234)" x2="-5" y2="0" stroke="#888" stroke-width="1" opacity="1"/><line transform="translate(0,206)" x2="-5" y2="0" stroke="#888" stroke-width="1" opacity="1"/><line transform="translate(0,177)" x2="-5" y2="0" stroke="#888" stroke-width="1" opacity="1"/><line transform="translate(0,149)" x2="-5" y2="0" stroke="#888" stroke-width="1" opacity="1"/><line transform="translate(0,121)" x2="-5" y2="0" stroke="#888" stroke-width="1" opacity="1"/><line transform="translate(0,93)" x2="-5" y2="0" stroke="#888" stroke-width="1" opacity="1"/><line transform="translate(0,65)" x2="-5" y2="0" stroke="#888" stroke-width="1" opacity="1"/><line transform="translate(0,37)" x2="-5" y2="0" stroke="#888" stroke-width="1" opacity="1"/><line transform="translate(0,8)" x2="-5" y2="0" stroke="#888" stroke-width="1" opacity="1"/></g><g class="mark-text role-axis-label" pointer-events="none"><text text-anchor="end" transform="translate(-7,603)" font-family="sans-serif" font-size="10px" fill="#000" opacity="1">0</text><text text-anchor="end" transform="translate(-7,574.8274607537738)" font-family="sans-serif" font-size="10px" fill="#000" opacity="1">2</text><text text-anchor="end" transform="translate(-7,546.6549215075477)" font-family="sans-serif" font-size="10px" fill="#000" opacity="1">4</text><text text-anchor="end" transform="translate(-7,518.4823822613214)" font-family="sans-serif" font-size="10px" fill="#000" opacity="1">6</text><text text-anchor="end" transform="translate(-7,490.3098430150952)" font-family="sans-serif" font-size="10px" fill="#000" opacity="1">8</text><text text-anchor="end" transform="translate(-7,462.13730376886906)" font-family="sans-serif" font-size="10px" fill="#000" opacity="1">10</text><text text-anchor="end" transform="translate(-7,433.9647645226428)" font-family="sans-serif" font-size="10px" fill="#000" opacity="1">12</text><text text-anchor="end" transform="translate(-7,405.7922252764166)" font-family="sans-serif" font-size="10px" fill="#000" opacity="1">14</text><text text-anchor="end" transform="translate(-7,377.61968603019045)" font-family="sans-serif" font-size="10px" fill="#000" opacity="1">16</text><text text-anchor="end" transform="translate(-7,349.4471467839642)" font-family="sans-serif" font-size="10px" fill="#000" opacity="1">18</text><text text-anchor="end" transform="translate(-7,321.27460753773806)" font-family="sans-serif" font-size="10px" fill="#000" opacity="1">20</text><text text-anchor="end" transform="translate(-7,293.10206829151184)" font-family="sans-serif" font-size="10px" fill="#000" opacity="1">22</text><text text-anchor="end" transform="translate(-7,264.9295290452856)" font-family="sans-serif" font-size="10px" fill="#000" opacity="1">24</text><text text-anchor="end" transform="translate(-7,236.7569897990594)" font-family="sans-serif" font-size="10px" fill="#000" opacity="1">26</text><text text-anchor="end" transform="translate(-7,208.5844505528332)" font-family="sans-serif" font-size="10px" fill="#000" opacity="1">28</text><text text-anchor="end" transform="translate(-7,180.41191130660704)" font-family="sans-serif" font-size="10px" fill="#000" opacity="1">30</text><text text-anchor="end" transform="translate(-7,152.23937206038084)" font-family="sans-serif" font-size="10px" fill="#000" opacity="1">32</text><text text-anchor="end" transform="translate(-7,124.0668328141546)" font-family="sans-serif" font-size="10px" fill="#000" opacity="1">34</text><text text-anchor="end" transform="translate(-7,95.89429356792841)" font-family="sans-serif" font-size="10px" fill="#000" opacity="1">36</text><text text-anchor="end" transform="translate(-7,67.72175432170224)" font-family="sans-serif" font-size="10px" fill="#000" opacity="1">38</text><text text-anchor="end" transform="translate(-7,39.54921507547606)" font-family="sans-serif" font-size="10px" fill="#000" opacity="1">40</text><text text-anchor="end" transform="translate(-7,11.376675829249812)" font-family="sans-serif" font-size="10px" fill="#000" opacity="1">42</text></g><g class="mark-rule role-axis-domain" pointer-events="none"><line transform="translate(0,600)" x2="0" y2="-600" stroke="#888" stroke-width="1" opacity="1"/></g><g class="mark-text role-axis-title" pointer-events="none"><text text-anchor="middle" transform="translate(-22.123046875,300) rotate(-90) translate(0,-2)" font-family="sans-serif" font-size="11px" font-weight="bold" fill="#000" opacity="1">Execution Time (seconds, lower=better)</text></g></g><path class="foreground" aria-hidden="true" d="" pointer-events="none" display="none"/></g></g><g class="mark-group role-scope" role="graphics-object" aria-roledescription="group mark container"><g transform="translate(5,595.6359389121124)"><path class="background" aria-hidden="true" d="M2.1820305439438243,0L87.81796945605618,0C89.02226489716358,0,90,0.9777351028364124,90,2.1820305439438243L90,4.364061087887649C90,4.364061087887649,90,4.364061087887649,90,4.364061087887649L0,4.364061087887649C0,4.364061087887649,0,4.364061087887649,0,4.364061087887649L0,2.1820305439438243C0,0.9777351028364124,0.9777351028364124,0,2.1820305439438243,0Z"/><g clip-path="url(#clip1)"><g class="mark-group role-scope" role="graphics-object" aria-roledescription="group mark container"><g transform="translate(0,-595.6359389121124)"><path class="background" aria-hidden="true" d="M0,0h90v0h-90Z"/><g><g class="mark-rect role-mark layer_0_marks" role="graphics-object" aria-roledescription="rect mark container"><path aria-label="Parser: yaml_rs (parse_dt=False)&#xA;0.1.4; Execution Time (seconds, lower=better): 0.309809566667; parser: yaml_rs (parse_dt=False); Execution Time (s): 0.3098; Slowdown: 1.00" role="graphics-symbol" aria-roledescription="bar" d="M0,595.6359389121124h90v4.364061087887649h-90Z" fill="#a6761d"/></g></g><path class="foreground" aria-hidden="true" d="" display="none"/></g></g></g><path class="foreground" aria-hidden="true" d="" display="none"/></g><g transform="translate(105,595.6121988523744)"><path class="background" aria-hidden="true" d="M2.1939005738128117,0L87.80609942618719,0C89.01694611512049,0,90,0.9830538848795131,90,2.1939005738128117L90,4.387801147625623C90,4.387801147625623,90,4.387801147625623,90,4.387801147625623L0,4.387801147625623C0,4.387801147625623,0,4.387801147625623,0,4.387801147625623L0,2.1939005738128117C0,0.9830538848795131,0.9830538848795131,0,2.1939005738128117,0Z"/><g clip-path="url(#clip2)"><g class="mark-group role-scope" role="graphics-object" aria-roledescription="group mark container"><g transform="translate(0,-595.6121988523744)"><path class="background" aria-hidden="true" d="M0,0h90v0h-90Z"/><g><g class="mark-rect role-mark layer_0_marks" role="graphics-object" aria-roledescription="rect mark container"><path aria-label="Parser: yaml_rs&#xA;0.1.4; Execution Time (seconds, lower=better): 0.3114949; parser: yaml_rs; Execution Time (s): 0.3115; Slowdown: 1.01" role="graphics-symbol" aria-roledescription="bar" d="M0,595.6121988523744h90v4.387801147625623h-90Z" fill="#e6ab02"/></g></g><path class="foreground" aria-hidden="true" d="" display="none"/></g></g></g><path class="foreground" aria-hidden="true" d="" display="none"/></g><g transform="translate(205,593.3586487959882)"><path class="background" aria-hidden="true" d="M3.320675602005906,0L86.6793243979941,0C88.51205515421181,0,90,1.4879448457881883,90,3.320675602005906L90,6.641351204011812C90,6.641351204011812,90,6.641351204011812,90,6.641351204011812L0,6.641351204011812C0,6.641351204011812,0,6.641351204011812,0,6.641351204011812L0,3.320675602005906C0,1.4879448457881883,1.4879448457881883,0,3.320675602005906,0Z"/><g clip-path="url(#clip3)"><g class="mark-group role-scope" role="graphics-object" aria-roledescription="group mark container"><g transform="translate(0,-593.3586487959882)"><path class="background" aria-hidden="true" d="M0,0h90v0h-90Z"/><g><g class="mark-rect role-mark layer_0_marks" role="graphics-object" aria-roledescription="rect mark container"><path aria-label="Parser: yamlrocks&#xA;0.5.0; Execution Time (seconds, lower=better): 0.471476933333; parser: yamlrocks; Execution Time (s): 0.4715; Slowdown: 1.52" role="graphics-symbol" aria-roledescription="bar" d="M0,593.3586487959882h90v6.641351204011812h-90Z" fill="#666666"/></g></g><path class="foreground" aria-hidden="true" d="" display="none"/></g></g></g><path class="foreground" aria-hidden="true" d="" display="none"/></g><g transform="translate(305,587.9614349580168)"><path class="background" aria-hidden="true" d="M6,0L84,0C87.311490146964,0,90,2.688509853036,90,6L90,12.038565041983247C90,12.038565041983247,90,12.038565041983247,90,12.038565041983247L0,12.038565041983247C0,12.038565041983247,0,12.038565041983247,0,12.038565041983247L0,6C0,2.688509853036,2.688509853036,0,6,0Z"/><g clip-path="url(#clip4)"><g class="mark-group role-scope" role="graphics-object" aria-roledescription="group mark container"><g transform="translate(0,-587.9614349580168)"><path class="background" aria-hidden="true" d="M0,0h90v0h-90Z"/><g><g class="mark-rect role-mark layer_0_marks" role="graphics-object" aria-roledescription="rect mark container"><path aria-label="Parser: ryaml&#xA;0.5.1; Execution Time (seconds, lower=better): 0.854631166667; parser: ryaml; Execution Time (s): 0.8546; Slowdown: 2.76" role="graphics-symbol" aria-roledescription="bar" d="M0,587.9614349580168h90v12.038565041983247h-90Z" fill="#66a61e"/></g></g><path class="foreground" aria-hidden="true" d="" display="none"/></g></g></g><path class="foreground" aria-hidden="true" d="" display="none"/></g><g transform="translate(405,562.5603392094323)"><path class="background" aria-hidden="true" d="M6,0L84,0C87.311490146964,0,90,2.688509853036,90,6L90,37.4396607905677C90,37.4396607905677,90,37.4396607905677,90,37.4396607905677L0,37.4396607905677C0,37.4396607905677,0,37.4396607905677,0,37.4396607905677L0,6C0,2.688509853036,2.688509853036,0,6,0Z"/><g clip-path="url(#clip5)"><g class="mark-group role-scope" role="graphics-object" aria-roledescription="group mark container"><g transform="translate(0,-562.5603392094323)"><path class="background" aria-hidden="true" d="M0,0h90v0h-90Z"/><g><g class="mark-rect role-mark layer_0_marks" role="graphics-object" aria-roledescription="rect mark container"><path aria-label="Parser: PyYAML (CLoader)&#xA;6.0.3; Execution Time (seconds, lower=better): 2.6578833; parser: PyYAML (CLoader); Execution Time (s): 2.6579; Slowdown: 8.58" role="graphics-symbol" aria-roledescription="bar" d="M0,562.5603392094323h90v37.4396607905677h-90Z" fill="#d95f02"/></g></g><path class="foreground" aria-hidden="true" d="" display="none"/></g></g></g><path class="foreground" aria-hidden="true" d="" display="none"/></g><g transform="translate(505,203.88665642181653)"><path class="background" aria-hidden="true" d="M6,0L84,0C87.311490146964,0,90,2.688509853036,90,6L90,396.1133435781835C90,396.1133435781835,90,396.1133435781835,90,396.1133435781835L0,396.1133435781835C0,396.1133435781835,0,396.1133435781835,0,396.1133435781835L0,6C0,2.688509853036,2.688509853036,0,6,0Z"/><g clip-path="url(#clip6)"><g class="mark-group role-scope" role="graphics-object" aria-roledescription="group mark container"><g transform="translate(0,-203.88665642181653)"><path class="background" aria-hidden="true" d="M0,0h90v0h-90Z"/><g><g class="mark-rect role-mark layer_0_marks" role="graphics-object" aria-roledescription="rect mark container"><path aria-label="Parser: oyaml&#xA;1.0; Execution Time (seconds, lower=better): 28.1205283; parser: oyaml; Execution Time (s): 28.1205; Slowdown: 90.77" role="graphics-symbol" aria-roledescription="bar" d="M0,203.88665642181653h90v396.1133435781835h-90Z" fill="#7570b3"/></g></g><path class="foreground" aria-hidden="true" d="" display="none"/></g></g></g><path class="foreground" aria-hidden="true" d="" display="none"/></g><g transform="translate(605,203.7618976185609)"><path class="background" aria-hidden="true" d="M6,0L84,0C87.311490146964,0,90,2.688509853036,90,6L90,396.2381023814391C90,396.2381023814391,90,396.2381023814391,90,396.2381023814391L0,396.2381023814391C0,396.2381023814391,0,396.2381023814391,0,396.2381023814391L0,6C0,2.688509853036,2.688509853036,0,6,0Z"/><g clip-path="url(#clip7)"><g class="mark-group role-scope" role="graphics-object" aria-roledescription="group mark container"><g transform="translate(0,-203.7618976185609)"><path class="background" aria-hidden="true" d="M0,0h90v0h-90Z"/><g><g class="mark-rect role-mark layer_0_marks" role="graphics-object" aria-roledescription="rect mark container"><path aria-label="Parser: PyYAML&#xA;6.0.3; Execution Time (seconds, lower=better): 28.1293850667; parser: PyYAML; Execution Time (s): 28.1294; Slowdown: 90.80" role="graphics-symbol" aria-roledescription="bar" d="M0,203.7618976185609h90v396.2381023814391h-90Z" fill="#1b9e77"/></g></g><path class="foreground" aria-hidden="true" d="" display="none"/></g></g></g><path class="foreground" aria-hidden="true" d="" display="none"/></g><g transform="translate(705,28.571428571428605)"><path class="background" aria-hidden="true" d="M6,0L84,0C87.311490146964,0,90,2.688509853036,90,6L90,571.4285714285714C90,571.4285714285714,90,571.4285714285714,90,571.4285714285714L0,571.4285714285714C0,571.4285714285714,0,571.4285714285714,0,571.4285714285714L0,6C0,2.688509853036,2.688509853036,0,6,0Z"/><g clip-path="url(#clip8)"><g class="mark-group role-scope" role="graphics-object" aria-roledescription="group mark container"><g transform="translate(0,-28.571428571428605)"><path class="background" aria-hidden="true" d="M0,0h90v0h-90Z"/><g><g class="mark-rect role-mark layer_0_marks" role="graphics-object" aria-roledescription="rect mark container"><path aria-label="Parser: ruamel.yaml&#xA;0.19.1; Execution Time (seconds, lower=better): 40.5663519667; parser: ruamel.yaml; Execution Time (s): 40.5664; Slowdown: 130.94" role="graphics-symbol" aria-roledescription="bar" d="M0,28.571428571428605h90v571.4285714285714h-90Z" fill="#e7298a"/></g></g><path class="foreground" aria-hidden="true" d="" display="none"/></g></g></g><path class="foreground" aria-hidden="true" d="" display="none"/></g></g><g class="mark-text role-mark layer_1_marks" role="graphics-object" aria-roledescription="text mark container"><text aria-label="Parser: yaml_rs (parse_dt=False)&#xA;0.1.4; Execution Time (seconds, lower=better): 0.309809566667; parser: yaml_rs (parse_dt=False); label: 0.3098s (x1.00); Execution Time (s): 0.3098; Slowdown: 1.00" role="graphics-symbol" aria-roledescription="text mark" text-anchor="middle" transform="translate(50,591.6359389121124)" font-family="sans-serif" font-size="9px" font-weight="bold" fill="#a6761d">0.3098s (x1.00)</text><text aria-label="Parser: yaml_rs&#xA;0.1.4; Execution Time (seconds, lower=better): 0.3114949; parser: yaml_rs; label: 0.3115s (x1.01); Execution Time (s): 0.3115; Slowdown: 1.01" role="graphics-symbol" aria-roledescription="text mark" text-anchor="middle" transform="translate(150,591.6121988523744)" font-family="sans-serif" font-size="9px" font-weight="bold" fill="#e6ab02">0.3115s (x1.01)</text><text aria-label="Parser: yamlrocks&#xA;0.5.0; Execution Time (seconds, lower=better): 0.471476933333; parser: yamlrocks; label: 0.4715s (x1.52); Execution Time (s): 0.4715; Slowdown: 1.52" role="graphics-symbol" aria-roledescription="text mark" text-anchor="middle" transform="translate(250,589.3586487959882)" font-family="sans-serif" font-size="9px" font-weight="bold" fill="#666666">0.4715s (x1.52)</text><text aria-label="Parser: ryaml&#xA;0.5.1; Execution Time (seconds, lower=better): 0.854631166667; parser: ryaml; label: 0.8546s (x2.76); Execution Time (s): 0.8546; Slowdown: 2.76" role="graphics-symbol" aria-roledescription="text mark" text-anchor="middle" transform="translate(350,583.9614349580168)" font-family="sans-serif" font-size="9px" font-weight="bold" fill="#66a61e">0.8546s (x2.76)</text><text aria-label="Parser: PyYAML (CLoader)&#xA;6.0.3; Execution Time (seconds, lower=better): 2.6578833; parser: PyYAML (CLoader); label: 2.6579s (x8.58); Execution Time (s): 2.6579; Slowdown: 8.58" role="graphics-symbol" aria-roledescription="text mark" text-anchor="middle" transform="translate(450,558.5603392094323)" font-family="sans-serif" font-size="9px" font-weight="bold" fill="#d95f02">2.6579s (x8.58)</text><text aria-label="Parser: oyaml&#xA;1.0; Execution Time (seconds, lower=better): 28.1205283; parser: oyaml; label: 28.1205s (x90.77); Execution Time (s): 28.1205; Slowdown: 90.77" role="graphics-symbol" aria-roledescription="text mark" text-anchor="middle" transform="translate(550,199.88665642181653)" font-family="sans-serif" font-size="9px" font-weight="bold" fill="#7570b3">28.1205s (x90.77)</text><text aria-label="Parser: PyYAML&#xA;6.0.3; Execution Time (seconds, lower=better): 28.1293850667; parser: PyYAML; label: 28.1294s (x90.80); Execution Time (s): 28.1294; Slowdown: 90.80" role="graphics-symbol" aria-roledescription="text mark" text-anchor="middle" transform="translate(650,199.7618976185609)" font-family="sans-serif" font-size="9px" font-weight="bold" fill="#1b9e77">28.1294s (x90.80)</text><text aria-label="Parser: ruamel.yaml&#xA;0.19.1; Execution Time (seconds, lower=better): 40.5663519667; parser: ruamel.yaml; label: 40.5664s (x130.94); Execution Time (s): 40.5664; Slowdown: 130.94" role="graphics-symbol" aria-roledescription="text mark" text-anchor="middle" transform="translate(750,24.571428571428605)" font-family="sans-serif" font-size="9px" font-weight="bold" fill="#e7298a">40.5664s (x130.94)</text></g><g class="mark-group role-title"><g transform="translate(400,-31)"><path class="background" aria-hidden="true" d="M0,0h0v0h0Z" pointer-events="none"/><g><g class="mark-text role-title-text" role="graphics-symbol" aria-roledescription="title" aria-label="Title text 'YAML parsers benchmark (loads)'" pointer-events="none"><text text-anchor="middle" transform="translate(0,10)" font-family="sans-serif" font-size="13px" font-weight="bold" fill="#000" opacity="1">YAML parsers benchmark (loads)</text></g><g class="mark-text role-title-subtitle" role="graphics-symbol" aria-roledescription="subtitle" aria-label="Subtitle text 'Python: 3.14.6 (Windows 2025Server) | CPU: AMD EPYC 7763 64-Core Processor'" pointer-events="none"><text text-anchor="middle" transform="translate(0,25)" font-family="sans-serif" font-size="12px" fill="#000" opacity="1">Python: 3.14.6 (Windows 2025Server) | CPU: AMD EPYC 7763 64-Core Processor</text></g></g><path class="foreground" aria-hidden="true" d="" pointer-events="none" display="none"/></g></g></g><path class="foreground" aria-hidden="true" d="" display="none"/></g></g></g><defs><clipPath id="clip1"><path d="M2.1820305439438243,0L87.81796945605618,0C89.02226489716358,0,90,0.9777351028364124,90,2.1820305439438243L90,4.364061087887649C90,4.364061087887649,90,4.364061087887649,90,4.364061087887649L0,4.364061087887649C0,4.364061087887649,0,4.364061087887649,0,4.364061087887649L0,2.1820305439438243C0,0.9777351028364124,0.9777351028364124,0,2.1820305439438243,0Z"/></clipPath><clipPath id="clip2"><path d="M2.1939005738128117,0L87.80609942618719,0C89.01694611512049,0,90,0.9830538848795131,90,2.1939005738128117L90,4.387801147625623C90,4.387801147625623,90,4.387801147625623,90,4.387801147625623L0,4.387801147625623C0,4.387801147625623,0,4.387801147625623,0,4.387801147625623L0,2.1939005738128117C0,0.9830538848795131,0.9830538848795131,0,2.1939005738128117,0Z"/></clipPath><clipPath id="clip3"><path d="M3.320675602005906,0L86.6793243979941,0C88.51205515421181,0,90,1.4879448457881883,90,3.320675602005906L90,6.641351204011812C90,6.641351204011812,90,6.641351204011812,90,6.641351204011812L0,6.641351204011812C0,6.641351204011812,0,6.641351204011812,0,6.641351204011812L0,3.320675602005906C0,1.4879448457881883,1.4879448457881883,0,3.320675602005906,0Z"/></clipPath><clipPath id="clip4"><path d="M6,0L84,0C87.311490146964,0,90,2.688509853036,90,6L90,12.038565041983247C90,12.038565041983247,90,12.038565041983247,90,12.038565041983247L0,12.038565041983247C0,12.038565041983247,0,12.038565041983247,0,12.038565041983247L0,6C0,2.688509853036,2.688509853036,0,6,0Z"/></clipPath><clipPath id="clip5"><path d="M6,0L84,0C87.311490146964,0,90,2.688509853036,90,6L90,37.4396607905677C90,37.4396607905677,90,37.4396607905677,90,37.4396607905677L0,37.4396607905677C0,37.4396607905677,0,37.4396607905677,0,37.4396607905677L0,6C0,2.688509853036,2.688509853036,0,6,0Z"/></clipPath><clipPath id="clip6"><path d="M6,0L84,0C87.311490146964,0,90,2.688509853036,90,6L90,396.1133435781835C90,396.1133435781835,90,396.1133435781835,90,396.1133435781835L0,396.1133435781835C0,396.1133435781835,0,396.1133435781835,0,396.1133435781835L0,6C0,2.688509853036,2.688509853036,0,6,0Z"/></clipPath><clipPath id="clip7"><path d="M6,0L84,0C87.311490146964,0,90,2.688509853036,90,6L90,396.2381023814391C90,396.2381023814391,90,396.2381023814391,90,396.2381023814391L0,396.2381023814391C0,396.2381023814391,0,396.2381023814391,0,396.2381023814391L0,6C0,2.688509853036,2.688509853036,0,6,0Z"/></clipPath><clipPath id="clip8"><path d="M6,0L84,0C87.311490146964,0,90,2.688509853036,90,6L90,571.4285714285714C90,571.4285714285714,90,571.4285714285714,90,571.4285714285714L0,571.4285714285714C0,571.4285714285714,0,571.4285714285714,0,571.4285714285714L0,6C0,2.688509853036,2.688509853036,0,6,0Z"/></clipPath></defs></svg>