<svg xmlns="http://www.w3.org/2000/svg" xmlns:xlink="http://www.w3.org/1999/xlink" version="1.1" class="marks" width="844" height="687" viewBox="0 0 844 687"><rect width="844" height="687" fill="white"/><g fill="none" stroke-miterlimit="10" transform="translate(39,36)"><g class="mark-group role-frame root" role="graphics-object" aria-roledescription="group mark container"><g transform="translate(0,0)"><path class="background" aria-hidden="true" d="M0.5,0.5h800v600h-800Z" stroke="#ddd"/><g><g class="mark-group role-axis" role="graphics-symbol" aria-roledescription="axis" aria-label="X-axis titled 'Parser' for a discrete scale with 8 values: yamlrocks&#xA;0.6.1, yaml_rs (parse_dt=False)&#xA;0.1.6, yaml_rs&#xA;0.1.6, ryaml&#xA;0.5.1, PyYAML (CLoader)&#xA;6.0.3, ending with ruamel.yaml&#xA;0.19.1"><g transform="translate(0.5,600.5)"><path class="background" aria-hidden="true" d="M0,0h0v0h0Z" pointer-events="none"/><g><g class="mark-rule role-axis-tick" pointer-events="none"><line transform="translate(50,0)" x2="0" y2="5" stroke="#888" stroke-width="1" opacity="1"/><line transform="translate(150,0)" x2="0" y2="5" stroke="#888" stroke-width="1" opacity="1"/><line transform="translate(250,0)" x2="0" y2="5" stroke="#888" stroke-width="1" opacity="1"/><line transform="translate(350,0)" x2="0" y2="5" stroke="#888" stroke-width="1" opacity="1"/><line transform="translate(450,0)" x2="0" y2="5" stroke="#888" stroke-width="1" opacity="1"/><line transform="translate(550,0)" x2="0" y2="5" stroke="#888" stroke-width="1" opacity="1"/><line transform="translate(650,0)" x2="0" y2="5" stroke="#888" stroke-width="1" opacity="1"/><line transform="translate(750,0)" x2="0" y2="5" stroke="#888" stroke-width="1" opacity="1"/></g><g class="mark-text role-axis-label" pointer-events="none"><text text-anchor="middle" transform="translate(49.5,15)" font-family="sans-serif" font-size="10px" fill="#000" opacity="1"><tspan>yamlrocks</tspan><tspan x="0" dy="14">0.6.1</tspan></text><text text-anchor="middle" transform="translate(149.5,15)" font-family="sans-serif" font-size="10px" fill="#000" opacity="1"><tspan>yaml_rs (parse_dt=False)</tspan><tspan x="0" dy="14">0.1.6</tspan></text><text text-anchor="middle" transform="translate(249.5,15)" font-family="sans-serif" font-size="10px" fill="#000" opacity="1"><tspan>yaml_rs</tspan><tspan x="0" dy="14">0.1.6</tspan></text><text text-anchor="middle" transform="translate(349.5,15)" font-family="sans-serif" font-size="10px" fill="#000" opacity="1"><tspan>ryaml</tspan><tspan x="0" dy="14">0.5.1</tspan></text><text text-anchor="middle" transform="translate(449.5,15)" font-family="sans-serif" font-size="10px" fill="#000" opacity="1"><tspan>PyYAML (CLoader)</tspan><tspan x="0" dy="14">6.0.3</tspan></text><text text-anchor="middle" transform="translate(549.5,15)" font-family="sans-serif" font-size="10px" fill="#000" opacity="1"><tspan>oyaml</tspan><tspan x="0" dy="14">1.0</tspan></text><text text-anchor="middle" transform="translate(649.5,15)" font-family="sans-serif" font-size="10px" fill="#000" opacity="1"><tspan>PyYAML</tspan><tspan x="0" dy="14">6.0.3</tspan></text><text text-anchor="middle" transform="translate(749.5,15)" font-family="sans-serif" font-size="10px" fill="#000" opacity="1"><tspan>ruamel.yaml</tspan><tspan x="0" dy="14">0.19.1</tspan></text></g><g class="mark-rule role-axis-domain" pointer-events="none"><line transform="translate(0,0)" x2="800" y2="0" stroke="#888" stroke-width="1" opacity="1"/></g><g class="mark-text role-axis-title" pointer-events="none"><text text-anchor="middle" transform="translate(400,44)" font-family="sans-serif" font-size="11px" font-weight="bold" fill="#000" opacity="1">Parser</text></g></g><path class="foreground" aria-hidden="true" d="" pointer-events="none" display="none"/></g></g><g class="mark-group role-axis" role="graphics-symbol" aria-roledescription="axis" aria-label="Y-axis titled 'Execution Time (seconds, lower=better)' for a linear scale with values from 0 to 44"><g transform="translate(0.5,0.5)"><path class="background" aria-hidden="true" d="M0,0h0v0h0Z" pointer-events="none"/><g><g class="mark-rule role-axis-tick" pointer-events="none"><line transform="translate(0,600)" x2="-5" y2="0" stroke="#888" stroke-width="1" opacity="1"/><line transform="translate(0,573)" x2="-5" y2="0" stroke="#888" stroke-width="1" opacity="1"/><line transform="translate(0,546)" x2="-5" y2="0" stroke="#888" stroke-width="1" opacity="1"/><line transform="translate(0,519)" x2="-5" y2="0" stroke="#888" stroke-width="1" opacity="1"/><line transform="translate(0,492)" x2="-5" y2="0" stroke="#888" stroke-width="1" opacity="1"/><line transform="translate(0,465)" x2="-5" y2="0" stroke="#888" stroke-width="1" opacity="1"/><line transform="translate(0,438)" x2="-5" y2="0" stroke="#888" stroke-width="1" opacity="1"/><line transform="translate(0,411)" x2="-5" y2="0" stroke="#888" stroke-width="1" opacity="1"/><line transform="translate(0,384)" x2="-5" y2="0" stroke="#888" stroke-width="1" opacity="1"/><line transform="translate(0,357)" x2="-5" y2="0" stroke="#888" stroke-width="1" opacity="1"/><line transform="translate(0,330)" x2="-5" y2="0" stroke="#888" stroke-width="1" opacity="1"/><line transform="translate(0,303)" x2="-5" y2="0" stroke="#888" stroke-width="1" opacity="1"/><line transform="translate(0,276)" x2="-5" y2="0" stroke="#888" stroke-width="1" opacity="1"/><line transform="translate(0,249)" x2="-5" y2="0" stroke="#888" stroke-width="1" opacity="1"/><line transform="translate(0,222)" x2="-5" y2="0" stroke="#888" stroke-width="1" opacity="1"/><line transform="translate(0,195)" x2="-5" y2="0" stroke="#888" stroke-width="1" opacity="1"/><line transform="translate(0,168)" x2="-5" y2="0" stroke="#888" stroke-width="1" opacity="1"/><line transform="translate(0,141)" x2="-5" y2="0" stroke="#888" stroke-width="1" opacity="1"/><line transform="translate(0,114)" x2="-5" y2="0" stroke="#888" stroke-width="1" opacity="1"/><line transform="translate(0,87)" x2="-5" y2="0" stroke="#888" stroke-width="1" opacity="1"/><line transform="translate(0,60)" x2="-5" y2="0" stroke="#888" stroke-width="1" opacity="1"/><line transform="translate(0,33)" x2="-5" y2="0" stroke="#888" stroke-width="1" opacity="1"/><line transform="translate(0,6)" x2="-5" y2="0" stroke="#888" stroke-width="1" opacity="1"/></g><g class="mark-text role-axis-label" pointer-events="none"><text text-anchor="end" transform="translate(-7,603)" font-family="sans-serif" font-size="10px" fill="#000" opacity="1">0</text><text text-anchor="end" transform="translate(-7,576.0218020256827)" font-family="sans-serif" font-size="10px" fill="#000" opacity="1">2</text><text text-anchor="end" transform="translate(-7,549.0436040513655)" font-family="sans-serif" font-size="10px" fill="#000" opacity="1">4</text><text text-anchor="end" transform="translate(-7,522.0654060770482)" font-family="sans-serif" font-size="10px" fill="#000" opacity="1">6</text><text text-anchor="end" transform="translate(-7,495.087208102731)" font-family="sans-serif" font-size="10px" fill="#000" opacity="1">8</text><text text-anchor="end" transform="translate(-7,468.1090101284138)" font-family="sans-serif" font-size="10px" fill="#000" opacity="1">10</text><text text-anchor="end" transform="translate(-7,441.13081215409653)" font-family="sans-serif" font-size="10px" fill="#000" opacity="1">12</text><text text-anchor="end" transform="translate(-7,414.1526141797793)" font-family="sans-serif" font-size="10px" fill="#000" opacity="1">14</text><text text-anchor="end" transform="translate(-7,387.17441620546197)" font-family="sans-serif" font-size="10px" fill="#000" opacity="1">16</text><text text-anchor="end" transform="translate(-7,360.1962182311448)" font-family="sans-serif" font-size="10px" fill="#000" opacity="1">18</text><text text-anchor="end" transform="translate(-7,333.2180202568275)" font-family="sans-serif" font-size="10px" fill="#000" opacity="1">20</text><text text-anchor="end" transform="translate(-7,306.23982228251026)" font-family="sans-serif" font-size="10px" fill="#000" opacity="1">22</text><text text-anchor="end" transform="translate(-7,279.261624308193)" font-family="sans-serif" font-size="10px" fill="#000" opacity="1">24</text><text text-anchor="end" transform="translate(-7,252.2834263338758)" font-family="sans-serif" font-size="10px" fill="#000" opacity="1">26</text><text text-anchor="end" transform="translate(-7,225.30522835955853)" font-family="sans-serif" font-size="10px" fill="#000" opacity="1">28</text><text text-anchor="end" transform="translate(-7,198.3270303852413)" font-family="sans-serif" font-size="10px" fill="#000" opacity="1">30</text><text text-anchor="end" transform="translate(-7,171.34883241092402)" font-family="sans-serif" font-size="10px" fill="#000" opacity="1">32</text><text text-anchor="end" transform="translate(-7,144.3706344366068)" font-family="sans-serif" font-size="10px" fill="#000" opacity="1">34</text><text text-anchor="end" transform="translate(-7,117.39243646228958)" font-family="sans-serif" font-size="10px" fill="#000" opacity="1">36</text><text text-anchor="end" transform="translate(-7,90.4142384879723)" font-family="sans-serif" font-size="10px" fill="#000" opacity="1">38</text><text text-anchor="end" transform="translate(-7,63.43604051365507)" font-family="sans-serif" font-size="10px" fill="#000" opacity="1">40</text><text text-anchor="end" transform="translate(-7,36.45784253933779)" font-family="sans-serif" font-size="10px" fill="#000" opacity="1">42</text><text text-anchor="end" transform="translate(-7,9.479644565020571)" font-family="sans-serif" font-size="10px" fill="#000" opacity="1">44</text></g><g class="mark-rule role-axis-domain" pointer-events="none"><line transform="translate(0,600)" x2="0" y2="-600" stroke="#888" stroke-width="1" opacity="1"/></g><g class="mark-text role-axis-title" pointer-events="none"><text text-anchor="middle" transform="translate(-22.123046875,300) rotate(-90) translate(0,-2)" font-family="sans-serif" font-size="11px" font-weight="bold" fill="#000" opacity="1">Execution Time (seconds, lower=better)</text></g></g><path class="foreground" aria-hidden="true" d="" pointer-events="none" display="none"/></g></g><g class="mark-group role-scope" role="graphics-object" aria-roledescription="group mark container"><g transform="translate(5,595.6731804042998)"><path class="background" aria-hidden="true" d="M2.163409797850079,0L87.83659020214992,0C89.03060857372091,0,90,0.9693914262790931,90,2.163409797850079L90,4.326819595700158C90,4.326819595700158,90,4.326819595700158,90,4.326819595700158L0,4.326819595700158C0,4.326819595700158,0,4.326819595700158,0,4.326819595700158L0,2.163409797850079C0,0.9693914262790931,0.9693914262790931,0,2.163409797850079,0Z"/><g clip-path="url(#clip1)"><g class="mark-group role-scope" role="graphics-object" aria-roledescription="group mark container"><g transform="translate(0,-595.6731804042998)"><path class="background" aria-hidden="true" d="M0,0h90v0h-90Z"/><g><g class="mark-rect role-mark layer_0_marks" role="graphics-object" aria-roledescription="rect mark container"><path aria-label="Parser: yamlrocks&#xA;0.6.1; Execution Time (seconds, lower=better): 0.320764166667; parser: yamlrocks; Execution Time (s): 0.3208; Slowdown: 1.00" role="graphics-symbol" aria-roledescription="bar" d="M0,595.6731804042998h90v4.326819595700158h-90Z" fill="#666666"/></g></g><path class="foreground" aria-hidden="true" d="" display="none"/></g></g></g><path class="foreground" aria-hidden="true" d="" display="none"/></g><g transform="translate(105,595.6326951218731)"><path class="background" aria-hidden="true" d="M2.183652439063451,0L87.81634756093655,0C89.02153815032864,0,90,0.9784618496713635,90,2.183652439063451L90,4.367304878126902C90,4.367304878126902,90,4.367304878126902,90,4.367304878126902L0,4.367304878126902C0,4.367304878126902,0,4.367304878126902,0,4.367304878126902L0,2.183652439063451C0,0.9784618496713635,0.9784618496713635,0,2.183652439063451,0Z"/><g clip-path="url(#clip2)"><g class="mark-group role-scope" role="graphics-object" aria-roledescription="group mark container"><g transform="translate(0,-595.6326951218731)"><path class="background" aria-hidden="true" d="M0,0h90v0h-90Z"/><g><g class="mark-rect role-mark layer_0_marks" role="graphics-object" aria-roledescription="rect mark container"><path aria-label="Parser: yaml_rs (parse_dt=False)&#xA;0.1.6; Execution Time (seconds, lower=better): 0.3237655; parser: yaml_rs (parse_dt=False); Execution Time (s): 0.3238; Slowdown: 1.01" role="graphics-symbol" aria-roledescription="bar" d="M0,595.6326951218731h90v4.367304878126902h-90Z" fill="#a6761d"/></g></g><path class="foreground" aria-hidden="true" d="" display="none"/></g></g></g><path class="foreground" aria-hidden="true" d="" display="none"/></g><g transform="translate(205,595.5773151763448)"><path class="background" aria-hidden="true" d="M2.2113424118276157,0L87.78865758817238,0C89.00913068956085,0,90,0.9908693104391562,90,2.2113424118276157L90,4.422684823655231C90,4.422684823655231,90,4.422684823655231,90,4.422684823655231L0,4.422684823655231C0,4.422684823655231,0,4.422684823655231,0,4.422684823655231L0,2.2113424118276157C0,0.9908693104391562,0.9908693104391562,0,2.2113424118276157,0Z"/><g clip-path="url(#clip3)"><g class="mark-group role-scope" role="graphics-object" aria-roledescription="group mark container"><g transform="translate(0,-595.5773151763448)"><path class="background" aria-hidden="true" d="M0,0h90v0h-90Z"/><g><g class="mark-rect role-mark layer_0_marks" role="graphics-object" aria-roledescription="rect mark container"><path aria-label="Parser: yaml_rs&#xA;0.1.6; Execution Time (seconds, lower=better): 0.327871033333; parser: yaml_rs; Execution Time (s): 0.3279; Slowdown: 1.02" role="graphics-symbol" aria-roledescription="bar" d="M0,595.5773151763448h90v4.422684823655231h-90Z" fill="#e6ab02"/></g></g><path class="foreground" aria-hidden="true" d="" display="none"/></g></g></g><path class="foreground" aria-hidden="true" d="" display="none"/></g><g transform="translate(305,588.1739675306018)"><path class="background" aria-hidden="true" d="M5.913016234699114,0L84.08698376530089,0C87.35046626530827,0,90,2.649533734691733,90,5.913016234699114L90,11.826032469398228C90,11.826032469398228,90,11.826032469398228,90,11.826032469398228L0,11.826032469398228C0,11.826032469398228,0,11.826032469398228,0,11.826032469398228L0,5.913016234699114C0,2.649533734691733,2.649533734691733,0,5.913016234699114,0Z"/><g clip-path="url(#clip4)"><g class="mark-group role-scope" role="graphics-object" aria-roledescription="group mark container"><g transform="translate(0,-588.1739675306018)"><path class="background" aria-hidden="true" d="M0,0h90v0h-90Z"/><g><g class="mark-rect role-mark layer_0_marks" role="graphics-object" aria-roledescription="rect mark container"><path aria-label="Parser: ryaml&#xA;0.5.1; Execution Time (seconds, lower=better): 0.876710333333; parser: ryaml; Execution Time (s): 0.8767; Slowdown: 2.73" role="graphics-symbol" aria-roledescription="bar" d="M0,588.1739675306018h90v11.826032469398228h-90Z" fill="#66a61e"/></g></g><path class="foreground" aria-hidden="true" d="" display="none"/></g></g></g><path class="foreground" aria-hidden="true" d="" display="none"/></g><g transform="translate(405,559.4802052638126)"><path class="background" aria-hidden="true" d="M6,0L84,0C87.311490146964,0,90,2.688509853036,90,6L90,40.51979473618735C90,40.51979473618735,90,40.51979473618735,90,40.51979473618735L0,40.51979473618735C0,40.51979473618735,0,40.51979473618735,0,40.51979473618735L0,6C0,2.688509853036,2.688509853036,0,6,0Z"/><g clip-path="url(#clip5)"><g class="mark-group role-scope" role="graphics-object" aria-roledescription="group mark container"><g transform="translate(0,-559.4802052638126)"><path class="background" aria-hidden="true" d="M0,0h90v0h-90Z"/><g><g class="mark-rect role-mark layer_0_marks" role="graphics-object" aria-roledescription="rect mark container"><path aria-label="Parser: PyYAML (CLoader)&#xA;6.0.3; Execution Time (seconds, lower=better): 3.00389186667; parser: PyYAML (CLoader); Execution Time (s): 3.0039; Slowdown: 9.36" role="graphics-symbol" aria-roledescription="bar" d="M0,559.4802052638126h90v40.51979473618735h-90Z" fill="#d95f02"/></g></g><path class="foreground" aria-hidden="true" d="" display="none"/></g></g></g><path class="foreground" aria-hidden="true" d="" display="none"/></g><g transform="translate(505,210.33833597398697)"><path class="background" aria-hidden="true" d="M6,0L84,0C87.311490146964,0,90,2.688509853036,90,6L90,389.661664026013C90,389.661664026013,90,389.661664026013,90,389.661664026013L0,389.661664026013C0,389.661664026013,0,389.661664026013,0,389.661664026013L0,6C0,2.688509853036,2.688509853036,0,6,0Z"/><g clip-path="url(#clip6)"><g class="mark-group role-scope" role="graphics-object" aria-roledescription="group mark container"><g transform="translate(0,-210.33833597398697)"><path class="background" aria-hidden="true" d="M0,0h90v0h-90Z"/><g><g class="mark-rect role-mark layer_0_marks" role="graphics-object" aria-roledescription="rect mark container"><path aria-label="Parser: oyaml&#xA;1.0; Execution Time (seconds, lower=better): 28.8871528333; parser: oyaml; Execution Time (s): 28.8872; Slowdown: 90.06" role="graphics-symbol" aria-roledescription="bar" d="M0,210.33833597398697h90v389.661664026013h-90Z" fill="#7570b3"/></g></g><path class="foreground" aria-hidden="true" d="" display="none"/></g></g></g><path class="foreground" aria-hidden="true" d="" display="none"/></g><g transform="translate(605,209.90022532652964)"><path class="background" aria-hidden="true" d="M6,0L84,0C87.311490146964,0,90,2.688509853036,90,6L90,390.0997746734704C90,390.0997746734704,90,390.0997746734704,90,390.0997746734704L0,390.0997746734704C0,390.0997746734704,0,390.0997746734704,0,390.0997746734704L0,6C0,2.688509853036,2.688509853036,0,6,0Z"/><g clip-path="url(#clip7)"><g class="mark-group role-scope" role="graphics-object" aria-roledescription="group mark container"><g transform="translate(0,-209.90022532652964)"><path class="background" aria-hidden="true" d="M0,0h90v0h-90Z"/><g><g class="mark-rect role-mark layer_0_marks" role="graphics-object" aria-roledescription="rect mark container"><path aria-label="Parser: PyYAML&#xA;6.0.3; Execution Time (seconds, lower=better): 28.9196317; parser: PyYAML; Execution Time (s): 28.9196; Slowdown: 90.16" role="graphics-symbol" aria-roledescription="bar" d="M0,209.90022532652964h90v390.0997746734704h-90Z" fill="#1b9e77"/></g></g><path class="foreground" aria-hidden="true" d="" display="none"/></g></g></g><path class="foreground" aria-hidden="true" d="" display="none"/></g><g transform="translate(705,28.571428571428605)"><path class="background" aria-hidden="true" d="M6,0L84,0C87.311490146964,0,90,2.688509853036,90,6L90,571.4285714285714C90,571.4285714285714,90,571.4285714285714,90,571.4285714285714L0,571.4285714285714C0,571.4285714285714,0,571.4285714285714,0,571.4285714285714L0,6C0,2.688509853036,2.688509853036,0,6,0Z"/><g clip-path="url(#clip8)"><g class="mark-group role-scope" role="graphics-object" aria-roledescription="group mark container"><g transform="translate(0,-28.571428571428605)"><path class="background" aria-hidden="true" d="M0,0h90v0h-90Z"/><g><g class="mark-rect role-mark layer_0_marks" role="graphics-object" aria-roledescription="rect mark container"><path aria-label="Parser: ruamel.yaml&#xA;0.19.1; Execution Time (seconds, lower=better): 42.3622491; parser: ruamel.yaml; Execution Time (s): 42.3622; Slowdown: 132.07" role="graphics-symbol" aria-roledescription="bar" d="M0,28.571428571428605h90v571.4285714285714h-90Z" fill="#e7298a"/></g></g><path class="foreground" aria-hidden="true" d="" display="none"/></g></g></g><path class="foreground" aria-hidden="true" d="" display="none"/></g></g><g class="mark-text role-mark layer_1_marks" role="graphics-object" aria-roledescription="text mark container"><text aria-label="Parser: yamlrocks&#xA;0.6.1; Execution Time (seconds, lower=better): 0.320764166667; parser: yamlrocks; label: 0.3208s (x1.00); Execution Time (s): 0.3208; Slowdown: 1.00" role="graphics-symbol" aria-roledescription="text mark" text-anchor="middle" transform="translate(50,591.6731804042998)" font-family="sans-serif" font-size="9px" font-weight="bold" fill="#666666">0.3208s (x1.00)</text><text aria-label="Parser: yaml_rs (parse_dt=False)&#xA;0.1.6; Execution Time (seconds, lower=better): 0.3237655; parser: yaml_rs (parse_dt=False); label: 0.3238s (x1.01); Execution Time (s): 0.3238; Slowdown: 1.01" role="graphics-symbol" aria-roledescription="text mark" text-anchor="middle" transform="translate(150,591.6326951218731)" font-family="sans-serif" font-size="9px" font-weight="bold" fill="#a6761d">0.3238s (x1.01)</text><text aria-label="Parser: yaml_rs&#xA;0.1.6; Execution Time (seconds, lower=better): 0.327871033333; parser: yaml_rs; label: 0.3279s (x1.02); Execution Time (s): 0.3279; Slowdown: 1.02" role="graphics-symbol" aria-roledescription="text mark" text-anchor="middle" transform="translate(250,591.5773151763448)" font-family="sans-serif" font-size="9px" font-weight="bold" fill="#e6ab02">0.3279s (x1.02)</text><text aria-label="Parser: ryaml&#xA;0.5.1; Execution Time (seconds, lower=better): 0.876710333333; parser: ryaml; label: 0.8767s (x2.73); Execution Time (s): 0.8767; Slowdown: 2.73" role="graphics-symbol" aria-roledescription="text mark" text-anchor="middle" transform="translate(350,584.1739675306018)" font-family="sans-serif" font-size="9px" font-weight="bold" fill="#66a61e">0.8767s (x2.73)</text><text aria-label="Parser: PyYAML (CLoader)&#xA;6.0.3; Execution Time (seconds, lower=better): 3.00389186667; parser: PyYAML (CLoader); label: 3.0039s (x9.36); Execution Time (s): 3.0039; Slowdown: 9.36" role="graphics-symbol" aria-roledescription="text mark" text-anchor="middle" transform="translate(450,555.4802052638126)" font-family="sans-serif" font-size="9px" font-weight="bold" fill="#d95f02">3.0039s (x9.36)</text><text aria-label="Parser: oyaml&#xA;1.0; Execution Time (seconds, lower=better): 28.8871528333; parser: oyaml; label: 28.8872s (x90.06); Execution Time (s): 28.8872; Slowdown: 90.06" role="graphics-symbol" aria-roledescription="text mark" text-anchor="middle" transform="translate(550,206.33833597398697)" font-family="sans-serif" font-size="9px" font-weight="bold" fill="#7570b3">28.8872s (x90.06)</text><text aria-label="Parser: PyYAML&#xA;6.0.3; Execution Time (seconds, lower=better): 28.9196317; parser: PyYAML; label: 28.9196s (x90.16); Execution Time (s): 28.9196; Slowdown: 90.16" role="graphics-symbol" aria-roledescription="text mark" text-anchor="middle" transform="translate(650,205.90022532652964)" font-family="sans-serif" font-size="9px" font-weight="bold" fill="#1b9e77">28.9196s (x90.16)</text><text aria-label="Parser: ruamel.yaml&#xA;0.19.1; Execution Time (seconds, lower=better): 42.3622491; parser: ruamel.yaml; label: 42.3622s (x132.07); Execution Time (s): 42.3622; Slowdown: 132.07" role="graphics-symbol" aria-roledescription="text mark" text-anchor="middle" transform="translate(750,24.571428571428605)" font-family="sans-serif" font-size="9px" font-weight="bold" fill="#e7298a">42.3622s (x132.07)</text></g><g class="mark-group role-title"><g transform="translate(400,-31)"><path class="background" aria-hidden="true" d="M0,0h0v0h0Z" pointer-events="none"/><g><g class="mark-text role-title-text" role="graphics-symbol" aria-roledescription="title" aria-label="Title text 'YAML parsers benchmark (loads)'" pointer-events="none"><text text-anchor="middle" transform="translate(0,10)" font-family="sans-serif" font-size="13px" font-weight="bold" fill="#000" opacity="1">YAML parsers benchmark (loads)</text></g><g class="mark-text role-title-subtitle" role="graphics-symbol" aria-roledescription="subtitle" aria-label="Subtitle text 'Python: 3.14.6 (Windows 2025Server) | CPU: AMD EPYC 7763 64-Core Processor'" pointer-events="none"><text text-anchor="middle" transform="translate(0,25)" font-family="sans-serif" font-size="12px" fill="#000" opacity="1">Python: 3.14.6 (Windows 2025Server) | CPU: AMD EPYC 7763 64-Core Processor</text></g></g><path class="foreground" aria-hidden="true" d="" pointer-events="none" display="none"/></g></g></g><path class="foreground" aria-hidden="true" d="" display="none"/></g></g></g><defs><clipPath id="clip1"><path d="M2.163409797850079,0L87.83659020214992,0C89.03060857372091,0,90,0.9693914262790931,90,2.163409797850079L90,4.326819595700158C90,4.326819595700158,90,4.326819595700158,90,4.326819595700158L0,4.326819595700158C0,4.326819595700158,0,4.326819595700158,0,4.326819595700158L0,2.163409797850079C0,0.9693914262790931,0.9693914262790931,0,2.163409797850079,0Z"/></clipPath><clipPath id="clip2"><path d="M2.183652439063451,0L87.81634756093655,0C89.02153815032864,0,90,0.9784618496713635,90,2.183652439063451L90,4.367304878126902C90,4.367304878126902,90,4.367304878126902,90,4.367304878126902L0,4.367304878126902C0,4.367304878126902,0,4.367304878126902,0,4.367304878126902L0,2.183652439063451C0,0.9784618496713635,0.9784618496713635,0,2.183652439063451,0Z"/></clipPath><clipPath id="clip3"><path d="M2.2113424118276157,0L87.78865758817238,0C89.00913068956085,0,90,0.9908693104391562,90,2.2113424118276157L90,4.422684823655231C90,4.422684823655231,90,4.422684823655231,90,4.422684823655231L0,4.422684823655231C0,4.422684823655231,0,4.422684823655231,0,4.422684823655231L0,2.2113424118276157C0,0.9908693104391562,0.9908693104391562,0,2.2113424118276157,0Z"/></clipPath><clipPath id="clip4"><path d="M5.913016234699114,0L84.08698376530089,0C87.35046626530827,0,90,2.649533734691733,90,5.913016234699114L90,11.826032469398228C90,11.826032469398228,90,11.826032469398228,90,11.826032469398228L0,11.826032469398228C0,11.826032469398228,0,11.826032469398228,0,11.826032469398228L0,5.913016234699114C0,2.649533734691733,2.649533734691733,0,5.913016234699114,0Z"/></clipPath><clipPath id="clip5"><path d="M6,0L84,0C87.311490146964,0,90,2.688509853036,90,6L90,40.51979473618735C90,40.51979473618735,90,40.51979473618735,90,40.51979473618735L0,40.51979473618735C0,40.51979473618735,0,40.51979473618735,0,40.51979473618735L0,6C0,2.688509853036,2.688509853036,0,6,0Z"/></clipPath><clipPath id="clip6"><path d="M6,0L84,0C87.311490146964,0,90,2.688509853036,90,6L90,389.661664026013C90,389.661664026013,90,389.661664026013,90,389.661664026013L0,389.661664026013C0,389.661664026013,0,389.661664026013,0,389.661664026013L0,6C0,2.688509853036,2.688509853036,0,6,0Z"/></clipPath><clipPath id="clip7"><path d="M6,0L84,0C87.311490146964,0,90,2.688509853036,90,6L90,390.0997746734704C90,390.0997746734704,90,390.0997746734704,90,390.0997746734704L0,390.0997746734704C0,390.0997746734704,0,390.0997746734704,0,390.0997746734704L0,6C0,2.688509853036,2.688509853036,0,6,0Z"/></clipPath><clipPath id="clip8"><path d="M6,0L84,0C87.311490146964,0,90,2.688509853036,90,6L90,571.4285714285714C90,571.4285714285714,90,571.4285714285714,90,571.4285714285714L0,571.4285714285714C0,571.4285714285714,0,571.4285714285714,0,571.4285714285714L0,6C0,2.688509853036,2.688509853036,0,6,0Z"/></clipPath></defs></svg>