<svg xmlns="http://www.w3.org/2000/svg" xmlns:xlink="http://www.w3.org/1999/xlink" version="1.1" class="marks" width="844" height="688" viewBox="0 0 844 688"><rect width="844" height="688" fill="white"/><g fill="none" stroke-miterlimit="10" transform="translate(39,37)"><g class="mark-group role-frame root" role="graphics-object" aria-roledescription="group mark container"><g transform="translate(0,0)"><path class="background" aria-hidden="true" d="M0.5,0.5h800v600h-800Z" stroke="#ddd"/><g><g class="mark-group role-axis" role="graphics-symbol" aria-roledescription="axis" aria-label="X-axis titled 'Parser' for a discrete scale with 8 values: yaml_rs (parse_dt=False)&#xA;0.1.4, yaml_rs&#xA;0.1.4, yamlrocks&#xA;0.5.0, ryaml&#xA;0.5.1, PyYAML (CLoader)&#xA;6.0.3, ending with ruamel.yaml&#xA;0.19.1"><g transform="translate(0.5,600.5)"><path class="background" aria-hidden="true" d="M0,0h0v0h0Z" pointer-events="none"/><g><g class="mark-rule role-axis-tick" pointer-events="none"><line transform="translate(50,0)" x2="0" y2="5" stroke="#888" stroke-width="1" opacity="1"/><line transform="translate(150,0)" x2="0" y2="5" stroke="#888" stroke-width="1" opacity="1"/><line transform="translate(250,0)" x2="0" y2="5" stroke="#888" stroke-width="1" opacity="1"/><line transform="translate(350,0)" x2="0" y2="5" stroke="#888" stroke-width="1" opacity="1"/><line transform="translate(450,0)" x2="0" y2="5" stroke="#888" stroke-width="1" opacity="1"/><line transform="translate(550,0)" x2="0" y2="5" stroke="#888" stroke-width="1" opacity="1"/><line transform="translate(650,0)" x2="0" y2="5" stroke="#888" stroke-width="1" opacity="1"/><line transform="translate(750,0)" x2="0" y2="5" stroke="#888" stroke-width="1" opacity="1"/></g><g class="mark-text role-axis-label" pointer-events="none"><text text-anchor="middle" transform="translate(49.5,15)" font-family="sans-serif" font-size="10px" fill="#000" opacity="1"><tspan>yaml_rs (parse_dt=False)</tspan><tspan x="0" dy="14">0.1.4</tspan></text><text text-anchor="middle" transform="translate(149.5,15)" font-family="sans-serif" font-size="10px" fill="#000" opacity="1"><tspan>yaml_rs</tspan><tspan x="0" dy="14">0.1.4</tspan></text><text text-anchor="middle" transform="translate(249.5,15)" font-family="sans-serif" font-size="10px" fill="#000" opacity="1"><tspan>yamlrocks</tspan><tspan x="0" dy="14">0.5.0</tspan></text><text text-anchor="middle" transform="translate(349.5,15)" font-family="sans-serif" font-size="10px" fill="#000" opacity="1"><tspan>ryaml</tspan><tspan x="0" dy="14">0.5.1</tspan></text><text text-anchor="middle" transform="translate(449.5,15)" font-family="sans-serif" font-size="10px" fill="#000" opacity="1"><tspan>PyYAML (CLoader)</tspan><tspan x="0" dy="14">6.0.3</tspan></text><text text-anchor="middle" transform="translate(549.5,15)" font-family="sans-serif" font-size="10px" fill="#000" opacity="1"><tspan>PyYAML</tspan><tspan x="0" dy="14">6.0.3</tspan></text><text text-anchor="middle" transform="translate(649.5,15)" font-family="sans-serif" font-size="10px" fill="#000" opacity="1"><tspan>oyaml</tspan><tspan x="0" dy="14">1.0</tspan></text><text text-anchor="middle" transform="translate(749.5,15)" font-family="sans-serif" font-size="10px" fill="#000" opacity="1"><tspan>ruamel.yaml</tspan><tspan x="0" dy="14">0.19.1</tspan></text></g><g class="mark-rule role-axis-domain" pointer-events="none"><line transform="translate(0,0)" x2="800" y2="0" stroke="#888" stroke-width="1" opacity="1"/></g><g class="mark-text role-axis-title" pointer-events="none"><text text-anchor="middle" transform="translate(400,44)" font-family="sans-serif" font-size="11px" font-weight="bold" fill="#000" opacity="1">Parser</text></g></g><path class="foreground" aria-hidden="true" d="" pointer-events="none" display="none"/></g></g><g class="mark-group role-axis" role="graphics-symbol" aria-roledescription="axis" aria-label="Y-axis titled 'Execution Time (seconds, lower=better)' for a linear scale with values from 0 to 44"><g transform="translate(0.5,0.5)"><path class="background" aria-hidden="true" d="M0,0h0v0h0Z" pointer-events="none"/><g><g class="mark-rule role-axis-tick" pointer-events="none"><line transform="translate(0,600)" x2="-5" y2="0" stroke="#888" stroke-width="1" opacity="1"/><line transform="translate(0,573)" x2="-5" y2="0" stroke="#888" stroke-width="1" opacity="1"/><line transform="translate(0,546)" x2="-5" y2="0" stroke="#888" stroke-width="1" opacity="1"/><line transform="translate(0,519)" x2="-5" y2="0" stroke="#888" stroke-width="1" opacity="1"/><line transform="translate(0,492)" x2="-5" y2="0" stroke="#888" stroke-width="1" opacity="1"/><line transform="translate(0,465)" x2="-5" y2="0" stroke="#888" stroke-width="1" opacity="1"/><line transform="translate(0,437)" x2="-5" y2="0" stroke="#888" stroke-width="1" opacity="1"/><line transform="translate(0,410)" x2="-5" y2="0" stroke="#888" stroke-width="1" opacity="1"/><line transform="translate(0,383)" x2="-5" y2="0" stroke="#888" stroke-width="1" opacity="1"/><line transform="translate(0,356)" x2="-5" y2="0" stroke="#888" stroke-width="1" opacity="1"/><line transform="translate(0,329)" x2="-5" y2="0" stroke="#888" stroke-width="1" opacity="1"/><line transform="translate(0,302)" x2="-5" y2="0" stroke="#888" stroke-width="1" opacity="1"/><line transform="translate(0,275)" x2="-5" y2="0" stroke="#888" stroke-width="1" opacity="1"/><line transform="translate(0,248)" x2="-5" y2="0" stroke="#888" stroke-width="1" opacity="1"/><line transform="translate(0,221)" x2="-5" y2="0" stroke="#888" stroke-width="1" opacity="1"/><line transform="translate(0,194)" x2="-5" y2="0" stroke="#888" stroke-width="1" opacity="1"/><line transform="translate(0,167)" x2="-5" y2="0" stroke="#888" stroke-width="1" opacity="1"/><line transform="translate(0,139)" x2="-5" y2="0" stroke="#888" stroke-width="1" opacity="1"/><line transform="translate(0,112)" x2="-5" y2="0" stroke="#888" stroke-width="1" opacity="1"/><line transform="translate(0,85)" x2="-5" y2="0" stroke="#888" stroke-width="1" opacity="1"/><line transform="translate(0,58)" x2="-5" y2="0" stroke="#888" stroke-width="1" opacity="1"/><line transform="translate(0,31)" x2="-5" y2="0" stroke="#888" stroke-width="1" opacity="1"/><line transform="translate(0,4)" x2="-5" y2="0" stroke="#888" stroke-width="1" opacity="1"/></g><g class="mark-text role-axis-label" pointer-events="none"><text text-anchor="end" transform="translate(-7,603)" font-family="sans-serif" font-size="10px" fill="#000" opacity="1">0</text><text text-anchor="end" transform="translate(-7,575.9093578698628)" font-family="sans-serif" font-size="10px" fill="#000" opacity="1">2</text><text text-anchor="end" transform="translate(-7,548.8187157397257)" font-family="sans-serif" font-size="10px" fill="#000" opacity="1">4</text><text text-anchor="end" transform="translate(-7,521.7280736095885)" font-family="sans-serif" font-size="10px" fill="#000" opacity="1">6</text><text text-anchor="end" transform="translate(-7,494.6374314794512)" font-family="sans-serif" font-size="10px" fill="#000" opacity="1">8</text><text text-anchor="end" transform="translate(-7,467.54678934931405)" font-family="sans-serif" font-size="10px" fill="#000" opacity="1">10</text><text text-anchor="end" transform="translate(-7,440.4561472191769)" font-family="sans-serif" font-size="10px" fill="#000" opacity="1">12</text><text text-anchor="end" transform="translate(-7,413.3655050890397)" font-family="sans-serif" font-size="10px" fill="#000" opacity="1">14</text><text text-anchor="end" transform="translate(-7,386.2748629589025)" font-family="sans-serif" font-size="10px" fill="#000" opacity="1">16</text><text text-anchor="end" transform="translate(-7,359.1842208287653)" font-family="sans-serif" font-size="10px" fill="#000" opacity="1">18</text><text text-anchor="end" transform="translate(-7,332.0935786986281)" font-family="sans-serif" font-size="10px" fill="#000" opacity="1">20</text><text text-anchor="end" transform="translate(-7,305.00293656849095)" font-family="sans-serif" font-size="10px" fill="#000" opacity="1">22</text><text text-anchor="end" transform="translate(-7,277.91229443835374)" font-family="sans-serif" font-size="10px" fill="#000" opacity="1">24</text><text text-anchor="end" transform="translate(-7,250.82165230821653)" font-family="sans-serif" font-size="10px" fill="#000" opacity="1">26</text><text text-anchor="end" transform="translate(-7,223.73101017807932)" font-family="sans-serif" font-size="10px" fill="#000" opacity="1">28</text><text text-anchor="end" transform="translate(-7,196.6403680479422)" font-family="sans-serif" font-size="10px" fill="#000" opacity="1">30</text><text text-anchor="end" transform="translate(-7,169.54972591780498)" font-family="sans-serif" font-size="10px" fill="#000" opacity="1">32</text><text text-anchor="end" transform="translate(-7,142.45908378766777)" font-family="sans-serif" font-size="10px" fill="#000" opacity="1">34</text><text text-anchor="end" transform="translate(-7,115.36844165753061)" font-family="sans-serif" font-size="10px" fill="#000" opacity="1">36</text><text text-anchor="end" transform="translate(-7,88.2777995273934)" font-family="sans-serif" font-size="10px" fill="#000" opacity="1">38</text><text text-anchor="end" transform="translate(-7,61.18715739725619)" font-family="sans-serif" font-size="10px" fill="#000" opacity="1">40</text><text text-anchor="end" transform="translate(-7,34.09651526711905)" font-family="sans-serif" font-size="10px" fill="#000" opacity="1">42</text><text text-anchor="end" transform="translate(-7,7.005873136981841)" font-family="sans-serif" font-size="10px" fill="#000" opacity="1">44</text></g><g class="mark-rule role-axis-domain" pointer-events="none"><line transform="translate(0,600)" x2="0" y2="-600" stroke="#888" stroke-width="1" opacity="1"/></g><g class="mark-text role-axis-title" pointer-events="none"><text text-anchor="middle" transform="translate(-22.123046875,300) rotate(-90) translate(0,-2)" font-family="sans-serif" font-size="11px" font-weight="bold" fill="#000" opacity="1">Execution Time (seconds, lower=better)</text></g></g><path class="foreground" aria-hidden="true" d="" pointer-events="none" display="none"/></g></g><g class="mark-group role-scope" role="graphics-object" aria-roledescription="group mark container"><g transform="translate(5,595.8256020511457)"><path class="background" aria-hidden="true" d="M2.0871989744271673,0L87.91280102557283,0C89.06475749866766,0,90,0.9352425013323457,90,2.0871989744271673L90,4.174397948854335C90,4.174397948854335,90,4.174397948854335,90,4.174397948854335L0,4.174397948854335C0,4.174397948854335,0,4.174397948854335,0,4.174397948854335L0,2.0871989744271673C0,0.9352425013323457,0.9352425013323457,0,2.0871989744271673,0Z"/><g clip-path="url(#clip1)"><g class="mark-group role-scope" role="graphics-object" aria-roledescription="group mark container"><g transform="translate(0,-595.8256020511457)"><path class="background" aria-hidden="true" d="M0,0h90v0h-90Z"/><g><g class="mark-rect role-mark layer_0_marks" role="graphics-object" aria-roledescription="rect mark container"><path aria-label="Parser: yaml_rs (parse_dt=False)&#xA;0.1.4; Execution Time (seconds, lower=better): 0.308180066667; parser: yaml_rs (parse_dt=False); Execution Time (s): 0.3082; Slowdown: 1.00" role="graphics-symbol" aria-roledescription="bar" d="M0,595.8256020511457h90v4.174397948854335h-90Z" fill="#a6761d"/></g></g><path class="foreground" aria-hidden="true" d="" display="none"/></g></g></g><path class="foreground" aria-hidden="true" d="" display="none"/></g><g transform="translate(105,595.6769096436863)"><path class="background" aria-hidden="true" d="M2.161545178156871,0L87.83845482184313,0C89.03144408179047,0,90,0.9685559182095339,90,2.161545178156871L90,4.323090356313742C90,4.323090356313742,90,4.323090356313742,90,4.323090356313742L0,4.323090356313742C0,4.323090356313742,0,4.323090356313742,0,4.323090356313742L0,2.161545178156871C0,0.9685559182095339,0.9685559182095339,0,2.161545178156871,0Z"/><g clip-path="url(#clip2)"><g class="mark-group role-scope" role="graphics-object" aria-roledescription="group mark container"><g transform="translate(0,-595.6769096436863)"><path class="background" aria-hidden="true" d="M0,0h90v0h-90Z"/><g><g class="mark-rect role-mark layer_0_marks" role="graphics-object" aria-roledescription="rect mark container"><path aria-label="Parser: yaml_rs&#xA;0.1.4; Execution Time (seconds, lower=better): 0.319157466667; parser: yaml_rs; Execution Time (s): 0.3192; Slowdown: 1.04" role="graphics-symbol" aria-roledescription="bar" d="M0,595.6769096436863h90v4.323090356313742h-90Z" fill="#e6ab02"/></g></g><path class="foreground" aria-hidden="true" d="" display="none"/></g></g></g><path class="foreground" aria-hidden="true" d="" display="none"/></g><g transform="translate(205,593.899914324524)"><path class="background" aria-hidden="true" d="M3.0500428377379762,0L86.94995716226202,0C88.63332162975993,0,90,1.3666783702400718,90,3.0500428377379762L90,6.1000856754759525C90,6.1000856754759525,90,6.1000856754759525,90,6.1000856754759525L0,6.1000856754759525C0,6.1000856754759525,0,6.1000856754759525,0,6.1000856754759525L0,3.0500428377379762C0,1.3666783702400718,1.3666783702400718,0,3.0500428377379762,0Z"/><g clip-path="url(#clip3)"><g class="mark-group role-scope" role="graphics-object" aria-roledescription="group mark container"><g transform="translate(0,-593.899914324524)"><path class="background" aria-hidden="true" d="M0,0h90v0h-90Z"/><g><g class="mark-rect role-mark layer_0_marks" role="graphics-object" aria-roledescription="rect mark container"><path aria-label="Parser: yamlrocks&#xA;0.5.0; Execution Time (seconds, lower=better): 0.450346333333; parser: yamlrocks; Execution Time (s): 0.4503; Slowdown: 1.46" role="graphics-symbol" aria-roledescription="bar" d="M0,593.899914324524h90v6.1000856754759525h-90Z" fill="#666666"/></g></g><path class="foreground" aria-hidden="true" d="" display="none"/></g></g></g><path class="foreground" aria-hidden="true" d="" display="none"/></g><g transform="translate(305,588.3821889587473)"><path class="background" aria-hidden="true" d="M5.808905520626354,0L84.19109447937365,0C87.39711671207347,0,90,2.602883287926528,90,5.808905520626354L90,11.617811041252708C90,11.617811041252708,90,11.617811041252708,90,11.617811041252708L0,11.617811041252708C0,11.617811041252708,0,11.617811041252708,0,11.617811041252708L0,5.808905520626354C0,2.602883287926528,2.602883287926528,0,5.808905520626354,0Z"/><g clip-path="url(#clip4)"><g class="mark-group role-scope" role="graphics-object" aria-roledescription="group mark container"><g transform="translate(0,-588.3821889587473)"><path class="background" aria-hidden="true" d="M0,0h90v0h-90Z"/><g><g class="mark-rect role-mark layer_0_marks" role="graphics-object" aria-roledescription="rect mark container"><path aria-label="Parser: ryaml&#xA;0.5.1; Execution Time (seconds, lower=better): 0.8576992; parser: ryaml; Execution Time (s): 0.8577; Slowdown: 2.78" role="graphics-symbol" aria-roledescription="bar" d="M0,588.3821889587473h90v11.617811041252708h-90Z" fill="#66a61e"/></g></g><path class="foreground" aria-hidden="true" d="" display="none"/></g></g></g><path class="foreground" aria-hidden="true" d="" display="none"/></g><g transform="translate(405,563.326942174135)"><path class="background" aria-hidden="true" d="M6,0L84,0C87.311490146964,0,90,2.688509853036,90,6L90,36.673057825865044C90,36.673057825865044,90,36.673057825865044,90,36.673057825865044L0,36.673057825865044C0,36.673057825865044,0,36.673057825865044,0,36.673057825865044L0,6C0,2.688509853036,2.688509853036,0,6,0Z"/><g clip-path="url(#clip5)"><g class="mark-group role-scope" role="graphics-object" aria-roledescription="group mark container"><g transform="translate(0,-563.326942174135)"><path class="background" aria-hidden="true" d="M0,0h90v0h-90Z"/><g><g class="mark-rect role-mark layer_0_marks" role="graphics-object" aria-roledescription="rect mark container"><path aria-label="Parser: PyYAML (CLoader)&#xA;6.0.3; Execution Time (seconds, lower=better): 2.70743363333; parser: PyYAML (CLoader); Execution Time (s): 2.7074; Slowdown: 8.79" role="graphics-symbol" aria-roledescription="bar" d="M0,563.326942174135h90v36.673057825865044h-90Z" fill="#d95f02"/></g></g><path class="foreground" aria-hidden="true" d="" display="none"/></g></g></g><path class="foreground" aria-hidden="true" d="" display="none"/></g><g transform="translate(505,217.13411699283418)"><path class="background" aria-hidden="true" d="M6,0L84,0C87.311490146964,0,90,2.688509853036,90,6L90,382.86588300716585C90,382.86588300716585,90,382.86588300716585,90,382.86588300716585L0,382.86588300716585C0,382.86588300716585,0,382.86588300716585,0,382.86588300716585L0,6C0,2.688509853036,2.688509853036,0,6,0Z"/><g clip-path="url(#clip6)"><g class="mark-group role-scope" role="graphics-object" aria-roledescription="group mark container"><g transform="translate(0,-217.13411699283418)"><path class="background" aria-hidden="true" d="M0,0h90v0h-90Z"/><g><g class="mark-rect role-mark layer_0_marks" role="graphics-object" aria-roledescription="rect mark container"><path aria-label="Parser: PyYAML&#xA;6.0.3; Execution Time (seconds, lower=better): 28.2655450667; parser: PyYAML; Execution Time (s): 28.2655; Slowdown: 91.72" role="graphics-symbol" aria-roledescription="bar" d="M0,217.13411699283418h90v382.86588300716585h-90Z" fill="#1b9e77"/></g></g><path class="foreground" aria-hidden="true" d="" display="none"/></g></g></g><path class="foreground" aria-hidden="true" d="" display="none"/></g><g transform="translate(605,210.58670476486583)"><path class="background" aria-hidden="true" d="M6,0L84,0C87.311490146964,0,90,2.688509853036,90,6L90,389.41329523513417C90,389.41329523513417,90,389.41329523513417,90,389.41329523513417L0,389.41329523513417C0,389.41329523513417,0,389.41329523513417,0,389.41329523513417L0,6C0,2.688509853036,2.688509853036,0,6,0Z"/><g clip-path="url(#clip7)"><g class="mark-group role-scope" role="graphics-object" aria-roledescription="group mark container"><g transform="translate(0,-210.58670476486583)"><path class="background" aria-hidden="true" d="M0,0h90v0h-90Z"/><g><g class="mark-rect role-mark layer_0_marks" role="graphics-object" aria-roledescription="rect mark container"><path aria-label="Parser: oyaml&#xA;1.0; Execution Time (seconds, lower=better): 28.7489158333; parser: oyaml; Execution Time (s): 28.7489; Slowdown: 93.29" role="graphics-symbol" aria-roledescription="bar" d="M0,210.58670476486583h90v389.41329523513417h-90Z" fill="#7570b3"/></g></g><path class="foreground" aria-hidden="true" d="" display="none"/></g></g></g><path class="foreground" aria-hidden="true" d="" display="none"/></g><g transform="translate(705,28.571428571428605)"><path class="background" aria-hidden="true" d="M6,0L84,0C87.311490146964,0,90,2.688509853036,90,6L90,571.4285714285714C90,571.4285714285714,90,571.4285714285714,90,571.4285714285714L0,571.4285714285714C0,571.4285714285714,0,571.4285714285714,0,571.4285714285714L0,6C0,2.688509853036,2.688509853036,0,6,0Z"/><g clip-path="url(#clip8)"><g class="mark-group role-scope" role="graphics-object" aria-roledescription="group mark container"><g transform="translate(0,-28.571428571428605)"><path class="background" aria-hidden="true" d="M0,0h90v0h-90Z"/><g><g class="mark-rect role-mark layer_0_marks" role="graphics-object" aria-roledescription="rect mark container"><path aria-label="Parser: ruamel.yaml&#xA;0.19.1; Execution Time (seconds, lower=better): 42.1864176333; parser: ruamel.yaml; Execution Time (s): 42.1864; Slowdown: 136.89" role="graphics-symbol" aria-roledescription="bar" d="M0,28.571428571428605h90v571.4285714285714h-90Z" fill="#e7298a"/></g></g><path class="foreground" aria-hidden="true" d="" display="none"/></g></g></g><path class="foreground" aria-hidden="true" d="" display="none"/></g></g><g class="mark-text role-mark layer_1_marks" role="graphics-object" aria-roledescription="text mark container"><text aria-label="Parser: yaml_rs (parse_dt=False)&#xA;0.1.4; Execution Time (seconds, lower=better): 0.308180066667; parser: yaml_rs (parse_dt=False); label: 0.3082s (x1.00); Execution Time (s): 0.3082; Slowdown: 1.00" role="graphics-symbol" aria-roledescription="text mark" text-anchor="middle" transform="translate(50,591.8256020511457)" font-family="sans-serif" font-size="9px" font-weight="bold" fill="#a6761d">0.3082s (x1.00)</text><text aria-label="Parser: yaml_rs&#xA;0.1.4; Execution Time (seconds, lower=better): 0.319157466667; parser: yaml_rs; label: 0.3192s (x1.04); Execution Time (s): 0.3192; Slowdown: 1.04" role="graphics-symbol" aria-roledescription="text mark" text-anchor="middle" transform="translate(150,591.6769096436863)" font-family="sans-serif" font-size="9px" font-weight="bold" fill="#e6ab02">0.3192s (x1.04)</text><text aria-label="Parser: yamlrocks&#xA;0.5.0; Execution Time (seconds, lower=better): 0.450346333333; parser: yamlrocks; label: 0.4503s (x1.46); Execution Time (s): 0.4503; Slowdown: 1.46" role="graphics-symbol" aria-roledescription="text mark" text-anchor="middle" transform="translate(250,589.899914324524)" font-family="sans-serif" font-size="9px" font-weight="bold" fill="#666666">0.4503s (x1.46)</text><text aria-label="Parser: ryaml&#xA;0.5.1; Execution Time (seconds, lower=better): 0.8576992; parser: ryaml; label: 0.8577s (x2.78); Execution Time (s): 0.8577; Slowdown: 2.78" role="graphics-symbol" aria-roledescription="text mark" text-anchor="middle" transform="translate(350,584.3821889587473)" font-family="sans-serif" font-size="9px" font-weight="bold" fill="#66a61e">0.8577s (x2.78)</text><text aria-label="Parser: PyYAML (CLoader)&#xA;6.0.3; Execution Time (seconds, lower=better): 2.70743363333; parser: PyYAML (CLoader); label: 2.7074s (x8.79); Execution Time (s): 2.7074; Slowdown: 8.79" role="graphics-symbol" aria-roledescription="text mark" text-anchor="middle" transform="translate(450,559.326942174135)" font-family="sans-serif" font-size="9px" font-weight="bold" fill="#d95f02">2.7074s (x8.79)</text><text aria-label="Parser: PyYAML&#xA;6.0.3; Execution Time (seconds, lower=better): 28.2655450667; parser: PyYAML; label: 28.2655s (x91.72); Execution Time (s): 28.2655; Slowdown: 91.72" role="graphics-symbol" aria-roledescription="text mark" text-anchor="middle" transform="translate(550,213.13411699283418)" font-family="sans-serif" font-size="9px" font-weight="bold" fill="#1b9e77">28.2655s (x91.72)</text><text aria-label="Parser: oyaml&#xA;1.0; Execution Time (seconds, lower=better): 28.7489158333; parser: oyaml; label: 28.7489s (x93.29); Execution Time (s): 28.7489; Slowdown: 93.29" role="graphics-symbol" aria-roledescription="text mark" text-anchor="middle" transform="translate(650,206.58670476486583)" font-family="sans-serif" font-size="9px" font-weight="bold" fill="#7570b3">28.7489s (x93.29)</text><text aria-label="Parser: ruamel.yaml&#xA;0.19.1; Execution Time (seconds, lower=better): 42.1864176333; parser: ruamel.yaml; label: 42.1864s (x136.89); Execution Time (s): 42.1864; Slowdown: 136.89" role="graphics-symbol" aria-roledescription="text mark" text-anchor="middle" transform="translate(750,24.571428571428605)" font-family="sans-serif" font-size="9px" font-weight="bold" fill="#e7298a">42.1864s (x136.89)</text></g><g class="mark-group role-title"><g transform="translate(400,-31.99412686301816)"><path class="background" aria-hidden="true" d="M0,0h0v0h0Z" pointer-events="none"/><g><g class="mark-text role-title-text" role="graphics-symbol" aria-roledescription="title" aria-label="Title text 'YAML parsers benchmark (loads)'" pointer-events="none"><text text-anchor="middle" transform="translate(0,10)" font-family="sans-serif" font-size="13px" font-weight="bold" fill="#000" opacity="1">YAML parsers benchmark (loads)</text></g><g class="mark-text role-title-subtitle" role="graphics-symbol" aria-roledescription="subtitle" aria-label="Subtitle text 'Python: 3.14.6 (Windows 2025Server) | CPU: AMD EPYC 7763 64-Core Processor'" pointer-events="none"><text text-anchor="middle" transform="translate(0,25)" font-family="sans-serif" font-size="12px" fill="#000" opacity="1">Python: 3.14.6 (Windows 2025Server) | CPU: AMD EPYC 7763 64-Core Processor</text></g></g><path class="foreground" aria-hidden="true" d="" pointer-events="none" display="none"/></g></g></g><path class="foreground" aria-hidden="true" d="" display="none"/></g></g></g><defs><clipPath id="clip1"><path d="M2.0871989744271673,0L87.91280102557283,0C89.06475749866766,0,90,0.9352425013323457,90,2.0871989744271673L90,4.174397948854335C90,4.174397948854335,90,4.174397948854335,90,4.174397948854335L0,4.174397948854335C0,4.174397948854335,0,4.174397948854335,0,4.174397948854335L0,2.0871989744271673C0,0.9352425013323457,0.9352425013323457,0,2.0871989744271673,0Z"/></clipPath><clipPath id="clip2"><path d="M2.161545178156871,0L87.83845482184313,0C89.03144408179047,0,90,0.9685559182095339,90,2.161545178156871L90,4.323090356313742C90,4.323090356313742,90,4.323090356313742,90,4.323090356313742L0,4.323090356313742C0,4.323090356313742,0,4.323090356313742,0,4.323090356313742L0,2.161545178156871C0,0.9685559182095339,0.9685559182095339,0,2.161545178156871,0Z"/></clipPath><clipPath id="clip3"><path d="M3.0500428377379762,0L86.94995716226202,0C88.63332162975993,0,90,1.3666783702400718,90,3.0500428377379762L90,6.1000856754759525C90,6.1000856754759525,90,6.1000856754759525,90,6.1000856754759525L0,6.1000856754759525C0,6.1000856754759525,0,6.1000856754759525,0,6.1000856754759525L0,3.0500428377379762C0,1.3666783702400718,1.3666783702400718,0,3.0500428377379762,0Z"/></clipPath><clipPath id="clip4"><path d="M5.808905520626354,0L84.19109447937365,0C87.39711671207347,0,90,2.602883287926528,90,5.808905520626354L90,11.617811041252708C90,11.617811041252708,90,11.617811041252708,90,11.617811041252708L0,11.617811041252708C0,11.617811041252708,0,11.617811041252708,0,11.617811041252708L0,5.808905520626354C0,2.602883287926528,2.602883287926528,0,5.808905520626354,0Z"/></clipPath><clipPath id="clip5"><path d="M6,0L84,0C87.311490146964,0,90,2.688509853036,90,6L90,36.673057825865044C90,36.673057825865044,90,36.673057825865044,90,36.673057825865044L0,36.673057825865044C0,36.673057825865044,0,36.673057825865044,0,36.673057825865044L0,6C0,2.688509853036,2.688509853036,0,6,0Z"/></clipPath><clipPath id="clip6"><path d="M6,0L84,0C87.311490146964,0,90,2.688509853036,90,6L90,382.86588300716585C90,382.86588300716585,90,382.86588300716585,90,382.86588300716585L0,382.86588300716585C0,382.86588300716585,0,382.86588300716585,0,382.86588300716585L0,6C0,2.688509853036,2.688509853036,0,6,0Z"/></clipPath><clipPath id="clip7"><path d="M6,0L84,0C87.311490146964,0,90,2.688509853036,90,6L90,389.41329523513417C90,389.41329523513417,90,389.41329523513417,90,389.41329523513417L0,389.41329523513417C0,389.41329523513417,0,389.41329523513417,0,389.41329523513417L0,6C0,2.688509853036,2.688509853036,0,6,0Z"/></clipPath><clipPath id="clip8"><path d="M6,0L84,0C87.311490146964,0,90,2.688509853036,90,6L90,571.4285714285714C90,571.4285714285714,90,571.4285714285714,90,571.4285714285714L0,571.4285714285714C0,571.4285714285714,0,571.4285714285714,0,571.4285714285714L0,6C0,2.688509853036,2.688509853036,0,6,0Z"/></clipPath></defs></svg>