<svg xmlns="http://www.w3.org/2000/svg" xmlns:xlink="http://www.w3.org/1999/xlink" version="1.1" class="marks" width="844" height="692" viewBox="0 0 844 692"><rect width="844" height="692" fill="white"/><g fill="none" stroke-miterlimit="10" transform="translate(39,41)"><g class="mark-group role-frame root" role="graphics-object" aria-roledescription="group mark container"><g transform="translate(0,0)"><path class="background" aria-hidden="true" d="M0.5,0.5h800v600h-800Z" stroke="#ddd"/><g><g class="mark-group role-axis" role="graphics-symbol" aria-roledescription="axis" aria-label="X-axis titled 'Parser' for a discrete scale with 8 values: yamlrocks&#xA;0.6.1, yaml_rs (parse_dt=False)&#xA;0.1.6, yaml_rs&#xA;0.1.6, ryaml&#xA;0.5.1, PyYAML (CLoader)&#xA;6.0.3, ending with ruamel.yaml&#xA;0.19.1"><g transform="translate(0.5,600.5)"><path class="background" aria-hidden="true" d="M0,0h0v0h0Z" pointer-events="none"/><g><g class="mark-rule role-axis-tick" pointer-events="none"><line transform="translate(50,0)" x2="0" y2="5" stroke="#888" stroke-width="1" opacity="1"/><line transform="translate(150,0)" x2="0" y2="5" stroke="#888" stroke-width="1" opacity="1"/><line transform="translate(250,0)" x2="0" y2="5" stroke="#888" stroke-width="1" opacity="1"/><line transform="translate(350,0)" x2="0" y2="5" stroke="#888" stroke-width="1" opacity="1"/><line transform="translate(450,0)" x2="0" y2="5" stroke="#888" stroke-width="1" opacity="1"/><line transform="translate(550,0)" x2="0" y2="5" stroke="#888" stroke-width="1" opacity="1"/><line transform="translate(650,0)" x2="0" y2="5" stroke="#888" stroke-width="1" opacity="1"/><line transform="translate(750,0)" x2="0" y2="5" stroke="#888" stroke-width="1" opacity="1"/></g><g class="mark-text role-axis-label" pointer-events="none"><text text-anchor="middle" transform="translate(49.5,15)" font-family="sans-serif" font-size="10px" fill="#000" opacity="1"><tspan>yamlrocks</tspan><tspan x="0" dy="14">0.6.1</tspan></text><text text-anchor="middle" transform="translate(149.5,15)" font-family="sans-serif" font-size="10px" fill="#000" opacity="1"><tspan>yaml_rs (parse_dt=False)</tspan><tspan x="0" dy="14">0.1.6</tspan></text><text text-anchor="middle" transform="translate(249.5,15)" font-family="sans-serif" font-size="10px" fill="#000" opacity="1"><tspan>yaml_rs</tspan><tspan x="0" dy="14">0.1.6</tspan></text><text text-anchor="middle" transform="translate(349.5,15)" font-family="sans-serif" font-size="10px" fill="#000" opacity="1"><tspan>ryaml</tspan><tspan x="0" dy="14">0.5.1</tspan></text><text text-anchor="middle" transform="translate(449.5,15)" font-family="sans-serif" font-size="10px" fill="#000" opacity="1"><tspan>PyYAML (CLoader)</tspan><tspan x="0" dy="14">6.0.3</tspan></text><text text-anchor="middle" transform="translate(549.5,15)" font-family="sans-serif" font-size="10px" fill="#000" opacity="1"><tspan>PyYAML</tspan><tspan x="0" dy="14">6.0.3</tspan></text><text text-anchor="middle" transform="translate(649.5,15)" font-family="sans-serif" font-size="10px" fill="#000" opacity="1"><tspan>oyaml</tspan><tspan x="0" dy="14">1.0</tspan></text><text text-anchor="middle" transform="translate(749.5,15)" font-family="sans-serif" font-size="10px" fill="#000" opacity="1"><tspan>ruamel.yaml</tspan><tspan x="0" dy="14">0.19.1</tspan></text></g><g class="mark-rule role-axis-domain" pointer-events="none"><line transform="translate(0,0)" x2="800" y2="0" stroke="#888" stroke-width="1" opacity="1"/></g><g class="mark-text role-axis-title" pointer-events="none"><text text-anchor="middle" transform="translate(400,44)" font-family="sans-serif" font-size="11px" font-weight="bold" fill="#000" opacity="1">Parser</text></g></g><path class="foreground" aria-hidden="true" d="" pointer-events="none" display="none"/></g></g><g class="mark-group role-axis" role="graphics-symbol" aria-roledescription="axis" aria-label="Y-axis titled 'Execution Time (seconds, lower=better)' for a linear scale with values from 0 to 44"><g transform="translate(0.5,0.5)"><path class="background" aria-hidden="true" d="M0,0h0v0h0Z" pointer-events="none"/><g><g class="mark-rule role-axis-tick" pointer-events="none"><line transform="translate(0,600)" x2="-5" y2="0" stroke="#888" stroke-width="1" opacity="1"/><line transform="translate(0,573)" x2="-5" y2="0" stroke="#888" stroke-width="1" opacity="1"/><line transform="translate(0,546)" x2="-5" y2="0" stroke="#888" stroke-width="1" opacity="1"/><line transform="translate(0,518)" x2="-5" y2="0" stroke="#888" stroke-width="1" opacity="1"/><line transform="translate(0,491)" x2="-5" y2="0" stroke="#888" stroke-width="1" opacity="1"/><line transform="translate(0,464)" x2="-5" y2="0" stroke="#888" stroke-width="1" opacity="1"/><line transform="translate(0,437)" x2="-5" y2="0" stroke="#888" stroke-width="1" opacity="1"/><line transform="translate(0,409)" x2="-5" y2="0" stroke="#888" stroke-width="1" opacity="1"/><line transform="translate(0,382)" x2="-5" y2="0" stroke="#888" stroke-width="1" opacity="1"/><line transform="translate(0,355)" x2="-5" y2="0" stroke="#888" stroke-width="1" opacity="1"/><line transform="translate(0,328)" x2="-5" y2="0" stroke="#888" stroke-width="1" opacity="1"/><line transform="translate(0,300)" x2="-5" y2="0" stroke="#888" stroke-width="1" opacity="1"/><line transform="translate(0,273)" x2="-5" y2="0" stroke="#888" stroke-width="1" opacity="1"/><line transform="translate(0,246)" x2="-5" y2="0" stroke="#888" stroke-width="1" opacity="1"/><line transform="translate(0,219)" x2="-5" y2="0" stroke="#888" stroke-width="1" opacity="1"/><line transform="translate(0,192)" x2="-5" y2="0" stroke="#888" stroke-width="1" opacity="1"/><line transform="translate(0,164)" x2="-5" y2="0" stroke="#888" stroke-width="1" opacity="1"/><line transform="translate(0,137)" x2="-5" y2="0" stroke="#888" stroke-width="1" opacity="1"/><line transform="translate(0,110)" x2="-5" y2="0" stroke="#888" stroke-width="1" opacity="1"/><line transform="translate(0,83)" x2="-5" y2="0" stroke="#888" stroke-width="1" opacity="1"/><line transform="translate(0,55)" x2="-5" y2="0" stroke="#888" stroke-width="1" opacity="1"/><line transform="translate(0,28)" x2="-5" y2="0" stroke="#888" stroke-width="1" opacity="1"/><line transform="translate(0,1)" x2="-5" y2="0" stroke="#888" stroke-width="1" opacity="1"/></g><g class="mark-text role-axis-label" pointer-events="none"><text text-anchor="end" transform="translate(-7,603)" font-family="sans-serif" font-size="10px" fill="#000" opacity="1">0</text><text text-anchor="end" transform="translate(-7,575.7701803970931)" font-family="sans-serif" font-size="10px" fill="#000" opacity="1">2</text><text text-anchor="end" transform="translate(-7,548.5403607941862)" font-family="sans-serif" font-size="10px" fill="#000" opacity="1">4</text><text text-anchor="end" transform="translate(-7,521.3105411912793)" font-family="sans-serif" font-size="10px" fill="#000" opacity="1">6</text><text text-anchor="end" transform="translate(-7,494.08072158837246)" font-family="sans-serif" font-size="10px" fill="#000" opacity="1">8</text><text text-anchor="end" transform="translate(-7,466.8509019854655)" font-family="sans-serif" font-size="10px" fill="#000" opacity="1">10</text><text text-anchor="end" transform="translate(-7,439.62108238255865)" font-family="sans-serif" font-size="10px" fill="#000" opacity="1">12</text><text text-anchor="end" transform="translate(-7,412.3912627796518)" font-family="sans-serif" font-size="10px" fill="#000" opacity="1">14</text><text text-anchor="end" transform="translate(-7,385.1614431767449)" font-family="sans-serif" font-size="10px" fill="#000" opacity="1">16</text><text text-anchor="end" transform="translate(-7,357.931623573838)" font-family="sans-serif" font-size="10px" fill="#000" opacity="1">18</text><text text-anchor="end" transform="translate(-7,330.70180397093105)" font-family="sans-serif" font-size="10px" fill="#000" opacity="1">20</text><text text-anchor="end" transform="translate(-7,303.4719843680242)" font-family="sans-serif" font-size="10px" fill="#000" opacity="1">22</text><text text-anchor="end" transform="translate(-7,276.2421647651173)" font-family="sans-serif" font-size="10px" fill="#000" opacity="1">24</text><text text-anchor="end" transform="translate(-7,249.01234516221044)" font-family="sans-serif" font-size="10px" fill="#000" opacity="1">26</text><text text-anchor="end" transform="translate(-7,221.7825255593035)" font-family="sans-serif" font-size="10px" fill="#000" opacity="1">28</text><text text-anchor="end" transform="translate(-7,194.55270595639664)" font-family="sans-serif" font-size="10px" fill="#000" opacity="1">30</text><text text-anchor="end" transform="translate(-7,167.32288635348976)" font-family="sans-serif" font-size="10px" fill="#000" opacity="1">32</text><text text-anchor="end" transform="translate(-7,140.09306675058284)" font-family="sans-serif" font-size="10px" fill="#000" opacity="1">34</text><text text-anchor="end" transform="translate(-7,112.86324714767596)" font-family="sans-serif" font-size="10px" fill="#000" opacity="1">36</text><text text-anchor="end" transform="translate(-7,85.6334275447691)" font-family="sans-serif" font-size="10px" fill="#000" opacity="1">38</text><text text-anchor="end" transform="translate(-7,58.40360794186216)" font-family="sans-serif" font-size="10px" fill="#000" opacity="1">40</text><text text-anchor="end" transform="translate(-7,31.173788338955298)" font-family="sans-serif" font-size="10px" fill="#000" opacity="1">42</text><text text-anchor="end" transform="translate(-7,3.9439687360484283)" font-family="sans-serif" font-size="10px" fill="#000" opacity="1">44</text></g><g class="mark-rule role-axis-domain" pointer-events="none"><line transform="translate(0,600)" x2="0" y2="-600" stroke="#888" stroke-width="1" opacity="1"/></g><g class="mark-text role-axis-title" pointer-events="none"><text text-anchor="middle" transform="translate(-22.123046875,300) rotate(-90) translate(0,-2)" font-family="sans-serif" font-size="11px" font-weight="bold" fill="#000" opacity="1">Execution Time (seconds, lower=better)</text></g></g><path class="foreground" aria-hidden="true" d="" pointer-events="none" display="none"/></g></g><g class="mark-group role-scope" role="graphics-object" aria-roledescription="group mark container"><g transform="translate(5,595.777307587599)"><path class="background" aria-hidden="true" d="M2.111346206200494,0L87.8886537937995,0C89.05393748690996,0,90,0.9460625130900345,90,2.111346206200494L90,4.222692412400988C90,4.222692412400988,90,4.222692412400988,90,4.222692412400988L0,4.222692412400988C0,4.222692412400988,0,4.222692412400988,0,4.222692412400988L0,2.111346206200494C0,0.9460625130900345,0.9460625130900345,0,2.111346206200494,0Z"/><g clip-path="url(#clip1)"><g class="mark-group role-scope" role="graphics-object" aria-roledescription="group mark container"><g transform="translate(0,-595.777307587599)"><path class="background" aria-hidden="true" d="M0,0h90v0h-90Z"/><g><g class="mark-rect role-mark layer_0_marks" role="graphics-object" aria-roledescription="rect mark container"><path aria-label="Parser: yamlrocks&#xA;0.6.1; Execution Time (seconds, lower=better): 0.310152066667; parser: yamlrocks; Execution Time (s): 0.3102; Slowdown: 1.00" role="graphics-symbol" aria-roledescription="bar" d="M0,595.777307587599h90v4.222692412400988h-90Z" fill="#666666"/></g></g><path class="foreground" aria-hidden="true" d="" display="none"/></g></g></g><path class="foreground" aria-hidden="true" d="" display="none"/></g><g transform="translate(105,595.7201689879746)"><path class="background" aria-hidden="true" d="M2.1399155060126986,0L87.8600844939873,0C89.0411360129034,0,90,0.9588639870966097,90,2.1399155060126986L90,4.279831012025397C90,4.279831012025397,90,4.279831012025397,90,4.279831012025397L0,4.279831012025397C0,4.279831012025397,0,4.279831012025397,0,4.279831012025397L0,2.1399155060126986C0,0.9588639870966097,0.9588639870966097,0,2.1399155060126986,0Z"/><g clip-path="url(#clip2)"><g class="mark-group role-scope" role="graphics-object" aria-roledescription="group mark container"><g transform="translate(0,-595.7201689879746)"><path class="background" aria-hidden="true" d="M0,0h90v0h-90Z"/><g><g class="mark-rect role-mark layer_0_marks" role="graphics-object" aria-roledescription="rect mark container"><path aria-label="Parser: yaml_rs (parse_dt=False)&#xA;0.1.6; Execution Time (seconds, lower=better): 0.314348833333; parser: yaml_rs (parse_dt=False); Execution Time (s): 0.3143; Slowdown: 1.01" role="graphics-symbol" aria-roledescription="bar" d="M0,595.7201689879746h90v4.279831012025397h-90Z" fill="#a6761d"/></g></g><path class="foreground" aria-hidden="true" d="" display="none"/></g></g></g><path class="foreground" aria-hidden="true" d="" display="none"/></g><g transform="translate(205,595.6612559117726)"><path class="background" aria-hidden="true" d="M2.169372044113686,0L87.83062795588631,0C89.02793698074991,0,90,0.9720630192500822,90,2.169372044113686L90,4.338744088227372C90,4.338744088227372,90,4.338744088227372,90,4.338744088227372L0,4.338744088227372C0,4.338744088227372,0,4.338744088227372,0,4.338744088227372L0,2.169372044113686C0,0.9720630192500822,0.9720630192500822,0,2.169372044113686,0Z"/><g clip-path="url(#clip3)"><g class="mark-group role-scope" role="graphics-object" aria-roledescription="group mark container"><g transform="translate(0,-595.6612559117726)"><path class="background" aria-hidden="true" d="M0,0h90v0h-90Z"/><g><g class="mark-rect role-mark layer_0_marks" role="graphics-object" aria-roledescription="rect mark container"><path aria-label="Parser: yaml_rs&#xA;0.1.6; Execution Time (seconds, lower=better): 0.318675933333; parser: yaml_rs; Execution Time (s): 0.3187; Slowdown: 1.03" role="graphics-symbol" aria-roledescription="bar" d="M0,595.6612559117726h90v4.338744088227372h-90Z" fill="#e6ab02"/></g></g><path class="foreground" aria-hidden="true" d="" display="none"/></g></g></g><path class="foreground" aria-hidden="true" d="" display="none"/></g><g transform="translate(305,588.248984511445)"><path class="background" aria-hidden="true" d="M5.875507744277513,0L84.12449225572249,0C87.3672732563201,0,90,2.632726743679903,90,5.875507744277513L90,11.751015488555026C90,11.751015488555026,90,11.751015488555026,90,11.751015488555026L0,11.751015488555026C0,11.751015488555026,0,11.751015488555026,0,11.751015488555026L0,5.875507744277513C0,2.632726743679903,2.632726743679903,0,5.875507744277513,0Z"/><g clip-path="url(#clip4)"><g class="mark-group role-scope" role="graphics-object" aria-roledescription="group mark container"><g transform="translate(0,-588.248984511445)"><path class="background" aria-hidden="true" d="M0,0h90v0h-90Z"/><g><g class="mark-rect role-mark layer_0_marks" role="graphics-object" aria-roledescription="rect mark container"><path aria-label="Parser: ryaml&#xA;0.5.1; Execution Time (seconds, lower=better): 0.863099033333; parser: ryaml; Execution Time (s): 0.8631; Slowdown: 2.78" role="graphics-symbol" aria-roledescription="bar" d="M0,588.248984511445h90v11.751015488555026h-90Z" fill="#66a61e"/></g></g><path class="foreground" aria-hidden="true" d="" display="none"/></g></g></g><path class="foreground" aria-hidden="true" d="" display="none"/></g><g transform="translate(405,562.9688921511279)"><path class="background" aria-hidden="true" d="M6,0L84,0C87.311490146964,0,90,2.688509853036,90,6L90,37.031107848872125C90,37.031107848872125,90,37.031107848872125,90,37.031107848872125L0,37.031107848872125C0,37.031107848872125,0,37.031107848872125,0,37.031107848872125L0,6C0,2.688509853036,2.688509853036,0,6,0Z"/><g clip-path="url(#clip5)"><g class="mark-group role-scope" role="graphics-object" aria-roledescription="group mark container"><g transform="translate(0,-562.9688921511279)"><path class="background" aria-hidden="true" d="M0,0h90v0h-90Z"/><g><g class="mark-rect role-mark layer_0_marks" role="graphics-object" aria-roledescription="rect mark container"><path aria-label="Parser: PyYAML (CLoader)&#xA;6.0.3; Execution Time (seconds, lower=better): 2.71989373333; parser: PyYAML (CLoader); Execution Time (s): 2.7199; Slowdown: 8.77" role="graphics-symbol" aria-roledescription="bar" d="M0,562.9688921511279h90v37.031107848872125h-90Z" fill="#d95f02"/></g></g><path class="foreground" aria-hidden="true" d="" display="none"/></g></g></g><path class="foreground" aria-hidden="true" d="" display="none"/></g><g transform="translate(505,209.7160793783559)"><path class="background" aria-hidden="true" d="M6,0L84,0C87.311490146964,0,90,2.688509853036,90,6L90,390.28392062164414C90,390.28392062164414,90,390.28392062164414,90,390.28392062164414L0,390.28392062164414C0,390.28392062164414,0,390.28392062164414,0,390.28392062164414L0,6C0,2.688509853036,2.688509853036,0,6,0Z"/><g clip-path="url(#clip6)"><g class="mark-group role-scope" role="graphics-object" aria-roledescription="group mark container"><g transform="translate(0,-209.7160793783559)"><path class="background" aria-hidden="true" d="M0,0h90v0h-90Z"/><g><g class="mark-rect role-mark layer_0_marks" role="graphics-object" aria-roledescription="rect mark container"><path aria-label="Parser: PyYAML&#xA;6.0.3; Execution Time (seconds, lower=better): 28.6659204; parser: PyYAML; Execution Time (s): 28.6659; Slowdown: 92.43" role="graphics-symbol" aria-roledescription="bar" d="M0,209.7160793783559h90v390.28392062164414h-90Z" fill="#1b9e77"/></g></g><path class="foreground" aria-hidden="true" d="" display="none"/></g></g></g><path class="foreground" aria-hidden="true" d="" display="none"/></g><g transform="translate(605,173.46501373355113)"><path class="background" aria-hidden="true" d="M6,0L84,0C87.311490146964,0,90,2.688509853036,90,6L90,426.53498626644887C90,426.53498626644887,90,426.53498626644887,90,426.53498626644887L0,426.53498626644887C0,426.53498626644887,0,426.53498626644887,0,426.53498626644887L0,6C0,2.688509853036,2.688509853036,0,6,0Z"/><g clip-path="url(#clip7)"><g class="mark-group role-scope" role="graphics-object" aria-roledescription="group mark container"><g transform="translate(0,-173.46501373355113)"><path class="background" aria-hidden="true" d="M0,0h90v0h-90Z"/><g><g class="mark-rect role-mark layer_0_marks" role="graphics-object" aria-roledescription="rect mark container"><path aria-label="Parser: oyaml&#xA;1.0; Execution Time (seconds, lower=better): 31.3285209; parser: oyaml; Execution Time (s): 31.3285; Slowdown: 101.01" role="graphics-symbol" aria-roledescription="bar" d="M0,173.46501373355113h90v426.53498626644887h-90Z" fill="#7570b3"/></g></g><path class="foreground" aria-hidden="true" d="" display="none"/></g></g></g><path class="foreground" aria-hidden="true" d="" display="none"/></g><g transform="translate(705,28.57142857142867)"><path class="background" aria-hidden="true" d="M6,0L84,0C87.311490146964,0,90,2.688509853036,90,6L90,571.4285714285713C90,571.4285714285713,90,571.4285714285713,90,571.4285714285713L0,571.4285714285713C0,571.4285714285713,0,571.4285714285713,0,571.4285714285713L0,6C0,2.688509853036,2.688509853036,0,6,0Z"/><g clip-path="url(#clip8)"><g class="mark-group role-scope" role="graphics-object" aria-roledescription="group mark container"><g transform="translate(0,-28.57142857142867)"><path class="background" aria-hidden="true" d="M0,0h90v0h-90Z"/><g><g class="mark-rect role-mark layer_0_marks" role="graphics-object" aria-roledescription="rect mark container"><path aria-label="Parser: ruamel.yaml&#xA;0.19.1; Execution Time (seconds, lower=better): 41.9707937667; parser: ruamel.yaml; Execution Time (s): 41.9708; Slowdown: 135.32" role="graphics-symbol" aria-roledescription="bar" d="M0,28.57142857142867h90v571.4285714285713h-90Z" fill="#e7298a"/></g></g><path class="foreground" aria-hidden="true" d="" display="none"/></g></g></g><path class="foreground" aria-hidden="true" d="" display="none"/></g></g><g class="mark-text role-mark layer_1_marks" role="graphics-object" aria-roledescription="text mark container"><text aria-label="Parser: yamlrocks&#xA;0.6.1; Execution Time (seconds, lower=better): 0.310152066667; parser: yamlrocks; label: 0.3102s (x1.00); Execution Time (s): 0.3102; Slowdown: 1.00" role="graphics-symbol" aria-roledescription="text mark" text-anchor="middle" transform="translate(50,591.777307587599)" font-family="sans-serif" font-size="9px" font-weight="bold" fill="#666666">0.3102s (x1.00)</text><text aria-label="Parser: yaml_rs (parse_dt=False)&#xA;0.1.6; Execution Time (seconds, lower=better): 0.314348833333; parser: yaml_rs (parse_dt=False); label: 0.3143s (x1.01); Execution Time (s): 0.3143; Slowdown: 1.01" role="graphics-symbol" aria-roledescription="text mark" text-anchor="middle" transform="translate(150,591.7201689879746)" font-family="sans-serif" font-size="9px" font-weight="bold" fill="#a6761d">0.3143s (x1.01)</text><text aria-label="Parser: yaml_rs&#xA;0.1.6; Execution Time (seconds, lower=better): 0.318675933333; parser: yaml_rs; label: 0.3187s (x1.03); Execution Time (s): 0.3187; Slowdown: 1.03" role="graphics-symbol" aria-roledescription="text mark" text-anchor="middle" transform="translate(250,591.6612559117726)" font-family="sans-serif" font-size="9px" font-weight="bold" fill="#e6ab02">0.3187s (x1.03)</text><text aria-label="Parser: ryaml&#xA;0.5.1; Execution Time (seconds, lower=better): 0.863099033333; parser: ryaml; label: 0.8631s (x2.78); Execution Time (s): 0.8631; Slowdown: 2.78" role="graphics-symbol" aria-roledescription="text mark" text-anchor="middle" transform="translate(350,584.248984511445)" font-family="sans-serif" font-size="9px" font-weight="bold" fill="#66a61e">0.8631s (x2.78)</text><text aria-label="Parser: PyYAML (CLoader)&#xA;6.0.3; Execution Time (seconds, lower=better): 2.71989373333; parser: PyYAML (CLoader); label: 2.7199s (x8.77); Execution Time (s): 2.7199; Slowdown: 8.77" role="graphics-symbol" aria-roledescription="text mark" text-anchor="middle" transform="translate(450,558.9688921511279)" font-family="sans-serif" font-size="9px" font-weight="bold" fill="#d95f02">2.7199s (x8.77)</text><text aria-label="Parser: PyYAML&#xA;6.0.3; Execution Time (seconds, lower=better): 28.6659204; parser: PyYAML; label: 28.6659s (x92.43); Execution Time (s): 28.6659; Slowdown: 92.43" role="graphics-symbol" aria-roledescription="text mark" text-anchor="middle" transform="translate(550,205.7160793783559)" font-family="sans-serif" font-size="9px" font-weight="bold" fill="#1b9e77">28.6659s (x92.43)</text><text aria-label="Parser: oyaml&#xA;1.0; Execution Time (seconds, lower=better): 31.3285209; parser: oyaml; label: 31.3285s (x101.01); Execution Time (s): 31.3285; Slowdown: 101.01" role="graphics-symbol" aria-roledescription="text mark" text-anchor="middle" transform="translate(650,169.46501373355113)" font-family="sans-serif" font-size="9px" font-weight="bold" fill="#7570b3">31.3285s (x101.01)</text><text aria-label="Parser: ruamel.yaml&#xA;0.19.1; Execution Time (seconds, lower=better): 41.9707937667; parser: ruamel.yaml; label: 41.9708s (x135.32); Execution Time (s): 41.9708; Slowdown: 135.32" role="graphics-symbol" aria-roledescription="text mark" text-anchor="middle" transform="translate(750,24.57142857142867)" font-family="sans-serif" font-size="9px" font-weight="bold" fill="#e7298a">41.9708s (x135.32)</text></g><g class="mark-group role-title"><g transform="translate(400,-35.05603126395157)"><path class="background" aria-hidden="true" d="M0,0h0v0h0Z" pointer-events="none"/><g><g class="mark-text role-title-text" role="graphics-symbol" aria-roledescription="title" aria-label="Title text 'YAML parsers benchmark (loads)'" pointer-events="none"><text text-anchor="middle" transform="translate(0,10)" font-family="sans-serif" font-size="13px" font-weight="bold" fill="#000" opacity="1">YAML parsers benchmark (loads)</text></g><g class="mark-text role-title-subtitle" role="graphics-symbol" aria-roledescription="subtitle" aria-label="Subtitle text 'Python: 3.14.6 (Windows 2025Server) | CPU: AMD EPYC 7763 64-Core Processor'" pointer-events="none"><text text-anchor="middle" transform="translate(0,25)" font-family="sans-serif" font-size="12px" fill="#000" opacity="1">Python: 3.14.6 (Windows 2025Server) | CPU: AMD EPYC 7763 64-Core Processor</text></g></g><path class="foreground" aria-hidden="true" d="" pointer-events="none" display="none"/></g></g></g><path class="foreground" aria-hidden="true" d="" display="none"/></g></g></g><defs><clipPath id="clip1"><path d="M2.111346206200494,0L87.8886537937995,0C89.05393748690996,0,90,0.9460625130900345,90,2.111346206200494L90,4.222692412400988C90,4.222692412400988,90,4.222692412400988,90,4.222692412400988L0,4.222692412400988C0,4.222692412400988,0,4.222692412400988,0,4.222692412400988L0,2.111346206200494C0,0.9460625130900345,0.9460625130900345,0,2.111346206200494,0Z"/></clipPath><clipPath id="clip2"><path d="M2.1399155060126986,0L87.8600844939873,0C89.0411360129034,0,90,0.9588639870966097,90,2.1399155060126986L90,4.279831012025397C90,4.279831012025397,90,4.279831012025397,90,4.279831012025397L0,4.279831012025397C0,4.279831012025397,0,4.279831012025397,0,4.279831012025397L0,2.1399155060126986C0,0.9588639870966097,0.9588639870966097,0,2.1399155060126986,0Z"/></clipPath><clipPath id="clip3"><path d="M2.169372044113686,0L87.83062795588631,0C89.02793698074991,0,90,0.9720630192500822,90,2.169372044113686L90,4.338744088227372C90,4.338744088227372,90,4.338744088227372,90,4.338744088227372L0,4.338744088227372C0,4.338744088227372,0,4.338744088227372,0,4.338744088227372L0,2.169372044113686C0,0.9720630192500822,0.9720630192500822,0,2.169372044113686,0Z"/></clipPath><clipPath id="clip4"><path d="M5.875507744277513,0L84.12449225572249,0C87.3672732563201,0,90,2.632726743679903,90,5.875507744277513L90,11.751015488555026C90,11.751015488555026,90,11.751015488555026,90,11.751015488555026L0,11.751015488555026C0,11.751015488555026,0,11.751015488555026,0,11.751015488555026L0,5.875507744277513C0,2.632726743679903,2.632726743679903,0,5.875507744277513,0Z"/></clipPath><clipPath id="clip5"><path d="M6,0L84,0C87.311490146964,0,90,2.688509853036,90,6L90,37.031107848872125C90,37.031107848872125,90,37.031107848872125,90,37.031107848872125L0,37.031107848872125C0,37.031107848872125,0,37.031107848872125,0,37.031107848872125L0,6C0,2.688509853036,2.688509853036,0,6,0Z"/></clipPath><clipPath id="clip6"><path d="M6,0L84,0C87.311490146964,0,90,2.688509853036,90,6L90,390.28392062164414C90,390.28392062164414,90,390.28392062164414,90,390.28392062164414L0,390.28392062164414C0,390.28392062164414,0,390.28392062164414,0,390.28392062164414L0,6C0,2.688509853036,2.688509853036,0,6,0Z"/></clipPath><clipPath id="clip7"><path d="M6,0L84,0C87.311490146964,0,90,2.688509853036,90,6L90,426.53498626644887C90,426.53498626644887,90,426.53498626644887,90,426.53498626644887L0,426.53498626644887C0,426.53498626644887,0,426.53498626644887,0,426.53498626644887L0,6C0,2.688509853036,2.688509853036,0,6,0Z"/></clipPath><clipPath id="clip8"><path d="M6,0L84,0C87.311490146964,0,90,2.688509853036,90,6L90,571.4285714285713C90,571.4285714285713,90,571.4285714285713,90,571.4285714285713L0,571.4285714285713C0,571.4285714285713,0,571.4285714285713,0,571.4285714285713L0,6C0,2.688509853036,2.688509853036,0,6,0Z"/></clipPath></defs></svg>