<svg xmlns="http://www.w3.org/2000/svg" xmlns:xlink="http://www.w3.org/1999/xlink" version="1.1" class="marks" width="844" height="687" viewBox="0 0 844 687"><rect width="844" height="687" fill="white"/><g fill="none" stroke-miterlimit="10" transform="translate(39,36)"><g class="mark-group role-frame root" role="graphics-object" aria-roledescription="group mark container"><g transform="translate(0,0)"><path class="background" aria-hidden="true" d="M0.5,0.5h800v600h-800Z" stroke="#ddd"/><g><g class="mark-group role-axis" role="graphics-symbol" aria-roledescription="axis" aria-label="X-axis titled 'Parser' for a discrete scale with 8 values: yamlrocks&#xA;0.6.1, yaml_rs (parse_dt=False)&#xA;0.1.6, yaml_rs&#xA;0.1.6, ryaml&#xA;0.5.1, PyYAML (CLoader)&#xA;6.0.3, ending with ruamel.yaml&#xA;0.19.1"><g transform="translate(0.5,600.5)"><path class="background" aria-hidden="true" d="M0,0h0v0h0Z" pointer-events="none"/><g><g class="mark-rule role-axis-tick" pointer-events="none"><line transform="translate(50,0)" x2="0" y2="5" stroke="#888" stroke-width="1" opacity="1"/><line transform="translate(150,0)" x2="0" y2="5" stroke="#888" stroke-width="1" opacity="1"/><line transform="translate(250,0)" x2="0" y2="5" stroke="#888" stroke-width="1" opacity="1"/><line transform="translate(350,0)" x2="0" y2="5" stroke="#888" stroke-width="1" opacity="1"/><line transform="translate(450,0)" x2="0" y2="5" stroke="#888" stroke-width="1" opacity="1"/><line transform="translate(550,0)" x2="0" y2="5" stroke="#888" stroke-width="1" opacity="1"/><line transform="translate(650,0)" x2="0" y2="5" stroke="#888" stroke-width="1" opacity="1"/><line transform="translate(750,0)" x2="0" y2="5" stroke="#888" stroke-width="1" opacity="1"/></g><g class="mark-text role-axis-label" pointer-events="none"><text text-anchor="middle" transform="translate(49.5,15)" font-family="sans-serif" font-size="10px" fill="#000" opacity="1"><tspan>yamlrocks</tspan><tspan x="0" dy="14">0.6.1</tspan></text><text text-anchor="middle" transform="translate(149.5,15)" font-family="sans-serif" font-size="10px" fill="#000" opacity="1"><tspan>yaml_rs (parse_dt=False)</tspan><tspan x="0" dy="14">0.1.6</tspan></text><text text-anchor="middle" transform="translate(249.5,15)" font-family="sans-serif" font-size="10px" fill="#000" opacity="1"><tspan>yaml_rs</tspan><tspan x="0" dy="14">0.1.6</tspan></text><text text-anchor="middle" transform="translate(349.5,15)" font-family="sans-serif" font-size="10px" fill="#000" opacity="1"><tspan>ryaml</tspan><tspan x="0" dy="14">0.5.1</tspan></text><text text-anchor="middle" transform="translate(449.5,15)" font-family="sans-serif" font-size="10px" fill="#000" opacity="1"><tspan>PyYAML (CLoader)</tspan><tspan x="0" dy="14">6.0.3</tspan></text><text text-anchor="middle" transform="translate(549.5,15)" font-family="sans-serif" font-size="10px" fill="#000" opacity="1"><tspan>oyaml</tspan><tspan x="0" dy="14">1.0</tspan></text><text text-anchor="middle" transform="translate(649.5,15)" font-family="sans-serif" font-size="10px" fill="#000" opacity="1"><tspan>PyYAML</tspan><tspan x="0" dy="14">6.0.3</tspan></text><text text-anchor="middle" transform="translate(749.5,15)" font-family="sans-serif" font-size="10px" fill="#000" opacity="1"><tspan>ruamel.yaml</tspan><tspan x="0" dy="14">0.19.1</tspan></text></g><g class="mark-rule role-axis-domain" pointer-events="none"><line transform="translate(0,0)" x2="800" y2="0" stroke="#888" stroke-width="1" opacity="1"/></g><g class="mark-text role-axis-title" pointer-events="none"><text text-anchor="middle" transform="translate(400,44)" font-family="sans-serif" font-size="11px" font-weight="bold" fill="#000" opacity="1">Parser</text></g></g><path class="foreground" aria-hidden="true" d="" pointer-events="none" display="none"/></g></g><g class="mark-group role-axis" role="graphics-symbol" aria-roledescription="axis" aria-label="Y-axis titled 'Execution Time (seconds, lower=better)' for a linear scale with values from 0 to 45"><g transform="translate(0.5,0.5)"><path class="background" aria-hidden="true" d="M0,0h0v0h0Z" pointer-events="none"/><g><g class="mark-rule role-axis-tick" pointer-events="none"><line transform="translate(0,600)" x2="-5" y2="0" stroke="#888" stroke-width="1" opacity="1"/><line transform="translate(0,573)" x2="-5" y2="0" stroke="#888" stroke-width="1" opacity="1"/><line transform="translate(0,547)" x2="-5" y2="0" stroke="#888" stroke-width="1" opacity="1"/><line transform="translate(0,520)" x2="-5" y2="0" stroke="#888" stroke-width="1" opacity="1"/><line transform="translate(0,493)" x2="-5" y2="0" stroke="#888" stroke-width="1" opacity="1"/><line transform="translate(0,467)" x2="-5" y2="0" stroke="#888" stroke-width="1" opacity="1"/><line transform="translate(0,440)" x2="-5" y2="0" stroke="#888" stroke-width="1" opacity="1"/><line transform="translate(0,413)" x2="-5" y2="0" stroke="#888" stroke-width="1" opacity="1"/><line transform="translate(0,386)" x2="-5" y2="0" stroke="#888" stroke-width="1" opacity="1"/><line transform="translate(0,360)" x2="-5" y2="0" stroke="#888" stroke-width="1" opacity="1"/><line transform="translate(0,333)" x2="-5" y2="0" stroke="#888" stroke-width="1" opacity="1"/><line transform="translate(0,306)" x2="-5" y2="0" stroke="#888" stroke-width="1" opacity="1"/><line transform="translate(0,280)" x2="-5" y2="0" stroke="#888" stroke-width="1" opacity="1"/><line transform="translate(0,253)" x2="-5" y2="0" stroke="#888" stroke-width="1" opacity="1"/><line transform="translate(0,226)" x2="-5" y2="0" stroke="#888" stroke-width="1" opacity="1"/><line transform="translate(0,200)" x2="-5" y2="0" stroke="#888" stroke-width="1" opacity="1"/><line transform="translate(0,173)" x2="-5" y2="0" stroke="#888" stroke-width="1" opacity="1"/><line transform="translate(0,146)" x2="-5" y2="0" stroke="#888" stroke-width="1" opacity="1"/><line transform="translate(0,120)" x2="-5" y2="0" stroke="#888" stroke-width="1" opacity="1"/><line transform="translate(0,93)" x2="-5" y2="0" stroke="#888" stroke-width="1" opacity="1"/><line transform="translate(0,66)" x2="-5" y2="0" stroke="#888" stroke-width="1" opacity="1"/><line transform="translate(0,39)" x2="-5" y2="0" stroke="#888" stroke-width="1" opacity="1"/><line transform="translate(0,13)" x2="-5" y2="0" stroke="#888" stroke-width="1" opacity="1"/></g><g class="mark-text role-axis-label" pointer-events="none"><text text-anchor="end" transform="translate(-7,603)" font-family="sans-serif" font-size="10px" fill="#000" opacity="1">0</text><text text-anchor="end" transform="translate(-7,576.308909654078)" font-family="sans-serif" font-size="10px" fill="#000" opacity="1">2</text><text text-anchor="end" transform="translate(-7,549.617819308156)" font-family="sans-serif" font-size="10px" fill="#000" opacity="1">4</text><text text-anchor="end" transform="translate(-7,522.9267289622339)" font-family="sans-serif" font-size="10px" fill="#000" opacity="1">6</text><text text-anchor="end" transform="translate(-7,496.235638616312)" font-family="sans-serif" font-size="10px" fill="#000" opacity="1">8</text><text text-anchor="end" transform="translate(-7,469.54454827038995)" font-family="sans-serif" font-size="10px" fill="#000" opacity="1">10</text><text text-anchor="end" transform="translate(-7,442.85345792446793)" font-family="sans-serif" font-size="10px" fill="#000" opacity="1">12</text><text text-anchor="end" transform="translate(-7,416.16236757854597)" font-family="sans-serif" font-size="10px" fill="#000" opacity="1">14</text><text text-anchor="end" transform="translate(-7,389.47127723262395)" font-family="sans-serif" font-size="10px" fill="#000" opacity="1">16</text><text text-anchor="end" transform="translate(-7,362.7801868867019)" font-family="sans-serif" font-size="10px" fill="#000" opacity="1">18</text><text text-anchor="end" transform="translate(-7,336.0890965407799)" font-family="sans-serif" font-size="10px" fill="#000" opacity="1">20</text><text text-anchor="end" transform="translate(-7,309.3980061948578)" font-family="sans-serif" font-size="10px" fill="#000" opacity="1">22</text><text text-anchor="end" transform="translate(-7,282.7069158489358)" font-family="sans-serif" font-size="10px" fill="#000" opacity="1">24</text><text text-anchor="end" transform="translate(-7,256.01582550301384)" font-family="sans-serif" font-size="10px" fill="#000" opacity="1">26</text><text text-anchor="end" transform="translate(-7,229.32473515709182)" font-family="sans-serif" font-size="10px" fill="#000" opacity="1">28</text><text text-anchor="end" transform="translate(-7,202.6336448111698)" font-family="sans-serif" font-size="10px" fill="#000" opacity="1">30</text><text text-anchor="end" transform="translate(-7,175.9425544652478)" font-family="sans-serif" font-size="10px" fill="#000" opacity="1">32</text><text text-anchor="end" transform="translate(-7,149.2514641193258)" font-family="sans-serif" font-size="10px" fill="#000" opacity="1">34</text><text text-anchor="end" transform="translate(-7,122.56037377340378)" font-family="sans-serif" font-size="10px" fill="#000" opacity="1">36</text><text text-anchor="end" transform="translate(-7,95.86928342748178)" font-family="sans-serif" font-size="10px" fill="#000" opacity="1">38</text><text text-anchor="end" transform="translate(-7,69.17819308155977)" font-family="sans-serif" font-size="10px" fill="#000" opacity="1">40</text><text text-anchor="end" transform="translate(-7,42.48710273563769)" font-family="sans-serif" font-size="10px" fill="#000" opacity="1">42</text><text text-anchor="end" transform="translate(-7,15.796012389715683)" font-family="sans-serif" font-size="10px" fill="#000" opacity="1">44</text></g><g class="mark-rule role-axis-domain" pointer-events="none"><line transform="translate(0,600)" x2="0" y2="-600" stroke="#888" stroke-width="1" opacity="1"/></g><g class="mark-text role-axis-title" pointer-events="none"><text text-anchor="middle" transform="translate(-22.123046875,300) rotate(-90) translate(0,-2)" font-family="sans-serif" font-size="11px" font-weight="bold" fill="#000" opacity="1">Execution Time (seconds, lower=better)</text></g></g><path class="foreground" aria-hidden="true" d="" pointer-events="none" display="none"/></g></g><g class="mark-group role-scope" role="graphics-object" aria-roledescription="group mark container"><g transform="translate(5,595.7076278208702)"><path class="background" aria-hidden="true" d="M2.1461860895648783,0L87.85381391043512,0C89.038326258626,0,90,0.9616737413739964,90,2.1461860895648783L90,4.292372179129757C90,4.292372179129757,90,4.292372179129757,90,4.292372179129757L0,4.292372179129757C0,4.292372179129757,0,4.292372179129757,0,4.292372179129757L0,2.1461860895648783C0,0.9616737413739964,0.9616737413739964,0,2.1461860895648783,0Z"/><g clip-path="url(#clip1)"><g class="mark-group role-scope" role="graphics-object" aria-roledescription="group mark container"><g transform="translate(0,-595.7076278208702)"><path class="background" aria-hidden="true" d="M0,0h90v0h-90Z"/><g><g class="mark-rect role-mark layer_0_marks" role="graphics-object" aria-roledescription="rect mark container"><path aria-label="Parser: yamlrocks&#xA;0.6.1; Execution Time (seconds, lower=better): 0.321633333333; parser: yamlrocks; Execution Time (s): 0.3216; Slowdown: 1.00" role="graphics-symbol" aria-roledescription="bar" d="M0,595.7076278208702h90v4.292372179129757h-90Z" fill="#666666"/></g></g><path class="foreground" aria-hidden="true" d="" display="none"/></g></g></g><path class="foreground" aria-hidden="true" d="" display="none"/></g><g transform="translate(105,595.6825319680237)"><path class="background" aria-hidden="true" d="M2.158734015988159,0L87.84126598401184,0C89.03270372132198,0,90,0.9672962786780234,90,2.158734015988159L90,4.317468031976318C90,4.317468031976318,90,4.317468031976318,90,4.317468031976318L0,4.317468031976318C0,4.317468031976318,0,4.317468031976318,0,4.317468031976318L0,2.158734015988159C0,0.9672962786780234,0.9672962786780234,0,2.158734015988159,0Z"/><g clip-path="url(#clip2)"><g class="mark-group role-scope" role="graphics-object" aria-roledescription="group mark container"><g transform="translate(0,-595.6825319680237)"><path class="background" aria-hidden="true" d="M0,0h90v0h-90Z"/><g><g class="mark-rect role-mark layer_0_marks" role="graphics-object" aria-roledescription="rect mark container"><path aria-label="Parser: yaml_rs (parse_dt=False)&#xA;0.1.6; Execution Time (seconds, lower=better): 0.3235138; parser: yaml_rs (parse_dt=False); Execution Time (s): 0.3235; Slowdown: 1.01" role="graphics-symbol" aria-roledescription="bar" d="M0,595.6825319680237h90v4.317468031976318h-90Z" fill="#a6761d"/></g></g><path class="foreground" aria-hidden="true" d="" display="none"/></g></g></g><path class="foreground" aria-hidden="true" d="" display="none"/></g><g transform="translate(205,595.6267413612798)"><path class="background" aria-hidden="true" d="M2.1866293193601223,0L87.81337068063988,0C89.02020425499381,0,90,0.9797957450061818,90,2.1866293193601223L90,4.373258638720245C90,4.373258638720245,90,4.373258638720245,90,4.373258638720245L0,4.373258638720245C0,4.373258638720245,0,4.373258638720245,0,4.373258638720245L0,2.1866293193601223C0,0.9797957450061818,0.9797957450061818,0,2.1866293193601223,0Z"/><g clip-path="url(#clip3)"><g class="mark-group role-scope" role="graphics-object" aria-roledescription="group mark container"><g transform="translate(0,-595.6267413612798)"><path class="background" aria-hidden="true" d="M0,0h90v0h-90Z"/><g><g class="mark-rect role-mark layer_0_marks" role="graphics-object" aria-roledescription="rect mark container"><path aria-label="Parser: yaml_rs&#xA;0.1.6; Execution Time (seconds, lower=better): 0.327694266667; parser: yaml_rs; Execution Time (s): 0.3277; Slowdown: 1.02" role="graphics-symbol" aria-roledescription="bar" d="M0,595.6267413612798h90v4.373258638720245h-90Z" fill="#e6ab02"/></g></g><path class="foreground" aria-hidden="true" d="" display="none"/></g></g></g><path class="foreground" aria-hidden="true" d="" display="none"/></g><g transform="translate(305,588.1325638149488)"><path class="background" aria-hidden="true" d="M5.933718092525623,0L84.06628190747438,0C87.34119007385115,0,90,2.658809926148853,90,5.933718092525623L90,11.867436185051247C90,11.867436185051247,90,11.867436185051247,90,11.867436185051247L0,11.867436185051247C0,11.867436185051247,0,11.867436185051247,0,11.867436185051247L0,5.933718092525623C0,2.658809926148853,2.658809926148853,0,5.933718092525623,0Z"/><g clip-path="url(#clip4)"><g class="mark-group role-scope" role="graphics-object" aria-roledescription="group mark container"><g transform="translate(0,-588.1325638149488)"><path class="background" aria-hidden="true" d="M0,0h90v0h-90Z"/><g><g class="mark-rect role-mark layer_0_marks" role="graphics-object" aria-roledescription="rect mark container"><path aria-label="Parser: ryaml&#xA;0.5.1; Execution Time (seconds, lower=better): 0.889243266667; parser: ryaml; Execution Time (s): 0.8892; Slowdown: 2.76" role="graphics-symbol" aria-roledescription="bar" d="M0,588.1325638149488h90v11.867436185051247h-90Z" fill="#66a61e"/></g></g><path class="foreground" aria-hidden="true" d="" display="none"/></g></g></g><path class="foreground" aria-hidden="true" d="" display="none"/></g><g transform="translate(405,562.9246421979626)"><path class="background" aria-hidden="true" d="M6,0L84,0C87.311490146964,0,90,2.688509853036,90,6L90,37.07535780203739C90,37.07535780203739,90,37.07535780203739,90,37.07535780203739L0,37.07535780203739C0,37.07535780203739,0,37.07535780203739,0,37.07535780203739L0,6C0,2.688509853036,2.688509853036,0,6,0Z"/><g clip-path="url(#clip5)"><g class="mark-group role-scope" role="graphics-object" aria-roledescription="group mark container"><g transform="translate(0,-562.9246421979626)"><path class="background" aria-hidden="true" d="M0,0h90v0h-90Z"/><g><g class="mark-rect role-mark layer_0_marks" role="graphics-object" aria-roledescription="rect mark container"><path aria-label="Parser: PyYAML (CLoader)&#xA;6.0.3; Execution Time (seconds, lower=better): 2.7781074; parser: PyYAML (CLoader); Execution Time (s): 2.7781; Slowdown: 8.64" role="graphics-symbol" aria-roledescription="bar" d="M0,562.9246421979626h90v37.07535780203739h-90Z" fill="#d95f02"/></g></g><path class="foreground" aria-hidden="true" d="" display="none"/></g></g></g><path class="foreground" aria-hidden="true" d="" display="none"/></g><g transform="translate(505,215.50645277789187)"><path class="background" aria-hidden="true" d="M6,0L84,0C87.311490146964,0,90,2.688509853036,90,6L90,384.49354722210813C90,384.49354722210813,90,384.49354722210813,90,384.49354722210813L0,384.49354722210813C0,384.49354722210813,0,384.49354722210813,0,384.49354722210813L0,6C0,2.688509853036,2.688509853036,0,6,0Z"/><g clip-path="url(#clip6)"><g class="mark-group role-scope" role="graphics-object" aria-roledescription="group mark container"><g transform="translate(0,-215.50645277789187)"><path class="background" aria-hidden="true" d="M0,0h90v0h-90Z"/><g><g class="mark-rect role-mark layer_0_marks" role="graphics-object" aria-roledescription="rect mark container"><path aria-label="Parser: oyaml&#xA;1.0; Execution Time (seconds, lower=better): 28.8106287333; parser: oyaml; Execution Time (s): 28.8106; Slowdown: 89.58" role="graphics-symbol" aria-roledescription="bar" d="M0,215.50645277789187h90v384.49354722210813h-90Z" fill="#7570b3"/></g></g><path class="foreground" aria-hidden="true" d="" display="none"/></g></g></g><path class="foreground" aria-hidden="true" d="" display="none"/></g><g transform="translate(605,214.8134315177534)"><path class="background" aria-hidden="true" d="M6,0L84,0C87.311490146964,0,90,2.688509853036,90,6L90,385.18656848224657C90,385.18656848224657,90,385.18656848224657,90,385.18656848224657L0,385.18656848224657C0,385.18656848224657,0,385.18656848224657,0,385.18656848224657L0,6C0,2.688509853036,2.688509853036,0,6,0Z"/><g clip-path="url(#clip7)"><g class="mark-group role-scope" role="graphics-object" aria-roledescription="group mark container"><g transform="translate(0,-214.8134315177534)"><path class="background" aria-hidden="true" d="M0,0h90v0h-90Z"/><g><g class="mark-rect role-mark layer_0_marks" role="graphics-object" aria-roledescription="rect mark container"><path aria-label="Parser: PyYAML&#xA;6.0.3; Execution Time (seconds, lower=better): 28.8625577667; parser: PyYAML; Execution Time (s): 28.8626; Slowdown: 89.74" role="graphics-symbol" aria-roledescription="bar" d="M0,214.8134315177534h90v385.18656848224657h-90Z" fill="#1b9e77"/></g></g><path class="foreground" aria-hidden="true" d="" display="none"/></g></g></g><path class="foreground" aria-hidden="true" d="" display="none"/></g><g transform="translate(705,28.571428571428537)"><path class="background" aria-hidden="true" d="M6,0L84,0C87.311490146964,0,90,2.688509853036,90,6L90,571.4285714285714C90,571.4285714285714,90,571.4285714285714,90,571.4285714285714L0,571.4285714285714C0,571.4285714285714,0,571.4285714285714,0,571.4285714285714L0,6C0,2.688509853036,2.688509853036,0,6,0Z"/><g clip-path="url(#clip8)"><g class="mark-group role-scope" role="graphics-object" aria-roledescription="group mark container"><g transform="translate(0,-28.571428571428537)"><path class="background" aria-hidden="true" d="M0,0h90v0h-90Z"/><g><g class="mark-rect role-mark layer_0_marks" role="graphics-object" aria-roledescription="rect mark container"><path aria-label="Parser: ruamel.yaml&#xA;0.19.1; Execution Time (seconds, lower=better): 42.8179264333; parser: ruamel.yaml; Execution Time (s): 42.8179; Slowdown: 133.13" role="graphics-symbol" aria-roledescription="bar" d="M0,28.571428571428537h90v571.4285714285714h-90Z" fill="#e7298a"/></g></g><path class="foreground" aria-hidden="true" d="" display="none"/></g></g></g><path class="foreground" aria-hidden="true" d="" display="none"/></g></g><g class="mark-text role-mark layer_1_marks" role="graphics-object" aria-roledescription="text mark container"><text aria-label="Parser: yamlrocks&#xA;0.6.1; Execution Time (seconds, lower=better): 0.321633333333; parser: yamlrocks; label: 0.3216s (x1.00); Execution Time (s): 0.3216; Slowdown: 1.00" role="graphics-symbol" aria-roledescription="text mark" text-anchor="middle" transform="translate(50,591.7076278208702)" font-family="sans-serif" font-size="9px" font-weight="bold" fill="#666666">0.3216s (x1.00)</text><text aria-label="Parser: yaml_rs (parse_dt=False)&#xA;0.1.6; Execution Time (seconds, lower=better): 0.3235138; parser: yaml_rs (parse_dt=False); label: 0.3235s (x1.01); Execution Time (s): 0.3235; Slowdown: 1.01" role="graphics-symbol" aria-roledescription="text mark" text-anchor="middle" transform="translate(150,591.6825319680237)" font-family="sans-serif" font-size="9px" font-weight="bold" fill="#a6761d">0.3235s (x1.01)</text><text aria-label="Parser: yaml_rs&#xA;0.1.6; Execution Time (seconds, lower=better): 0.327694266667; parser: yaml_rs; label: 0.3277s (x1.02); Execution Time (s): 0.3277; Slowdown: 1.02" role="graphics-symbol" aria-roledescription="text mark" text-anchor="middle" transform="translate(250,591.6267413612798)" font-family="sans-serif" font-size="9px" font-weight="bold" fill="#e6ab02">0.3277s (x1.02)</text><text aria-label="Parser: ryaml&#xA;0.5.1; Execution Time (seconds, lower=better): 0.889243266667; parser: ryaml; label: 0.8892s (x2.76); Execution Time (s): 0.8892; Slowdown: 2.76" role="graphics-symbol" aria-roledescription="text mark" text-anchor="middle" transform="translate(350,584.1325638149488)" font-family="sans-serif" font-size="9px" font-weight="bold" fill="#66a61e">0.8892s (x2.76)</text><text aria-label="Parser: PyYAML (CLoader)&#xA;6.0.3; Execution Time (seconds, lower=better): 2.7781074; parser: PyYAML (CLoader); label: 2.7781s (x8.64); Execution Time (s): 2.7781; Slowdown: 8.64" role="graphics-symbol" aria-roledescription="text mark" text-anchor="middle" transform="translate(450,558.9246421979626)" font-family="sans-serif" font-size="9px" font-weight="bold" fill="#d95f02">2.7781s (x8.64)</text><text aria-label="Parser: oyaml&#xA;1.0; Execution Time (seconds, lower=better): 28.8106287333; parser: oyaml; label: 28.8106s (x89.58); Execution Time (s): 28.8106; Slowdown: 89.58" role="graphics-symbol" aria-roledescription="text mark" text-anchor="middle" transform="translate(550,211.50645277789187)" font-family="sans-serif" font-size="9px" font-weight="bold" fill="#7570b3">28.8106s (x89.58)</text><text aria-label="Parser: PyYAML&#xA;6.0.3; Execution Time (seconds, lower=better): 28.8625577667; parser: PyYAML; label: 28.8626s (x89.74); Execution Time (s): 28.8626; Slowdown: 89.74" role="graphics-symbol" aria-roledescription="text mark" text-anchor="middle" transform="translate(650,210.8134315177534)" font-family="sans-serif" font-size="9px" font-weight="bold" fill="#1b9e77">28.8626s (x89.74)</text><text aria-label="Parser: ruamel.yaml&#xA;0.19.1; Execution Time (seconds, lower=better): 42.8179264333; parser: ruamel.yaml; label: 42.8179s (x133.13); Execution Time (s): 42.8179; Slowdown: 133.13" role="graphics-symbol" aria-roledescription="text mark" text-anchor="middle" transform="translate(750,24.571428571428537)" font-family="sans-serif" font-size="9px" font-weight="bold" fill="#e7298a">42.8179s (x133.13)</text></g><g class="mark-group role-title"><g transform="translate(400,-31)"><path class="background" aria-hidden="true" d="M0,0h0v0h0Z" pointer-events="none"/><g><g class="mark-text role-title-text" role="graphics-symbol" aria-roledescription="title" aria-label="Title text 'YAML parsers benchmark (loads)'" pointer-events="none"><text text-anchor="middle" transform="translate(0,10)" font-family="sans-serif" font-size="13px" font-weight="bold" fill="#000" opacity="1">YAML parsers benchmark (loads)</text></g><g class="mark-text role-title-subtitle" role="graphics-symbol" aria-roledescription="subtitle" aria-label="Subtitle text 'Python: 3.14.6 (Windows 2025Server) | CPU: AMD EPYC 7763 64-Core Processor'" pointer-events="none"><text text-anchor="middle" transform="translate(0,25)" font-family="sans-serif" font-size="12px" fill="#000" opacity="1">Python: 3.14.6 (Windows 2025Server) | CPU: AMD EPYC 7763 64-Core Processor</text></g></g><path class="foreground" aria-hidden="true" d="" pointer-events="none" display="none"/></g></g></g><path class="foreground" aria-hidden="true" d="" display="none"/></g></g></g><defs><clipPath id="clip1"><path d="M2.1461860895648783,0L87.85381391043512,0C89.038326258626,0,90,0.9616737413739964,90,2.1461860895648783L90,4.292372179129757C90,4.292372179129757,90,4.292372179129757,90,4.292372179129757L0,4.292372179129757C0,4.292372179129757,0,4.292372179129757,0,4.292372179129757L0,2.1461860895648783C0,0.9616737413739964,0.9616737413739964,0,2.1461860895648783,0Z"/></clipPath><clipPath id="clip2"><path d="M2.158734015988159,0L87.84126598401184,0C89.03270372132198,0,90,0.9672962786780234,90,2.158734015988159L90,4.317468031976318C90,4.317468031976318,90,4.317468031976318,90,4.317468031976318L0,4.317468031976318C0,4.317468031976318,0,4.317468031976318,0,4.317468031976318L0,2.158734015988159C0,0.9672962786780234,0.9672962786780234,0,2.158734015988159,0Z"/></clipPath><clipPath id="clip3"><path d="M2.1866293193601223,0L87.81337068063988,0C89.02020425499381,0,90,0.9797957450061818,90,2.1866293193601223L90,4.373258638720245C90,4.373258638720245,90,4.373258638720245,90,4.373258638720245L0,4.373258638720245C0,4.373258638720245,0,4.373258638720245,0,4.373258638720245L0,2.1866293193601223C0,0.9797957450061818,0.9797957450061818,0,2.1866293193601223,0Z"/></clipPath><clipPath id="clip4"><path d="M5.933718092525623,0L84.06628190747438,0C87.34119007385115,0,90,2.658809926148853,90,5.933718092525623L90,11.867436185051247C90,11.867436185051247,90,11.867436185051247,90,11.867436185051247L0,11.867436185051247C0,11.867436185051247,0,11.867436185051247,0,11.867436185051247L0,5.933718092525623C0,2.658809926148853,2.658809926148853,0,5.933718092525623,0Z"/></clipPath><clipPath id="clip5"><path d="M6,0L84,0C87.311490146964,0,90,2.688509853036,90,6L90,37.07535780203739C90,37.07535780203739,90,37.07535780203739,90,37.07535780203739L0,37.07535780203739C0,37.07535780203739,0,37.07535780203739,0,37.07535780203739L0,6C0,2.688509853036,2.688509853036,0,6,0Z"/></clipPath><clipPath id="clip6"><path d="M6,0L84,0C87.311490146964,0,90,2.688509853036,90,6L90,384.49354722210813C90,384.49354722210813,90,384.49354722210813,90,384.49354722210813L0,384.49354722210813C0,384.49354722210813,0,384.49354722210813,0,384.49354722210813L0,6C0,2.688509853036,2.688509853036,0,6,0Z"/></clipPath><clipPath id="clip7"><path d="M6,0L84,0C87.311490146964,0,90,2.688509853036,90,6L90,385.18656848224657C90,385.18656848224657,90,385.18656848224657,90,385.18656848224657L0,385.18656848224657C0,385.18656848224657,0,385.18656848224657,0,385.18656848224657L0,6C0,2.688509853036,2.688509853036,0,6,0Z"/></clipPath><clipPath id="clip8"><path d="M6,0L84,0C87.311490146964,0,90,2.688509853036,90,6L90,571.4285714285714C90,571.4285714285714,90,571.4285714285714,90,571.4285714285714L0,571.4285714285714C0,571.4285714285714,0,571.4285714285714,0,571.4285714285714L0,6C0,2.688509853036,2.688509853036,0,6,0Z"/></clipPath></defs></svg>