<svg xmlns="http://www.w3.org/2000/svg" xmlns:xlink="http://www.w3.org/1999/xlink" version="1.1" class="marks" width="844" height="687" viewBox="0 0 844 687"><rect width="844" height="687" fill="white"/><g fill="none" stroke-miterlimit="10" transform="translate(39,36)"><g class="mark-group role-frame root" role="graphics-object" aria-roledescription="group mark container"><g transform="translate(0,0)"><path class="background" aria-hidden="true" d="M0.5,0.5h800v600h-800Z" stroke="#ddd"/><g><g class="mark-group role-axis" role="graphics-symbol" aria-roledescription="axis" aria-label="X-axis titled 'Parser' for a discrete scale with 7 values: yamlrocks&#xA;0.6.1, yaml_rs&#xA;0.1.6, ryaml&#xA;0.5.1, PyYAML (CDumper)&#xA;6.0.3, PyYAML&#xA;6.0.3, oyaml&#xA;1.0, ruamel.yaml&#xA;0.19.1"><g transform="translate(0.5,600.5)"><path class="background" aria-hidden="true" d="M0,0h0v0h0Z" pointer-events="none"/><g><g class="mark-rule role-axis-tick" pointer-events="none"><line transform="translate(57,0)" x2="0" y2="5" stroke="#888" stroke-width="1" opacity="1"/><line transform="translate(171,0)" x2="0" y2="5" stroke="#888" stroke-width="1" opacity="1"/><line transform="translate(285,0)" x2="0" y2="5" stroke="#888" stroke-width="1" opacity="1"/><line transform="translate(400,0)" x2="0" y2="5" stroke="#888" stroke-width="1" opacity="1"/><line transform="translate(514,0)" x2="0" y2="5" stroke="#888" stroke-width="1" opacity="1"/><line transform="translate(628,0)" x2="0" y2="5" stroke="#888" stroke-width="1" opacity="1"/><line transform="translate(742,0)" x2="0" y2="5" stroke="#888" stroke-width="1" opacity="1"/></g><g class="mark-text role-axis-label" pointer-events="none"><text text-anchor="middle" transform="translate(56.642857142857096,15)" font-family="sans-serif" font-size="10px" fill="#000" opacity="1"><tspan>yamlrocks</tspan><tspan x="0" dy="14">0.6.1</tspan></text><text text-anchor="middle" transform="translate(170.9285714285714,15)" font-family="sans-serif" font-size="10px" fill="#000" opacity="1"><tspan>yaml_rs</tspan><tspan x="0" dy="14">0.1.6</tspan></text><text text-anchor="middle" transform="translate(285.21428571428567,15)" font-family="sans-serif" font-size="10px" fill="#000" opacity="1"><tspan>ryaml</tspan><tspan x="0" dy="14">0.5.1</tspan></text><text text-anchor="middle" transform="translate(399.5,15)" font-family="sans-serif" font-size="10px" fill="#000" opacity="1"><tspan>PyYAML (CDumper)</tspan><tspan x="0" dy="14">6.0.3</tspan></text><text text-anchor="middle" transform="translate(513.7857142857142,15)" font-family="sans-serif" font-size="10px" fill="#000" opacity="1"><tspan>PyYAML</tspan><tspan x="0" dy="14">6.0.3</tspan></text><text text-anchor="middle" transform="translate(628.0714285714286,15)" font-family="sans-serif" font-size="10px" fill="#000" opacity="1"><tspan>oyaml</tspan><tspan x="0" dy="14">1.0</tspan></text><text text-anchor="middle" transform="translate(742.3571428571429,15)" font-family="sans-serif" font-size="10px" fill="#000" opacity="1"><tspan>ruamel.yaml</tspan><tspan x="0" dy="14">0.19.1</tspan></text></g><g class="mark-rule role-axis-domain" pointer-events="none"><line transform="translate(0,0)" x2="800" y2="0" stroke="#888" stroke-width="1" opacity="1"/></g><g class="mark-text role-axis-title" pointer-events="none"><text text-anchor="middle" transform="translate(400,44)" font-family="sans-serif" font-size="11px" font-weight="bold" fill="#000" opacity="1">Parser</text></g></g><path class="foreground" aria-hidden="true" d="" pointer-events="none" display="none"/></g></g><g class="mark-group role-axis" role="graphics-symbol" aria-roledescription="axis" aria-label="Y-axis titled 'Execution Time (seconds, lower=better)' for a linear scale with values from 0 to 15"><g transform="translate(0.5,0.5)"><path class="background" aria-hidden="true" d="M0,0h0v0h0Z" pointer-events="none"/><g><g class="mark-rule role-axis-tick" pointer-events="none"><line transform="translate(0,600)" x2="-5" y2="0" stroke="#888" stroke-width="1" opacity="1"/><line transform="translate(0,561)" x2="-5" y2="0" stroke="#888" stroke-width="1" opacity="1"/><line transform="translate(0,521)" x2="-5" y2="0" stroke="#888" stroke-width="1" opacity="1"/><line transform="translate(0,482)" x2="-5" y2="0" stroke="#888" stroke-width="1" opacity="1"/><line transform="translate(0,443)" x2="-5" y2="0" stroke="#888" stroke-width="1" opacity="1"/><line transform="translate(0,404)" x2="-5" y2="0" stroke="#888" stroke-width="1" opacity="1"/><line transform="translate(0,364)" x2="-5" y2="0" stroke="#888" stroke-width="1" opacity="1"/><line transform="translate(0,325)" x2="-5" y2="0" stroke="#888" stroke-width="1" opacity="1"/><line transform="translate(0,286)" x2="-5" y2="0" stroke="#888" stroke-width="1" opacity="1"/><line transform="translate(0,246)" x2="-5" y2="0" stroke="#888" stroke-width="1" opacity="1"/><line transform="translate(0,207)" x2="-5" y2="0" stroke="#888" stroke-width="1" opacity="1"/><line transform="translate(0,168)" x2="-5" y2="0" stroke="#888" stroke-width="1" opacity="1"/><line transform="translate(0,129)" x2="-5" y2="0" stroke="#888" stroke-width="1" opacity="1"/><line transform="translate(0,89)" x2="-5" y2="0" stroke="#888" stroke-width="1" opacity="1"/><line transform="translate(0,50)" x2="-5" y2="0" stroke="#888" stroke-width="1" opacity="1"/><line transform="translate(0,11)" x2="-5" y2="0" stroke="#888" stroke-width="1" opacity="1"/></g><g class="mark-text role-axis-label" pointer-events="none"><text text-anchor="end" transform="translate(-7,603)" font-family="sans-serif" font-size="10px" fill="#000" opacity="1">0</text><text text-anchor="end" transform="translate(-7,563.7126510331741)" font-family="sans-serif" font-size="10px" fill="#000" opacity="1">1</text><text text-anchor="end" transform="translate(-7,524.4253020663482)" font-family="sans-serif" font-size="10px" fill="#000" opacity="1">2</text><text text-anchor="end" transform="translate(-7,485.13795309952235)" font-family="sans-serif" font-size="10px" fill="#000" opacity="1">3</text><text text-anchor="end" transform="translate(-7,445.85060413269645)" font-family="sans-serif" font-size="10px" fill="#000" opacity="1">4</text><text text-anchor="end" transform="translate(-7,406.56325516587054)" font-family="sans-serif" font-size="10px" fill="#000" opacity="1">5</text><text text-anchor="end" transform="translate(-7,367.2759061990447)" font-family="sans-serif" font-size="10px" fill="#000" opacity="1">6</text><text text-anchor="end" transform="translate(-7,327.9885572322188)" font-family="sans-serif" font-size="10px" fill="#000" opacity="1">7</text><text text-anchor="end" transform="translate(-7,288.7012082653929)" font-family="sans-serif" font-size="10px" fill="#000" opacity="1">8</text><text text-anchor="end" transform="translate(-7,249.41385929856702)" font-family="sans-serif" font-size="10px" fill="#000" opacity="1">9</text><text text-anchor="end" transform="translate(-7,210.12651033174114)" font-family="sans-serif" font-size="10px" fill="#000" opacity="1">10</text><text text-anchor="end" transform="translate(-7,170.83916136491527)" font-family="sans-serif" font-size="10px" fill="#000" opacity="1">11</text><text text-anchor="end" transform="translate(-7,131.55181239808937)" font-family="sans-serif" font-size="10px" fill="#000" opacity="1">12</text><text text-anchor="end" transform="translate(-7,92.26446343126348)" font-family="sans-serif" font-size="10px" fill="#000" opacity="1">13</text><text text-anchor="end" transform="translate(-7,52.9771144644376)" font-family="sans-serif" font-size="10px" fill="#000" opacity="1">14</text><text text-anchor="end" transform="translate(-7,13.689765497611713)" font-family="sans-serif" font-size="10px" fill="#000" opacity="1">15</text></g><g class="mark-rule role-axis-domain" pointer-events="none"><line transform="translate(0,600)" x2="0" y2="-600" stroke="#888" stroke-width="1" opacity="1"/></g><g class="mark-text role-axis-title" pointer-events="none"><text text-anchor="middle" transform="translate(-22.123046875,300) rotate(-90) translate(0,-2)" font-family="sans-serif" font-size="11px" font-weight="bold" fill="#000" opacity="1">Execution Time (seconds, lower=better)</text></g></g><path class="foreground" aria-hidden="true" d="" pointer-events="none" display="none"/></g></g><g class="mark-group role-scope" role="graphics-object" aria-roledescription="group mark container"><g transform="translate(5.714285714285666,597.3805343417315)"><path class="background" aria-hidden="true" d="M1.3097328291342478,0L101.54741002800861,0C102.27027125448083,0,102.85714285714286,0.5868716026620235,102.85714285714286,1.3097328291342478L102.85714285714286,2.6194656582684956C102.85714285714286,2.6194656582684956,102.85714285714286,2.6194656582684956,102.85714285714286,2.6194656582684956L0,2.6194656582684956C0,2.6194656582684956,0,2.6194656582684956,0,2.6194656582684956L0,1.3097328291342478C0,0.5868716026620235,0.5868716026620235,0,1.3097328291342478,0Z"/><g clip-path="url(#clip9)"><g class="mark-group role-scope" role="graphics-object" aria-roledescription="group mark container"><g transform="translate(0,-597.3805343417315)"><path class="background" aria-hidden="true" d="M0,0h102.85714285714286v0h-102.85714285714286Z"/><g><g class="mark-rect role-mark layer_0_marks" role="graphics-object" aria-roledescription="rect mark container"><path aria-label="Parser: yamlrocks&#xA;0.6.1; Execution Time (seconds, lower=better): 0.0666745333334; parser: yamlrocks; Execution Time (s): 0.0667; Slowdown: 1.00" role="graphics-symbol" aria-roledescription="bar" d="M0,597.3805343417315h102.85714285714286v2.6194656582684956h-102.85714285714286Z" fill="#a6761d"/></g></g><path class="foreground" aria-hidden="true" d="" display="none"/></g></g></g><path class="foreground" aria-hidden="true" d="" display="none"/></g><g transform="translate(119.99999999999996,596.9242026164336)"><path class="background" aria-hidden="true" d="M1.537898691783198,0L101.31924416535966,0C102.16803355950448,0,102.85714285714286,0.6891092976383838,102.85714285714286,1.537898691783198L102.85714285714286,3.075797383566396C102.85714285714286,3.075797383566396,102.85714285714286,3.075797383566396,102.85714285714286,3.075797383566396L0,3.075797383566396C0,3.075797383566396,0,3.075797383566396,0,3.075797383566396L0,1.537898691783198C0,0.6891092976383838,0.6891092976383838,0,1.537898691783198,0Z"/><g clip-path="url(#clip10)"><g class="mark-group role-scope" role="graphics-object" aria-roledescription="group mark container"><g transform="translate(0,-596.9242026164336)"><path class="background" aria-hidden="true" d="M0,0h102.85714285714286v0h-102.85714285714286Z"/><g><g class="mark-rect role-mark layer_0_marks" role="graphics-object" aria-roledescription="rect mark container"><path aria-label="Parser: yaml_rs&#xA;0.1.6; Execution Time (seconds, lower=better): 0.0782897666667; parser: yaml_rs; Execution Time (s): 0.0783; Slowdown: 1.17" role="graphics-symbol" aria-roledescription="bar" d="M0,596.9242026164336h102.85714285714286v3.075797383566396h-102.85714285714286Z" fill="#e6ab02"/></g></g><path class="foreground" aria-hidden="true" d="" display="none"/></g></g></g><path class="foreground" aria-hidden="true" d="" display="none"/></g><g transform="translate(234.28571428571425,590.2583639524764)"><path class="background" aria-hidden="true" d="M4.870818023761785,0L97.98632483338108,0C100.67460248227138,0,102.85714285714286,2.182540374871483,102.85714285714286,4.870818023761785L102.85714285714286,9.74163604752357C102.85714285714286,9.74163604752357,102.85714285714286,9.74163604752357,102.85714285714286,9.74163604752357L0,9.74163604752357C0,9.74163604752357,0,9.74163604752357,0,9.74163604752357L0,4.870818023761785C0,2.182540374871483,2.182540374871483,0,4.870818023761785,0Z"/><g clip-path="url(#clip11)"><g class="mark-group role-scope" role="graphics-object" aria-roledescription="group mark container"><g transform="translate(0,-590.2583639524764)"><path class="background" aria-hidden="true" d="M0,0h102.85714285714286v0h-102.85714285714286Z"/><g><g class="mark-rect role-mark layer_0_marks" role="graphics-object" aria-roledescription="rect mark container"><path aria-label="Parser: ryaml&#xA;0.5.1; Execution Time (seconds, lower=better): 0.2479586; parser: ryaml; Execution Time (s): 0.2480; Slowdown: 3.72" role="graphics-symbol" aria-roledescription="bar" d="M0,590.2583639524764h102.85714285714286v9.74163604752357h-102.85714285714286Z" fill="#66a61e"/></g></g><path class="foreground" aria-hidden="true" d="" display="none"/></g></g></g><path class="foreground" aria-hidden="true" d="" display="none"/></g><g transform="translate(348.57142857142856,585.8479740149265)"><path class="background" aria-hidden="true" d="M6,0L96.85714285714286,0C100.16863300410687,0,102.85714285714286,2.688509853036,102.85714285714286,6L102.85714285714286,14.152025985073465C102.85714285714286,14.152025985073465,102.85714285714286,14.152025985073465,102.85714285714286,14.152025985073465L0,14.152025985073465C0,14.152025985073465,0,14.152025985073465,0,14.152025985073465L0,6C0,2.688509853036,2.688509853036,0,6,0Z"/><g clip-path="url(#clip12)"><g class="mark-group role-scope" role="graphics-object" aria-roledescription="group mark container"><g transform="translate(0,-585.8479740149265)"><path class="background" aria-hidden="true" d="M0,0h102.85714285714286v0h-102.85714285714286Z"/><g><g class="mark-rect role-mark layer_0_marks" role="graphics-object" aria-roledescription="rect mark container"><path aria-label="Parser: PyYAML (CDumper)&#xA;6.0.3; Execution Time (seconds, lower=better): 0.3602184; parser: PyYAML (CDumper); Execution Time (s): 0.3602; Slowdown: 5.40" role="graphics-symbol" aria-roledescription="bar" d="M0,585.8479740149265h102.85714285714286v14.152025985073465h-102.85714285714286Z" fill="#d95f02"/></g></g><path class="foreground" aria-hidden="true" d="" display="none"/></g></g></g><path class="foreground" aria-hidden="true" d="" display="none"/></g><g transform="translate(462.85714285714283,169.7389731510152)"><path class="background" aria-hidden="true" d="M6,0L96.85714285714286,0C100.16863300410687,0,102.85714285714286,2.688509853036,102.85714285714286,6L102.85714285714286,430.2610268489848C102.85714285714286,430.2610268489848,102.85714285714286,430.2610268489848,102.85714285714286,430.2610268489848L0,430.2610268489848C0,430.2610268489848,0,430.2610268489848,0,430.2610268489848L0,6C0,2.688509853036,2.688509853036,0,6,0Z"/><g clip-path="url(#clip13)"><g class="mark-group role-scope" role="graphics-object" aria-roledescription="group mark container"><g transform="translate(0,-169.7389731510152)"><path class="background" aria-hidden="true" d="M0,0h102.85714285714286v0h-102.85714285714286Z"/><g><g class="mark-rect role-mark layer_0_marks" role="graphics-object" aria-roledescription="rect mark container"><path aria-label="Parser: PyYAML&#xA;6.0.3; Execution Time (seconds, lower=better): 10.9516431667; parser: PyYAML; Execution Time (s): 10.9516; Slowdown: 164.26" role="graphics-symbol" aria-roledescription="bar" d="M0,169.7389731510152h102.85714285714286v430.2610268489848h-102.85714285714286Z" fill="#1b9e77"/></g></g><path class="foreground" aria-hidden="true" d="" display="none"/></g></g></g><path class="foreground" aria-hidden="true" d="" display="none"/></g><g transform="translate(577.1428571428571,160.59315594213453)"><path class="background" aria-hidden="true" d="M6,0L96.85714285714286,0C100.16863300410687,0,102.85714285714286,2.688509853036,102.85714285714286,6L102.85714285714286,439.40684405786544C102.85714285714286,439.40684405786544,102.85714285714286,439.40684405786544,102.85714285714286,439.40684405786544L0,439.40684405786544C0,439.40684405786544,0,439.40684405786544,0,439.40684405786544L0,6C0,2.688509853036,2.688509853036,0,6,0Z"/><g clip-path="url(#clip14)"><g class="mark-group role-scope" role="graphics-object" aria-roledescription="group mark container"><g transform="translate(0,-160.59315594213453)"><path class="background" aria-hidden="true" d="M0,0h102.85714285714286v0h-102.85714285714286Z"/><g><g class="mark-rect role-mark layer_0_marks" role="graphics-object" aria-roledescription="rect mark container"><path aria-label="Parser: oyaml&#xA;1.0; Execution Time (seconds, lower=better): 11.1844361; parser: oyaml; Execution Time (s): 11.1844; Slowdown: 167.75" role="graphics-symbol" aria-roledescription="bar" d="M0,160.59315594213453h102.85714285714286v439.40684405786544h-102.85714285714286Z" fill="#7570b3"/></g></g><path class="foreground" aria-hidden="true" d="" display="none"/></g></g></g><path class="foreground" aria-hidden="true" d="" display="none"/></g><g transform="translate(691.4285714285714,28.571428571428605)"><path class="background" aria-hidden="true" d="M6,0L96.85714285714286,0C100.16863300410687,0,102.85714285714286,2.688509853036,102.85714285714286,6L102.85714285714286,571.4285714285714C102.85714285714286,571.4285714285714,102.85714285714286,571.4285714285714,102.85714285714286,571.4285714285714L0,571.4285714285714C0,571.4285714285714,0,571.4285714285714,0,571.4285714285714L0,6C0,2.688509853036,2.688509853036,0,6,0Z"/><g clip-path="url(#clip15)"><g class="mark-group role-scope" role="graphics-object" aria-roledescription="group mark container"><g transform="translate(0,-28.571428571428605)"><path class="background" aria-hidden="true" d="M0,0h102.85714285714286v0h-102.85714285714286Z"/><g><g class="mark-rect role-mark layer_0_marks" role="graphics-object" aria-roledescription="rect mark container"><path aria-label="Parser: ruamel.yaml&#xA;0.19.1; Execution Time (seconds, lower=better): 14.5448493333; parser: ruamel.yaml; Execution Time (s): 14.5448; Slowdown: 218.15" role="graphics-symbol" aria-roledescription="bar" d="M0,28.571428571428605h102.85714285714286v571.4285714285714h-102.85714285714286Z" fill="#e7298a"/></g></g><path class="foreground" aria-hidden="true" d="" display="none"/></g></g></g><path class="foreground" aria-hidden="true" d="" display="none"/></g></g><g class="mark-text role-mark layer_1_marks" role="graphics-object" aria-roledescription="text mark container"><text aria-label="Parser: yamlrocks&#xA;0.6.1; Execution Time (seconds, lower=better): 0.0666745333334; parser: yamlrocks; label: 0.0667s (x1.00); Execution Time (s): 0.0667; Slowdown: 1.00" role="graphics-symbol" aria-roledescription="text mark" text-anchor="middle" transform="translate(57.142857142857096,593.3805343417315)" font-family="sans-serif" font-size="9px" font-weight="bold" fill="#a6761d">0.0667s (x1.00)</text><text aria-label="Parser: yaml_rs&#xA;0.1.6; Execution Time (seconds, lower=better): 0.0782897666667; parser: yaml_rs; label: 0.0783s (x1.17); Execution Time (s): 0.0783; Slowdown: 1.17" role="graphics-symbol" aria-roledescription="text mark" text-anchor="middle" transform="translate(171.4285714285714,592.9242026164336)" font-family="sans-serif" font-size="9px" font-weight="bold" fill="#e6ab02">0.0783s (x1.17)</text><text aria-label="Parser: ryaml&#xA;0.5.1; Execution Time (seconds, lower=better): 0.2479586; parser: ryaml; label: 0.2480s (x3.72); Execution Time (s): 0.2480; Slowdown: 3.72" role="graphics-symbol" aria-roledescription="text mark" text-anchor="middle" transform="translate(285.71428571428567,586.2583639524764)" font-family="sans-serif" font-size="9px" font-weight="bold" fill="#66a61e">0.2480s (x3.72)</text><text aria-label="Parser: PyYAML (CDumper)&#xA;6.0.3; Execution Time (seconds, lower=better): 0.3602184; parser: PyYAML (CDumper); label: 0.3602s (x5.40); Execution Time (s): 0.3602; Slowdown: 5.40" role="graphics-symbol" aria-roledescription="text mark" text-anchor="middle" transform="translate(400,581.8479740149265)" font-family="sans-serif" font-size="9px" font-weight="bold" fill="#d95f02">0.3602s (x5.40)</text><text aria-label="Parser: PyYAML&#xA;6.0.3; Execution Time (seconds, lower=better): 10.9516431667; parser: PyYAML; label: 10.9516s (x164.26); Execution Time (s): 10.9516; Slowdown: 164.26" role="graphics-symbol" aria-roledescription="text mark" text-anchor="middle" transform="translate(514.2857142857142,165.7389731510152)" font-family="sans-serif" font-size="9px" font-weight="bold" fill="#1b9e77">10.9516s (x164.26)</text><text aria-label="Parser: oyaml&#xA;1.0; Execution Time (seconds, lower=better): 11.1844361; parser: oyaml; label: 11.1844s (x167.75); Execution Time (s): 11.1844; Slowdown: 167.75" role="graphics-symbol" aria-roledescription="text mark" text-anchor="middle" transform="translate(628.5714285714286,156.59315594213453)" font-family="sans-serif" font-size="9px" font-weight="bold" fill="#7570b3">11.1844s (x167.75)</text><text aria-label="Parser: ruamel.yaml&#xA;0.19.1; Execution Time (seconds, lower=better): 14.5448493333; parser: ruamel.yaml; label: 14.5448s (x218.15); Execution Time (s): 14.5448; Slowdown: 218.15" role="graphics-symbol" aria-roledescription="text mark" text-anchor="middle" transform="translate(742.8571428571429,24.571428571428605)" font-family="sans-serif" font-size="9px" font-weight="bold" fill="#e7298a">14.5448s (x218.15)</text></g><g class="mark-group role-title"><g transform="translate(400,-31)"><path class="background" aria-hidden="true" d="M0,0h0v0h0Z" pointer-events="none"/><g><g class="mark-text role-title-text" role="graphics-symbol" aria-roledescription="title" aria-label="Title text 'YAML parsers benchmark (dumps)'" pointer-events="none"><text text-anchor="middle" transform="translate(0,10)" font-family="sans-serif" font-size="13px" font-weight="bold" fill="#000" opacity="1">YAML parsers benchmark (dumps)</text></g><g class="mark-text role-title-subtitle" role="graphics-symbol" aria-roledescription="subtitle" aria-label="Subtitle text 'Python: 3.14.6 (Windows 2025Server) | CPU: INTEL(R) XEON(R) PLATINUM 8573C'" pointer-events="none"><text text-anchor="middle" transform="translate(0,25)" font-family="sans-serif" font-size="12px" fill="#000" opacity="1">Python: 3.14.6 (Windows 2025Server) | CPU: INTEL(R) XEON(R) PLATINUM 8573C</text></g></g><path class="foreground" aria-hidden="true" d="" pointer-events="none" display="none"/></g></g></g><path class="foreground" aria-hidden="true" d="" display="none"/></g></g></g><defs><clipPath id="clip9"><path d="M1.3097328291342478,0L101.54741002800861,0C102.27027125448083,0,102.85714285714286,0.5868716026620235,102.85714285714286,1.3097328291342478L102.85714285714286,2.6194656582684956C102.85714285714286,2.6194656582684956,102.85714285714286,2.6194656582684956,102.85714285714286,2.6194656582684956L0,2.6194656582684956C0,2.6194656582684956,0,2.6194656582684956,0,2.6194656582684956L0,1.3097328291342478C0,0.5868716026620235,0.5868716026620235,0,1.3097328291342478,0Z"/></clipPath><clipPath id="clip10"><path d="M1.537898691783198,0L101.31924416535966,0C102.16803355950448,0,102.85714285714286,0.6891092976383838,102.85714285714286,1.537898691783198L102.85714285714286,3.075797383566396C102.85714285714286,3.075797383566396,102.85714285714286,3.075797383566396,102.85714285714286,3.075797383566396L0,3.075797383566396C0,3.075797383566396,0,3.075797383566396,0,3.075797383566396L0,1.537898691783198C0,0.6891092976383838,0.6891092976383838,0,1.537898691783198,0Z"/></clipPath><clipPath id="clip11"><path d="M4.870818023761785,0L97.98632483338108,0C100.67460248227138,0,102.85714285714286,2.182540374871483,102.85714285714286,4.870818023761785L102.85714285714286,9.74163604752357C102.85714285714286,9.74163604752357,102.85714285714286,9.74163604752357,102.85714285714286,9.74163604752357L0,9.74163604752357C0,9.74163604752357,0,9.74163604752357,0,9.74163604752357L0,4.870818023761785C0,2.182540374871483,2.182540374871483,0,4.870818023761785,0Z"/></clipPath><clipPath id="clip12"><path d="M6,0L96.85714285714286,0C100.16863300410687,0,102.85714285714286,2.688509853036,102.85714285714286,6L102.85714285714286,14.152025985073465C102.85714285714286,14.152025985073465,102.85714285714286,14.152025985073465,102.85714285714286,14.152025985073465L0,14.152025985073465C0,14.152025985073465,0,14.152025985073465,0,14.152025985073465L0,6C0,2.688509853036,2.688509853036,0,6,0Z"/></clipPath><clipPath id="clip13"><path d="M6,0L96.85714285714286,0C100.16863300410687,0,102.85714285714286,2.688509853036,102.85714285714286,6L102.85714285714286,430.2610268489848C102.85714285714286,430.2610268489848,102.85714285714286,430.2610268489848,102.85714285714286,430.2610268489848L0,430.2610268489848C0,430.2610268489848,0,430.2610268489848,0,430.2610268489848L0,6C0,2.688509853036,2.688509853036,0,6,0Z"/></clipPath><clipPath id="clip14"><path d="M6,0L96.85714285714286,0C100.16863300410687,0,102.85714285714286,2.688509853036,102.85714285714286,6L102.85714285714286,439.40684405786544C102.85714285714286,439.40684405786544,102.85714285714286,439.40684405786544,102.85714285714286,439.40684405786544L0,439.40684405786544C0,439.40684405786544,0,439.40684405786544,0,439.40684405786544L0,6C0,2.688509853036,2.688509853036,0,6,0Z"/></clipPath><clipPath id="clip15"><path d="M6,0L96.85714285714286,0C100.16863300410687,0,102.85714285714286,2.688509853036,102.85714285714286,6L102.85714285714286,571.4285714285714C102.85714285714286,571.4285714285714,102.85714285714286,571.4285714285714,102.85714285714286,571.4285714285714L0,571.4285714285714C0,571.4285714285714,0,571.4285714285714,0,571.4285714285714L0,6C0,2.688509853036,2.688509853036,0,6,0Z"/></clipPath></defs></svg>