<svg xmlns="http://www.w3.org/2000/svg" xmlns:xlink="http://www.w3.org/1999/xlink" version="1.1" class="marks" width="844" height="687" viewBox="0 0 844 687"><rect width="844" height="687" fill="white"/><g fill="none" stroke-miterlimit="10" transform="translate(39,36)"><g class="mark-group role-frame root" role="graphics-object" aria-roledescription="group mark container"><g transform="translate(0,0)"><path class="background" aria-hidden="true" d="M0.5,0.5h800v600h-800Z" stroke="#ddd"/><g><g class="mark-group role-axis" role="graphics-symbol" aria-roledescription="axis" aria-label="X-axis titled 'Parser' for a discrete scale with 8 values: yaml_rs (parse_dt=False)&#xA;0.1.4, yaml_rs&#xA;0.1.4, yamlrocks&#xA;0.5.0, ryaml&#xA;0.5.1, PyYAML (CLoader)&#xA;6.0.3, ending with ruamel.yaml&#xA;0.19.1"><g transform="translate(0.5,600.5)"><path class="background" aria-hidden="true" d="M0,0h0v0h0Z" pointer-events="none"/><g><g class="mark-rule role-axis-tick" pointer-events="none"><line transform="translate(50,0)" x2="0" y2="5" stroke="#888" stroke-width="1" opacity="1"/><line transform="translate(150,0)" x2="0" y2="5" stroke="#888" stroke-width="1" opacity="1"/><line transform="translate(250,0)" x2="0" y2="5" stroke="#888" stroke-width="1" opacity="1"/><line transform="translate(350,0)" x2="0" y2="5" stroke="#888" stroke-width="1" opacity="1"/><line transform="translate(450,0)" x2="0" y2="5" stroke="#888" stroke-width="1" opacity="1"/><line transform="translate(550,0)" x2="0" y2="5" stroke="#888" stroke-width="1" opacity="1"/><line transform="translate(650,0)" x2="0" y2="5" stroke="#888" stroke-width="1" opacity="1"/><line transform="translate(750,0)" x2="0" y2="5" stroke="#888" stroke-width="1" opacity="1"/></g><g class="mark-text role-axis-label" pointer-events="none"><text text-anchor="middle" transform="translate(49.5,15)" font-family="sans-serif" font-size="10px" fill="#000" opacity="1"><tspan>yaml_rs (parse_dt=False)</tspan><tspan x="0" dy="14">0.1.4</tspan></text><text text-anchor="middle" transform="translate(149.5,15)" font-family="sans-serif" font-size="10px" fill="#000" opacity="1"><tspan>yaml_rs</tspan><tspan x="0" dy="14">0.1.4</tspan></text><text text-anchor="middle" transform="translate(249.5,15)" font-family="sans-serif" font-size="10px" fill="#000" opacity="1"><tspan>yamlrocks</tspan><tspan x="0" dy="14">0.5.0</tspan></text><text text-anchor="middle" transform="translate(349.5,15)" font-family="sans-serif" font-size="10px" fill="#000" opacity="1"><tspan>ryaml</tspan><tspan x="0" dy="14">0.5.1</tspan></text><text text-anchor="middle" transform="translate(449.5,15)" font-family="sans-serif" font-size="10px" fill="#000" opacity="1"><tspan>PyYAML (CLoader)</tspan><tspan x="0" dy="14">6.0.3</tspan></text><text text-anchor="middle" transform="translate(549.5,15)" font-family="sans-serif" font-size="10px" fill="#000" opacity="1"><tspan>oyaml</tspan><tspan x="0" dy="14">1.0</tspan></text><text text-anchor="middle" transform="translate(649.5,15)" font-family="sans-serif" font-size="10px" fill="#000" opacity="1"><tspan>PyYAML</tspan><tspan x="0" dy="14">6.0.3</tspan></text><text text-anchor="middle" transform="translate(749.5,15)" font-family="sans-serif" font-size="10px" fill="#000" opacity="1"><tspan>ruamel.yaml</tspan><tspan x="0" dy="14">0.19.1</tspan></text></g><g class="mark-rule role-axis-domain" pointer-events="none"><line transform="translate(0,0)" x2="800" y2="0" stroke="#888" stroke-width="1" opacity="1"/></g><g class="mark-text role-axis-title" pointer-events="none"><text text-anchor="middle" transform="translate(400,44)" font-family="sans-serif" font-size="11px" font-weight="bold" fill="#000" opacity="1">Parser</text></g></g><path class="foreground" aria-hidden="true" d="" pointer-events="none" display="none"/></g></g><g class="mark-group role-axis" role="graphics-symbol" aria-roledescription="axis" aria-label="Y-axis titled 'Execution Time (seconds, lower=better)' for a linear scale with values from 0 to 49"><g transform="translate(0.5,0.5)"><path class="background" aria-hidden="true" d="M0,0h0v0h0Z" pointer-events="none"/><g><g class="mark-rule role-axis-tick" pointer-events="none"><line transform="translate(0,600)" x2="-5" y2="0" stroke="#888" stroke-width="1" opacity="1"/><line transform="translate(0,539)" x2="-5" y2="0" stroke="#888" stroke-width="1" opacity="1"/><line transform="translate(0,479)" x2="-5" y2="0" stroke="#888" stroke-width="1" opacity="1"/><line transform="translate(0,418)" x2="-5" y2="0" stroke="#888" stroke-width="1" opacity="1"/><line transform="translate(0,357)" x2="-5" y2="0" stroke="#888" stroke-width="1" opacity="1"/><line transform="translate(0,296)" x2="-5" y2="0" stroke="#888" stroke-width="1" opacity="1"/><line transform="translate(0,236)" x2="-5" y2="0" stroke="#888" stroke-width="1" opacity="1"/><line transform="translate(0,175)" x2="-5" y2="0" stroke="#888" stroke-width="1" opacity="1"/><line transform="translate(0,114)" x2="-5" y2="0" stroke="#888" stroke-width="1" opacity="1"/><line transform="translate(0,53)" x2="-5" y2="0" stroke="#888" stroke-width="1" opacity="1"/></g><g class="mark-text role-axis-label" pointer-events="none"><text text-anchor="end" transform="translate(-7,603)" font-family="sans-serif" font-size="10px" fill="#000" opacity="1">0</text><text text-anchor="end" transform="translate(-7,542.2663292342316)" font-family="sans-serif" font-size="10px" fill="#000" opacity="1">5</text><text text-anchor="end" transform="translate(-7,481.5326584684632)" font-family="sans-serif" font-size="10px" fill="#000" opacity="1">10</text><text text-anchor="end" transform="translate(-7,420.7989877026948)" font-family="sans-serif" font-size="10px" fill="#000" opacity="1">15</text><text text-anchor="end" transform="translate(-7,360.0653169369263)" font-family="sans-serif" font-size="10px" fill="#000" opacity="1">20</text><text text-anchor="end" transform="translate(-7,299.3316461711579)" font-family="sans-serif" font-size="10px" fill="#000" opacity="1">25</text><text text-anchor="end" transform="translate(-7,238.59797540538955)" font-family="sans-serif" font-size="10px" fill="#000" opacity="1">30</text><text text-anchor="end" transform="translate(-7,177.86430463962114)" font-family="sans-serif" font-size="10px" fill="#000" opacity="1">35</text><text text-anchor="end" transform="translate(-7,117.13063387385269)" font-family="sans-serif" font-size="10px" fill="#000" opacity="1">40</text><text text-anchor="end" transform="translate(-7,56.39696310808431)" font-family="sans-serif" font-size="10px" fill="#000" opacity="1">45</text></g><g class="mark-rule role-axis-domain" pointer-events="none"><line transform="translate(0,600)" x2="0" y2="-600" stroke="#888" stroke-width="1" opacity="1"/></g><g class="mark-text role-axis-title" pointer-events="none"><text text-anchor="middle" transform="translate(-22.123046875,300) rotate(-90) translate(0,-2)" font-family="sans-serif" font-size="11px" font-weight="bold" fill="#000" opacity="1">Execution Time (seconds, lower=better)</text></g></g><path class="foreground" aria-hidden="true" d="" pointer-events="none" display="none"/></g></g><g class="mark-group role-scope" role="graphics-object" aria-roledescription="group mark container"><g transform="translate(5,596.4136091244613)"><path class="background" aria-hidden="true" d="M1.7931954377693273,0L88.20680456223067,0C89.19649606618967,0,90,0.80350393381034,90,1.7931954377693273L90,3.5863908755386547C90,3.5863908755386547,90,3.5863908755386547,90,3.5863908755386547L0,3.5863908755386547C0,3.5863908755386547,0,3.5863908755386547,0,3.5863908755386547L0,1.7931954377693273C0,0.80350393381034,0.80350393381034,0,1.7931954377693273,0Z"/><g clip-path="url(#clip1)"><g class="mark-group role-scope" role="graphics-object" aria-roledescription="group mark container"><g transform="translate(0,-596.4136091244613)"><path class="background" aria-hidden="true" d="M0,0h90v0h-90Z"/><g><g class="mark-rect role-mark layer_0_marks" role="graphics-object" aria-roledescription="rect mark container"><path aria-label="Parser: yaml_rs (parse_dt=False)&#xA;0.1.4; Execution Time (seconds, lower=better): 0.295255566667; parser: yaml_rs (parse_dt=False); Execution Time (s): 0.2953; Slowdown: 1.00" role="graphics-symbol" aria-roledescription="bar" d="M0,596.4136091244613h90v3.5863908755386547h-90Z" fill="#a6761d"/></g></g><path class="foreground" aria-hidden="true" d="" display="none"/></g></g></g><path class="foreground" aria-hidden="true" d="" display="none"/></g><g transform="translate(105,596.2671806491358)"><path class="background" aria-hidden="true" d="M1.8664096754321235,0L88.13359032456788,0C89.16368986629983,0,90,0.8363101337001645,90,1.8664096754321235L90,3.732819350864247C90,3.732819350864247,90,3.732819350864247,90,3.732819350864247L0,3.732819350864247C0,3.732819350864247,0,3.732819350864247,0,3.732819350864247L0,1.8664096754321235C0,0.8363101337001645,0.8363101337001645,0,1.8664096754321235,0Z"/><g clip-path="url(#clip2)"><g class="mark-group role-scope" role="graphics-object" aria-roledescription="group mark container"><g transform="translate(0,-596.2671806491358)"><path class="background" aria-hidden="true" d="M0,0h90v0h-90Z"/><g><g class="mark-rect role-mark layer_0_marks" role="graphics-object" aria-roledescription="rect mark container"><path aria-label="Parser: yaml_rs&#xA;0.1.4; Execution Time (seconds, lower=better): 0.307310533333; parser: yaml_rs; Execution Time (s): 0.3073; Slowdown: 1.04" role="graphics-symbol" aria-roledescription="bar" d="M0,596.2671806491358h90v3.732819350864247h-90Z" fill="#e6ab02"/></g></g><path class="foreground" aria-hidden="true" d="" display="none"/></g></g></g><path class="foreground" aria-hidden="true" d="" display="none"/></g><g transform="translate(205,594.8198806742515)"><path class="background" aria-hidden="true" d="M2.590059662874239,0L87.40994033712576,0C88.83943317940192,0,90,1.1605668205980821,90,2.590059662874239L90,5.180119325748478C90,5.180119325748478,90,5.180119325748478,90,5.180119325748478L0,5.180119325748478C0,5.180119325748478,0,5.180119325748478,0,5.180119325748478L0,2.590059662874239C0,1.1605668205980821,1.1605668205980821,0,2.590059662874239,0Z"/><g clip-path="url(#clip3)"><g class="mark-group role-scope" role="graphics-object" aria-roledescription="group mark container"><g transform="translate(0,-594.8198806742515)"><path class="background" aria-hidden="true" d="M0,0h90v0h-90Z"/><g><g class="mark-rect role-mark layer_0_marks" role="graphics-object" aria-roledescription="rect mark container"><path aria-label="Parser: yamlrocks&#xA;0.5.0; Execution Time (seconds, lower=better): 0.4264619; parser: yamlrocks; Execution Time (s): 0.4265; Slowdown: 1.44" role="graphics-symbol" aria-roledescription="bar" d="M0,594.8198806742515h90v5.180119325748478h-90Z" fill="#666666"/></g></g><path class="foreground" aria-hidden="true" d="" display="none"/></g></g></g><path class="foreground" aria-hidden="true" d="" display="none"/></g><g transform="translate(305,589.9685969257135)"><path class="background" aria-hidden="true" d="M5.015701537143229,0L84.98429846285677,0C87.75253949958378,0,90,2.2474605004162305,90,5.015701537143229L90,10.031403074286459C90,10.031403074286459,90,10.031403074286459,90,10.031403074286459L0,10.031403074286459C0,10.031403074286459,0,10.031403074286459,0,10.031403074286459L0,5.015701537143229C0,2.2474605004162305,2.2474605004162305,0,5.015701537143229,0Z"/><g clip-path="url(#clip4)"><g class="mark-group role-scope" role="graphics-object" aria-roledescription="group mark container"><g transform="translate(0,-589.9685969257135)"><path class="background" aria-hidden="true" d="M0,0h90v0h-90Z"/><g><g class="mark-rect role-mark layer_0_marks" role="graphics-object" aria-roledescription="rect mark container"><path aria-label="Parser: ryaml&#xA;0.5.1; Execution Time (seconds, lower=better): 0.825851866667; parser: ryaml; Execution Time (s): 0.8259; Slowdown: 2.80" role="graphics-symbol" aria-roledescription="bar" d="M0,589.9685969257135h90v10.031403074286459h-90Z" fill="#66a61e"/></g></g><path class="foreground" aria-hidden="true" d="" display="none"/></g></g></g><path class="foreground" aria-hidden="true" d="" display="none"/></g><g transform="translate(405,566.8789464984104)"><path class="background" aria-hidden="true" d="M6,0L84,0C87.311490146964,0,90,2.688509853036,90,6L90,33.121053501589586C90,33.121053501589586,90,33.121053501589586,90,33.121053501589586L0,33.121053501589586C0,33.121053501589586,0,33.121053501589586,0,33.121053501589586L0,6C0,2.688509853036,2.688509853036,0,6,0Z"/><g clip-path="url(#clip5)"><g class="mark-group role-scope" role="graphics-object" aria-roledescription="group mark container"><g transform="translate(0,-566.8789464984104)"><path class="background" aria-hidden="true" d="M0,0h90v0h-90Z"/><g><g class="mark-rect role-mark layer_0_marks" role="graphics-object" aria-roledescription="rect mark container"><path aria-label="Parser: PyYAML (CLoader)&#xA;6.0.3; Execution Time (seconds, lower=better): 2.72674556667; parser: PyYAML (CLoader); Execution Time (s): 2.7267; Slowdown: 9.24" role="graphics-symbol" aria-roledescription="bar" d="M0,566.8789464984104h90v33.121053501589586h-90Z" fill="#d95f02"/></g></g><path class="foreground" aria-hidden="true" d="" display="none"/></g></g></g><path class="foreground" aria-hidden="true" d="" display="none"/></g><g transform="translate(505,253.65125217358673)"><path class="background" aria-hidden="true" d="M6,0L84,0C87.311490146964,0,90,2.688509853036,90,6L90,346.3487478264133C90,346.3487478264133,90,346.3487478264133,90,346.3487478264133L0,346.3487478264133C0,346.3487478264133,0,346.3487478264133,0,346.3487478264133L0,6C0,2.688509853036,2.688509853036,0,6,0Z"/><g clip-path="url(#clip6)"><g class="mark-group role-scope" role="graphics-object" aria-roledescription="group mark container"><g transform="translate(0,-253.65125217358673)"><path class="background" aria-hidden="true" d="M0,0h90v0h-90Z"/><g><g class="mark-rect role-mark layer_0_marks" role="graphics-object" aria-roledescription="rect mark container"><path aria-label="Parser: oyaml&#xA;1.0; Execution Time (seconds, lower=better): 28.5137341; parser: oyaml; Execution Time (s): 28.5137; Slowdown: 96.57" role="graphics-symbol" aria-roledescription="bar" d="M0,253.65125217358673h90v346.3487478264133h-90Z" fill="#7570b3"/></g></g><path class="foreground" aria-hidden="true" d="" display="none"/></g></g></g><path class="foreground" aria-hidden="true" d="" display="none"/></g><g transform="translate(605,252.25637223972248)"><path class="background" aria-hidden="true" d="M6,0L84,0C87.311490146964,0,90,2.688509853036,90,6L90,347.7436277602775C90,347.7436277602775,90,347.7436277602775,90,347.7436277602775L0,347.7436277602775C0,347.7436277602775,0,347.7436277602775,0,347.7436277602775L0,6C0,2.688509853036,2.688509853036,0,6,0Z"/><g clip-path="url(#clip7)"><g class="mark-group role-scope" role="graphics-object" aria-roledescription="group mark container"><g transform="translate(0,-252.25637223972248)"><path class="background" aria-hidden="true" d="M0,0h90v0h-90Z"/><g><g class="mark-rect role-mark layer_0_marks" role="graphics-object" aria-roledescription="rect mark container"><path aria-label="Parser: PyYAML&#xA;6.0.3; Execution Time (seconds, lower=better): 28.6285699; parser: PyYAML; Execution Time (s): 28.6286; Slowdown: 96.96" role="graphics-symbol" aria-roledescription="bar" d="M0,252.25637223972248h90v347.7436277602775h-90Z" fill="#1b9e77"/></g></g><path class="foreground" aria-hidden="true" d="" display="none"/></g></g></g><path class="foreground" aria-hidden="true" d="" display="none"/></g><g transform="translate(705,28.571428571428605)"><path class="background" aria-hidden="true" d="M6,0L84,0C87.311490146964,0,90,2.688509853036,90,6L90,571.4285714285714C90,571.4285714285714,90,571.4285714285714,90,571.4285714285714L0,571.4285714285714C0,571.4285714285714,0,571.4285714285714,0,571.4285714285714L0,6C0,2.688509853036,2.688509853036,0,6,0Z"/><g clip-path="url(#clip8)"><g class="mark-group role-scope" role="graphics-object" aria-roledescription="group mark container"><g transform="translate(0,-28.571428571428605)"><path class="background" aria-hidden="true" d="M0,0h90v0h-90Z"/><g><g class="mark-rect role-mark layer_0_marks" role="graphics-object" aria-roledescription="rect mark container"><path aria-label="Parser: ruamel.yaml&#xA;0.19.1; Execution Time (seconds, lower=better): 47.0438032333; parser: ruamel.yaml; Execution Time (s): 47.0438; Slowdown: 159.33" role="graphics-symbol" aria-roledescription="bar" d="M0,28.571428571428605h90v571.4285714285714h-90Z" fill="#e7298a"/></g></g><path class="foreground" aria-hidden="true" d="" display="none"/></g></g></g><path class="foreground" aria-hidden="true" d="" display="none"/></g></g><g class="mark-text role-mark layer_1_marks" role="graphics-object" aria-roledescription="text mark container"><text aria-label="Parser: yaml_rs (parse_dt=False)&#xA;0.1.4; Execution Time (seconds, lower=better): 0.295255566667; parser: yaml_rs (parse_dt=False); label: 0.2953s (x1.00); Execution Time (s): 0.2953; Slowdown: 1.00" role="graphics-symbol" aria-roledescription="text mark" text-anchor="middle" transform="translate(50,592.4136091244613)" font-family="sans-serif" font-size="9px" font-weight="bold" fill="#a6761d">0.2953s (x1.00)</text><text aria-label="Parser: yaml_rs&#xA;0.1.4; Execution Time (seconds, lower=better): 0.307310533333; parser: yaml_rs; label: 0.3073s (x1.04); Execution Time (s): 0.3073; Slowdown: 1.04" role="graphics-symbol" aria-roledescription="text mark" text-anchor="middle" transform="translate(150,592.2671806491358)" font-family="sans-serif" font-size="9px" font-weight="bold" fill="#e6ab02">0.3073s (x1.04)</text><text aria-label="Parser: yamlrocks&#xA;0.5.0; Execution Time (seconds, lower=better): 0.4264619; parser: yamlrocks; label: 0.4265s (x1.44); Execution Time (s): 0.4265; Slowdown: 1.44" role="graphics-symbol" aria-roledescription="text mark" text-anchor="middle" transform="translate(250,590.8198806742515)" font-family="sans-serif" font-size="9px" font-weight="bold" fill="#666666">0.4265s (x1.44)</text><text aria-label="Parser: ryaml&#xA;0.5.1; Execution Time (seconds, lower=better): 0.825851866667; parser: ryaml; label: 0.8259s (x2.80); Execution Time (s): 0.8259; Slowdown: 2.80" role="graphics-symbol" aria-roledescription="text mark" text-anchor="middle" transform="translate(350,585.9685969257135)" font-family="sans-serif" font-size="9px" font-weight="bold" fill="#66a61e">0.8259s (x2.80)</text><text aria-label="Parser: PyYAML (CLoader)&#xA;6.0.3; Execution Time (seconds, lower=better): 2.72674556667; parser: PyYAML (CLoader); label: 2.7267s (x9.24); Execution Time (s): 2.7267; Slowdown: 9.24" role="graphics-symbol" aria-roledescription="text mark" text-anchor="middle" transform="translate(450,562.8789464984104)" font-family="sans-serif" font-size="9px" font-weight="bold" fill="#d95f02">2.7267s (x9.24)</text><text aria-label="Parser: oyaml&#xA;1.0; Execution Time (seconds, lower=better): 28.5137341; parser: oyaml; label: 28.5137s (x96.57); Execution Time (s): 28.5137; Slowdown: 96.57" role="graphics-symbol" aria-roledescription="text mark" text-anchor="middle" transform="translate(550,249.65125217358673)" font-family="sans-serif" font-size="9px" font-weight="bold" fill="#7570b3">28.5137s (x96.57)</text><text aria-label="Parser: PyYAML&#xA;6.0.3; Execution Time (seconds, lower=better): 28.6285699; parser: PyYAML; label: 28.6286s (x96.96); Execution Time (s): 28.6286; Slowdown: 96.96" role="graphics-symbol" aria-roledescription="text mark" text-anchor="middle" transform="translate(650,248.25637223972248)" font-family="sans-serif" font-size="9px" font-weight="bold" fill="#1b9e77">28.6286s (x96.96)</text><text aria-label="Parser: ruamel.yaml&#xA;0.19.1; Execution Time (seconds, lower=better): 47.0438032333; parser: ruamel.yaml; label: 47.0438s (x159.33); Execution Time (s): 47.0438; Slowdown: 159.33" role="graphics-symbol" aria-roledescription="text mark" text-anchor="middle" transform="translate(750,24.571428571428605)" font-family="sans-serif" font-size="9px" font-weight="bold" fill="#e7298a">47.0438s (x159.33)</text></g><g class="mark-group role-title"><g transform="translate(400,-31)"><path class="background" aria-hidden="true" d="M0,0h0v0h0Z" pointer-events="none"/><g><g class="mark-text role-title-text" role="graphics-symbol" aria-roledescription="title" aria-label="Title text 'YAML parsers benchmark (loads)'" pointer-events="none"><text text-anchor="middle" transform="translate(0,10)" font-family="sans-serif" font-size="13px" font-weight="bold" fill="#000" opacity="1">YAML parsers benchmark (loads)</text></g><g class="mark-text role-title-subtitle" role="graphics-symbol" aria-roledescription="subtitle" aria-label="Subtitle text 'Python: 3.14.6 (Windows 2025Server) | CPU: AMD EPYC 7763 64-Core Processor'" pointer-events="none"><text text-anchor="middle" transform="translate(0,25)" font-family="sans-serif" font-size="12px" fill="#000" opacity="1">Python: 3.14.6 (Windows 2025Server) | CPU: AMD EPYC 7763 64-Core Processor</text></g></g><path class="foreground" aria-hidden="true" d="" pointer-events="none" display="none"/></g></g></g><path class="foreground" aria-hidden="true" d="" display="none"/></g></g></g><defs><clipPath id="clip1"><path d="M1.7931954377693273,0L88.20680456223067,0C89.19649606618967,0,90,0.80350393381034,90,1.7931954377693273L90,3.5863908755386547C90,3.5863908755386547,90,3.5863908755386547,90,3.5863908755386547L0,3.5863908755386547C0,3.5863908755386547,0,3.5863908755386547,0,3.5863908755386547L0,1.7931954377693273C0,0.80350393381034,0.80350393381034,0,1.7931954377693273,0Z"/></clipPath><clipPath id="clip2"><path d="M1.8664096754321235,0L88.13359032456788,0C89.16368986629983,0,90,0.8363101337001645,90,1.8664096754321235L90,3.732819350864247C90,3.732819350864247,90,3.732819350864247,90,3.732819350864247L0,3.732819350864247C0,3.732819350864247,0,3.732819350864247,0,3.732819350864247L0,1.8664096754321235C0,0.8363101337001645,0.8363101337001645,0,1.8664096754321235,0Z"/></clipPath><clipPath id="clip3"><path d="M2.590059662874239,0L87.40994033712576,0C88.83943317940192,0,90,1.1605668205980821,90,2.590059662874239L90,5.180119325748478C90,5.180119325748478,90,5.180119325748478,90,5.180119325748478L0,5.180119325748478C0,5.180119325748478,0,5.180119325748478,0,5.180119325748478L0,2.590059662874239C0,1.1605668205980821,1.1605668205980821,0,2.590059662874239,0Z"/></clipPath><clipPath id="clip4"><path d="M5.015701537143229,0L84.98429846285677,0C87.75253949958378,0,90,2.2474605004162305,90,5.015701537143229L90,10.031403074286459C90,10.031403074286459,90,10.031403074286459,90,10.031403074286459L0,10.031403074286459C0,10.031403074286459,0,10.031403074286459,0,10.031403074286459L0,5.015701537143229C0,2.2474605004162305,2.2474605004162305,0,5.015701537143229,0Z"/></clipPath><clipPath id="clip5"><path d="M6,0L84,0C87.311490146964,0,90,2.688509853036,90,6L90,33.121053501589586C90,33.121053501589586,90,33.121053501589586,90,33.121053501589586L0,33.121053501589586C0,33.121053501589586,0,33.121053501589586,0,33.121053501589586L0,6C0,2.688509853036,2.688509853036,0,6,0Z"/></clipPath><clipPath id="clip6"><path d="M6,0L84,0C87.311490146964,0,90,2.688509853036,90,6L90,346.3487478264133C90,346.3487478264133,90,346.3487478264133,90,346.3487478264133L0,346.3487478264133C0,346.3487478264133,0,346.3487478264133,0,346.3487478264133L0,6C0,2.688509853036,2.688509853036,0,6,0Z"/></clipPath><clipPath id="clip7"><path d="M6,0L84,0C87.311490146964,0,90,2.688509853036,90,6L90,347.7436277602775C90,347.7436277602775,90,347.7436277602775,90,347.7436277602775L0,347.7436277602775C0,347.7436277602775,0,347.7436277602775,0,347.7436277602775L0,6C0,2.688509853036,2.688509853036,0,6,0Z"/></clipPath><clipPath id="clip8"><path d="M6,0L84,0C87.311490146964,0,90,2.688509853036,90,6L90,571.4285714285714C90,571.4285714285714,90,571.4285714285714,90,571.4285714285714L0,571.4285714285714C0,571.4285714285714,0,571.4285714285714,0,571.4285714285714L0,6C0,2.688509853036,2.688509853036,0,6,0Z"/></clipPath></defs></svg>