<svg xmlns="http://www.w3.org/2000/svg" xmlns:xlink="http://www.w3.org/1999/xlink" version="1.1" class="marks" width="844" height="690" viewBox="0 0 844 690"><rect width="844" height="690" fill="white"/><g fill="none" stroke-miterlimit="10" transform="translate(39,39)"><g class="mark-group role-frame root" role="graphics-object" aria-roledescription="group mark container"><g transform="translate(0,0)"><path class="background" aria-hidden="true" d="M0.5,0.5h800v600h-800Z" stroke="#ddd"/><g><g class="mark-group role-axis" role="graphics-symbol" aria-roledescription="axis" aria-label="X-axis titled 'Parser' for a discrete scale with 7 values: yamlrocks&#xA;0.6.1, yaml_rs&#xA;0.1.6, ryaml&#xA;0.5.1, PyYAML (CDumper)&#xA;6.0.3, oyaml&#xA;1.0, PyYAML&#xA;6.0.3, ruamel.yaml&#xA;0.19.1"><g transform="translate(0.5,600.5)"><path class="background" aria-hidden="true" d="M0,0h0v0h0Z" pointer-events="none"/><g><g class="mark-rule role-axis-tick" pointer-events="none"><line transform="translate(57,0)" x2="0" y2="5" stroke="#888" stroke-width="1" opacity="1"/><line transform="translate(171,0)" x2="0" y2="5" stroke="#888" stroke-width="1" opacity="1"/><line transform="translate(285,0)" x2="0" y2="5" stroke="#888" stroke-width="1" opacity="1"/><line transform="translate(400,0)" x2="0" y2="5" stroke="#888" stroke-width="1" opacity="1"/><line transform="translate(514,0)" x2="0" y2="5" stroke="#888" stroke-width="1" opacity="1"/><line transform="translate(628,0)" x2="0" y2="5" stroke="#888" stroke-width="1" opacity="1"/><line transform="translate(742,0)" x2="0" y2="5" stroke="#888" stroke-width="1" opacity="1"/></g><g class="mark-text role-axis-label" pointer-events="none"><text text-anchor="middle" transform="translate(56.642857142857096,15)" font-family="sans-serif" font-size="10px" fill="#000" opacity="1"><tspan>yamlrocks</tspan><tspan x="0" dy="14">0.6.1</tspan></text><text text-anchor="middle" transform="translate(170.9285714285714,15)" font-family="sans-serif" font-size="10px" fill="#000" opacity="1"><tspan>yaml_rs</tspan><tspan x="0" dy="14">0.1.6</tspan></text><text text-anchor="middle" transform="translate(285.21428571428567,15)" font-family="sans-serif" font-size="10px" fill="#000" opacity="1"><tspan>ryaml</tspan><tspan x="0" dy="14">0.5.1</tspan></text><text text-anchor="middle" transform="translate(399.5,15)" font-family="sans-serif" font-size="10px" fill="#000" opacity="1"><tspan>PyYAML (CDumper)</tspan><tspan x="0" dy="14">6.0.3</tspan></text><text text-anchor="middle" transform="translate(513.7857142857142,15)" font-family="sans-serif" font-size="10px" fill="#000" opacity="1"><tspan>oyaml</tspan><tspan x="0" dy="14">1.0</tspan></text><text text-anchor="middle" transform="translate(628.0714285714286,15)" font-family="sans-serif" font-size="10px" fill="#000" opacity="1"><tspan>PyYAML</tspan><tspan x="0" dy="14">6.0.3</tspan></text><text text-anchor="middle" transform="translate(742.3571428571429,15)" font-family="sans-serif" font-size="10px" fill="#000" opacity="1"><tspan>ruamel.yaml</tspan><tspan x="0" dy="14">0.19.1</tspan></text></g><g class="mark-rule role-axis-domain" pointer-events="none"><line transform="translate(0,0)" x2="800" y2="0" stroke="#888" stroke-width="1" opacity="1"/></g><g class="mark-text role-axis-title" pointer-events="none"><text text-anchor="middle" transform="translate(400,44)" font-family="sans-serif" font-size="11px" font-weight="bold" fill="#000" opacity="1">Parser</text></g></g><path class="foreground" aria-hidden="true" d="" pointer-events="none" display="none"/></g></g><g class="mark-group role-axis" role="graphics-symbol" aria-roledescription="axis" aria-label="Y-axis titled 'Execution Time (seconds, lower=better)' for a linear scale with values from 0 to 15"><g transform="translate(0.5,0.5)"><path class="background" aria-hidden="true" d="M0,0h0v0h0Z" pointer-events="none"/><g><g class="mark-rule role-axis-tick" pointer-events="none"><line transform="translate(0,600)" x2="-5" y2="0" stroke="#888" stroke-width="1" opacity="1"/><line transform="translate(0,560)" x2="-5" y2="0" stroke="#888" stroke-width="1" opacity="1"/><line transform="translate(0,520)" x2="-5" y2="0" stroke="#888" stroke-width="1" opacity="1"/><line transform="translate(0,480)" x2="-5" y2="0" stroke="#888" stroke-width="1" opacity="1"/><line transform="translate(0,441)" x2="-5" y2="0" stroke="#888" stroke-width="1" opacity="1"/><line transform="translate(0,401)" x2="-5" y2="0" stroke="#888" stroke-width="1" opacity="1"/><line transform="translate(0,361)" x2="-5" y2="0" stroke="#888" stroke-width="1" opacity="1"/><line transform="translate(0,321)" x2="-5" y2="0" stroke="#888" stroke-width="1" opacity="1"/><line transform="translate(0,281)" x2="-5" y2="0" stroke="#888" stroke-width="1" opacity="1"/><line transform="translate(0,241)" x2="-5" y2="0" stroke="#888" stroke-width="1" opacity="1"/><line transform="translate(0,201)" x2="-5" y2="0" stroke="#888" stroke-width="1" opacity="1"/><line transform="translate(0,162)" x2="-5" y2="0" stroke="#888" stroke-width="1" opacity="1"/><line transform="translate(0,122)" x2="-5" y2="0" stroke="#888" stroke-width="1" opacity="1"/><line transform="translate(0,82)" x2="-5" y2="0" stroke="#888" stroke-width="1" opacity="1"/><line transform="translate(0,42)" x2="-5" y2="0" stroke="#888" stroke-width="1" opacity="1"/><line transform="translate(0,2)" x2="-5" y2="0" stroke="#888" stroke-width="1" opacity="1"/></g><g class="mark-text role-axis-label" pointer-events="none"><text text-anchor="end" transform="translate(-7,603)" font-family="sans-serif" font-size="10px" fill="#000" opacity="1">0</text><text text-anchor="end" transform="translate(-7,563.1419536217293)" font-family="sans-serif" font-size="10px" fill="#000" opacity="1">1</text><text text-anchor="end" transform="translate(-7,523.2839072434587)" font-family="sans-serif" font-size="10px" fill="#000" opacity="1">2</text><text text-anchor="end" transform="translate(-7,483.4258608651881)" font-family="sans-serif" font-size="10px" fill="#000" opacity="1">3</text><text text-anchor="end" transform="translate(-7,443.56781448691737)" font-family="sans-serif" font-size="10px" fill="#000" opacity="1">4</text><text text-anchor="end" transform="translate(-7,403.7097681086467)" font-family="sans-serif" font-size="10px" fill="#000" opacity="1">5</text><text text-anchor="end" transform="translate(-7,363.8517217303761)" font-family="sans-serif" font-size="10px" fill="#000" opacity="1">6</text><text text-anchor="end" transform="translate(-7,323.99367535210547)" font-family="sans-serif" font-size="10px" fill="#000" opacity="1">7</text><text text-anchor="end" transform="translate(-7,284.1356289738348)" font-family="sans-serif" font-size="10px" fill="#000" opacity="1">8</text><text text-anchor="end" transform="translate(-7,244.27758259556418)" font-family="sans-serif" font-size="10px" fill="#000" opacity="1">9</text><text text-anchor="end" transform="translate(-7,204.41953621729348)" font-family="sans-serif" font-size="10px" fill="#000" opacity="1">10</text><text text-anchor="end" transform="translate(-7,164.56148983902287)" font-family="sans-serif" font-size="10px" fill="#000" opacity="1">11</text><text text-anchor="end" transform="translate(-7,124.7034434607522)" font-family="sans-serif" font-size="10px" fill="#000" opacity="1">12</text><text text-anchor="end" transform="translate(-7,84.84539708248157)" font-family="sans-serif" font-size="10px" fill="#000" opacity="1">13</text><text text-anchor="end" transform="translate(-7,44.98735070421089)" font-family="sans-serif" font-size="10px" fill="#000" opacity="1">14</text><text text-anchor="end" transform="translate(-7,5.129304325940273)" font-family="sans-serif" font-size="10px" fill="#000" opacity="1">15</text></g><g class="mark-rule role-axis-domain" pointer-events="none"><line transform="translate(0,600)" x2="0" y2="-600" stroke="#888" stroke-width="1" opacity="1"/></g><g class="mark-text role-axis-title" pointer-events="none"><text text-anchor="middle" transform="translate(-22.123046875,300) rotate(-90) translate(0,-2)" font-family="sans-serif" font-size="11px" font-weight="bold" fill="#000" opacity="1">Execution Time (seconds, lower=better)</text></g></g><path class="foreground" aria-hidden="true" d="" pointer-events="none" display="none"/></g></g><g class="mark-group role-scope" role="graphics-object" aria-roledescription="group mark container"><g transform="translate(5.714285714285666,597.7263907464604)"><path class="background" aria-hidden="true" d="M1.1368046267697878,0L101.72033823037307,0C102.34775778380161,0,102.85714285714286,0.5093850733412478,102.85714285714286,1.1368046267697878L102.85714285714286,2.2736092535395755C102.85714285714286,2.2736092535395755,102.85714285714286,2.2736092535395755,102.85714285714286,2.2736092535395755L0,2.2736092535395755C0,2.2736092535395755,0,2.2736092535395755,0,2.2736092535395755L0,1.1368046267697878C0,0.5093850733412478,0.5093850733412478,0,1.1368046267697878,0Z"/><g clip-path="url(#clip9)"><g class="mark-group role-scope" role="graphics-object" aria-roledescription="group mark container"><g transform="translate(0,-597.7263907464604)"><path class="background" aria-hidden="true" d="M0,0h102.85714285714286v0h-102.85714285714286Z"/><g><g class="mark-rect role-mark layer_0_marks" role="graphics-object" aria-roledescription="rect mark container"><path aria-label="Parser: yamlrocks&#xA;0.6.1; Execution Time (seconds, lower=better): 0.0570426666667; parser: yamlrocks; Execution Time (s): 0.0570; Slowdown: 1.00" role="graphics-symbol" aria-roledescription="bar" d="M0,597.7263907464604h102.85714285714286v2.2736092535395755h-102.85714285714286Z" fill="#a6761d"/></g></g><path class="foreground" aria-hidden="true" d="" display="none"/></g></g></g><path class="foreground" aria-hidden="true" d="" display="none"/></g><g transform="translate(119.99999999999996,596.9407169078612)"><path class="background" aria-hidden="true" d="M1.5296415460693993,0L101.32750131107346,0C102.17173346243939,0,102.85714285714286,0.6854093947034667,102.85714285714286,1.5296415460693993L102.85714285714286,3.0592830921387986C102.85714285714286,3.0592830921387986,102.85714285714286,3.0592830921387986,102.85714285714286,3.0592830921387986L0,3.0592830921387986C0,3.0592830921387986,0,3.0592830921387986,0,3.0592830921387986L0,1.5296415460693993C0,0.6854093947034667,0.6854093947034667,0,1.5296415460693993,0Z"/><g clip-path="url(#clip10)"><g class="mark-group role-scope" role="graphics-object" aria-roledescription="group mark container"><g transform="translate(0,-596.9407169078612)"><path class="background" aria-hidden="true" d="M0,0h102.85714285714286v0h-102.85714285714286Z"/><g><g class="mark-rect role-mark layer_0_marks" role="graphics-object" aria-roledescription="rect mark container"><path aria-label="Parser: yaml_rs&#xA;0.1.6; Execution Time (seconds, lower=better): 0.0767544666667; parser: yaml_rs; Execution Time (s): 0.0768; Slowdown: 1.35" role="graphics-symbol" aria-roledescription="bar" d="M0,596.9407169078612h102.85714285714286v3.0592830921387986h-102.85714285714286Z" fill="#e6ab02"/></g></g><path class="foreground" aria-hidden="true" d="" display="none"/></g></g></g><path class="foreground" aria-hidden="true" d="" display="none"/></g><g transform="translate(234.28571428571425,591.1475132847684)"><path class="background" aria-hidden="true" d="M4.426243357615817,0L98.43089949952704,0C100.87380971066199,0,102.85714285714286,1.9833331464808788,102.85714285714286,4.426243357615817L102.85714285714286,8.852486715231635C102.85714285714286,8.852486715231635,102.85714285714286,8.852486715231635,102.85714285714286,8.852486715231635L0,8.852486715231635C0,8.852486715231635,0,8.852486715231635,0,8.852486715231635L0,4.426243357615817C0,1.9833331464808788,1.9833331464808788,0,4.426243357615817,0Z"/><g clip-path="url(#clip11)"><g class="mark-group role-scope" role="graphics-object" aria-roledescription="group mark container"><g transform="translate(0,-591.1475132847684)"><path class="background" aria-hidden="true" d="M0,0h102.85714285714286v0h-102.85714285714286Z"/><g><g class="mark-rect role-mark layer_0_marks" role="graphics-object" aria-roledescription="rect mark container"><path aria-label="Parser: ryaml&#xA;0.5.1; Execution Time (seconds, lower=better): 0.222100366667; parser: ryaml; Execution Time (s): 0.2221; Slowdown: 3.89" role="graphics-symbol" aria-roledescription="bar" d="M0,591.1475132847684h102.85714285714286v8.852486715231635h-102.85714285714286Z" fill="#66a61e"/></g></g><path class="foreground" aria-hidden="true" d="" display="none"/></g></g></g><path class="foreground" aria-hidden="true" d="" display="none"/></g><g transform="translate(348.57142857142856,586.0830170517914)"><path class="background" aria-hidden="true" d="M6,0L96.85714285714286,0C100.16863300410687,0,102.85714285714286,2.688509853036,102.85714285714286,6L102.85714285714286,13.916982948208556C102.85714285714286,13.916982948208556,102.85714285714286,13.916982948208556,102.85714285714286,13.916982948208556L0,13.916982948208556C0,13.916982948208556,0,13.916982948208556,0,13.916982948208556L0,6C0,2.688509853036,2.688509853036,0,6,0Z"/><g clip-path="url(#clip12)"><g class="mark-group role-scope" role="graphics-object" aria-roledescription="group mark container"><g transform="translate(0,-586.0830170517914)"><path class="background" aria-hidden="true" d="M0,0h102.85714285714286v0h-102.85714285714286Z"/><g><g class="mark-rect role-mark layer_0_marks" role="graphics-object" aria-roledescription="rect mark container"><path aria-label="Parser: PyYAML (CDumper)&#xA;6.0.3; Execution Time (seconds, lower=better): 0.3491637; parser: PyYAML (CDumper); Execution Time (s): 0.3492; Slowdown: 6.12" role="graphics-symbol" aria-roledescription="bar" d="M0,586.0830170517914h102.85714285714286v13.916982948208556h-102.85714285714286Z" fill="#d95f02"/></g></g><path class="foreground" aria-hidden="true" d="" display="none"/></g></g></g><path class="foreground" aria-hidden="true" d="" display="none"/></g><g transform="translate(462.85714285714283,46.497212921625184)"><path class="background" aria-hidden="true" d="M6,0L96.85714285714286,0C100.16863300410687,0,102.85714285714286,2.688509853036,102.85714285714286,6L102.85714285714286,553.5027870783748C102.85714285714286,553.5027870783748,102.85714285714286,553.5027870783748,102.85714285714286,553.5027870783748L0,553.5027870783748C0,553.5027870783748,0,553.5027870783748,0,553.5027870783748L0,6C0,2.688509853036,2.688509853036,0,6,0Z"/><g clip-path="url(#clip13)"><g class="mark-group role-scope" role="graphics-object" aria-roledescription="group mark container"><g transform="translate(0,-46.497212921625184)"><path class="background" aria-hidden="true" d="M0,0h102.85714285714286v0h-102.85714285714286Z"/><g><g class="mark-rect role-mark layer_0_marks" role="graphics-object" aria-roledescription="rect mark container"><path aria-label="Parser: oyaml&#xA;1.0; Execution Time (seconds, lower=better): 13.8868519; parser: oyaml; Execution Time (s): 13.8869; Slowdown: 243.45" role="graphics-symbol" aria-roledescription="bar" d="M0,46.497212921625184h102.85714285714286v553.5027870783748h-102.85714285714286Z" fill="#7570b3"/></g></g><path class="foreground" aria-hidden="true" d="" display="none"/></g></g></g><path class="foreground" aria-hidden="true" d="" display="none"/></g><g transform="translate(577.1428571428571,29.571582543396335)"><path class="background" aria-hidden="true" d="M6,0L96.85714285714286,0C100.16863300410687,0,102.85714285714286,2.688509853036,102.85714285714286,6L102.85714285714286,570.4284174566037C102.85714285714286,570.4284174566037,102.85714285714286,570.4284174566037,102.85714285714286,570.4284174566037L0,570.4284174566037C0,570.4284174566037,0,570.4284174566037,0,570.4284174566037L0,6C0,2.688509853036,2.688509853036,0,6,0Z"/><g clip-path="url(#clip14)"><g class="mark-group role-scope" role="graphics-object" aria-roledescription="group mark container"><g transform="translate(0,-29.571582543396335)"><path class="background" aria-hidden="true" d="M0,0h102.85714285714286v0h-102.85714285714286Z"/><g><g class="mark-rect role-mark layer_0_marks" role="graphics-object" aria-roledescription="rect mark container"><path aria-label="Parser: PyYAML&#xA;6.0.3; Execution Time (seconds, lower=better): 14.3114996667; parser: PyYAML; Execution Time (s): 14.3115; Slowdown: 250.89" role="graphics-symbol" aria-roledescription="bar" d="M0,29.571582543396335h102.85714285714286v570.4284174566037h-102.85714285714286Z" fill="#1b9e77"/></g></g><path class="foreground" aria-hidden="true" d="" display="none"/></g></g></g><path class="foreground" aria-hidden="true" d="" display="none"/></g><g transform="translate(691.4285714285714,28.571428571428605)"><path class="background" aria-hidden="true" d="M6,0L96.85714285714286,0C100.16863300410687,0,102.85714285714286,2.688509853036,102.85714285714286,6L102.85714285714286,571.4285714285714C102.85714285714286,571.4285714285714,102.85714285714286,571.4285714285714,102.85714285714286,571.4285714285714L0,571.4285714285714C0,571.4285714285714,0,571.4285714285714,0,571.4285714285714L0,6C0,2.688509853036,2.688509853036,0,6,0Z"/><g clip-path="url(#clip15)"><g class="mark-group role-scope" role="graphics-object" aria-roledescription="group mark container"><g transform="translate(0,-28.571428571428605)"><path class="background" aria-hidden="true" d="M0,0h102.85714285714286v0h-102.85714285714286Z"/><g><g class="mark-rect role-mark layer_0_marks" role="graphics-object" aria-roledescription="rect mark container"><path aria-label="Parser: ruamel.yaml&#xA;0.19.1; Execution Time (seconds, lower=better): 14.3365925667; parser: ruamel.yaml; Execution Time (s): 14.3366; Slowdown: 251.33" role="graphics-symbol" aria-roledescription="bar" d="M0,28.571428571428605h102.85714285714286v571.4285714285714h-102.85714285714286Z" fill="#e7298a"/></g></g><path class="foreground" aria-hidden="true" d="" display="none"/></g></g></g><path class="foreground" aria-hidden="true" d="" display="none"/></g></g><g class="mark-text role-mark layer_1_marks" role="graphics-object" aria-roledescription="text mark container"><text aria-label="Parser: yamlrocks&#xA;0.6.1; Execution Time (seconds, lower=better): 0.0570426666667; parser: yamlrocks; label: 0.0570s (x1.00); Execution Time (s): 0.0570; Slowdown: 1.00" role="graphics-symbol" aria-roledescription="text mark" text-anchor="middle" transform="translate(57.142857142857096,593.7263907464604)" font-family="sans-serif" font-size="9px" font-weight="bold" fill="#a6761d">0.0570s (x1.00)</text><text aria-label="Parser: yaml_rs&#xA;0.1.6; Execution Time (seconds, lower=better): 0.0767544666667; parser: yaml_rs; label: 0.0768s (x1.35); Execution Time (s): 0.0768; Slowdown: 1.35" role="graphics-symbol" aria-roledescription="text mark" text-anchor="middle" transform="translate(171.4285714285714,592.9407169078612)" font-family="sans-serif" font-size="9px" font-weight="bold" fill="#e6ab02">0.0768s (x1.35)</text><text aria-label="Parser: ryaml&#xA;0.5.1; Execution Time (seconds, lower=better): 0.222100366667; parser: ryaml; label: 0.2221s (x3.89); Execution Time (s): 0.2221; Slowdown: 3.89" role="graphics-symbol" aria-roledescription="text mark" text-anchor="middle" transform="translate(285.71428571428567,587.1475132847684)" font-family="sans-serif" font-size="9px" font-weight="bold" fill="#66a61e">0.2221s (x3.89)</text><text aria-label="Parser: PyYAML (CDumper)&#xA;6.0.3; Execution Time (seconds, lower=better): 0.3491637; parser: PyYAML (CDumper); label: 0.3492s (x6.12); Execution Time (s): 0.3492; Slowdown: 6.12" role="graphics-symbol" aria-roledescription="text mark" text-anchor="middle" transform="translate(400,582.0830170517914)" font-family="sans-serif" font-size="9px" font-weight="bold" fill="#d95f02">0.3492s (x6.12)</text><text aria-label="Parser: oyaml&#xA;1.0; Execution Time (seconds, lower=better): 13.8868519; parser: oyaml; label: 13.8869s (x243.45); Execution Time (s): 13.8869; Slowdown: 243.45" role="graphics-symbol" aria-roledescription="text mark" text-anchor="middle" transform="translate(514.2857142857142,42.497212921625184)" font-family="sans-serif" font-size="9px" font-weight="bold" fill="#7570b3">13.8869s (x243.45)</text><text aria-label="Parser: PyYAML&#xA;6.0.3; Execution Time (seconds, lower=better): 14.3114996667; parser: PyYAML; label: 14.3115s (x250.89); Execution Time (s): 14.3115; Slowdown: 250.89" role="graphics-symbol" aria-roledescription="text mark" text-anchor="middle" transform="translate(628.5714285714286,25.571582543396335)" font-family="sans-serif" font-size="9px" font-weight="bold" fill="#1b9e77">14.3115s (x250.89)</text><text aria-label="Parser: ruamel.yaml&#xA;0.19.1; Execution Time (seconds, lower=better): 14.3365925667; parser: ruamel.yaml; label: 14.3366s (x251.33); Execution Time (s): 14.3366; Slowdown: 251.33" role="graphics-symbol" aria-roledescription="text mark" text-anchor="middle" transform="translate(742.8571428571429,24.571428571428605)" font-family="sans-serif" font-size="9px" font-weight="bold" fill="#e7298a">14.3366s (x251.33)</text></g><g class="mark-group role-title"><g transform="translate(400,-33.870695674059725)"><path class="background" aria-hidden="true" d="M0,0h0v0h0Z" pointer-events="none"/><g><g class="mark-text role-title-text" role="graphics-symbol" aria-roledescription="title" aria-label="Title text 'YAML parsers benchmark (dumps)'" pointer-events="none"><text text-anchor="middle" transform="translate(0,10)" font-family="sans-serif" font-size="13px" font-weight="bold" fill="#000" opacity="1">YAML parsers benchmark (dumps)</text></g><g class="mark-text role-title-subtitle" role="graphics-symbol" aria-roledescription="subtitle" aria-label="Subtitle text 'Python: 3.14.6 (Windows 2025Server) | CPU: AMD EPYC 7763 64-Core Processor'" pointer-events="none"><text text-anchor="middle" transform="translate(0,25)" font-family="sans-serif" font-size="12px" fill="#000" opacity="1">Python: 3.14.6 (Windows 2025Server) | CPU: AMD EPYC 7763 64-Core Processor</text></g></g><path class="foreground" aria-hidden="true" d="" pointer-events="none" display="none"/></g></g></g><path class="foreground" aria-hidden="true" d="" display="none"/></g></g></g><defs><clipPath id="clip9"><path d="M1.1368046267697878,0L101.72033823037307,0C102.34775778380161,0,102.85714285714286,0.5093850733412478,102.85714285714286,1.1368046267697878L102.85714285714286,2.2736092535395755C102.85714285714286,2.2736092535395755,102.85714285714286,2.2736092535395755,102.85714285714286,2.2736092535395755L0,2.2736092535395755C0,2.2736092535395755,0,2.2736092535395755,0,2.2736092535395755L0,1.1368046267697878C0,0.5093850733412478,0.5093850733412478,0,1.1368046267697878,0Z"/></clipPath><clipPath id="clip10"><path d="M1.5296415460693993,0L101.32750131107346,0C102.17173346243939,0,102.85714285714286,0.6854093947034667,102.85714285714286,1.5296415460693993L102.85714285714286,3.0592830921387986C102.85714285714286,3.0592830921387986,102.85714285714286,3.0592830921387986,102.85714285714286,3.0592830921387986L0,3.0592830921387986C0,3.0592830921387986,0,3.0592830921387986,0,3.0592830921387986L0,1.5296415460693993C0,0.6854093947034667,0.6854093947034667,0,1.5296415460693993,0Z"/></clipPath><clipPath id="clip11"><path d="M4.426243357615817,0L98.43089949952704,0C100.87380971066199,0,102.85714285714286,1.9833331464808788,102.85714285714286,4.426243357615817L102.85714285714286,8.852486715231635C102.85714285714286,8.852486715231635,102.85714285714286,8.852486715231635,102.85714285714286,8.852486715231635L0,8.852486715231635C0,8.852486715231635,0,8.852486715231635,0,8.852486715231635L0,4.426243357615817C0,1.9833331464808788,1.9833331464808788,0,4.426243357615817,0Z"/></clipPath><clipPath id="clip12"><path d="M6,0L96.85714285714286,0C100.16863300410687,0,102.85714285714286,2.688509853036,102.85714285714286,6L102.85714285714286,13.916982948208556C102.85714285714286,13.916982948208556,102.85714285714286,13.916982948208556,102.85714285714286,13.916982948208556L0,13.916982948208556C0,13.916982948208556,0,13.916982948208556,0,13.916982948208556L0,6C0,2.688509853036,2.688509853036,0,6,0Z"/></clipPath><clipPath id="clip13"><path d="M6,0L96.85714285714286,0C100.16863300410687,0,102.85714285714286,2.688509853036,102.85714285714286,6L102.85714285714286,553.5027870783748C102.85714285714286,553.5027870783748,102.85714285714286,553.5027870783748,102.85714285714286,553.5027870783748L0,553.5027870783748C0,553.5027870783748,0,553.5027870783748,0,553.5027870783748L0,6C0,2.688509853036,2.688509853036,0,6,0Z"/></clipPath><clipPath id="clip14"><path d="M6,0L96.85714285714286,0C100.16863300410687,0,102.85714285714286,2.688509853036,102.85714285714286,6L102.85714285714286,570.4284174566037C102.85714285714286,570.4284174566037,102.85714285714286,570.4284174566037,102.85714285714286,570.4284174566037L0,570.4284174566037C0,570.4284174566037,0,570.4284174566037,0,570.4284174566037L0,6C0,2.688509853036,2.688509853036,0,6,0Z"/></clipPath><clipPath id="clip15"><path d="M6,0L96.85714285714286,0C100.16863300410687,0,102.85714285714286,2.688509853036,102.85714285714286,6L102.85714285714286,571.4285714285714C102.85714285714286,571.4285714285714,102.85714285714286,571.4285714285714,102.85714285714286,571.4285714285714L0,571.4285714285714C0,571.4285714285714,0,571.4285714285714,0,571.4285714285714L0,6C0,2.688509853036,2.688509853036,0,6,0Z"/></clipPath></defs></svg>