<svg xmlns="http://www.w3.org/2000/svg" xmlns:xlink="http://www.w3.org/1999/xlink" version="1.1" class="marks" width="844" height="687" viewBox="0 0 844 687"><rect width="844" height="687" fill="white"/><g fill="none" stroke-miterlimit="10" transform="translate(39,36)"><g class="mark-group role-frame root" role="graphics-object" aria-roledescription="group mark container"><g transform="translate(0,0)"><path class="background" aria-hidden="true" d="M0.5,0.5h800v600h-800Z" stroke="#ddd"/><g><g class="mark-group role-axis" role="graphics-symbol" aria-roledescription="axis" aria-label="X-axis titled 'Parser' for a discrete scale with 8 values: yaml_rs&#xA;v0.1.4, yaml_rs (parse_dt=False)&#xA;v0.1.4, yamlrocks&#xA;v0.2.1, ryaml&#xA;v0.5.1, PyYAML (CLoader)&#xA;v6.0.3, ending with ruamel.yaml&#xA;v0.19.1"><g transform="translate(0.5,600.5)"><path class="background" aria-hidden="true" d="M0,0h0v0h0Z" pointer-events="none"/><g><g class="mark-rule role-axis-tick" pointer-events="none"><line transform="translate(50,0)" x2="0" y2="5" stroke="#888" stroke-width="1" opacity="1"/><line transform="translate(150,0)" x2="0" y2="5" stroke="#888" stroke-width="1" opacity="1"/><line transform="translate(250,0)" x2="0" y2="5" stroke="#888" stroke-width="1" opacity="1"/><line transform="translate(350,0)" x2="0" y2="5" stroke="#888" stroke-width="1" opacity="1"/><line transform="translate(450,0)" x2="0" y2="5" stroke="#888" stroke-width="1" opacity="1"/><line transform="translate(550,0)" x2="0" y2="5" stroke="#888" stroke-width="1" opacity="1"/><line transform="translate(650,0)" x2="0" y2="5" stroke="#888" stroke-width="1" opacity="1"/><line transform="translate(750,0)" x2="0" y2="5" stroke="#888" stroke-width="1" opacity="1"/></g><g class="mark-text role-axis-label" pointer-events="none"><text text-anchor="middle" transform="translate(49.5,15)" font-family="sans-serif" font-size="10px" fill="#000" opacity="1"><tspan>yaml_rs</tspan><tspan x="0" dy="14">v0.1.4</tspan></text><text text-anchor="middle" transform="translate(149.5,15)" font-family="sans-serif" font-size="10px" fill="#000" opacity="1"><tspan>yaml_rs (parse_dt=False)</tspan><tspan x="0" dy="14">v0.1.4</tspan></text><text text-anchor="middle" transform="translate(249.5,15)" font-family="sans-serif" font-size="10px" fill="#000" opacity="1"><tspan>yamlrocks</tspan><tspan x="0" dy="14">v0.2.1</tspan></text><text text-anchor="middle" transform="translate(349.5,15)" font-family="sans-serif" font-size="10px" fill="#000" opacity="1"><tspan>ryaml</tspan><tspan x="0" dy="14">v0.5.1</tspan></text><text text-anchor="middle" transform="translate(449.5,15)" font-family="sans-serif" font-size="10px" fill="#000" opacity="1"><tspan>PyYAML (CLoader)</tspan><tspan x="0" dy="14">v6.0.3</tspan></text><text text-anchor="middle" transform="translate(549.5,15)" font-family="sans-serif" font-size="10px" fill="#000" opacity="1"><tspan>PyYAML</tspan><tspan x="0" dy="14">v6.0.3</tspan></text><text text-anchor="middle" transform="translate(649.5,15)" font-family="sans-serif" font-size="10px" fill="#000" opacity="1"><tspan>oyaml</tspan><tspan x="0" dy="14">v1.0</tspan></text><text text-anchor="middle" transform="translate(749.5,15)" font-family="sans-serif" font-size="10px" fill="#000" opacity="1"><tspan>ruamel.yaml</tspan><tspan x="0" dy="14">v0.19.1</tspan></text></g><g class="mark-rule role-axis-domain" pointer-events="none"><line transform="translate(0,0)" x2="800" y2="0" stroke="#888" stroke-width="1" opacity="1"/></g><g class="mark-text role-axis-title" pointer-events="none"><text text-anchor="middle" transform="translate(400,44)" font-family="sans-serif" font-size="11px" font-weight="bold" fill="#000" opacity="1">Parser</text></g></g><path class="foreground" aria-hidden="true" d="" pointer-events="none" display="none"/></g></g><g class="mark-group role-axis" role="graphics-symbol" aria-roledescription="axis" aria-label="Y-axis titled 'Execution Time (seconds, lower=better)' for a linear scale with values from 0 to 39"><g transform="translate(0.5,0.5)"><path class="background" aria-hidden="true" d="M0,0h0v0h0Z" pointer-events="none"/><g><g class="mark-rule role-axis-tick" pointer-events="none"><line transform="translate(0,600)" x2="-5" y2="0" stroke="#888" stroke-width="1" opacity="1"/><line transform="translate(0,570)" x2="-5" y2="0" stroke="#888" stroke-width="1" opacity="1"/><line transform="translate(0,539)" x2="-5" y2="0" stroke="#888" stroke-width="1" opacity="1"/><line transform="translate(0,509)" x2="-5" y2="0" stroke="#888" stroke-width="1" opacity="1"/><line transform="translate(0,478)" x2="-5" y2="0" stroke="#888" stroke-width="1" opacity="1"/><line transform="translate(0,448)" x2="-5" y2="0" stroke="#888" stroke-width="1" opacity="1"/><line transform="translate(0,417)" x2="-5" y2="0" stroke="#888" stroke-width="1" opacity="1"/><line transform="translate(0,387)" x2="-5" y2="0" stroke="#888" stroke-width="1" opacity="1"/><line transform="translate(0,356)" x2="-5" y2="0" stroke="#888" stroke-width="1" opacity="1"/><line transform="translate(0,326)" x2="-5" y2="0" stroke="#888" stroke-width="1" opacity="1"/><line transform="translate(0,296)" x2="-5" y2="0" stroke="#888" stroke-width="1" opacity="1"/><line transform="translate(0,265)" x2="-5" y2="0" stroke="#888" stroke-width="1" opacity="1"/><line transform="translate(0,235)" x2="-5" y2="0" stroke="#888" stroke-width="1" opacity="1"/><line transform="translate(0,204)" x2="-5" y2="0" stroke="#888" stroke-width="1" opacity="1"/><line transform="translate(0,174)" x2="-5" y2="0" stroke="#888" stroke-width="1" opacity="1"/><line transform="translate(0,143)" x2="-5" y2="0" stroke="#888" stroke-width="1" opacity="1"/><line transform="translate(0,113)" x2="-5" y2="0" stroke="#888" stroke-width="1" opacity="1"/><line transform="translate(0,82)" x2="-5" y2="0" stroke="#888" stroke-width="1" opacity="1"/><line transform="translate(0,52)" x2="-5" y2="0" stroke="#888" stroke-width="1" opacity="1"/><line transform="translate(0,22)" x2="-5" y2="0" stroke="#888" stroke-width="1" opacity="1"/></g><g class="mark-text role-axis-label" pointer-events="none"><text text-anchor="end" transform="translate(-7,603)" font-family="sans-serif" font-size="10px" fill="#000" opacity="1">0</text><text text-anchor="end" transform="translate(-7,572.5582480951534)" font-family="sans-serif" font-size="10px" fill="#000" opacity="1">2</text><text text-anchor="end" transform="translate(-7,542.1164961903069)" font-family="sans-serif" font-size="10px" fill="#000" opacity="1">4</text><text text-anchor="end" transform="translate(-7,511.6747442854603)" font-family="sans-serif" font-size="10px" fill="#000" opacity="1">6</text><text text-anchor="end" transform="translate(-7,481.2329923806137)" font-family="sans-serif" font-size="10px" fill="#000" opacity="1">8</text><text text-anchor="end" transform="translate(-7,450.7912404757671)" font-family="sans-serif" font-size="10px" fill="#000" opacity="1">10</text><text text-anchor="end" transform="translate(-7,420.3494885709206)" font-family="sans-serif" font-size="10px" fill="#000" opacity="1">12</text><text text-anchor="end" transform="translate(-7,389.90773666607396)" font-family="sans-serif" font-size="10px" fill="#000" opacity="1">14</text><text text-anchor="end" transform="translate(-7,359.4659847612274)" font-family="sans-serif" font-size="10px" fill="#000" opacity="1">16</text><text text-anchor="end" transform="translate(-7,329.0242328563808)" font-family="sans-serif" font-size="10px" fill="#000" opacity="1">18</text><text text-anchor="end" transform="translate(-7,298.58248095153425)" font-family="sans-serif" font-size="10px" fill="#000" opacity="1">20</text><text text-anchor="end" transform="translate(-7,268.1407290466877)" font-family="sans-serif" font-size="10px" fill="#000" opacity="1">22</text><text text-anchor="end" transform="translate(-7,237.69897714184108)" font-family="sans-serif" font-size="10px" fill="#000" opacity="1">24</text><text text-anchor="end" transform="translate(-7,207.25722523699446)" font-family="sans-serif" font-size="10px" fill="#000" opacity="1">26</text><text text-anchor="end" transform="translate(-7,176.8154733321479)" font-family="sans-serif" font-size="10px" fill="#000" opacity="1">28</text><text text-anchor="end" transform="translate(-7,146.37372142730132)" font-family="sans-serif" font-size="10px" fill="#000" opacity="1">30</text><text text-anchor="end" transform="translate(-7,115.93196952245475)" font-family="sans-serif" font-size="10px" fill="#000" opacity="1">32</text><text text-anchor="end" transform="translate(-7,85.49021761760818)" font-family="sans-serif" font-size="10px" fill="#000" opacity="1">34</text><text text-anchor="end" transform="translate(-7,55.048465712761605)" font-family="sans-serif" font-size="10px" fill="#000" opacity="1">36</text><text text-anchor="end" transform="translate(-7,24.606713807915035)" font-family="sans-serif" font-size="10px" fill="#000" opacity="1">38</text></g><g class="mark-rule role-axis-domain" pointer-events="none"><line transform="translate(0,600)" x2="0" y2="-600" stroke="#888" stroke-width="1" opacity="1"/></g><g class="mark-text role-axis-title" pointer-events="none"><text text-anchor="middle" transform="translate(-22.123046875,300) rotate(-90) translate(0,-2)" font-family="sans-serif" font-size="11px" font-weight="bold" fill="#000" opacity="1">Execution Time (seconds, lower=better)</text></g></g><path class="foreground" aria-hidden="true" d="" pointer-events="none" display="none"/></g></g><g class="mark-group role-scope" role="graphics-object" aria-roledescription="group mark container"><g transform="translate(5,593.2782998381232)"><path class="background" aria-hidden="true" d="M3.3608500809384054,0L86.6391499190616,0C88.49405357380337,0,90,1.5059464261966236,90,3.3608500809384054L90,6.721700161876811C90,6.721700161876811,90,6.721700161876811,90,6.721700161876811L0,6.721700161876811C0,6.721700161876811,0,6.721700161876811,0,6.721700161876811L0,3.3608500809384054C0,1.5059464261966236,1.5059464261966236,0,3.3608500809384054,0Z"/><g clip-path="url(#clip1)"><g class="mark-group role-scope" role="graphics-object" aria-roledescription="group mark container"><g transform="translate(0,-593.2782998381232)"><path class="background" aria-hidden="true" d="M0,0h90v0h-90Z"/><g><g class="mark-rect role-mark layer_0_marks" role="graphics-object" aria-roledescription="rect mark container"><path aria-label="Parser: yaml_rs&#xA;v0.1.4; Execution Time (seconds, lower=better): 0.4416106; parser: yaml_rs; Execution Time (s): 0.4416; Slowdown: 1.00" role="graphics-symbol" aria-roledescription="bar" d="M0,593.2782998381232h90v6.721700161876811h-90Z" fill="#e6ab02"/></g></g><path class="foreground" aria-hidden="true" d="" display="none"/></g></g></g><path class="foreground" aria-hidden="true" d="" display="none"/></g><g transform="translate(105,593.136841583285)"><path class="background" aria-hidden="true" d="M3.4315792083575047,0L86.5684207916425,0C88.46236091447624,0,90,1.5376390855237714,90,3.4315792083575047L90,6.8631584167150095C90,6.8631584167150095,90,6.8631584167150095,90,6.8631584167150095L0,6.8631584167150095C0,6.8631584167150095,0,6.8631584167150095,0,6.8631584167150095L0,3.4315792083575047C0,1.5376390855237714,1.5376390855237714,0,3.4315792083575047,0Z"/><g clip-path="url(#clip2)"><g class="mark-group role-scope" role="graphics-object" aria-roledescription="group mark container"><g transform="translate(0,-593.136841583285)"><path class="background" aria-hidden="true" d="M0,0h90v0h-90Z"/><g><g class="mark-rect role-mark layer_0_marks" role="graphics-object" aria-roledescription="rect mark container"><path aria-label="Parser: yaml_rs (parse_dt=False)&#xA;v0.1.4; Execution Time (seconds, lower=better): 0.4509043; parser: yaml_rs (parse_dt=False); Execution Time (s): 0.4509; Slowdown: 1.02" role="graphics-symbol" aria-roledescription="bar" d="M0,593.136841583285h90v6.8631584167150095h-90Z" fill="#a6761d"/></g></g><path class="foreground" aria-hidden="true" d="" display="none"/></g></g></g><path class="foreground" aria-hidden="true" d="" display="none"/></g><g transform="translate(205,592.066379194141)"><path class="background" aria-hidden="true" d="M3.966810402929525,0L86.03318959707047,0C88.22253185776638,0,90,1.7774681422336223,90,3.966810402929525L90,7.93362080585905C90,7.93362080585905,90,7.93362080585905,90,7.93362080585905L0,7.93362080585905C0,7.93362080585905,0,7.93362080585905,0,7.93362080585905L0,3.966810402929525C0,1.7774681422336223,1.7774681422336223,0,3.966810402929525,0Z"/><g clip-path="url(#clip3)"><g class="mark-group role-scope" role="graphics-object" aria-roledescription="group mark container"><g transform="translate(0,-592.066379194141)"><path class="background" aria-hidden="true" d="M0,0h90v0h-90Z"/><g><g class="mark-rect role-mark layer_0_marks" role="graphics-object" aria-roledescription="rect mark container"><path aria-label="Parser: yamlrocks&#xA;v0.2.1; Execution Time (seconds, lower=better): 0.521232866667; parser: yamlrocks; Execution Time (s): 0.5212; Slowdown: 1.18" role="graphics-symbol" aria-roledescription="bar" d="M0,592.066379194141h90v7.93362080585905h-90Z" fill="#666666"/></g></g><path class="foreground" aria-hidden="true" d="" display="none"/></g></g></g><path class="foreground" aria-hidden="true" d="" display="none"/></g><g transform="translate(305,586.325664487399)"><path class="background" aria-hidden="true" d="M6,0L84,0C87.311490146964,0,90,2.688509853036,90,6L90,13.674335512601033C90,13.674335512601033,90,13.674335512601033,90,13.674335512601033L0,13.674335512601033C0,13.674335512601033,0,13.674335512601033,0,13.674335512601033L0,6C0,2.688509853036,2.688509853036,0,6,0Z"/><g clip-path="url(#clip4)"><g class="mark-group role-scope" role="graphics-object" aria-roledescription="group mark container"><g transform="translate(0,-586.325664487399)"><path class="background" aria-hidden="true" d="M0,0h90v0h-90Z"/><g><g class="mark-rect role-mark layer_0_marks" role="graphics-object" aria-roledescription="rect mark container"><path aria-label="Parser: ryaml&#xA;v0.5.1; Execution Time (seconds, lower=better): 0.898393466667; parser: ryaml; Execution Time (s): 0.8984; Slowdown: 2.03" role="graphics-symbol" aria-roledescription="bar" d="M0,586.325664487399h90v13.674335512601033h-90Z" fill="#66a61e"/></g></g><path class="foreground" aria-hidden="true" d="" display="none"/></g></g></g><path class="foreground" aria-hidden="true" d="" display="none"/></g><g transform="translate(405,560.6206669366346)"><path class="background" aria-hidden="true" d="M6,0L84,0C87.311490146964,0,90,2.688509853036,90,6L90,39.37933306336538C90,39.37933306336538,90,39.37933306336538,90,39.37933306336538L0,39.37933306336538C0,39.37933306336538,0,39.37933306336538,0,39.37933306336538L0,6C0,2.688509853036,2.688509853036,0,6,0Z"/><g clip-path="url(#clip5)"><g class="mark-group role-scope" role="graphics-object" aria-roledescription="group mark container"><g transform="translate(0,-560.6206669366346)"><path class="background" aria-hidden="true" d="M0,0h90v0h-90Z"/><g><g class="mark-rect role-mark layer_0_marks" role="graphics-object" aria-roledescription="rect mark container"><path aria-label="Parser: PyYAML (CLoader)&#xA;v6.0.3; Execution Time (seconds, lower=better): 2.5871923; parser: PyYAML (CLoader); Execution Time (s): 2.5872; Slowdown: 5.86" role="graphics-symbol" aria-roledescription="bar" d="M0,560.6206669366346h90v39.37933306336538h-90Z" fill="#d95f02"/></g></g><path class="foreground" aria-hidden="true" d="" display="none"/></g></g></g><path class="foreground" aria-hidden="true" d="" display="none"/></g><g transform="translate(505,212.72966454420614)"><path class="background" aria-hidden="true" d="M6,0L84,0C87.311490146964,0,90,2.688509853036,90,6L90,387.2703354557939C90,387.2703354557939,90,387.2703354557939,90,387.2703354557939L0,387.2703354557939C0,387.2703354557939,0,387.2703354557939,0,387.2703354557939L0,6C0,2.688509853036,2.688509853036,0,6,0Z"/><g clip-path="url(#clip6)"><g class="mark-group role-scope" role="graphics-object" aria-roledescription="group mark container"><g transform="translate(0,-212.72966454420614)"><path class="background" aria-hidden="true" d="M0,0h90v0h-90Z"/><g><g class="mark-rect role-mark layer_0_marks" role="graphics-object" aria-roledescription="rect mark container"><path aria-label="Parser: PyYAML&#xA;v6.0.3; Execution Time (seconds, lower=better): 25.4433671667; parser: PyYAML; Execution Time (s): 25.4434; Slowdown: 57.61" role="graphics-symbol" aria-roledescription="bar" d="M0,212.72966454420614h90v387.2703354557939h-90Z" fill="#1b9e77"/></g></g><path class="foreground" aria-hidden="true" d="" display="none"/></g></g></g><path class="foreground" aria-hidden="true" d="" display="none"/></g><g transform="translate(605,167.97614662901066)"><path class="background" aria-hidden="true" d="M6,0L84,0C87.311490146964,0,90,2.688509853036,90,6L90,432.02385337098934C90,432.02385337098934,90,432.02385337098934,90,432.02385337098934L0,432.02385337098934C0,432.02385337098934,0,432.02385337098934,0,432.02385337098934L0,6C0,2.688509853036,2.688509853036,0,6,0Z"/><g clip-path="url(#clip7)"><g class="mark-group role-scope" role="graphics-object" aria-roledescription="group mark container"><g transform="translate(0,-167.97614662901066)"><path class="background" aria-hidden="true" d="M0,0h90v0h-90Z"/><g><g class="mark-rect role-mark layer_0_marks" role="graphics-object" aria-roledescription="rect mark container"><path aria-label="Parser: oyaml&#xA;v1.0; Execution Time (seconds, lower=better): 28.3836393333; parser: oyaml; Execution Time (s): 28.3836; Slowdown: 64.27" role="graphics-symbol" aria-roledescription="bar" d="M0,167.97614662901066h90v432.02385337098934h-90Z" fill="#7570b3"/></g></g><path class="foreground" aria-hidden="true" d="" display="none"/></g></g></g><path class="foreground" aria-hidden="true" d="" display="none"/></g><g transform="translate(705,23.076923076923062)"><path class="background" aria-hidden="true" d="M6,0L84,0C87.311490146964,0,90,2.688509853036,90,6L90,576.9230769230769C90,576.9230769230769,90,576.9230769230769,90,576.9230769230769L0,576.9230769230769C0,576.9230769230769,0,576.9230769230769,0,576.9230769230769L0,6C0,2.688509853036,2.688509853036,0,6,0Z"/><g clip-path="url(#clip8)"><g class="mark-group role-scope" role="graphics-object" aria-roledescription="group mark container"><g transform="translate(0,-23.076923076923062)"><path class="background" aria-hidden="true" d="M0,0h90v0h-90Z"/><g><g class="mark-rect role-mark layer_0_marks" role="graphics-object" aria-roledescription="rect mark container"><path aria-label="Parser: ruamel.yaml&#xA;v0.19.1; Execution Time (seconds, lower=better): 37.9034083667; parser: ruamel.yaml; Execution Time (s): 37.9034; Slowdown: 85.83" role="graphics-symbol" aria-roledescription="bar" d="M0,23.076923076923062h90v576.9230769230769h-90Z" fill="#e7298a"/></g></g><path class="foreground" aria-hidden="true" d="" display="none"/></g></g></g><path class="foreground" aria-hidden="true" d="" display="none"/></g></g><g class="mark-text role-mark layer_1_marks" role="graphics-object" aria-roledescription="text mark container"><text aria-label="Parser: yaml_rs&#xA;v0.1.4; Execution Time (seconds, lower=better): 0.4416106; parser: yaml_rs; label: 0.4416s (x1.00); Execution Time (s): 0.4416; Slowdown: 1.00" role="graphics-symbol" aria-roledescription="text mark" text-anchor="middle" transform="translate(50,589.2782998381232)" font-family="sans-serif" font-size="9px" font-weight="bold" fill="#e6ab02">0.4416s (x1.00)</text><text aria-label="Parser: yaml_rs (parse_dt=False)&#xA;v0.1.4; Execution Time (seconds, lower=better): 0.4509043; parser: yaml_rs (parse_dt=False); label: 0.4509s (x1.02); Execution Time (s): 0.4509; Slowdown: 1.02" role="graphics-symbol" aria-roledescription="text mark" text-anchor="middle" transform="translate(150,589.136841583285)" font-family="sans-serif" font-size="9px" font-weight="bold" fill="#a6761d">0.4509s (x1.02)</text><text aria-label="Parser: yamlrocks&#xA;v0.2.1; Execution Time (seconds, lower=better): 0.521232866667; parser: yamlrocks; label: 0.5212s (x1.18); Execution Time (s): 0.5212; Slowdown: 1.18" role="graphics-symbol" aria-roledescription="text mark" text-anchor="middle" transform="translate(250,588.066379194141)" font-family="sans-serif" font-size="9px" font-weight="bold" fill="#666666">0.5212s (x1.18)</text><text aria-label="Parser: ryaml&#xA;v0.5.1; Execution Time (seconds, lower=better): 0.898393466667; parser: ryaml; label: 0.8984s (x2.03); Execution Time (s): 0.8984; Slowdown: 2.03" role="graphics-symbol" aria-roledescription="text mark" text-anchor="middle" transform="translate(350,582.325664487399)" font-family="sans-serif" font-size="9px" font-weight="bold" fill="#66a61e">0.8984s (x2.03)</text><text aria-label="Parser: PyYAML (CLoader)&#xA;v6.0.3; Execution Time (seconds, lower=better): 2.5871923; parser: PyYAML (CLoader); label: 2.5872s (x5.86); Execution Time (s): 2.5872; Slowdown: 5.86" role="graphics-symbol" aria-roledescription="text mark" text-anchor="middle" transform="translate(450,556.6206669366346)" font-family="sans-serif" font-size="9px" font-weight="bold" fill="#d95f02">2.5872s (x5.86)</text><text aria-label="Parser: PyYAML&#xA;v6.0.3; Execution Time (seconds, lower=better): 25.4433671667; parser: PyYAML; label: 25.4434s (x57.61); Execution Time (s): 25.4434; Slowdown: 57.61" role="graphics-symbol" aria-roledescription="text mark" text-anchor="middle" transform="translate(550,208.72966454420614)" font-family="sans-serif" font-size="9px" font-weight="bold" fill="#1b9e77">25.4434s (x57.61)</text><text aria-label="Parser: oyaml&#xA;v1.0; Execution Time (seconds, lower=better): 28.3836393333; parser: oyaml; label: 28.3836s (x64.27); Execution Time (s): 28.3836; Slowdown: 64.27" role="graphics-symbol" aria-roledescription="text mark" text-anchor="middle" transform="translate(650,163.97614662901066)" font-family="sans-serif" font-size="9px" font-weight="bold" fill="#7570b3">28.3836s (x64.27)</text><text aria-label="Parser: ruamel.yaml&#xA;v0.19.1; Execution Time (seconds, lower=better): 37.9034083667; parser: ruamel.yaml; label: 37.9034s (x85.83); Execution Time (s): 37.9034; Slowdown: 85.83" role="graphics-symbol" aria-roledescription="text mark" text-anchor="middle" transform="translate(750,19.076923076923062)" font-family="sans-serif" font-size="9px" font-weight="bold" fill="#e7298a">37.9034s (x85.83)</text></g><g class="mark-group role-title"><g transform="translate(400,-31)"><path class="background" aria-hidden="true" d="M0,0h0v0h0Z" pointer-events="none"/><g><g class="mark-text role-title-text" role="graphics-symbol" aria-roledescription="title" aria-label="Title text 'YAML parsers benchmark (loads)'" pointer-events="none"><text text-anchor="middle" transform="translate(0,10)" font-family="sans-serif" font-size="13px" font-weight="bold" fill="#000" opacity="1">YAML parsers benchmark (loads)</text></g><g class="mark-text role-title-subtitle" role="graphics-symbol" aria-roledescription="subtitle" aria-label="Subtitle text 'Python: 3.14.6 (Windows 2025Server) | CPU: AMD EPYC 9V74 80-Core Processor'" pointer-events="none"><text text-anchor="middle" transform="translate(0,25)" font-family="sans-serif" font-size="12px" fill="#000" opacity="1">Python: 3.14.6 (Windows 2025Server) | CPU: AMD EPYC 9V74 80-Core Processor</text></g></g><path class="foreground" aria-hidden="true" d="" pointer-events="none" display="none"/></g></g></g><path class="foreground" aria-hidden="true" d="" display="none"/></g></g></g><defs><clipPath id="clip1"><path d="M3.3608500809384054,0L86.6391499190616,0C88.49405357380337,0,90,1.5059464261966236,90,3.3608500809384054L90,6.721700161876811C90,6.721700161876811,90,6.721700161876811,90,6.721700161876811L0,6.721700161876811C0,6.721700161876811,0,6.721700161876811,0,6.721700161876811L0,3.3608500809384054C0,1.5059464261966236,1.5059464261966236,0,3.3608500809384054,0Z"/></clipPath><clipPath id="clip2"><path d="M3.4315792083575047,0L86.5684207916425,0C88.46236091447624,0,90,1.5376390855237714,90,3.4315792083575047L90,6.8631584167150095C90,6.8631584167150095,90,6.8631584167150095,90,6.8631584167150095L0,6.8631584167150095C0,6.8631584167150095,0,6.8631584167150095,0,6.8631584167150095L0,3.4315792083575047C0,1.5376390855237714,1.5376390855237714,0,3.4315792083575047,0Z"/></clipPath><clipPath id="clip3"><path d="M3.966810402929525,0L86.03318959707047,0C88.22253185776638,0,90,1.7774681422336223,90,3.966810402929525L90,7.93362080585905C90,7.93362080585905,90,7.93362080585905,90,7.93362080585905L0,7.93362080585905C0,7.93362080585905,0,7.93362080585905,0,7.93362080585905L0,3.966810402929525C0,1.7774681422336223,1.7774681422336223,0,3.966810402929525,0Z"/></clipPath><clipPath id="clip4"><path d="M6,0L84,0C87.311490146964,0,90,2.688509853036,90,6L90,13.674335512601033C90,13.674335512601033,90,13.674335512601033,90,13.674335512601033L0,13.674335512601033C0,13.674335512601033,0,13.674335512601033,0,13.674335512601033L0,6C0,2.688509853036,2.688509853036,0,6,0Z"/></clipPath><clipPath id="clip5"><path d="M6,0L84,0C87.311490146964,0,90,2.688509853036,90,6L90,39.37933306336538C90,39.37933306336538,90,39.37933306336538,90,39.37933306336538L0,39.37933306336538C0,39.37933306336538,0,39.37933306336538,0,39.37933306336538L0,6C0,2.688509853036,2.688509853036,0,6,0Z"/></clipPath><clipPath id="clip6"><path d="M6,0L84,0C87.311490146964,0,90,2.688509853036,90,6L90,387.2703354557939C90,387.2703354557939,90,387.2703354557939,90,387.2703354557939L0,387.2703354557939C0,387.2703354557939,0,387.2703354557939,0,387.2703354557939L0,6C0,2.688509853036,2.688509853036,0,6,0Z"/></clipPath><clipPath id="clip7"><path d="M6,0L84,0C87.311490146964,0,90,2.688509853036,90,6L90,432.02385337098934C90,432.02385337098934,90,432.02385337098934,90,432.02385337098934L0,432.02385337098934C0,432.02385337098934,0,432.02385337098934,0,432.02385337098934L0,6C0,2.688509853036,2.688509853036,0,6,0Z"/></clipPath><clipPath id="clip8"><path d="M6,0L84,0C87.311490146964,0,90,2.688509853036,90,6L90,576.9230769230769C90,576.9230769230769,90,576.9230769230769,90,576.9230769230769L0,576.9230769230769C0,576.9230769230769,0,576.9230769230769,0,576.9230769230769L0,6C0,2.688509853036,2.688509853036,0,6,0Z"/></clipPath></defs></svg>