<svg xmlns="http://www.w3.org/2000/svg" xmlns:xlink="http://www.w3.org/1999/xlink" version="1.1" class="marks" width="844" height="687" viewBox="0 0 844 687"><rect width="844" height="687" fill="white"/><g fill="none" stroke-miterlimit="10" transform="translate(39,36)"><g class="mark-group role-frame root" role="graphics-object" aria-roledescription="group mark container"><g transform="translate(0,0)"><path class="background" aria-hidden="true" d="M0.5,0.5h800v600h-800Z" stroke="#ddd"/><g><g class="mark-group role-axis" role="graphics-symbol" aria-roledescription="axis" aria-label="X-axis titled 'Parser' for a discrete scale with 8 values: yaml_rs (parse_dt=False)&#xA;0.1.6, yaml_rs&#xA;0.1.6, yamlrocks&#xA;0.6.1, ryaml&#xA;0.5.1, PyYAML (CLoader)&#xA;6.0.3, ending with ruamel.yaml&#xA;0.19.1"><g transform="translate(0.5,600.5)"><path class="background" aria-hidden="true" d="M0,0h0v0h0Z" pointer-events="none"/><g><g class="mark-rule role-axis-tick" pointer-events="none"><line transform="translate(50,0)" x2="0" y2="5" stroke="#888" stroke-width="1" opacity="1"/><line transform="translate(150,0)" x2="0" y2="5" stroke="#888" stroke-width="1" opacity="1"/><line transform="translate(250,0)" x2="0" y2="5" stroke="#888" stroke-width="1" opacity="1"/><line transform="translate(350,0)" x2="0" y2="5" stroke="#888" stroke-width="1" opacity="1"/><line transform="translate(450,0)" x2="0" y2="5" stroke="#888" stroke-width="1" opacity="1"/><line transform="translate(550,0)" x2="0" y2="5" stroke="#888" stroke-width="1" opacity="1"/><line transform="translate(650,0)" x2="0" y2="5" stroke="#888" stroke-width="1" opacity="1"/><line transform="translate(750,0)" x2="0" y2="5" stroke="#888" stroke-width="1" opacity="1"/></g><g class="mark-text role-axis-label" pointer-events="none"><text text-anchor="middle" transform="translate(49.5,15)" font-family="sans-serif" font-size="10px" fill="#000" opacity="1"><tspan>yaml_rs (parse_dt=False)</tspan><tspan x="0" dy="14">0.1.6</tspan></text><text text-anchor="middle" transform="translate(149.5,15)" font-family="sans-serif" font-size="10px" fill="#000" opacity="1"><tspan>yaml_rs</tspan><tspan x="0" dy="14">0.1.6</tspan></text><text text-anchor="middle" transform="translate(249.5,15)" font-family="sans-serif" font-size="10px" fill="#000" opacity="1"><tspan>yamlrocks</tspan><tspan x="0" dy="14">0.6.1</tspan></text><text text-anchor="middle" transform="translate(349.5,15)" font-family="sans-serif" font-size="10px" fill="#000" opacity="1"><tspan>ryaml</tspan><tspan x="0" dy="14">0.5.1</tspan></text><text text-anchor="middle" transform="translate(449.5,15)" font-family="sans-serif" font-size="10px" fill="#000" opacity="1"><tspan>PyYAML (CLoader)</tspan><tspan x="0" dy="14">6.0.3</tspan></text><text text-anchor="middle" transform="translate(549.5,15)" font-family="sans-serif" font-size="10px" fill="#000" opacity="1"><tspan>PyYAML</tspan><tspan x="0" dy="14">6.0.3</tspan></text><text text-anchor="middle" transform="translate(649.5,15)" font-family="sans-serif" font-size="10px" fill="#000" opacity="1"><tspan>oyaml</tspan><tspan x="0" dy="14">1.0</tspan></text><text text-anchor="middle" transform="translate(749.5,15)" font-family="sans-serif" font-size="10px" fill="#000" opacity="1"><tspan>ruamel.yaml</tspan><tspan x="0" dy="14">0.19.1</tspan></text></g><g class="mark-rule role-axis-domain" pointer-events="none"><line transform="translate(0,0)" x2="800" y2="0" stroke="#888" stroke-width="1" opacity="1"/></g><g class="mark-text role-axis-title" pointer-events="none"><text text-anchor="middle" transform="translate(400,44)" font-family="sans-serif" font-size="11px" font-weight="bold" fill="#000" opacity="1">Parser</text></g></g><path class="foreground" aria-hidden="true" d="" pointer-events="none" display="none"/></g></g><g class="mark-group role-axis" role="graphics-symbol" aria-roledescription="axis" aria-label="Y-axis titled 'Execution Time (seconds, lower=better)' for a linear scale with values from 0 to 35"><g transform="translate(0.5,0.5)"><path class="background" aria-hidden="true" d="M0,0h0v0h0Z" pointer-events="none"/><g><g class="mark-rule role-axis-tick" pointer-events="none"><line transform="translate(0,600)" x2="-5" y2="0" stroke="#888" stroke-width="1" opacity="1"/><line transform="translate(0,566)" x2="-5" y2="0" stroke="#888" stroke-width="1" opacity="1"/><line transform="translate(0,532)" x2="-5" y2="0" stroke="#888" stroke-width="1" opacity="1"/><line transform="translate(0,498)" x2="-5" y2="0" stroke="#888" stroke-width="1" opacity="1"/><line transform="translate(0,464)" x2="-5" y2="0" stroke="#888" stroke-width="1" opacity="1"/><line transform="translate(0,430)" x2="-5" y2="0" stroke="#888" stroke-width="1" opacity="1"/><line transform="translate(0,397)" x2="-5" y2="0" stroke="#888" stroke-width="1" opacity="1"/><line transform="translate(0,363)" x2="-5" y2="0" stroke="#888" stroke-width="1" opacity="1"/><line transform="translate(0,329)" x2="-5" y2="0" stroke="#888" stroke-width="1" opacity="1"/><line transform="translate(0,295)" x2="-5" y2="0" stroke="#888" stroke-width="1" opacity="1"/><line transform="translate(0,261)" x2="-5" y2="0" stroke="#888" stroke-width="1" opacity="1"/><line transform="translate(0,227)" x2="-5" y2="0" stroke="#888" stroke-width="1" opacity="1"/><line transform="translate(0,193)" x2="-5" y2="0" stroke="#888" stroke-width="1" opacity="1"/><line transform="translate(0,159)" x2="-5" y2="0" stroke="#888" stroke-width="1" opacity="1"/><line transform="translate(0,125)" x2="-5" y2="0" stroke="#888" stroke-width="1" opacity="1"/><line transform="translate(0,91)" x2="-5" y2="0" stroke="#888" stroke-width="1" opacity="1"/><line transform="translate(0,58)" x2="-5" y2="0" stroke="#888" stroke-width="1" opacity="1"/><line transform="translate(0,24)" x2="-5" y2="0" stroke="#888" stroke-width="1" opacity="1"/></g><g class="mark-text role-axis-label" pointer-events="none"><text text-anchor="end" transform="translate(-7,603)" font-family="sans-serif" font-size="10px" fill="#000" opacity="1">0</text><text text-anchor="end" transform="translate(-7,569.0938631196361)" font-family="sans-serif" font-size="10px" fill="#000" opacity="1">2</text><text text-anchor="end" transform="translate(-7,535.1877262392723)" font-family="sans-serif" font-size="10px" fill="#000" opacity="1">4</text><text text-anchor="end" transform="translate(-7,501.2815893589083)" font-family="sans-serif" font-size="10px" fill="#000" opacity="1">6</text><text text-anchor="end" transform="translate(-7,467.3754524785444)" font-family="sans-serif" font-size="10px" fill="#000" opacity="1">8</text><text text-anchor="end" transform="translate(-7,433.46931559818046)" font-family="sans-serif" font-size="10px" fill="#000" opacity="1">10</text><text text-anchor="end" transform="translate(-7,399.5631787178166)" font-family="sans-serif" font-size="10px" fill="#000" opacity="1">12</text><text text-anchor="end" transform="translate(-7,365.6570418374527)" font-family="sans-serif" font-size="10px" fill="#000" opacity="1">14</text><text text-anchor="end" transform="translate(-7,331.75090495708884)" font-family="sans-serif" font-size="10px" fill="#000" opacity="1">16</text><text text-anchor="end" transform="translate(-7,297.84476807672496)" font-family="sans-serif" font-size="10px" fill="#000" opacity="1">18</text><text text-anchor="end" transform="translate(-7,263.93863119636103)" font-family="sans-serif" font-size="10px" fill="#000" opacity="1">20</text><text text-anchor="end" transform="translate(-7,230.03249431599713)" font-family="sans-serif" font-size="10px" fill="#000" opacity="1">22</text><text text-anchor="end" transform="translate(-7,196.12635743563325)" font-family="sans-serif" font-size="10px" fill="#000" opacity="1">24</text><text text-anchor="end" transform="translate(-7,162.22022055526938)" font-family="sans-serif" font-size="10px" fill="#000" opacity="1">26</text><text text-anchor="end" transform="translate(-7,128.31408367490542)" font-family="sans-serif" font-size="10px" fill="#000" opacity="1">28</text><text text-anchor="end" transform="translate(-7,94.40794679454154)" font-family="sans-serif" font-size="10px" fill="#000" opacity="1">30</text><text text-anchor="end" transform="translate(-7,60.501809914177656)" font-family="sans-serif" font-size="10px" fill="#000" opacity="1">32</text><text text-anchor="end" transform="translate(-7,26.595673033813714)" font-family="sans-serif" font-size="10px" fill="#000" opacity="1">34</text></g><g class="mark-rule role-axis-domain" pointer-events="none"><line transform="translate(0,600)" x2="0" y2="-600" stroke="#888" stroke-width="1" opacity="1"/></g><g class="mark-text role-axis-title" pointer-events="none"><text text-anchor="middle" transform="translate(-22.123046875,300) rotate(-90) translate(0,-2)" font-family="sans-serif" font-size="11px" font-weight="bold" fill="#000" opacity="1">Execution Time (seconds, lower=better)</text></g></g><path class="foreground" aria-hidden="true" d="" pointer-events="none" display="none"/></g></g><g class="mark-group role-scope" role="graphics-object" aria-roledescription="group mark container"><g transform="translate(5,595.4367550002064)"><path class="background" aria-hidden="true" d="M2.281622499896798,0L87.7183775001032,0C88.9776392380198,0,90,1.0223607619801953,90,2.281622499896798L90,4.563244999793596C90,4.563244999793596,90,4.563244999793596,90,4.563244999793596L0,4.563244999793596C0,4.563244999793596,0,4.563244999793596,0,4.563244999793596L0,2.281622499896798C0,1.0223607619801953,1.0223607619801953,0,2.281622499896798,0Z"/><g clip-path="url(#clip1)"><g class="mark-group role-scope" role="graphics-object" aria-roledescription="group mark container"><g transform="translate(0,-595.4367550002064)"><path class="background" aria-hidden="true" d="M0,0h90v0h-90Z"/><g><g class="mark-rect role-mark layer_0_marks" role="graphics-object" aria-roledescription="rect mark container"><path aria-label="Parser: yaml_rs (parse_dt=False)&#xA;0.1.6; Execution Time (seconds, lower=better): 0.269169266667; parser: yaml_rs (parse_dt=False); Execution Time (s): 0.2692; Slowdown: 1.00" role="graphics-symbol" aria-roledescription="bar" d="M0,595.4367550002064h90v4.563244999793596h-90Z" fill="#a6761d"/></g></g><path class="foreground" aria-hidden="true" d="" display="none"/></g></g></g><path class="foreground" aria-hidden="true" d="" display="none"/></g><g transform="translate(105,595.4179659144543)"><path class="background" aria-hidden="true" d="M2.2910170427728644,0L87.70898295722714,0C88.97342968450529,0,90,1.0265703154947075,90,2.2910170427728644L90,4.582034085545729C90,4.582034085545729,90,4.582034085545729,90,4.582034085545729L0,4.582034085545729C0,4.582034085545729,0,4.582034085545729,0,4.582034085545729L0,2.2910170427728644C0,1.0265703154947075,1.0265703154947075,0,2.2910170427728644,0Z"/><g clip-path="url(#clip2)"><g class="mark-group role-scope" role="graphics-object" aria-roledescription="group mark container"><g transform="translate(0,-595.4179659144543)"><path class="background" aria-hidden="true" d="M0,0h90v0h-90Z"/><g><g class="mark-rect role-mark layer_0_marks" role="graphics-object" aria-roledescription="rect mark container"><path aria-label="Parser: yaml_rs&#xA;0.1.6; Execution Time (seconds, lower=better): 0.270277566667; parser: yaml_rs; Execution Time (s): 0.2703; Slowdown: 1.00" role="graphics-symbol" aria-roledescription="bar" d="M0,595.4179659144543h90v4.582034085545729h-90Z" fill="#e6ab02"/></g></g><path class="foreground" aria-hidden="true" d="" display="none"/></g></g></g><path class="foreground" aria-hidden="true" d="" display="none"/></g><g transform="translate(205,594.7763832554604)"><path class="background" aria-hidden="true" d="M2.61180837226982,0L87.38819162773018,0C88.82968790948512,0,90,1.1703120905148883,90,2.61180837226982L90,5.22361674453964C90,5.22361674453964,90,5.22361674453964,90,5.22361674453964L0,5.22361674453964C0,5.22361674453964,0,5.22361674453964,0,5.22361674453964L0,2.61180837226982C0,1.1703120905148883,1.1703120905148883,0,2.61180837226982,0Z"/><g clip-path="url(#clip3)"><g class="mark-group role-scope" role="graphics-object" aria-roledescription="group mark container"><g transform="translate(0,-594.7763832554604)"><path class="background" aria-hidden="true" d="M0,0h90v0h-90Z"/><g><g class="mark-rect role-mark layer_0_marks" role="graphics-object" aria-roledescription="rect mark container"><path aria-label="Parser: yamlrocks&#xA;0.6.1; Execution Time (seconds, lower=better): 0.3081222; parser: yamlrocks; Execution Time (s): 0.3081; Slowdown: 1.14" role="graphics-symbol" aria-roledescription="bar" d="M0,594.7763832554604h90v5.22361674453964h-90Z" fill="#666666"/></g></g><path class="foreground" aria-hidden="true" d="" display="none"/></g></g></g><path class="foreground" aria-hidden="true" d="" display="none"/></g><g transform="translate(305,586.5134876481369)"><path class="background" aria-hidden="true" d="M6,0L84,0C87.311490146964,0,90,2.688509853036,90,6L90,13.486512351863098C90,13.486512351863098,90,13.486512351863098,90,13.486512351863098L0,13.486512351863098C0,13.486512351863098,0,13.486512351863098,0,13.486512351863098L0,6C0,2.688509853036,2.688509853036,0,6,0Z"/><g clip-path="url(#clip4)"><g class="mark-group role-scope" role="graphics-object" aria-roledescription="group mark container"><g transform="translate(0,-586.5134876481369)"><path class="background" aria-hidden="true" d="M0,0h90v0h-90Z"/><g><g class="mark-rect role-mark layer_0_marks" role="graphics-object" aria-roledescription="rect mark container"><path aria-label="Parser: ryaml&#xA;0.5.1; Execution Time (seconds, lower=better): 0.795520433333; parser: ryaml; Execution Time (s): 0.7955; Slowdown: 2.96" role="graphics-symbol" aria-roledescription="bar" d="M0,586.5134876481369h90v13.486512351863098h-90Z" fill="#66a61e"/></g></g><path class="foreground" aria-hidden="true" d="" display="none"/></g></g></g><path class="foreground" aria-hidden="true" d="" display="none"/></g><g transform="translate(405,562.320414674981)"><path class="background" aria-hidden="true" d="M6,0L84,0C87.311490146964,0,90,2.688509853036,90,6L90,37.67958532501905C90,37.67958532501905,90,37.67958532501905,90,37.67958532501905L0,37.67958532501905C0,37.67958532501905,0,37.67958532501905,0,37.67958532501905L0,6C0,2.688509853036,2.688509853036,0,6,0Z"/><g clip-path="url(#clip5)"><g class="mark-group role-scope" role="graphics-object" aria-roledescription="group mark container"><g transform="translate(0,-562.320414674981)"><path class="background" aria-hidden="true" d="M0,0h90v0h-90Z"/><g><g class="mark-rect role-mark layer_0_marks" role="graphics-object" aria-roledescription="rect mark container"><path aria-label="Parser: PyYAML (CLoader)&#xA;6.0.3; Execution Time (seconds, lower=better): 2.22258203333; parser: PyYAML (CLoader); Execution Time (s): 2.2226; Slowdown: 8.26" role="graphics-symbol" aria-roledescription="bar" d="M0,562.320414674981h90v37.67958532501905h-90Z" fill="#d95f02"/></g></g><path class="foreground" aria-hidden="true" d="" display="none"/></g></g></g><path class="foreground" aria-hidden="true" d="" display="none"/></g><g transform="translate(505,217.00391233122994)"><path class="background" aria-hidden="true" d="M6,0L84,0C87.311490146964,0,90,2.688509853036,90,6L90,382.9960876687701C90,382.9960876687701,90,382.9960876687701,90,382.9960876687701L0,382.9960876687701C0,382.9960876687701,0,382.9960876687701,0,382.9960876687701L0,6C0,2.688509853036,2.688509853036,0,6,0Z"/><g clip-path="url(#clip6)"><g class="mark-group role-scope" role="graphics-object" aria-roledescription="group mark container"><g transform="translate(0,-217.00391233122994)"><path class="background" aria-hidden="true" d="M0,0h90v0h-90Z"/><g><g class="mark-rect role-mark layer_0_marks" role="graphics-object" aria-roledescription="rect mark container"><path aria-label="Parser: PyYAML&#xA;6.0.3; Execution Time (seconds, lower=better): 22.5915496667; parser: PyYAML; Execution Time (s): 22.5915; Slowdown: 83.93" role="graphics-symbol" aria-roledescription="bar" d="M0,217.00391233122994h90v382.9960876687701h-90Z" fill="#1b9e77"/></g></g><path class="foreground" aria-hidden="true" d="" display="none"/></g></g></g><path class="foreground" aria-hidden="true" d="" display="none"/></g><g transform="translate(605,197.52716717526917)"><path class="background" aria-hidden="true" d="M6,0L84,0C87.311490146964,0,90,2.688509853036,90,6L90,402.47283282473086C90,402.47283282473086,90,402.47283282473086,90,402.47283282473086L0,402.47283282473086C0,402.47283282473086,0,402.47283282473086,0,402.47283282473086L0,6C0,2.688509853036,2.688509853036,0,6,0Z"/><g clip-path="url(#clip7)"><g class="mark-group role-scope" role="graphics-object" aria-roledescription="group mark container"><g transform="translate(0,-197.52716717526917)"><path class="background" aria-hidden="true" d="M0,0h90v0h-90Z"/><g><g class="mark-rect role-mark layer_0_marks" role="graphics-object" aria-roledescription="rect mark container"><path aria-label="Parser: oyaml&#xA;1.0; Execution Time (seconds, lower=better): 23.7404122; parser: oyaml; Execution Time (s): 23.7404; Slowdown: 88.20" role="graphics-symbol" aria-roledescription="bar" d="M0,197.52716717526917h90v402.47283282473086h-90Z" fill="#7570b3"/></g></g><path class="foreground" aria-hidden="true" d="" display="none"/></g></g></g><path class="foreground" aria-hidden="true" d="" display="none"/></g><g transform="translate(705,28.571428571428605)"><path class="background" aria-hidden="true" d="M6,0L84,0C87.311490146964,0,90,2.688509853036,90,6L90,571.4285714285714C90,571.4285714285714,90,571.4285714285714,90,571.4285714285714L0,571.4285714285714C0,571.4285714285714,0,571.4285714285714,0,571.4285714285714L0,6C0,2.688509853036,2.688509853036,0,6,0Z"/><g clip-path="url(#clip8)"><g class="mark-group role-scope" role="graphics-object" aria-roledescription="group mark container"><g transform="translate(0,-28.571428571428605)"><path class="background" aria-hidden="true" d="M0,0h90v0h-90Z"/><g><g class="mark-rect role-mark layer_0_marks" role="graphics-object" aria-roledescription="rect mark container"><path aria-label="Parser: ruamel.yaml&#xA;0.19.1; Execution Time (seconds, lower=better): 33.7064982333; parser: ruamel.yaml; Execution Time (s): 33.7065; Slowdown: 125.22" role="graphics-symbol" aria-roledescription="bar" d="M0,28.571428571428605h90v571.4285714285714h-90Z" fill="#e7298a"/></g></g><path class="foreground" aria-hidden="true" d="" display="none"/></g></g></g><path class="foreground" aria-hidden="true" d="" display="none"/></g></g><g class="mark-text role-mark layer_1_marks" role="graphics-object" aria-roledescription="text mark container"><text aria-label="Parser: yaml_rs (parse_dt=False)&#xA;0.1.6; Execution Time (seconds, lower=better): 0.269169266667; parser: yaml_rs (parse_dt=False); label: 0.2692s (x1.00); Execution Time (s): 0.2692; Slowdown: 1.00" role="graphics-symbol" aria-roledescription="text mark" text-anchor="middle" transform="translate(50,591.4367550002064)" font-family="sans-serif" font-size="9px" font-weight="bold" fill="#a6761d">0.2692s (x1.00)</text><text aria-label="Parser: yaml_rs&#xA;0.1.6; Execution Time (seconds, lower=better): 0.270277566667; parser: yaml_rs; label: 0.2703s (x1.00); Execution Time (s): 0.2703; Slowdown: 1.00" role="graphics-symbol" aria-roledescription="text mark" text-anchor="middle" transform="translate(150,591.4179659144543)" font-family="sans-serif" font-size="9px" font-weight="bold" fill="#e6ab02">0.2703s (x1.00)</text><text aria-label="Parser: yamlrocks&#xA;0.6.1; Execution Time (seconds, lower=better): 0.3081222; parser: yamlrocks; label: 0.3081s (x1.14); Execution Time (s): 0.3081; Slowdown: 1.14" role="graphics-symbol" aria-roledescription="text mark" text-anchor="middle" transform="translate(250,590.7763832554604)" font-family="sans-serif" font-size="9px" font-weight="bold" fill="#666666">0.3081s (x1.14)</text><text aria-label="Parser: ryaml&#xA;0.5.1; Execution Time (seconds, lower=better): 0.795520433333; parser: ryaml; label: 0.7955s (x2.96); Execution Time (s): 0.7955; Slowdown: 2.96" role="graphics-symbol" aria-roledescription="text mark" text-anchor="middle" transform="translate(350,582.5134876481369)" font-family="sans-serif" font-size="9px" font-weight="bold" fill="#66a61e">0.7955s (x2.96)</text><text aria-label="Parser: PyYAML (CLoader)&#xA;6.0.3; Execution Time (seconds, lower=better): 2.22258203333; parser: PyYAML (CLoader); label: 2.2226s (x8.26); Execution Time (s): 2.2226; Slowdown: 8.26" role="graphics-symbol" aria-roledescription="text mark" text-anchor="middle" transform="translate(450,558.320414674981)" font-family="sans-serif" font-size="9px" font-weight="bold" fill="#d95f02">2.2226s (x8.26)</text><text aria-label="Parser: PyYAML&#xA;6.0.3; Execution Time (seconds, lower=better): 22.5915496667; parser: PyYAML; label: 22.5915s (x83.93); Execution Time (s): 22.5915; Slowdown: 83.93" role="graphics-symbol" aria-roledescription="text mark" text-anchor="middle" transform="translate(550,213.00391233122994)" font-family="sans-serif" font-size="9px" font-weight="bold" fill="#1b9e77">22.5915s (x83.93)</text><text aria-label="Parser: oyaml&#xA;1.0; Execution Time (seconds, lower=better): 23.7404122; parser: oyaml; label: 23.7404s (x88.20); Execution Time (s): 23.7404; Slowdown: 88.20" role="graphics-symbol" aria-roledescription="text mark" text-anchor="middle" transform="translate(650,193.52716717526917)" font-family="sans-serif" font-size="9px" font-weight="bold" fill="#7570b3">23.7404s (x88.20)</text><text aria-label="Parser: ruamel.yaml&#xA;0.19.1; Execution Time (seconds, lower=better): 33.7064982333; parser: ruamel.yaml; label: 33.7065s (x125.22); Execution Time (s): 33.7065; Slowdown: 125.22" role="graphics-symbol" aria-roledescription="text mark" text-anchor="middle" transform="translate(750,24.571428571428605)" font-family="sans-serif" font-size="9px" font-weight="bold" fill="#e7298a">33.7065s (x125.22)</text></g><g class="mark-group role-title"><g transform="translate(400,-31)"><path class="background" aria-hidden="true" d="M0,0h0v0h0Z" pointer-events="none"/><g><g class="mark-text role-title-text" role="graphics-symbol" aria-roledescription="title" aria-label="Title text 'YAML parsers benchmark (loads)'" pointer-events="none"><text text-anchor="middle" transform="translate(0,10)" font-family="sans-serif" font-size="13px" font-weight="bold" fill="#000" opacity="1">YAML parsers benchmark (loads)</text></g><g class="mark-text role-title-subtitle" role="graphics-symbol" aria-roledescription="subtitle" aria-label="Subtitle text 'Python: 3.14.6 (Windows 2025Server) | CPU: INTEL(R) XEON(R) PLATINUM 8573C'" pointer-events="none"><text text-anchor="middle" transform="translate(0,25)" font-family="sans-serif" font-size="12px" fill="#000" opacity="1">Python: 3.14.6 (Windows 2025Server) | CPU: INTEL(R) XEON(R) PLATINUM 8573C</text></g></g><path class="foreground" aria-hidden="true" d="" pointer-events="none" display="none"/></g></g></g><path class="foreground" aria-hidden="true" d="" display="none"/></g></g></g><defs><clipPath id="clip1"><path d="M2.281622499896798,0L87.7183775001032,0C88.9776392380198,0,90,1.0223607619801953,90,2.281622499896798L90,4.563244999793596C90,4.563244999793596,90,4.563244999793596,90,4.563244999793596L0,4.563244999793596C0,4.563244999793596,0,4.563244999793596,0,4.563244999793596L0,2.281622499896798C0,1.0223607619801953,1.0223607619801953,0,2.281622499896798,0Z"/></clipPath><clipPath id="clip2"><path d="M2.2910170427728644,0L87.70898295722714,0C88.97342968450529,0,90,1.0265703154947075,90,2.2910170427728644L90,4.582034085545729C90,4.582034085545729,90,4.582034085545729,90,4.582034085545729L0,4.582034085545729C0,4.582034085545729,0,4.582034085545729,0,4.582034085545729L0,2.2910170427728644C0,1.0265703154947075,1.0265703154947075,0,2.2910170427728644,0Z"/></clipPath><clipPath id="clip3"><path d="M2.61180837226982,0L87.38819162773018,0C88.82968790948512,0,90,1.1703120905148883,90,2.61180837226982L90,5.22361674453964C90,5.22361674453964,90,5.22361674453964,90,5.22361674453964L0,5.22361674453964C0,5.22361674453964,0,5.22361674453964,0,5.22361674453964L0,2.61180837226982C0,1.1703120905148883,1.1703120905148883,0,2.61180837226982,0Z"/></clipPath><clipPath id="clip4"><path d="M6,0L84,0C87.311490146964,0,90,2.688509853036,90,6L90,13.486512351863098C90,13.486512351863098,90,13.486512351863098,90,13.486512351863098L0,13.486512351863098C0,13.486512351863098,0,13.486512351863098,0,13.486512351863098L0,6C0,2.688509853036,2.688509853036,0,6,0Z"/></clipPath><clipPath id="clip5"><path d="M6,0L84,0C87.311490146964,0,90,2.688509853036,90,6L90,37.67958532501905C90,37.67958532501905,90,37.67958532501905,90,37.67958532501905L0,37.67958532501905C0,37.67958532501905,0,37.67958532501905,0,37.67958532501905L0,6C0,2.688509853036,2.688509853036,0,6,0Z"/></clipPath><clipPath id="clip6"><path d="M6,0L84,0C87.311490146964,0,90,2.688509853036,90,6L90,382.9960876687701C90,382.9960876687701,90,382.9960876687701,90,382.9960876687701L0,382.9960876687701C0,382.9960876687701,0,382.9960876687701,0,382.9960876687701L0,6C0,2.688509853036,2.688509853036,0,6,0Z"/></clipPath><clipPath id="clip7"><path d="M6,0L84,0C87.311490146964,0,90,2.688509853036,90,6L90,402.47283282473086C90,402.47283282473086,90,402.47283282473086,90,402.47283282473086L0,402.47283282473086C0,402.47283282473086,0,402.47283282473086,0,402.47283282473086L0,6C0,2.688509853036,2.688509853036,0,6,0Z"/></clipPath><clipPath id="clip8"><path d="M6,0L84,0C87.311490146964,0,90,2.688509853036,90,6L90,571.4285714285714C90,571.4285714285714,90,571.4285714285714,90,571.4285714285714L0,571.4285714285714C0,571.4285714285714,0,571.4285714285714,0,571.4285714285714L0,6C0,2.688509853036,2.688509853036,0,6,0Z"/></clipPath></defs></svg>