<svg xmlns="http://www.w3.org/2000/svg" xmlns:xlink="http://www.w3.org/1999/xlink" version="1.1" class="marks" width="844" height="687" viewBox="0 0 844 687"><rect width="844" height="687" fill="white"/><g fill="none" stroke-miterlimit="10" transform="translate(39,36)"><g class="mark-group role-frame root" role="graphics-object" aria-roledescription="group mark container"><g transform="translate(0,0)"><path class="background" aria-hidden="true" d="M0.5,0.5h800v600h-800Z" stroke="#ddd"/><g><g class="mark-group role-axis" role="graphics-symbol" aria-roledescription="axis" aria-label="X-axis titled 'Parser' for a discrete scale with 8 values: yaml_rs (parse_dt=False)&#xA;v0.1.4, yaml_rs&#xA;v0.1.4, yamlrocks&#xA;v0.2.1, ryaml&#xA;v0.5.1, PyYAML (CLoader)&#xA;v6.0.3, ending with ruamel.yaml&#xA;v0.19.1"><g transform="translate(0.5,600.5)"><path class="background" aria-hidden="true" d="M0,0h0v0h0Z" pointer-events="none"/><g><g class="mark-rule role-axis-tick" pointer-events="none"><line transform="translate(50,0)" x2="0" y2="5" stroke="#888" stroke-width="1" opacity="1"/><line transform="translate(150,0)" x2="0" y2="5" stroke="#888" stroke-width="1" opacity="1"/><line transform="translate(250,0)" x2="0" y2="5" stroke="#888" stroke-width="1" opacity="1"/><line transform="translate(350,0)" x2="0" y2="5" stroke="#888" stroke-width="1" opacity="1"/><line transform="translate(450,0)" x2="0" y2="5" stroke="#888" stroke-width="1" opacity="1"/><line transform="translate(550,0)" x2="0" y2="5" stroke="#888" stroke-width="1" opacity="1"/><line transform="translate(650,0)" x2="0" y2="5" stroke="#888" stroke-width="1" opacity="1"/><line transform="translate(750,0)" x2="0" y2="5" stroke="#888" stroke-width="1" opacity="1"/></g><g class="mark-text role-axis-label" pointer-events="none"><text text-anchor="middle" transform="translate(49.5,15)" font-family="sans-serif" font-size="10px" fill="#000" opacity="1"><tspan>yaml_rs (parse_dt=False)</tspan><tspan x="0" dy="14">v0.1.4</tspan></text><text text-anchor="middle" transform="translate(149.5,15)" font-family="sans-serif" font-size="10px" fill="#000" opacity="1"><tspan>yaml_rs</tspan><tspan x="0" dy="14">v0.1.4</tspan></text><text text-anchor="middle" transform="translate(249.5,15)" font-family="sans-serif" font-size="10px" fill="#000" opacity="1"><tspan>yamlrocks</tspan><tspan x="0" dy="14">v0.2.1</tspan></text><text text-anchor="middle" transform="translate(349.5,15)" font-family="sans-serif" font-size="10px" fill="#000" opacity="1"><tspan>ryaml</tspan><tspan x="0" dy="14">v0.5.1</tspan></text><text text-anchor="middle" transform="translate(449.5,15)" font-family="sans-serif" font-size="10px" fill="#000" opacity="1"><tspan>PyYAML (CLoader)</tspan><tspan x="0" dy="14">v6.0.3</tspan></text><text text-anchor="middle" transform="translate(549.5,15)" font-family="sans-serif" font-size="10px" fill="#000" opacity="1"><tspan>oyaml</tspan><tspan x="0" dy="14">v1.0</tspan></text><text text-anchor="middle" transform="translate(649.5,15)" font-family="sans-serif" font-size="10px" fill="#000" opacity="1"><tspan>PyYAML</tspan><tspan x="0" dy="14">v6.0.3</tspan></text><text text-anchor="middle" transform="translate(749.5,15)" font-family="sans-serif" font-size="10px" fill="#000" opacity="1"><tspan>ruamel.yaml</tspan><tspan x="0" dy="14">v0.19.1</tspan></text></g><g class="mark-rule role-axis-domain" pointer-events="none"><line transform="translate(0,0)" x2="800" y2="0" stroke="#888" stroke-width="1" opacity="1"/></g><g class="mark-text role-axis-title" pointer-events="none"><text text-anchor="middle" transform="translate(400,44)" font-family="sans-serif" font-size="11px" font-weight="bold" fill="#000" opacity="1">Parser</text></g></g><path class="foreground" aria-hidden="true" d="" pointer-events="none" display="none"/></g></g><g class="mark-group role-axis" role="graphics-symbol" aria-roledescription="axis" aria-label="Y-axis titled 'Execution Time (seconds, lower=better)' for a linear scale with values from 0 to 43"><g transform="translate(0.5,0.5)"><path class="background" aria-hidden="true" d="M0,0h0v0h0Z" pointer-events="none"/><g><g class="mark-rule role-axis-tick" pointer-events="none"><line transform="translate(0,600)" x2="-5" y2="0" stroke="#888" stroke-width="1" opacity="1"/><line transform="translate(0,572)" x2="-5" y2="0" stroke="#888" stroke-width="1" opacity="1"/><line transform="translate(0,544)" x2="-5" y2="0" stroke="#888" stroke-width="1" opacity="1"/><line transform="translate(0,515)" x2="-5" y2="0" stroke="#888" stroke-width="1" opacity="1"/><line transform="translate(0,487)" x2="-5" y2="0" stroke="#888" stroke-width="1" opacity="1"/><line transform="translate(0,459)" x2="-5" y2="0" stroke="#888" stroke-width="1" opacity="1"/><line transform="translate(0,431)" x2="-5" y2="0" stroke="#888" stroke-width="1" opacity="1"/><line transform="translate(0,403)" x2="-5" y2="0" stroke="#888" stroke-width="1" opacity="1"/><line transform="translate(0,374)" x2="-5" y2="0" stroke="#888" stroke-width="1" opacity="1"/><line transform="translate(0,346)" x2="-5" y2="0" stroke="#888" stroke-width="1" opacity="1"/><line transform="translate(0,318)" x2="-5" y2="0" stroke="#888" stroke-width="1" opacity="1"/><line transform="translate(0,290)" x2="-5" y2="0" stroke="#888" stroke-width="1" opacity="1"/><line transform="translate(0,262)" x2="-5" y2="0" stroke="#888" stroke-width="1" opacity="1"/><line transform="translate(0,233)" x2="-5" y2="0" stroke="#888" stroke-width="1" opacity="1"/><line transform="translate(0,205)" x2="-5" y2="0" stroke="#888" stroke-width="1" opacity="1"/><line transform="translate(0,177)" x2="-5" y2="0" stroke="#888" stroke-width="1" opacity="1"/><line transform="translate(0,149)" x2="-5" y2="0" stroke="#888" stroke-width="1" opacity="1"/><line transform="translate(0,121)" x2="-5" y2="0" stroke="#888" stroke-width="1" opacity="1"/><line transform="translate(0,92)" x2="-5" y2="0" stroke="#888" stroke-width="1" opacity="1"/><line transform="translate(0,64)" x2="-5" y2="0" stroke="#888" stroke-width="1" opacity="1"/><line transform="translate(0,36)" x2="-5" y2="0" stroke="#888" stroke-width="1" opacity="1"/><line transform="translate(0,8)" x2="-5" y2="0" stroke="#888" stroke-width="1" opacity="1"/></g><g class="mark-text role-axis-label" pointer-events="none"><text text-anchor="end" transform="translate(-7,603)" font-family="sans-serif" font-size="10px" fill="#000" opacity="1">0</text><text text-anchor="end" transform="translate(-7,574.7988358257113)" font-family="sans-serif" font-size="10px" fill="#000" opacity="1">2</text><text text-anchor="end" transform="translate(-7,546.5976716514226)" font-family="sans-serif" font-size="10px" fill="#000" opacity="1">4</text><text text-anchor="end" transform="translate(-7,518.3965074771339)" font-family="sans-serif" font-size="10px" fill="#000" opacity="1">6</text><text text-anchor="end" transform="translate(-7,490.19534330284523)" font-family="sans-serif" font-size="10px" fill="#000" opacity="1">8</text><text text-anchor="end" transform="translate(-7,461.99417912855654)" font-family="sans-serif" font-size="10px" fill="#000" opacity="1">10</text><text text-anchor="end" transform="translate(-7,433.7930149542679)" font-family="sans-serif" font-size="10px" fill="#000" opacity="1">12</text><text text-anchor="end" transform="translate(-7,405.5918507799792)" font-family="sans-serif" font-size="10px" fill="#000" opacity="1">14</text><text text-anchor="end" transform="translate(-7,377.3906866056905)" font-family="sans-serif" font-size="10px" fill="#000" opacity="1">16</text><text text-anchor="end" transform="translate(-7,349.18952243140177)" font-family="sans-serif" font-size="10px" fill="#000" opacity="1">18</text><text text-anchor="end" transform="translate(-7,320.98835825711313)" font-family="sans-serif" font-size="10px" fill="#000" opacity="1">20</text><text text-anchor="end" transform="translate(-7,292.78719408282444)" font-family="sans-serif" font-size="10px" fill="#000" opacity="1">22</text><text text-anchor="end" transform="translate(-7,264.58602990853575)" font-family="sans-serif" font-size="10px" fill="#000" opacity="1">24</text><text text-anchor="end" transform="translate(-7,236.38486573424706)" font-family="sans-serif" font-size="10px" fill="#000" opacity="1">26</text><text text-anchor="end" transform="translate(-7,208.1837015599584)" font-family="sans-serif" font-size="10px" fill="#000" opacity="1">28</text><text text-anchor="end" transform="translate(-7,179.98253738566967)" font-family="sans-serif" font-size="10px" fill="#000" opacity="1">30</text><text text-anchor="end" transform="translate(-7,151.781373211381)" font-family="sans-serif" font-size="10px" fill="#000" opacity="1">32</text><text text-anchor="end" transform="translate(-7,123.58020903709227)" font-family="sans-serif" font-size="10px" fill="#000" opacity="1">34</text><text text-anchor="end" transform="translate(-7,95.37904486280361)" font-family="sans-serif" font-size="10px" fill="#000" opacity="1">36</text><text text-anchor="end" transform="translate(-7,67.17788068851496)" font-family="sans-serif" font-size="10px" fill="#000" opacity="1">38</text><text text-anchor="end" transform="translate(-7,38.976716514226226)" font-family="sans-serif" font-size="10px" fill="#000" opacity="1">40</text><text text-anchor="end" transform="translate(-7,10.775552339937564)" font-family="sans-serif" font-size="10px" fill="#000" opacity="1">42</text></g><g class="mark-rule role-axis-domain" pointer-events="none"><line transform="translate(0,600)" x2="0" y2="-600" stroke="#888" stroke-width="1" opacity="1"/></g><g class="mark-text role-axis-title" pointer-events="none"><text text-anchor="middle" transform="translate(-22.123046875,300) rotate(-90) translate(0,-2)" font-family="sans-serif" font-size="11px" font-weight="bold" fill="#000" opacity="1">Execution Time (seconds, lower=better)</text></g></g><path class="foreground" aria-hidden="true" d="" pointer-events="none" display="none"/></g></g><g class="mark-group role-scope" role="graphics-object" aria-roledescription="group mark container"><g transform="translate(5,594.2477737619339)"><path class="background" aria-hidden="true" d="M2.8761131190330502,0L87.12388688096695,0C88.71125692350559,0,90,1.2887430764944097,90,2.8761131190330502L90,5.7522262380661004C90,5.7522262380661004,90,5.7522262380661004,90,5.7522262380661004L0,5.7522262380661004C0,5.7522262380661004,0,5.7522262380661004,0,5.7522262380661004L0,2.8761131190330502C0,1.2887430764944097,1.2887430764944097,0,2.8761131190330502,0Z"/><g clip-path="url(#clip1)"><g class="mark-group role-scope" role="graphics-object" aria-roledescription="group mark container"><g transform="translate(0,-594.2477737619339)"><path class="background" aria-hidden="true" d="M0,0h90v0h-90Z"/><g><g class="mark-rect role-mark layer_0_marks" role="graphics-object" aria-roledescription="rect mark container"><path aria-label="Parser: yaml_rs (parse_dt=False)&#xA;v0.1.4; Execution Time (seconds, lower=better): 0.407942466667; parser: yaml_rs (parse_dt=False); Execution Time (s): 0.4079; Slowdown: 1.00" role="graphics-symbol" aria-roledescription="bar" d="M0,594.2477737619339h90v5.7522262380661004h-90Z" fill="#a6761d"/></g></g><path class="foreground" aria-hidden="true" d="" display="none"/></g></g></g><path class="foreground" aria-hidden="true" d="" display="none"/></g><g transform="translate(105,594.1827672583963)"><path class="background" aria-hidden="true" d="M2.9086163708018375,0L87.09138362919816,0C88.69669270473291,0,90,1.303307295267092,90,2.9086163708018375L90,5.817232741603675C90,5.817232741603675,90,5.817232741603675,90,5.817232741603675L0,5.817232741603675C0,5.817232741603675,0,5.817232741603675,0,5.817232741603675L0,2.9086163708018375C0,1.303307295267092,1.303307295267092,0,2.9086163708018375,0Z"/><g clip-path="url(#clip2)"><g class="mark-group role-scope" role="graphics-object" aria-roledescription="group mark container"><g transform="translate(0,-594.1827672583963)"><path class="background" aria-hidden="true" d="M0,0h90v0h-90Z"/><g><g class="mark-rect role-mark layer_0_marks" role="graphics-object" aria-roledescription="rect mark container"><path aria-label="Parser: yaml_rs&#xA;v0.1.4; Execution Time (seconds, lower=better): 0.412552666667; parser: yaml_rs; Execution Time (s): 0.4126; Slowdown: 1.01" role="graphics-symbol" aria-roledescription="bar" d="M0,594.1827672583963h90v5.817232741603675h-90Z" fill="#e6ab02"/></g></g><path class="foreground" aria-hidden="true" d="" display="none"/></g></g></g><path class="foreground" aria-hidden="true" d="" display="none"/></g><g transform="translate(205,593.5853918680995)"><path class="background" aria-hidden="true" d="M3.207304065950268,0L86.79269593404973,0C88.56285523616837,0,90,1.4371447638316202,90,3.207304065950268L90,6.414608131900536C90,6.414608131900536,90,6.414608131900536,90,6.414608131900536L0,6.414608131900536C0,6.414608131900536,0,6.414608131900536,0,6.414608131900536L0,3.207304065950268C0,1.4371447638316202,1.4371447638316202,0,3.207304065950268,0Z"/><g clip-path="url(#clip3)"><g class="mark-group role-scope" role="graphics-object" aria-roledescription="group mark container"><g transform="translate(0,-593.5853918680995)"><path class="background" aria-hidden="true" d="M0,0h90v0h-90Z"/><g><g class="mark-rect role-mark layer_0_marks" role="graphics-object" aria-roledescription="rect mark container"><path aria-label="Parser: yamlrocks&#xA;v0.2.1; Execution Time (seconds, lower=better): 0.454917966667; parser: yamlrocks; Execution Time (s): 0.4549; Slowdown: 1.12" role="graphics-symbol" aria-roledescription="bar" d="M0,593.5853918680995h90v6.414608131900536h-90Z" fill="#666666"/></g></g><path class="foreground" aria-hidden="true" d="" display="none"/></g></g></g><path class="foreground" aria-hidden="true" d="" display="none"/></g><g transform="translate(305,588.3721834112665)"><path class="background" aria-hidden="true" d="M5.81390829436674,0L84.18609170563326,0C87.39487504432455,0,90,2.605124955675451,90,5.81390829436674L90,11.62781658873348C90,11.62781658873348,90,11.62781658873348,90,11.62781658873348L0,11.62781658873348C0,11.62781658873348,0,11.62781658873348,0,11.62781658873348L0,5.81390829436674C0,2.605124955675451,2.605124955675451,0,5.81390829436674,0Z"/><g clip-path="url(#clip4)"><g class="mark-group role-scope" role="graphics-object" aria-roledescription="group mark container"><g transform="translate(0,-588.3721834112665)"><path class="background" aria-hidden="true" d="M0,0h90v0h-90Z"/><g><g class="mark-rect role-mark layer_0_marks" role="graphics-object" aria-roledescription="rect mark container"><path aria-label="Parser: ryaml&#xA;v0.5.1; Execution Time (seconds, lower=better): 0.8246338; parser: ryaml; Execution Time (s): 0.8246; Slowdown: 2.02" role="graphics-symbol" aria-roledescription="bar" d="M0,588.3721834112665h90v11.62781658873348h-90Z" fill="#66a61e"/></g></g><path class="foreground" aria-hidden="true" d="" display="none"/></g></g></g><path class="foreground" aria-hidden="true" d="" display="none"/></g><g transform="translate(405,562.9163842385888)"><path class="background" aria-hidden="true" d="M6,0L84,0C87.311490146964,0,90,2.688509853036,90,6L90,37.08361576141124C90,37.08361576141124,90,37.08361576141124,90,37.08361576141124L0,37.08361576141124C0,37.08361576141124,0,37.08361576141124,0,37.08361576141124L0,6C0,2.688509853036,2.688509853036,0,6,0Z"/><g clip-path="url(#clip5)"><g class="mark-group role-scope" role="graphics-object" aria-roledescription="group mark container"><g transform="translate(0,-562.9163842385888)"><path class="background" aria-hidden="true" d="M0,0h90v0h-90Z"/><g><g class="mark-rect role-mark layer_0_marks" role="graphics-object" aria-roledescription="rect mark container"><path aria-label="Parser: PyYAML (CLoader)&#xA;v6.0.3; Execution Time (seconds, lower=better): 2.6299351; parser: PyYAML (CLoader); Execution Time (s): 2.6299; Slowdown: 6.45" role="graphics-symbol" aria-roledescription="bar" d="M0,562.9163842385888h90v37.08361576141124h-90Z" fill="#d95f02"/></g></g><path class="foreground" aria-hidden="true" d="" display="none"/></g></g></g><path class="foreground" aria-hidden="true" d="" display="none"/></g><g transform="translate(505,202.24237136869598)"><path class="background" aria-hidden="true" d="M6,0L84,0C87.311490146964,0,90,2.688509853036,90,6L90,397.757628631304C90,397.757628631304,90,397.757628631304,90,397.757628631304L0,397.757628631304C0,397.757628631304,0,397.757628631304,0,397.757628631304L0,6C0,2.688509853036,2.688509853036,0,6,0Z"/><g clip-path="url(#clip6)"><g class="mark-group role-scope" role="graphics-object" aria-roledescription="group mark container"><g transform="translate(0,-202.24237136869598)"><path class="background" aria-hidden="true" d="M0,0h90v0h-90Z"/><g><g class="mark-rect role-mark layer_0_marks" role="graphics-object" aria-roledescription="rect mark container"><path aria-label="Parser: oyaml&#xA;v1.0; Execution Time (seconds, lower=better): 28.2085963667; parser: oyaml; Execution Time (s): 28.2086; Slowdown: 69.15" role="graphics-symbol" aria-roledescription="bar" d="M0,202.24237136869598h90v397.757628631304h-90Z" fill="#7570b3"/></g></g><path class="foreground" aria-hidden="true" d="" display="none"/></g></g></g><path class="foreground" aria-hidden="true" d="" display="none"/></g><g transform="translate(605,201.3992496237266)"><path class="background" aria-hidden="true" d="M6,0L84,0C87.311490146964,0,90,2.688509853036,90,6L90,398.60075037627337C90,398.60075037627337,90,398.60075037627337,90,398.60075037627337L0,398.60075037627337C0,398.60075037627337,0,398.60075037627337,0,398.60075037627337L0,6C0,2.688509853036,2.688509853036,0,6,0Z"/><g clip-path="url(#clip7)"><g class="mark-group role-scope" role="graphics-object" aria-roledescription="group mark container"><g transform="translate(0,-201.3992496237266)"><path class="background" aria-hidden="true" d="M0,0h90v0h-90Z"/><g><g class="mark-rect role-mark layer_0_marks" role="graphics-object" aria-roledescription="rect mark container"><path aria-label="Parser: PyYAML&#xA;v6.0.3; Execution Time (seconds, lower=better): 28.2683897667; parser: PyYAML; Execution Time (s): 28.2684; Slowdown: 69.30" role="graphics-symbol" aria-roledescription="bar" d="M0,201.3992496237266h90v398.60075037627337h-90Z" fill="#1b9e77"/></g></g><path class="foreground" aria-hidden="true" d="" display="none"/></g></g></g><path class="foreground" aria-hidden="true" d="" display="none"/></g><g transform="translate(705,23.07692307692313)"><path class="background" aria-hidden="true" d="M6,0L84,0C87.311490146964,0,90,2.688509853036,90,6L90,576.9230769230769C90,576.9230769230769,90,576.9230769230769,90,576.9230769230769L0,576.9230769230769C0,576.9230769230769,0,576.9230769230769,0,576.9230769230769L0,6C0,2.688509853036,2.688509853036,0,6,0Z"/><g clip-path="url(#clip8)"><g class="mark-group role-scope" role="graphics-object" aria-roledescription="group mark container"><g transform="translate(0,-23.07692307692313)"><path class="background" aria-hidden="true" d="M0,0h90v0h-90Z"/><g><g class="mark-rect role-mark layer_0_marks" role="graphics-object" aria-roledescription="rect mark container"><path aria-label="Parser: ruamel.yaml&#xA;v0.19.1; Execution Time (seconds, lower=better): 40.9148412; parser: ruamel.yaml; Execution Time (s): 40.9148; Slowdown: 100.30" role="graphics-symbol" aria-roledescription="bar" d="M0,23.07692307692313h90v576.9230769230769h-90Z" fill="#e7298a"/></g></g><path class="foreground" aria-hidden="true" d="" display="none"/></g></g></g><path class="foreground" aria-hidden="true" d="" display="none"/></g></g><g class="mark-text role-mark layer_1_marks" role="graphics-object" aria-roledescription="text mark container"><text aria-label="Parser: yaml_rs (parse_dt=False)&#xA;v0.1.4; Execution Time (seconds, lower=better): 0.407942466667; parser: yaml_rs (parse_dt=False); label: 0.4079s (x1.00); Execution Time (s): 0.4079; Slowdown: 1.00" role="graphics-symbol" aria-roledescription="text mark" text-anchor="middle" transform="translate(50,590.2477737619339)" font-family="sans-serif" font-size="9px" font-weight="bold" fill="#a6761d">0.4079s (x1.00)</text><text aria-label="Parser: yaml_rs&#xA;v0.1.4; Execution Time (seconds, lower=better): 0.412552666667; parser: yaml_rs; label: 0.4126s (x1.01); Execution Time (s): 0.4126; Slowdown: 1.01" role="graphics-symbol" aria-roledescription="text mark" text-anchor="middle" transform="translate(150,590.1827672583963)" font-family="sans-serif" font-size="9px" font-weight="bold" fill="#e6ab02">0.4126s (x1.01)</text><text aria-label="Parser: yamlrocks&#xA;v0.2.1; Execution Time (seconds, lower=better): 0.454917966667; parser: yamlrocks; label: 0.4549s (x1.12); Execution Time (s): 0.4549; Slowdown: 1.12" role="graphics-symbol" aria-roledescription="text mark" text-anchor="middle" transform="translate(250,589.5853918680995)" font-family="sans-serif" font-size="9px" font-weight="bold" fill="#666666">0.4549s (x1.12)</text><text aria-label="Parser: ryaml&#xA;v0.5.1; Execution Time (seconds, lower=better): 0.8246338; parser: ryaml; label: 0.8246s (x2.02); Execution Time (s): 0.8246; Slowdown: 2.02" role="graphics-symbol" aria-roledescription="text mark" text-anchor="middle" transform="translate(350,584.3721834112665)" font-family="sans-serif" font-size="9px" font-weight="bold" fill="#66a61e">0.8246s (x2.02)</text><text aria-label="Parser: PyYAML (CLoader)&#xA;v6.0.3; Execution Time (seconds, lower=better): 2.6299351; parser: PyYAML (CLoader); label: 2.6299s (x6.45); Execution Time (s): 2.6299; Slowdown: 6.45" role="graphics-symbol" aria-roledescription="text mark" text-anchor="middle" transform="translate(450,558.9163842385888)" font-family="sans-serif" font-size="9px" font-weight="bold" fill="#d95f02">2.6299s (x6.45)</text><text aria-label="Parser: oyaml&#xA;v1.0; Execution Time (seconds, lower=better): 28.2085963667; parser: oyaml; label: 28.2086s (x69.15); Execution Time (s): 28.2086; Slowdown: 69.15" role="graphics-symbol" aria-roledescription="text mark" text-anchor="middle" transform="translate(550,198.24237136869598)" font-family="sans-serif" font-size="9px" font-weight="bold" fill="#7570b3">28.2086s (x69.15)</text><text aria-label="Parser: PyYAML&#xA;v6.0.3; Execution Time (seconds, lower=better): 28.2683897667; parser: PyYAML; label: 28.2684s (x69.30); Execution Time (s): 28.2684; Slowdown: 69.30" role="graphics-symbol" aria-roledescription="text mark" text-anchor="middle" transform="translate(650,197.3992496237266)" font-family="sans-serif" font-size="9px" font-weight="bold" fill="#1b9e77">28.2684s (x69.30)</text><text aria-label="Parser: ruamel.yaml&#xA;v0.19.1; Execution Time (seconds, lower=better): 40.9148412; parser: ruamel.yaml; label: 40.9148s (x100.30); Execution Time (s): 40.9148; Slowdown: 100.30" role="graphics-symbol" aria-roledescription="text mark" text-anchor="middle" transform="translate(750,19.07692307692313)" font-family="sans-serif" font-size="9px" font-weight="bold" fill="#e7298a">40.9148s (x100.30)</text></g><g class="mark-group role-title"><g transform="translate(400,-31)"><path class="background" aria-hidden="true" d="M0,0h0v0h0Z" pointer-events="none"/><g><g class="mark-text role-title-text" role="graphics-symbol" aria-roledescription="title" aria-label="Title text 'YAML parsers benchmark (loads)'" pointer-events="none"><text text-anchor="middle" transform="translate(0,10)" font-family="sans-serif" font-size="13px" font-weight="bold" fill="#000" opacity="1">YAML parsers benchmark (loads)</text></g><g class="mark-text role-title-subtitle" role="graphics-symbol" aria-roledescription="subtitle" aria-label="Subtitle text 'Python: 3.14.6 (Windows 2025Server) | CPU: AMD EPYC 7763 64-Core Processor'" pointer-events="none"><text text-anchor="middle" transform="translate(0,25)" font-family="sans-serif" font-size="12px" fill="#000" opacity="1">Python: 3.14.6 (Windows 2025Server) | CPU: AMD EPYC 7763 64-Core Processor</text></g></g><path class="foreground" aria-hidden="true" d="" pointer-events="none" display="none"/></g></g></g><path class="foreground" aria-hidden="true" d="" display="none"/></g></g></g><defs><clipPath id="clip1"><path d="M2.8761131190330502,0L87.12388688096695,0C88.71125692350559,0,90,1.2887430764944097,90,2.8761131190330502L90,5.7522262380661004C90,5.7522262380661004,90,5.7522262380661004,90,5.7522262380661004L0,5.7522262380661004C0,5.7522262380661004,0,5.7522262380661004,0,5.7522262380661004L0,2.8761131190330502C0,1.2887430764944097,1.2887430764944097,0,2.8761131190330502,0Z"/></clipPath><clipPath id="clip2"><path d="M2.9086163708018375,0L87.09138362919816,0C88.69669270473291,0,90,1.303307295267092,90,2.9086163708018375L90,5.817232741603675C90,5.817232741603675,90,5.817232741603675,90,5.817232741603675L0,5.817232741603675C0,5.817232741603675,0,5.817232741603675,0,5.817232741603675L0,2.9086163708018375C0,1.303307295267092,1.303307295267092,0,2.9086163708018375,0Z"/></clipPath><clipPath id="clip3"><path d="M3.207304065950268,0L86.79269593404973,0C88.56285523616837,0,90,1.4371447638316202,90,3.207304065950268L90,6.414608131900536C90,6.414608131900536,90,6.414608131900536,90,6.414608131900536L0,6.414608131900536C0,6.414608131900536,0,6.414608131900536,0,6.414608131900536L0,3.207304065950268C0,1.4371447638316202,1.4371447638316202,0,3.207304065950268,0Z"/></clipPath><clipPath id="clip4"><path d="M5.81390829436674,0L84.18609170563326,0C87.39487504432455,0,90,2.605124955675451,90,5.81390829436674L90,11.62781658873348C90,11.62781658873348,90,11.62781658873348,90,11.62781658873348L0,11.62781658873348C0,11.62781658873348,0,11.62781658873348,0,11.62781658873348L0,5.81390829436674C0,2.605124955675451,2.605124955675451,0,5.81390829436674,0Z"/></clipPath><clipPath id="clip5"><path d="M6,0L84,0C87.311490146964,0,90,2.688509853036,90,6L90,37.08361576141124C90,37.08361576141124,90,37.08361576141124,90,37.08361576141124L0,37.08361576141124C0,37.08361576141124,0,37.08361576141124,0,37.08361576141124L0,6C0,2.688509853036,2.688509853036,0,6,0Z"/></clipPath><clipPath id="clip6"><path d="M6,0L84,0C87.311490146964,0,90,2.688509853036,90,6L90,397.757628631304C90,397.757628631304,90,397.757628631304,90,397.757628631304L0,397.757628631304C0,397.757628631304,0,397.757628631304,0,397.757628631304L0,6C0,2.688509853036,2.688509853036,0,6,0Z"/></clipPath><clipPath id="clip7"><path d="M6,0L84,0C87.311490146964,0,90,2.688509853036,90,6L90,398.60075037627337C90,398.60075037627337,90,398.60075037627337,90,398.60075037627337L0,398.60075037627337C0,398.60075037627337,0,398.60075037627337,0,398.60075037627337L0,6C0,2.688509853036,2.688509853036,0,6,0Z"/></clipPath><clipPath id="clip8"><path d="M6,0L84,0C87.311490146964,0,90,2.688509853036,90,6L90,576.9230769230769C90,576.9230769230769,90,576.9230769230769,90,576.9230769230769L0,576.9230769230769C0,576.9230769230769,0,576.9230769230769,0,576.9230769230769L0,6C0,2.688509853036,2.688509853036,0,6,0Z"/></clipPath></defs></svg>