<svg xmlns="http://www.w3.org/2000/svg" xmlns:xlink="http://www.w3.org/1999/xlink" version="1.1" class="marks" width="844" height="687" viewBox="0 0 844 687"><rect width="844" height="687" fill="white"/><g fill="none" stroke-miterlimit="10" transform="translate(39,36)"><g class="mark-group role-frame root" role="graphics-object" aria-roledescription="group mark container"><g transform="translate(0,0)"><path class="background" aria-hidden="true" d="M0.5,0.5h800v600h-800Z" stroke="#ddd"/><g><g class="mark-group role-axis" role="graphics-symbol" aria-roledescription="axis" aria-label="X-axis titled 'Parser' for a discrete scale with 8 values: yaml_rs (parse_dt=False)&#xA;0.1.6, yamlrocks&#xA;0.6.1, yaml_rs&#xA;0.1.6, ryaml&#xA;0.5.1, PyYAML (CLoader)&#xA;6.0.3, ending with ruamel.yaml&#xA;0.19.1"><g transform="translate(0.5,600.5)"><path class="background" aria-hidden="true" d="M0,0h0v0h0Z" pointer-events="none"/><g><g class="mark-rule role-axis-tick" pointer-events="none"><line transform="translate(50,0)" x2="0" y2="5" stroke="#888" stroke-width="1" opacity="1"/><line transform="translate(150,0)" x2="0" y2="5" stroke="#888" stroke-width="1" opacity="1"/><line transform="translate(250,0)" x2="0" y2="5" stroke="#888" stroke-width="1" opacity="1"/><line transform="translate(350,0)" x2="0" y2="5" stroke="#888" stroke-width="1" opacity="1"/><line transform="translate(450,0)" x2="0" y2="5" stroke="#888" stroke-width="1" opacity="1"/><line transform="translate(550,0)" x2="0" y2="5" stroke="#888" stroke-width="1" opacity="1"/><line transform="translate(650,0)" x2="0" y2="5" stroke="#888" stroke-width="1" opacity="1"/><line transform="translate(750,0)" x2="0" y2="5" stroke="#888" stroke-width="1" opacity="1"/></g><g class="mark-text role-axis-label" pointer-events="none"><text text-anchor="middle" transform="translate(49.5,15)" font-family="sans-serif" font-size="10px" fill="#000" opacity="1"><tspan>yaml_rs (parse_dt=False)</tspan><tspan x="0" dy="14">0.1.6</tspan></text><text text-anchor="middle" transform="translate(149.5,15)" font-family="sans-serif" font-size="10px" fill="#000" opacity="1"><tspan>yamlrocks</tspan><tspan x="0" dy="14">0.6.1</tspan></text><text text-anchor="middle" transform="translate(249.5,15)" font-family="sans-serif" font-size="10px" fill="#000" opacity="1"><tspan>yaml_rs</tspan><tspan x="0" dy="14">0.1.6</tspan></text><text text-anchor="middle" transform="translate(349.5,15)" font-family="sans-serif" font-size="10px" fill="#000" opacity="1"><tspan>ryaml</tspan><tspan x="0" dy="14">0.5.1</tspan></text><text text-anchor="middle" transform="translate(449.5,15)" font-family="sans-serif" font-size="10px" fill="#000" opacity="1"><tspan>PyYAML (CLoader)</tspan><tspan x="0" dy="14">6.0.3</tspan></text><text text-anchor="middle" transform="translate(549.5,15)" font-family="sans-serif" font-size="10px" fill="#000" opacity="1"><tspan>oyaml</tspan><tspan x="0" dy="14">1.0</tspan></text><text text-anchor="middle" transform="translate(649.5,15)" font-family="sans-serif" font-size="10px" fill="#000" opacity="1"><tspan>PyYAML</tspan><tspan x="0" dy="14">6.0.3</tspan></text><text text-anchor="middle" transform="translate(749.5,15)" font-family="sans-serif" font-size="10px" fill="#000" opacity="1"><tspan>ruamel.yaml</tspan><tspan x="0" dy="14">0.19.1</tspan></text></g><g class="mark-rule role-axis-domain" pointer-events="none"><line transform="translate(0,0)" x2="800" y2="0" stroke="#888" stroke-width="1" opacity="1"/></g><g class="mark-text role-axis-title" pointer-events="none"><text text-anchor="middle" transform="translate(400,44)" font-family="sans-serif" font-size="11px" font-weight="bold" fill="#000" opacity="1">Parser</text></g></g><path class="foreground" aria-hidden="true" d="" pointer-events="none" display="none"/></g></g><g class="mark-group role-axis" role="graphics-symbol" aria-roledescription="axis" aria-label="Y-axis titled 'Execution Time (seconds, lower=better)' for a linear scale with values from 0 to 43"><g transform="translate(0.5,0.5)"><path class="background" aria-hidden="true" d="M0,0h0v0h0Z" pointer-events="none"/><g><g class="mark-rule role-axis-tick" pointer-events="none"><line transform="translate(0,600)" x2="-5" y2="0" stroke="#888" stroke-width="1" opacity="1"/><line transform="translate(0,572)" x2="-5" y2="0" stroke="#888" stroke-width="1" opacity="1"/><line transform="translate(0,545)" x2="-5" y2="0" stroke="#888" stroke-width="1" opacity="1"/><line transform="translate(0,517)" x2="-5" y2="0" stroke="#888" stroke-width="1" opacity="1"/><line transform="translate(0,490)" x2="-5" y2="0" stroke="#888" stroke-width="1" opacity="1"/><line transform="translate(0,462)" x2="-5" y2="0" stroke="#888" stroke-width="1" opacity="1"/><line transform="translate(0,434)" x2="-5" y2="0" stroke="#888" stroke-width="1" opacity="1"/><line transform="translate(0,407)" x2="-5" y2="0" stroke="#888" stroke-width="1" opacity="1"/><line transform="translate(0,379)" x2="-5" y2="0" stroke="#888" stroke-width="1" opacity="1"/><line transform="translate(0,352)" x2="-5" y2="0" stroke="#888" stroke-width="1" opacity="1"/><line transform="translate(0,324)" x2="-5" y2="0" stroke="#888" stroke-width="1" opacity="1"/><line transform="translate(0,296)" x2="-5" y2="0" stroke="#888" stroke-width="1" opacity="1"/><line transform="translate(0,269)" x2="-5" y2="0" stroke="#888" stroke-width="1" opacity="1"/><line transform="translate(0,241)" x2="-5" y2="0" stroke="#888" stroke-width="1" opacity="1"/><line transform="translate(0,213)" x2="-5" y2="0" stroke="#888" stroke-width="1" opacity="1"/><line transform="translate(0,186)" x2="-5" y2="0" stroke="#888" stroke-width="1" opacity="1"/><line transform="translate(0,158)" x2="-5" y2="0" stroke="#888" stroke-width="1" opacity="1"/><line transform="translate(0,131)" x2="-5" y2="0" stroke="#888" stroke-width="1" opacity="1"/><line transform="translate(0,103)" x2="-5" y2="0" stroke="#888" stroke-width="1" opacity="1"/><line transform="translate(0,75)" x2="-5" y2="0" stroke="#888" stroke-width="1" opacity="1"/><line transform="translate(0,48)" x2="-5" y2="0" stroke="#888" stroke-width="1" opacity="1"/><line transform="translate(0,20)" x2="-5" y2="0" stroke="#888" stroke-width="1" opacity="1"/></g><g class="mark-text role-axis-label" pointer-events="none"><text text-anchor="end" transform="translate(-7,603)" font-family="sans-serif" font-size="10px" fill="#000" opacity="1">0</text><text text-anchor="end" transform="translate(-7,575.3892603106365)" font-family="sans-serif" font-size="10px" fill="#000" opacity="1">2</text><text text-anchor="end" transform="translate(-7,547.7785206212727)" font-family="sans-serif" font-size="10px" fill="#000" opacity="1">4</text><text text-anchor="end" transform="translate(-7,520.1677809319092)" font-family="sans-serif" font-size="10px" fill="#000" opacity="1">6</text><text text-anchor="end" transform="translate(-7,492.5570412425456)" font-family="sans-serif" font-size="10px" fill="#000" opacity="1">8</text><text text-anchor="end" transform="translate(-7,464.94630155318197)" font-family="sans-serif" font-size="10px" fill="#000" opacity="1">10</text><text text-anchor="end" transform="translate(-7,437.3355618638184)" font-family="sans-serif" font-size="10px" fill="#000" opacity="1">12</text><text text-anchor="end" transform="translate(-7,409.7248221744548)" font-family="sans-serif" font-size="10px" fill="#000" opacity="1">14</text><text text-anchor="end" transform="translate(-7,382.1140824850912)" font-family="sans-serif" font-size="10px" fill="#000" opacity="1">16</text><text text-anchor="end" transform="translate(-7,354.5033427957275)" font-family="sans-serif" font-size="10px" fill="#000" opacity="1">18</text><text text-anchor="end" transform="translate(-7,326.89260310636394)" font-family="sans-serif" font-size="10px" fill="#000" opacity="1">20</text><text text-anchor="end" transform="translate(-7,299.28186341700035)" font-family="sans-serif" font-size="10px" fill="#000" opacity="1">22</text><text text-anchor="end" transform="translate(-7,271.6711237276367)" font-family="sans-serif" font-size="10px" fill="#000" opacity="1">24</text><text text-anchor="end" transform="translate(-7,244.06038403827316)" font-family="sans-serif" font-size="10px" fill="#000" opacity="1">26</text><text text-anchor="end" transform="translate(-7,216.44964434890957)" font-family="sans-serif" font-size="10px" fill="#000" opacity="1">28</text><text text-anchor="end" transform="translate(-7,188.8389046595459)" font-family="sans-serif" font-size="10px" fill="#000" opacity="1">30</text><text text-anchor="end" transform="translate(-7,161.22816497018232)" font-family="sans-serif" font-size="10px" fill="#000" opacity="1">32</text><text text-anchor="end" transform="translate(-7,133.61742528081874)" font-family="sans-serif" font-size="10px" fill="#000" opacity="1">34</text><text text-anchor="end" transform="translate(-7,106.0066855914551)" font-family="sans-serif" font-size="10px" fill="#000" opacity="1">36</text><text text-anchor="end" transform="translate(-7,78.39594590209151)" font-family="sans-serif" font-size="10px" fill="#000" opacity="1">38</text><text text-anchor="end" transform="translate(-7,50.78520621272793)" font-family="sans-serif" font-size="10px" fill="#000" opacity="1">40</text><text text-anchor="end" transform="translate(-7,23.174466523364277)" font-family="sans-serif" font-size="10px" fill="#000" opacity="1">42</text></g><g class="mark-rule role-axis-domain" pointer-events="none"><line transform="translate(0,600)" x2="0" y2="-600" stroke="#888" stroke-width="1" opacity="1"/></g><g class="mark-text role-axis-title" pointer-events="none"><text text-anchor="middle" transform="translate(-22.123046875,300) rotate(-90) translate(0,-2)" font-family="sans-serif" font-size="11px" font-weight="bold" fill="#000" opacity="1">Execution Time (seconds, lower=better)</text></g></g><path class="foreground" aria-hidden="true" d="" pointer-events="none" display="none"/></g></g><g class="mark-group role-scope" role="graphics-object" aria-roledescription="group mark container"><g transform="translate(5,595.8782526729071)"><path class="background" aria-hidden="true" d="M2.060873663546431,0L87.93912633645357,0C89.07655347494884,0,90,0.9234465250511631,90,2.060873663546431L90,4.121747327092862C90,4.121747327092862,90,4.121747327092862,90,4.121747327092862L0,4.121747327092862C0,4.121747327092862,0,4.121747327092862,0,4.121747327092862L0,2.060873663546431C0,0.9234465250511631,0.9234465250511631,0,2.060873663546431,0Z"/><g clip-path="url(#clip1)"><g class="mark-group role-scope" role="graphics-object" aria-roledescription="group mark container"><g transform="translate(0,-595.8782526729071)"><path class="background" aria-hidden="true" d="M0,0h90v0h-90Z"/><g><g class="mark-rect role-mark layer_0_marks" role="graphics-object" aria-roledescription="rect mark container"><path aria-label="Parser: yaml_rs (parse_dt=False)&#xA;0.1.6; Execution Time (seconds, lower=better): 0.298561166667; parser: yaml_rs (parse_dt=False); Execution Time (s): 0.2986; Slowdown: 1.00" role="graphics-symbol" aria-roledescription="bar" d="M0,595.8782526729071h90v4.121747327092862h-90Z" fill="#a6761d"/></g></g><path class="foreground" aria-hidden="true" d="" display="none"/></g></g></g><path class="foreground" aria-hidden="true" d="" display="none"/></g><g transform="translate(105,595.6887008033284)"><path class="background" aria-hidden="true" d="M2.155649598335799,0L87.8443504016642,0C89.03408580253019,0,90,0.9659141974698153,90,2.155649598335799L90,4.311299196671598C90,4.311299196671598,90,4.311299196671598,90,4.311299196671598L0,4.311299196671598C0,4.311299196671598,0,4.311299196671598,0,4.311299196671598L0,2.155649598335799C0,0.9659141974698153,0.9659141974698153,0,2.155649598335799,0Z"/><g clip-path="url(#clip2)"><g class="mark-group role-scope" role="graphics-object" aria-roledescription="group mark container"><g transform="translate(0,-595.6887008033284)"><path class="background" aria-hidden="true" d="M0,0h90v0h-90Z"/><g><g class="mark-rect role-mark layer_0_marks" role="graphics-object" aria-roledescription="rect mark container"><path aria-label="Parser: yamlrocks&#xA;0.6.1; Execution Time (seconds, lower=better): 0.312291466667; parser: yamlrocks; Execution Time (s): 0.3123; Slowdown: 1.05" role="graphics-symbol" aria-roledescription="bar" d="M0,595.6887008033284h90v4.311299196671598h-90Z" fill="#666666"/></g></g><path class="foreground" aria-hidden="true" d="" display="none"/></g></g></g><path class="foreground" aria-hidden="true" d="" display="none"/></g><g transform="translate(205,595.6782008992037)"><path class="background" aria-hidden="true" d="M2.160899550398142,0L87.83910044960186,0C89.03173337788893,0,90,0.9682666221110778,90,2.160899550398142L90,4.321799100796284C90,4.321799100796284,90,4.321799100796284,90,4.321799100796284L0,4.321799100796284C0,4.321799100796284,0,4.321799100796284,0,4.321799100796284L0,2.160899550398142C0,0.9682666221110778,0.9682666221110778,0,2.160899550398142,0Z"/><g clip-path="url(#clip3)"><g class="mark-group role-scope" role="graphics-object" aria-roledescription="group mark container"><g transform="translate(0,-595.6782008992037)"><path class="background" aria-hidden="true" d="M0,0h90v0h-90Z"/><g><g class="mark-rect role-mark layer_0_marks" role="graphics-object" aria-roledescription="rect mark container"><path aria-label="Parser: yaml_rs&#xA;0.1.6; Execution Time (seconds, lower=better): 0.313052033333; parser: yaml_rs; Execution Time (s): 0.3131; Slowdown: 1.05" role="graphics-symbol" aria-roledescription="bar" d="M0,595.6782008992037h90v4.321799100796284h-90Z" fill="#e6ab02"/></g></g><path class="foreground" aria-hidden="true" d="" display="none"/></g></g></g><path class="foreground" aria-hidden="true" d="" display="none"/></g><g transform="translate(305,588.0869363415397)"><path class="background" aria-hidden="true" d="M5.95653182923013,0L84.04346817076987,0C87.3309675811987,0,90,2.6690324188012924,90,5.95653182923013L90,11.91306365846026C90,11.91306365846026,90,11.91306365846026,90,11.91306365846026L0,11.91306365846026C0,11.91306365846026,0,11.91306365846026,0,11.91306365846026L0,5.95653182923013C0,2.6690324188012924,2.6690324188012924,0,5.95653182923013,0Z"/><g clip-path="url(#clip4)"><g class="mark-group role-scope" role="graphics-object" aria-roledescription="group mark container"><g transform="translate(0,-588.0869363415397)"><path class="background" aria-hidden="true" d="M0,0h90v0h-90Z"/><g><g class="mark-rect role-mark layer_0_marks" role="graphics-object" aria-roledescription="rect mark container"><path aria-label="Parser: ryaml&#xA;0.5.1; Execution Time (seconds, lower=better): 0.8629297; parser: ryaml; Execution Time (s): 0.8629; Slowdown: 2.89" role="graphics-symbol" aria-roledescription="bar" d="M0,588.0869363415397h90v11.91306365846026h-90Z" fill="#66a61e"/></g></g><path class="foreground" aria-hidden="true" d="" display="none"/></g></g></g><path class="foreground" aria-hidden="true" d="" display="none"/></g><g transform="translate(405,562.1057512164706)"><path class="background" aria-hidden="true" d="M6,0L84,0C87.311490146964,0,90,2.688509853036,90,6L90,37.894248783529406C90,37.894248783529406,90,37.894248783529406,90,37.894248783529406L0,37.894248783529406C0,37.894248783529406,0,37.894248783529406,0,37.894248783529406L0,6C0,2.688509853036,2.688509853036,0,6,0Z"/><g clip-path="url(#clip5)"><g class="mark-group role-scope" role="graphics-object" aria-roledescription="group mark container"><g transform="translate(0,-562.1057512164706)"><path class="background" aria-hidden="true" d="M0,0h90v0h-90Z"/><g><g class="mark-rect role-mark layer_0_marks" role="graphics-object" aria-roledescription="rect mark container"><path aria-label="Parser: PyYAML (CLoader)&#xA;6.0.3; Execution Time (seconds, lower=better): 2.74489196667; parser: PyYAML (CLoader); Execution Time (s): 2.7449; Slowdown: 9.19" role="graphics-symbol" aria-roledescription="bar" d="M0,562.1057512164706h90v37.894248783529406h-90Z" fill="#d95f02"/></g></g><path class="foreground" aria-hidden="true" d="" display="none"/></g></g></g><path class="foreground" aria-hidden="true" d="" display="none"/></g><g transform="translate(505,208.54184365234673)"><path class="background" aria-hidden="true" d="M6,0L84,0C87.311490146964,0,90,2.688509853036,90,6L90,391.45815634765324C90,391.45815634765324,90,391.45815634765324,90,391.45815634765324L0,391.45815634765324C0,391.45815634765324,0,391.45815634765324,0,391.45815634765324L0,6C0,2.688509853036,2.688509853036,0,6,0Z"/><g clip-path="url(#clip6)"><g class="mark-group role-scope" role="graphics-object" aria-roledescription="group mark container"><g transform="translate(0,-208.54184365234673)"><path class="background" aria-hidden="true" d="M0,0h90v0h-90Z"/><g><g class="mark-rect role-mark layer_0_marks" role="graphics-object" aria-roledescription="rect mark container"><path aria-label="Parser: oyaml&#xA;1.0; Execution Time (seconds, lower=better): 28.3554994; parser: oyaml; Execution Time (s): 28.3555; Slowdown: 94.97" role="graphics-symbol" aria-roledescription="bar" d="M0,208.54184365234673h90v391.45815634765324h-90Z" fill="#7570b3"/></g></g><path class="foreground" aria-hidden="true" d="" display="none"/></g></g></g><path class="foreground" aria-hidden="true" d="" display="none"/></g><g transform="translate(605,205.47366324888918)"><path class="background" aria-hidden="true" d="M6,0L84,0C87.311490146964,0,90,2.688509853036,90,6L90,394.5263367511108C90,394.5263367511108,90,394.5263367511108,90,394.5263367511108L0,394.5263367511108C0,394.5263367511108,0,394.5263367511108,0,394.5263367511108L0,6C0,2.688509853036,2.688509853036,0,6,0Z"/><g clip-path="url(#clip7)"><g class="mark-group role-scope" role="graphics-object" aria-roledescription="group mark container"><g transform="translate(0,-205.47366324888918)"><path class="background" aria-hidden="true" d="M0,0h90v0h-90Z"/><g><g class="mark-rect role-mark layer_0_marks" role="graphics-object" aria-roledescription="rect mark container"><path aria-label="Parser: PyYAML&#xA;6.0.3; Execution Time (seconds, lower=better): 28.5777448333; parser: PyYAML; Execution Time (s): 28.5777; Slowdown: 95.72" role="graphics-symbol" aria-roledescription="bar" d="M0,205.47366324888918h90v394.5263367511108h-90Z" fill="#1b9e77"/></g></g><path class="foreground" aria-hidden="true" d="" display="none"/></g></g></g><path class="foreground" aria-hidden="true" d="" display="none"/></g><g transform="translate(705,28.571428571428605)"><path class="background" aria-hidden="true" d="M6,0L84,0C87.311490146964,0,90,2.688509853036,90,6L90,571.4285714285714C90,571.4285714285714,90,571.4285714285714,90,571.4285714285714L0,571.4285714285714C0,571.4285714285714,0,571.4285714285714,0,571.4285714285714L0,6C0,2.688509853036,2.688509853036,0,6,0Z"/><g clip-path="url(#clip8)"><g class="mark-group role-scope" role="graphics-object" aria-roledescription="group mark container"><g transform="translate(0,-28.571428571428605)"><path class="background" aria-hidden="true" d="M0,0h90v0h-90Z"/><g><g class="mark-rect role-mark layer_0_marks" role="graphics-object" aria-roledescription="rect mark container"><path aria-label="Parser: ruamel.yaml&#xA;0.19.1; Execution Time (seconds, lower=better): 41.3917611667; parser: ruamel.yaml; Execution Time (s): 41.3918; Slowdown: 138.64" role="graphics-symbol" aria-roledescription="bar" d="M0,28.571428571428605h90v571.4285714285714h-90Z" fill="#e7298a"/></g></g><path class="foreground" aria-hidden="true" d="" display="none"/></g></g></g><path class="foreground" aria-hidden="true" d="" display="none"/></g></g><g class="mark-text role-mark layer_1_marks" role="graphics-object" aria-roledescription="text mark container"><text aria-label="Parser: yaml_rs (parse_dt=False)&#xA;0.1.6; Execution Time (seconds, lower=better): 0.298561166667; parser: yaml_rs (parse_dt=False); label: 0.2986s (x1.00); Execution Time (s): 0.2986; Slowdown: 1.00" role="graphics-symbol" aria-roledescription="text mark" text-anchor="middle" transform="translate(50,591.8782526729071)" font-family="sans-serif" font-size="9px" font-weight="bold" fill="#a6761d">0.2986s (x1.00)</text><text aria-label="Parser: yamlrocks&#xA;0.6.1; Execution Time (seconds, lower=better): 0.312291466667; parser: yamlrocks; label: 0.3123s (x1.05); Execution Time (s): 0.3123; Slowdown: 1.05" role="graphics-symbol" aria-roledescription="text mark" text-anchor="middle" transform="translate(150,591.6887008033284)" font-family="sans-serif" font-size="9px" font-weight="bold" fill="#666666">0.3123s (x1.05)</text><text aria-label="Parser: yaml_rs&#xA;0.1.6; Execution Time (seconds, lower=better): 0.313052033333; parser: yaml_rs; label: 0.3131s (x1.05); Execution Time (s): 0.3131; Slowdown: 1.05" role="graphics-symbol" aria-roledescription="text mark" text-anchor="middle" transform="translate(250,591.6782008992037)" font-family="sans-serif" font-size="9px" font-weight="bold" fill="#e6ab02">0.3131s (x1.05)</text><text aria-label="Parser: ryaml&#xA;0.5.1; Execution Time (seconds, lower=better): 0.8629297; parser: ryaml; label: 0.8629s (x2.89); Execution Time (s): 0.8629; Slowdown: 2.89" role="graphics-symbol" aria-roledescription="text mark" text-anchor="middle" transform="translate(350,584.0869363415397)" font-family="sans-serif" font-size="9px" font-weight="bold" fill="#66a61e">0.8629s (x2.89)</text><text aria-label="Parser: PyYAML (CLoader)&#xA;6.0.3; Execution Time (seconds, lower=better): 2.74489196667; parser: PyYAML (CLoader); label: 2.7449s (x9.19); Execution Time (s): 2.7449; Slowdown: 9.19" role="graphics-symbol" aria-roledescription="text mark" text-anchor="middle" transform="translate(450,558.1057512164706)" font-family="sans-serif" font-size="9px" font-weight="bold" fill="#d95f02">2.7449s (x9.19)</text><text aria-label="Parser: oyaml&#xA;1.0; Execution Time (seconds, lower=better): 28.3554994; parser: oyaml; label: 28.3555s (x94.97); Execution Time (s): 28.3555; Slowdown: 94.97" role="graphics-symbol" aria-roledescription="text mark" text-anchor="middle" transform="translate(550,204.54184365234673)" font-family="sans-serif" font-size="9px" font-weight="bold" fill="#7570b3">28.3555s (x94.97)</text><text aria-label="Parser: PyYAML&#xA;6.0.3; Execution Time (seconds, lower=better): 28.5777448333; parser: PyYAML; label: 28.5777s (x95.72); Execution Time (s): 28.5777; Slowdown: 95.72" role="graphics-symbol" aria-roledescription="text mark" text-anchor="middle" transform="translate(650,201.47366324888918)" font-family="sans-serif" font-size="9px" font-weight="bold" fill="#1b9e77">28.5777s (x95.72)</text><text aria-label="Parser: ruamel.yaml&#xA;0.19.1; Execution Time (seconds, lower=better): 41.3917611667; parser: ruamel.yaml; label: 41.3918s (x138.64); Execution Time (s): 41.3918; Slowdown: 138.64" role="graphics-symbol" aria-roledescription="text mark" text-anchor="middle" transform="translate(750,24.571428571428605)" font-family="sans-serif" font-size="9px" font-weight="bold" fill="#e7298a">41.3918s (x138.64)</text></g><g class="mark-group role-title"><g transform="translate(400,-31)"><path class="background" aria-hidden="true" d="M0,0h0v0h0Z" pointer-events="none"/><g><g class="mark-text role-title-text" role="graphics-symbol" aria-roledescription="title" aria-label="Title text 'YAML parsers benchmark (loads)'" pointer-events="none"><text text-anchor="middle" transform="translate(0,10)" font-family="sans-serif" font-size="13px" font-weight="bold" fill="#000" opacity="1">YAML parsers benchmark (loads)</text></g><g class="mark-text role-title-subtitle" role="graphics-symbol" aria-roledescription="subtitle" aria-label="Subtitle text 'Python: 3.14.6 (Windows 2025Server) | CPU: AMD EPYC 7763 64-Core Processor'" pointer-events="none"><text text-anchor="middle" transform="translate(0,25)" font-family="sans-serif" font-size="12px" fill="#000" opacity="1">Python: 3.14.6 (Windows 2025Server) | CPU: AMD EPYC 7763 64-Core Processor</text></g></g><path class="foreground" aria-hidden="true" d="" pointer-events="none" display="none"/></g></g></g><path class="foreground" aria-hidden="true" d="" display="none"/></g></g></g><defs><clipPath id="clip1"><path d="M2.060873663546431,0L87.93912633645357,0C89.07655347494884,0,90,0.9234465250511631,90,2.060873663546431L90,4.121747327092862C90,4.121747327092862,90,4.121747327092862,90,4.121747327092862L0,4.121747327092862C0,4.121747327092862,0,4.121747327092862,0,4.121747327092862L0,2.060873663546431C0,0.9234465250511631,0.9234465250511631,0,2.060873663546431,0Z"/></clipPath><clipPath id="clip2"><path d="M2.155649598335799,0L87.8443504016642,0C89.03408580253019,0,90,0.9659141974698153,90,2.155649598335799L90,4.311299196671598C90,4.311299196671598,90,4.311299196671598,90,4.311299196671598L0,4.311299196671598C0,4.311299196671598,0,4.311299196671598,0,4.311299196671598L0,2.155649598335799C0,0.9659141974698153,0.9659141974698153,0,2.155649598335799,0Z"/></clipPath><clipPath id="clip3"><path d="M2.160899550398142,0L87.83910044960186,0C89.03173337788893,0,90,0.9682666221110778,90,2.160899550398142L90,4.321799100796284C90,4.321799100796284,90,4.321799100796284,90,4.321799100796284L0,4.321799100796284C0,4.321799100796284,0,4.321799100796284,0,4.321799100796284L0,2.160899550398142C0,0.9682666221110778,0.9682666221110778,0,2.160899550398142,0Z"/></clipPath><clipPath id="clip4"><path d="M5.95653182923013,0L84.04346817076987,0C87.3309675811987,0,90,2.6690324188012924,90,5.95653182923013L90,11.91306365846026C90,11.91306365846026,90,11.91306365846026,90,11.91306365846026L0,11.91306365846026C0,11.91306365846026,0,11.91306365846026,0,11.91306365846026L0,5.95653182923013C0,2.6690324188012924,2.6690324188012924,0,5.95653182923013,0Z"/></clipPath><clipPath id="clip5"><path d="M6,0L84,0C87.311490146964,0,90,2.688509853036,90,6L90,37.894248783529406C90,37.894248783529406,90,37.894248783529406,90,37.894248783529406L0,37.894248783529406C0,37.894248783529406,0,37.894248783529406,0,37.894248783529406L0,6C0,2.688509853036,2.688509853036,0,6,0Z"/></clipPath><clipPath id="clip6"><path d="M6,0L84,0C87.311490146964,0,90,2.688509853036,90,6L90,391.45815634765324C90,391.45815634765324,90,391.45815634765324,90,391.45815634765324L0,391.45815634765324C0,391.45815634765324,0,391.45815634765324,0,391.45815634765324L0,6C0,2.688509853036,2.688509853036,0,6,0Z"/></clipPath><clipPath id="clip7"><path d="M6,0L84,0C87.311490146964,0,90,2.688509853036,90,6L90,394.5263367511108C90,394.5263367511108,90,394.5263367511108,90,394.5263367511108L0,394.5263367511108C0,394.5263367511108,0,394.5263367511108,0,394.5263367511108L0,6C0,2.688509853036,2.688509853036,0,6,0Z"/></clipPath><clipPath id="clip8"><path d="M6,0L84,0C87.311490146964,0,90,2.688509853036,90,6L90,571.4285714285714C90,571.4285714285714,90,571.4285714285714,90,571.4285714285714L0,571.4285714285714C0,571.4285714285714,0,571.4285714285714,0,571.4285714285714L0,6C0,2.688509853036,2.688509853036,0,6,0Z"/></clipPath></defs></svg>