<svg xmlns="http://www.w3.org/2000/svg" xmlns:xlink="http://www.w3.org/1999/xlink" version="1.1" class="marks" width="844" height="687" viewBox="0 0 844 687"><rect width="844" height="687" fill="white"/><g fill="none" stroke-miterlimit="10" transform="translate(39,36)"><g class="mark-group role-frame root" role="graphics-object" aria-roledescription="group mark container"><g transform="translate(0,0)"><path class="background" aria-hidden="true" d="M0.5,0.5h800v600h-800Z" stroke="#ddd"/><g><g class="mark-group role-axis" role="graphics-symbol" aria-roledescription="axis" aria-label="X-axis titled 'Parser' for a discrete scale with 7 values: yamlrocks&#xA;0.6.1, yaml_rs&#xA;0.1.6, ryaml&#xA;0.5.1, PyYAML (CDumper)&#xA;6.0.3, PyYAML&#xA;6.0.3, oyaml&#xA;1.0, ruamel.yaml&#xA;0.19.1"><g transform="translate(0.5,600.5)"><path class="background" aria-hidden="true" d="M0,0h0v0h0Z" pointer-events="none"/><g><g class="mark-rule role-axis-tick" pointer-events="none"><line transform="translate(57,0)" x2="0" y2="5" stroke="#888" stroke-width="1" opacity="1"/><line transform="translate(171,0)" x2="0" y2="5" stroke="#888" stroke-width="1" opacity="1"/><line transform="translate(285,0)" x2="0" y2="5" stroke="#888" stroke-width="1" opacity="1"/><line transform="translate(400,0)" x2="0" y2="5" stroke="#888" stroke-width="1" opacity="1"/><line transform="translate(514,0)" x2="0" y2="5" stroke="#888" stroke-width="1" opacity="1"/><line transform="translate(628,0)" x2="0" y2="5" stroke="#888" stroke-width="1" opacity="1"/><line transform="translate(742,0)" x2="0" y2="5" stroke="#888" stroke-width="1" opacity="1"/></g><g class="mark-text role-axis-label" pointer-events="none"><text text-anchor="middle" transform="translate(56.642857142857096,15)" font-family="sans-serif" font-size="10px" fill="#000" opacity="1"><tspan>yamlrocks</tspan><tspan x="0" dy="14">0.6.1</tspan></text><text text-anchor="middle" transform="translate(170.9285714285714,15)" font-family="sans-serif" font-size="10px" fill="#000" opacity="1"><tspan>yaml_rs</tspan><tspan x="0" dy="14">0.1.6</tspan></text><text text-anchor="middle" transform="translate(285.21428571428567,15)" font-family="sans-serif" font-size="10px" fill="#000" opacity="1"><tspan>ryaml</tspan><tspan x="0" dy="14">0.5.1</tspan></text><text text-anchor="middle" transform="translate(399.5,15)" font-family="sans-serif" font-size="10px" fill="#000" opacity="1"><tspan>PyYAML (CDumper)</tspan><tspan x="0" dy="14">6.0.3</tspan></text><text text-anchor="middle" transform="translate(513.7857142857142,15)" font-family="sans-serif" font-size="10px" fill="#000" opacity="1"><tspan>PyYAML</tspan><tspan x="0" dy="14">6.0.3</tspan></text><text text-anchor="middle" transform="translate(628.0714285714286,15)" font-family="sans-serif" font-size="10px" fill="#000" opacity="1"><tspan>oyaml</tspan><tspan x="0" dy="14">1.0</tspan></text><text text-anchor="middle" transform="translate(742.3571428571429,15)" font-family="sans-serif" font-size="10px" fill="#000" opacity="1"><tspan>ruamel.yaml</tspan><tspan x="0" dy="14">0.19.1</tspan></text></g><g class="mark-rule role-axis-domain" pointer-events="none"><line transform="translate(0,0)" x2="800" y2="0" stroke="#888" stroke-width="1" opacity="1"/></g><g class="mark-text role-axis-title" pointer-events="none"><text text-anchor="middle" transform="translate(400,44)" font-family="sans-serif" font-size="11px" font-weight="bold" fill="#000" opacity="1">Parser</text></g></g><path class="foreground" aria-hidden="true" d="" pointer-events="none" display="none"/></g></g><g class="mark-group role-axis" role="graphics-symbol" aria-roledescription="axis" aria-label="Y-axis titled 'Execution Time (seconds, lower=better)' for a linear scale with values from 0 to 16"><g transform="translate(0.5,0.5)"><path class="background" aria-hidden="true" d="M0,0h0v0h0Z" pointer-events="none"/><g><g class="mark-rule role-axis-tick" pointer-events="none"><line transform="translate(0,600)" x2="-5" y2="0" stroke="#888" stroke-width="1" opacity="1"/><line transform="translate(0,562)" x2="-5" y2="0" stroke="#888" stroke-width="1" opacity="1"/><line transform="translate(0,524)" x2="-5" y2="0" stroke="#888" stroke-width="1" opacity="1"/><line transform="translate(0,486)" x2="-5" y2="0" stroke="#888" stroke-width="1" opacity="1"/><line transform="translate(0,448)" x2="-5" y2="0" stroke="#888" stroke-width="1" opacity="1"/><line transform="translate(0,410)" x2="-5" y2="0" stroke="#888" stroke-width="1" opacity="1"/><line transform="translate(0,372)" x2="-5" y2="0" stroke="#888" stroke-width="1" opacity="1"/><line transform="translate(0,335)" x2="-5" y2="0" stroke="#888" stroke-width="1" opacity="1"/><line transform="translate(0,297)" x2="-5" y2="0" stroke="#888" stroke-width="1" opacity="1"/><line transform="translate(0,259)" x2="-5" y2="0" stroke="#888" stroke-width="1" opacity="1"/><line transform="translate(0,221)" x2="-5" y2="0" stroke="#888" stroke-width="1" opacity="1"/><line transform="translate(0,183)" x2="-5" y2="0" stroke="#888" stroke-width="1" opacity="1"/><line transform="translate(0,145)" x2="-5" y2="0" stroke="#888" stroke-width="1" opacity="1"/><line transform="translate(0,107)" x2="-5" y2="0" stroke="#888" stroke-width="1" opacity="1"/><line transform="translate(0,69)" x2="-5" y2="0" stroke="#888" stroke-width="1" opacity="1"/><line transform="translate(0,31)" x2="-5" y2="0" stroke="#888" stroke-width="1" opacity="1"/></g><g class="mark-text role-axis-label" pointer-events="none"><text text-anchor="end" transform="translate(-7,603)" font-family="sans-serif" font-size="10px" fill="#000" opacity="1">0</text><text text-anchor="end" transform="translate(-7,565.0810081989513)" font-family="sans-serif" font-size="10px" fill="#000" opacity="1">1</text><text text-anchor="end" transform="translate(-7,527.1620163979027)" font-family="sans-serif" font-size="10px" fill="#000" opacity="1">2</text><text text-anchor="end" transform="translate(-7,489.24302459685396)" font-family="sans-serif" font-size="10px" fill="#000" opacity="1">3</text><text text-anchor="end" transform="translate(-7,451.32403279580535)" font-family="sans-serif" font-size="10px" fill="#000" opacity="1">4</text><text text-anchor="end" transform="translate(-7,413.40504099475663)" font-family="sans-serif" font-size="10px" fill="#000" opacity="1">5</text><text text-anchor="end" transform="translate(-7,375.48604919370797)" font-family="sans-serif" font-size="10px" fill="#000" opacity="1">6</text><text text-anchor="end" transform="translate(-7,337.56705739265925)" font-family="sans-serif" font-size="10px" fill="#000" opacity="1">7</text><text text-anchor="end" transform="translate(-7,299.64806559161065)" font-family="sans-serif" font-size="10px" fill="#000" opacity="1">8</text><text text-anchor="end" transform="translate(-7,261.7290737905619)" font-family="sans-serif" font-size="10px" fill="#000" opacity="1">9</text><text text-anchor="end" transform="translate(-7,223.81008198951324)" font-family="sans-serif" font-size="10px" fill="#000" opacity="1">10</text><text text-anchor="end" transform="translate(-7,185.8910901884646)" font-family="sans-serif" font-size="10px" fill="#000" opacity="1">11</text><text text-anchor="end" transform="translate(-7,147.9720983874159)" font-family="sans-serif" font-size="10px" fill="#000" opacity="1">12</text><text text-anchor="end" transform="translate(-7,110.05310658636722)" font-family="sans-serif" font-size="10px" fill="#000" opacity="1">13</text><text text-anchor="end" transform="translate(-7,72.13411478531859)" font-family="sans-serif" font-size="10px" fill="#000" opacity="1">14</text><text text-anchor="end" transform="translate(-7,34.2151229842699)" font-family="sans-serif" font-size="10px" fill="#000" opacity="1">15</text></g><g class="mark-rule role-axis-domain" pointer-events="none"><line transform="translate(0,600)" x2="0" y2="-600" stroke="#888" stroke-width="1" opacity="1"/></g><g class="mark-text role-axis-title" pointer-events="none"><text text-anchor="middle" transform="translate(-22.123046875,300) rotate(-90) translate(0,-2)" font-family="sans-serif" font-size="11px" font-weight="bold" fill="#000" opacity="1">Execution Time (seconds, lower=better)</text></g></g><path class="foreground" aria-hidden="true" d="" pointer-events="none" display="none"/></g></g><g class="mark-group role-scope" role="graphics-object" aria-roledescription="group mark container"><g transform="translate(5.714285714285666,597.8359757775769)"><path class="background" aria-hidden="true" d="M1.0820121112115544,0L101.7751307459313,0C102.37230948679344,0,102.85714285714286,0.4848333703494247,102.85714285714286,1.0820121112115544L102.85714285714286,2.1640242224231088C102.85714285714286,2.1640242224231088,102.85714285714286,2.1640242224231088,102.85714285714286,2.1640242224231088L0,2.1640242224231088C0,2.1640242224231088,0,2.1640242224231088,0,2.1640242224231088L0,1.0820121112115544C0,0.4848333703494247,0.4848333703494247,0,1.0820121112115544,0Z"/><g clip-path="url(#clip9)"><g class="mark-group role-scope" role="graphics-object" aria-roledescription="group mark container"><g transform="translate(0,-597.8359757775769)"><path class="background" aria-hidden="true" d="M0,0h102.85714285714286v0h-102.85714285714286Z"/><g><g class="mark-rect role-mark layer_0_marks" role="graphics-object" aria-roledescription="rect mark container"><path aria-label="Parser: yamlrocks&#xA;0.6.1; Execution Time (seconds, lower=better): 0.0570696666667; parser: yamlrocks; Execution Time (s): 0.0571; Slowdown: 1.00" role="graphics-symbol" aria-roledescription="bar" d="M0,597.8359757775769h102.85714285714286v2.1640242224231088h-102.85714285714286Z" fill="#a6761d"/></g></g><path class="foreground" aria-hidden="true" d="" display="none"/></g></g></g><path class="foreground" aria-hidden="true" d="" display="none"/></g><g transform="translate(119.99999999999996,597.2168382713485)"><path class="background" aria-hidden="true" d="M1.3915808643257606,0L101.4655619928171,0C102.23359637963684,0,102.85714285714286,0.6235464775060268,102.85714285714286,1.3915808643257606L102.85714285714286,2.783161728651521C102.85714285714286,2.783161728651521,102.85714285714286,2.783161728651521,102.85714285714286,2.783161728651521L0,2.783161728651521C0,2.783161728651521,0,2.783161728651521,0,2.783161728651521L0,1.3915808643257606C0,0.6235464775060268,0.6235464775060268,0,1.3915808643257606,0Z"/><g clip-path="url(#clip10)"><g class="mark-group role-scope" role="graphics-object" aria-roledescription="group mark container"><g transform="translate(0,-597.2168382713485)"><path class="background" aria-hidden="true" d="M0,0h102.85714285714286v0h-102.85714285714286Z"/><g><g class="mark-rect role-mark layer_0_marks" role="graphics-object" aria-roledescription="rect mark container"><path aria-label="Parser: yaml_rs&#xA;0.1.6; Execution Time (seconds, lower=better): 0.0733975666667; parser: yaml_rs; Execution Time (s): 0.0734; Slowdown: 1.29" role="graphics-symbol" aria-roledescription="bar" d="M0,597.2168382713485h102.85714285714286v2.783161728651521h-102.85714285714286Z" fill="#e6ab02"/></g></g><path class="foreground" aria-hidden="true" d="" display="none"/></g></g></g><path class="foreground" aria-hidden="true" d="" display="none"/></g><g transform="translate(234.28571428571425,591.9648228091564)"><path class="background" aria-hidden="true" d="M4.017588595421785,0L98.83955426172108,0C101.0569217697701,0,102.85714285714286,1.8002210873727553,102.85714285714286,4.017588595421785L102.85714285714286,8.03517719084357C102.85714285714286,8.03517719084357,102.85714285714286,8.03517719084357,102.85714285714286,8.03517719084357L0,8.03517719084357C0,8.03517719084357,0,8.03517719084357,0,8.03517719084357L0,4.017588595421785C0,1.8002210873727553,1.8002210873727553,0,4.017588595421785,0Z"/><g clip-path="url(#clip11)"><g class="mark-group role-scope" role="graphics-object" aria-roledescription="group mark container"><g transform="translate(0,-591.9648228091564)"><path class="background" aria-hidden="true" d="M0,0h102.85714285714286v0h-102.85714285714286Z"/><g><g class="mark-rect role-mark layer_0_marks" role="graphics-object" aria-roledescription="rect mark container"><path aria-label="Parser: ryaml&#xA;0.5.1; Execution Time (seconds, lower=better): 0.211903766667; parser: ryaml; Execution Time (s): 0.2119; Slowdown: 3.71" role="graphics-symbol" aria-roledescription="bar" d="M0,591.9648228091564h102.85714285714286v8.03517719084357h-102.85714285714286Z" fill="#66a61e"/></g></g><path class="foreground" aria-hidden="true" d="" display="none"/></g></g></g><path class="foreground" aria-hidden="true" d="" display="none"/></g><g transform="translate(348.57142857142856,586.4448363598366)"><path class="background" aria-hidden="true" d="M6,0L96.85714285714286,0C100.16863300410687,0,102.85714285714286,2.688509853036,102.85714285714286,6L102.85714285714286,13.555163640163414C102.85714285714286,13.555163640163414,102.85714285714286,13.555163640163414,102.85714285714286,13.555163640163414L0,13.555163640163414C0,13.555163640163414,0,13.555163640163414,0,13.555163640163414L0,6C0,2.688509853036,2.688509853036,0,6,0Z"/><g clip-path="url(#clip12)"><g class="mark-group role-scope" role="graphics-object" aria-roledescription="group mark container"><g transform="translate(0,-586.4448363598366)"><path class="background" aria-hidden="true" d="M0,0h102.85714285714286v0h-102.85714285714286Z"/><g><g class="mark-rect role-mark layer_0_marks" role="graphics-object" aria-roledescription="rect mark container"><path aria-label="Parser: PyYAML (CDumper)&#xA;6.0.3; Execution Time (seconds, lower=better): 0.3574769; parser: PyYAML (CDumper); Execution Time (s): 0.3575; Slowdown: 6.26" role="graphics-symbol" aria-roledescription="bar" d="M0,586.4448363598366h102.85714285714286v13.555163640163414h-102.85714285714286Z" fill="#d95f02"/></g></g><path class="foreground" aria-hidden="true" d="" display="none"/></g></g></g><path class="foreground" aria-hidden="true" d="" display="none"/></g><g transform="translate(462.85714285714283,77.60921042350873)"><path class="background" aria-hidden="true" d="M6,0L96.85714285714286,0C100.16863300410687,0,102.85714285714286,2.688509853036,102.85714285714286,6L102.85714285714286,522.3907895764912C102.85714285714286,522.3907895764912,102.85714285714286,522.3907895764912,102.85714285714286,522.3907895764912L0,522.3907895764912C0,522.3907895764912,0,522.3907895764912,0,522.3907895764912L0,6C0,2.688509853036,2.688509853036,0,6,0Z"/><g clip-path="url(#clip13)"><g class="mark-group role-scope" role="graphics-object" aria-roledescription="group mark container"><g transform="translate(0,-77.60921042350873)"><path class="background" aria-hidden="true" d="M0,0h102.85714285714286v0h-102.85714285714286Z"/><g><g class="mark-rect role-mark layer_0_marks" role="graphics-object" aria-roledescription="rect mark container"><path aria-label="Parser: PyYAML&#xA;6.0.3; Execution Time (seconds, lower=better): 13.7764947; parser: PyYAML; Execution Time (s): 13.7765; Slowdown: 241.40" role="graphics-symbol" aria-roledescription="bar" d="M0,77.60921042350873h102.85714285714286v522.3907895764912h-102.85714285714286Z" fill="#1b9e77"/></g></g><path class="foreground" aria-hidden="true" d="" display="none"/></g></g></g><path class="foreground" aria-hidden="true" d="" display="none"/></g><g transform="translate(577.1428571428571,75.13810303788573)"><path class="background" aria-hidden="true" d="M6,0L96.85714285714286,0C100.16863300410687,0,102.85714285714286,2.688509853036,102.85714285714286,6L102.85714285714286,524.8618969621143C102.85714285714286,524.8618969621143,102.85714285714286,524.8618969621143,102.85714285714286,524.8618969621143L0,524.8618969621143C0,524.8618969621143,0,524.8618969621143,0,524.8618969621143L0,6C0,2.688509853036,2.688509853036,0,6,0Z"/><g clip-path="url(#clip14)"><g class="mark-group role-scope" role="graphics-object" aria-roledescription="group mark container"><g transform="translate(0,-75.13810303788573)"><path class="background" aria-hidden="true" d="M0,0h102.85714285714286v0h-102.85714285714286Z"/><g><g class="mark-rect role-mark layer_0_marks" role="graphics-object" aria-roledescription="rect mark container"><path aria-label="Parser: oyaml&#xA;1.0; Execution Time (seconds, lower=better): 13.8416627667; parser: oyaml; Execution Time (s): 13.8417; Slowdown: 242.54" role="graphics-symbol" aria-roledescription="bar" d="M0,75.13810303788573h102.85714285714286v524.8618969621143h-102.85714285714286Z" fill="#7570b3"/></g></g><path class="foreground" aria-hidden="true" d="" display="none"/></g></g></g><path class="foreground" aria-hidden="true" d="" display="none"/></g><g transform="translate(691.4285714285714,28.571428571428537)"><path class="background" aria-hidden="true" d="M6,0L96.85714285714286,0C100.16863300410687,0,102.85714285714286,2.688509853036,102.85714285714286,6L102.85714285714286,571.4285714285714C102.85714285714286,571.4285714285714,102.85714285714286,571.4285714285714,102.85714285714286,571.4285714285714L0,571.4285714285714C0,571.4285714285714,0,571.4285714285714,0,571.4285714285714L0,6C0,2.688509853036,2.688509853036,0,6,0Z"/><g clip-path="url(#clip15)"><g class="mark-group role-scope" role="graphics-object" aria-roledescription="group mark container"><g transform="translate(0,-28.571428571428537)"><path class="background" aria-hidden="true" d="M0,0h102.85714285714286v0h-102.85714285714286Z"/><g><g class="mark-rect role-mark layer_0_marks" role="graphics-object" aria-roledescription="rect mark container"><path aria-label="Parser: ruamel.yaml&#xA;0.19.1; Execution Time (seconds, lower=better): 15.0697195333; parser: ruamel.yaml; Execution Time (s): 15.0697; Slowdown: 264.06" role="graphics-symbol" aria-roledescription="bar" d="M0,28.571428571428537h102.85714285714286v571.4285714285714h-102.85714285714286Z" fill="#e7298a"/></g></g><path class="foreground" aria-hidden="true" d="" display="none"/></g></g></g><path class="foreground" aria-hidden="true" d="" display="none"/></g></g><g class="mark-text role-mark layer_1_marks" role="graphics-object" aria-roledescription="text mark container"><text aria-label="Parser: yamlrocks&#xA;0.6.1; Execution Time (seconds, lower=better): 0.0570696666667; parser: yamlrocks; label: 0.0571s (x1.00); Execution Time (s): 0.0571; Slowdown: 1.00" role="graphics-symbol" aria-roledescription="text mark" text-anchor="middle" transform="translate(57.142857142857096,593.8359757775769)" font-family="sans-serif" font-size="9px" font-weight="bold" fill="#a6761d">0.0571s (x1.00)</text><text aria-label="Parser: yaml_rs&#xA;0.1.6; Execution Time (seconds, lower=better): 0.0733975666667; parser: yaml_rs; label: 0.0734s (x1.29); Execution Time (s): 0.0734; Slowdown: 1.29" role="graphics-symbol" aria-roledescription="text mark" text-anchor="middle" transform="translate(171.4285714285714,593.2168382713485)" font-family="sans-serif" font-size="9px" font-weight="bold" fill="#e6ab02">0.0734s (x1.29)</text><text aria-label="Parser: ryaml&#xA;0.5.1; Execution Time (seconds, lower=better): 0.211903766667; parser: ryaml; label: 0.2119s (x3.71); Execution Time (s): 0.2119; Slowdown: 3.71" role="graphics-symbol" aria-roledescription="text mark" text-anchor="middle" transform="translate(285.71428571428567,587.9648228091564)" font-family="sans-serif" font-size="9px" font-weight="bold" fill="#66a61e">0.2119s (x3.71)</text><text aria-label="Parser: PyYAML (CDumper)&#xA;6.0.3; Execution Time (seconds, lower=better): 0.3574769; parser: PyYAML (CDumper); label: 0.3575s (x6.26); Execution Time (s): 0.3575; Slowdown: 6.26" role="graphics-symbol" aria-roledescription="text mark" text-anchor="middle" transform="translate(400,582.4448363598366)" font-family="sans-serif" font-size="9px" font-weight="bold" fill="#d95f02">0.3575s (x6.26)</text><text aria-label="Parser: PyYAML&#xA;6.0.3; Execution Time (seconds, lower=better): 13.7764947; parser: PyYAML; label: 13.7765s (x241.40); Execution Time (s): 13.7765; Slowdown: 241.40" role="graphics-symbol" aria-roledescription="text mark" text-anchor="middle" transform="translate(514.2857142857142,73.60921042350873)" font-family="sans-serif" font-size="9px" font-weight="bold" fill="#1b9e77">13.7765s (x241.40)</text><text aria-label="Parser: oyaml&#xA;1.0; Execution Time (seconds, lower=better): 13.8416627667; parser: oyaml; label: 13.8417s (x242.54); Execution Time (s): 13.8417; Slowdown: 242.54" role="graphics-symbol" aria-roledescription="text mark" text-anchor="middle" transform="translate(628.5714285714286,71.13810303788573)" font-family="sans-serif" font-size="9px" font-weight="bold" fill="#7570b3">13.8417s (x242.54)</text><text aria-label="Parser: ruamel.yaml&#xA;0.19.1; Execution Time (seconds, lower=better): 15.0697195333; parser: ruamel.yaml; label: 15.0697s (x264.06); Execution Time (s): 15.0697; Slowdown: 264.06" role="graphics-symbol" aria-roledescription="text mark" text-anchor="middle" transform="translate(742.8571428571429,24.571428571428537)" font-family="sans-serif" font-size="9px" font-weight="bold" fill="#e7298a">15.0697s (x264.06)</text></g><g class="mark-group role-title"><g transform="translate(400,-31)"><path class="background" aria-hidden="true" d="M0,0h0v0h0Z" pointer-events="none"/><g><g class="mark-text role-title-text" role="graphics-symbol" aria-roledescription="title" aria-label="Title text 'YAML parsers benchmark (dumps)'" pointer-events="none"><text text-anchor="middle" transform="translate(0,10)" font-family="sans-serif" font-size="13px" font-weight="bold" fill="#000" opacity="1">YAML parsers benchmark (dumps)</text></g><g class="mark-text role-title-subtitle" role="graphics-symbol" aria-roledescription="subtitle" aria-label="Subtitle text 'Python: 3.14.6 (Windows 2025Server) | CPU: AMD EPYC 7763 64-Core Processor'" pointer-events="none"><text text-anchor="middle" transform="translate(0,25)" font-family="sans-serif" font-size="12px" fill="#000" opacity="1">Python: 3.14.6 (Windows 2025Server) | CPU: AMD EPYC 7763 64-Core Processor</text></g></g><path class="foreground" aria-hidden="true" d="" pointer-events="none" display="none"/></g></g></g><path class="foreground" aria-hidden="true" d="" display="none"/></g></g></g><defs><clipPath id="clip9"><path d="M1.0820121112115544,0L101.7751307459313,0C102.37230948679344,0,102.85714285714286,0.4848333703494247,102.85714285714286,1.0820121112115544L102.85714285714286,2.1640242224231088C102.85714285714286,2.1640242224231088,102.85714285714286,2.1640242224231088,102.85714285714286,2.1640242224231088L0,2.1640242224231088C0,2.1640242224231088,0,2.1640242224231088,0,2.1640242224231088L0,1.0820121112115544C0,0.4848333703494247,0.4848333703494247,0,1.0820121112115544,0Z"/></clipPath><clipPath id="clip10"><path d="M1.3915808643257606,0L101.4655619928171,0C102.23359637963684,0,102.85714285714286,0.6235464775060268,102.85714285714286,1.3915808643257606L102.85714285714286,2.783161728651521C102.85714285714286,2.783161728651521,102.85714285714286,2.783161728651521,102.85714285714286,2.783161728651521L0,2.783161728651521C0,2.783161728651521,0,2.783161728651521,0,2.783161728651521L0,1.3915808643257606C0,0.6235464775060268,0.6235464775060268,0,1.3915808643257606,0Z"/></clipPath><clipPath id="clip11"><path d="M4.017588595421785,0L98.83955426172108,0C101.0569217697701,0,102.85714285714286,1.8002210873727553,102.85714285714286,4.017588595421785L102.85714285714286,8.03517719084357C102.85714285714286,8.03517719084357,102.85714285714286,8.03517719084357,102.85714285714286,8.03517719084357L0,8.03517719084357C0,8.03517719084357,0,8.03517719084357,0,8.03517719084357L0,4.017588595421785C0,1.8002210873727553,1.8002210873727553,0,4.017588595421785,0Z"/></clipPath><clipPath id="clip12"><path d="M6,0L96.85714285714286,0C100.16863300410687,0,102.85714285714286,2.688509853036,102.85714285714286,6L102.85714285714286,13.555163640163414C102.85714285714286,13.555163640163414,102.85714285714286,13.555163640163414,102.85714285714286,13.555163640163414L0,13.555163640163414C0,13.555163640163414,0,13.555163640163414,0,13.555163640163414L0,6C0,2.688509853036,2.688509853036,0,6,0Z"/></clipPath><clipPath id="clip13"><path d="M6,0L96.85714285714286,0C100.16863300410687,0,102.85714285714286,2.688509853036,102.85714285714286,6L102.85714285714286,522.3907895764912C102.85714285714286,522.3907895764912,102.85714285714286,522.3907895764912,102.85714285714286,522.3907895764912L0,522.3907895764912C0,522.3907895764912,0,522.3907895764912,0,522.3907895764912L0,6C0,2.688509853036,2.688509853036,0,6,0Z"/></clipPath><clipPath id="clip14"><path d="M6,0L96.85714285714286,0C100.16863300410687,0,102.85714285714286,2.688509853036,102.85714285714286,6L102.85714285714286,524.8618969621143C102.85714285714286,524.8618969621143,102.85714285714286,524.8618969621143,102.85714285714286,524.8618969621143L0,524.8618969621143C0,524.8618969621143,0,524.8618969621143,0,524.8618969621143L0,6C0,2.688509853036,2.688509853036,0,6,0Z"/></clipPath><clipPath id="clip15"><path d="M6,0L96.85714285714286,0C100.16863300410687,0,102.85714285714286,2.688509853036,102.85714285714286,6L102.85714285714286,571.4285714285714C102.85714285714286,571.4285714285714,102.85714285714286,571.4285714285714,102.85714285714286,571.4285714285714L0,571.4285714285714C0,571.4285714285714,0,571.4285714285714,0,571.4285714285714L0,6C0,2.688509853036,2.688509853036,0,6,0Z"/></clipPath></defs></svg>