<svg xmlns="http://www.w3.org/2000/svg" xmlns:xlink="http://www.w3.org/1999/xlink" version="1.1" class="marks" width="844" height="687" viewBox="0 0 844 687"><rect width="844" height="687" fill="white"/><g fill="none" stroke-miterlimit="10" transform="translate(39,36)"><g class="mark-group role-frame root" role="graphics-object" aria-roledescription="group mark container"><g transform="translate(0,0)"><path class="background" aria-hidden="true" d="M0.5,0.5h800v600h-800Z" stroke="#ddd"/><g><g class="mark-group role-axis" role="graphics-symbol" aria-roledescription="axis" aria-label="X-axis titled 'Parser' for a discrete scale with 7 values: yamlrocks&#xA;v0.2.1, yaml_rs&#xA;v0.1.4, ryaml&#xA;v0.5.1, PyYAML (CDumper)&#xA;v6.0.3, oyaml&#xA;v1.0, PyYAML&#xA;v6.0.3, ruamel.yaml&#xA;v0.19.1"><g transform="translate(0.5,600.5)"><path class="background" aria-hidden="true" d="M0,0h0v0h0Z" pointer-events="none"/><g><g class="mark-rule role-axis-tick" pointer-events="none"><line transform="translate(57,0)" x2="0" y2="5" stroke="#888" stroke-width="1" opacity="1"/><line transform="translate(171,0)" x2="0" y2="5" stroke="#888" stroke-width="1" opacity="1"/><line transform="translate(285,0)" x2="0" y2="5" stroke="#888" stroke-width="1" opacity="1"/><line transform="translate(400,0)" x2="0" y2="5" stroke="#888" stroke-width="1" opacity="1"/><line transform="translate(514,0)" x2="0" y2="5" stroke="#888" stroke-width="1" opacity="1"/><line transform="translate(628,0)" x2="0" y2="5" stroke="#888" stroke-width="1" opacity="1"/><line transform="translate(742,0)" x2="0" y2="5" stroke="#888" stroke-width="1" opacity="1"/></g><g class="mark-text role-axis-label" pointer-events="none"><text text-anchor="middle" transform="translate(56.642857142857096,15)" font-family="sans-serif" font-size="10px" fill="#000" opacity="1"><tspan>yamlrocks</tspan><tspan x="0" dy="14">v0.2.1</tspan></text><text text-anchor="middle" transform="translate(170.9285714285714,15)" font-family="sans-serif" font-size="10px" fill="#000" opacity="1"><tspan>yaml_rs</tspan><tspan x="0" dy="14">v0.1.4</tspan></text><text text-anchor="middle" transform="translate(285.21428571428567,15)" font-family="sans-serif" font-size="10px" fill="#000" opacity="1"><tspan>ryaml</tspan><tspan x="0" dy="14">v0.5.1</tspan></text><text text-anchor="middle" transform="translate(399.5,15)" font-family="sans-serif" font-size="10px" fill="#000" opacity="1"><tspan>PyYAML (CDumper)</tspan><tspan x="0" dy="14">v6.0.3</tspan></text><text text-anchor="middle" transform="translate(513.7857142857142,15)" font-family="sans-serif" font-size="10px" fill="#000" opacity="1"><tspan>oyaml</tspan><tspan x="0" dy="14">v1.0</tspan></text><text text-anchor="middle" transform="translate(628.0714285714286,15)" font-family="sans-serif" font-size="10px" fill="#000" opacity="1"><tspan>PyYAML</tspan><tspan x="0" dy="14">v6.0.3</tspan></text><text text-anchor="middle" transform="translate(742.3571428571429,15)" font-family="sans-serif" font-size="10px" fill="#000" opacity="1"><tspan>ruamel.yaml</tspan><tspan x="0" dy="14">v0.19.1</tspan></text></g><g class="mark-rule role-axis-domain" pointer-events="none"><line transform="translate(0,0)" x2="800" y2="0" stroke="#888" stroke-width="1" opacity="1"/></g><g class="mark-text role-axis-title" pointer-events="none"><text text-anchor="middle" transform="translate(400,44)" font-family="sans-serif" font-size="11px" font-weight="bold" fill="#000" opacity="1">Parser</text></g></g><path class="foreground" aria-hidden="true" d="" pointer-events="none" display="none"/></g></g><g class="mark-group role-axis" role="graphics-symbol" aria-roledescription="axis" aria-label="Y-axis titled 'Execution Time (seconds, lower=better)' for a linear scale with values from 0 to 15"><g transform="translate(0.5,0.5)"><path class="background" aria-hidden="true" d="M0,0h0v0h0Z" pointer-events="none"/><g><g class="mark-rule role-axis-tick" pointer-events="none"><line transform="translate(0,600)" x2="-5" y2="0" stroke="#888" stroke-width="1" opacity="1"/><line transform="translate(0,559)" x2="-5" y2="0" stroke="#888" stroke-width="1" opacity="1"/><line transform="translate(0,519)" x2="-5" y2="0" stroke="#888" stroke-width="1" opacity="1"/><line transform="translate(0,478)" x2="-5" y2="0" stroke="#888" stroke-width="1" opacity="1"/><line transform="translate(0,438)" x2="-5" y2="0" stroke="#888" stroke-width="1" opacity="1"/><line transform="translate(0,397)" x2="-5" y2="0" stroke="#888" stroke-width="1" opacity="1"/><line transform="translate(0,357)" x2="-5" y2="0" stroke="#888" stroke-width="1" opacity="1"/><line transform="translate(0,316)" x2="-5" y2="0" stroke="#888" stroke-width="1" opacity="1"/><line transform="translate(0,276)" x2="-5" y2="0" stroke="#888" stroke-width="1" opacity="1"/><line transform="translate(0,235)" x2="-5" y2="0" stroke="#888" stroke-width="1" opacity="1"/><line transform="translate(0,195)" x2="-5" y2="0" stroke="#888" stroke-width="1" opacity="1"/><line transform="translate(0,154)" x2="-5" y2="0" stroke="#888" stroke-width="1" opacity="1"/><line transform="translate(0,114)" x2="-5" y2="0" stroke="#888" stroke-width="1" opacity="1"/><line transform="translate(0,73)" x2="-5" y2="0" stroke="#888" stroke-width="1" opacity="1"/><line transform="translate(0,33)" x2="-5" y2="0" stroke="#888" stroke-width="1" opacity="1"/></g><g class="mark-text role-axis-label" pointer-events="none"><text text-anchor="end" transform="translate(-7,603)" font-family="sans-serif" font-size="10px" fill="#000" opacity="1">0</text><text text-anchor="end" transform="translate(-7,562.484924316029)" font-family="sans-serif" font-size="10px" fill="#000" opacity="1">1</text><text text-anchor="end" transform="translate(-7,521.969848632058)" font-family="sans-serif" font-size="10px" fill="#000" opacity="1">2</text><text text-anchor="end" transform="translate(-7,481.45477294808694)" font-family="sans-serif" font-size="10px" fill="#000" opacity="1">3</text><text text-anchor="end" transform="translate(-7,440.9396972641159)" font-family="sans-serif" font-size="10px" fill="#000" opacity="1">4</text><text text-anchor="end" transform="translate(-7,400.4246215801449)" font-family="sans-serif" font-size="10px" fill="#000" opacity="1">5</text><text text-anchor="end" transform="translate(-7,359.90954589617394)" font-family="sans-serif" font-size="10px" fill="#000" opacity="1">6</text><text text-anchor="end" transform="translate(-7,319.3944702122029)" font-family="sans-serif" font-size="10px" fill="#000" opacity="1">7</text><text text-anchor="end" transform="translate(-7,278.87939452823184)" font-family="sans-serif" font-size="10px" fill="#000" opacity="1">8</text><text text-anchor="end" transform="translate(-7,238.36431884426088)" font-family="sans-serif" font-size="10px" fill="#000" opacity="1">9</text><text text-anchor="end" transform="translate(-7,197.84924316028983)" font-family="sans-serif" font-size="10px" fill="#000" opacity="1">10</text><text text-anchor="end" transform="translate(-7,157.33416747631884)" font-family="sans-serif" font-size="10px" fill="#000" opacity="1">11</text><text text-anchor="end" transform="translate(-7,116.81909179234783)" font-family="sans-serif" font-size="10px" fill="#000" opacity="1">12</text><text text-anchor="end" transform="translate(-7,76.30401610837679)" font-family="sans-serif" font-size="10px" fill="#000" opacity="1">13</text><text text-anchor="end" transform="translate(-7,35.78894042440579)" font-family="sans-serif" font-size="10px" fill="#000" opacity="1">14</text></g><g class="mark-rule role-axis-domain" pointer-events="none"><line transform="translate(0,600)" x2="0" y2="-600" stroke="#888" stroke-width="1" opacity="1"/></g><g class="mark-text role-axis-title" pointer-events="none"><text text-anchor="middle" transform="translate(-22.123046875,300) rotate(-90) translate(0,-2)" font-family="sans-serif" font-size="11px" font-weight="bold" fill="#000" opacity="1">Execution Time (seconds, lower=better)</text></g></g><path class="foreground" aria-hidden="true" d="" pointer-events="none" display="none"/></g></g><g class="mark-group role-scope" role="graphics-object" aria-roledescription="group mark container"><g transform="translate(5.714285714285666,598.1721353504684)"><path class="background" aria-hidden="true" d="M0.913932324765824,0L101.94321053237704,0C102.44762351378603,0,102.85714285714286,0.4095193433568359,102.85714285714286,0.913932324765824L102.85714285714286,1.827864649531648C102.85714285714286,1.827864649531648,102.85714285714286,1.827864649531648,102.85714285714286,1.827864649531648L0,1.827864649531648C0,1.827864649531648,0,1.827864649531648,0,1.827864649531648L0,0.913932324765824C0,0.4095193433568359,0.4095193433568359,0,0.913932324765824,0Z"/><g clip-path="url(#clip9)"><g class="mark-group role-scope" role="graphics-object" aria-roledescription="group mark container"><g transform="translate(0,-598.1721353504684)"><path class="background" aria-hidden="true" d="M0,0h102.85714285714286v0h-102.85714285714286Z"/><g><g class="mark-rect role-mark layer_0_marks" role="graphics-object" aria-roledescription="rect mark container"><path aria-label="Parser: yamlrocks&#xA;v0.2.1; Execution Time (seconds, lower=better): 0.0451156666666; parser: yamlrocks; Execution Time (s): 0.0451; Slowdown: 1.00" role="graphics-symbol" aria-roledescription="bar" d="M0,598.1721353504684h102.85714285714286v1.827864649531648h-102.85714285714286Z" fill="#a6761d"/></g></g><path class="foreground" aria-hidden="true" d="" display="none"/></g></g></g><path class="foreground" aria-hidden="true" d="" display="none"/></g><g transform="translate(119.99999999999996,597.4137390507485)"><path class="background" aria-hidden="true" d="M1.293130474625741,0L101.56401238251712,0C102.27771052009412,0,102.85714285714286,0.5794323370487373,102.85714285714286,1.293130474625741L102.85714285714286,2.586260949251482C102.85714285714286,2.586260949251482,102.85714285714286,2.586260949251482,102.85714285714286,2.586260949251482L0,2.586260949251482C0,2.586260949251482,0,2.586260949251482,0,2.586260949251482L0,1.293130474625741C0,0.5794323370487373,0.5794323370487373,0,1.293130474625741,0Z"/><g clip-path="url(#clip10)"><g class="mark-group role-scope" role="graphics-object" aria-roledescription="group mark container"><g transform="translate(0,-597.4137390507485)"><path class="background" aria-hidden="true" d="M0,0h102.85714285714286v0h-102.85714285714286Z"/><g><g class="mark-rect role-mark layer_0_marks" role="graphics-object" aria-roledescription="rect mark container"><path aria-label="Parser: yaml_rs&#xA;v0.1.4; Execution Time (seconds, lower=better): 0.0638345333333; parser: yaml_rs; Execution Time (s): 0.0638; Slowdown: 1.41" role="graphics-symbol" aria-roledescription="bar" d="M0,597.4137390507485h102.85714285714286v2.586260949251482h-102.85714285714286Z" fill="#e6ab02"/></g></g><path class="foreground" aria-hidden="true" d="" display="none"/></g></g></g><path class="foreground" aria-hidden="true" d="" display="none"/></g><g transform="translate(234.28571428571425,591.6300836991255)"><path class="background" aria-hidden="true" d="M4.1849581504372395,0L98.67218470670562,0C100.98192598681055,0,102.85714285714286,1.8752168703323056,102.85714285714286,4.1849581504372395L102.85714285714286,8.369916300874479C102.85714285714286,8.369916300874479,102.85714285714286,8.369916300874479,102.85714285714286,8.369916300874479L0,8.369916300874479C0,8.369916300874479,0,8.369916300874479,0,8.369916300874479L0,4.1849581504372395C0,1.8752168703323056,1.8752168703323056,0,4.1849581504372395,0Z"/><g clip-path="url(#clip11)"><g class="mark-group role-scope" role="graphics-object" aria-roledescription="group mark container"><g transform="translate(0,-591.6300836991255)"><path class="background" aria-hidden="true" d="M0,0h102.85714285714286v0h-102.85714285714286Z"/><g><g class="mark-rect role-mark layer_0_marks" role="graphics-object" aria-roledescription="rect mark container"><path aria-label="Parser: ryaml&#xA;v0.5.1; Execution Time (seconds, lower=better): 0.2065877; parser: ryaml; Execution Time (s): 0.2066; Slowdown: 4.58" role="graphics-symbol" aria-roledescription="bar" d="M0,591.6300836991255h102.85714285714286v8.369916300874479h-102.85714285714286Z" fill="#66a61e"/></g></g><path class="foreground" aria-hidden="true" d="" display="none"/></g></g></g><path class="foreground" aria-hidden="true" d="" display="none"/></g><g transform="translate(348.57142857142856,586.0060010245826)"><path class="background" aria-hidden="true" d="M6,0L96.85714285714286,0C100.16863300410687,0,102.85714285714286,2.688509853036,102.85714285714286,6L102.85714285714286,13.993998975417412C102.85714285714286,13.993998975417412,102.85714285714286,13.993998975417412,102.85714285714286,13.993998975417412L0,13.993998975417412C0,13.993998975417412,0,13.993998975417412,0,13.993998975417412L0,6C0,2.688509853036,2.688509853036,0,6,0Z"/><g clip-path="url(#clip12)"><g class="mark-group role-scope" role="graphics-object" aria-roledescription="group mark container"><g transform="translate(0,-586.0060010245826)"><path class="background" aria-hidden="true" d="M0,0h102.85714285714286v0h-102.85714285714286Z"/><g><g class="mark-rect role-mark layer_0_marks" role="graphics-object" aria-roledescription="rect mark container"><path aria-label="Parser: PyYAML (CDumper)&#xA;v6.0.3; Execution Time (seconds, lower=better): 0.345402266667; parser: PyYAML (CDumper); Execution Time (s): 0.3454; Slowdown: 7.66" role="graphics-symbol" aria-roledescription="bar" d="M0,586.0060010245826h102.85714285714286v13.993998975417412h-102.85714285714286Z" fill="#d95f02"/></g></g><path class="foreground" aria-hidden="true" d="" display="none"/></g></g></g><path class="foreground" aria-hidden="true" d="" display="none"/></g><g transform="translate(462.85714285714283,48.09652863716172)"><path class="background" aria-hidden="true" d="M6,0L96.85714285714286,0C100.16863300410687,0,102.85714285714286,2.688509853036,102.85714285714286,6L102.85714285714286,551.9034713628383C102.85714285714286,551.9034713628383,102.85714285714286,551.9034713628383,102.85714285714286,551.9034713628383L0,551.9034713628383C0,551.9034713628383,0,551.9034713628383,0,551.9034713628383L0,6C0,2.688509853036,2.688509853036,0,6,0Z"/><g clip-path="url(#clip13)"><g class="mark-group role-scope" role="graphics-object" aria-roledescription="group mark container"><g transform="translate(0,-48.09652863716172)"><path class="background" aria-hidden="true" d="M0,0h102.85714285714286v0h-102.85714285714286Z"/><g><g class="mark-rect role-mark layer_0_marks" role="graphics-object" aria-roledescription="rect mark container"><path aria-label="Parser: oyaml&#xA;v1.0; Execution Time (seconds, lower=better): 13.6221755; parser: oyaml; Execution Time (s): 13.6222; Slowdown: 301.94" role="graphics-symbol" aria-roledescription="bar" d="M0,48.09652863716172h102.85714285714286v551.9034713628383h-102.85714285714286Z" fill="#7570b3"/></g></g><path class="foreground" aria-hidden="true" d="" display="none"/></g></g></g><path class="foreground" aria-hidden="true" d="" display="none"/></g><g transform="translate(577.1428571428571,47.468284317079366)"><path class="background" aria-hidden="true" d="M6,0L96.85714285714286,0C100.16863300410687,0,102.85714285714286,2.688509853036,102.85714285714286,6L102.85714285714286,552.5317156829207C102.85714285714286,552.5317156829207,102.85714285714286,552.5317156829207,102.85714285714286,552.5317156829207L0,552.5317156829207C0,552.5317156829207,0,552.5317156829207,0,552.5317156829207L0,6C0,2.688509853036,2.688509853036,0,6,0Z"/><g clip-path="url(#clip14)"><g class="mark-group role-scope" role="graphics-object" aria-roledescription="group mark container"><g transform="translate(0,-47.468284317079366)"><path class="background" aria-hidden="true" d="M0,0h102.85714285714286v0h-102.85714285714286Z"/><g><g class="mark-rect role-mark layer_0_marks" role="graphics-object" aria-roledescription="rect mark container"><path aria-label="Parser: PyYAML&#xA;v6.0.3; Execution Time (seconds, lower=better): 13.6376819333; parser: PyYAML; Execution Time (s): 13.6377; Slowdown: 302.28" role="graphics-symbol" aria-roledescription="bar" d="M0,47.468284317079366h102.85714285714286v552.5317156829207h-102.85714285714286Z" fill="#1b9e77"/></g></g><path class="foreground" aria-hidden="true" d="" display="none"/></g></g></g><path class="foreground" aria-hidden="true" d="" display="none"/></g><g transform="translate(691.4285714285714,23.076923076923062)"><path class="background" aria-hidden="true" d="M6,0L96.85714285714286,0C100.16863300410687,0,102.85714285714286,2.688509853036,102.85714285714286,6L102.85714285714286,576.9230769230769C102.85714285714286,576.9230769230769,102.85714285714286,576.9230769230769,102.85714285714286,576.9230769230769L0,576.9230769230769C0,576.9230769230769,0,576.9230769230769,0,576.9230769230769L0,6C0,2.688509853036,2.688509853036,0,6,0Z"/><g clip-path="url(#clip15)"><g class="mark-group role-scope" role="graphics-object" aria-roledescription="group mark container"><g transform="translate(0,-23.076923076923062)"><path class="background" aria-hidden="true" d="M0,0h102.85714285714286v0h-102.85714285714286Z"/><g><g class="mark-rect role-mark layer_0_marks" role="graphics-object" aria-roledescription="rect mark container"><path aria-label="Parser: ruamel.yaml&#xA;v0.19.1; Execution Time (seconds, lower=better): 14.2397136667; parser: ruamel.yaml; Execution Time (s): 14.2397; Slowdown: 315.63" role="graphics-symbol" aria-roledescription="bar" d="M0,23.076923076923062h102.85714285714286v576.9230769230769h-102.85714285714286Z" fill="#e7298a"/></g></g><path class="foreground" aria-hidden="true" d="" display="none"/></g></g></g><path class="foreground" aria-hidden="true" d="" display="none"/></g></g><g class="mark-text role-mark layer_1_marks" role="graphics-object" aria-roledescription="text mark container"><text aria-label="Parser: yamlrocks&#xA;v0.2.1; Execution Time (seconds, lower=better): 0.0451156666666; parser: yamlrocks; label: 0.0451s (x1.00); Execution Time (s): 0.0451; Slowdown: 1.00" role="graphics-symbol" aria-roledescription="text mark" text-anchor="middle" transform="translate(57.142857142857096,594.1721353504684)" font-family="sans-serif" font-size="9px" font-weight="bold" fill="#a6761d">0.0451s (x1.00)</text><text aria-label="Parser: yaml_rs&#xA;v0.1.4; Execution Time (seconds, lower=better): 0.0638345333333; parser: yaml_rs; label: 0.0638s (x1.41); Execution Time (s): 0.0638; Slowdown: 1.41" role="graphics-symbol" aria-roledescription="text mark" text-anchor="middle" transform="translate(171.4285714285714,593.4137390507485)" font-family="sans-serif" font-size="9px" font-weight="bold" fill="#e6ab02">0.0638s (x1.41)</text><text aria-label="Parser: ryaml&#xA;v0.5.1; Execution Time (seconds, lower=better): 0.2065877; parser: ryaml; label: 0.2066s (x4.58); Execution Time (s): 0.2066; Slowdown: 4.58" role="graphics-symbol" aria-roledescription="text mark" text-anchor="middle" transform="translate(285.71428571428567,587.6300836991255)" font-family="sans-serif" font-size="9px" font-weight="bold" fill="#66a61e">0.2066s (x4.58)</text><text aria-label="Parser: PyYAML (CDumper)&#xA;v6.0.3; Execution Time (seconds, lower=better): 0.345402266667; parser: PyYAML (CDumper); label: 0.3454s (x7.66); Execution Time (s): 0.3454; Slowdown: 7.66" role="graphics-symbol" aria-roledescription="text mark" text-anchor="middle" transform="translate(400,582.0060010245826)" font-family="sans-serif" font-size="9px" font-weight="bold" fill="#d95f02">0.3454s (x7.66)</text><text aria-label="Parser: oyaml&#xA;v1.0; Execution Time (seconds, lower=better): 13.6221755; parser: oyaml; label: 13.6222s (x301.94); Execution Time (s): 13.6222; Slowdown: 301.94" role="graphics-symbol" aria-roledescription="text mark" text-anchor="middle" transform="translate(514.2857142857142,44.09652863716172)" font-family="sans-serif" font-size="9px" font-weight="bold" fill="#7570b3">13.6222s (x301.94)</text><text aria-label="Parser: PyYAML&#xA;v6.0.3; Execution Time (seconds, lower=better): 13.6376819333; parser: PyYAML; label: 13.6377s (x302.28); Execution Time (s): 13.6377; Slowdown: 302.28" role="graphics-symbol" aria-roledescription="text mark" text-anchor="middle" transform="translate(628.5714285714286,43.468284317079366)" font-family="sans-serif" font-size="9px" font-weight="bold" fill="#1b9e77">13.6377s (x302.28)</text><text aria-label="Parser: ruamel.yaml&#xA;v0.19.1; Execution Time (seconds, lower=better): 14.2397136667; parser: ruamel.yaml; label: 14.2397s (x315.63); Execution Time (s): 14.2397; Slowdown: 315.63" role="graphics-symbol" aria-roledescription="text mark" text-anchor="middle" transform="translate(742.8571428571429,19.076923076923062)" font-family="sans-serif" font-size="9px" font-weight="bold" fill="#e7298a">14.2397s (x315.63)</text></g><g class="mark-group role-title"><g transform="translate(400,-31)"><path class="background" aria-hidden="true" d="M0,0h0v0h0Z" pointer-events="none"/><g><g class="mark-text role-title-text" role="graphics-symbol" aria-roledescription="title" aria-label="Title text 'YAML parsers benchmark (dumps)'" pointer-events="none"><text text-anchor="middle" transform="translate(0,10)" font-family="sans-serif" font-size="13px" font-weight="bold" fill="#000" opacity="1">YAML parsers benchmark (dumps)</text></g><g class="mark-text role-title-subtitle" role="graphics-symbol" aria-roledescription="subtitle" aria-label="Subtitle text 'Python: 3.14.6 (Windows 2025Server) | CPU: AMD EPYC 7763 64-Core Processor'" pointer-events="none"><text text-anchor="middle" transform="translate(0,25)" font-family="sans-serif" font-size="12px" fill="#000" opacity="1">Python: 3.14.6 (Windows 2025Server) | CPU: AMD EPYC 7763 64-Core Processor</text></g></g><path class="foreground" aria-hidden="true" d="" pointer-events="none" display="none"/></g></g></g><path class="foreground" aria-hidden="true" d="" display="none"/></g></g></g><defs><clipPath id="clip9"><path d="M0.913932324765824,0L101.94321053237704,0C102.44762351378603,0,102.85714285714286,0.4095193433568359,102.85714285714286,0.913932324765824L102.85714285714286,1.827864649531648C102.85714285714286,1.827864649531648,102.85714285714286,1.827864649531648,102.85714285714286,1.827864649531648L0,1.827864649531648C0,1.827864649531648,0,1.827864649531648,0,1.827864649531648L0,0.913932324765824C0,0.4095193433568359,0.4095193433568359,0,0.913932324765824,0Z"/></clipPath><clipPath id="clip10"><path d="M1.293130474625741,0L101.56401238251712,0C102.27771052009412,0,102.85714285714286,0.5794323370487373,102.85714285714286,1.293130474625741L102.85714285714286,2.586260949251482C102.85714285714286,2.586260949251482,102.85714285714286,2.586260949251482,102.85714285714286,2.586260949251482L0,2.586260949251482C0,2.586260949251482,0,2.586260949251482,0,2.586260949251482L0,1.293130474625741C0,0.5794323370487373,0.5794323370487373,0,1.293130474625741,0Z"/></clipPath><clipPath id="clip11"><path d="M4.1849581504372395,0L98.67218470670562,0C100.98192598681055,0,102.85714285714286,1.8752168703323056,102.85714285714286,4.1849581504372395L102.85714285714286,8.369916300874479C102.85714285714286,8.369916300874479,102.85714285714286,8.369916300874479,102.85714285714286,8.369916300874479L0,8.369916300874479C0,8.369916300874479,0,8.369916300874479,0,8.369916300874479L0,4.1849581504372395C0,1.8752168703323056,1.8752168703323056,0,4.1849581504372395,0Z"/></clipPath><clipPath id="clip12"><path d="M6,0L96.85714285714286,0C100.16863300410687,0,102.85714285714286,2.688509853036,102.85714285714286,6L102.85714285714286,13.993998975417412C102.85714285714286,13.993998975417412,102.85714285714286,13.993998975417412,102.85714285714286,13.993998975417412L0,13.993998975417412C0,13.993998975417412,0,13.993998975417412,0,13.993998975417412L0,6C0,2.688509853036,2.688509853036,0,6,0Z"/></clipPath><clipPath id="clip13"><path d="M6,0L96.85714285714286,0C100.16863300410687,0,102.85714285714286,2.688509853036,102.85714285714286,6L102.85714285714286,551.9034713628383C102.85714285714286,551.9034713628383,102.85714285714286,551.9034713628383,102.85714285714286,551.9034713628383L0,551.9034713628383C0,551.9034713628383,0,551.9034713628383,0,551.9034713628383L0,6C0,2.688509853036,2.688509853036,0,6,0Z"/></clipPath><clipPath id="clip14"><path d="M6,0L96.85714285714286,0C100.16863300410687,0,102.85714285714286,2.688509853036,102.85714285714286,6L102.85714285714286,552.5317156829207C102.85714285714286,552.5317156829207,102.85714285714286,552.5317156829207,102.85714285714286,552.5317156829207L0,552.5317156829207C0,552.5317156829207,0,552.5317156829207,0,552.5317156829207L0,6C0,2.688509853036,2.688509853036,0,6,0Z"/></clipPath><clipPath id="clip15"><path d="M6,0L96.85714285714286,0C100.16863300410687,0,102.85714285714286,2.688509853036,102.85714285714286,6L102.85714285714286,576.9230769230769C102.85714285714286,576.9230769230769,102.85714285714286,576.9230769230769,102.85714285714286,576.9230769230769L0,576.9230769230769C0,576.9230769230769,0,576.9230769230769,0,576.9230769230769L0,6C0,2.688509853036,2.688509853036,0,6,0Z"/></clipPath></defs></svg>