<svg xmlns="http://www.w3.org/2000/svg" xmlns:xlink="http://www.w3.org/1999/xlink" version="1.1" class="marks" width="844" height="687" viewBox="0 0 844 687"><rect width="844" height="687" fill="white"/><g fill="none" stroke-miterlimit="10" transform="translate(39,36)"><g class="mark-group role-frame root" role="graphics-object" aria-roledescription="group mark container"><g transform="translate(0,0)"><path class="background" aria-hidden="true" d="M0.5,0.5h800v600h-800Z" stroke="#ddd"/><g><g class="mark-group role-axis" role="graphics-symbol" aria-roledescription="axis" aria-label="X-axis titled 'Parser' for a discrete scale with 7 values: yamlrocks&#xA;0.6.1, yaml_rs&#xA;0.1.6, ryaml&#xA;0.5.1, PyYAML (CDumper)&#xA;6.0.3, oyaml&#xA;1.0, PyYAML&#xA;6.0.3, ruamel.yaml&#xA;0.19.1"><g transform="translate(0.5,600.5)"><path class="background" aria-hidden="true" d="M0,0h0v0h0Z" pointer-events="none"/><g><g class="mark-rule role-axis-tick" pointer-events="none"><line transform="translate(57,0)" x2="0" y2="5" stroke="#888" stroke-width="1" opacity="1"/><line transform="translate(171,0)" x2="0" y2="5" stroke="#888" stroke-width="1" opacity="1"/><line transform="translate(285,0)" x2="0" y2="5" stroke="#888" stroke-width="1" opacity="1"/><line transform="translate(400,0)" x2="0" y2="5" stroke="#888" stroke-width="1" opacity="1"/><line transform="translate(514,0)" x2="0" y2="5" stroke="#888" stroke-width="1" opacity="1"/><line transform="translate(628,0)" x2="0" y2="5" stroke="#888" stroke-width="1" opacity="1"/><line transform="translate(742,0)" x2="0" y2="5" stroke="#888" stroke-width="1" opacity="1"/></g><g class="mark-text role-axis-label" pointer-events="none"><text text-anchor="middle" transform="translate(56.642857142857096,15)" font-family="sans-serif" font-size="10px" fill="#000" opacity="1"><tspan>yamlrocks</tspan><tspan x="0" dy="14">0.6.1</tspan></text><text text-anchor="middle" transform="translate(170.9285714285714,15)" font-family="sans-serif" font-size="10px" fill="#000" opacity="1"><tspan>yaml_rs</tspan><tspan x="0" dy="14">0.1.6</tspan></text><text text-anchor="middle" transform="translate(285.21428571428567,15)" font-family="sans-serif" font-size="10px" fill="#000" opacity="1"><tspan>ryaml</tspan><tspan x="0" dy="14">0.5.1</tspan></text><text text-anchor="middle" transform="translate(399.5,15)" font-family="sans-serif" font-size="10px" fill="#000" opacity="1"><tspan>PyYAML (CDumper)</tspan><tspan x="0" dy="14">6.0.3</tspan></text><text text-anchor="middle" transform="translate(513.7857142857142,15)" font-family="sans-serif" font-size="10px" fill="#000" opacity="1"><tspan>oyaml</tspan><tspan x="0" dy="14">1.0</tspan></text><text text-anchor="middle" transform="translate(628.0714285714286,15)" font-family="sans-serif" font-size="10px" fill="#000" opacity="1"><tspan>PyYAML</tspan><tspan x="0" dy="14">6.0.3</tspan></text><text text-anchor="middle" transform="translate(742.3571428571429,15)" font-family="sans-serif" font-size="10px" fill="#000" opacity="1"><tspan>ruamel.yaml</tspan><tspan x="0" dy="14">0.19.1</tspan></text></g><g class="mark-rule role-axis-domain" pointer-events="none"><line transform="translate(0,0)" x2="800" y2="0" stroke="#888" stroke-width="1" opacity="1"/></g><g class="mark-text role-axis-title" pointer-events="none"><text text-anchor="middle" transform="translate(400,44)" font-family="sans-serif" font-size="11px" font-weight="bold" fill="#000" opacity="1">Parser</text></g></g><path class="foreground" aria-hidden="true" d="" pointer-events="none" display="none"/></g></g><g class="mark-group role-axis" role="graphics-symbol" aria-roledescription="axis" aria-label="Y-axis titled 'Execution Time (seconds, lower=better)' for a linear scale with values from 0 to 18"><g transform="translate(0.5,0.5)"><path class="background" aria-hidden="true" d="M0,0h0v0h0Z" pointer-events="none"/><g><g class="mark-rule role-axis-tick" pointer-events="none"><line transform="translate(0,600)" x2="-5" y2="0" stroke="#888" stroke-width="1" opacity="1"/><line transform="translate(0,566)" x2="-5" y2="0" stroke="#888" stroke-width="1" opacity="1"/><line transform="translate(0,532)" x2="-5" y2="0" stroke="#888" stroke-width="1" opacity="1"/><line transform="translate(0,497)" x2="-5" y2="0" stroke="#888" stroke-width="1" opacity="1"/><line transform="translate(0,463)" x2="-5" y2="0" stroke="#888" stroke-width="1" opacity="1"/><line transform="translate(0,429)" x2="-5" y2="0" stroke="#888" stroke-width="1" opacity="1"/><line transform="translate(0,395)" x2="-5" y2="0" stroke="#888" stroke-width="1" opacity="1"/><line transform="translate(0,361)" x2="-5" y2="0" stroke="#888" stroke-width="1" opacity="1"/><line transform="translate(0,327)" x2="-5" y2="0" stroke="#888" stroke-width="1" opacity="1"/><line transform="translate(0,292)" x2="-5" y2="0" stroke="#888" stroke-width="1" opacity="1"/><line transform="translate(0,258)" x2="-5" y2="0" stroke="#888" stroke-width="1" opacity="1"/><line transform="translate(0,224)" x2="-5" y2="0" stroke="#888" stroke-width="1" opacity="1"/><line transform="translate(0,190)" x2="-5" y2="0" stroke="#888" stroke-width="1" opacity="1"/><line transform="translate(0,156)" x2="-5" y2="0" stroke="#888" stroke-width="1" opacity="1"/><line transform="translate(0,121)" x2="-5" y2="0" stroke="#888" stroke-width="1" opacity="1"/><line transform="translate(0,87)" x2="-5" y2="0" stroke="#888" stroke-width="1" opacity="1"/><line transform="translate(0,53)" x2="-5" y2="0" stroke="#888" stroke-width="1" opacity="1"/><line transform="translate(0,19)" x2="-5" y2="0" stroke="#888" stroke-width="1" opacity="1"/></g><g class="mark-text role-axis-label" pointer-events="none"><text text-anchor="end" transform="translate(-7,603)" font-family="sans-serif" font-size="10px" fill="#000" opacity="1">0</text><text text-anchor="end" transform="translate(-7,568.8145383410015)" font-family="sans-serif" font-size="10px" fill="#000" opacity="1">1</text><text text-anchor="end" transform="translate(-7,534.629076682003)" font-family="sans-serif" font-size="10px" fill="#000" opacity="1">2</text><text text-anchor="end" transform="translate(-7,500.44361502300444)" font-family="sans-serif" font-size="10px" fill="#000" opacity="1">3</text><text text-anchor="end" transform="translate(-7,466.25815336400586)" font-family="sans-serif" font-size="10px" fill="#000" opacity="1">4</text><text text-anchor="end" transform="translate(-7,432.0726917050074)" font-family="sans-serif" font-size="10px" fill="#000" opacity="1">5</text><text text-anchor="end" transform="translate(-7,397.8872300460089)" font-family="sans-serif" font-size="10px" fill="#000" opacity="1">6</text><text text-anchor="end" transform="translate(-7,363.7017683870104)" font-family="sans-serif" font-size="10px" fill="#000" opacity="1">7</text><text text-anchor="end" transform="translate(-7,329.51630672801184)" font-family="sans-serif" font-size="10px" fill="#000" opacity="1">8</text><text text-anchor="end" transform="translate(-7,295.3308450690133)" font-family="sans-serif" font-size="10px" fill="#000" opacity="1">9</text><text text-anchor="end" transform="translate(-7,261.1453834100148)" font-family="sans-serif" font-size="10px" fill="#000" opacity="1">10</text><text text-anchor="end" transform="translate(-7,226.95992175101628)" font-family="sans-serif" font-size="10px" fill="#000" opacity="1">11</text><text text-anchor="end" transform="translate(-7,192.7744600920178)" font-family="sans-serif" font-size="10px" fill="#000" opacity="1">12</text><text text-anchor="end" transform="translate(-7,158.58899843301924)" font-family="sans-serif" font-size="10px" fill="#000" opacity="1">13</text><text text-anchor="end" transform="translate(-7,124.40353677402074)" font-family="sans-serif" font-size="10px" fill="#000" opacity="1">14</text><text text-anchor="end" transform="translate(-7,90.21807511502224)" font-family="sans-serif" font-size="10px" fill="#000" opacity="1">15</text><text text-anchor="end" transform="translate(-7,56.03261345602368)" font-family="sans-serif" font-size="10px" fill="#000" opacity="1">16</text><text text-anchor="end" transform="translate(-7,21.847151797025184)" font-family="sans-serif" font-size="10px" fill="#000" opacity="1">17</text></g><g class="mark-rule role-axis-domain" pointer-events="none"><line transform="translate(0,600)" x2="0" y2="-600" stroke="#888" stroke-width="1" opacity="1"/></g><g class="mark-text role-axis-title" pointer-events="none"><text text-anchor="middle" transform="translate(-22.123046875,300) rotate(-90) translate(0,-2)" font-family="sans-serif" font-size="11px" font-weight="bold" fill="#000" opacity="1">Execution Time (seconds, lower=better)</text></g></g><path class="foreground" aria-hidden="true" d="" pointer-events="none" display="none"/></g></g><g class="mark-group role-scope" role="graphics-object" aria-roledescription="group mark container"><g transform="translate(5.714285714285666,598.0333069722113)"><path class="background" aria-hidden="true" d="M0.9833465138943325,0L101.87379634324853,0C102.4165200585506,0,102.85714285714286,0.44062279859225245,102.85714285714286,0.9833465138943325L102.85714285714286,1.966693027788665C102.85714285714286,1.966693027788665,102.85714285714286,1.966693027788665,102.85714285714286,1.966693027788665L0,1.966693027788665C0,1.966693027788665,0,1.966693027788665,0,1.966693027788665L0,0.9833465138943325C0,0.44062279859225245,0.44062279859225245,0,0.9833465138943325,0Z"/><g clip-path="url(#clip9)"><g class="mark-group role-scope" role="graphics-object" aria-roledescription="group mark container"><g transform="translate(0,-598.0333069722113)"><path class="background" aria-hidden="true" d="M0,0h102.85714285714286v0h-102.85714285714286Z"/><g><g class="mark-rect role-mark layer_0_marks" role="graphics-object" aria-roledescription="rect mark container"><path aria-label="Parser: yamlrocks&#xA;0.6.1; Execution Time (seconds, lower=better): 0.0575301; parser: yamlrocks; Execution Time (s): 0.0575; Slowdown: 1.00" role="graphics-symbol" aria-roledescription="bar" d="M0,598.0333069722113h102.85714285714286v1.966693027788665h-102.85714285714286Z" fill="#a6761d"/></g></g><path class="foreground" aria-hidden="true" d="" display="none"/></g></g></g><path class="foreground" aria-hidden="true" d="" display="none"/></g><g transform="translate(119.99999999999996,597.3809845508954)"><path class="background" aria-hidden="true" d="M1.3095077245523044,0L101.54763513259056,0C102.27037212046193,0,102.85714285714286,0.5867707366809372,102.85714285714286,1.3095077245523044L102.85714285714286,2.6190154491046087C102.85714285714286,2.6190154491046087,102.85714285714286,2.6190154491046087,102.85714285714286,2.6190154491046087L0,2.6190154491046087C0,2.6190154491046087,0,2.6190154491046087,0,2.6190154491046087L0,1.3095077245523044C0,0.5867707366809372,0.5867707366809372,0,1.3095077245523044,0Z"/><g clip-path="url(#clip10)"><g class="mark-group role-scope" role="graphics-object" aria-roledescription="group mark container"><g transform="translate(0,-597.3809845508954)"><path class="background" aria-hidden="true" d="M0,0h102.85714285714286v0h-102.85714285714286Z"/><g><g class="mark-rect role-mark layer_0_marks" role="graphics-object" aria-roledescription="rect mark container"><path aria-label="Parser: yaml_rs&#xA;0.1.6; Execution Time (seconds, lower=better): 0.0766119666667; parser: yaml_rs; Execution Time (s): 0.0766; Slowdown: 1.33" role="graphics-symbol" aria-roledescription="bar" d="M0,597.3809845508954h102.85714285714286v2.6190154491046087h-102.85714285714286Z" fill="#e6ab02"/></g></g><path class="foreground" aria-hidden="true" d="" display="none"/></g></g></g><path class="foreground" aria-hidden="true" d="" display="none"/></g><g transform="translate(234.28571428571425,591.9992869710356)"><path class="background" aria-hidden="true" d="M4.000356514482178,0L98.85678634266068,0C101.06464320633584,0,102.85714285714286,1.7924996508070141,102.85714285714286,4.000356514482178L102.85714285714286,8.000713028964356C102.85714285714286,8.000713028964356,102.85714285714286,8.000713028964356,102.85714285714286,8.000713028964356L0,8.000713028964356C0,8.000713028964356,0,8.000713028964356,0,8.000713028964356L0,4.000356514482178C0,1.7924996508070141,1.7924996508070141,0,4.000356514482178,0Z"/><g clip-path="url(#clip11)"><g class="mark-group role-scope" role="graphics-object" aria-roledescription="group mark container"><g transform="translate(0,-591.9992869710356)"><path class="background" aria-hidden="true" d="M0,0h102.85714285714286v0h-102.85714285714286Z"/><g><g class="mark-rect role-mark layer_0_marks" role="graphics-object" aria-roledescription="rect mark container"><path aria-label="Parser: ryaml&#xA;0.5.1; Execution Time (seconds, lower=better): 0.234038466667; parser: ryaml; Execution Time (s): 0.2340; Slowdown: 4.07" role="graphics-symbol" aria-roledescription="bar" d="M0,591.9992869710356h102.85714285714286v8.000713028964356h-102.85714285714286Z" fill="#66a61e"/></g></g><path class="foreground" aria-hidden="true" d="" display="none"/></g></g></g><path class="foreground" aria-hidden="true" d="" display="none"/></g><g transform="translate(348.57142857142856,586.8463653376898)"><path class="background" aria-hidden="true" d="M6,0L96.85714285714286,0C100.16863300410687,0,102.85714285714286,2.688509853036,102.85714285714286,6L102.85714285714286,13.153634662310196C102.85714285714286,13.153634662310196,102.85714285714286,13.153634662310196,102.85714285714286,13.153634662310196L0,13.153634662310196C0,13.153634662310196,0,13.153634662310196,0,13.153634662310196L0,6C0,2.688509853036,2.688509853036,0,6,0Z"/><g clip-path="url(#clip12)"><g class="mark-group role-scope" role="graphics-object" aria-roledescription="group mark container"><g transform="translate(0,-586.8463653376898)"><path class="background" aria-hidden="true" d="M0,0h102.85714285714286v0h-102.85714285714286Z"/><g><g class="mark-rect role-mark layer_0_marks" role="graphics-object" aria-roledescription="rect mark container"><path aria-label="Parser: PyYAML (CDumper)&#xA;6.0.3; Execution Time (seconds, lower=better): 0.384772766667; parser: PyYAML (CDumper); Execution Time (s): 0.3848; Slowdown: 6.69" role="graphics-symbol" aria-roledescription="bar" d="M0,586.8463653376898h102.85714285714286v13.153634662310196h-102.85714285714286Z" fill="#d95f02"/></g></g><path class="foreground" aria-hidden="true" d="" display="none"/></g></g></g><path class="foreground" aria-hidden="true" d="" display="none"/></g><g transform="translate(462.85714285714283,92.13475697605824)"><path class="background" aria-hidden="true" d="M6,0L96.85714285714286,0C100.16863300410687,0,102.85714285714286,2.688509853036,102.85714285714286,6L102.85714285714286,507.86524302394173C102.85714285714286,507.86524302394173,102.85714285714286,507.86524302394173,102.85714285714286,507.86524302394173L0,507.86524302394173C0,507.86524302394173,0,507.86524302394173,0,507.86524302394173L0,6C0,2.688509853036,2.688509853036,0,6,0Z"/><g clip-path="url(#clip13)"><g class="mark-group role-scope" role="graphics-object" aria-roledescription="group mark container"><g transform="translate(0,-92.13475697605824)"><path class="background" aria-hidden="true" d="M0,0h102.85714285714286v0h-102.85714285714286Z"/><g><g class="mark-rect role-mark layer_0_marks" role="graphics-object" aria-roledescription="rect mark container"><path aria-label="Parser: oyaml&#xA;1.0; Execution Time (seconds, lower=better): 14.8561762333; parser: oyaml; Execution Time (s): 14.8562; Slowdown: 258.23" role="graphics-symbol" aria-roledescription="bar" d="M0,92.13475697605824h102.85714285714286v507.86524302394173h-102.85714285714286Z" fill="#7570b3"/></g></g><path class="foreground" aria-hidden="true" d="" display="none"/></g></g></g><path class="foreground" aria-hidden="true" d="" display="none"/></g><g transform="translate(577.1428571428571,72.99212456557756)"><path class="background" aria-hidden="true" d="M6,0L96.85714285714286,0C100.16863300410687,0,102.85714285714286,2.688509853036,102.85714285714286,6L102.85714285714286,527.0078754344224C102.85714285714286,527.0078754344224,102.85714285714286,527.0078754344224,102.85714285714286,527.0078754344224L0,527.0078754344224C0,527.0078754344224,0,527.0078754344224,0,527.0078754344224L0,6C0,2.688509853036,2.688509853036,0,6,0Z"/><g clip-path="url(#clip14)"><g class="mark-group role-scope" role="graphics-object" aria-roledescription="group mark container"><g transform="translate(0,-72.99212456557756)"><path class="background" aria-hidden="true" d="M0,0h102.85714285714286v0h-102.85714285714286Z"/><g><g class="mark-rect role-mark layer_0_marks" role="graphics-object" aria-roledescription="rect mark container"><path aria-label="Parser: PyYAML&#xA;6.0.3; Execution Time (seconds, lower=better): 15.4161403667; parser: PyYAML; Execution Time (s): 15.4161; Slowdown: 267.97" role="graphics-symbol" aria-roledescription="bar" d="M0,72.99212456557756h102.85714285714286v527.0078754344224h-102.85714285714286Z" fill="#1b9e77"/></g></g><path class="foreground" aria-hidden="true" d="" display="none"/></g></g></g><path class="foreground" aria-hidden="true" d="" display="none"/></g><g transform="translate(691.4285714285714,28.571428571428605)"><path class="background" aria-hidden="true" d="M6,0L96.85714285714286,0C100.16863300410687,0,102.85714285714286,2.688509853036,102.85714285714286,6L102.85714285714286,571.4285714285714C102.85714285714286,571.4285714285714,102.85714285714286,571.4285714285714,102.85714285714286,571.4285714285714L0,571.4285714285714C0,571.4285714285714,0,571.4285714285714,0,571.4285714285714L0,6C0,2.688509853036,2.688509853036,0,6,0Z"/><g clip-path="url(#clip15)"><g class="mark-group role-scope" role="graphics-object" aria-roledescription="group mark container"><g transform="translate(0,-28.571428571428605)"><path class="background" aria-hidden="true" d="M0,0h102.85714285714286v0h-102.85714285714286Z"/><g><g class="mark-rect role-mark layer_0_marks" role="graphics-object" aria-roledescription="rect mark container"><path aria-label="Parser: ruamel.yaml&#xA;0.19.1; Execution Time (seconds, lower=better): 16.7155435; parser: ruamel.yaml; Execution Time (s): 16.7155; Slowdown: 290.55" role="graphics-symbol" aria-roledescription="bar" d="M0,28.571428571428605h102.85714285714286v571.4285714285714h-102.85714285714286Z" fill="#e7298a"/></g></g><path class="foreground" aria-hidden="true" d="" display="none"/></g></g></g><path class="foreground" aria-hidden="true" d="" display="none"/></g></g><g class="mark-text role-mark layer_1_marks" role="graphics-object" aria-roledescription="text mark container"><text aria-label="Parser: yamlrocks&#xA;0.6.1; Execution Time (seconds, lower=better): 0.0575301; parser: yamlrocks; label: 0.0575s (x1.00); Execution Time (s): 0.0575; Slowdown: 1.00" role="graphics-symbol" aria-roledescription="text mark" text-anchor="middle" transform="translate(57.142857142857096,594.0333069722113)" font-family="sans-serif" font-size="9px" font-weight="bold" fill="#a6761d">0.0575s (x1.00)</text><text aria-label="Parser: yaml_rs&#xA;0.1.6; Execution Time (seconds, lower=better): 0.0766119666667; parser: yaml_rs; label: 0.0766s (x1.33); Execution Time (s): 0.0766; Slowdown: 1.33" role="graphics-symbol" aria-roledescription="text mark" text-anchor="middle" transform="translate(171.4285714285714,593.3809845508954)" font-family="sans-serif" font-size="9px" font-weight="bold" fill="#e6ab02">0.0766s (x1.33)</text><text aria-label="Parser: ryaml&#xA;0.5.1; Execution Time (seconds, lower=better): 0.234038466667; parser: ryaml; label: 0.2340s (x4.07); Execution Time (s): 0.2340; Slowdown: 4.07" role="graphics-symbol" aria-roledescription="text mark" text-anchor="middle" transform="translate(285.71428571428567,587.9992869710356)" font-family="sans-serif" font-size="9px" font-weight="bold" fill="#66a61e">0.2340s (x4.07)</text><text aria-label="Parser: PyYAML (CDumper)&#xA;6.0.3; Execution Time (seconds, lower=better): 0.384772766667; parser: PyYAML (CDumper); label: 0.3848s (x6.69); Execution Time (s): 0.3848; Slowdown: 6.69" role="graphics-symbol" aria-roledescription="text mark" text-anchor="middle" transform="translate(400,582.8463653376898)" font-family="sans-serif" font-size="9px" font-weight="bold" fill="#d95f02">0.3848s (x6.69)</text><text aria-label="Parser: oyaml&#xA;1.0; Execution Time (seconds, lower=better): 14.8561762333; parser: oyaml; label: 14.8562s (x258.23); Execution Time (s): 14.8562; Slowdown: 258.23" role="graphics-symbol" aria-roledescription="text mark" text-anchor="middle" transform="translate(514.2857142857142,88.13475697605824)" font-family="sans-serif" font-size="9px" font-weight="bold" fill="#7570b3">14.8562s (x258.23)</text><text aria-label="Parser: PyYAML&#xA;6.0.3; Execution Time (seconds, lower=better): 15.4161403667; parser: PyYAML; label: 15.4161s (x267.97); Execution Time (s): 15.4161; Slowdown: 267.97" role="graphics-symbol" aria-roledescription="text mark" text-anchor="middle" transform="translate(628.5714285714286,68.99212456557756)" font-family="sans-serif" font-size="9px" font-weight="bold" fill="#1b9e77">15.4161s (x267.97)</text><text aria-label="Parser: ruamel.yaml&#xA;0.19.1; Execution Time (seconds, lower=better): 16.7155435; parser: ruamel.yaml; label: 16.7155s (x290.55); Execution Time (s): 16.7155; Slowdown: 290.55" role="graphics-symbol" aria-roledescription="text mark" text-anchor="middle" transform="translate(742.8571428571429,24.571428571428605)" font-family="sans-serif" font-size="9px" font-weight="bold" fill="#e7298a">16.7155s (x290.55)</text></g><g class="mark-group role-title"><g transform="translate(400,-31)"><path class="background" aria-hidden="true" d="M0,0h0v0h0Z" pointer-events="none"/><g><g class="mark-text role-title-text" role="graphics-symbol" aria-roledescription="title" aria-label="Title text 'YAML parsers benchmark (dumps)'" pointer-events="none"><text text-anchor="middle" transform="translate(0,10)" font-family="sans-serif" font-size="13px" font-weight="bold" fill="#000" opacity="1">YAML parsers benchmark (dumps)</text></g><g class="mark-text role-title-subtitle" role="graphics-symbol" aria-roledescription="subtitle" aria-label="Subtitle text 'Python: 3.14.7 (Windows 2025Server) | CPU: AMD EPYC 7763 64-Core Processor'" pointer-events="none"><text text-anchor="middle" transform="translate(0,25)" font-family="sans-serif" font-size="12px" fill="#000" opacity="1">Python: 3.14.7 (Windows 2025Server) | CPU: AMD EPYC 7763 64-Core Processor</text></g></g><path class="foreground" aria-hidden="true" d="" pointer-events="none" display="none"/></g></g></g><path class="foreground" aria-hidden="true" d="" display="none"/></g></g></g><defs><clipPath id="clip9"><path d="M0.9833465138943325,0L101.87379634324853,0C102.4165200585506,0,102.85714285714286,0.44062279859225245,102.85714285714286,0.9833465138943325L102.85714285714286,1.966693027788665C102.85714285714286,1.966693027788665,102.85714285714286,1.966693027788665,102.85714285714286,1.966693027788665L0,1.966693027788665C0,1.966693027788665,0,1.966693027788665,0,1.966693027788665L0,0.9833465138943325C0,0.44062279859225245,0.44062279859225245,0,0.9833465138943325,0Z"/></clipPath><clipPath id="clip10"><path d="M1.3095077245523044,0L101.54763513259056,0C102.27037212046193,0,102.85714285714286,0.5867707366809372,102.85714285714286,1.3095077245523044L102.85714285714286,2.6190154491046087C102.85714285714286,2.6190154491046087,102.85714285714286,2.6190154491046087,102.85714285714286,2.6190154491046087L0,2.6190154491046087C0,2.6190154491046087,0,2.6190154491046087,0,2.6190154491046087L0,1.3095077245523044C0,0.5867707366809372,0.5867707366809372,0,1.3095077245523044,0Z"/></clipPath><clipPath id="clip11"><path d="M4.000356514482178,0L98.85678634266068,0C101.06464320633584,0,102.85714285714286,1.7924996508070141,102.85714285714286,4.000356514482178L102.85714285714286,8.000713028964356C102.85714285714286,8.000713028964356,102.85714285714286,8.000713028964356,102.85714285714286,8.000713028964356L0,8.000713028964356C0,8.000713028964356,0,8.000713028964356,0,8.000713028964356L0,4.000356514482178C0,1.7924996508070141,1.7924996508070141,0,4.000356514482178,0Z"/></clipPath><clipPath id="clip12"><path d="M6,0L96.85714285714286,0C100.16863300410687,0,102.85714285714286,2.688509853036,102.85714285714286,6L102.85714285714286,13.153634662310196C102.85714285714286,13.153634662310196,102.85714285714286,13.153634662310196,102.85714285714286,13.153634662310196L0,13.153634662310196C0,13.153634662310196,0,13.153634662310196,0,13.153634662310196L0,6C0,2.688509853036,2.688509853036,0,6,0Z"/></clipPath><clipPath id="clip13"><path d="M6,0L96.85714285714286,0C100.16863300410687,0,102.85714285714286,2.688509853036,102.85714285714286,6L102.85714285714286,507.86524302394173C102.85714285714286,507.86524302394173,102.85714285714286,507.86524302394173,102.85714285714286,507.86524302394173L0,507.86524302394173C0,507.86524302394173,0,507.86524302394173,0,507.86524302394173L0,6C0,2.688509853036,2.688509853036,0,6,0Z"/></clipPath><clipPath id="clip14"><path d="M6,0L96.85714285714286,0C100.16863300410687,0,102.85714285714286,2.688509853036,102.85714285714286,6L102.85714285714286,527.0078754344224C102.85714285714286,527.0078754344224,102.85714285714286,527.0078754344224,102.85714285714286,527.0078754344224L0,527.0078754344224C0,527.0078754344224,0,527.0078754344224,0,527.0078754344224L0,6C0,2.688509853036,2.688509853036,0,6,0Z"/></clipPath><clipPath id="clip15"><path d="M6,0L96.85714285714286,0C100.16863300410687,0,102.85714285714286,2.688509853036,102.85714285714286,6L102.85714285714286,571.4285714285714C102.85714285714286,571.4285714285714,102.85714285714286,571.4285714285714,102.85714285714286,571.4285714285714L0,571.4285714285714C0,571.4285714285714,0,571.4285714285714,0,571.4285714285714L0,6C0,2.688509853036,2.688509853036,0,6,0Z"/></clipPath></defs></svg>